<svg xmlns="http://www.w3.org/2000/svg" xml:space="preserve" viewBox="0 0 128 128"><path d="M82.83461 72.392683c-.10221-.059-.19508-.13048-.27075-.22502-.0747-.0951-.12579-.16598-.16314-.22424-.0374-.0597-.0624-.10626-.0865-.15197-.0251-.0473-.0501-.0929-.0875-.15122-.0364-.0583-.0845-.12681-.15822-.21763-.0737-.0922-.0978-.16154-.0988-.21835 0-.0568.023-.10333.0467-.14902.0236-.0458.0476-.0907.0467-.1468 0-.0561-.0251-.12388-.0973-.21319-.0717-.0885-.13464-.15419-.19508-.20951-.058-.0545-.1135-.0989-.16804-.14163-.0541-.0436-.10811-.0869-.16757-.1409-.0575-.053-.11793-.11801-.18819-.20434-.0698-.0856-.11302-.14975-.14348-.20287-.0295-.0531-.0467-.0973-.0648-.13943-.0153-.0421-.0325-.085-.0619-.1387-.03-.0517-.0722-.11507-.14152-.19919-.0673-.0832-.10171-.1453-.11891-.19769-.0192-.0517-.0211-.0922-.023-.13429-.002-.0421-.004-.0828-.0221-.1343-.0177-.0515-.0526-.11214-.11842-.19326-.0659-.0812-.11646-.1409-.15921-.19181-.0427-.05-.0786-.0907-.11301-.12975-.0349-.0407-.0698-.0804-.11253-.12975-.0432-.05-.0928-.1092-.15576-.18735-.0643-.0791-.088-.14682-.0983-.20656-.01-.0605-.007-.11287-.0197-.16378-.0118-.0493-.0383-.0967-.10713-.14531-.0692-.0474-.17836-.0951-.35821-.149-.0314-.0103-.0615-.0163-.0894-.0228-.029-.007-.0555-.0132-.0815-.0169-.0251-.004-.0501-.007-.0727-.009-.0236-.001-.0462-.003-.0673-.003-.0993.001-.17739.0228-.2506.0546-.0722.0333-.1371.0768-.21032.11815-.0732.0442-.15233.0863-.25404.11947-.10122.0333-.22308.0561-.37934.0575-.19016.001-.34642-.0154-.4845-.0405-.13955-.0258-.26092-.0605-.3818-.0951-.12186-.0346-.24274-.068-.38082-.0938-.13807-.0244-.29384-.0421-.48253-.0399-.18869.001-.32922.006-.4447.009-.11596.004-.20686.009-.29875.0132-.0909.006-.18329.0103-.29925.0148-.11695.004-.25699.007-.44715.009-.18869.001-.32333.0132-.43094.0295-.10712.0154-.18721.0383-.2678.059-.0806.0228-.16068.0436-.26878.0605-.10762.0156-.24275.0273-.43193.0295-.19065.003-.33954-.009-.46926-.0235-.12874-.0156-.23783-.0362-.34642-.0575-.1086-.0213-.21768-.0421-.34642-.0575-.12776-.0156-.27665-.0242-.46484-.0235-.10123.00071-.19066 0-.27027-.004-.081-.003-.15182-.006-.21522-.0103-.0634-.003-.12038-.007-.17247-.0103-.0516-.003-.0993-.006-.14249-.004-.0398 0-.0757.003-.11253.006-.0353.006-.0712.0117-.10761.0214-.0364.0103-.0742.0229-.1145.0407-.0397.0169-.0831.0376-.12923.0634-.1022.0561-.15134.0981-.16314.1365-.0113.0383.0123.07.0555.10465.0432.0346.10466.0724.16706.12094.0624.0487.12678.10773.17394.1859.0476.0791.0717.13944.084.18959.0113.0493.0123.09.0123.13063.00096.0406.00096.0804.0132.13136.0123.0511.0364.11081.085.19254.0487.0812.0717.1431.081.19548.0104.0517.009.0938.006.1343-.003.0421-.005.0834.006.13576.0104.0517.0339.11449.0836.19846.0492.0841.0944.14752.13807.20062.0437.0515.0855.0944.12776.1365.0423.0429.0836.085.12875.13723.0443.0539.0914.11859.142.20435.0511.0863.10368.15269.15675.20582.0541.0546.10811.0981.16265.1409.0545.0442.10909.0876.16461.14237.0531.0546.10811.12094.16068.21024.0536.0892.0738.15714.0776.2132.004.0561-.009.10098-.0207.14682-.0123.0465-.0251.0922-.0206.14827.004.0575.0251.12681.0786.21761.0536.0922.0727.16156.0708.22058 0 .0575-.0181.10553-.0383.15197-.0181.0465-.0374.0944-.0383.15343-.00096.0589.0181.13049.0732.22499.0541.0951.0953.16746.12825.22649.0334.0605.0585.1092.0845.15712.026.048.0511.0967.084.15713.0339.0619.0747.1343.13218.23163.0575.098.10465.17113.14692.23458.0418.0621.0796.11082.11695.16082.0374.0493.0747.10039.11744.16229.0418.0634.0914.1387.15035.24048.059.10098.13907.17706.23046.24049.0914.0634.19311.11448.2958.16597.10172.0502.20442.1026.29729.16674.0929.0641.17444.14237.23685.24712.0629.10553.0815.18442.0776.25082-.004.0679-.0295.12094-.055.1741-.0256.0539-.0516.10773-.055.17557-.004.068.0148.14827.0786.25672.0634.10788.14102.19031.22652.25819.086.0679.17837.12241.27272.17704.0924.0546.18672.10919.2732.17853.088.0693.16805.15269.23537.26484.0668.11213.11449.1962.1538.26777.0393.0709.0703.12842.0993.18589.03.0561.0609.11375.10024.1859.0403.0724.0894.15862.15822.27515.0692.11654.10221.20436.11744.27812.0147.0753.0109.1343.008.19329-.004.0605-.008.11947.008.19474.0153.0753.0496.16598.11989.2855.0713.12153.15725.21244.25355.28842.0958.076.19902.13723.3027.19845.10465.0605.20883.12168.30563.19769.0968.0775.18722.17114.26191.29507.0757.12608.16657.22057.26583.29803.0988.0791.20736.14237.31497.20583.10958.0627.2167.12681.31891.20581.10024.0804.19458.17705.27419.30688.0796.13136.11399.22941.12628.31129.0123.082.003.14902-.009.21616-.01.0663-.0211.13268-.009.21763.0123.0834.0482.18442.12824.31866.0815.13576.13514.23755.17444.32385.0393.0857.0643.15494.0894.22277.026.07.0506.1387.0909.22649.0403.0865.0938.19182.17837.33122.0835.1409.10712.24787.0998.33712-.007.0885-.0447.16156-.0835.23311-.0383.0731-.0757.1453-.0845.23607-.007.0907.0162.19992.10172.34599.0865.1453.16166.25672.23242.34744.0713.0922.13759.16673.20344.24123.0663.0746.13316.14901.20441.24197.0737.0944.15183.20802.24175.35924.0899.1527.16658.26779.23537.36441.0703.0967.13317.17263.19606.25083.0634.0775.12678.15491.19753.25377.0712.0973.14987.21541.24324.374.0944.15935.18967.27886.28352.37918.0938.1004.18918.18001.28451.26116.0944.0797.19016.16155.28647.2626.0963.10333.19409.22574.29286.38949.0993.16747.20588.29214.31497.39616.10959.10465.22211.18885.33561.2722.11351.0834.22801.1682.33856.27517.11203.10627.22112.23384.32579.40719.10565.17189.17001.30247.21424.41164.0452.1092.0703.19771.0938.28622.0251.0885.0492.17779.0949.28918.0462.11213.11204.2464.22112.4264.11008.18072.21376.31794.31351.43229.10023.11375.19802.20581.29581.29654.0983.0922.19654.18517.29924.30099.10171.11668.20884.25672.32431.44556.11498.18957.20146.3327.27468.4522.0727.11948.13169.21614.19016.31279.0594.0967.11793.19474.19262.31571.0752.12241.16461.27.28451.46697.12088.19917.12088.34819.0604.47434-.0615.12681-.1823.22942-.30514.33122-.12187.1026-.24422.20507-.30711.33419-.0615.12975-.0634.28472.0585.49128.12186.20803.28205.36442.46287.49572.18133.12975.38131.2346.58228.34007.20197.10553.40343.21174.58671.34452.18525.13269.3533.29508.48352.51196.13169.21836.15281.38286.11792.5208-.0344.1387-.12431.25083-.21571.3637-.0909.11287-.18082.22647-.21669.36662-.0359.14237-.0148.31426.11842.54295.13513.22795.29679.40204.47221.5459.17739.14384.36755.26113.5587.37694.19212.11581.38474.23312.5641.38139.18132.14681.35035.32534.49383.56656.14447.24197.25306.42344.342.57614.0894.15269.16019.27589.23242.39983.0713.12314.14397.24787.23488.40424.0924.1564.20392.34452.35477.59827.15282.25377.19312.44556.17739.60639-.0148.16156-.0865.29139-.15773.42344-.0727.13137-.14348.26334-.1597.42785-.0162.16598.026.3659.18132.63221.15577.26778.28205.4699.39359.63811.11253.16966.20933.30687.30613.44334.0978.13796.19557.27515.31005.44852.11499.17484.24767.38361.41178.66614.16658.28399.39065.4972.64224.67572.25403.17853.53707.32163.8201.46549.28451.14383.57049.28917.82994.47139.26091.18367.49432.40499.67466.70301.18033.2995.22357.52599.19655.71778-.028.19033-.12481.34523-.22259.50015-.0978.15567-.19607.31132-.22358.50826-.029.19697.0142.43229.19852.74878.18672.31867.44911.55916.75032.7576.3022.20138.64371.36147.98571.52302.34298.16155.68743.32384.997.52893.31006.20582.58621.45515.79062.79081.2054.33711.28009.59236.28845.80701.009.2147-.0497.38804-.10712.56361-.058.1741-.11597.35041-.1086.57024.01.22205.0855.48836.29728.8454.21375.35777.45846.62852.72086.85423.2619.22723.54198.40869.82256.59164.28205.18369.5641.36812.83387.60123.27172.23237.5297.51564.76212.89628.2334.38287.29385.67204.2678.91548-.0251.24417-.13857.44189-.25257.64033-.11399.1999-.2275.40055-.25453.65063-.027.25156.0349.55549.27518.96343.24224.40942.39408.75319.5179 1.05931.12432.30763.21915.57468.34397.82697.12579.25377.28401.49352.5356.74579.25306.25451.59997.52081 1.10658.82918.31644.19254.59309.34597.84418.46844.2511.12241.47418.21171.68253.27811.20687.0663.39851.10787.58572.13268.18672.0235.36952.0317.5587.0295.11154-.00073.22455-.004.34199-.0103.11793-.006.24127-.0132.37099-.0206.13022-.007.2678-.0156.41473-.0205.14692-.006.30317-.0103.47221-.0117.45502-.004.80733.0103 1.10658.0301.29925.0214.54789.0503.79751.0791.24863.0301.49825.0597.79897.0804.30171.0213.656.0346 1.11493.031.456-.004.77736-.0383 1.02993-.0885.25257-.0511.43683-.11668.62012-.18295.18427-.0663.36805-.13136.61914-.18147.25109-.0503.57-.085 1.02403-.0892.45698-.003.74246-.0834.94344-.20287.19999-.11962.31497-.27662.43094-.43375.11399-.15712.22751-.31279.42405-.43081.19656-.11669.47812-.19624.92625-.19992.44912-.004.87416.1114 1.2879.28621.41521.17632.82158.4131 1.22844.65139.40982.23754.82109.47802 1.24417.65801.42455.18002.86237.29877 1.31984.29509.20146-.001.40047.003.59555.0103.19508.009.38671.0185.57245.0288.18574.0117.36608.0213.53855.0302.17296.007.33905.0118.49629.0103.20048-.001.38573-.0132.55379-.0399.16902-.0266.31939-.07.45108-.13503.1307-.065.24126-.15049.32726-.26483.0865-.11375.14888-.25525.18475-.42934.0648-.31868 0-.60197-.17198-.88303-.17199-.27958-.44814-.55474-.80733-.85571-.35527-.29804-.78964-.62261-1.27906-.99737-.48548-.37252-1.02402-.79523-1.59108-1.29463-.43929-.38803-.77588-.67943-1.054-.9236-.27665-.2427-.4958-.44039-.70021-.6381-.20392-.19771-.3931-.3954-.60881-.64254-.21622-.2449-.45748-.53702-.76705-.9199-.30563-.38065-.55574-.66171-.77735-.89629-.22063-.23311-.41276-.41901-.6044-.60491-.19115-.18296-.38082-.36736-.59702-.59533-.21523-.22867-.45502-.50086-.74443-.86013-.2855-.35704-.39999-.62261-.42947-.84541-.028-.21982.029-.39538.084-.57095.055-.17411.11106-.34894.0821-.56509-.029-.21393-.14004-.46991-.41718-.80704-.27516-.33491-.50415-.58425-.71151-.7908-.20638-.20434-.39163-.36884-.57442-.53188-.18279-.16302-.3651-.32383-.56656-.52596-.20146-.20066-.42111-.44115-.68153-.75762-.257-.31572-.54445-.55033-.8437-.7436-.29974-.19325-.61422-.34597-.92674-.49867-.31153-.15197-.62257-.30392-.91494-.49353-.29139-.1881-.56509-.41309-.80487-.71406-.23734-.29657-.36608-.51862-.44028-.70378-.0747-.18367-.0958-.32974-.11597-.47655-.0206-.14531-.0413-.29138-.11449-.47138-.0732-.17998-.19802-.3932-.42652-.67718-.22848-.28107-.35476-.49132-.43191-.66541-.0771-.17262-.10516-.3113-.13267-.44925-.028-.1387-.0555-.27591-.13268-.44558-.0757-.17113-.19901-.37327-.41767-.64104-.21719-.26632-.45894-.46402-.71348-.62778-.25355-.16377-.5189-.29213-.78424-.42124-.26338-.12842-.52676-.2567-.7749-.41604-.24716-.1601-.47958-.35042-.68301-.60491-.20195-.25228-.32726-.43967-.41472-.59754-.087-.1549-.13563-.27884-.18525-.40277-.0492-.12388-.0978-.24786-.18427-.40057-.0845-.15269-.20638-.33418-.39998-.57466-.19212-.23901-.34298-.41606-.47319-.56508-.12973-.1468-.2398-.26407-.34937-.38211-.10958-.11507-.21768-.23238-.34544-.37772-.12825-.14457-.27468-.31719-.45845-.54589-.18329-.22792-.33807-.39761-.47763-.53777-.13905-.14091-.26485-.25228-.38867-.36294-.1258-.11082-.24962-.22204-.38672-.35926-.13562-.13797-.285-.30171-.45993-.51934-.17247-.21761-.19262-.37916-.13807-.51489.055-.13504.18475-.24271.31546-.35114.12972-.10788.25798-.21541.31203-.34894.052-.13136.0309-.28991-.14053-.49721-.16954-.20582-.29877-.35999-.40736-.48761-.10761-.12769-.19606-.22868-.28303-.33049-.0875-.10039-.17444-.19992-.28107-.32532-.10663-.12534-.23144-.27442-.39359-.47286-.16314-.19698-.33119-.34302-.50465-.46549-.17198-.11947-.3474-.21688-.52282-.31277-.17444-.0951-.34839-.19032-.51841-.30984-.16903-.118-.33216-.26113-.48548-.44924-.15281-.18887-.31447-.32827-.48105-.4441-.16708-.11507-.33807-.20729-.50907-.29803-.171-.0922-.34003-.18293-.50366-.29655-.16314-.11375-.3194-.24934-.46386-.42934-.14496-.17999-.2221-.31499-.26436-.42637-.0443-.11067-.0546-.19992-.0654-.28844-.0103-.0892-.0211-.17705-.0643-.28772-.0427-.1092-.11792-.23975-.25699-.41309-.13906-.17115-.23586-.29952-.31202-.40794-.0747-.10553-.12874-.19034-.18328-.27516-.0536-.0832-.10762-.16745-.18132-.2715-.0737-.10465-.16707-.2294-.30121-.39391-.13317-.1645-.19213-.28842-.21425-.39024-.0221-.10259-.008-.18443.008-.26483.0153-.0819.0295-.16376.009-.26336-.0226-.10098-.0801-.22057-.21081-.38064-.12972-.15713-.22505-.27517-.30514-.37329-.0786-.0967-.14102-.17482-.20392-.25375-.0639-.0768-.12531-.15419-.20343-.25007-.0776-.0959-.1715-.21099-.29679-.36296-.12384-.15195-.22358-.2641-.31056-.35777-.0865-.0938-.16068-.16894-.23487-.24196-.0738-.0753-.14889-.14828-.23439-.2405-.0845-.0922-.1823-.20287-.3017-.34893-.11843-.14619-.26142-.25449-.4162-.34376-.1538-.0885-.3194-.16081-.4845-.23089-.16511-.0709-.32971-.14017-.48155-.22942-.15184-.0878-.28991-.19329-.40293-.33345-.11154-.13944-.11351-.24416-.0604-.33121.0526-.0869.16019-.15788.26731-.22795.10712-.0693.21326-.13944.26534-.22647.0511-.085.0482-.18811-.0634-.32311-.11154-.1343-.19949-.2346-.27468-.31795-.0747-.0826-.13808-.14902-.20244-.21541-.0624-.0663-.1258-.13209-.2-.21393-.0737-.0826-.15871-.17926-.26632-.31056-.10712-.12975-.23782-.225-.38081-.30542-.143-.079-.29729-.14237-.45208-.20508-.15428-.0627-.30809-.12535-.44813-.20358-.14004-.0775-.2678-.17188-.36952-.29655-.10024-.12461-.16706-.21764-.21669-.29436-.0501-.0768-.0835-.1387-.11596-.19917-.0329-.0619-.0664-.12241-.11499-.19918-.0496-.0768-.11498-.16747-.21424-.28844-.0968-.11947-.19115-.2095-.28303-.28402-.0914-.0753-.18034-.13342-.26977-.19326-.0894-.0583-.17739-.11653-.2678-.19032-.0905-.0729-.18131-.16008-.27468-.27663-.0938-.11581-.18475-.20139-.27517-.27369-.0894-.0724-.17738-.12843-.26632-.1859-.0884-.0561-.17592-.11214-.26437-.18296-.0875-.0709-.17542-.15417-.26583-.26628-.0894-.11082-.0815-.19625-.0251-.26632.0566-.0693.16019-.12682.26485-.18296.10368-.0561.20737-.11213.26289-.18145.055-.0693.0614-.15124-.028-.25969-.0884-.10758-.22456-.18809-.38278-.2545-.15822-.0663-.34053-.11815-.52136-.16966-.18131-.053-.36165-.10464-.51741-.16966-.15528-.065-.28795-.14384-.37198-.24787-.084-.10553-.0884-.18296-.0531-.24934.0344-.065.1081-.11815.18083-.16969.0742-.0515.14643-.10406.18131-.16892.0329-.0641.0285-.1409-.0541-.24195-.0826-.10098-.17444-.17559-.27026-.23827-.0944-.0612-.19458-.11067-.29335-.16084-.0998-.0487-.19851-.098-.29286-.16007-.0933-.0619-.1823-.13503-.2619-.23312-.0786-.0973-.17444-.16967-.27665-.22942-.10319-.0597-.21473-.10787-.32529-.1549-.11154-.0473-.22211-.0951-.32382-.15493zM62.44049 97.493383c.13071.11081.26092.22205.37346.36294.11252.1409.20637.31131.2619.53999.0566.2309.15281.40351.26877.54738.11646.1453.25356.26187.39066.37917.13758.11668.27664.2331.39506.38139.11842.14827.21916.3268.28107.56801.0619.2427.0732.42491.0599.57911-.0142.15417-.0546.27809-.0938.40204-.0408.12534-.081.2508-.0949.40645-.0142.15861-.004.34744.0594.60121.0634.25452.1027.44633.12972.6064.027.1623.0413.29064.0555.42269.0153.12974.0309.26115.0575.42639.028.16598.0683.36442.13513.63221.0659.26777.0643.47139.027.64104-.0364.17189-.10761.30837-.17935.44706-.0717.13943-.14447.2781-.18181.45366-.0374.1741-.0408.38582.026.66835.0683.28549.11793.50016.1597.68016.0413.17999.0742.32531.10761.47138.0325.1468.0668.29214.10859.47656.0432.18442.0949.40794.16511.70744.0717.29951.13513.5267.19409.7163.059.19178.114.34375.16953.49794.0565.15492.11204.30909.17297.50459.0604.19547.12677.43152.20244.75023.0757.31868.21424.55989.38279.75981.17001.20214.37098.36367.57343.52672.20196.16304.40539.32533.57982.53188.17493.2073.31989.45736.40539.79375.0855.3386.0211.59459-.11695.80998-.14004.21615-.35575.39172-.57098.5673-.21719.17629-.43585.35336-.57884.5754-.14397.22203-.21326.48982-.1307.84834.0826.35924.15183.63146.21571.85867.0634.22942.1199.41237.1764.59679.058.1859.11499.37179.18034.60639.0654.23459.13807.51933.22652.90072.0884.38434.24569.67277.43635.91474.19212.24196.41816.43745.64566.63221.22801.19769.45797.39466.65403.64325.19802.25009.36411.55327.46386.96121.10171.41164.0929.75393.0476 1.05711-.0467.30395-.13119.5673-.17886.81517-.0501.24934-.0629.48393.0344.73325.0978.25082.30809.51566.70562.82401.0988.0775.19311.14237.28205.19621.0894.0546.17296.0989.25354.13268.0796.0333.15528.0568.2285.0724.0722.0148.1425.0228.20835.0214.19654-.001.3695-.0663.53953-.16302.17001-.0981.33708-.22647.52085-.35409.1828-.12843.38426-.256.62258-.35189.23783-.0967.51349-.16155.84959-.16377.4501-.004.77687-.0458 1.04123-.107.26436-.0612.46533-.14016.6668-.21983.19999-.0782.40096-.15861.66335-.21761.25995-.0605.58376-.10259 1.02895-.10553.44863-.003.82945.13269 1.17783.33711.34937.2073.66679.48689.98669.76648.32136.28105.64419.56434 1.00093.77678.35871.21392.75033.35555 1.20633.35189.45698-.003.74935-.14164.96114-.34599.21079-.20434.33904-.47433.4668-.74211.12678-.26631.25306-.53189.45894-.73033.20589-.19842.49138-.33122.93804-.33417.44667-.004.82503.10406 1.17047.2663.34642.16452.66139.38509.97685.60639.31743.22352.63634.44631.98866.61451.35427.16745.74394.27957 1.19797.27589.16314-.001.31693 0 .46141.003.14397.003.27909.009.40735.0132.12726.006.24667.0103.35821.0132.11302.004.21817.006.31792.006.17641-.001.33414-.0132.47811-.0405.14446-.0258.27468-.07.39802-.1387.12235-.0687.23733-.16231.34936-.28918.11203-.12534.22112-.28402.33315-.48097.17739-.31426.18477-.55623.0766-.76941-.10711-.21469-.32774-.39984-.60537-.59976-.27764-.19917-.61079-.41384-.94492-.68238-.33118-.26701-.66336-.59013-.93804-1.00471-.26633-.40204-.43978-.71631-.56115-.98704-.12138-.26777-.19213-.49425-.25208-.72146-.0599-.22425-.10908-.44852-.18771-.71556-.0776-.26335-.18426-.56803-.35625-.95236-.17198-.38065-.29286-.66393-.38867-.89924-.0944-.23385-.16511-.4205-.23537-.60639-.0703-.18517-.14004-.37032-.23291-.59974-.0929-.22942-.20982-.50311-.37345-.86385-.16068-.35776-.18476-.62481-.14004-.84614.0437-.22056.15527-.39613.26682-.5717.11104-.17555.22161-.35039.26337-.56654.0432-.21467.0172-.47139-.14103-.81-.15674-.33638-.25551-.58647-.32332-.79374-.0688-.20731-.10662-.37181-.14545-.53558-.0378-.163-.0766-.32605-.14348-.52891-.0663-.20213-.16117-.44262-.31104-.76131-.14889-.31647-.26043-.55179-.35183-.74728-.0914-.19476-.1646-.34967-.23635-.50457-.0717-.15419-.14299-.30689-.23242-.49869-.0905-.18959-.19655-.41606-.33856-.7163-.14004-.29949-.33512-.52082-.55526-.70449-.22013-.18295-.46484-.32679-.70954-.47139-.24373-.14384-.48696-.28844-.70268-.46695-.21325-.17853-.39899-.39172-.52724-.67574-.12874-.28253-.20736-.49276-.26141-.66687-.0545-.17409-.0845-.31279-.114-.45073-.0295-.13797-.059-.27442-.11203-.44556-.0526-.16968-.12924-.37327-.25208-.64106-.12236-.26778-.2108-.46695-.28205-.63072-.0703-.16599-.12432-.29582-.17837-.42713-.0536-.12974-.10761-.26042-.17641-.42122-.0692-.16008-.15379-.35336-.27123-.60786-.11597-.25229-.23193-.44114-.34594-.59679-.11547-.15714-.22996-.27957-.34445-.40278-.1135-.12314-.22751-.24565-.33954-.39982-.11154-.15125-.22358-.33419-.33217-.57467-.10958-.23901-.0905-.41826-.009-.56803.0811-.14975.22505-.26779.36804-.38727.14251-.11948.28451-.23681.36363-.38361.0786-.14618.0938-.32162-.0147-.55032-.1081-.22794-.22996-.39763-.35821-.53851-.12727-.14017-.2619-.25082-.39703-.36296-.13317-.10993-.26633-.22055-.39212-.3585-.12482-.1387-.24176-.30246-.34348-.52156-.10171-.21615-.142-.37917-.15282-.51269-.0113-.13577.008-.24196.0265-.35041.0187-.107.0373-.21319.0265-.34599-.0113-.13136-.0516-.28842-.14988-.4972-.0968-.20581-.24667-.35998-.4211-.48686-.17395-.12682-.37247-.22796-.57147-.32754-.19705-.10025-.39507-.19991-.56558-.32458-.17051-.12387-.31301-.27368-.40293-.47212-.0904-.19772-.11498-.34525-.1086-.46771.009-.1224.0482-.22055.088-.31867.0393-.0973.0782-.19477.086-.315.007-.12021-.0181-.26262-.10564-.45294-.0884-.18811-.20246-.32828-.32972-.44558-.12628-.11507-.26731-.20727-.40636-.29875-.13809-.0914-.27714-.18221-.40097-.29582-.12481-.11375-.23439-.25081-.31743-.43154-.0811-.18074-.1307-.31574-.16215-.42713-.032-.1114-.0487-.19992-.0643-.28993-.0153-.0878-.032-.17557-.0634-.28696-.0314-.10846-.0786-.239-.15822-.41309-.0786-.17262-.12972-.30174-.16609-.40869-.0353-.10626-.0594-.1918-.0806-.27664-.0231-.0832-.0452-.16818-.0801-.27222-.0359-.10553-.085-.22942-.16068-.39465-.0757-.16597-.10368-.28843-.10809-.39172-.004-.1026.0157-.18441.0359-.26556.0202-.0812.0397-.16377.0353-.2641-.004-.1004-.0314-.22056-.10564-.37916-.0727-.1586-.14103-.27664-.20638-.37476-.0643-.098-.12482-.17557-.18623-.25375-.0615-.0782-.12187-.15494-.18526-.25082-.0624-.0951-.12874-.21172-.199-.36442-.0708-.15124-.12923-.26484-.18181-.35853-.0516-.0936-.0993-.16893-.14594-.24343-.0482-.0753-.0938-.14902-.14545-.24048-.0516-.0938-.10908-.20288-.17689-.35042-.0673-.1453-.15184-.25449-.24667-.3445-.0938-.09-.19754-.16155-.30024-.23237-.1027-.0709-.20638-.14164-.29826-.23017-.0929-.0892-.17591-.19474-.2393-.33564-.0634-.14017-.0285-.24492.0541-.33196.0826-.0869.21425-.15787.34348-.22868.13169-.07.26141-.13944.34249-.22647.081-.0863.11302-.18886.0492-.32386-.0634-.13576-.12579-.23605-.18623-.32014-.0604-.0828-.1199-.14902-.17887-.2154-.059-.0656-.11744-.1321-.17738-.21395-.059-.0819-.11941-.18001-.18133-.31056-.0609-.12975-.18475-.22574-.34002-.30614-.15528-.0782-.34102-.14163-.52676-.20437-.18476-.0619-.36951-.12387-.52283-.20285-.15232-.0782-.27172-.17114-.32823-.29802-.0555-.12388-.0147-.21837.0737-.29507.087-.0791.22357-.14091.35821-.20436.13563-.0634.27075-.12534.35773-.20285.0855-.0768.12481-.16894.0678-.28992-.057-.11947-.14348-.21024-.24471-.28474-.10073-.0746-.2167-.13342-.33267-.19108-.11498-.059-.22946-.11728-.32921-.19031-.0978-.0729-.18231-.16155-.23586-.27737-.0531-.1158-.10565-.20362-.15724-.27589-.0516-.0709-.10368-.12843-.15528-.18592-.0511-.0561-.1027-.11213-.1538-.18442-.0516-.07-.10319-.15418-.1538-.2663-.0511-.11214-.0271-.19697.0353-.26631.0604-.0709.16019-.12754.25895-.18295.0978-.0568.19656-.11287.257-.1822.0604-.0693.0835-.15198.0314-.25969-.0511-.10758-.13022-.18883-.22211-.2567-.0929-.0663-.199-.11948-.30465-.17114-.10614-.053-.2113-.10553-.3022-.17115-.0914-.0656-.16805-.14457-.21621-.24934-.0486-.10553-.12137-.18294-.20687-.24787-.084-.065-.18131-.11507-.27812-.16597-.0958-.0515-.19311-.10259-.27664-.16598-.0831-.0634-.1538-.13944-.199-.24049-.0457-.10186-.008-.17705.0742-.24047.0811-.0634.20343-.11507.32529-.16747.12285-.0503.24373-.10098.32333-.1645.0796-.0627.11694-.13724.0698-.23607-.0457-.0967-.15527-.16892-.29532-.22942-.14053-.0589-.31202-.107-.4845-.15271-.17001-.0473-.34051-.0951-.47909-.15417-.13856-.059-.2447-.12974-.28794-.22501-.0418-.0951-.0501-.16596-.0408-.22574.01-.0583.0353-.10626.0619-.15195.0271-.0473.0526-.0944.0619-.15269.01-.059.002-.12843-.0397-.21984-.0423-.0914-.10025-.16008-.16658-.21689-.0659-.0561-.13956-.10171-.21277-.14681-.0727-.0442-.14692-.0892-.21276-.14531-.0643-.0552-.12039-.12241-.16068-.2117-.0403-.0892.007-.1564.0949-.21172.0875-.0561.21866-.10172.34937-.1468.1307-.0451.26043-.0892.3479-.14472.087-.0552.1307-.12021.0899-.20656-.0403-.0863-.11547-.15048-.20638-.20285-.0904-.053-.19852-.0951-.30662-.13723-.10712-.0429-.21473-.0832-.30367-.13635-.0905-.0523-.16216-.11566-.20048-.19991-.0383-.0828-.0545-.14457-.059-.1977-.006-.0515.00096-.0922.007-.13503.007-.0412.0123-.0818.008-.1343-.005-.0515-.0206-.11287-.058-.19399-.0374-.0804-.10908-.1409-.19704-.19182-.0889-.0487-.1936-.0885-.29827-.12842-.10515-.0392-.20884-.0791-.29581-.12681-.087-.05-.15625-.1092-.19261-.18811-.0344-.0782.0153-.14828.0993-.21098.084-.0621.20293-.11816.30465-.16969.10171-.053.18819-.10391.20933-.15342.0191-.0493-.0251-.10039-.18526-.15345-.0364-.0117-.0703-.0213-.1027-.0301-.0329-.007-.0643-.0148-.0958-.0183-.03-.006-.0594-.009-.0884-.0117-.0295-.003-.0566-.004-.0845-.004-.0938.00075-.18132.0148-.26781.037-.087.0213-.17296.0502-.26534.0791-.0929.0288-.19262.0575-.30564.079-.11301.0222-.23979.0376-.3872.0383-.18968.001-.33906-.0169-.47074-.0465-.13071-.028-.24077-.068-.35183-.107-.11105-.0392-.22112-.0782-.35084-.10699-.12972-.0288-.2796-.0473-.46828-.0465-.1882.00073-.32136.0198-.42947.0487-.10711.0272-.1877.065-.26829.10098-.0806.0376-.16215.0753-.26977.10259-.10957.0288-.24371.0473-.43388.0493-.18918.00075-.32922.007-.44519.0148-.11498.007-.20736.0183-.29827.0288-.0924.009-.18377.0185-.29973.0273-.11597.009-.25601.0148-.44667.0154-.18918.003-.3302.007-.44715.0117-.11694.006-.2108.0117-.30318.0176-.0933.007-.18721.0147-.30367.0176-.11695.006-.25846.0103-.44862.0117-.13268.001-.24078-.006-.33021-.0169-.0894-.0117-.1597-.0258-.21965-.0421-.0594-.0148-.10908-.0301-.15379-.0421-.0457-.0117-.0875-.0185-.13415-.0185-.0206 0-.0398.003-.0629.006-.0211.003-.0443.007-.0703.0154-.0251.006-.0516.0154-.0815.0273-.0304.0103-.0624.0242-.0968.0412-.12186.0552-.22063.0944-.29827.12608-.0786.0317-.1361.0546-.17689.0804-.0397.0258-.0624.0546-.0708.0967-.009.0428-.00096.098.0182.17705.0181.079.0422.13943.0673.18885.0246.0502.0511.0907.0786.12975.0271.0405.0536.0804.0796.13136.0251.0502.0492.11081.0692.19254.0192.0819.0511.1431.0875.19548.0364.0511.0796.0922.12137.13342.0427.0412.086.0828.12334.13503.0373.0515.0692.11375.0904.1977.0206.0841-.008.14827-.0619.20139-.0521.053-.1312.0973-.20982.13943-.0786.0442-.15675.0869-.21178.14091-.0531.0546-.0831.11962-.0639.20582.0202.0863.11153.15123.23586.20433.12579.0546.28696.0967.44764.13944.16166.0429.32283.0848.4506.13943.12677.0545.22063.12094.24372.21024.0226.0892.005.15713-.0344.2132-.0393.0568-.0988.10259-.16019.14827-.0604.0465-.1199.0922-.16019.14975-.0393.0575-.059.12681-.0353.21909.0221.0922.0541.16157.0904.2191.0378.0583.0786.10553.12039.15122.0422.0465.0845.0929.12187.15271.0374.0575.0703.12974.0943.22352.0241.0967.0103.16745-.0197.2287-.0314.0612-.0806.1092-.12973.15932-.0501.048-.0997.0967-.1307.15862-.032.0618-.0447.13576-.0211.23237.0231.0988.0202.17335.003.23532-.0162.0619-.0471.11213-.0766.16302-.0309.0503-.0619.10098-.0786.1645-.0172.0634-.0221.1387.003.24049.0246.10259.11105.17778.22898.2405.11892.0634.26879.11375.41866.16599.15135.05.30219.10097.42209.16448.12088.0656.21031.14237.23685.24786.027.107.0545.18443.0826.25083.028.0663.0575.11962.0865.17262.0285.0531.0575.10788.0865.17409.0285.068.0569.14827.0855.25672.028.1092-.0177.1918-.10073.26115-.0826.0693-.20343.12535-.32382.18221-.12136.0552-.24224.11213-.32675.18295-.0845.0716-.13268.1549-.10565.26777.028.11287.029.19844.0172.26852-.0103.0724-.0344.12902-.0585.18737-.0241.0568-.0481.11507-.0594.18739-.0113.0722-.01.16007.0162.27737.0285.1158.11744.2036.2398.27664.12137.0746.27517.13209.42897.18958.1538.059.30908.11669.4329.19106.12383.0746.21769.1645.24717.28475.0309.12241.0236.2132-.005.28992-.0271.0768-.0737.13943-.12137.20137-.0476.0621-.0938.12388-.12235.20214-.028.0782-.0364.17187-.007.29729.0315.12549.0757.22057.12727.29952.0526.079.11105.14237.17051.2058.0594.0634.11891.12755.171.20729.0526.0804.0988.17705.13267.30835.0315.13063.0683.22942.10859.31131.0383.0819.0806.14827.12285.21467.0418.0663.0826.13268.12284.21614.0403.0832.0786.18442.11253.32017.0349.13561-.002.23827-.0717.32457-.0712.0863-.17641.1564-.28304.22722-.10663.0693-.21374.13943-.28499.22795-.0717.0878-.10958.19326-.0757.33416.0324.1409.0737.24787.11941.33567.0457.0892.0949.16154.14397.23162.0501.0724.10024.14384.14545.23385.0467.09.0894.19991.12431.34598.0349.14603.12727.25745.24667.34818.12039.0922.26977.16524.41915.23754.14987.0753.29974.14902.42209.24197.12285.0929.21768.20581.257.35852.0393.15269.0344.26852.007.36589-.027.0967-.0766.17482-.1258.25377-.0501.0782-.0998.15712-.12775.25672-.029.0981-.0339.21687.006.37621.0398.16009.0378.28034.0148.38066-.0226.10259-.0678.18293-.11105.26483-.0447.0812-.0894.16376-.11253.26629-.0241.10407-.027.22649.0132.39173.0403.16745.13316.29212.25453.39613.12138.10407.27076.18812.41866.27221.14986.0832.29826.16745.42258.27369.12333.10699.22112.23458.26535.4072.0443.17336.0566.30319.0536.41311-.003.11067-.0231.19845-.0422.28772-.0206.0892-.0393.17702-.0432.2899-.003.11214.01.24713.0545.42786.0457.18146.0865.31869.12579.43303.0393.11448.0757.20655.11302.2995.0373.0929.0742.18589.114.30171.0403.11668.082.25818.13021.4463.0492.19032.10122.33419.15625.45369.0546.11948.11254.21614.17101.31278.0566.0973.11596.19401.17247.31573.056.12241.11105.26999.16166.46843.0511.19843-.0142.34894-.13906.47507-.1253.12755-.31006.22944-.49531.33346-.18426.10332-.37148.2058-.49923.33562-.12776.12975-.19704.2855-.14889.49279.0481.20877.0875.3659.12088.49721.0339.13341.0629.239.0924.34524.029.10699.058.21392.0928.34819.0349.13576.0747.29802.1258.51565.0501.21761.14004.38286.24913.52006.10663.14164.23635.2523.36607.36369zM.87637 127.524823c.34445-.13341.69873-.26703 1.05203-.3681.35281-.10039.70366-.16894 1.04222-.17115.45304-.003.82649-.0878 1.15915-.21024.33217-.12388.62208-.28696.91102-.44926.28745-.16155.5749-.3231.90167-.44482.32628-.12036.69137-.20287 1.13705-.20656.44813-.004.73314.13137.93656.33564.20442.20582.32824.4832.45158.76131.12529.28033.2506.56286.45747.7731.2103.21172.50121.35336.9572.35041.45649-.004.82404-.0832 1.14736-.20139.32235-.11742.60145-.27222.87809-.42639.27567-.15418.55084-.30836.87024-.42344.31841-.11566.68007-.19475 1.13115-.19769.45108-.004.76409.0782 1.00682.20432.24472.12682.42014.29656.59753.46844.17689.16967.35378.34229.60193.47139.24864.12902.56607.21319 1.02354.20949.0482-.00073.0963-.00073.14299-.00073.0472 0 .0938 0 .13808-.001.0462 0 .0904 0 .13414-.00075.0443-.00072.0875-.00072.12973-.00072.3587-.003.66974-.009.9567-.0346.28697-.0258.55182-.0709.81569-.14974.26289-.0804.52578-.19478.8098-.36002.284-.16523.58964-.37916.93999-.65874.39605-.31722.64714-.58574.80095-.8395.15429-.25155.21178-.48909.21866-.74433.008-.2545-.0329-.52599-.0766-.84688-.0443-.31794-.0914-.68383-.0958-1.12867-.004-.3976-.009-.69417-.005-.94201.002-.24639.0104-.44411.0314-.64254.023-.19771.0555-.39614.10761-.64253.0516-.24565.12137-.53778.21425-.92505.0924-.38362.22799-.66836.38424-.9059.15578-.23607.33267-.42417.50908-.61304.17542-.18735.35084-.37326.50365-.60489.15086-.23089.27911-.50605.36166-.869.0826-.35927.0663-.62704-.00049-.84761-.0664-.21984-.18034-.39393-.29483-.56875-.11448-.17262-.22702-.34599-.29138-.56212-.0643-.21395-.0787-.46993.004-.81.0831-.33787.17198-.58942.26239-.79891.0914-.20804.18623-.37402.2796-.53999.0938-.16452.1877-.32828.27615-.53189.0894-.20286.17395-.44556.25011-.76572.0752-.31795.20589-.55547.36116-.75392.15528-.19624.33807-.35261.52037-.50975.18034-.15565.36067-.31057.51349-.5031.15086-.19181.27468-.42049.34151-.72295.0683-.2995-.002-.52302-.14152-.70669-.13758-.18296-.34396-.32828-.54935-.47361-.20442-.14384-.40785-.28844-.54248-.46843-.13464-.17706-.2-.39172-.12875-.67867.0698-.28402.2221-.49573.41521-.6713.19312-.17707.42603-.31795.65845-.45812.23143-.13943.46141-.27811.65009-.45073.18771-.17188.33266-.3777.39409-.64694.0615-.26854.0182-.46697-.0757-.63221-.0924-.16524-.23684-.29509-.38131-.42492-.14298-.12901-.28696-.25819-.37786-.41899-.0905-.16157-.13071-.35411-.0673-.60936.028-.11507.0688-.21319.11499-.30539.0123-.0258.027-.0502.0413-.0753.0388-.068.0826-.13137.12923-.18886.01-.0103.0148-.0242.0246-.0346.005-.006.0104-.0103.0157-.0154.0599-.0687.12432-.13062.19164-.18885.0796-.0724.16215-.1387.24617-.20362.0211-.0161.0418-.0354.0629-.0515.0747-.059.14692-.12021.2167-.18368.0295-.0273.0565-.0575.0855-.085.0275-.0288.058-.0546.084-.0841.029-.0346.0511-.0775.0782-.1158.027-.0376.055-.0731.0786-.11375.0113-.0192.0206-.0405.0309-.0605.0432-.0878.0815-.18149.10713-.2914.056-.24049.11694-.41901.17983-.56875.0643-.14902.1312-.26779.19656-.38582.0663-.11801.13169-.23459.19409-.38212.0624-.14531.12186-.32016.17395-.55181.0531-.22942.10319-.40056.15429-.54219.0506-.14164.10024-.25452.15036-.36738.0492-.1114.0988-.22498.14791-.36367.0496-.1387.0997-.30392.14888-.52451.0492-.21835.0899-.38212.12678-.51711.0353-.13429.0678-.24197.0997-.34893.0325-.107.0634-.21319.0988-.34673.0359-.13209.0752-.28992.12185-.4994.0476-.20803.0673-.36294.0738-.49131.008-.12843.00096-.2309-.005-.33271-.007-.10259-.0123-.20285-.006-.32827.007-.12681.027-.27664.0727-.47581.0457-.19918.0811-.34672.11252-.47064.0309-.12241.058-.21982.085-.31722.027-.098.0536-.19475.084-.31574.0309-.11947.0659-.26335.10908-.45366.0432-.19033.0905-.33122.13808-.44852.0482-.11742.0983-.21097.14889-.30467.0492-.0936.0988-.18589.14594-.30097.0482-.11507.0929-.25229.13316-.43449.0403-.18074-.0251-.31649-.14299-.42714-.11793-.11081-.28893-.19844-.45845-.28696-.16855-.0863-.33856-.17262-.45354-.28253-.11498-.10774-.17641-.23901-.13415-.41386.0418-.17335.0766-.30392.1081-.41089.03-.10773.057-.19254.0831-.2781.027-.0841.052-.16893.0831-.27443.03-.10464.0634-.23016.10467-.39688.0403-.16597.1484-.29066.28843-.39466.14005-.10406.31252-.1859.48499-.26852.17199-.0828.3425-.16599.48106-.26706.1366-.10259.23979-.22352.27665-.38357.0364-.1601.01-.27814-.0476-.37624-.057-.0973-.14594-.17483-.23291-.25302-.088-.0775-.17543-.15419-.23145-.25082-.0566-.0958-.0815-.21099-.0443-.36517.0364-.15269.10761-.26631.19409-.36146.0865-.0951.18918-.17115.29188-.24785.1027-.0753.20441-.14976.28992-.24419.0845-.0929.15281-.20434.18623-.35261.0344-.14681.027-.256 0-.34745-.026-.0892-.0727-.16157-.11941-.23311-.0467-.0709-.0924-.14237-.11842-.23165-.026-.0885-.032-.19548.00096-.33639.0334-.14016.055-.24638.0713-.3327.0153-.0869.0251-.15639.0344-.22572.01-.0693.0192-.13724.0353-.22499.0148-.085.0364-.1874.0683-.32385.0325-.13577.0251-.23681-.002-.32017-.028-.084-.0752-.14974-.12283-.21613-.0472-.0663-.0938-.13268-.12039-.2147-.0265-.082-.0339-.18145-.002-.31276.0324-.12974.0717-.22793.11547-.30982.0427-.0791.0905-.14472.13758-.20877.0462-.065.0933-.12842.13513-.20878.0432-.0791.0816-.17484.11303-.30097.03-.12535.0692-.21911.1135-.29656.0437-.0775.0929-.14017.14102-.20285.0496-.0621.0973-.12388.14153-.20066.0432-.0768.0815-.1682.11154-.29065.0285-.12094.0172-.21099-.0153-.28549-.032-.0753-.0835-.1343-.13414-.19327-.0526-.0597-.10369-.118-.13513-.19254-.0314-.0731-.0427-.16156-.0132-.27883.029-.11669.0615-.20437.0958-.27812.0334-.0724.0692-.12975.10515-.18739.0359-.0575.0708-.11448.10466-.18663.0329-.07.0649-.15639.0924-.26851.028-.11214.10761-.19772.21375-.26852.10416-.07.23634-.12755.36803-.1837.13023-.0561.26044-.11375.36412-.18295.10466-.0693.18131-.15268.20638-.26188.0255-.10846.0516-.18958.0791-.25818.028-.0671.0575-.12095.086-.17484.0285-.0523.058-.10788.085-.17335.028-.0671.0536-.14681.0776-.25231.0231-.10553-.0103-.1844-.0747-.24932-.0624-.0634-.15429-.11522-.24568-.16598-.0924-.0515-.18328-.1026-.24569-.16599-.0615-.0634-.0953-.13943-.0703-.24195.0236-.10098.0594-.17706.10073-.24051.0403-.0634.0865-.11375.13267-.16449.0462-.0509.0924-.10097.13267-.1645.0403-.0621.0747-.13723.0983-.23532.0221-.098.00049-.17042-.0447-.2309-.0447-.0605-.11252-.10773-.17935-.1564-.0683-.0473-.13415-.0951-.17837-.15492-.0447-.0605-.0664-.13268-.0422-.22794.0241-.0951.0309-.16747.0295-.225-.0005-.0597-.01-.107-.0187-.1527-.009-.0473-.0186-.0936-.0192-.15196-.00096-.0583.007-.12754.029-.21983.0236-.0922.0904-.16156.17934-.22058.0894-.0575.2-.10406.31104-.15048.11057-.0451.22014-.0922.30859-.14902.0875-.0575.15282-.12534.17493-.21467.0202-.09.0334-.15712.0432-.2132.01-.0539.0162-.0997.0226-.14237.007-.0436.0123-.0878.0226-.14237.009-.0546.0221-.11962.0427-.20655.0206-.0863.0339-.15124.0437-.20508.009-.053.0162-.0967.0221-.13943.006-.0429.0118-.085.0221-.1387.01-.0531.0231-.11668.0422-.20139.0202-.0828.0251-.1453.0226-.19842-.003-.0511-.0118-.0929-.0226-.13503-.01-.0407-.0192-.0812-.0211-.13342-.003-.0511.002-.11286.0221-.19475.0192-.0812.00096-.14163-.0353-.19254-.0374-.0502-.0929-.0892-.1484-.12974-.055-.0392-.11007-.0791-.14643-.12843-.0364-.0502-.0536-.1092-.0339-.1903.0206-.0775.085-.13577.16413-.17927.0786-.0443.17001-.076.24519-.10465.0737-.0288.13071-.0531.13808-.085.007-.0324-.0349-.0709-.15725-.12461-.0442-.0198-.0845-.0368-.12087-.0495-.0359-.0147-.0692-.0242-.0993-.0324-.0309-.009-.058-.0132-.084-.0169-.026-.004-.0511-.004-.0757-.004-.0413 0-.0815.004-.12579.0117-.0452.007-.0938.0154-.15331.0242-.0599.0103-.12825.0192-.21178.0258-.084.007-.18231.0132-.30073.0132-.18967.001-.33462.0132-.45649.0273-.12284.0154-.22357.0354-.32332.0539-.10074.0198-.20147.0399-.3253.0546-.12284.0154-.26877.0251-.45992.0264-.18918.003-.32333-.0251-.4275-.0687-.10466-.0421-.18132-.098-.25748-.15417-.0752-.0561-.15085-.11213-.25404-.15418-.10368-.0413-.23537-.0693-.42357-.068-.18819.003-.33512.0228-.46337.0515-.12776.0302-.23537.0693-.34347.10788-.10811.0383-.21669.0775-.34544.10758-.12874.0302-.27714.0502-.4673.0517-.18918.001-.3302 0-.44715-.003s-.20933-.007-.30122-.0117c-.0929-.004-.18721-.009-.30367-.0118-.11744-.003-.25846-.006-.44863-.004-.13315.001-.2447-.006-.3415-.0163-.0978-.0117-.17935-.0258-.25454-.0412-.0747-.0156-.14298-.031-.20883-.0429-.0663-.0117-.13169-.0176-.20245-.0169-.03 0-.0615.001-.0929.006-.0325.003-.0673.009-.10367.0147-.0353.007-.0747.0169-.11499.028-.0413.0117-.0855.0251-.13169.0412-.1597.0568-.22554.10392-.23636.14531-.01.0436.0349.0817.0954.12461.0604.0429.13709.0869.19016.14017.0531.0546.0815.11815.0471.19772-.0353.0804-.0815.14016-.13267.19178-.0511.0504-.10761.0907-.16314.13137-.0565.0421-.11252.082-.16412.13268-.052.0511-.0988.11213-.13513.19475-.0364.0819-.0949.14384-.16265.19622-.0668.053-.14544.0951-.22406.13723-.0776.0421-.15626.085-.22505.13724-.0687.0531-.12776.11653-.16609.1999-.0393.085-.0359.14827-.0113.2014.0241.0515.0698.0951.11449.13724.0462.0436.0914.085.11597.1387.0251.053.0285.118-.0103.20508-.0393.0869-.10418.15344-.1823.20802-.0771.0561-.16855.10098-.25945.14545-.0909.0442-.18181.0892-.26043.14531-.0796.0568-.14594.12388-.18721.2132-.0413.0892-.0492.15714-.0393.21394.01.0561.0359.10186.0634.14618.0271.0465.0531.0907.0634.14827.01.0568.003.12535-.0393.21911-.0423.0922-.0905.16302-.14103.22128-.0511.0583-.10564.10627-.16018.15347-.0541.0473-.1086.0944-.16118.15416-.0516.059-.10122.13136-.14495.22648-.0437.0967-.0678.16817-.0831.22942-.0137.0605-.0197.10773-.0241.15714-.006.0487-.0109.098-.0251.1586-.0153.0605-.0398.13503-.085.2331-.0452.0997-.0683.17261-.0796.23606-.0104.0621-.0113.11213-.0113.1623 0 .0502-.00096.10039-.0123.16302-.0113.0634-.0344.13929-.0815.24124-.0452.10259-.0757.17997-.0958.24489-.0216.0634-.0339.11668-.0467.16746-.0132.0515-.026.10465-.0476.16967-.0211.065-.0516.14384-.0988.25009-.0471.10553-.0997.18515-.15429.25302-.0545.0663-.11154.12094-.17002.1741-.057.0546-.11498.10847-.17051.17632-.056.0687-.11006.149-.15921.25891-.0496.1092-.11006.19328-.17542.26188-.0663.0693-.13659.12461-.20785.18074-.0727.0561-.14397.11214-.21129.18222-.0664.07-.12874.1549-.18034.26852-.0525.11375-.0211.1977.0526.26851.0738.0716.18918.12754.30613.18368.11695.0561.23439.11375.30907.18517.0747.0716.1086.15934.0575.27589-.0516.118-.0845.20583-.10662.28034-.0221.0746-.0339.13503-.0467.19325-.0128.0597-.0246.11962-.0467.19552-.0221.0746-.0545.16597-.10761.28695-.0536.12241-.16363.21466-.30219.29212-.13808.0775-.30613.14091-.4732.20433-.16805.0634-.3361.12681-.47712.20435-.14104.0791-.25454.17409-.31301.29949-.0575.12681-.0437.22207.009.30099.0511.0791.13906.14163.22653.20582.0884.0634.1764.12681.22848.20655.0526.0812.0693.17778.0104.30909-.0565.13136-.114.2309-.17002.31353-.0565.0828-.11153.15049-.16756.21687-.0541.0671-.11055.1343-.16706.21909-.057.0834-.11547.1859-.17591.32164-.0604.1365-.0776.23829-.0713.32532.006.0863.0344.15492.0634.22352.029.0693.057.1387.0634.22574.006.0869-.0104.19327-.0717.33419-.0619.14163-.14791.24859-.24569.33932-.0983.09-.20933.16304-.3194.23605-.11154.0724-.2216.14531-.32136.23681-.10073.0914-.18967.2014-.25502.34967-.0659.1468-.0943.2582-.10319.3504-.01.0929.00049.16746.0104.24196.01.0753.0192.14977.0103.24492-.0103.0936-.0383.2073-.10662.36146-.0673.15271-.15429.26928-.24962.36738-.0958.0981-.20147.17557-.30662.25524-.10613.0791-.21178.1586-.30956.2582-.0978.0997-.18723.21909-.25897.37769-.0717.16157-.17197.28254-.284.38361-.11303.10171-.24128.18369-.36805.2663-.12776.0821-.25601.16524-.37197.26853-.11449.10406-.21768.22793-.29434.39467-.0782.16744-.0619.29284.002.39835.0643.10465.17591.18811.28795.27294.11203.0832.22455.16819.28991.27442.0663.107.0845.23532.008.41015-.0771.1741-.1882.30541-.31694.41607-.12875.11066-.2737.19917-.41964.2899-.14643.0898-.29384.18-.42504.29212-.1312.11375-.24667.25008-.32922.43228-.0845.18222-.0673.31945 0 .43379.0663.11448.18476.2058.3017.29802.11843.0914.23734.18368.30613.2995.0678.11669.087.25819.004.44778-.0835.1918-.199.33565-.33118.45664-.13268.12152-.28107.22057-.43045.31867-.14938.098-.29974.1977-.43536.32092-.13415.12387-.25552.27294-.34446.47211-.0894.1999-.12284.35039-.12972.47581-.006.12607.0182.22647.0403.32827.0221.10098.0457.20285.0403.33122-.007.12843-.0403.28474-.13315.49278-.0924.21025-.18723.36885-.28304.50164-.0949.13268-.1941.239-.28991.34818-.0983.107-.19557.21541-.29384.35114-.0988.1365-.19656.29951-.29483.51861-.0988.21907-.23144.38506-.38279.52521-.15282.1387-.32185.25232-.49236.36517-.171.11375-.34199.22796-.49678.37034-.15626.14237-.29581.31499-.40047.54514-.10761.23091-.11056.40573-.0599.55105.0492.1453.15183.26188.25502.37918.10221.11728.20589.23458.257.3836.0506.14901.0501.32828-.0575.57022-.1086.24345-.27812.42936-.48107.58353-.20294.15565-.43732.28107-.67122.40722-.23586.12608-.47319.25302-.67858.41162-.20835.15934-.3877.35041-.50465.6049-.11793.25598-.10565.44779-.026.60786.0806.16156.22652.28993.37295.419.14741.12975.2963.26042.37688.42419.0836.16597.0988.36514-.0202.63368-.1199.27074-.25552.47506-.39998.64548-.14496.17188-.29826.31057-.45305.44852-.1538.14017-.30908.27957-.45797.45516-.14937.17555-.29089.38802-.41914.67276-.12923.28697-.228.50312-.31153.68309-.0835.18149-.15086.32828-.21866.47509-.0688.14619-.13759.29361-.2226.47876-.0855.18664-.18819.41089-.32431.71188-.13512.30244-.22259.52891-.28597.72073-.0634.19105-.10172.34595-.14104.50014-.0393.15493-.0786.31057-.14298.50679-.0654.19697-.15626.43452-.29925.75245-.14398.32163-.25011.56434-.3361.76646-.0875.20508-.15528.36885-.22161.53336-.0683.16598-.1371.33122-.22555.53852-.0884.20877-.19802.46104-.35035.79965-.15282.34155-.22112.59679-.24814.81146-.0276.21467-.0128.38876.002.56212.0153.17411.0309.3504.003.57025-.0285.22203-.0997.48982-.25748.8498-.15872.36148-.28844.63369-.40145.86311-.11547.23089-.21522.41532-.31596.60049-.10073.18735-.20146.37474-.3194.61079-.11793.23606-.25355.52156-.42209.90662-.17099.38582-.3361.67648-.49825.92211-.16314.24494-.32431.44338-.48499.64181-.16265.19917-.32579.40129-.49383.65211-.16806.25377-.342.55918-.5248.9686-.18525.41384-.51054.80335-.88595 1.17514-.14103.13943-.29237.27442-.44224.40942v2.83274c.27763-.0958.57246-.21098.8776-.32902zM57.32133 124.195613c-.2054-.419-.44519-.88449-.69186-1.41489-.18131-.38581-.38279-.6654-.58621-.89334-.20245-.22796-.40735-.40277-.59604-.58056-.18623-.17631-.35625-.3541-.48892-.58647-.13218-.23089-.228-.51344-.26633-.89851-.0393-.38213-.0452-.66687-.0364-.90368.009-.23531.0329-.42121.057-.60858.0246-.18592.0487-.37179.056-.60196.009-.22942.002-.50311-.0364-.86606-.0364-.35778-.11302-.62555-.20638-.84612-.0929-.2191-.2054-.3932-.31693-.56729-.11106-.17337-.22162-.34599-.314-.56139-.0905-.21466-.16117-.47064-.19459-.80923-.032-.33713.004-.5887.0738-.7982.0692-.20729.17296-.37327.27468-.53851.10269-.1645.20441-.32827.27173-.53189.0683-.20284.10073-.44556.0673-.7635-.0344-.31793-.0914-.554-.15822-.75097-.0678-.19474-.14643-.34894-.22506-.50384-.0771-.15344-.15527-.30614-.22112-.49795-.0663-.19032-.1189-.41754-.15035-.71924-.0304-.29951-.004-.52303.0501-.70893.0536-.18442.13563-.33122.2167-.47802.0815-.14681.16166-.29214.21474-.47583.0526-.17852.0766-.39465.0447-.68013-.0314-.28253.006-.49427.0742-.66836.0683-.17483.17051-.315.27223-.45368.10221-.1387.20195-.27809.26976-.44851.0673-.17114.10025-.37549.0673-.64475-.032-.26705-.15134-.46547-.31202-.63072-.16068-.16302-.36313-.29214-.56459-.42196-.20147-.12975-.40195-.2582-.55968-.41901-.15528-.15933-.2678-.35188-.29483-.60637-.026-.25377.0192-.44336.0973-.60123.0787-.15713.19213-.28327.30564-.40867.11253-.12461.22407-.24789.30122-.40354.0762-.15342.11793-.33712.0899-.57908-.0148-.12754-.0545-.23679-.11105-.3349-.0418-.0724-.0929-.1365-.15085-.19699-.008-.007-.0123-.0148-.0197-.0198-.005-.006-.008-.0103-.0118-.0147-.0197-.0178-.0443-.0339-.0643-.0511-.0555-.0473-.11252-.0951-.17444-.13723-.0339-.0235-.0687-.0458-.10368-.0671-.0659-.0421-.13119-.0834-.19802-.12388-.007-.004-.0123-.009-.0191-.0132-.0639-.0376-.1258-.0768-.18672-.11668-.0378-.0235-.0752-.0487-.11254-.076-.0496-.0346-.0953-.0729-.14003-.11082-.0246-.0205-.0536-.0376-.0762-.0597-.0153-.0148-.027-.0301-.0403-.0451-.009-.009-.0162-.0169-.0241-.0258-.0516-.0597-.0978-.12535-.13268-.19624-.005-.0103-.009-.0205-.0128-.0317-.0329-.076-.059-.15714-.0688-.25009-.0221-.22867.0192-.39982.0914-.54219.0717-.14164.17444-.25524.27713-.36811.10221-.11287.20442-.22573.27468-.36442.0703-.13943.1086-.30467.0845-.52376-.0241-.21909-.0766-.38067-.14398-.51491-.0673-.13356-.1479-.24048-.22947-.34672-.0815-.107-.16264-.2117-.22751-.34375-.0663-.1321-.11695-.28844-.13807-.49796-.0211-.20729-.0123-.36219.0109-.49129.0241-.12843.0629-.23017.10024-.33272.0383-.1026.0766-.20286.0988-.32974.0231-.12608.0309-.27662.01-.4758-.0211-.19698.0191-.346.0904-.46992.0703-.12241.17247-.2213.27369-.31867.0998-.0981.19951-.19622.27076-.31722.0687-.12094.10712-.26409.0835-.45368-.0104-.0863-.0374-.1586-.0703-.22795-.007-.0117-.0118-.0258-.0186-.0383-.0364-.0627-.0801-.11859-.1312-.17041-.004-.003-.006-.007-.009-.0103-.007-.007-.0162-.0117-.0231-.0183-.11498-.10627-.25453-.19402-.39556-.27959-.15085-.0922-.29826-.18295-.4157-.29802-.11597-.11287-.19852-.24936-.21768-.43083-.0187-.18147.0442-.31722.14544-.4308.10221-.1114.24423-.20139.38525-.29141.14102-.0907.28107-.17997.38081-.29137.0998-.1092.15921-.24197.13759-.41606-.0216-.17115-.12039-.30024-.25896-.40647-.13758-.107-.31448-.19032-.4899-.27369-.17542-.0828-.35035-.16597-.48646-.26925-.13415-.10406-.22898-.22869-.24667-.39466-.0162-.16525.007-.28917.0501-.39172.0437-.10333.10713-.18442.17052-.26631.0629-.0819.12628-.1645.16804-.26557.0418-.10039.0643-.2213.0476-.38138-.0181-.15861-.0309-.27663-.0403-.37623-.01-.098-.0182-.17557-.0251-.25452-.008-.0768-.0153-.15563-.0251-.25227-.01-.0958-.0226-.21247-.0393-.36516-.0172-.15123-.0403-.26483-.0663-.36-.0271-.0944-.056-.16967-.0855-.24342-.03-.0753-.0594-.14902-.0855-.24197-.0255-.0922-.0492-.20287-.0654-.35041-.0153-.14604-.029-.25598-.0418-.34597-.0123-.0907-.0246-.16304-.0353-.2346-.0128-.0724-.0246-.14384-.0369-.23237-.0123-.0892-.026-.19549-.0403-.33712-.0142-.14017-.056-.24418-.10761-.33048-.0526-.0863-.11793-.15492-.18329-.22353-.0643-.0693-.12972-.13724-.18132-.22352-.0516-.0848-.0904-.18664-.10367-.32311-.0128-.13576-.0187-.23607-.0187-.32017 0-.0832.004-.1512.009-.2176.004-.0663.008-.13357.008-.21541 0-.0828-.005-.18073-.0177-.31205-.0133-.13136-.002-.22794.0211-.30909.0231-.0799.0585-.14457.0938-.2095.0353-.0634.0708-.12843.0933-.20803.0226-.0791.0329-.1741.0197-.30025-.0132-.12534.029-.21909.0968-.29654.0683-.0775.16313-.1409.25895-.20287.0938-.0619.19016-.12534.25649-.20212.0668-.0775.10614-.1682.0919-.29065-.0142-.12021-.0575-.21025-.11596-.28551-.0566-.0746-.12874-.13341-.19949-.19178-.0717-.0589-.143-.11801-.19902-.19181-.056-.0729-.0983-.16155-.11154-.27812-.0132-.11668-.0664-.20358-.13906-.27515-.0733-.0724-.1651-.12843-.25797-.18589-.0919-.0559-.18427-.11213-.25601-.18295-.0717-.0709-.12382-.1549-.13415-.26705-.0103-.11287.0546-.19769.15823-.26776.10467-.07.24667-.12755.38769-.18444.14103-.0559.28206-.11286.38475-.18221.10172-.0693.16511-.15271.15184-.26188-.0132-.10773-.0624-.18885-.12972-.25672-.0664-.0663-.15085-.11947-.23488-.17262-.084-.0517-.16805-.10553-.23292-.1704-.0663-.0663-.1135-.1453-.12579-.25082-.0118-.10465.0251-.18369.0815-.25007.058-.065.13905-.11815.21964-.16967.0815-.0523.16167-.10406.21866-.16894.056-.065.0905-.1409.0776-.24345-.0123-.10171-.0565-.1763-.11596-.239-.061-.0627-.13611-.11214-.21228-.16229-.0747-.0493-.14987-.0988-.20933-.16082-.0585-.0619-.10122-.13562-.11203-.2331-.0118-.0981 0-.17189.0241-.23239.0236-.0605.057-.10846.0914-.15785.0349-.0487.0692-.0981.0924-.1586.0236-.0605.0349-.13269.0236-.22796-.0118-.0951-.0339-.16598-.0619-.225-.028-.059-.0604-.10553-.0943-.15122-.0329-.0465-.0659-.0938-.0933-.15122-.027-.0583-.0497-.12681-.0599-.2191-.01-.0922-.0256-.16156-.0447-.21909-.0186-.0561-.0403-.10171-.0615-.14682-.0216-.0465-.0432-.0907-.0619-.14678-.0177-.0561-.0339-.12388-.0437-.21319-.01-.0892-.0162-.15565-.0206-.21174-.005-.0539-.007-.098-.0104-.14237-.002-.0436-.005-.0869-.009-.14163-.005-.0539-.0103-.12021-.0206-.20656-.01-.0856.0182-.15123.0639-.20435.0452-.0546.10957-.098.17297-.1409.0643-.0436.12775-.0863.17296-.13943.0452-.0531.0712-.11669.0615-.20066-.0103-.084-.0929-.1453-.21031-.19696-.11646-.0501-.26977-.0907-.42111-.13137-.15282-.0405-.30417-.0804-.41964-.13136-.11596-.0502-.19458-.11081-.20294-.19327-.009-.0804.056-.1409.15577-.194.10074-.0511.23586-.0914.37246-.13357.13415-.0421.26928-.0819.36805-.13268.0983-.0515.16117-.1114.15134-.1918-.01-.0782-.0181-.14237-.0374-.1977-.0172-.0539-.0432-.0997-.0855-.14237-.0422-.0436-.10123-.0818-.18525-.12461-.084-.0421-.19213-.0869-.33316-.14091-.029-.0117-.0566-.0198-.0835-.028-.0265-.007-.0516-.0132-.0771-.0183-.0255-.004-.0492-.009-.0722-.0103-.0231-.003-.0467-.003-.0687-.003-.085 0-.16265.0169-.24127.0436-.0776.0235-.15577.0568-.24274.09-.0875.0339-.18181.0671-.29286.0929-.11155.0251-.23832.0421-.38967.0436-.19016.003-.33511-.0242-.45698-.0634-.12088-.0392-.21866-.0922-.31742-.1453-.0973-.0515-.1941-.1048-.31449-.14384-.11891-.0392-.2619-.0634-.44911-.0627-.18771.003-.32874.0251-.4447.0597-.11646.0346-.20982.0804-.30367.12608-.0938.0458-.18721.0922-.30613.12755-.11793.0346-.25993.0583-.4501.0597-.19017.003-.33217-.0117-.45011-.0317-.11842-.0191-.21276-.0473-.30612-.076-.0944-.0273-.18869-.053-.30613-.0753-.11744-.0191-.25797-.0317-.44716-.0317-.18819.003-.32921-.004-.44665-.0148-.11695-.0103-.20982-.0242-.30367-.0383-.0938-.0156-.18722-.028-.30368-.0383-.11645-.0117-.25797-.0169-.44518-.0156h-.0398c-.0123 0-.026.001-.0383.001h-.0728c-.15822.001-.28991.003-.40784.009-.11694.006-.21964.0132-.31842.0264-.0992.0147-.19408.0339-.29678.0634-.10122.0301-.21179.068-.34003.11947-.14103.0561-.20048.10407-.20884.14756-.009.0442.0314.0841.0884.12754.0569.0442.13119.09.18918.14531.058.0546.0993.11947.0924.19917-.009.079-.002.1387.0113.18885.0132.05.0339.0898.0545.12975.0216.0406.0418.0804.055.13268.0142.0487.0206.11081.0132.1918-.008.0819-.0604.14457-.13611.1977-.0771.0515-.17542.0951-.27566.13724-.0988.0421-.19803.0832-.27566.13723-.0771.053-.13218.11668-.14152.19992-.01.0841-.003.1468.0123.19992.0153.053.0383.0951.0629.1387.0231.0429.0462.085.0615.1387.0153.0546.0221.11786.0132.2058-.009.0863-.0104.15196-.009.20582.003.0552.01.0997.0162.14311.007.0442.0128.0885.0157.1431.003.0552.00096.12241-.008.21172-.01.0892.0167.15713.0604.2132.0432.0546.10467.10098.16708.14619.0614.0451.12283.0892.16804.14604.0437.0575.0712.12549.0624.2176-.01.0936-.0197.16304-.0314.22132-.0118.0575-.0246.10553-.0369.15197-.0133.0465-.027.0944-.0383.15417-.0113.059-.0221.12975-.032.22499-.01.0967-.01.16892-.006.22868.004.0597.0123.10773.0206.15639.009.0487.0157.0975.0206.1586.004.0605.004.13503-.006.23237-.01.0988-.0531.17337-.114.23534-.0624.0634-.14151.11375-.22063.1645-.0791.0511-.1592.1026-.22063.16599-.0634.0634-.10858.13943-.11891.24195-.0109.1026-.0231.17852-.0374.24344-.0132.0641-.029.11507-.0432.16745-.0148.0524-.0295.10553-.0432.16969-.0132.065-.0271.14383-.0388.24933-.0113.10553-.007.18514.007.25156.0123.0671.0325.1202.0525.17334.0206.053.0403.10699.0526.17336.0123.0687.0182.14901.007.25821-.0113.10773-.0687.19105-.15133.26114-.0821.0693-.18821.12534-.29483.18073-.10614.0568-.21376.11287-.29679.18369-.084.0709-.14398.15417-.15724.26702-.0128.11375.002.19919.0314.27.0295.0709.0727.12843.11694.18444.0422.0575.0875.11507.11695.18737.03.0724.0452.1586.0324.27664-.0132.11668-.0309.20433-.0536.27885-.0211.0746-.0462.1343-.0703.194-.0255.0605-.0501.11948-.0727.19474-.0221.076-.0408.16674-.0545.28771-.0133.12167.0432.21247.1361.28845.0938.0768.2226.13723.35232.19844.13022.0605.25946.12167.35429.19918.0949.0768.15429.16966.14298.29507-.0113.12682-.027.22204-.0437.30098-.0167.0804-.0369.14383-.055.20803-.0202.065-.0383.12901-.0566.20949-.0172.0804-.0325.17853-.0452.30984-.0123.13136-.0251.22942-.0393.31205-.0132.0828-.028.14899-.0413.2154-.0142.068-.029.1343-.0423.21836-.0142.0839-.0271.18515-.0397.32089-.0128.13635-.0831.239-.18132.32605-.0983.0863-.22505.15714-.35281.22721-.12776.0709-.25502.14017-.35526.22868-.10074.0885-.17297.19402-.18919.33491-.0157.14164-.0408.24935-.0693.33861-.0304.0885-.0643.16156-.0988.23312-.0334.0724-.0683.14383-.0978.23606-.0309.0907-.0555.20064-.0727.34746-.0167.14604-.03.25817-.0418.35039-.0104.0922-.0197.16747-.029.24197-.01.0753-.0192.14974-.0309.24492-.0113.0936-.0251.20802-.0418.36146-.0177.15271.0329.26778.11892.36442.085.0958.20588.17262.32676.25009.12089.0775.24176.1549.32971.25153.0875.0981.14054.21762.12482.37623-.0147.16008-.0398.28107-.0698.38213-.029.10098-.0615.18221-.0958.26336-.0334.0819-.0673.1645-.0968.2663-.0295.10407-.0555.22794-.0717.39319-.0172.16747-.0325.29359-.0467.39836-.0142.10626-.0285.19107-.0413.27589-.0137.0848-.028.16967-.0418.2781-.0153.107-.0314.23606-.0487.40943-.0177.17408-.008.30468.0177.41385.0251.1092.0654.1977.10467.28696.0403.0878.0806.17705.10663.28843.026.11214.0364.24713.0192.42786-.0177.18222-.11744.32164-.25945.43672-.14249.11669-.32676.21024-.51103.30393-.18574.0951-.37148.18958-.51594.30688-.14545.11948-.25012.26186-.27271.45073-.0236.19033-.003.33416.0403.45369.0427.11947.10809.21614.17197.31276.0654.098.13071.19478.17444.31722.0438.1224.0649.26925.0438.46844-.0211.19917-.0712.34965-.13464.4758-.0643.12682-.14201.22794-.22014.32974-.0786.1026-.15724.20507-.2226.33419-.0663.12901-.11793.28474-.142.49278-.0241.20875.0334.36737.13464.4972.10122.13269.24372.23681.38572.34303.14349.10626.28845.2117.39114.34597.10369.1343.1651.29582.14299.51566-.0211.21762-.0826.38359-.16314.52302-.01.0148-.0202.0266-.03.0412-.0536.084-.11449.16156-.17739.23386-.026.0288-.0516.059-.0776.0878-.0511.0568-.1027.11375-.15281.17483-.004.006-.008.0132-.0118.0176-.0437.0546-.086.11066-.12433.17482-.0123.0222-.0211.0511-.0334.0753-.0192.0399-.0393.0791-.0555.12388-.008.0222-.0162.0436-.0241.0679-.026.0828-.0472.17261-.0585.27736-.0251.2309.01.40499.0757.55032.0663.14531.16216.26189.25944.37918.0963.11815.19459.2346.26142.3836.0673.14829.10564.32826.0815.56876-.023.24344-.0555.42639-.0914.58056-.0353.15417-.0766.27811-.11695.40277-.0403.12461-.081.25009-.11793.40721-.0364.15714-.0692.34746-.0949.60198-.026.25448-.0546.4463-.086.60784-.032.16157-.0653.29212-.0983.42342-.0334.13137-.0673.26189-.0988.42788-.0324.16597-.0634.36589-.0914.63367-.0271.26926-.085.47288-.15823.644-.0727.16968-.16216.30837-.2511.44631-.0904.13943-.17934.27885-.25452.4537-.0757.17555-.13612.38727-.16806.66981-.0309.28696-.0378.50163-.0325.68163.006.18147.0226.32605.0403.47284.0177.14683.0359.29214.0403.47657.007.18591-.00096.40868-.0334.70892-.0314.30098-.0472.52892-.0536.71926-.008.19033-.007.34449-.006.49866.002.15566.003.30983-.004.50605-.008.19624-.0251.43378-.0575.751-.0329.32014-.007.56137.0516.76276.0575.20287.1484.3659.23684.53041.0905.16303.18034.32679.24029.53481.061.2073.0909.45812.058.79671-.0314.33861-.18427.59606-.39752.81146-.21425.21764-.48843.39246-.76508.56876-.27713.17557-.55476.35411-.7744.57614-.22063.22352-.3823.49205-.42406.8513-.0432.35999-.0516.6322-.0443.86015.009.22942.0325.41384.0575.59827.0251.18591.0496.37179.0575.60638.009.23606-.00096.52156-.0432.90441-.0452.38361.0585.67353.23536.91547.17936.24344.43193.43746.68597.63296.25453.19694.51054.39391.69382.64324.18427.24934.29483.55328.25798.96122-.0374.41311-.28107.80114-.6103 1.17293-.3302.37328-.74689.72737-1.12476 1.06892-.37983.34449-.72281.67425-.89725.99735-.17641.32386-.18623.64106.1027.95458.0624.0687.12678.12608.19311.17484.0643.0473.13218.0863.20048.11742.0692.0295.13857.0509.21031.0656.0713.0147.14496.0198.21768.0183.26288-.001.53953-.0885.82945-.21763.28991-.12975.59112-.29951.90315-.47138.31202-.16967.63437-.3386.96555-.46549.33218-.12843.67417-.21319 1.02698-.21614.45011-.004.78866-.0302 1.07267-.0679.28402-.0376.51202-.0864.73953-.13577.22701-.0487.45502-.098.73706-.13576.28353-.0376.62307-.0634 1.07317-.0671.44814-.004.78227.10993 1.05941.28476.27714.17408.49924.40794.72183.64399.2226.23754.44764.47508.73068.65359.28402.17852.62601.29729 1.08299.29288.45797-.003.80046-.0864 1.08447-.20729.28304-.12094.5076-.28254.73314-.44114.22407-.1601.44617-.31942.72724-.43893.28009-.11859.61815-.19992 1.0712-.2036.45207-.003.78768-.0782 1.06432-.18887.27664-.11066.49285-.25672.71004-.40204.21572-.14457.43094-.2899.70464-.3976.27222-.10847.60194-.18221 1.0481-.18591.37444-.003.7464.13048 1.11051.33344.36657.20362.72724.47801 1.07858.75318.3533.27739.69481.55623 1.02009.76573.32726.21024.63634.3504.92036.34819.0545-.00074.10908-.006.16117-.0163.0525-.0132.10465-.0302.15527-.0539.0501-.0235.10024-.0539.14889-.09.0482-.0376.0949-.0812.14102-.13268.2855-.32164.44323-.62853.50317-.94352.059-.31425.0207-.63367-.084-.98407-.10073-.34745-.27026-.72294-.47713-1.14491zM24.37932 26.231323c1.18126 0 2.25099-.48251 3.03572-1.26406 1.28643 1.09819 2.94089 1.76063 4.74769 1.76063 1.74832 0 3.35119-.62273 4.61894-1.65759 1.08988 1.02582 2.53993 1.65759 4.13789 1.65759 3.38017 0 6.12059-2.80254 6.12059-6.25947 0-3.45694-2.74042-6.25999-6.12059-6.25999-.4216 0-.83387.0437-1.23189.12665.56705 1.07257.88988 2.29994.88988 3.60472 0 2.14965-.87858 4.0867-2.28342 5.46635.80881-1.21479 1.28249-2.68141 1.28249-4.26212 0-4.18923-3.31925-7.58485-7.41439-7.58485-1.99449 0-3.80031.80919-5.13341 2.1195-1.0034.98612-1.73211 2.25771-2.06821 3.68763-.19114-.0261-.38376-.0443-.58178-.0443-2.40529 0-4.35459 1.99485-4.35459 4.45462.0005 2.46076 1.95028 4.45461 4.35508 4.45461zM73.11212 44.647393c.92428 1.09267 2.28588 1.78727 3.80915 1.78727 2.78317 0 5.03957-2.30798 5.03957-5.15475s-2.2564-5.15425-5.03957-5.15425c-.0334 0-.0663.005-.0998.005.0329.32417.0516.65238.0516.98561 0 3.09908-1.48494 5.83728-3.761 7.53108z"/><path d="M54.24668 46.731203c.93755 0 1.7891-.37143 2.4279-.97456.82845.43023 1.76306.67802 2.75564.67802 1.24957 0 2.4107-.38601 3.37822-1.04492 1.253.66343 2.6721 1.04492 4.17965 1.04492.1312 0 .25797-.0145.38769-.0201 4.8494-.20908 8.72194-4.28573 8.72194-9.29824 0-5.01151-3.87254-9.08716-8.72194-9.29626-.12972-.006-.25698-.0201-.38769-.0201-3.57035 0-6.65276 2.10643-8.14605 5.16581 2.00089.078 3.75559 1.13439 4.81304 2.72163-1.09675-1.07709-2.58366-1.74255-4.22486-1.74255-2.88095 0-5.28919 2.04361-5.93093 4.78935.24128-.0523.49139-.0808.74739-.0808 1.97976 0 3.58558 1.64203 3.58558 3.66703 0 .12566-.007.24929-.0181.37142-.18231-1.8506-1.70999-3.29509-3.5674-3.29509-1.8574 0-3.3851 1.44399-3.5674 3.29509-.0123.12213-.0181.24628-.0181.37142 0 2.02601 1.60581 3.66805 3.58557 3.66805z"/></svg>