<svg xmlns="http://www.w3.org/2000/svg" xml:space="preserve" viewBox="0 0 414.30758 254.32992">
  <path d="M412.36457816 172.652215c-.6873-.3845-1.5288-.8025-2.4763-1.2855-.9404-.4802-1.9822-1.0254-3.0804-1.6691-.8494-.5006-1.5015-.8759-2.0393-1.1908-.535-.313-.9595-.5675-1.3552-.823-.3947-.2544-.7607-.5098-1.1786-.8285-.418-.3158-.8853-.692-1.4844-1.1862-.5917-.4905-1.076-.8535-1.5047-1.1555-.4272-.3008-.7988-.5405-1.1703-.7802-.3697-.236-.7375-.4738-1.1555-.7672-.4166-.2944-.8806-.6455-1.4407-1.1091-.5526-.4606-.7746-.8025-.8313-1.0895-.0538-.2832.0558-.5099.1626-.7366.1068-.2247.2145-.4495.1588-.7281-.0557-.2759-.2712-.6056-.8071-1.0403-.5322-.432-.9763-.7534-1.3775-1.0199-.3994-.2638-.758-.4755-1.1118-.6854-.3539-.21-.7068-.4181-1.097-.6781-.39-.2592-.8155-.5685-1.3189-.9772-.4978-.4067-1.0533-.7097-1.6334-.9585-.58-.249-1.189-.4458-1.7931-.6428-.6028-.196-1.2047-.3921-1.7708-.6362-.5643-.2424-1.0947-.5322-1.5582-.9205-.4598-.3827-.7087-.6688-.8517-.9075-.145-.2368-.1857-.4254-.2247-.6139-.04-.1877-.0799-.3752-.222-.6075-.1422-.2322-.3837-.5072-.8258-.873-.4417-.3623-.6864-.6334-.8364-.8583-.149-.2229-.2029-.4012-.2559-.5796-.0539-.1782-.1077-.3557-.2564-.5741-.1468-.2211-.3855-.4811-.809-.8265-.4212-.3438-.888-.5983-1.3812-.8091-.4904-.2109-1.0041-.3762-1.5177-.5435-.5099-.1653-1.0199-.3306-1.5002-.5367-.4783-.2062-.9279-.4514-1.3217-.7802-.391-.3252-.6335-.5667-.8026-.7701-.1681-.1997-.2628-.3595-.359-.5192-.0942-.1599-.189-.3196-.3557-.5166-.1639-.1968-.3994-.4309-.7751-.7412-.3715-.3083-.6641-.5367-.9158-.728-.2512-.1895-.4644-.3409-.6762-.4924-.2122-.1484-.4217-.2991-.6687-.4866-.248-.1868-.5318-.4087-.887-.7041-.3549-.2935-.6539-.5127-.9243-.6929-.2693-.1821-.5128-.3252-.7523-.4683-.2434-.1429-.483-.286-.7487-.4634-.2629-.1775-.5518-.3892-.8908-.6697-.3339-.2806-.373-.4886-.2675-.6643.1068-.1736.3576-.313.6097-.4523.2513-.1393.5002-.2777.6042-.4496.1013-.1689.0594-.3733-.2722-.6409-.3278-.2656-.5787-.4644-.7886-.6289-.208-.1643-.3799-.2944-.548-.4263-.169-.1292-.338-.2582-.5443-.4198-.2062-.1617-.4477-.3539-.7617-.6094-.3158-.2535-.6409-.442-.9776-.6-.3321-.1542-.6721-.2795-1.012-.4031-.3386-.1227-.6744-.2454-1.0032-.3994-.3269-.1523-.6432-.3363-.94-.5796-.2958-.2434-.6083-.4236-.9316-.5723-.3232-.1487-.6539-.2676-.9855-.3845-.3307-.1189-.6586-.236-.9753-.3826-.3158-.1467-.6187-.3214-.8982-.5537-.2805-.2322-.4296-.4058-.5118-.5498-.0855-.1431-.1058-.2583-.1263-.3716-.0204-.1151-.0409-.2285-.1245-.3706-.0826-.1401-.2285-.3093-.4983-.5322-.2689-.2211-.4565-.3864-.6033-.5256-.1448-.1357-.2489-.2454-.3548-.3549-.104-.1078-.2081-.2155-.3516-.3502-.1416-.1346-.3227-.2953-.5828-.5081-.2573-.2117-.3715-.3716-.4142-.5034-.0427-.1318-.0139-.2378.0148-.3418.0298-.106.0577-.2109.0158-.3401-.0436-.1299-.1552-.2842-.4078-.4904-.2512-.2025-.4356-.3547-.5907-.4811-.1523-.1245-.2731-.2258-.3948-.3269-.1235-.0995-.2424-.1989-.3939-.3225-.1505-.1235-.3315-.272-.5754-.468-.2391-.196-.4327-.3409-.6004-.4617-.1672-.1207-.3116-.2173-.4542-.312-.1431-.0967-.288-.1914-.4533-.3103-.1635-.1189-.3525-.262-.5843-.4496-.2294-.1885-.5062-.3278-.8052-.443-.2972-.1143-.6187-.2073-.9382-.2982-.3195-.0909-.6381-.181-.9325-.2953-.2935-.1133-.561-.249-.7798-.4302-.2159-.1802-.2206-.3147-.117-.4272.1017-.1123.3098-.2034.5168-.2935.2072-.0891.4133-.1802.5132-.2916.0989-.1095.0933-.2424-.1221-.4171-.2155-.1727-.3865-.3027-.5313-.4095-.145-.1068-.2676-.1923-.392-.2777-.1208-.0854-.2434-.17-.3874-.2759-.1429-.1069-.3074-.2312-.5154-.4004-.2072-.1672-.4607-.2898-.7375-.3938-.2769-.1023-.5759-.1838-.8751-.2648-.299-.0807-.5963-.1615-.8675-.2628-.2712-.1003-.5183-.2219-.7152-.3827-.1941-.1606-.3232-.2805-.4198-.3799-.0966-.0995-.1616-.1783-.2252-.2573-.0637-.08-.1277-.1578-.2225-.2562-.0957-.0985-.223-.2156-.4143-.3716-.1876-.1543-.3696-.2703-.5485-.366-.176-.0967-.3488-.1719-.5216-.249-.1727-.0752-.3436-.1504-.5182-.2451-.1746-.0939-.3511-.2063-.5322-.3567-.1811-.1497-.3575-.2601-.5322-.353-.1729-.0928-.3438-.1653-.5155-.2396-.171-.0724-.3409-.1449-.5123-.236-.1686-.0909-.3394-.1987-.5145-.3436-.1724-.1431-.1579-.2526-.0479-.3436.1096-.0891.3102-.1636.5126-.2358.2007-.0725.4013-.145.5091-.2341.1068-.0892.1188-.1951-.0538-.3354-.171-.1384-.4348-.2424-.7413-.3279-.3065-.0853-.6595-.1523-1.0087-.2192-.3511-.0686-.7003-.1345-1.0013-.219-.301-.0837-.5574-.1859-.7198-.3196-.1626-.1357-.171-.236-.1036-.3215.0673-.0835.2094-.1522.3506-.219.144-.0669.2828-.1339.3511-.2175.064-.0826.0548-.182-.105-.312-.1598-.1301-.3381-.2267-.5229-.3074-.183-.079-.3762-.1431-.5676-.2073-.1932-.0631-.3845-.1262-.5666-.2062-.1811-.08-.353-.1737-.5071-.3009-.1523-.1254-.3385-.2183-.5359-.2954-.1996-.0771-.4152-.1384-.6298-.1997-.2126-.0613-.4263-.1226-.6232-.1997-.1979-.076-.3771-.168-.5239-.2898-.145-.1226-.2429-.2136-.3159-.2888-.0724-.0771-.1207-.1365-.1671-.196-.0483-.0613-.0966-.1198-.1691-.1951-.0706-.0752-.1635-.1635-.3065-.2805-.1431-.1189-.1896-.208-.1914-.2814 0-.0734.0446-.1329.0901-.1923.0455-.0586.092-.1169.0901-.1895 0-.0725-.0482-.1599-.1885-.2749-.1384-.1144-.261-.1987-.3771-.2703-.1123-.0707-.2201-.1273-.3251-.1831-.1049-.0557-.209-.1123-.3237-.182-.1119-.0687-.2289-.1525-.3646-.2638-.1347-.1106-.2192-.1932-.2778-.262-.0566-.0687-.09-.1255-.1253-.1802-.0298-.0538-.0637-.1096-.1199-.1783-.0585-.0669-.1403-.1487-.274-.2563-.13-.1078-.1968-.1876-.2303-.2545-.0375-.0669-.0409-.1189-.0446-.1729-.004-.0537-.007-.1067-.0427-.1726-.0344-.0669-.1022-.145-.2294-.249-.1273-.105-.2257-.182-.3083-.2471-.0831-.0649-.1524-.1169-.2192-.1672-.0678-.0519-.1347-.104-.2183-.1671-.0831-.0651-.1801-.1412-.3019-.2415-.1244-.1022-.1699-.1896-.1904-.2666-.0185-.0781-.0129-.1459-.038-.2108-.0232-.0642-.0743-.1245-.2072-.1877-.1337-.0613-.3455-.1226-.6934-.1921-.0608-.0122-.118-.0215-.1722-.0298-.0558-.008-.1078-.0159-.1579-.0214-.0483-.006-.0966-.009-.1412-.0111-.0455-.002-.0891-.004-.1301-.004-.1922.002-.3436.0295-.4849.0706-.1397.0427-.2656.0984-.4068.1522-.1421.0568-.2953.1115-.4913.1542-.1964.0428-.4319.0725-.7347.0745-.3679.002-.6706-.0205-.9381-.0521-.2703-.0334-.5052-.078-.7398-.1226-.2355-.0446-.4696-.0873-.7371-.1207-.2675-.0317-.5685-.054-.9344-.0511-.3651.002-.6373.007-.861.0101-.2248.006-.4008.0112-.5787.0168-.1766.007-.3549.0129-.5797.0186-.2266.005-.4978.009-.8661.0103-.3646.002-.6257.0157-.8332.038-.2076.0204-.3628.0493-.5187.0763-.1556.0297-.3112.0557-.5202.0779-.208.0205-.47.0354-.8359.0381-.3688.003-.6576-.011-.9084-.0305-.2489-.0205-.4607-.0465-.6707-.0745-.2099-.0278-.4216-.0537-.6705-.0742-.2471-.0195-.535-.0315-.9-.0306-.196.001-.3688 0-.5234-.005-.1566-.003-.293-.007-.4156-.0131-.1226-.004-.2331-.009-.3334-.0129-.1003-.004-.1923-.007-.2759-.006-.077 0-.1468.004-.2173.007-.0687.007-.1375.0148-.208.028-.0706.0129-.144.0297-.222.052-.0771.0214-.1608.0483-.2499.0817-.1978.0724-.2925.1263-.3158.1755-.0228.0492.0241.0901.1077.1346.0836.0447.2025.093.3233.1561.1207.0631.2452.1393.3372.2396.0919.1021.1384.1802.162.2444.0227.064.0247.116.0247.168.002.052.002.104.0259.1691.0242.066.0706.1429.1644.248.0938.1049.1384.1848.157.2516.0204.0669.0157.1208.0101.1729-.004.054-.008.1078.0103.1747.0204.0668.0659.1476.1611.2554.0952.1088.1835.1904.2679.2592.0846.0669.1654.1216.2466.1755.0818.0549.162.1096.2494.1775.0855.0696.1765.1532.275.2637.0984.1116.2006.197.3037.2656.105.0706.209.1265.3149.1821.1058.0566.2108.1133.3185.184.1031.0706.2091.1559.3112.2711.1041.1152.1431.2025.1505.2749.007.0725-.0158.1301-.04.1896s-.0483.1189-.0399.1913c.007.0743.0483.1636.1523.2805.1044.1189.1402.2081.1375.2842 0 .0745-.0353.1357-.0743.196-.0358.0604-.0725.1217-.0748.1979-.001.0762.0358.1681.1426.2898.1049.1227.1848.2155.248.2916.065.0781.1132.1404.163.2025.0507.0624.0989.1245.163.2025.0659.0798.1449.1729.2554.2991.1115.1263.2025.2211.2842.3027.0808.08.1542.1431.2266.2073.0725.064.145.1289.2277.2089.0808.0819.1765.1783.2907.3103.1143.13.2694.2284.4458.3102.1766.0818.3734.1477.5722.2136.1969.0649.3957.132.5758.2146.1793.0828.3381.1838.4589.3186.1217.1356.1579.2378.1505.3232-.007.0874-.0567.156-.1068.2249-.0493.0696-.1003.1393-.1068.2266-.007.0874.0287.1914.1523.3306.1226.1394.2731.2454.4385.3325.1663.0874.3454.158.5271.2286.1797.0706.3617.1411.5289.2303.17.0891.3251.1969.4551.3418.1287.1449.222.2527.2982.3455.0762.0911.1356.1654.1923.2397.0585.0725.1179.1467.1937.2395.0779.093.1732.2045.3069.355.1337.1504.1979.2637.2276.3584.0287.0967.0204.1729.0148.249-.006.078-.0148.1542.0139.2507.0298.0967.0957.2136.2322.3678.1375.1571.3047.274.4904.3716.1858.0975.3855.1764.5861.2555.2025.078.4041.157.5917.2554.1877.1003.3623.2211.5076.3809.1463.1626.3218.2842.5136.3845.1918.1022.4017.1838.6098.2656.2118.0808.4194.1635.6177.2656.1941.104.3762.2285.5303.3958.1542.1689.2211.2953.2443.4011.0242.106.005.1924-.0158.2788-.0195.0854-.0409.1709-.0157.2804.0241.1078.0929.2378.2476.4106.1584.1747.2623.3065.3385.4171.0762.1105.1245.1996.1729.2869.0501.0901.0984.1793.1764.2917.078.1113.1821.2471.3451.4272.162.1821.2076.3195.1937.4347-.0131.1141-.0864.2081-.1616.3009-.0738.0938-.1467.1877-.1635.3047-.013.1171.0316.2582.1969.4458.1672.1876.313.3307.4496.4478.1384.1189.2666.2146.3943.311.1277.0957.2577.1924.3952.3121.1431.1217.2935.2684.4681.4636.1737.1969.3223.3455.4561.4698.1365.1245.2573.223.3799.3232.1226.1003.2447.1997.3826.327.137.1254.2898.2777.4709.4821.1835.2053.3669.3595.549.4885.182.1292.3659.2322.5508.3372.183.1033.3678.208.5545.3391.1867.1328.3752.2908.5666.5024.1923.2156.3984.3772.6093.511.2118.1346.4301.2433.6492.3511.2202.1077.4412.2173.6558.3547.2164.1366.4282.3019.6307.5249.2043.2219.3288.3901.4142.5303.0873.1412.1356.2545.182.3688.0483.1141.0948.2294.184.3724.0891.145.2173.3176.4282.5498.2126.2333.4133.4097.6065.5574.1942.1467.3836.2656.5721.3827.1904.1189.3808.2386.5796.3883.1969.1504.4041.3306.6279.574.2225.2444.3901.4292.5313.5833.1412.1543.2545.2788.3683.4033.1147.1243.228.2506.372.4067.1458.1578.3185.3483.5508.6018.2341.2563.2341.4487.117.6113-.1189.1633-.353.2952-.5908.4272-.2359.1318-.4727.2646-.5944.4309-.1189.1672-.1226.3669.1133.6334.2359.2684.5466.4701.8964.639.3511.1672.7383.3029 1.1276.4385.391.1355.7812.2731 1.1364.4441.3581.1708.6832.3806.9358.6603.2541.2814.295.4932.2286.6715-.067.1793-.2406.3232-.4171.4691-.1765.1459-.3507.2916-.4199.4728-.0697.1838-.0288.405.2289.7003.2625.2946.5745.5183.9144.704.3436.1859.7111.3364 1.0812.4858.3716.1497.7449.3 1.0923.4915.3511.1895.6776.4198.9558.73.2795.3121.4894.5461.6622.7432.1729.1968.3102.3557.4496.5154.1375.1589.2787.3196.4542.5212.1783.2015.3948.444.6865.7709.2954.327.3734.574.3438.7821-.0288.208-.1672.3762-.3056.5461-.1403.1689-.2778.34-.3098.5518-.0311.2136.0506.4719.3516.8154.3019.3457.5461.6057.7617.823.2183.2192.405.3958.5926.5723.1895.1772.379.3547.6.5786.223.2257.4793.4951.7969.8591.3224.366.7561.6409 1.2428.8713.4913.2302 1.0394.4143 1.5874.6.5508.1858 1.1044.3724 1.6059.6074.5054.2369.9568.5221 1.306.9066.3488.3864.4329.678.3808.925-.0539.2452-.2415.4449-.4309.6448-.1896.2004-.38.4011-.4333.6547-.0553.2535.0283.5574.385.9652.3613.4104.8693.7207 1.4526.9771.5853.26 1.2456.4663 1.9079.6743.6641.2081 1.331.418 1.9301.6818.6.2657 1.135.587 1.5308 1.0199.3975.4347.5425.7634.5582 1.0403.0176.2769-.0956.5007-.2072.7263-.1124.2249-.2252.4514-.2099.7356.0176.2861.1653.6299.5759 1.0906.4133.4617.887.8099 1.3951 1.1016.5076.2925 1.0496.5266 1.592.7627.5461.2368 1.0923.4746 1.6139.7754.5261.3 1.0259.665 1.4754 1.1556.4514.4932.5685.8666.5184 1.1805-.0483.3148-.2686.5693-.4882.8257-.2215.2573-.4407.5164-.4937.8389-.0521.324.0678.7161.5317 1.2417.4696.5276.7631.9717 1.0027 1.3655.2406.3966.4241.7412.666 1.0663.2434.3269.5494.6362 1.0366.9613.4895.3279 1.1611.6716 2.1419 1.0691.6122.248 1.1481.4459 1.6339.6038.4857.158.9176.2731 1.3207.3586.3999.0854.7719.1384 1.1341.1708.3613.0308.7153.0409 1.0812.0382.2155-.001.4348-.005.6623-.0122.2285-.007.4672-.0166.718-.0269.2517-.009.5182-.0195.8026-.027.2842-.007.587-.0129.9139-.0149.8806-.005 1.5623.0121 2.142.0389.5795.028 1.0607.0652 1.5436.1023.4807.0391.9642.0771 1.5466.104.5842.0278 1.2701.0447 2.1577.0399.8824-.005 1.5048-.0492 1.9933-.1141.4881-.0659.8448-.1505 1.2001-.236.3567-.0856.7124-.1691 1.1981-.234.4858-.0652 1.103-.1097 1.9822-.1152.8843-.004 1.437-.1078 1.8261-.262.3874-.1542.6094-.3567.8341-.5591.2201-.2026.4403-.4031.8207-.5555.3813-.1505.9255-.2526 1.793-.2572.8694-.005 1.6919.1439 2.493.3687.8035.2277 1.5902.5322 2.3778.8396.7933.3066 1.5893.6168 2.4086.8491.822.2322 1.6691.3855 2.5552.3809.3901-.002.7751.004 1.1526.0129.3776.0103.7487.0242 1.1081.0371.3596.0139.7087.0278 1.0422.0391.3354.008.6567.0149.9609.0129.3878-.002.7463-.0167 1.071-.051.3273-.0344.619-.0901.8735-.1737.2526-.0836.4672-.1941.6335-.3419.1672-.1467.288-.3287.3576-.5535.1254-.4106 0-.7765-.3334-1.1388-.332-.3605-.8671-.7152-1.5619-1.1035zm-207.8654-71.8775c.0892-.0651.1812-.1171.2708-.171.0905-.0518.1788-.1021.2679-.167.0901-.066.1802-.144.2693-.2462.091-.1022.1709-.1755.2322-.2313.0604-.0537.0999-.0928.1022-.1282.001-.0344-.0316-.0649-.1152-.106-.0841-.0388-.2192-.0872-.418-.1577-.1951-.0688-.3196-.1283-.4203-.1765-.0999-.0483-.1741-.0883-.2708-.1189-.0984-.0298-.2156-.0511-.4018-.0651-.1833-.014-.4346-.0194-.7993-.0177-.3668.003-.6381.003-.8652.001-.2261-.002-.4063-.004-.5837-.006-.1793-.003-.3577-.006-.5843-.007-.2247-.001-.4965-.001-.8601 0-.366.002-.6688.0344-.9442.0808-.2736.0465-.5168.1078-.763.171-.2434.0612-.4886.1226-.7654.1689-.275.0483-.5823.0798-.9484.0818-.3688.002-.6418 0-.8666-.002-.2266-.002-.405-.006-.5824-.0103-.1783-.004-.3557-.007-.5823-.0101-.2248-.002-.4979-.004-.8638-.002-.3688.002-.6354-.004-.8513-.0149-.216-.0112-.3823-.026-.5458-.0408-.1676-.0149-.3306-.0308-.5461-.042-.215-.01-.4812-.0176-.8475-.0156-.2606.002-.4756-.008-.6581-.0242-.183-.0149-.3353-.0364-.4737-.0576-.1366-.0223-.2592-.0427-.3837-.0594-.1235-.0149-.2489-.026-.3929-.026-.0566.002-.1179.004-.1811.007-.0641.004-.1323.0112-.2043.0195-.0744.008-.1524.0195-.235.0344-.0845.0139-.1736.0316-.2712.052-.3474.0725-.508.1338-.562.1895-.0538.0576 0 .1086.0826.1644.0846.0548.196.1144.2582.1849.0604.0706.0706.1541-.0511.2554-.1226.103-.2977.182-.5007.248-.2024.0669-.4323.1189-.6622.1718-.2313.0538-.4626.1068-.6669.1737-.2081.0649-.3864.1449-.5137.2507-.1271.1078-.1513.1858-.1216.2527.0284.0669.1115.1208.1951.1729.0826.0537.1653.1058.1968.1746.0288.0649.008.1467-.1216.2554-.129.1106-.3177.1924-.5359.2629-.2173.0687-.4644.1254-.7114.182-.2481.0558-.496.1134-.7171.183-.2215.0706-.4133.1543-.5499.2676-.1375.1123-.1885.1978-.1987.2684-.0112.0706.0222.1263.0538.1838.0334.0558.0651.1134.0538.184-.007.0725-.0613.1588-.1996.2749-.1384.1152-.2132.2034-.2545.2769-.04.0724-.0456.13-.053.1895-.009.0585-.0158.1179-.0576.1914-.0409.0742-.1152.1633-.2573.2822-.1425.1208-.3391.2119-.5619.2881-.2249.076-.4756.1384-.7264.1996-.2526.0624-.5044.1235-.7301.2015-.2275.0781-.4291.1702-.5777.2935-.1505.1237-.2694.2175-.3752.2954-.1064.0781-.1933.1412-.2843.2043-.0891.0632-.1792.1263-.2861.2053-.1059.0791-.2285.1755-.3827.3019-.1551.1282-.1356.2249-.0259.3038.1096.0807.3065.1438.5052.207.1988.0631.3976.1272.509.208.1096.08.1337.1785-.0219.3103-.157.1338-.3348.2322-.5272.3158-.1922.0846-.3956.1525-.5991.2201-.2043.0679-.4087.1366-.6019.2219-.1951.0837-.3789.1859-.5433.3234-.1626.1365-.3168.2396-.4653.3269-.1487.0873-.2917.1561-.4366.2267-.143.0687-.2888.1394-.4365.2266-.1528.0891-.3103.1942-.4793.3345-.17.1421-.2768.249-.3511.3372-.0743.0881-.1176.1606-.1598.2332-.0427.0706-.0855.1431-.1616.2322-.0762.0911-.1849.2007-.3604.3464-.1738.1477-.3492.2573-.5229.3501-.1746.093-.3474.1682-.522.2434-.175.0743-.3483.1505-.5257.2444-.1756.0938-.3557.208-.5378.3594-.183.1523-.3354.2657-.47.3623-.1347.0967-.2563.1736-.3734.2507-.1207.0781-.2415.156-.379.2527-.1375.0974-.2916.2156-.482.3734-.1895.1561-.2815.275-.3233.3743-.0417.0994-.0306.1793-.0223.2592.009.078.0176.1589-.0223.2583-.0436.1021-.1346.2229-.3297.3862-.1965.1636-.3154.2861-.3976.3893-.0817.1031-.1263.1857-.169.2684-.0446.0835-.0892.1663-.1719.2712-.0836.104-.2062.2303-.4063.4004-.202.1699-.4306.2981-.6744.4059-.241.1077-.4974.1949-.7538.2814-.2573.0883-.515.1755-.7617.2852-.247.1096-.4821.2416-.6929.4163-.2155.1772-.2823.3101-.274.4197.007.1116.0883.1997.1719.288.0807.0892.1635.1783.1704.2908.009.1124-.0571.2499-.2745.432-.2173.1838-.4171.3213-.6066.4382-.189.1162-.3705.21-.5508.303-.1801.0947-.3623.1875-.5555.3064-.1917.118-.3956.2601-.6241.4506-.2267.1903-.496.3353-.7858.4561-.2916.1198-.6019.2174-.9149.3158-.3149.0984-.6279.1968-.9233.3195-.2972.1245-.5759.2731-.8165.4708-.2415.1998-.2554.3484-.1532.4719.0998.1235.3176.2239.5354.3223.2178.1003.4352.2007.5392.3271.1041.1262.0939.2795-.1505.4856-.2452.208-.5768.3651-.9512.4971-.3771.1318-.7978.2386-1.2191.3455-.4222.1077-.8466.2156-1.2298.3492-.3841.1356-.7259.2972-.9869.5118-.261.2163-.3232.3799-.2833.5135.039.1366.1783.2452.319.3549.1408.1078.2829.2173.3219.3547.0419.1376-.0204.3048-.2842.5295-.2684.2257-.5722.3958-.8991.5388-.3275.1439-.6744.259-1.0219.3751-.3491.1171-.7003.2323-1.0309.379-.3345.1467-.6526.3213-.9345.5574-.2852.2358-.5322.4141-.7616.5627-.2295.1505-.4412.2712-.6521.3911-.2136.1217-.4272.2424-.6613.3948-.2322.1523-.4886.3362-.7858.5814-.299.2471-.5461.4337-.7672.5907-.223.156-.418.2825-.614.4087-.197.1263-.3939.2527-.6205.4125-.2257.1597-.4806.3511-.7932.6093-.3131.2563-.5564.4514-.7645.615-.209.1635-.3836.2953-.5582.4263-.1746.1328-.3511.2646-.5656.4309-.2119.1682-.4645.3688-.7933.6382-.3297.2732-.5498.4766-.7133.6475-.1663.1719-.2768.3093-.3864.4486-.1102.1375-.222.2767-.3902.4504-.1672.1757-.3956.3865-.7375.6697-.3419.2843-.6078.4979-.8303.6763-.2249.181-.4092.3251-.5945.4708-.1849.1459-.3719.2917-.6019.4746-.2295.1848-.5034.4069-.862.7041-.3623.2991-.6678.5259-.9437.7153-.2768.1895-.5239.3435-.7728.495-.249.1542-.4979.3083-.782.5006-.2806.1951-.5983.4272-.9781.7412-.3821.3159-.4542.5518-.3705.7488.0836.1987.326.3567.5684.5154.2434.1589.4882.3186.575.5201.0883.2015.0177.4469-.3705.7765-.392.3317-.6929.5806-.9493.7886-.2581.21-.4685.3792-.6818.5491-.2136.1699-.429.3408-.691.5544-.2647.2156-.5777.4746-.9874.823-.4134.3491-.9158.613-1.4639.8359-.5508.2212-1.147.4012-1.7452.5833-.6.1812-1.2042.3633-1.7648.5908-.5685.2285-1.0942.5034-1.5387.8712-.4482.3698-.6469.6483-.7203.8815-.0733.2341-.0214.4209.0316.6094.0535.1885.1078.3781.0335.6158-.0744.2396-.2787.5284-.7422.9176-.4659.3901-.9316.6855-1.4016.9336-.4738.2479-.9474.4485-1.423.651-.4765.2025-.9567.405-1.4397.6595-.4867.2545-.9763.5629-1.4741.9753-.5007.416-.7891.7281-.9669.99-.1798.2639-.2509.4738-.3214.6875-.0688.2117-.1412.4253-.3233.6929-.1829.2703-.4783.5962-1.0026 1.0337-.5253.4395-.9113.771-1.2271 1.0487-.3177.2805-.5643.5044-.8123.7301-.2489.2266-.4988.4541-.8257.7393-.3269.2881-.73.6335-1.2845 1.0999-.5574.4672-.8778.8192-1.0766 1.1146-.2011.2972-.2828.535-.3622.7745-.0799.2397-.1635.4812-.3688.7849-.2062.3057-.5379.6735-1.1249 1.1714-.5869.4978-1.0829.874-1.5344 1.1907-.4533.3176-.8593.5732-1.2688.8304-.4097.2582-.8221.5164-1.2878.8414-.4667.3289-.9879.7227-1.6166 1.2522-.6326.5349-1.3672.9752-2.1047 1.3579-.7422.3845-1.4852.7124-2.1309 1.0198-.6497.3103-1.2014.6011-1.5548.9141-.3557.314-.5155.6503-.3762 1.0515.0306.0854.0715.158.1226.2183.0506.0613.1133.1105.1857.1477.0715.0381.1532.0659.2443.0835.0901.0168.1904.026.2982.0242.3902-.002.888-.1151 1.4565-.2842.5666-.1691 1.2028-.3918 1.8744-.6149.6683-.223 1.3728-.444 2.0787-.6112.704-.1663 1.4099-.2787 2.0908-.2825.8647-.004 1.4834.0188 1.9813.053.4978.0354.8749.0847 1.2502.1328.3789.0483.7552.0967 1.2576.1329.4998.0353 1.1253.0566 1.9946.051.868-.004 1.364.1366 1.6752.3492.3121.2136.4374.5016.5657.7914.1263.2898.2545.5814.5703.8007.3186.2192.8248.364 1.7067.3586.8829-.005 1.5239.0129 2.0449.0427.5202.0278.9187.0668 1.3171.1067.4003.04.7993.079 1.3218.1086.5201.0278 1.1638.0447 2.049.0409.8851-.005 1.6793-.1429 2.4261-.3483.7478-.2043 1.4434-.4729 2.1378-.7422.6943-.2675 1.3845-.5331 2.1182-.7346.7333-.1997 1.5113-.3335 2.3854-.3391.6381-.004 1.1387.0679 1.5548.1765.4161.1078.7496.2537 1.0487.4004.3023.1458.5731.2943.8666.4041.2916.1095.6066.1829.9938.1802.1412 0 .2917-.0112.4543-.0326.1625-.0232.339-.0565.5284-.1049.1886-.0474.3915-.1079.614-.1841.222-.076.458-.168.7143-.2749.9781-.4095 1.5679-.7477 1.9255-1.0625.353-.314.4746-.6056.5175-.9224.037-.314-.006-.6521.0166-1.0598.0223-.405.1078-.8768.3995-1.4592.2554-.5137.3901-.9075.4774-1.2418.0836-.3307.1245-.6038.1876-.8788.065-.2729.1542-.5461.3409-.8777.1867-.3297.4681-.7161.9159-1.2158.4448-.4951 1.0523-.8657 1.7424-1.1741.6865-.3065 1.4518-.5508 2.2162-.796.7607-.2424 1.5195-.4858 2.1884-.7867.6678-.301 1.2447-.6558 1.65-1.1257.3999-.4645.5421-.8099.5555-1.0959.0116-.2843-.0999-.511-.2131-.7339-.1115-.2247-.2248-.4478-.2099-.7263.013-.2769.1532-.6094.5401-1.0477.3859-.4385.5605-.7616.6311-1.031.0678-.2676.0353-.4802 0-.692-.0329-.2108-.0678-.4216.003-.6846.0687-.26.2378-.5721.6093-.9883.3678-.4106.7904-.717 1.2363-.9734.4449-.2546.9158-.457 1.384-.6594.4672-.2017.933-.4014 1.3672-.6521.4337-.248.8345-.5444 1.1778-.9344.3408-.3883.6185-.6771.8647-.9177.2452-.2386.4607-.4291.6753-.6185.2127-.1896.4245-.379.666-.613.2396-.2322.5052-.5127.8285-.8806.3204-.3678.3994-.6399.3622-.8657-.0408-.2239-.1949-.4021-.353-.5796-.1559-.1774-.3111-.3529-.3474-.574-.038-.2192.0427-.4829.3567-.8323.3102-.3473.6957-.6064 1.1165-.821.4161-.2155.8713-.3883 1.3228-.5592.4523-.1709.9014-.3419 1.3124-.5526.4069-.2109.7747-.4607 1.0635-.7922.2861-.3289.3594-.5732.327-.7756-.0353-.2017-.1751-.3613-.3149-.5211-.1389-.1588-.2768-.3176-.3093-.5155-.0334-.1969.039-.4338.3214-.7477.2787-.3112.6223-.5443.9971-.7374.3739-.1934.7807-.3475 1.1847-.5017.4037-.1542.8054-.3064 1.1732-.4978.3669-.1895.6962-.4143.9577-.7134.2573-.2972.4821-.5193.6877-.7021.2057-.1841.3925-.3298.5792-.4756.1867-.1449.3739-.2898.574-.47.2007-.1802.4171-.3939.6641-.6781.2448-.2843.2768-.4923.2025-.6669-.0744-.1729-.2545-.3103-.4352-.4478-.1797-.1356-.3557-.2712-.4277-.4421-.0733-.1691-.0399-.3726.2025-.6437.2415-.2694.4979-.4708.7626-.6381.2619-.1663.5322-.2992.8016-.4319.2694-.1329.5378-.2648.7969-.4282.2574-.1646.5044-.3604.733-.6167.2242-.2573.3799-.4487.4978-.6075.1189-.1588.2043-.2843.2852-.4106.0826-.1263.1663-.2506.2833-.4069.1161-.1541.2653-.3408.4839-.5869.2164-.2452.5043-.4291.8295-.5824.3233-.1515.6818-.274 1.0375-.3956.3576-.1217.7125-.2424 1.0301-.3931.314-.1484.5945-.3278.7969-.5627.2007-.235.2192-.4087.1468-.5536-.0706-.1431-.2322-.2573-.3938-.3715-.1607-.1125-.3214-.2249-.392-.3679-.0697-.1403-.0502-.3083.1495-.535.1996-.2247.3042-.392.3651-.5294.058-.1384.0724-.2489.0873-.3585.0129-.1088.0269-.2174.0854-.3529.0594-.1357.1611-.2972.3549-.5128.1913-.2155.5247-.3751.9307-.5109.4031-.1346.8787-.2415 1.3524-.3492.4719-.1078.9437-.2145 1.3412-.3473.3957-.132.719-.2881.8954-.4961.1765-.2062.2916-.3585.3827-.4866.0854-.1265.1449-.2286.2034-.3308.0585-.0984.1179-.2006.2025-.3251.0878-.1254.2015-.275.3715-.4738.1699-.1969.1467-.3436.0297-.4653-.1179-.1199-.3307-.2163-.5433-.312-.2119-.0957-.4218-.1904-.535-.3093-.1171-.1189-.1375-.262.0316-.4534.17-.1895.3325-.3315.4933-.4486.1606-.1179.3181-.2126.4746-.3055.156-.0929.314-.1858.4709-.3027.157-.1152.3148-.2546.4774-.4366.1588-.182.3679-.3195.6005-.4329.2308-.1123.4881-.2025.7427-.2936.2554-.0891.508-.1801.7383-.2915.2276-.1116.4291-.2452.5801-.4218.1519-.1755.1621-.3055.1017-.4132-.0585-.1089-.1876-.1942-.3177-.2778-.13-.0854-.2586-.1709-.3167-.2767-.0585-.106-.0464-.2333.105-.4032.1468-.1689.3809-.2954.6558-.4011.275-.1051.5907-.1897.9066-.2742.3138-.0845.6269-.1681.8962-.2729.2703-.1031.4951-.2267.6344-.3901.1403-.1626.1282-.2833.0419-.3818-.0864-.1003-.2481-.1783-.4083-.2573-.1616-.0789-.3196-.157-.4045-.2554-.0846-.0984-.0948-.2156.045-.3734.1388-.1561.2679-.275.3952-.3715.1244-.0967.2489-.1747.3678-.2527.1216-.0762.2434-.1543.3678-.2507.1245-.0947.2499-.21.3836-.3605.1329-.1523.1552-.2638.1235-.3585-.0297-.0928-.1152-.1653-.2006-.2396-.0855-.0734-.1695-.1467-.1998-.2378-.0306-.0909-.009-.2007.1236-.3474.13-.1459.3743-.2563.6771-.3473.3005-.0911.6586-.1654 1.0139-.2397.3558-.0724.7111-.1467 1.0083-.2358.2935-.0901.5322-.1979.653-.3401.1213-.1393.196-.2451.2438-.3325.0506-.0872.0761-.156.1027-.2256.0259-.0698.0501-.1384.1002-.2239.0483-.0864.1189-.1895.2378-.3269.1171-.1357.1235-.2361.072-.3214-.0497-.0836-.1547-.1487-.2606-.2156-.105-.0651-.2108-.132-.2592-.2136-.0501-.0817-.0427-.1803.0724-.3121.1171-.1328.2006-.2302.2657-.312.0646-.0818.1152-.1469.1616-.2118.0502-.0651.0981-.13.1635-.2098.0651-.08.1449-.1765.2582-.3047.1124-.1263.3126-.2229.5592-.3029.2433-.078.5313-.1431.8192-.2062.2861-.0649.574-.1282.8155-.208.2397-.0781.4356-.1729.5406-.2954.1059-.1227.0538-.2156-.0789-.2898-.132-.0762-.3409-.1356-.5508-.1951-.21-.0594-.4189-.1171-.5481-.1914-.13-.0742-.182-.1635-.0743-.2823.1041-.1207.2638-.2098.4468-.2852.183-.0752.3929-.1346.6-.1941.209-.0594.417-.1189.5958-.1932.1825-.0725.3358-.1616.4375-.2767.0989-.1151.1751-.2025.2355-.274.0622-.0715.1105-.1292.1606-.1868.0483-.0557.0947-.1133.1574-.1838.0599-.0706.1324-.1543.2308-.2676.0975-.1113.2006-.1951.3083-.2656.1078-.0687.215-.1254.327-.1802.1096-.0576.2173-.1123.3228-.1821.1063-.0677.2067-.1504.3014-.26.093-.1077.0873-.1885.0325-.2544-.0538-.0669-.1551-.1189-.2592-.1729-.1039-.053-.2062-.106-.2582-.1709-.0544-.0669-.0566-.1458.0353-.2507.0935-.1068.1845-.1849.2755-.2517zm137.9042 71.768c-.5378-.2563-1.1824-.5332-1.8289-.8796-.6409-.3446-1.2837-.7607-1.8159-1.2958-.5155-.5182-.8508-.9232-1.0858-1.2726-.235-.3455-.3716-.6371-.4876-.9297-.1161-.2888-.2109-.5786-.3632-.9224-.1505-.34-.3567-.7319-.6892-1.2279-.3325-.4904-.5666-.8564-.7524-1.1592-.183-.3019-.3195-.5424-.4551-.7821-.1356-.2388-.2713-.4773-.4506-.7728-.1792-.2953-.4059-.6483-.7226-1.1136-.3112-.4617-.3576-.8054-.2712-1.0913.0845-.2843.3009-.511.5165-.7375.2145-.2266.4291-.4514.5099-.7301.0836-.2767.0334-.6075-.2731-1.0441-.3037-.4337-.4941-.7561-.6255-1.0234-.1333-.2676-.2067-.4792-.2819-.6912-.0739-.21-.1486-.4208-.2778-.6818-.1281-.261-.3116-.5703-.6019-.9818-.2879-.4077-.5044-.7114-.6808-.9631-.1779-.2509-.3187-.4506-.4584-.6501-.1389-.1989-.2769-.3958-.4491-.6428-.1747-.2443-.3809-.5369-.6558-.9233-.2712-.3865-.6483-.6716-1.0746-.9084-.4264-.2358-.9001-.4216-1.3738-.6074-.4719-.1858-.9427-.3716-1.3603-.6018-.4119-.2305-.7714-.5054-1.0203-.8713-.2489-.364-.4012-.6353-.5062-.8601-.106-.2247-.1635-.4031-.2202-.5814-.0566-.1774-.1142-.3539-.2173-.574-.1022-.2192-.2499-.4812-.4877-.8268-.2368-.3455-.4078-.6018-.5461-.8135-.1366-.2136-.2405-.3818-.3455-.5509-.1046-.1671-.208-.3353-.3423-.5433-.1332-.2063-.2968-.4551-.5242-.7839-.2249-.3252-.4487-.5685-.6697-.769-.2239-.2026-.4449-.3605-.6664-.5193-.2206-.1588-.4407-.3167-.6581-.5155-.216-.1951-.4329-.431-.6428-.7412-.2117-.3083-.1746-.5397-.0176-.7321.157-.1931.4357-.3455.7124-.4995.2759-.1543.5508-.3057.704-.4943.1524-.1886.1821-.4142-.0288-.7096-.209-.2936-.4448-.5127-.6938-.6948-.246-.1812-.5071-.3232-.7681-.468-.2573-.1421-.5155-.2844-.7589-.4626-.2415-.1785-.4681-.3901-.665-.6725-.1965-.2787-.2754-.4886-.2954-.6614-.0222-.1747.0148-.3121.0511-.4513.0363-.1375.0725-.2751.0511-.446-.0213-.1689-.1003-.3715-.2898-.6409-.188-.2656-.4774-.4644-.8155-.6278-.3362-.1635-.7213-.2936-1.1063-.4227-.3817-.129-.7649-.2572-1.095-.4188-.3297-.1598-.6056-.3529-.7802-.6084-.1746-.2545-.2229-.4449-.2099-.6028.0158-.158.0933-.2843.17-.4105.076-.1255.1513-.2509.1663-.4059.0129-.1552-.0353-.3391-.2049-.5844-.1704-.2424-.3915-.4236-.6376-.574-.2443-.1487-.5173-.2676-.7872-.3855-.2671-.1179-.5364-.235-.776-.3818-.2415-.1467-.4538-.3231-.6149-.5563-.1569-.233-.2526-.4069-.3145-.5508-.0617-.1439-.0933-.2582-.1239-.3734-.0298-.1133-.0613-.2267-.1227-.3696-.0612-.1403-.1522-.3083-.3069-.5322-.1519-.2229-.2504-.3892-.3209-.5266-.0688-.1376-.1147-.2471-.1566-.3567-.0441-.1078-.0869-.2175-.1547-.3512-.0696-.1356-.1644-.2953-.3111-.5089-.1468-.2137-.2006-.3716-.209-.5054-.007-.1318.0306-.2378.0696-.3428.039-.105.0771-.2108.0687-.3408-.007-.1292-.0613-.2843-.2043-.4885-.1412-.2045-.2731-.3567-.3994-.483-.1249-.1263-.2415-.2267-.3604-.327-.1189-.1002-.2359-.1997-.359-.3232-.1208-.1226-.2485-.2729-.385-.47-.1366-.1951-.2494-.3418-.352-.4625-.1003-.1207-.1923-.2174-.2824-.3141-.0925-.0964-.1821-.1921-.2814-.3101-.1003-.1208-.2109-.262-.3428-.4515-.1301-.1876-.2935-.3278-.4774-.4438-.182-.1161-.3827-.2081-.5814-.3002-.1988-.0919-.3995-.1829-.5778-.2961-.1801-.1152-.3409-.251-.4634-.4329-.1226-.1802-.0548-.3159.105-.4282.1597-.1123.4142-.2034.6655-.2944.254-.0901.5057-.1802.6627-.2917.1569-.1115.2192-.2433.0947-.418-.123-.1746-.2438-.3047-.3608-.4124-.1166-.1068-.2318-.1924-.346-.2777-.1143-.0846-.2275-.17-.3437-.276-.1142-.1057-.2313-.2322-.3511-.4003-.1179-.1671-.3575-.2906-.6584-.3947-.301-.1013-.6605-.1831-1.0199-.2638-.3577-.08-.7153-.1598-1.0125-.262-.2944-.1012-.5257-.2211-.6353-.3845-.1078-.1598-.0288-.2814.1431-.3809.168-.1022.4327-.182.6938-.2638.2628-.0818.5238-.1616.692-.262.1653-.0984.2415-.2173.131-.3733-.1105-.1543-.2778-.2712-.4738-.3669-.1949-.0957-.4198-.1719-.6436-.2462-.223-.076-.444-.1512-.6371-.2452-.1896-.0938-.353-.208-.457-.3577-.1031-.1494-.2044-.2627-.3046-.3557-.1003-.0909-.2007-.1653-.301-.2395-.0984-.0725-.1988-.145-.2972-.2378-.1003-.0901-.1997-.1987-.2972-.3438-.0984-.1448-.0521-.2535.0687-.3436.1171-.0909.3102-.1644.5012-.236.1899-.0734.3813-.1458.4983-.2349.1171-.0894.1616-.196.0613-.3354-.0984-.1393-.2518-.2433-.4301-.3306-.1793-.0854-.3854-.1543-.5898-.2211-.2053-.0687-.4087-.1356-.5851-.2211-.1765-.0845-.3251-.1868-.419-.3214-.0938-.1356-.2349-.236-.3998-.3196-.163-.0836-.3515-.1486-.5392-.2136-.1857-.0668-.3734-.132-.535-.2136-.1606-.0817-.2972-.1801-.3854-.3102-.0883-.1311-.014-.2285.1439-.3103.157-.0818.3939-.1486.6297-.2155.2378-.0651.4719-.13.626-.2118.1543-.0808.2267-.1765.1347-.3047-.0882-.1244-.3-.2173-.5712-.2953-.2722-.0763-.6038-.1375-.9382-.1969-.3288-.0613-.6594-.1227-.927-.1987-.2684-.0762-.4736-.1672-.5573-.2898-.0809-.1227-.0966-.2136-.079-.2908.0186-.0753.0687-.1365.1199-.196.0519-.0613.1022-.1217.1198-.197.0195-.0759.004-.1653-.077-.2832-.0818-.1179-.1942-.2062-.3224-.2795-.1273-.0725-.2703-.1311-.4114-.1895-.1411-.0568-.2842-.1152-.4114-.1876-.1245-.0715-.2332-.1581-.3112-.2732-.078-.1151.013-.2015.184-.2731.169-.0724.423-.131.6761-.1895.2526-.0576.5044-.1152.6734-.1868.1682-.0715.2527-.155.1736-.2664-.0779-.1116-.2238-.1943-.3994-.262-.1746-.0688-.385-.1227-.5935-.1765-.2072-.0549-.4152-.1079-.588-.1757-.1746-.0677-.3138-.1495-.3882-.2572-.0743-.1069-.1058-.1868-.1142-.2545-.0102-.067.002-.1189.0121-.1737.012-.053.0241-.106.014-.1729-.008-.0668-.04-.1458-.1124-.2498-.0725-.104-.2109-.1821-.3818-.2471-.1722-.0632-.3743-.1143-.5767-.1654-.2035-.0502-.4041-.1012-.5732-.1635-.168-.0649-.3027-.1411-.3719-.2424-.0674-.1013.0292-.1913.1918-.2722.1625-.0798.3929-.1522.5898-.219.1969-.0688.3641-.1339.405-.198.0372-.064-.0483-.1292-.3586-.1979-.0706-.0148-.1355-.0278-.1987-.0389-.0641-.009-.1245-.0186-.1859-.0242-.0576-.007-.1152-.0112-.1708-.0149-.0566-.004-.1096-.005-.1635-.005-.182.001-.3511.0195-.5182.0474-.1682.0278-.3344.0651-.5137.1022-.1802.0372-.3725.0743-.5917.1022-.2191.0288-.4648.0483-.7495.0493-.3669.002-.6567-.0223-.9111-.0603-.2527-.0364-.4664-.0874-.681-.1377-.2145-.05-.4282-.1011-.6789-.1373-.2508-.0372-.5416-.0614-.9066-.0594-.3641.001-.6227.0259-.8313.0631-.2072.0353-.3632.0836-.5192.13-.156.0483-.314.0967-.522.132-.2118.0371-.4719.0613-.8397.0641-.3665.0009-.6371.009-.862.0195-.2228.009-.4012.0242-.5778.0371-.1783.0112-.3557.0242-.5804.0353-.2249.0112-.4952.0187-.8648.0197-.366.003-.639.008-.8657.0138-.2266.007-.4077.0148-.587.0233-.1801.008-.3622.0176-.5879.0232-.2266.007-.5007.0129-.869.0149-.2559.002-.4658-.008-.6385-.0225-.1727-.0148-.3093-.0333-.4255-.0537-.1152-.0187-.2108-.0391-.2972-.054-.0881-.0149-.169-.0242-.2591-.0242-.0399 0-.0771.003-.1221.008-.041.004-.0851.009-.1352.0203-.0483.008-.1003.0195-.1579.0354-.0586.0129-.1208.0315-.1876.053-.2364.0714-.4272.1216-.5778.1625-.1523.0409-.2638.0706-.3428.1041-.077.0333-.1207.0706-.1365.1244-.0158.0548-.002.1263.0353.2285.0348.1022.0817.1801.13.2433.0474.0651.0994.1171.1523.1672.0521.052.1041.104.1543.1691.0482.0649.0947.1431.1337.2479.0371.106.098.1848.169.2518.0706.0658.1542.1188.235.1718.0826.053.1663.1068.2387.1736.0724.0669.1337.1469.1746.2546.04.1086-.0149.1914-.1198.26-.1013.0688-.2536.1255-.4059.1802-.1528.0568-.3037.1125-.4095.1821-.1031.0706-.1608.1542-.1236.2656.039.1116.2155.1951.4565.2637.2438.0708.5554.1245.8671.1803.313.0548.6251.1096.8722.1803.2457.0706.4272.156.4719.2711.0436.1151.009.2025-.0673.275-.0757.0732-.1909.1318-.3098.1912-.1171.0596-.2322.1189-.3102.1934-.0762.0742-.1143.1633-.0688.2822.0428.1189.105.2083.1756.2825.0734.0752.1523.1356.2327.1951.0818.0594.1639.1199.2365.1969.0723.0743.1356.1671.183.288.0464.1245.0203.2155-.0381.2944-.0617.0789-.156.1411-.2508.2053-.0966.0623-.1932.1244-.2526.2043-.0623.0798-.0864.1746-.0408.2999.0441.1273.039.2239.006.3038-.032.0798-.0915.1448-.149.21-.0594.0649-.1198.1299-.1523.2117-.0334.0818-.0427.1782.005.3103.0474.1318.2146.2294.4431.3102.2303.0817.5202.1469.81.2136.2925.0649.5851.13.8173.2118.2341.0845.4064.1838.4589.3196.052.1375.1058.2378.1597.3231.054.0856.1115.1542.1672.223.0547.0687.1115.1393.1672.2246.0548.0874.1105.1914.1658.3308.0535.1411-.0348.2471-.1959.3362-.1598.0891-.3934.1616-.6265.2351-.235.0715-.4691.1448-.6326.2358-.1634.092-.2563.1997-.2043.3455.0538.1459.0557.2554.0338.3464-.02.093-.0673.1663-.1137.2417-.0464.0732-.093.1484-.1152.2415-.0222.0928-.0185.2062.0321.3574.0543.1497.2271.2629.4639.3567.235.0957.5323.17.8303.2444.2972.0762.5982.1505.8379.2461.2397.0957.4218.2118.4783.3669.0604.158.045.2749-.008.3734-.0519.0985-.1434.1801-.235.26-.0919.08-.182.1598-.2369.261-.0538.1013-.071.222-.0129.3837.0608.1616.1467.2842.2462.3865.1021.1021.2141.1838.3301.2656.1147.0817.2299.1643.3302.2673.1022.1041.1914.2286.2563.3977.0613.1681.1319.2954.2099.4012.0744.1058.1561.1913.2378.2767.0809.0854.1598.1709.2378.2787.0776.1078.1523.2378.2183.4125.0678.1746-.003.3074-.1384.4188-.1375.1115-.3419.2015-.548.2926-.2066.0891-.4133.1802-.5517.2935-.1393.1134-.2123.249-.1467.431.0632.182.1431.3196.2312.4329.0883.1151.184.2081.2787.2992.0966.0928.1942.1857.2814.3018.0901.1161.1724.2573.2405.4458.0678.1885.2462.3315.4775.4487.2332.1189.522.2126.8109.3064.2898.0967.5806.1924.8174.3123.2378.1196.4218.2656.4979.4624.0762.197.0665.3466.013.4719-.052.1245-.1486.2257-.2433.3269-.0966.1013-.1933.2025-.2471.3307-.0557.1263-.0659.2795.0112.485.0771.2061.0734.3611.0288.4902-.0436.1321-.1305.236-.2146.3419-.0864.1049-.1727.2108-.2173.3436-.0465.1338-.052.2916.026.5052.0776.2155.2582.3771.4923.511.235.1337.5239.2423.81.351.2897.1079.5777.2156.8182.353.2387.1375.4282.3027.5137.5248.0854.2239.1096.3911.1039.5332-.006.1421-.045.2554-.0817.3705-.0399.1152-.0762.2286-.0836.3735-.006.1449.0186.3186.1059.5518.0883.234.1672.4104.2434.5581.0762.1477.1467.2666.2183.3865.0725.1198.1436.2396.2211.3892.078.1504.1588.3325.2516.5759.0948.2451.196.4309.3029.5851.1058.1543.2183.2787.3307.4032.11.1254.2247.2499.3335.4067.1086.158.2145.3484.313.6038.098.2555-.0278.4496-.2695.6121-.2423.1646-.6.2964-.9586.4302-.3566.1328-.7188.2656-.9659.4329-.2475.1671-.3818.3678-.2879.6353.0928.2693.169.4719.2341.6409.0659.1719.1216.3085.1783.4449.0557.1384.1123.276.1801.4486.0678.1747.145.3845.2429.665.097.2805.2717.4933.4825.6707.2136.1765.4654.3196.7161.4626.2527.1431.5059.286.7227.468.2169.1821.3994.4014.5071.6967.1092.2972.2954.5201.5201.7059.2257.1877.4904.3381.7561.4885.2666.1506.5345.301.7644.4924.2294.1912.4245.4216.5443.7319.1199.313.1421.548.1161.7468-.0279.1986-.106.3584-.1821.5182-.079.1616-.157.3231-.1839.5238-.0279.2043-.008.4478.1152.7756.1226.3279.1988.575.2508.7821.0519.209.0798.3752.1077.5453.0298.1671.0594.3372.111.5498.0544.2136.1324.47.2624.8154.1273.3456.1245.6075.052.8268-.0706.2211-.208.3976-.3474.5759-.1393.1801-.2796.3585-.352.5851-.0724.2249-.079.4978.0501.8619.132.3679.2285.6447.3093.8768.0799.2323.144.4199.208.6074.0632.1896.1292.3772.2099.615.0831.2378.184.5256.3196.9121.1393.3865.262.679.3762.9233.1142.2469.2196.443.3278.6418.1096.1996.2165.3984.3344.6501.117.2517.2452.5564.3915.9669.1473.4105.4147.7216.7417.9799.3284.261.718.4691 1.11.679.391.21.7849.4199 1.1221.6855.339.2676.6194.5898.7849 1.0237.1649.4365.0408.7661-.2266 1.0439-.2713.2786-.6884.5052-1.1053.731-.4208.2275-.8438.4561-1.1198.7422-.2786.286-.4129.6316-.2531 1.0942.1598.4634.294.8135.418 1.1071.1226.2954.2327.5314.3417.7692.1124.2396.223.4792.3492.782.1263.3027.2676.6697.4385 1.1611.1713.4951.4756.8674.8444 1.1796.3715.3121.8089.5638 1.2492.8156.4412.2545.8862.509 1.2661.8295.3836.3224.705.7133.8981 1.239.1965.5304.1802.9725.092 1.3627-.09.392-.2531.731-.3465 1.0514-.0965.3214-.1216.6243.067.9457.1895.3232.5963.665 1.3654 1.0625.1914.1003.3734.1838.5461.2527.1729.0706.334.1272.4901.1709.1547.0427.3014.0734.4426.0928.1403.0195.2758.0298.4031.028.3809-.002.7153-.0854 1.0441-.2098.3288-.1265.652-.2917 1.0077-.457.3544-.1654.7441-.3297 1.2047-.4534.4608-.1245.994-.208 1.6442-.2108.8712-.005 1.5037-.0585 2.0155-.1373.5118-.0791.9011-.1813 1.2911-.2834.3874-.1012.7761-.2043 1.2837-.2805.5034-.0779 1.1295-.1318 1.9919-.1355.868-.004 1.6046.1709 2.2789.4347.6761.2675 1.2911.6278 1.9097.9882.6223.3623 1.2465.7274 1.9376 1.0013.6948.2759 1.4526.4589 2.3351.4532.8842-.004 1.4509-.183 1.8604-.4458.4077-.2638.6563-.6111.9037-.9568.2452-.3435.4896-.6854.888-.9417.3985-.2566.9511-.4275 1.8159-.4312.8648-.005 1.5967.1338 2.2654.3438.6707.2117 1.2795.4968 1.8911.782.614.2881 1.2316.5759 1.9134.7924.686.2164 1.4393.3604 2.3184.3558.3159-.002.6131 0 .8936.004.2786.004.5405.0103.7886.0159.2462.006.4774.012.6938.0157.2191.005.4225.007.6149.007.3418-.002.6461-.0168.9256-.052.2791-.0336.5308-.0901.7695-.1794.2368-.0881.4593-.2089.6761-.3723.2165-.1616.4282-.366.6447-.6205.3436-.405.3575-.717.1486-.9921-.2082-.2769-.6355-.5157-1.1733-.7729zm-116.8454-44.5918c-.2286-.1431-.5591-.2556-.8871-.3699-.3259-.1113-.6547-.2228-.8782-.364-.2225-.1394-.3414-.3083-.2587-.5331.0808-.224.1486-.392.2089-.5295.0586-.1383.1107-.2479.1608-.3585.052-.1086.1012-.2173.1606-.3539.0576-.1346.1222-.2963.202-.5118.079-.2136.2875-.3743.5587-.5089.2713-.1338.6047-.2396.9391-.3466.3326-.1067.6632-.2136.9308-.3445.2647-.132.4639-.288.535-.4941.0706-.2063.0186-.3586-.0919-.4849-.1105-.1254-.2824-.2258-.4509-.3262-.1696-.0994-.3396-.1987-.4473-.3231-.11-.1235-.1579-.2721-.0854-.4708.0706-.197.2081-.3438.3752-.4664.1672-.1226.366-.2211.5648-.3195.1988-.0967.3957-.1931.561-.3149.1635-.1198.2955-.2637.3604-.4541.0668-.1895.052-.3298 0-.4478-.0501-.1152-.1416-.2081-.2312-.301-.0902-.0909-.1793-.1838-.2294-.2991-.0502-.1143-.0623-.2517.001-.4337.0655-.181.1073-.3176.1379-.4291.0298-.1125.0483-.2017.067-.2908.0186-.0891.0371-.1765.0687-.2898.0289-.1096.0706-.2415.132-.418.0632-.1746.0483-.3057-.004-.4124-.0539-.1086-.1458-.1932-.2378-.2788-.091-.0853-.182-.1708-.2331-.2767-.0511-.1058-.066-.234-.003-.4031.0632-.1672.1393-.2936.2239-.3993.0827-.1023.1746-.1868.2666-.2695.0892-.0835.1811-.1653.262-.2693.0835-.1022.1579-.2257.2191-.3882.0577-.1617.1334-.2825.2202-.3828.0845-.1002.1792-.1812.2731-.262.0957-.0798.1885-.1597.2736-.2581.084-.0994.1579-.2175.2159-.3754.0548-.156.0335-.2721-.0297-.3678-.0622-.0967-.1616-.1727-.2601-.2489-.1022-.0771-.2006-.1525-.2618-.248-.0609-.0939-.0828-.208-.0261-.3595.0557-.1504.1189-.2637.1857-.3584.0651-.093.1334-.1672.2035-.2415.0696-.0745.1365-.1477.2025-.2407.0641-.0901.1249-.2015.1793-.3464.0538-.1449.208-.2545.4133-.3464.2015-.0901.4579-.1643.7124-.2368.2518-.0725.5044-.1467.7051-.2361.2025-.0891.351-.1968.3994-.3379.0492-.1394.1003-.2444.1533-.3325.0539-.0865.1115-.1561.1663-.2258.0547-.0677.1124-.1384.1644-.2239.0538-.0863.1039-.1895.1505-.3251.0446-.1356-.0204-.2378-.1445-.3214-.1212-.0817-.2995-.1486-.4765-.2136-.1779-.0669-.3548-.1318-.4756-.2136-.1189-.0817-.1843-.1802-.1351-.312.0455-.1301.1151-.2285.195-.3103.0781-.0817.1672-.1467.2564-.2118.0891-.0659.1783-.13.2563-.2118.078-.0798.1448-.1765.1904-.3037.0427-.1263.0009-.2201-.0869-.2981-.086-.0781-.2169-.1394-.347-.2015-.1318-.0614-.2591-.1227-.3455-.1998-.0864-.0779-.1282-.1709-.0818-.2935.0464-.1226.059-.2156.0567-.2898-.001-.077-.0186-.1375-.0363-.1969-.0167-.0614-.0363-.1207-.0372-.196-.002-.0752.0121-.1643.0567-.2832.0455-.1189.1746-.2081.3474-.2843.1728-.0742.3869-.1338.6019-.1941.2136-.0586.4263-.1189.5972-.1923.169-.0743.2949-.1616.3376-.2767.039-.1162.0654-.2026.084-.275.0196-.0697.0312-.1281.0436-.1838.0121-.0558.0242-.1134.0437-.184.0167-.0706.0428-.1542.0828-.2666.0398-.1116.0659-.1951.0844-.2646.0163-.0688.0316-.1245.0427-.1802.0112-.0549.0233-.1096.0428-.1783.0186-.0687.0446-.1505.0817-.2601.039-.1068.0488-.1875.0436-.2554-.005-.066-.0232-.1199-.0436-.1738-.0186-.052-.0372-.105-.0409-.1718-.006-.066.004-.1459.0428-.2509.0371-.1049.002-.183-.0688-.2479-.0724-.0651-.1802-.1151-.287-.1672-.1068-.0502-.2126-.1022-.2832-.1653-.0706-.0651-.1041-.1412-.066-.2452.04-.1003.1644-.1746.3177-.2312.1523-.0568.3288-.0977.4742-.1348.1434-.0371.2531-.0687.2679-.1096.0121-.0417-.0678-.0911-.3047-.1606-.0859-.026-.1639-.0474-.2341-.0642-.0696-.0186-.1337-.0315-.1923-.0417-.0594-.0103-.1123-.0176-.1625-.0222-.0506-.005-.0984-.005-.1467-.005-.0799 0-.158.005-.2434.0149-.0873.009-.182.0204-.2963.0315-.1166.0131-.248.025-.4097.0334-.1625.009-.353.0167-.5823.0176-.3669.002-.6475.0159-.8834.0354-.2377.0195-.4329.0455-.626.0696-.1951.0261-.3906.0513-.6297.0707-.2378.0194-.5202.0323-.8899.0343-.3659.003-.626-.0325-.8276-.0883-.2025-.0538-.3511-.1263-.4983-.1989-.1463-.0723-.2921-.1448-.4919-.1986-.2006-.053-.4561-.0892-.8201-.0873-.3641.003-.6483.0297-.8973.0669-.2475.0389-.4551.0891-.665.1393-.21.0502-.4199.1002-.6688.1393-.2489.0391-.5369.0649-.9047.0669-.3659.002-.639 0-.8656-.004-.2267-.004-.405-.009-.5834-.0148-.1802-.006-.3622-.0112-.588-.0149-.2275-.004-.5007-.007-.8685-.005-.2578.002-.4737-.007-.6614-.0212-.1895-.015-.3478-.0336-.4932-.053-.1449-.0205-.2769-.04-.404-.0549-.1282-.0139-.2545-.0232-.3921-.0222-.0576 0-.1189.002-.1801.007-.0632.004-.1301.0103-.2006.0187-.0688.009-.1445.0214-.2234.0363-.0799.0149-.1649.0325-.2541.0529-.3093.0734-.4366.1338-.4579.1876-.0186.0558.0677.106.1848.1606.117.0549.2657.1124.3674.1812.1036.0706.1578.1523.0915.2545-.0687.1041-.1579.1812-.2563.2471-.0984.0651-.2081.1171-.3158.1691-.1096.054-.2183.106-.3177.1709-.1013.0659-.1913.145-.2619.2507-.0706.106-.184.1858-.3149.2527-.1295.0688-.2814.1226-.4337.1765-.1505.0538-.3029.1096-.4356.1765-.1334.0687-.2471.1504-.3214.2582-.0762.1095-.0697.1913-.0223.26.0465.067.1347.1227.222.1766.0892.0557.1766.1095.2249.1782.0482.0688.0548.1523-.0204.2646-.0762.1125-.2015.198-.353.2686-.1495.0725-.326.1301-.5025.1876-.1755.0576-.3525.1151-.5043.1876-.1542.0734-.2829.1597-.3618.2749-.0807.1152-.0952.2025-.0771.2759.019.0724.0701.131.1231.1885.0519.0596.1031.1172.1226.1914.0185.0734.005.1616-.0762.2825-.0818.1189-.1746.21-.2731.2852-.0985.0752-.2043.1365-.3102.1978-.1049.0613-.2099.1217-.3121.1987-.1003.0762-.196.1692-.2805.2917-.0846.1245-.131.2163-.1608.2953-.0269.078-.038.1393-.0464.2025-.0103.0631-.0214.1262-.0483.2043-.0297.078-.0771.1737-.1649.301-.0868.1282-.1314.2229-.1537.3046-.0204.08-.0223.1449-.0223.209 0 .0651-.002.1292-.0247.2098-.0218.0819-.0663.1803-.1569.3113-.0878.1318-.1472.2322-.1862.3158-.0419.0817-.0659.1505-.0901.2155-.0261.0669-.0502.1348-.092.2192-.0409.0835-.1003.1858-.1913.3223-.0911.1367-.1937.2388-.2991.3262-.106.0853-.2155.1559-.3293.2246-.1101.0706-.2225.1404-.3293.2277-.1082.0883-.2128.1923-.3083.3335-.0956.1411-.2128.2489-.34.337-.1281.0892-.2647.1608-.4021.2333-.1413.0724-.2787.1449-.4088.235-.1282.0901-.2489.1997-.3492.3464-.1021.1467-.0409.2545.1022.3464.1431.0919.366.1643.5927.2368.2266.0725.4532.1467.5981.2388.1449.0919.2095.2053.1115.3557-.1008.1523-.1635.2656-.2062.3613-.0428.0957-.066.1737-.0901.249-.025.0769-.0474.1541-.0901.2516-.0427.0966-.1058.2136-.208.3698-.1041.1578-.3167.2767-.5852.3771-.2679.1002-.5926.182-.9159.2638-.3251.0818-.6502.1635-.9233.2638-.273.1022-.4922.2247-.6055.3864-.1115.1636-.0845.2861.0167.3882.098.1023.2693.1831.4384.2657.171.0818.3419.1635.4422.2666.1022.1049.1337.2294.0204.3984-.1097.1691-.2211.2972-.3288.4041-.1097.1068-.2155.1941-.3243.2797-.1049.0863-.2136.1726-.3232.2823-.1105.1077-.2242.2396-.3404.4152-.1179.1755-.1509.3074-.1379.4189.0112.1113.0669.1997.1226.2878.0552.0892.1105.1783.1226.2908.0116.1124-.0204.2489-.1393.4309-.1199.1831-.2866.3206-.4756.4375-.1904.1162-.4055.21-.6186.3047-.2156.093-.4292.1877-.6224.3057-.1956.1179-.3668.26-.4932.4504-.1273.1895-.183.3325-.1997.4514-.0186.1199.001.2156.0204.3121.0186.0966.0371.1932.0204.3158-.0195.1206-.0744.2675-.2062.4663-.1306.1969-.2991.3474-.4835.4736-.1854.1263-.3897.2267-.5931.3289-.2053.1021-.4095.2043-.5986.3325-.1899.1282-.3627.2823-.502.4867-.1393.2081-.3325.3641-.5499.495-.2192.1311-.4672.2368-.7124.3438-.2471.106-.496.2126-.7199.3464-.222.1338-.4216.2935-.5693.509-.1514.2155-.1199.3779.002.5137.125.1346.3414.2424.5574.3521.2178.1077.4347.2164.5615.3538.1282.1375.1635.3037.0139.5286-.1495.2249-.3641.3938-.614.5369-.2489.1431-.5294.2563-.8118.3734-.2833.1161-.5684.2322-.8229.3771-.2535.1469-.4775.3223-.6371.5574-.1635.235-.1301.4114 0 .5591.1286.1477.3575.2656.5842.3845.2294.118.4598.2369.5927.3865.131.1504.1681.3325.006.5778-.1616.2469-.3855.4327-.6409.5889-.2568.1569-.5443.2842-.8332.4105-.2889.1265-.5806.2545-.8424.4133-.2601.1598-.4942.3521-.6669.6084-.1732.2573-.2378.4514-.2513.613-.01.1626.0358.2916.0781.4236.0427.13.0886.262.0785.4272-.0121.1654-.0785.3669-.2582.6353-.1783.2712-.3623.4756-.548.6465-.1839.171-.3752.3085-.561.4487-.1904.1384-.379.2777-.5685.4523-.1913.1757-.3808.3864-.5703.6688-.1914.2822-.4478.4968-.7417.6771-.2949.1793-.6228.3251-.9525.4708-.3307.1469-.6622.2936-.9614.4775-.3027.1838-.5721.4059-.7756.7031-.2081.2981-.2136.5229-.1161.7106.0947.1876.2935.3381.4933.4886.1978.1512.3984.3027.4978.4941.0976.1921.0966.4235-.1115.7356-.2099.314-.5388.5536-.9316.7522-.3933.2007-.8461.3623-1.2994.5249-.4569.1626-.9154.326-1.3134.5303-.4031.2053-.7501.4514-.9772.7803-.2285.3298-.2043.5778-.0506.7839.1561.2081.4388.3734.7222.5406.2852.1671.5731.3363.7292.547.1616.2136.1912.4709-.039.8175-.2323.3492-.4942.6121-.7747.8322-.28.222-.5777.4004-.8773.5787-.2976.1802-.5977.3605-.8856.587-.2888.2266-.5629.5006-.8109.8676-.2498.3695-.4417.6483-.6028.8805-.1617.234-.2917.4236-.4236.6121-.1328.1885-.2665.3789-.431.6177-.1653.2406-.3641.5295-.6279.9177-.2619.3901-.431.6819-.5536.9288-.1226.2462-.1968.4459-.2731.6447-.0762.1997-.1523.4004-.2767.6531-.1263.2534-.3032.5601-.5797.9705-.2791.4143-.4839.7273-.6502.9884-.169.2648-.3009.4756-.429.6874-.132.2136-.2657.4272-.4366.6947-.1709.2694-.3836.5945-.678 1.0311-.2955.4402-.4282.769-.4803 1.0458-.053.2767-.0255.5016.003.7245.0297.2247.0594.4514.006.7356-.0548.2861-.1932.6316-.4988 1.0961-.3075.4662-.5582.8173-.7775 1.1127-.2238.2974-.4171.5352-.6112.7747-.1951.2417-.3901.4832-.6186.7878-.2285.3046-.4904.6724-.8173 1.1685-.3307.4968-.6502.8721-.9642 1.1888-.3158.3158-.6279.5712-.9391.8275-.3154.2573-.6307.5176-.9557.8407-.3251.3269-.6623.7208-1.0162 1.2494-.3585.533-.9882 1.0355-1.7146 1.5148-.7319.483-1.5604.941-2.3026 1.3831-.7486.4449-1.409.8722-1.7991 1.2883-.392.4198-.5128.8285-.1663 1.2355.0845.1001.1811.1838.2908.2544.1058.0706.2257.1272.3557.1729.1273.0427.2666.0724.4147.0928.1482.0205.3033.0278.4686.0278.4923-.004 1.0533-.0911 1.6608-.2229.6071-.1301 1.2577-.3037 1.9265-.4764.6669-.1719 1.3524-.3446 2.036-.4746.6827-.1292 1.3613-.2174 2.0175-.2211.8768-.004 1.599-.1133 2.2441-.2712.6428-.1598 1.2037-.3696 1.7639-.5796.5563-.208 1.1127-.4161 1.7452-.5731.6317-.1552 1.3386-.2618 2.2014-.2666.8676-.005 1.4193.1691 1.813.4329.3953.2657.6354.6232.8741.9818.2424.3613.4848.7253.8851.9966.4069.2732.9698.4552 1.8531.4514.8833-.006 1.5948-.1077 2.2208-.26.6242-.1515 1.1639-.3511 1.6998-.5499.5331-.1987 1.0659-.3976 1.684-.546.6167-.1497 1.3162-.251 2.1892-.2546.8732-.006 1.4788.1012 1.9483.2638.4741.1635.8141.3827 1.1569.6038.3427.2192.6845.4413 1.1647.6075.4811.1663 1.096.2749 1.9813.2703.0924-.001.1867-.001.2767-.001.0911 0 .1812 0 .2676-.002.0891 0 .1746 0 .2601-.0007.0854-.001.169-.001.2508-.001.6947-.004 1.2971-.0112 1.8516-.0447.5564-.0333 1.0687-.0911 1.5795-.1931.509-.104 1.018-.2509 1.5679-.4645.5499-.2126 1.1415-.4886 1.8196-.849.7663-.4087 1.253-.7551 1.5502-1.082.2986-.3242.4097-.6307.4235-.9595.0148-.3279-.0641-.6782-.1486-1.0913-.0855-.4097-.1765-.8816-.1859-1.4556-.007-.5128-.0167-.8955-.009-1.2148.003-.3177.0204-.5723.0608-.8286.045-.2545.1082-.5109.2086-.8286.1003-.3167.235-.6938.4142-1.1926.1783-.4941.4412-.8619.7441-1.1675.3018-.3047.6436-.5471.9854-.7905.34-.2415.679-.4811.9753-.7802.2916-.2972.5405-.6521.7003-1.1202.1598-.4635.1282-.8081-.001-1.0933-.1281-.2832-.3492-.5081-.5703-.7328-.222-.223-.4393-.4458-.5642-.7245-.124-.2759-.1519-.6056.007-1.0441.1606-.4357.3325-.7598.5085-1.0302.176-.2683.3594-.4819.541-.6956.1811-.2119.3632-.4236.5341-.6855.1729-.262.3362-.574.4839-.9873.1463-.4097.3986-.7161.6995-.9727.301-.2526.6539-.4541 1.0069-.6575.3491-.2007.6979-.4004.9938-.6484.2916-.2471.5313-.5424.6613-.9325.1319-.3864-.004-.6744-.274-.9113-.2666-.2358-.666-.4235-1.0635-.6101-.3957-.1858-.7894-.3716-1.0505-.6039-.261-.2284-.3873-.5052-.2489-.8749.1342-.366.4301-.6392.8035-.8657.3733-.2285.8247-.4097 1.2743-.5907.4478-.1803.8936-.3585 1.2585-.5815.3633-.222.6437-.4867.7621-.8341.1194-.3464.0358-.6018-.1462-.8154-.1783-.2128-.4589-.3809-.7385-.5481-.2768-.1663-.5554-.3325-.731-.5405-.1746-.208-.2526-.457-.13-.7858.0538-.1487.1328-.275.2228-.3939.0242-.0334.052-.0649.0799-.0966.0752-.0873.1598-.1691.2499-.2433.0176-.0131.0288-.0316.0474-.0447.009-.007.0204-.0129.0306-.0205.1161-.0881.2407-.168.3707-.2432.1542-.093.314-.1785.4765-.2629.0408-.0215.0808-.0455.1217-.0669.1445-.0762.2842-.155.4198-.2368.0567-.0354.1096-.0743.1653-.1096.0529-.0371.1124-.0706.1625-.1086.0566-.0447.0994-.0994.1519-.1497.0516-.0481.1064-.0938.1519-.1467.0213-.025.04-.052.0594-.078.0836-.1133.1579-.234.207-.3751.1088-.3103.2267-.5408.3484-.7339.1244-.1924.2535-.3455.3803-.4978.1286-.1523.2549-.3029.3757-.4923.1207-.1876.2359-.4135.3372-.7115.1031-.2954.2001-.5164.2991-.6995.0975-.1829.1941-.3279.2907-.4736.0948-.1439.1914-.2898.2856-.469.0962-.1785.1937-.3921.2884-.6763.0947-.2815.1737-.4924.2452-.6669.0688-.1729.131-.3121.1932-.4496.0628-.1375.1226-.275.1914-.4468.0697-.1699.1458-.3734.236-.6438.0919-.2683.13-.468.1429-.6333.015-.1654.002-.2974-.008-.4292-.0121-.1318-.0242-.262-.0103-.4236.0131-.1636.0521-.3567.1403-.614.0878-.2563.1569-.4467.2173-.6064.0604-.158.1124-.2832.1643-.4087.0521-.1263.1041-.2507.1626-.4069.0604-.1542.1273-.34.2109-.5851.084-.2454.1746-.4274.2675-.5786.0923-.1515.1904-.2722.2879-.3931.0947-.1207.1914-.2396.2819-.3882.0933-.1487.1806-.3251.2587-.5601.0779-.2338-.0485-.4085-.2769-.5514zm51.9426 44.0456c-.3975-.5408-.862-1.1406-1.3394-1.8243-.3511-.4978-.7412-.8583-1.1351-1.1517-.392-.2935-.7886-.5193-1.1536-.7487-.3604-.2277-.6892-.4569-.9465-.756-.2554-.2974-.4412-.6624-.5156-1.1583-.0762-.4933-.0873-.8601-.071-1.1648.0172-.3038.0646-.5433.111-.7848.0469-.2397.0938-.4794.1087-.7766.0172-.2954.004-.6484-.0707-1.1165-.071-.4617-.2182-.8062-.3994-1.0903-.1802-.2825-.3975-.5072-.613-.7321-.2145-.2238-.4291-.4458-.6075-.7235-.1746-.2769-.3121-.6066-.3771-1.0432-.0622-.4346.008-.7588.1436-1.0291.1334-.2676.3339-.4812.5308-.6948.1988-.2118.3957-.4236.5258-.6855.1313-.2618.1949-.574.13-.9846-.0669-.4094-.1766-.7141-.3066-.9678-.131-.2507-.2832-.4495-.4356-.6493-.1495-.1979-.301-.3947-.4282-.6417-.1282-.2454-.2303-.5388-.2907-.927-.0585-.3865-.007-.6743.0966-.9141.1041-.2378.2629-.4272.4198-.6167.1579-.1895.3126-.3771.4152-.613.1022-.2303.1486-.509.0864-.8767-.0604-.3643.01-.6373.1439-.8621.1319-.2257.3298-.406.5266-.5852.1979-.1782.3911-.3585.5221-.5786.13-.2212.1942-.4839.13-.8313-.0622-.3447-.2925-.6001-.6038-.8137-.3116-.21-.7031-.3771-1.0933-.5443-.3901-.1671-.7784-.3325-1.0835-.5405-.3005-.2053-.5178-.4532-.5698-.7821-.0501-.327.0372-.5723.1886-.7756.1523-.2024.3715-.365.5916-.5266.2173-.1606.4338-.3196.5838-.5201.1472-.1979.228-.4347.1732-.7468-.0287-.1644-.1059-.3055-.215-.4319-.0804-.0929-.1797-.1757-.2913-.2535-.0139-.009-.0246-.0186-.038-.026-.008-.007-.014-.0131-.0237-.0177-.0377-.0232-.085-.0437-.124-.0659-.1078-.0613-.2173-.1226-.3372-.1774-.0659-.0308-.1332-.0586-.2006-.0865-.1273-.0537-.2536-.1077-.3837-.1597-.0129-.006-.0245-.0112-.0371-.0166-.1235-.0483-.2434-.0985-.3613-.1506-.0734-.0305-.1458-.063-.2173-.0975-.0957-.0446-.1849-.0938-.2712-.1429-.0474-.027-.104-.0483-.1476-.0771-.0298-.0186-.052-.0391-.0781-.0575-.0158-.0112-.0316-.0223-.0464-.0336-.1003-.0771-.1895-.1616-.2563-.2526-.009-.0131-.0167-.027-.0251-.0409-.0641-.0974-.1143-.2025-.1324-.3223-.0432-.2944.0367-.5156.177-.6995.1384-.183.3372-.3289.5355-.4746.1983-.1459.3962-.2908.5317-.47.1357-.1793.21-.3931.1635-.6753-.0464-.2823-.1486-.4905-.2787-.6642-.13-.1718-.286-.3102-.444-.4467-.1579-.1375-.3148-.2732-.4402-.4431-.1282-.1699-.2267-.3716-.2676-.6418-.0409-.2676-.0241-.4672.0214-.6334.0464-.1654.1212-.2972.1942-.4291.0743-.1321.1486-.262.1912-.4255.0446-.1626.0604-.3567.0187-.613-.0409-.2544.0371-.4458.1746-.6055.136-.158.3334-.2852.5294-.4106.1932-.1263.3864-.2527.5239-.4087.1328-.156.2072-.3409.1616-.5852-.0204-.1115-.0725-.2043-.1365-.2935-.0121-.0149-.0233-.0334-.0362-.0493-.071-.0808-.1552-.1532-.2536-.2201-.007-.004-.0103-.008-.0162-.0131-.0126-.009-.0311-.0148-.0441-.0242-.223-.1365-.4923-.2498-.7654-.3604-.2916-.1189-.5782-.2358-.8044-.3845-.2248-.1458-.3846-.3214-.4218-.5554-.0361-.234.0855-.4087.2814-.5554.1979-.144.4728-.2601.7459-.3752.2731-.1171.5443-.2322.7375-.3752.1932-.1411.3079-.312.2666-.5369-.0419-.2212-.2336-.3875-.5016-.5239-.2665-.1375-.6083-.2451-.9482-.3529-.34-.1068-.6781-.2136-.9419-.3475-.2606-.1337-.4431-.2943-.4774-.5088-.0316-.2128.0131-.3726.097-.5054.084-.1328.2067-.2378.3293-.3438.1217-.1058.2443-.2117.3251-.3427.0809-.1292.1245-.2852.092-.4913-.0353-.2043-.0594-.3567-.078-.4849-.0186-.1263-.0353-.2267-.0483-.3279-.0149-.0994-.0298-.2007-.0483-.3252-.0186-.1235-.0436-.2739-.0762-.4708-.0334-.1951-.078-.3419-.1281-.4645-.0521-.1217-.1088-.2183-.1654-.314-.0576-.0967-.1152-.1923-.1653-.312-.0491-.1189-.0947-.262-.1263-.4514-.0293-.1886-.0567-.3298-.0809-.4459-.0242-.1169-.0474-.2098-.0687-.3029-.0251-.0928-.0474-.1858-.0715-.2999-.0242-.1152-.0502-.2517-.0781-.4347-.0279-.1812-.1086-.3149-.208-.4264-.1022-.1115-.2285-.1996-.3553-.288-.124-.0891-.2503-.1764-.3506-.2878-.1003-.1096-.1746-.2407-.2011-.4161-.0246-.1747-.0357-.3046-.0357-.4125 0-.1077.007-.1951.0157-.2804.007-.0856.0139-.1719.0139-.2777 0-.1069-.008-.2332-.0349-.4023-.0255-.1689-.003-.2935.0409-.3984.045-.103.1138-.1866.1826-.2703.0687-.0817.1365-.1653.1811-.2683.0436-.1023.0641-.2249.038-.3875-.0259-.1616.0557-.2823.1877-.3827.1319-.1003.3158-.181.5016-.2618.182-.08.3678-.1616.4968-.2601.1292-.1003.2053-.2174.1774-.3754-.0279-.155-.1115-.2711-.2248-.3677-.1096-.0957-.2489-.1719-.3864-.2471-.1393-.0762-.2769-.1523-.3855-.2471-.1087-.0938-.1904-.2081-.2169-.3586-.0256-.1504-.1277-.2627-.269-.3547-.1421-.093-.3195-.1653-.4996-.2397-.1788-.0723-.3566-.1448-.4965-.2358-.1379-.0911-.2388-.1997-.2596-.3446-.0209-.1459.106-.2555.3065-.3456.2025-.0901.4774-.1643.7505-.2378.2726-.0724.5461-.1458.7449-.235.1969-.0891.319-.1969.2935-.338-.0261-.1394-.1208-.2434-.2513-.3307-.1277-.0854-.2913-.1542-.4538-.223-.1625-.0669-.3251-.1355-.4504-.22-.1286-.0856-.2201-.1877-.2438-.3234-.0219-.1346.0487-.2368.1579-.3221.1128-.0837.2698-.1525.4258-.2192.1579-.0679.313-.1338.4235-.2174.1088-.0836.1747-.182.1505-.314-.024-.131-.1096-.2275-.2248-.3083-.1179-.0809-.2637-.1449-.4105-.209-.145-.0641-.2899-.1273-.4045-.2072-.1138-.0798-.1965-.1746-.2169-.301-.0237-.1262 0-.2219.0464-.2999.0455-.078.1105-.1403.1774-.2035.0678-.0631.1337-.1262.1783-.2043.0455-.078.0678-.1709.0455-.2935-.0233-.1227-.066-.2136-.1198-.2898-.054-.0762-.1171-.1356-.183-.1951-.0641-.0594-.1277-.1208-.1811-.1951-.052-.0752-.0956-.1636-.1161-.2825-.0186-.1189-.0493-.208-.0864-.2822-.0363-.0725-.078-.131-.1189-.1895-.0419-.0596-.0836-.1171-.1199-.1896-.0343-.0724-.0659-.1597-.0845-.2748-.0186-.1152-.0316-.2007-.04-.2732-.008-.0697-.0125-.1263-.0195-.1838-.003-.0558-.008-.1125-.0167-.1831-.008-.0696-.0204-.155-.0399-.2666-.0195-.1105.0353-.1949.1235-.2637.0872-.0706.2117-.1263.3339-.1821.1249-.0557.2476-.1115.3349-.1802.0873-.0686.1374-.1505.1188-.259-.0204-.1088-.1802-.1877-.4069-.2537-.2257-.0651-.5225-.1171-.8155-.1692-.2953-.052-.5889-.1039-.8118-.1689-.2247-.0651-.3771-.1431-.3929-.2489-.0158-.1041.1087-.182.3019-.2499.1951-.0659.457-.1179.7203-.1719.2606-.0538.5216-.1058.7129-.1709.1904-.0669.3121-.1439.2927-.2471-.0186-.1012-.0354-.1838-.0724-.2544-.0335-.0698-.0836-.1283-.1653-.1841-.0818-.0557-.196-.1057-.3586-.1606-.1625-.0538-.3715-.1123-.645-.1819-.0553-.0142-.1092-.0261-.1616-.0364-.0507-.009-.0999-.0166-.1491-.0242-.0487-.006-.0957-.0101-.1402-.0129-.0446-.004-.0902-.004-.1329-.004-.1644 0-.3149.0222-.4672.0557-.1505.0306-.3019.0735-.47.1162-.1691.0436-.3521.0863-.5666.1198-.2155.0325-.4617.0538-.7542.0558-.3683.003-.6488-.0316-.8838-.0818-.2346-.0502-.4241-.1189-.6144-.1876-.1887-.067-.3757-.1346-.6085-.1859-.2303-.05-.5071-.0815-.8693-.0807-.3633.003-.6363.0326-.8611.077-.2257.0447-.4059.104-.588.1626-.1821.0586-.3622.1189-.5926.1644-.2285.0446-.5034.0753-.8712.077-.3678.003-.6428-.0139-.8713-.0408-.2294-.0251-.4116-.0613-.5927-.0977-.183-.0352-.3651-.0686-.5925-.0964-.2276-.0251-.4998-.041-.8652-.041-.3646.004-.6376-.005-.8653-.0186-.2265-.0129-.4058-.0315-.5879-.0492-.182-.0195-.3622-.0363-.588-.0492-.2257-.0139-.4998-.0223-.8619-.0205h-.0771c-.0241 0-.0501.002-.0743.002h-.1413c-.3065.002-.561.004-.7894.0103-.2267.006-.4255.0157-.6158.0343-.1927.0177-.3752.0436-.574.0817-.196.0391-.4097.0874-.6586.1542-.2731.0725-.3878.1339-.4041.1904-.0177.0568.0604.1088.171.1644.1105.0566.2535.1162.366.1877.1119.0706.1923.1541.1783.2563-.0159.1021-.003.1792.0223.2432.0259.0652.0659.1162.1058.1672.0419.052.0809.104.1068.1709.0279.0632.04.1431.0261.2471-.015.106-.1171.1868-.2639.2546-.1495.0669-.3404.1226-.5331.1764-.1914.0538-.3836.1078-.5332.1766-.1495.0686-.2554.1504-.274.2581-.0176.1086-.005.1896.0242.2583.0298.0686.0744.1226.1218.1782.0445.0548.0891.1096.1189.1785.0297.0706.0427.1523.0259.2656-.0167.1113-.0204.196-.0158.2656.005.0715.0177.1282.0316.1848.013.0566.0251.1143.0306.1848.006.0715.002.158-.0149.2732-.0185.1151.0325.2024.1171.2749.0831.0706.202.13.3227.1885.1194.0576.2378.1152.3256.1885.0846.0745.1375.1617.1207.2806-.0176.1207-.038.2098-.0603.2852-.0232.0743-.0474.1356-.0715.1959-.0261.0604-.052.1218-.0748.1987-.0209.0762-.0428.1672-.0609.2898-.019.1245-.019.2174-.0111.2946.007.077.0241.1393.0399.2015.0158.0632.0302.1254.04.2043.006.0781.006.1736-.0108.3-.0181.1272-.1036.2239-.2215.3037-.1207.0817-.274.1467-.4272.2117-.1532.066-.3083.132-.4272.2137-.1226.0817-.2099.1802-.2303.3121-.0204.1318-.0446.2302-.0725.314-.0259.0825-.0557.1484-.0836.2153-.0287.0679-.0566.1357-.084.2192-.0256.0837-.0515.1858-.0748.3214-.0213.1356-.0121.2388.0121.3241.0237.0864.0627.1553.1022.224.04.0687.078.1373.1022.2238.0242.0883.0353.1924.0121.3335-.0214.1394-.1329.2461-.2926.3362-.1588.0892-.3642.1616-.5707.2332-.2049.0735-.4129.1458-.5737.2368-.1625.0911-.2786.1987-.3046.3447-.025.1467.003.2563.0613.3483.0566.0911.1407.1654.2267.2378.0817.0743.169.1486.2266.2416.0576.0928.0873.2042.0631.3567-.0259.1504-.0598.2637-.1039.3594-.0409.0957-.0892.1727-.1356.2498-.0493.0781-.0971.1543-.1412.251-.0428.0974-.079.2145-.106.3705-.0259.1571.0836.274.2639.3715.1821.0986.431.1775.6813.2556.2522.0779.503.1569.686.2562.1834.0985.2991.2192.2768.3809-.0223.1635-.0525.286-.0845.3883-.0325.104-.0715.1857-.1068.2683-.039.0836-.0743.1664-.1096.2703-.0334.1041-.0631.2305-.0873.3994-.0242.1692-.0483.2954-.0762.4023-.026.1067-.0538.1921-.0799.2776-.0279.0874-.0558.1729-.0817.2815-.0279.1086-.052.2388-.0771.4133-.0245.1755-.1606.3083-.3511.4208-.1904.1115-.4356.2025-.6827.2926-.2471.0911-.4946.1812-.6873.2944-.1951.1143-.3344.2498-.366.4319-.0306.183-.079.3214-.1337.4365-.0599.1143-.1245.2081-.1914.301-.0651.0929-.1319.1858-.1895.3047-.0594.1169-.1078.2582-.1403.4476-.0325.1886-.0585.3325-.0807.4514-.0204.1189-.0381.2155-.0557.3121-.0186.0966-.0377.1931-.0594.3158-.0214.1207-.0483.2684-.0808.4662-.0344.197.0636.3456.2303.4701.1644.1235.3984.223.6325.3223.2341.0994.4677.1997.6381.3242.1691.1263.2722.2805.2415.4847-.0287.2063-.077.3623-.1351.4924-.0552.1299-.1189.235-.1853.3398-.0649.106-.1305.2119-.1876.3438-.0566.1338-.1077.2935-.1398.5071-.033.2156-.0627.379-.0897.5137-.0279.1366-.0548.2461-.0798.3557-.027.1096-.054.2192-.0809.3586-.0302.1375-.0613.3047-.0938.5276-.0345.2247-.0145.3928.0343.5331.0483.1412.1263.2545.2025.3698.078.1133.1559.2284.2062.3715.0502.1449.0706.3187.0371.5518-.0344.235-.2275.4142-.5025.5629-.2758.1505-.6325.2712-.9891.392-.3594.1227-.719.2443-.9985.3956-.2814.1543-.4839.3381-.5276.5815-.0455.2452-.006.4309.078.5852.0826.1542.209.2786.3334.4031.1263.1262.2526.2507.3372.4087.0845.158.1254.3474.0845.6038-.0409.2563-.1384.4504-.261.613-.1245.1636-.275.2935-.4269.4254-.1518.1318-.3041.2648-.4305.431-.1282.1663-.2285.3668-.275.6353-.0464.2693.0651.4736.261.6409.196.1709.4719.3057.7468.4421.2778.1366.5582.2731.757.4458.2006.1729.3195.3818.2768.665-.0409.2805-.1598.4951-.3158.6744-.0177.0186-.039.0343-.0576.0529-.104.1088-.2211.2081-.3437.302-.0501.0371-.1003.0762-.1505.1133-.0994.0734-.1988.1467-.2953.2257-.008.006-.0154.0157-.0233.0232-.0845.0707-.1663.1431-.2405.2257-.0242.0288-.0409.0659-.0654.0966-.0367.0511-.0757.1022-.1073.1598-.0153.0288-.0316.0566-.0465.0873-.0502.1068-.0911.223-.1133.3577-.0483.2972.0186.522.1467.7096.1282.1876.314.3381.5025.4886.1867.1522.3762.3027.5062.494.1301.1914.2044.4236.158.7339-.0446.3138-.1078.5498-.177.7487-.0683.1987-.1481.3585-.2262.5192-.078.1606-.1569.3223-.2285.5248-.0706.2025-.1337.4476-.184.7765-.0501.3279-.1058.5759-.1663.7841-.0622.208-.1263.3771-.1904.546-.0649.1692-.13.3381-.1917.5518-.0627.2136-.1221.4719-.1761.8174-.052.3474-.1644.6094-.3065.8304-.1412.2191-.314.3975-.4858.5758-.1746.1793-.3474.3596-.4932.5852-.1467.2267-.2639.4998-.3251.8638-.0594.3699-.0734.6465-.0632.8787.0111.2341.0436.4209.078.6094.0344.1896.0696.3772.078.615.0121.2396-.002.5266-.065.9139-.0613.3883-.091.6818-.1045.927-.0143.2452-.0126.444-.0107.6427.004.2007.006.3994-.007.6521-.015.2527-.0483.5591-.1115.9688-.0641.4124-.013.7236.1003.9836.1115.262.287.4719.4589.6836.1745.21.3492.4216.4653.6892.118.2676.1751.5908.1124 1.0273-.0613.4365-.3567.7681-.7695 1.0459-.4139.2805-.9451.5061-1.4802.7338-.5368.2266-1.0737.4569-1.4991.743-.4277.2878-.7403.6344-.8211 1.0979-.0836.4644-.1003.8154-.0859 1.109.0171.2954.0636.5332.1118.771.0479.2396.0966.4792.1115.7821.0167.3046-.002.6725-.0836 1.1656-.0873.495.1133.8685.4547 1.1805.3478.314.8359.5638 1.3287.8164.4923.2537.9883.5081 1.3431.8296.3567.3213.5703.7133.4993 1.239-.0719.5322-.5438 1.033-1.181 1.5122-.6395.481-1.4453.938-2.1772 1.3784-.7357.4438-1.3988.8694-1.7369 1.2854-.3419.418-.3604.8267.1988 1.2307.1207.0884.2452.1626.3734.2257.1249.0614.2554.1115.3882.1515.1337.0381.2684.0659.4068.0845.1384.0176.28.026.4218.0242.5089-.002 1.0439-.1143 1.6046-.2805.5615-.1672 1.1448-.3865 1.7485-.6074.6037-.2183 1.228-.4365 1.8688-.6001.6428-.1653 1.3051-.2749 1.9877-.2787.8713-.006 1.5275-.0389 2.076-.0873.5498-.0483.9911-.1116 1.4308-.1746.4398-.0632.881-.1265 1.4276-.1747.5485-.0482 1.2052-.0817 2.0764-.0863.8676-.005 1.514.1421 2.051.3669.5368.2246.9659.5256 1.3969.8303.4311.3064.8667.6129 1.4146.8425.55.2302 1.2122.3835 2.096.3779.8866-.004 1.5493-.1116 2.0997-.2675.5479-.1561.9827-.3641 1.4193-.5685.4337-.2063.8638-.4115 1.4081-.5657.5421-.1533 1.1964-.2573 2.0732-.2629.8749-.004 1.5243-.1011 2.0602-.2433.535-.1429.954-.3307 1.3746-.5184.418-.1866.8342-.3733 1.3635-.5126.5268-.1403 1.1644-.235 2.0287-.2396.7245-.004 1.4443.1681 2.1493.4301.7101.2628 1.4081.6158 2.088.9716.6832.3575 1.345.717 1.9747.9873.6335.2712 1.2316.4514 1.7816.4486.1058-.0009.2108-.006.3121-.0214.1016-.0156.2025-.0391.3004-.0696.097-.0308.1946-.0697.2884-.1162.093-.0482.184-.1049.2731-.1708.5527-.4143.8583-.8099.9744-1.2168.1143-.405.0399-.8175-.1625-1.2688-.2001-.4468-.528-.9307-.9283-1.4749zm-197.4292-126.9748c-6.4846 2.2124-13.3805 4.1787-20.2277 5.7993-8.049 1.9053-15.9956 3.3308-23.3889 4.2183 1.3203 3.8844 3.6503 7.2395 6.6432 9.8062h29.3034c5.5253-4.7522 8.627-12.0846 7.67-19.8238z"/>
  <path d="M82.28297816 125.027115v-4.9153l4.0605 1.8567c6.873 3.1421 19.1807 3.9224 21.5781 4.0469.1416.007.2822.0107.4219.0107 4.2266 0 7.7568-3.312 7.9805-7.5815.2314-4.4106-3.1582-8.1743-7.5684-8.4077-3.2568-.1719-8.0889-.6924-11.7686-1.4585-.8135-6.0908-1.8184-11.5181-3-16.1875-.0002-.001-.0007-.002-.001-.003-5.6672-22.3979-15.198-24.8261-19.8384-24.5424h-38.0914c-2.2142-.0801-5.8553.3785-9.7623 3.345-.0895.0681-.1727.1503-.2614.22-8.339 6.559-13.0952 21.0703-14.5238 44.3679-.229 3.7275 1.1597 7.2207 3.9092 9.8379 2.4176 2.301 5.9007 3.7607 9.7733 4.6628.9789.228 1.9814.4204 3 .5808v111.1067c0 6.8301 5.5371 12.3633 12.3633 12.3633 6.8281 0 12.3652-5.5332 12.3652-12.3633v-90.2715h4.6348v90.2715c0 6.8301 5.5371 12.3633 12.3632 12.3633 6.8282 0 12.3653-5.5332 12.3653-12.3633v-98zm29.2406-104.4216c-1.4248-6.0176-17.5146-7.6299-38.9346-4.7031-4.3369-9.2998-14.9482-17.8262-24.6846-15.5215-9.7344 2.3047-15.3974 14.6827-15.1055 24.9395-20.4599 6.9853-34.121 15.6406-32.6972 21.6582 1.8447 7.792 28.2832 8.2061 59.0508.9238 30.7695-7.2832 54.2148-19.5039 52.3711-27.2969Zm9.2036 197.2807h-9.9326c.9742-2.8418 1.1683-6.5686-.9691-11.0508l-2.3357 1.1135c2.0038 4.2021 1.5938 7.5486.5683 9.9373h-11.05v32.7755c0 1.9058 1.5447 3.4501 3.45 3.4501h16.819c1.9053 0 3.4501-1.5443 3.4501-3.4501z"/>
  <path d="M105.38467816 198.998315c-3.3118-2.6895-10.2557-2.8579-10.2557-2.8579s1.5909 6.759 4.903 9.4496c3.3128 2.6903 5.6156 2.111 7.0939.2919 1.478-1.8215 1.5708-4.1942-1.7412-6.8836zm8.246-2.816c.7565-3.3718-1.6288-8.4717-1.6288-8.4717s-4.3286 3.5957-5.0853 6.9698c-.7567 3.374.4962 4.8359 2.3489 5.252 1.8539.415 3.6107-.3748 4.3652-3.7501zm5.0666 11.0039c3.3641-2.6239 5.0849-9.3542 5.0849-9.3542s-6.9448.0354-10.3088 2.66c-3.3641 2.6259-3.3162 4.9994-1.8751 6.8483 1.4438 1.8489 3.7357 2.4713 7.099-.1541zm19.7426 46.9256h16.819c1.9053 0 3.45-1.5443 3.45-3.4501v-32.7755h-9.9326c.9742-2.8418 1.1683-6.5686-.9691-11.0508l-2.3357 1.1135c2.0038 4.2021 1.5939 7.5486.5684 9.9373h-11.0501v32.7755c0 1.9058 1.5447 3.4501 3.4501 3.4501zm4.9264-55.1135c-3.3118-2.6895-10.2557-2.8579-10.2557-2.8579s1.591 6.759 4.903 9.4496c3.3127 2.6903 5.6156 2.111 7.0938.2919 1.4782-1.8215 1.5709-4.1942-1.7411-6.8836zm8.246-2.816c.7565-3.3718-1.6288-8.4717-1.6288-8.4717s-4.3286 3.5957-5.0853 6.9698c-.7567 3.374.4962 4.8359 2.3489 5.252 1.8539.415 3.6107-.3748 4.3652-3.7501zm-.1573 4.3097c-3.3641 2.6259-3.3162 4.9994-1.8751 6.8483 1.4438 1.8489 3.7357 2.4713 7.099-.1541 3.3641-2.6239 5.085-9.3542 5.085-9.3542s-6.9449.0354-10.3089 2.66z"/>
</svg>
