<svg xmlns="http://www.w3.org/2000/svg" width="676.659" height="676.659" viewBox="0 0 507.494 507.494">
  <path
    d="M477.377 315.472c.86-.684 1.489-1.54 2.012-2.434h19.355c4.828 0 8.75-3.922 8.75-8.75 0-4.828-3.922-8.75-8.75-8.75h-78.75v-11.551c3.692 1.664 8.086 2.414 12.758 2.414 12.11 0 25.691-4.41 30.887-7.352 9.766-5.496 21.051-27.176 25.461-36.227a8.71 8.71 0 0 0-.246-8.12 8.768 8.768 0 0 0-6.824-4.41c-10.062-.911-34.457-2.45-44.172 3.046-5.371 3.012-12.441 9.54-17.867 16.344v-22.734c3.691 1.664 8.086 2.414 12.758 2.414 12.109 0 25.69-4.41 30.887-7.351 9.765-5.497 21.05-27.176 25.46-36.227a8.71 8.71 0 0 0-.245-8.122 8.768 8.768 0 0 0-6.824-4.41c-10.062-.926-34.457-2.433-44.172 3.047-5.372 3.027-12.441 9.54-17.867 16.363v-5.336c11.898-8.433 17.5-32.184 17.5-40.512 0-11.148-13.316-31.656-19.06-39.969-3.253-4.742-11.147-4.742-14.386 0-5.73 8.285-19.047 28.793-19.047 39.941 0 8.348 5.601 32.078 17.5 40.512v5.336c-5.442-6.808-12.496-13.336-17.867-16.363-9.747-5.476-34.11-3.973-44.172-3.047a8.768 8.768 0 0 0-6.825 4.41 8.721 8.721 0 0 0-.246 8.122c4.41 9.066 15.7 30.73 25.461 36.227 5.2 2.921 18.762 7.351 30.887 7.351 4.692 0 9.082-.754 12.758-2.414v22.734c-5.441-6.824-12.496-13.336-17.867-16.344-9.746-5.477-34.109-3.953-44.172-3.047a8.768 8.768 0 0 0-6.824 4.41 8.721 8.721 0 0 0-.246 8.121c4.41 9.067 15.699 30.73 25.461 36.227 5.2 2.922 18.742 7.352 30.887 7.352 4.691 0 9.082-.754 12.758-2.414v11.55h-157.5v-11.55c3.691 1.664 8.086 2.414 12.758 2.414 12.109 0 25.691-4.41 30.887-7.352 9.766-5.496 21.051-27.176 25.461-36.227a8.71 8.71 0 0 0-.246-8.12 8.768 8.768 0 0 0-6.824-4.41c-10.062-.911-34.441-2.45-44.172 3.046-5.371 3.012-12.441 9.54-17.867 16.344V226.92c3.691 1.664 8.086 2.414 12.758 2.414 12.109 0 25.69-4.41 30.887-7.351 9.765-5.497 21.05-27.176 25.46-36.227a8.71 8.71 0 0 0-.245-8.122 8.768 8.768 0 0 0-6.825-4.41c-10.062-.926-34.44-2.433-44.172 3.047-5.37 3.027-12.44 9.54-17.867 16.363v-5.336c11.898-8.433 17.5-32.184 17.5-40.512 0-11.148-13.316-31.656-19.059-39.969-3.253-4.742-11.148-4.742-14.387 0-5.722 8.313-19.039 28.82-19.039 39.97 0 8.347 5.602 32.077 17.5 40.511v5.336c-5.441-6.808-12.496-13.336-17.867-16.363-9.73-5.476-34.09-3.973-44.172-3.047a8.768 8.768 0 0 0-6.824 4.41 8.721 8.721 0 0 0-.246 8.122c4.41 9.066 15.7 30.73 25.461 36.227 5.2 2.921 18.762 7.351 30.887 7.351 4.692 0 9.082-.754 12.758-2.414v22.734c-5.441-6.824-12.496-13.336-17.867-16.344-9.73-5.477-34.09-3.953-44.172-3.047a8.768 8.768 0 0 0-6.824 4.41 8.721 8.721 0 0 0-.246 8.121c4.41 9.067 15.699 30.73 25.46 36.227 5.2 2.922 18.743 7.352 30.888 7.352 4.691 0 9.082-.754 12.758-2.414v11.55l-218.74-.007c-4.828 0-8.75 3.922-8.75 8.75 0 4.828 3.922 8.75 8.75 8.75h54.285c-3.953 3.5-8.016 6.754-11.828 10.449-19.32 18.69-36.102 38.938-49.805 60.184-2.625 4.059-1.453 9.484 2.59 12.094a8.748 8.748 0 0 0 12.094-2.61c12.983-20.108 28.89-39.323 47.265-57.085a364.233 364.233 0 0 1 23.324-20.582c.86-.684 1.489-1.524 2.012-2.415h59.395c-3.953 3.5-8.015 6.754-11.828 10.45-55.055 53.253-88.059 118.14-86.137 169.36a8.754 8.754 0 0 0 8.75 8.417h.332c4.828-.175 8.594-4.253 8.418-9.082-1.75-45.69 29.977-106.96 80.797-156.12a348.942 348.942 0 0 1 23.31-20.613c.859-.683 1.487-1.523 2.01-2.414h46.778c-3.953 3.5-8.016 6.754-11.828 10.45-55.055 53.253-88.06 118.14-86.137 169.36a8.754 8.754 0 0 0 8.75 8.417h.332c4.828-.175 8.594-4.254 8.418-9.082-1.75-45.69 29.977-106.96 80.797-156.12a348.942 348.942 0 0 1 23.309-20.613c.86-.683 1.488-1.523 2.012-2.414h59.395c-3.954 3.5-8.016 6.754-11.828 10.45-55.055 53.253-88.06 118.14-86.137 169.36a8.754 8.754 0 0 0 8.75 8.417h.332c4.828-.176 8.593-4.254 8.418-9.082-1.75-45.69 29.977-106.96 80.797-156.12a348.942 348.942 0 0 1 23.309-20.613c.859-.683 1.488-1.523 2.011-2.414h46.777c-3.953 3.5-8.015 6.754-11.828 10.45-55.055 53.253-88.059 118.14-86.137 169.36a8.754 8.754 0 0 0 8.75 8.417h.332c4.828-.176 8.594-4.254 8.418-9.082-1.75-45.69 29.977-106.96 80.797-156.12a348.942 348.942 0 0 1 23.31-20.613c.859-.683 1.488-1.523 2.011-2.414h50.051c-3.937 3.5-8.016 6.773-11.828 10.449-55.055 53.254-88.059 118.14-86.137 169.36a8.754 8.754 0 0 0 8.75 8.418h.332c4.828-.176 8.594-4.254 8.418-9.082-1.75-45.691 29.977-106.96 80.797-156.12 7.574-7.297 15.414-14.227 23.36-20.613zm-30.922-66.902c2.38-1.243 10.922-1.75 20.668-1.61-4.898 8.559-9.765 15.47-12.039 16.852-6.3 3.535-21.016 6.09-26.547 4.899 1.801-5.32 11.617-16.59 17.918-20.141zm0-57.035c2.38-1.243 10.922-1.735 20.668-1.61-4.898 8.559-9.765 15.47-12.039 16.852-6.3 3.535-21.12 6.09-26.53 4.899 1.8-5.317 11.601-16.586 17.901-20.141zm-79.012 15.242c-2.293-1.383-7.14-8.297-12.059-16.852 9.747-.141 18.305.351 20.668 1.609 6.282 3.55 16.102 14.824 17.902 20.14-5.46 1.192-20.25-1.362-26.512-4.897zm0 57.05c-2.293-1.382-7.14-8.296-12.059-16.851 9.747-.157 18.305.367 20.668 1.609 6.282 3.55 16.117 14.824 17.922 20.14-5.566 1.192-20.27-1.378-26.53-4.897zm43.801-135.8c5.024 8.489 8.665 16.103 8.75 18.778 0 7.19-4.988 21.227-8.75 25.48-3.761-4.254-8.75-18.29-8.75-25.48.086-2.676 3.711-10.29 8.75-18.777zm-139.79 120.54c2.38-1.242 10.938-1.75 20.668-1.609-4.898 8.559-9.765 15.47-12.039 16.852-6.3 3.535-21.016 6.09-26.547 4.899 1.801-5.32 11.617-16.59 17.918-20.141zm0-57.034c2.38-1.243 10.938-1.735 20.668-1.61-4.898 8.559-9.765 15.47-12.039 16.852-6.3 3.535-21.12 6.09-26.53 4.899 1.8-5.317 11.601-16.586 17.901-20.141zm-79.012 15.242c-2.293-1.383-7.14-8.297-12.059-16.852 9.766-.141 18.305.351 20.668 1.609 6.282 3.55 16.102 14.824 17.902 20.14-5.445 1.192-20.23-1.362-26.512-4.897zm0 57.05c-2.293-1.382-7.14-8.296-12.059-16.851 9.766-.157 18.305.367 20.668 1.609 6.282 3.55 16.117 14.824 17.922 20.14-5.566 1.192-20.25-1.378-26.53-4.897zm43.801-135.8c5.024 8.489 8.665 16.103 8.75 18.778 0 7.19-4.988 21.227-8.75 25.48-3.761-4.254-8.75-18.29-8.75-25.48.086-2.676 3.711-10.29 8.75-18.777zM491.867 358.582c-36.016 45.57-55.809 94.5-54.32 134.28a8.754 8.754 0 0 0 8.75 8.418h.332c4.829-.176 8.594-4.254 8.418-9.082-1.328-35.141 17.57-81.023 50.56-122.76a8.743 8.743 0 0 0-1.454-12.285c-3.742-2.993-9.293-2.383-12.285 1.433zM26.247 80.872h16.73c1.067 4.933 3.047 9.519 5.688 13.613l-12.27 12.285c-3.414 3.414-3.414 8.96 0 12.37a8.712 8.712 0 0 0 6.195 2.555 8.656 8.656 0 0 0 6.18-2.55l12.266-12.267c4.113 2.66 8.7 4.637 13.633 5.704v16.71c0 4.829 3.922 8.75 8.75 8.75 4.828 0 8.75-3.921 8.75-8.75v-16.71c4.934-1.067 9.52-3.047 13.633-5.704l12.25 12.266a8.735 8.735 0 0 0 6.195 2.57 8.69 8.69 0 0 0 6.176-2.57c3.414-3.414 3.414-8.96 0-12.37l-12.25-12.267c2.66-4.113 4.637-8.699 5.703-13.633h16.711c4.828 0 8.75-3.921 8.75-8.75 0-4.828-3.922-8.75-8.75-8.75l-16.727-.003a40.787 40.787 0 0 0-5.687-13.617l12.25-12.266c3.414-3.415 3.414-8.961 0-12.371-3.414-3.415-8.961-3.415-12.371 0l-12.25 12.266c-4.114-2.66-8.696-4.637-13.633-5.704V14.964c0-4.828-3.922-8.75-8.75-8.75-4.828 0-8.75 3.922-8.75 8.75v16.711c-4.934 1.07-9.52 3.047-13.633 5.707L48.77 25.097c-3.414-3.414-8.961-3.414-12.371 0-3.414 3.415-3.414 8.961 0 12.371l12.266 12.285c-2.66 4.114-4.621 8.7-5.688 13.617h-16.73c-4.828 0-8.75 3.922-8.75 8.75 0 4.829 3.922 8.75 8.75 8.75zM83.42 48.216c13.195 0 23.922 10.727 23.922 23.922S96.614 96.044 83.42 96.044c-13.176 0-23.922-10.727-23.922-23.922S70.243 48.216 83.42 48.216z" />
</svg>