<svg xmlns="http://www.w3.org/2000/svg" viewBox="0 0 128 128"><path d="M111.37254914 9.41176444h-4.0784314V7.5294115c0-4.15171766-3.37769412-7.52941179-7.52941178-7.52941179-4.15171767 0-7.5294118 3.37769413-7.5294118 7.5294118v1.88235294H35.76470572V7.5294115c0-4.15171766-3.37769413-7.52941179-7.5294118-7.52941179-4.15171766 0-7.52941179 3.37769413-7.52941179 7.5294118v1.88235294h-4.07843138c-7.09270591 0-12.86274515 5.77003924-12.86274515 12.86274515v92.86274544c0 7.0927059 5.77003924 12.86274515 12.86274515 12.86274515h94.74509839c7.0927059 0 12.86274514-5.77003924 12.86274514-12.86274515V22.27450959c0-7.09270591-5.77003923-12.86274515-12.86274514-12.86274515ZM96.00000006 7.5294115c0-2.07585883 1.68884707-3.7647059 3.7647059-3.7647059s3.7647059 1.68884707 3.7647059 3.7647059v7.5294118c0 2.07585883-1.68884707 3.7647059-3.7647059 3.7647059s-3.7647059-1.68884707-3.7647059-3.7647059zm-71.52941203 0c0-2.07585883 1.68884706-3.7647059 3.7647059-3.7647059 2.07585883 0 3.7647059 1.68884707 3.7647059 3.7647059v7.5294118c0 2.07585883-1.68884707 3.7647059-3.7647059 3.7647059-2.07585884 0-3.7647059-1.68884707-3.7647059-3.7647059zm-7.84313728 5.64705885h4.07843138v1.88235295c0 4.15171766 3.37769413 7.52941179 7.5294118 7.52941179 4.15171766 0 7.52941179-3.37769413 7.52941179-7.5294118v-1.88235294h56.47058844v1.88235295c0 4.15171766 3.37769413 7.52941179 7.5294118 7.52941179 4.15171766 0 7.52941179-3.37769413 7.52941179-7.5294118v-1.88235294h4.07843139c5.0165961 0 9.09803925 4.08144315 9.09803925 9.09803925v8.3196085H7.52941149v-8.3196085c0-5.0165961 4.08144316-9.09803925 9.09803926-9.09803925Zm94.74509839 111.05882394h-94.7450984c-5.0165961 0-9.09803924-4.08144315-9.09803924-9.09803925V34.35882398H120.47058839v80.77843105c0 5.0165961-4.08144316 9.09803925-9.09803925 9.09803925Z"/><path d="M61.18109652 95.64145554c-1.01180105 0-1.83131616.81985378-1.83131616 1.83003558v5.3382121c0 1.0101765.81951511 1.83003557 1.83131616 1.83003557 1.0108856 0 1.83131616-.81985907 1.83131616-1.83003558v-5.33821209c0-1.0101818-.82043057-1.83003558-1.83131616-1.83003558zM51.96134115 103.35962644c-1.01180105 0-1.8313188.81985642-1.8313188 1.83004087v5.33821209c0 1.01017915.81951775 1.83003293 1.8313188 1.83003293 1.0108803 0 1.83131352-.81985378 1.83131352-1.83003293v-5.3382121c0-1.00926898-.82134339-1.83004086-1.83131352-1.83004086zM70.40177 103.35962644c-1.0118037 0-1.83131881.81985642-1.83131881 1.83004087v5.33821209c0 1.01017915.81951511 1.83003293 1.8313188 1.83003293 1.01088824 0 1.83131088-.81985378 1.83131088-1.83003293v-5.3382121c0-1.00926898-.82042264-1.83004086-1.83131087-1.83004086zM61.18109652 109.97612261c-1.01180105 0-1.83131616.81985907-1.83131616 1.83003558v5.3382121c0 1.01017915.81951511 1.83003557 1.83131616 1.83003557 1.0108856 0 1.83131616-.81985642 1.83131616-1.83003558v-5.33821209c0-1.0101765-.82043057-1.83003558-1.83131616-1.83003558z"/><path d="M92.32353285 63.67988193c0-7.1892913-5.85379928-13.0389996-13.04812481-13.0389996-5.91606738 0-10.90090462 3.96385701-12.49048687 9.36795326-2.12798815-.93606486-4.47481848-1.4676903-6.94525948-1.4676903-8.27022401 0-15.19717433 5.82774709-16.90762618 13.58618386C36.88411832 72.2563479 32 77.2029317 32 83.27590493c0 6.15532214 5.01139348 11.16229971 11.17010758 11.16229971h6.95991475v1.75500769c0 1.0101765.81951776 1.83003028 1.83131881 1.83003028 1.0108803 0 1.83131352-.81985378 1.83131352-1.83003028v-1.75500769h14.77779652v1.75500769c0 1.0101765.81951511 1.83003028 1.8313188 1.83003028 1.01088824 0 1.83131088-.81985378 1.83131088-1.83003028v-1.75500769h4.27612724c6.1596301 0 11.1701089-5.00789038 11.1701089-11.16229971 0-2.98661663-1.1857765-5.69781524-3.10682742-7.70078777 4.55906023-2.03317208 7.75104326-6.59087657 7.75104326-11.89523523zM76.5092081 90.7781335H43.1701076c-4.13968665 0-7.50747525-3.3654338-7.50747525-7.50222856 0-3.91536232 3.02167127-7.1362225 6.85736226-7.46654157 0 .01463146-.00185209.02836863-.00185209.04300273v2.66819059c0 1.01017915.82042793 1.83003558 1.83131352 1.83003558 1.01088824 0 1.83131616-.81985643 1.83131616-1.83003558V75.8523661c0-7.5278508 6.12666512-13.65023497 13.65886833-13.65023497 7.53128246 0 13.65795023 6.12238416 13.65795023 13.65023497v.77044285h.00732895c0 .02288645-.00732895.04483629-.00732895.0677148v1.83003294c0 1.01017915.82042528 1.83003558 1.83131166 1.83003558 1.01180184 0 1.83131801-.81985643 1.83131801-1.83003558V75.8523661c0-.01465791-.0017727-.02836862-.0017727-.04300273 3.8356878.33031906 6.85827665 3.55117925 6.85827665 7.46654157 0 4.1377102-3.36778992 7.50222856-7.50747683 7.50222856zm4.16898846-17.83552786c-1.21965242-.49319126-2.54278205-.78599505-3.93091982-.81527648-.91931726-4.16973538-3.35313544-7.76850285-6.68338231-10.217089.83141342-4.32803321 4.6423844-7.60928692 9.21243038-7.60928692 5.17529861 0 9.38549248 4.2090813 9.38549248 9.3789287-.0009525 4.6949624-3.47217307 8.58378436-7.98362073 9.2627237zM79.27540804 47.97269096c1.01088823 0 1.83131828-.81985564 1.83131828-1.83003611v-5.33821368c0-1.01017942-.82043005-1.83003531-1.83131828-1.83003531-1.01179893 0-1.8313122.8198559-1.8313122 1.83003531v5.33821368c0 1.01018047.81951327 1.8300361 1.8313122 1.8300361zM102.16868455 61.84984741h-5.34194687c-1.01088639 0-1.83131564.81894414-1.83131564 1.83003452 0 1.01018206.82042925 1.83004087 1.83131564 1.83004087h5.34194687c1.01088614 0 1.83131547-.8198588 1.83131547-1.83004087 0-1.01109038-.82042933-1.83003452-1.83131547-1.83003452zM92.98005934 52.57248484l3.77708816-3.77444788c.71512852-.714629.7132976-1.87304148 0-2.58767047-.71512852-.714629-1.87435144-.714629-2.58948022 0l-3.77708922 3.77444814c-.71512694.71462873-.71512694 1.87304149 0 2.58767021.71512984.714629 1.87435275.71554419 2.58948128 0z"/><path d="M92.98189052 74.78911682c-.71512826-.714629-1.87435117-.714629-2.59131246 0-.71329629.71279807-.71329629 1.8730383 0 2.58767259l3.77708922 3.77261432c.71512878.7146237 1.87618314.7146237 2.58948022 0 .71695997-.714629.71512852-1.87304625 0-2.58766995zM65.5707615 52.57248484c.71512376.714629 1.8752661.714629 2.58947705 0 .71604451-.71462872.71604451-1.87304148 0-2.5876702l-3.77708843-3.77444815c-.71421095-.714629-1.874348-.714629-2.58947969 0-.71421095.71279886-.71421095 1.87304148 0 2.58767047z"/></svg>