<svg xmlns="http://www.w3.org/2000/svg" viewBox="0 0 100 100"><circle cx="18.209162" cy="12.469916" r="8.8341322"/><path d="M31.694721 40.751178c3.701933 2.92068 8.509593 4.411049 14.278863 4.411049 2.079317 0 3.774032-1.694658 3.774032-3.774033 0-.865368-.288495-1.658609-.781286-2.295625l8.26927-14.711582c.432663-.757193.15624-1.71876-.600968-2.151402-.757248-.432727-1.718753-.156239-2.151472.600967l-8.317281 14.795626h-.192295c-8.413504 0-11.694721-4.038432-12.968761-7.439848-.540871-1.442359-1.502439-2.668317-2.764455-3.545689-1.045647-.721161-2.235545-1.165879-3.485545-1.298072h-.07203c-.240415-.03624-.480774-.04822-.721142-.04822h-5.709186c-.180287 0-.348521.01184-.516784.03624H9.6634582v.03628C4.3149032 25.462746 0 29.837746 0 35.198346v16.935086c0 2.079314 1.6947099 3.774032 3.7740368 3.774032 2.0793302 0 3.7740423-1.694718 3.7740423-3.774032V35.198346c0-1.201931.9375-2.199552 2.1153841-2.283667v20.300449L4.915867 91.54448c-.3004807 2.463952 1.4423067 4.699491 3.9062467 5.012019.1923072.02384.3725962.03624.5528863.03624 2.235597 0 4.170686-1.670701 4.447099-3.942311l3.990365-32.259607h.781311l3.990346 32.259613c.276479 2.271607 2.211565 3.942306 4.447104 3.942306.180343 0 .372638 0 .552896-.03624 2.463943-.300512 4.206758-2.548067 3.906247-5.012016l-4.747561-38.32936V34.66948c.973523 1.923089 2.512016 4.158628 4.939895 6.081698z"/><path d="M97.512016 3.2752187H39.218775c-1.394223 0-2.512038 1.1298226-2.512038 2.5120102V31.051698c.492815.68508 1.081695 1.274032 1.778863 1.766818.901416.637036 1.995191 1.117814 3.245191 1.442294V8.2993122H95V53.431499H76.165879c-.156247-.01184-.312533-.01184-.46878 0H62.079314c-.15625-.01184-.312474-.01184-.468714 0H41.730791v-5.661051c-1.766839-.228391-3.449566-.612984-5.024054-1.129807v9.314911c0 1.39421 1.129831 2.512017 2.512038 2.512017h19.387016L49.603346 93.57573c-.348523 1.346128.468753 2.716327 1.802879 3.064911.204375.04823.420711.08414.625.08414 1.117807 0 2.139461-.757228 2.439912-1.887051l9.314911-36.358106h10.192298l8.53367 36.358191c.288432 1.129763 1.310083 1.886941 2.427904 1.886941.204289 0 .42068-.02384.625-.08395 1.346128-.348584 2.15141-1.718782 1.802887-3.064914L79.15867 58.467587h18.329314c1.394209 0 2.512016-1.129823 2.512016-2.512017V5.7872329c0-1.3942108-1.129823-2.5120102-2.512016-2.5120102Z"/></svg>