<svg xmlns="http://www.w3.org/2000/svg" xml:space="preserve" viewBox="0 0 128 128"><path d="M70.827426 25.402226c-1.99448-.362565-11.80014 6.388366-9.01346.29029 2.3477-3.45699-5.17288-6.596113-4.08887-1.025122-1.66345 5.082874-10.01363 8.291766-15.17424 7.707536-3.60507-2.647627-11.34358-2.206995-11.92103-7.30178-.10703-2.727015-.95404-4.018453-3.85491-3.945891-1.13674.207142-1.72831 7.389082-3.83108 1.514808-.0153-8.309965-17.826732-1.109831-2.37735 4.488667 3.16599 5.472223 10.26011 6.69352 15.65899 9.341863 7.55685 1.296186 7.37081 9.882488 9.182 15.582109-.80901 6.96341794-5.47243 12.8403256-8.65659 18.98214-2.6496 3.40255-8.20359 6.190562-1.16915 5.297569h19.7718c-2.85773-5.09697-1.76866-10.7678433-.89557-16.17467306.11871-6.32465594 4.88869-12.29886094 1.44909-18.54158494-2.99463-3.726582.10399-5.340307 3.21243-6.996694 4.03475-3.419451 10.80047-1.975401 13.81486-6.785997 3.64437-3.747276-.20115-.902166-2.10692-2.43324z"/><path d="M21.696816 16.763413c1.62087.708273 2.13407 3.201685 4.66248 2.450104 3.21469 2.143446 7.25138-.14739 10.42156-1.413831-1.26156-5.643577 9.01783-5.886267 9.38755-8.632759-2.5797-4.270369-8.14672-4.641869-12.58932-6.075092-2.26189-1.224136-4.17937 1.486656-6.15428.95053-4.02078-2.60138-9.162574-4.373434-14.061079-3.990317C9.015995 2.10544 6.49496 5.298057 1.774118 6.499397c-2.642084 1.928625-2.543901 6.511552 1.731289 6.484842 2.584175-.175406 2.179644 3.489425 4.500496 4.096208 4.184502 2.597645 9.40181 1.194197 13.690913-.317034z"/><path d="M75.315636 7.446668c-2.56209-1.928824-5.73304-3.911846-9.26417-2.93806-4.65428 1.692341-11.20566-.05319-13.68676 5.359249-1.24156 1.374733-3.92644.310221-5.46063 1.490002-2.80807 1.59211-7.63608 1.976585-8.72496 5.382607-.14458 3.393601 4.85616 2.760036 7.0584 2.175842 3.49136-1.469746 6.51002 2.918411 10.2897 1.497054 1.9354.223942 4.72478-2.334185 5.6676.476975 6.01265 2.09274 13.38879 5.831504 19.08028.963482 2.69429-1.741158 6.40244-1.981293 7.7118-5.537113 4.22408-7.399892-6.67412-9.145381-11.96126-8.876937zM72.8764919 67.08548619c-.15403256 1.84463487.29733219-1.03045155-.48044696 1.9086809 1.10514685-2.01092625-1.53648075 2.41904016-1.88533202 1.50245733 2.1590022-.67683905-3.70155048.89044124-.36518267.1615209-3.30802397-.0479446.11070635.41105645-3.0217585-.3915243 2.0780178 1.06946573-2.49974782-1.48687343-1.55258458-1.82446157.69942078 2.08929595-.92014948-3.58204103-.1669098-.35339227.0495442-3.20122004-.42477074.10713205.40458691-2.92419703-1.10514685 2.01092625 1.53648075-2.41904015 1.88533203-1.50245733-2.1590022.67683905 3.70155048-.89044124.36518267-.1615209 3.30802397.0479446-.11070636-.41105645 3.0217585.3915243-2.0780178-1.06946573 2.49974782 1.48687343 1.55258457 1.82446158-.69942077-2.08929596.92014949 3.58204103.1669098.35339227-.24096437 8.34927868 11.50892356 3.2800975 6.8995597-2.96723534-2.68929048-7.46286036-13.99795868-9.52217778-19.12567044-3.272683-5.47080273 5.58586233-2.50598352 15.91903252 5.2695081 17.75356239 7.40198836 2.59122642 16.02690766-4.42554952 14.31008862-11.89408086-1.45404743-3.67169642-7.28462022-2.55872624-7.27762593 1.39595293Z"/><path d="M57.83091611 71.14755068c-5.47996915 3.15851941-6.83301905 9.7345638-6.15730707 15.4407391-2.35287771 7.03046706 9.8022647 7.96485935 7.47221454.78304858.36486659 1.78701473-.22766612-6.2194037.31292269-6.86849835-.68310075-1.85504697 5.99992023-3.54500528 3.11349731-8.58882548-1.15488322-1.23215018-3.25141973-1.74106202-4.74132747-.76646385ZM86.17728663 89.9774219c.53741027-5.59031347 1.26647336-12.25876494-3.14661149-16.69942852-3.40547505-6.4532954-12.82135545.6943353-5.96923737 4.5621756 1.00318842 1.13193342 1.80684596 3.45925778 1.6768231 2.58314266.37514184.2036746.22261004 4.86594093.19439137 7.9146023-1.2119363-1.20051868 1.66763519 7.04498894 5.52514002 3.81736181l1.0399148-.93292896z"/><path d="M114.3213637 120.57749204c-30.1543392.00009298-60.3089199-.00012236-90.46310486 0 1.77750456 3.02667728 3.5742232 7.8940693 5.25844392 2.01248867 5.86554174-10.36585757 11.73269298-20.7308648 17.60071661-31.0954022-5.12485942 2.06251325-1.74998 1.92830607 1.512246 1.82303497 15.49388843-.00264278 30.98858224.00368278 46.48187644 0-6.6004233-4.63994577 1.17376732 4.91801734 2.15907932 7.77022773 5.11815466 8.6395499 9.56720981 17.7332484 15.12436783 26.074447 7.42251482 3.22076567 6.59043632-6.81497453 2.59894747-10.02045484-5.77301777-10.00918995-11.2220158-20.2229648-17.20299377-30.10199128-3.13684325-1.947202-7.16718003-.71705838-10.73307758-1.063309-14.7272721.07026882-29.4742678-.14850027-44.1872251.12655655-5.03182973 3.6738865-6.60660463 10.64095722-10.20455937 15.6567663-3.98996785 7.2030473-8.27441429 14.27551022-12.05409177 21.57331373-.94028148 4.71996844 4.56090826 4.85351493 7.91489583 4.58540277 28.97568144-.0492978 57.96236512.09972 86.93100295-.07642187 4.44849885-.84129149 3.77776455-7.20863018-.73652392-7.26465853Z"/><path d="M113.95470681 85.1200737c-.10875296 1.69455995.28893574-.87907235-.50573364 2.06773765.77481681-1.20885693-2.18307006 2.8729881-2.57924156 1.85056402-1.95632565.37999267 1.04427169.01927645-2.14936797.08258715 3.19917997.70268944-3.05699423-1.0017259-.18965012-.06117567-3.05077496-1.43420118-2.69952146-2.64213926-2.97434597-3.93359558.11623656-1.7099285-.28849702.87911763.50889448-2.07385521-.77481681 1.20885693 2.18307006-2.8729881 2.57924156-1.85056402 1.95632565-.37999267-1.0442717-.01927645 2.14936797-.08258715-3.19917997-.70268944 3.05699423 1.0017259.18965012.06117567 3.05041968 1.43750344 2.70330814 2.63848217 2.97118513 3.93971314 1.7945225 8.15908598 11.43369694.28973165 6.42499062-4.96211153-3.31502459-7.17195781-14.42247275-8.75208377-19.51084855-2.52579047-5.63784276 5.8217288-2.51166291 16.51379706 5.55358753 18.38959727 7.65017082 2.66016283 16.56572893-4.57586182 14.82253967-12.29764697-1.4514998-3.67140645-7.30402017-2.56149505-7.29026927 1.3959517Z"/><path d="M117.63391904 95.88699162c.53292188.0049063 3.28267786 3.59295477 2.5097032 3.34630915.41442974.35175154.20091026 5.0785533.19597178 8.26483302-.6086871-1.44557741 2.9907292-.77231225-2.80840212-1.00041307-4.19854.14707243-8.49615194-.37333676-12.63030193.2796866-5.47779197 2.78979285-.14400386 8.52207793 4.38829252 7.04629075 4.96297283-.26617779 10.13274646.6602482 14.90751936-.7667269 5.05842373-2.4293238 3.54248208-8.30122888 3.72652614-12.72996443.98103982-5.55611016-8.56144847-16.32881774-12.10283817-8.0652474-.20996923 1.42688091.57506593 2.87870314 1.81352922 3.62523228zM32.65802418 85.1200737c-.10875296 1.69455995.28893574-.87907235-.50573364 2.06773765.77481681-1.20885693-2.18307006 2.8729881-2.57924156 1.85056402-1.95632565.37999267 1.04427169.01927645-2.14936797.08258715 3.19917997.70268944-3.05699423-1.0017259-.18965012-.06117567-3.05077496-1.43420118-2.69952146-2.64213926-2.97434597-3.93359558.11623656-1.7099285-.28849702.87911763.50889448-2.07385521-.77481681 1.20885693 2.18307006-2.8729881 2.57924156-1.85056402 1.95632565-.37999267-1.0442717-.01927645 2.14936797-.08258715-3.19917997-.70268944 3.05699423 1.0017259.18965012.06117567 3.05041968 1.43750344 2.70330814 2.63848217 2.97118513 3.93971314 1.7945225 8.15908598 11.43369694.28973165 6.42499062-4.96211153-3.31502459-7.17195781-14.42247275-8.75208377-19.51084855-2.52579047-5.65943645 5.8108432-2.52356914 16.51551732 5.54094419 18.38959727C32.76328126 98.6819318 41.67883937 91.44590715 39.9356501 83.724122c-1.4521876-3.670342-7.29148682-2.56159782-7.27762593 1.3959517Z"/><path d="M16.65155448 89.59813275c-5.75968639 3.28714004-6.96515575 10.12280296-6.43150953 16.05364346-1.0305835 6.12313888 5.41020927 9.08427378 10.74119333 8.184157 4.09938839-.17414022 8.2954604.3619336 12.33013763-.29478966 5.47779197-2.78979285.14400386-8.52207793-4.38829252-7.04629075-4.04158555-.01364217-8.0846352.0288896-12.1250955-.02447027 1.40550079-.74840846.8369032 2.78195259 1.03734693-1.83163748.09932862-3.64629262-.19551157-4.88469128.23488925-5.41767941-.67074314-1.994678 6.28797726-3.81302323 3.33418684-8.85228707-1.14205024-1.24738415-3.24772788-1.75565241-4.73285643-.77064582Z"/></svg>