<svg xmlns="http://www.w3.org/2000/svg" width="681.492" height="681.492" viewBox="0 0 511.119 511.119"><g fill-rule="evenodd"><path d="M210.163 336.032a425.436 425.436 0 0 1 23.742-25.758c54.398-54.398 115.96-87.102 159.96-90.004.094-.008.188-.011.278-.02a60.375 60.375 0 0 0 28.418-8.222c.05-.023.093-.055.14-.082 25.137-14.102 52.008-15.59 52.008-15.59a8.764 8.764 0 0 1 6.684 2.55 8.788 8.788 0 0 1 2.55 6.684s-1.495 26.953-16.065 51.906c-.008.008-.008.008 0 .012a60.644 60.644 0 0 0-8.278 28.633c-.008.067-.008.129-.008.192-2.445 44.035-35.145 105.64-89.566 160.06a426.29 426.29 0 0 1-25.758 23.742s-3.605-19.992.754-23.992a425.52 425.52 0 0 0 12.63-12.121c50.71-50.711 82.151-107.55 84.456-148.59a78.3 78.3 0 0 1 10.656-36.754c7.067-12.102 10.531-24.75 12.207-33.367-8.676 1.632-21.402 5.019-33.664 11.887a77.816 77.816 0 0 1-36.395 10.543l-.16.011c-41.039 2.828-97.812 34.246-148.47 84.902a425.02 425.02 0 0 0-12.12 12.63c-4.005 4.363-23.993.753-23.993.753z"/><path d="M332.893 347.402c-22.27-22.27-49.727-34.195-73.652-34.75-17.207-.398-32.695 4.977-43.906 16.188-11.21 11.211-16.586 26.7-16.188 43.906.555 23.926 12.48 51.383 34.75 73.652 22.27 22.27 49.727 34.195 73.652 34.75 17.207.399 32.695-4.976 43.906-16.188 11.211-11.21 16.586-26.699 16.188-43.906-.554-23.926-12.48-51.383-34.75-73.652zm-12.375 12.375c18.711 18.711 29.164 41.578 29.63 61.684.28 12.148-3.153 23.215-11.067 31.125-7.914 7.914-18.977 11.348-31.125 11.066-20.105-.465-42.973-10.918-61.684-29.629-18.71-18.71-29.164-41.578-29.629-61.684-.28-12.148 3.153-23.215 11.066-31.125 7.914-7.914 18.977-11.348 31.125-11.066 20.105.465 42.973 10.918 61.684 29.63zM279.923 493.962c-20.566-5.914-40.988-17.785-58.398-35.195-8.11-8.11-15.012-16.867-20.676-26-2.547-4.101-7.945-5.367-12.05-2.82-4.102 2.543-5.368 7.945-2.821 12.047 6.348 10.23 14.086 20.055 23.176 29.145 19.645 19.645 42.727 32.96 65.93 39.637 4.64 1.336 9.496-1.348 10.828-5.992 1.332-4.64-1.352-9.496-5.988-10.828zM184.403 409.272a8.75 8.75 0 0 1-12.375 0 8.75 8.75 0 0 1 0-12.375 8.75 8.75 0 0 1 12.375 0 8.75 8.75 0 0 1 0 12.375"/><path d="m295.773 297.902-21.656 21.656c-3.414 3.414 8.961 15.79 12.375 12.375l21.656-21.656c3.414-3.414 3.414-8.96 0-12.375-3.414-3.414-8.96-3.414-12.375 0zM357.643 260.782l-24.75 24.75c-3.414 3.414-3.414 8.961 0 12.375 3.414 3.414 8.961 3.414 12.375 0l24.75-24.75c3.414-3.414 3.414-8.96 0-12.375-3.414-3.414-8.96-3.414-12.375 0zM354.553 313.372l-34.03 34.031 12.374 12.375 34.031-34.03c3.414-3.415 3.414-8.962 0-12.376-3.414-3.414-8.96-3.414-12.375 0zM407.143 310.282l-24.75 24.75c-3.414 3.414-3.414 8.961 0 12.375 3.414 3.414 8.961 3.414 12.375 0l24.75-24.75c3.414-3.414 3.414-8.96 0-12.375-3.414-3.414-8.96-3.414-12.375 0zM370.023 372.152l-21.656 21.656c-3.414 3.414 8.961 15.79 12.375 12.375l21.656-21.656c3.414-3.414 3.414-8.96 0-12.375-3.414-3.414-8.96-3.414-12.375 0zM413.333 254.602l-21.656 21.656c-3.414 3.414-3.414 8.961 0 12.375 3.414 3.414 8.961 3.414 12.375 0l21.656-21.656c3.414-3.414 3.414-8.96 0-12.375-3.414-3.414-8.96-3.414-12.375 0zM58.253 293.582c-12.016 23.078-12.535 47.43-12.535 47.43a8.767 8.767 0 0 0 2.563 6.387 8.786 8.786 0 0 0 6.387 2.562s24.351-.52 47.448-12.543c23.966-2.863 57.157-16.89 89.778-34.375 49.332-26.449 97.43-60.566 110.06-73.199l49.496-49.496c23.277-23.277 41.152-62.238 43.867-97.523 1.91-24.945-3.77-48-19.117-63.348-15.352-15.352-38.406-21.03-63.344-19.12-35.29 2.718-74.25 20.593-97.523 43.866L165.837 93.72c-12.633 12.633-46.75 60.734-73.2 110.06-17.48 32.613-31.511 65.801-34.383 89.793zm16.2 6.805a8.67 8.67 0 0 0 1.019-3.324c2.215-22.434 15.918-53.922 32.59-85.008 25.43-47.43 58.004-93.816 70.152-105.96l49.496-49.496c20.629-20.63 55.215-36.38 86.492-38.79 19.44-1.495 37.66 2.075 49.629 14.04 11.965 11.965 15.535 30.188 14.039 49.629-2.406 31.277-18.16 65.863-38.79 86.492l-49.495 49.496c-12.145 12.145-58.531 44.723-105.96 70.152-31.086 16.668-62.57 30.37-85.008 32.59a8.808 8.808 0 0 0-3.324 1.02c-11.234 6.124-22.996 8.913-31.027 10.19 1.273-8.031 4.066-19.793 10.19-31.027z"/><path d="m54.473 328.842-24.75 24.75c-3.414 3.414-3.414 8.961 0 12.375 3.414 3.414 8.961 3.414 12.375 0l24.75-24.75zM190.593 167.972l-86.62 86.621c-3.415 3.414-3.415 8.961 0 12.375 3.413 3.414 8.96 3.414 12.374 0l86.621-86.62c3.414-3.415 3.414-8.962 0-12.376-3.414-3.414-8.96-3.414-12.375 0zM202.963 217.472l-37.125 37.125c-3.414 3.414-3.414 8.961 0 12.375 3.414 3.414 8.961 3.414 12.375 0l37.125-37.125c3.414-3.414 3.414-8.96 0-12.375-3.414-3.414-8.96-3.414-12.375 0zM295.773 149.412l-37.125 37.125c-3.414 3.414-3.414 8.961 0 12.375 3.414 3.414 8.961 3.414 12.375 0l37.125-37.125c3.414-3.414 3.414-8.96 0-12.375-3.414-3.414-8.96-3.414-12.375 0zM227.713 81.352l-30.938 30.938c-3.414 3.414-3.414 8.961 0 12.375 3.414 3.414 8.961 3.414 12.375 0l30.938-30.938c3.414-3.414 3.414-8.96 0-12.375-3.414-3.414-8.96-3.414-12.375 0zM382.393 75.164l-55.684 55.684c-3.414 3.414-3.414 8.961 0 12.375 3.414 3.414 8.961 3.414 12.375 0l43.31-43.309zM289.593 81.352l-37.125 37.125c-3.414 3.414-3.414 8.961 0 12.375 3.414 3.414 8.961 3.414 12.375 0l37.125-37.125c3.414-3.414 3.414-8.96 0-12.375-3.414-3.414-8.96-3.414-12.375 0zM363.833 31.855l-43.309 43.31c-3.414 3.413-3.414 8.96 0 12.374 3.414 3.414 8.961 3.414 12.375 0l43.31-43.309c3.413-3.414 3.413-8.96 0-12.375-3.415-3.414-8.962-3.414-12.376 0zM314.333 7.11l-43.309 43.308c-3.414 3.414-3.414 8.961 0 12.375 3.414 3.414 8.961 3.414 12.375 0l49.496-49.496-6.187-6.187c-3.414-3.414-8.961-3.414-12.375 0z"/></g></svg>