<svg xmlns="http://www.w3.org/2000/svg" xml:space="preserve" width="90" height="90" viewBox="0 0 90 90">
  <path
    d="M85.928 38.089c.09-.649.155-1.307.155-1.981 0-5.825-3.526-10.823-8.559-12.985.03-.379.058-.759.058-1.145 0-7.805-6.326-14.131-14.131-14.131-1.271 0-2.496.184-3.668.498C57.397 3.914 52.717.901 47.333.901c-5.504 0-10.262 3.154-12.594 7.747a11.152 11.152 0 0 0-4.108-.801c-4.79 0-8.849 3.017-10.455 7.242-.195-.01-.378-.058-.576-.058-6.192 0-11.213 5.021-11.213 11.214 0 .305.066.591.089.889C3.455 29.648 0 34.827 0 40.823c0 3.17.963 6.114 2.612 8.557.703 6.054 4.566 11.129 9.892 13.565.451-.728.928-1.348 1.424-1.873-4.827-2.004-8.405-6.481-9.041-11.957l-.063-.555-.312-.463a12.947 12.947 0 0 1-2.221-7.274c0-4.953 2.763-9.413 7.211-11.64l1.379-.69-.121-1.538a10.79 10.79 0 0 0-.055-.479c-.011-.077-.026-.154-.028-.231 0-4.902 3.975-8.894 8.871-8.922l.054.007c.15.021.3.04.456.048l1.666.086.593-1.56c1.333-3.502 4.596-5.766 8.314-5.766 1.09 0 2.189.216 3.266.642l1.941.767.945-1.86c2.034-4.005 6.077-6.493 10.551-6.493 4.362 0 8.36 2.391 10.431 6.239l.86 1.598 1.753-.472a11.9 11.9 0 0 1 3.074-.42c6.528 0 11.84 5.312 11.84 11.84 0 .308-.025.63-.051.962l-.131 1.639 1.511.648a11.835 11.835 0 0 1 7.171 10.88c0 .49-.042 1.018-.133 1.662l-.19 1.35 1.097.812c1.998 1.48 3.145 3.729 3.145 6.169a7.696 7.696 0 0 1-3.416 6.396l-.74.497-.211.868a15.353 15.353 0 0 1-14.967 11.792c-.189 0-.375-.027-.563-.034.53.505 1.109.742 1.86.742.062 0 .128-.003.192-.005l6.396-.281c4.608-2.305 8.075-6.55 9.311-11.677A9.985 9.985 0 0 0 90 46.1c0-3.294-1.613-6.191-4.072-8.011Zm-25.47 18.562c10.812-7.815 12.401-13.587 11.115-18.722-6.569 9.588-20.571 6.207-27.604 13.712-.018.003-.034 0-.052.003-1.548-6.141-7.091-8.099-12.333-11.483-2.761-1.782-4.525-6.083-7.401-7.351 0 0-5.12 14.334 5.411 21.94-4.778 7.898-11.116 2.73-15.211 9.508 2.803 1.271 5.765 2.003 8.944 2.003 4.681 0 9.831-1.587 15.628-5.367l.688-.014c-1.119 3.003-2.789 5.882-4.525 8.858-2.789 4.782-5.674 9.726-6.309 15.551a3.435 3.435 0 0 0 3.421 3.81 3.438 3.438 0 0 0 3.412-3.065c.477-4.37 2.873-8.479 5.411-12.831 2.281-3.91 4.604-7.926 5.868-12.514a6.67 6.67 0 0 1 1.144-.1c6.636 0 10.214 10.137 16.636 10.137 1.559 0 3.285-.598 5.264-2.08a7.396 7.396 0 0 1-.294.006c-5.276 0-5.622-6.494-9.213-12.001zm-.374-18.937a1.146 1.146 0 1 0 1.518 1.714 9.58 9.58 0 0 0 3.242-7.164 9.493 9.493 0 0 0-6.454-9.016c-.32-3.467-3.244-6.19-6.793-6.19a6.823 6.823 0 0 0-4.899 2.068 1.145 1.145 0 0 0 .013 1.62 1.13 1.13 0 0 0 1.457.098c.055-.039.115-.062.163-.11a4.555 4.555 0 0 1 3.267-1.384c2.498 0 4.53 2.034 4.535 4.549a1.147 1.147 0 0 0 .859 1.33 7.215 7.215 0 0 1 5.561 7.036c0 2.033-.869 3.98-2.383 5.365-.029.027-.055.058-.086.084z" />
</svg>