<?xml version="1.0" encoding="UTF-8" standalone="no"?>
<svg
   xmlns:dc="http://purl.org/dc/elements/1.1/"
   xmlns:cc="http://creativecommons.org/ns#"
   xmlns:rdf="http://www.w3.org/1999/02/22-rdf-syntax-ns#"
   xmlns:svg="http://www.w3.org/2000/svg"
   xmlns="http://www.w3.org/2000/svg"
   xmlns:sodipodi="http://sodipodi.sourceforge.net/DTD/sodipodi-0.dtd"
   xmlns:inkscape="http://www.inkscape.org/namespaces/inkscape"
   data-name="Layer 1"
   viewBox="0 0 88.464745 94.01059"
   x="0px"
   y="0px"
   version="1.1"
   id="svg10"
   sodipodi:docname="mangoes.svg"
   width="88.464745"
   height="94.01059"
   inkscape:version="0.92.3 (2405546, 2018-03-11)">
  <metadata
     id="metadata16">
    <rdf:RDF>
      <cc:Work
         rdf:about="">
        <dc:format>image/svg+xml</dc:format>
        <dc:type
           rdf:resource="http://purl.org/dc/dcmitype/StillImage" />
        <dc:title>01</dc:title>
      </cc:Work>
    </rdf:RDF>
  </metadata>
  <defs
     id="defs14" />
  <sodipodi:namedview
     pagecolor="#ffffff"
     bordercolor="#666666"
     borderopacity="1"
     objecttolerance="10"
     gridtolerance="10"
     guidetolerance="10"
     inkscape:pageopacity="0"
     inkscape:pageshadow="2"
     inkscape:window-width="684"
     inkscape:window-height="480"
     id="namedview12"
     showgrid="false"
     fit-margin-top="0"
     fit-margin-left="0"
     fit-margin-right="0"
     fit-margin-bottom="0"
     inkscape:zoom="2.0085106"
     inkscape:cx="59.650714"
     inkscape:cy="35.25"
     inkscape:window-x="0"
     inkscape:window-y="0"
     inkscape:window-maximized="0"
     inkscape:current-layer="svg10" />
  <title
     id="title2">01</title>
  <path
     d="m 88.416392,41.900588 -0.14,-0.4 a 1.89,1.89 0 0 0 0.18,-1 90.86,90.86 0 0 0 -2.56,-14.21 c -1.58,-5.73 -7.17,-18.0000004 -17,-23.5300004 a 21,21 0 0 0 -16.59,-1.83000001 21.43,21.43 0 0 0 -12.76,7.43000001 13.47,13.47 0 0 0 -2.53,-5.77 1.93,1.93 0 0 0 -1,-1 c -1.46,-0.76000001 -4.2,0.56 -5.09,1.76 a 1.66,1.66 0 0 0 0,2.14 c 0.81,1.39 2.46,5.0600004 1.74,7.4200004 a 24.64,24.64 0 0 0 -18.45,2.17 c -7.7099998,4.27 -12.6899998,12.39 -13.99999978,22.87 -1.56000002,11.75 5.67999998,24.49 9.99999978,32.06 a 38.53,38.53 0 0 1 3.05,6 c 3.25,11.44 9.33,18 16.68,18 v 0 c 15.89,0 40.62,-20.42 41.1,-45.59 0.33,-17.19 -4.23,-26.93 -15.73,-33.63 a 19.16,19.16 0 0 0 -11.56,-2.67 c 1.56,-1.87 4.33,-4.6300004 7.46,-5.1100004 a 17.46,17.46 0 0 0 11.34,10.3600004 c 4.39,1.36 6.7,5.57 9.15,10 2.16,3.92 4.39,8 8.22,10.22 l 5.43,4.52 a 1.89,1.89 0 0 0 1.21,0.44 h 0.16 a 0.91,0.91 0 0 0 1.69,-0.66 z m -20.42,-37.5500004 c 9.31,5.21 14.63,16.9500004 16.14,22.4200004 a 78.81,78.81 0 0 1 1.79,8.46 c -9.71,-23.86 -21.79,-31.1400004 -28.47,-33.3500004 a 19,19 0 0 1 10.54,2.47 z m -34.31,-0.83 a 2.62,2.62 0 0 1 1.53,-0.33 l 0.09,0.05 a 2.39,2.39 0 0 1 -1.06,0.9 2.23,2.23 0 0 1 -1.79,0.25 3.48,3.48 0 0 1 1.23,-0.87 z m -0.34,2.77 a 5.16,5.16 0 0 0 3,-1.45 15.21,15.21 0 0 1 1.61,8.7200004 c -0.63,0.26 -1.11,0.51 -1.43,0.68 -0.7,-0.31 -1.42,-0.57 -2.13,-0.82 0.7,-2.41 -0.24,-5.2900004 -1.05,-7.1300004 z m 21.07,10.0700004 c 10.85,6.32 15.14,15.6 14.83,32 -0.49,25.75 -25.77,43.81 -39.28,43.8 v 0 c -9.2,0 -13.5,-11.66 -14.93,-16.68 a 37.56,37.56 0 0 0 -3.22,-6.35 c -4.2199998,-7.42 -11.26999978,-19.83 -9.8299998,-31 1.23,-9.84 5.93,-17.48 13.0999998,-21.46 a 22.54,22.54 0 0 1 11,-2.83 24.28,24.28 0 0 1 10.13,2.26 0.91,0.91 0 0 0 0.86,-0.05 16.05,16.05 0 0 1 4.67,-1.76 0.91,0.91 0 0 0 0.37,-0.08 17.33,17.33 0 0 1 12.3,2.15 z m -13.2,-3.83 c -0.47,0.11 -0.92,0.23 -1.34,0.35 0,-0.51 0,-1.14 0,-1.87 a 19.6,19.6 0 0 1 10.74,-7.8100004 4.53,4.53 0 0 0 0,2.1 c -4.79,0.88 -8.5,5.8500004 -9.4,7.2300004 z m 39.83,23.63 -0.13,-0.09 c -3.43,-2 -5.55,-5.83 -7.6,-9.56 -2.52,-4.57 -5.1,-9.3 -10.22,-10.88 a 15.46,15.46 0 0 1 -10.33,-9.8000004 v 0 a 0.9,0.9 0 0 0 0,-0.11 c -0.76,-1.66 -0.22,-2.58 0.11,-2.95 1.23,0.09 5.84,0.72 11.61,4.89 6,4.3500004 14.53,13.5100004 21.45,32.5500004 z"
     id="path4"
     inkscape:connector-curvature="0" />
</svg>
