<?xml version="1.0" encoding="UTF-8" standalone="no"?>
<svg
   xmlns:dc="http://purl.org/dc/elements/1.1/"
   xmlns:cc="http://creativecommons.org/ns#"
   xmlns:rdf="http://www.w3.org/1999/02/22-rdf-syntax-ns#"
   xmlns:svg="http://www.w3.org/2000/svg"
   xmlns="http://www.w3.org/2000/svg"
   xmlns:sodipodi="http://sodipodi.sourceforge.net/DTD/sodipodi-0.dtd"
   xmlns:inkscape="http://www.inkscape.org/namespaces/inkscape"
   version="1.1"
   x="0px"
   y="0px"
   viewBox="0 0 85.307076 43.326931"
   enable-background="new 0 0 100 100"
   xml:space="preserve"
   id="svg16"
   sodipodi:docname="pigs.svg"
   width="85.307076"
   height="43.326931"
   inkscape:version="0.92.2 (5c3e80d, 2017-08-06)"><metadata
     id="metadata22"><rdf:RDF><cc:Work
         rdf:about=""><dc:format>image/svg+xml</dc:format><dc:type
           rdf:resource="http://purl.org/dc/dcmitype/StillImage" /><dc:title></dc:title></cc:Work></rdf:RDF></metadata><defs
     id="defs20" /><sodipodi:namedview
     pagecolor="#ffffff"
     bordercolor="#666666"
     borderopacity="1"
     objecttolerance="10"
     gridtolerance="10"
     guidetolerance="10"
     inkscape:pageopacity="0"
     inkscape:pageshadow="2"
     inkscape:window-width="2400"
     inkscape:window-height="1271"
     id="namedview18"
     showgrid="false"
     fit-margin-top="0"
     fit-margin-left="0"
     fit-margin-right="0"
     fit-margin-bottom="0"
     inkscape:zoom="1.888"
     inkscape:cx="-17.740886"
     inkscape:cy="16.66649"
     inkscape:window-x="-9"
     inkscape:window-y="2"
     inkscape:window-maximized="1"
     inkscape:current-layer="svg16" /><g
     id="g10"
     transform="translate(-7.3595298,-35.839558)"><g
       id="g8"><path
         d="m 91.72314,57.33594 c -0.59473,-0.09814 -2.54834,-1.73926 -3.38232,-2.44043 -0.72754,-0.61084 -1.146,-0.95898 -1.44873,-1.14355 -0.27588,-0.35107 -0.77246,-1.85938 -1.08105,-3.29492 -4.9e-4,-0.0024 -0.002,-0.0039 -0.0024,-0.0059 1.97803,-2.41748 2.48877,-5.94824 2.51611,-6.15088 0.04248,-0.31543 -0.06787,-0.63232 -0.29688,-0.85352 -0.229,-0.2207 -0.55029,-0.31787 -0.86328,-0.26611 -0.16309,0.02832 -2.60889,0.47119 -4.80029,2.00293 -0.11479,-0.20504 -0.2935,-0.37642 -0.53275,-0.46041 -0.89746,-0.31494 -22.12354,-7.72217 -35.44873,-8.38818 l -2.33398,-0.12109 c -4.16943,-0.21973 -8.48047,-0.44727 -12.74072,-0.35205 -4.27246,0.09424 -9.58936,0.21191 -13.3335,3.28027 -0.97656,0.80029 -1.80713,1.78125 -2.50635,2.86719 -0.28564,-0.06885 -0.58252,-0.14746 -0.89111,-0.24463 0.03369,-0.06055 0.06592,-0.11963 0.09619,-0.17676 l 0.07471,-0.13867 c 0.3916,-0.72461 1.30859,-2.42139 -0.26221,-3.73047 -1.21387,-1.01172 -2.21436,-0.97607 -2.84033,-0.76416 -0.92773,0.31104 -1.62402,1.19531 -1.91016,2.42578 -0.15479,0.66699 -0.03174,1.33545 0.35596,1.93311 0.31592,0.48633 0.80029,0.8999 1.354,1.24707 -0.12598,0.1123 -0.25391,0.21533 -0.38379,0.30859 -0.62744,0.45215 -1.49951,0.50537 -2.27539,0.14014 -0.49854,-0.23584 -1.09473,-0.02148 -1.33105,0.47852 -0.23535,0.49951 -0.021,1.09521 0.47852,1.33105 0.6123,0.28857 1.26367,0.43066 1.9043,0.43066 0.85742,0 1.69531,-0.25537 2.39258,-0.75732 0.43115,-0.31055 0.80908,-0.66211 1.13721,-1.0249 0.39648,0.14307 0.77393,0.25928 1.10303,0.35107 -1.28809,2.72266 -1.8833,5.81104 -1.8667,8.39111 0.0127,1.92969 0.38623,8.10645 4.47314,10.23633 -0.17139,1.31982 -0.49365,3.91309 -0.49365,4.7207 0,1.05811 0.33789,2.03711 0.66455,2.9834 0.24023,0.69678 0.46729,1.35498 0.53613,1.97949 0.20703,1.88477 0.44141,4.021 1.18652,6.19482 0.14209,0.41504 0.53027,0.67627 0.9458,0.67627 0.10742,0 0.2168,-0.01758 0.32422,-0.05469 0.52246,-0.17871 0.80078,-0.74756 0.62158,-1.27002 -0.62451,-1.82324 -0.8457,-3.53906 -1.08984,-5.76465 -0.09326,-0.84717 -0.36816,-1.64355 -0.63379,-2.41357 -0.28564,-0.82715 -0.55518,-1.6084 -0.55518,-2.33105 0,-0.68457 0.34326,-3.48438 0.57422,-5.19971 0.0625,-0.4668 -0.20898,-0.91455 -0.65234,-1.07422 -3.5752,-1.28711 -3.89014,-6.98193 -3.90137,-8.69629 -0.02393,-3.69189 1.41748,-8.86768 4.63818,-11.50732 3.21045,-2.63086 8.14502,-2.74023 12.10986,-2.82764 4.18359,-0.09326 8.45801,0.13232 12.59131,0.34961 l 2.33984,0.12109 c 12.18799,0.60938 31.8916,7.24902 34.57666,8.1709 -0.71094,0.77881 -1.30908,1.72119 -1.65234,2.87939 -0.15674,0.52979 0.14551,1.08594 0.6748,1.24316 0.52686,0.15576 1.08594,-0.14551 1.24316,-0.6748 0.74609,-2.51904 3.23779,-3.79443 4.87744,-4.37646 -0.47754,1.71631 -1.5332,4.33154 -3.62744,4.96924 -0.52832,0.16064 -0.82666,0.71924 -0.66553,1.24756 0.13135,0.43164 0.52734,0.70947 0.95605,0.70947 0.09668,0 0.19482,-0.01416 0.2915,-0.04395 0.41602,-0.12646 0.79199,-0.31201 1.14795,-0.52197 0.50684,1.97314 1.09082,3.16113 1.74219,3.52295 0.16406,0.09375 0.74219,0.5791 1.20654,0.96924 1.43604,1.20703 2.61426,2.16162 3.56543,2.6167 -0.09277,0.82812 -0.30518,1.59619 -0.4873,1.73633 -0.50635,0.12695 -0.94043,0.15723 -1.44336,0.19287 -0.58936,0.04199 -1.2583,0.08936 -2.07715,0.3125 -0.22559,0.06152 -0.42432,0.12451 -0.62207,0.18701 -0.95605,0.30371 -1.85889,0.59033 -6.67725,0.59033 -3.76074,0 -4.55713,-0.48877 -6.00195,-1.37549 l -0.4834,-0.29443 c -0.47363,-0.28467 -1.08838,-0.13184 -1.37207,0.34277 -0.28418,0.47363 -0.13086,1.08789 0.34277,1.37207 l 0.20117,0.12256 c -0.90381,0.16553 -1.82471,0.2915 -2.5415,0.31787 0.43408,-0.89551 0.87988,-1.78516 1.34375,-2.66504 0.25732,-0.48828 0.07031,-1.09326 -0.41846,-1.35107 -0.48779,-0.25635 -1.09326,-0.06982 -1.35107,0.41846 -0.53027,1.00586 -1.04492,2.02148 -1.53613,3.04639 -0.74219,1.54834 -1.271,3.22461 -1.61572,5.12451 -0.08057,0.44336 -0.18457,0.89062 -0.28857,1.34033 -0.32568,1.40723 -0.6626,2.8623 -0.41406,4.39648 0.22998,1.41748 0.83252,2.77637 1.79785,4.05908 L 66.00049,76.9165 H 66 c -0.55176,0 -0.99951,0.44727 -1,0.99951 -4.9e-4,0.55224 0.44727,1 0.99951,1.00049 l 3.23047,0.002 h 4.9e-4 c 0.14258,0 0.27734,-0.03174 0.3999,-0.08594 0.03027,-0.01318 0.05371,-0.03955 0.08252,-0.05566 0.09131,-0.05176 0.17725,-0.10889 0.24756,-0.18604 0.0088,-0.0093 0.02148,-0.01221 0.02979,-0.02197 0.03418,-0.04004 0.04785,-0.08887 0.07471,-0.13232 0.03467,-0.05518 0.07129,-0.10596 0.09473,-0.16748 0.02734,-0.07275 0.03516,-0.14697 0.04492,-0.22314 0.0059,-0.04346 0.02588,-0.08203 0.02588,-0.12695 0,-0.0098 -0.0054,-0.01758 -0.0054,-0.02734 -0.0024,-0.08105 -0.02588,-0.15771 -0.04736,-0.23584 -0.01318,-0.04688 -0.01562,-0.09668 -0.03516,-0.14014 -0.02393,-0.0542 -0.06641,-0.09863 -0.1001,-0.14893 -0.03906,-0.05664 -0.0708,-0.11768 -0.12012,-0.16553 -0.0049,-0.0044 -0.0063,-0.01025 -0.01074,-0.01465 -1.56787,-1.45898 -2.49658,-3.02295 -2.75977,-4.64893 -0.18604,-1.146 0.09277,-2.3501 0.38818,-3.62549 0.11133,-0.48096 0.22168,-0.95947 0.30762,-1.43359 0.19238,-1.05859 0.4541,-2.03027 0.77539,-2.94922 0.17725,0.01562 0.36328,0.02539 0.56299,0.02539 2.0166,0 5.00586,-0.73779 5.39209,-0.83496 0.08643,-0.02197 0.15723,-0.06934 0.23145,-0.11084 1.03613,0.29932 2.3667,0.45361 4.50293,0.45361 5.12842,0 6.1748,-0.33203 7.28271,-0.68408 0.17236,-0.05469 0.3457,-0.10986 0.54297,-0.16357 0.62988,-0.17188 1.14551,-0.2085 1.69238,-0.24707 0.5459,-0.03857 1.11084,-0.07861 1.78711,-0.24756 1.85303,-0.46338 2.03662,-3.46436 2.04883,-4.37354 0.0073,-0.54394 -0.39991,-0.99169 -0.94337,-1.01073 z M 12.98828,40.49854 12.90674,40.6504 c -0.06201,0.1167 -0.12646,0.23145 -0.19336,0.34326 -0.4292,-0.23926 -0.77051,-0.50049 -0.94482,-0.76953 -0.11377,-0.17578 -0.10791,-0.2915 -0.08496,-0.39062 0.13525,-0.58301 0.40527,-0.91846 0.59814,-0.98291 0.03027,-0.01025 0.06396,-0.01514 0.10059,-0.01514 0.20215,0 0.49951,0.1499 0.82324,0.41943 0.21191,0.17675 0.29101,0.30322 -0.21729,1.24365 z"
         id="path2"
         inkscape:connector-curvature="0" /><path
         d="m 62.89551,74.2124 c -0.42725,-2.05225 -1.79248,-6.27637 -2.72998,-7.68359 -1.29199,-1.93799 -1.77002,-4.63281 -1.4209,-8.00928 0.05713,-0.54932 -0.34229,-1.04102 -0.8916,-1.09766 -0.55322,-0.06201 -1.04053,0.34229 -1.09766,0.8916 -0.20215,1.95605 -0.14795,3.72607 0.15625,5.30225 -3.70508,0.64551 -17.3252,2.67139 -27.48828,-0.35352 0.52637,-0.64746 1.05225,-1.26416 1.57764,-1.83496 0.37402,-0.40625 0.34766,-1.03906 -0.05859,-1.41309 -0.40771,-0.37402 -1.04004,-0.34814 -1.41309,0.05859 -2.03076,2.20605 -4.06543,4.95703 -6.04736,8.17578 -1.86523,3.02979 -0.76367,5.99658 0.46387,8.66797 h -1.26367 c -0.55225,0 -1,0.44775 -1,1 0,0.55225 0.44775,1 1,1 h 2.83301 c 0.34082,0 0.65869,-0.17383 0.84229,-0.46094 0.18408,-0.2876 0.2085,-0.64844 0.06543,-0.95801 l -0.30908,-0.66357 c -1.23828,-2.64014 -2.4082,-5.13379 -0.92871,-7.53662 0.96973,-1.5752 1.95068,-3.02979 2.93506,-4.3584 4.52588,1.47656 9.68799,1.96045 14.4541,1.96045 6.78076,0 12.73633,-0.95605 14.87988,-1.34521 0.2793,0.75098 0.62451,1.44971 1.04736,2.08398 0.7085,1.06348 2.01465,4.9585 2.43604,6.98242 0.43652,2.09326 1.29004,3.8999 1.32617,3.97559 0.17139,0.35986 0.52979,0.57031 0.90332,0.57031 0.14404,0 0.29053,-0.03125 0.4292,-0.09717 0.49854,-0.2373 0.71045,-0.83398 0.47314,-1.33252 -0.0078,-0.01659 -0.78566,-1.66356 -1.17384,-3.5244 z"
         id="path4"
         inkscape:connector-curvature="0" /><circle
         cx="82.604248"
         cy="54.5625"
         r="1.1501499"
         id="circle6" /></g></g></svg>