<?xml version="1.0" encoding="UTF-8" standalone="no"?>
<svg
   xmlns:dc="http://purl.org/dc/elements/1.1/"
   xmlns:cc="http://creativecommons.org/ns#"
   xmlns:rdf="http://www.w3.org/1999/02/22-rdf-syntax-ns#"
   xmlns:svg="http://www.w3.org/2000/svg"
   xmlns="http://www.w3.org/2000/svg"
   xmlns:sodipodi="http://sodipodi.sourceforge.net/DTD/sodipodi-0.dtd"
   xmlns:inkscape="http://www.inkscape.org/namespaces/inkscape"
   version="1.1"
   x="0px"
   y="0px"
   viewBox="0 0 135.90956 150.00137"
   xml:space="preserve"
   id="svg12"
   sodipodi:docname="chicken.svg"
   width="135.90956"
   height="150.00137"
   inkscape:version="0.92.3 (2405546, 2018-03-11)"><metadata
     id="metadata18"><rdf:RDF><cc:Work
         rdf:about=""><dc:format>image/svg+xml</dc:format><dc:type
           rdf:resource="http://purl.org/dc/dcmitype/StillImage" /><dc:title></dc:title></cc:Work></rdf:RDF></metadata><defs
     id="defs16" /><sodipodi:namedview
     pagecolor="#ffffff"
     bordercolor="#666666"
     borderopacity="1"
     objecttolerance="10"
     gridtolerance="10"
     guidetolerance="10"
     inkscape:pageopacity="0"
     inkscape:pageshadow="2"
     inkscape:window-width="684"
     inkscape:window-height="480"
     id="namedview14"
     showgrid="false"
     fit-margin-top="0"
     fit-margin-left="0"
     fit-margin-right="0"
     fit-margin-bottom="0"
     inkscape:zoom="1.18"
     inkscape:cx="94.225305"
     inkscape:cy="54.999314"
     inkscape:window-x="0"
     inkscape:window-y="0"
     inkscape:window-maximized="0"
     inkscape:current-layer="svg12" /><g
     id="g6"
     transform="translate(-12.045882,-4.9979463)"><path
       d="m 85.377,92.746 c -1.074,0.061 -1.598,-0.088 -2.654,-0.245 3.076,-1.937 5.188,-6.794 5.432,-11.446 0.028,-0.543 -0.083,-1.085 -0.284,-1.589 v 0 c -0.284,-0.71 -1.439,-0.938 -1.685,-0.214 -1.925,5.686 -3.463,11.664 -13.455,11.664 -1.985,0 -3.862,-0.553 -5.473,-1.531 4.13,-0.778 7.495,-3.738 8.878,-7.642 0.409,-1.154 0.655,-2.385 0.686,-3.671 0.004,-0.179 -0.031,-0.359 -0.098,-0.526 v 0 c -0.31,-0.775 -1.477,-0.868 -1.763,-0.084 -1.871,5.129 -4.483,7.276 -9.864,7.276 -4.44,0 -7.554,-2.119 -9.452,-4.015 -0.723,-0.722 -1.954,0.012 -1.616,0.977 0.959,2.74 2.897,5.019 5.39,6.413 2.727,4.685 7.73,7.661 13.312,7.661 0.175,0 0.345,-0.021 0.519,-0.027 3.759,1.85 7.907,2.828 12.127,2.828 14.14,0 25.834,-10.747 27.442,-24.553 0.113,-0.971 -1.29,-1.586 -1.733,-0.714 -5.453,10.74 -11.525,18.633 -25.709,19.438 z"
       id="path2"
       inkscape:connector-curvature="0" /><path
       d="m 142.226,22.057 c 2.015,-1.164 2.208,-1.52 2.443,-1.922 0.361,-0.616 0.443,-1.353 0.228,-2.034 -0.184,-0.582 -0.361,-1.117 -2.185,-2.184 -1.991,-1.175 -3.439,-3.089 -4.002,-5.333 -0.272,-1.098 -1.253,-1.846 -2.351,-1.846 -0.165,0 -0.33,0.019 -0.495,0.048 -0.631,0.126 -1.263,0.194 -1.904,0.194 -2.302,0 -4.546,-0.845 -6.304,-2.409 l -1.078,-0.962 c -0.495,-0.437 -1.146,-0.66 -1.817,-0.602 -0.661,0.049 -1.273,0.379 -1.69,0.894 l -2.603,3.235 c -1.166,1.447 -2.953,2.254 -4.818,2.157 h -0.136 c -0.942,0 -1.807,0.486 -2.283,1.312 -1.059,1.836 -2.982,4.828 -2.982,4.828 -0.466,0.719 -0.515,1.642 -0.126,2.409 l 2.516,4.954 c -0.874,1.049 -1.642,2.176 -2.273,3.4 l -0.262,0.515 c -3.788,8.733 -11.948,14.921 -21.828,16.543 -4.828,0.787 -10.54,1.817 -16.32,3.419 -9.219,2.555 -18.981,1.545 -27.491,-2.846 l -1.03,-0.534 C 39.336,43.175 34.683,41.398 29.223,39.863 25.172,38.717 21.335,36.657 18.139,33.898 l -1.923,-1.661 c -1.137,-0.991 -2.914,-0.36 -3.186,1.117 l -0.457,2.497 c -1.389,7.558 -0.01,15.212 3.866,21.76 L 14.904,56.97 c -1.37,-0.573 -2.856,0.554 -2.671,2.04 l 0.311,2.487 c 1.36,10.938 8.228,19.448 17.757,22.722 L 27.9,84.296 c -1.224,0.029 -2.108,1.175 -1.836,2.37 l 0.389,1.719 c 0.952,4.235 5.071,5.663 8.072,6.713 l 0.593,0.204 c 7.684,2.72 14.008,8.461 17.34,15.747 1.127,2.477 2.671,4.711 4.595,6.645 4.255,4.284 10.142,6.742 16.164,6.742 h 0.136 l 2.477,-0.01 0.903,20.681 c 0.039,0.981 -0.661,1.836 -1.632,1.991 l -6.431,1.855 c -0.758,0.554 -0.359,1.758 0.573,1.758 h 3.837 c 2.817,0 5.605,0.554 8.199,1.632 l 6.46,2.574 c 1.001,0.418 1.826,-0.855 1.049,-1.593 l -3.507,-2.613 h 7.81 c 1.03,0 1.35,-1.379 0.437,-1.836 l -11.142,-1.758 c -0.971,-0.165 -1.661,-1.03 -1.613,-2.011 l 0.884,-17.757 c 0,-1.612 1.302,-2.914 2.914,-2.914 l 26.717,-2.36 c 1.311,-0.116 2.406,0.985 2.283,2.295 l -0.25,2.668 h -2.512 c -1.03,0 -1.352,1.393 -0.426,1.844 l 1.228,0.599 c 0.609,0.297 1.045,0.859 1.183,1.522 v 0 c 0.069,0.332 -0.132,0.661 -0.459,0.75 l -3.159,0.868 c -0.903,0.248 -0.967,1.504 -0.094,1.842 l 2.03,0.114 c 0.935,0.053 1.561,0.985 1.255,1.87 l -1.393,4.038 c -0.057,0.991 1.233,1.419 1.78,0.592 v 0 c 1.746,-2.639 3.561,-7.359 4.033,-10.488 l 1.443,-9.556 c 0,-1.875 -1.525,-3.4 -3.4,-3.4 H 99.658 c 0.534,-0.631 1.039,-1.311 1.496,-2.02 2.302,-3.565 5.79,-6.266 9.802,-7.587 l 5.158,-1.71 c 3.857,-1.273 7.441,-3.186 10.647,-5.702 7.286,-5.712 12.075,-14.289 13.124,-23.528 0.826,-7.237 -0.583,-14.426 -4.07,-20.798 l -2.973,-5.421 c 0.078,0 0.155,0.01 0.233,0.01 3.614,0 6.45,-3.439 6.45,-7.839 0,-0.845 -0.107,-1.651 -0.301,-2.409 0.69,0.36 1.341,0.816 1.923,1.38 l 2.506,2.409 c 0.495,0.476 1.302,0.311 1.564,-0.311 l 1.389,-3.177 c 0.389,-0.894 0.719,-1.816 0.933,-2.759 1.428,-6.341 -0.932,-12.238 -5.313,-16.114 z m -6.654,10.871 c -5.314,0 -9.743,3.886 -11.026,9.666 -0.738,3.342 -0.175,6.955 1.583,10.171 l 3.721,6.79 c 2.807,5.139 3.944,10.938 3.283,16.767 -0.845,7.441 -4.702,14.348 -10.569,18.943 -2.584,2.03 -5.469,3.575 -8.578,4.604 l -5.158,1.7 c -5.488,1.817 -10.239,5.489 -13.386,10.355 -2.283,3.536 -6.13,5.634 -10.326,5.634 l -11.803,0.078 c -4.255,0.058 -8.422,-1.7 -11.433,-4.731 -1.35,-1.36 -2.438,-2.943 -3.245,-4.682 C 54.545,99.267 46.803,92.224 37.38,88.892 l -0.223,-0.078 c 1.457,-1.098 2.662,-2.545 3.468,-4.235 0.602,-1.253 0.379,-2.749 -0.486,-3.827 -0.709,-0.894 -1.7,-1.515 -2.817,-1.758 L 35.369,78.557 C 28.462,77.314 23.09,72.699 20.603,66.074 c 3.245,0.427 6.576,-0.049 9.598,-1.438 l 1.37,-0.622 c 0.719,-0.33 0.777,-1.321 0.107,-1.719 -2.254,-1.35 -6.256,-3.915 -8.014,-6.139 l -0.583,-0.738 c -2.574,-3.808 -4.002,-8.17 -4.216,-12.657 2.671,1.574 5.547,2.807 8.51,3.652 5.022,1.409 9.248,3.021 12.939,4.925 l 1.03,0.534 c 10.035,5.178 21.546,6.373 32.426,3.361 5.469,-1.525 10.958,-2.506 15.601,-3.264 12.104,-1.991 22.129,-9.588 26.879,-20.351 0.049,-0.087 0.087,-0.175 0.126,-0.252 0.602,-1.166 1.37,-2.205 2.312,-3.128 2.001,-1.991 4.731,-3.351 7.694,-3.827 0.661,-0.107 1.428,-0.155 2.419,-0.155 h 1.117 c 6.033,0 10.977,4.352 11.23,9.772 -1.749,-0.721 -3.643,-1.1 -5.576,-1.1 z"
       id="path4"
       inkscape:connector-curvature="0" /></g></svg>