<svg xmlns="http://www.w3.org/2000/svg" width="716.775" height="716.775" viewBox="0 0 537.581 537.581"><path d="M398.085 526.707c-1.195-5.969-5.78-10.812-10.242-10.914-73.684-1.53-106.69-103.42-117.53-147.5.48-23.395 2.59-20.719 12.48-32.898 0 0 .223-.496.606-1.375 5.543-2.625 8.949-8.414 8.52-14.598 3.863-1.047 6.277-4.883 5.402-8.824-.504-2.246-1.997-3.95-3.891-4.945.168-.586.344-1.188.516-1.785 1.109.074 2.226.05 3.37-.207 6.485-1.43 10.587-7.88 9.141-14.367-.851-3.813-3.453-6.758-6.757-8.278.085-.398.16-.828.25-1.226 5.906-2.192 9.468-8.383 8.07-14.703-.485-2.203-1.563-4.106-2.969-5.676 5.582-3.43 8.7-10.074 7.2-16.82-.864-3.89-3.13-7.063-6.09-9.246.093-1.668.16-3.36.222-5.051 5.418-2.129 8.648-7.902 7.356-13.762-.809-3.61-3.192-6.434-6.235-8.02a11.213 11.213 0 0 0-.129-3.14c2.664-2.633 3.97-6.516 3.098-10.434-.758-3.422-3.012-6.086-5.906-7.559-3.696-25.44-12.246-17.05-18.2-7.011-3.98 1.308-6.421 5.402-5.48 9.59.055.261.16.492.242.742-.671 1.535-1.07 2.527-1.07 2.527s-1.082-3.266-2.508-9.485c.391-1.468.493-3.03.137-4.617-.023-.113-.082-.21-.105-.316a8.25 8.25 0 0 0 .988-6.055c-.324-1.46-1.04-2.719-1.98-3.754 4.574-2.226 7.222-7.347 6.074-12.539-.618-2.77-2.223-5.027-4.336-6.59 5.843-3.078 9.183-9.73 7.68-16.484-1.477-6.656-7.157-11.227-13.622-11.68 4.977-1.375 8.094-6.382 6.957-11.484-.672-3.062-2.73-5.418-5.351-6.671 1.449-1.731 2.203-4.012 1.672-6.383a7.54 7.54 0 0 0-1.168-2.633c.324-.02.64.055.957-.02a6.01 6.01 0 0 0 4.574-7.187c-.442-1.98-1.856-3.41-3.59-4.137 1.063-1.363 1.598-3.125 1.195-4.945-.523-2.34-2.363-4.008-4.562-4.512.398-.031.8-.05 1.2-.144a9.006 9.006 0 0 0 6.862-10.758c-.734-3.317-3.23-5.762-6.277-6.656.063-.497.129-.997.207-1.493 6.613-2.738 10.523-9.882 8.934-17.117-.711-3.199-2.414-5.898-4.68-7.925.04-.192.082-.387.125-.579.86-.02 1.723-.117 2.594-.312 7.305-1.617 11.91-8.856 10.285-16.148C290.704 3.31 283.473-1.3 276.16.326c-5.059 1.125-8.742 4.96-10.043 9.613-1.594.262-3.266.574-5.035.942-2.602-3.223-6.864-4.915-11.18-3.95-4.934 1.094-8.336 5.278-8.75 10.055-1.094.442-2.203.895-3.317 1.387-2.851-1.45-6.168-2.016-9.539-1.27-5.719 1.278-9.844 5.813-10.902 11.2-2.824-.997-5.941-1.282-9.086-.586-8.93 1.949-14.527 10.785-12.543 19.703.063.297.192.566.281.859a144.232 144.232 0 0 0-4.742 5.29c-1.12-.071-2.246-.044-3.39.21-6.493 1.438-10.566 7.86-9.13 14.344.114.504.305.957.473 1.43-.789 1.195-1.554 2.469-2.332 3.715a9.751 9.751 0 0 0-5.574-.407c-5.277 1.164-8.582 6.39-7.406 11.668.516 2.34 1.86 4.262 3.629 5.606a211.819 211.819 0 0 0-2.762 5.812c-1.418-.632-2.98-.953-4.61-.59-4.07.903-6.612 4.922-5.718 8.981.379 1.691 1.375 3.031 2.606 4.059-.051.008-.106.008-.157.02-4.851 1.081-7.945 5.897-6.87 10.77.585 2.6 2.253 4.66 4.41 5.874-1.126 1.05-1.735 2.606-1.376 4.23.22 1.032.829 1.848 1.586 2.465-.02.23-.054.418-.074.649-5.844 4.48-8.941 12.059-7.238 19.71.816 3.645 2.636 6.782 5.058 9.29-3.125 1.73-4.898 5.328-4.082 9.004.743 3.316 3.391 5.723 6.54 6.328.019.191.05.398.062.59-.422 1.492-.535 3.097-.176 4.722.18.829.492 1.586.863 2.31.055.503.094.964.145 1.468-.617-.082-1.219-.156-1.855-.149.285-1.109.39-2.265.128-3.453-.894-4.05-4.914-6.613-8.96-5.707-4.06.895-6.614 4.922-5.711 8.965.535 2.375 2.191 4.133 4.242 5.078-2.59 3.11-3.801 7.305-2.863 11.562 1.183 5.344 5.394 9.223 10.434 10.277.304 1.153.62 2.32.94 3.516-.808 2.39-1.038 5.008-.448 7.648.66 2.98 2.215 5.52 4.304 7.43-1.742 3.863-2.363 8.27-1.375 12.71 1.477 6.673 6.098 11.798 11.945 14.267.075.18.157.367.23.547-1.46 3.172-1.991 6.793-1.175 10.473 1.047 4.699 4.02 8.437 7.883 10.672-.238.777-.348 1.594-.16 2.445.535 2.406 2.793 3.914 5.183 3.734.008.168-.023.329.02.512.23 1.047 1.094 1.75 2.09 1.871-1.184 1.145-1.825 2.793-1.43 4.524.527 2.394 2.758 3.914 5.152 3.734 0 .168-.031.328.012.512.238 1.082 1.137 1.785 2.18 1.87-1.848 1.43-2.844 3.813-2.309 6.235a6.21 6.21 0 0 0 7.41 4.715c.063-.012.114-.062.176-.074.055.633.086 1.262.223 1.91 1.445 6.465 6.87 10.965 13.098 11.63-.063 1.03-.04 2.077.191 3.136 1.188 5.383 6.047 8.992 11.363 8.812.05.575.074 1.145.191 1.711 1.63 7.305 8.86 11.898 16.164 10.277.536-.125 1.02-.328 1.52-.496l22.594 22.98c10.461 48.148 45.188 165.96 134.85 167.88h.129c4.5-.008 7.148-4.867 5.937-10.87zm-120.66-277.91a6.757 6.757 0 0 1 8.07 5.13c.81 3.663-1.456 7.265-5.128 8.081-3.645.817-7.254-1.492-8.07-5.133-.813-3.644 1.496-7.27 5.128-8.078zm-105.02-42.918c-3.644.817-7.254-1.492-8.062-5.14-.817-3.64 1.488-7.262 5.129-8.07 3.64-.801 7.254 1.492 8.07 5.132.805 3.668-1.492 7.277-5.137 8.078zm84.348-182.02a6.751 6.751 0 0 1 8.07 5.153c.82 3.644-1.468 7.242-5.14 8.054-3.621.817-7.254-1.492-8.059-5.133-.812-3.64 1.508-7.261 5.13-8.074zm-3.933 114.1a6.784 6.784 0 0 1-8.07-5.133c-.801-3.66 1.488-7.28 5.132-8.082a6.752 6.752 0 0 1 8.07 5.145 6.751 6.751 0 0 1-5.132 8.07zm-3.883-59.223c3.629-.8 7.254 1.504 8.05 5.153a6.75 6.75 0 0 1-5.128 8.07 6.731 6.731 0 0 1-8.059-5.14 6.766 6.766 0 0 1 5.137-8.083zM235.3 173.427c3.64-.816 7.25 1.492 8.062 5.133.801 3.652-1.488 7.262-5.132 8.078-3.641.817-7.254-1.488-8.063-5.152-.816-3.629 1.48-7.246 5.133-8.059zm-40.121-48.852c-3.645.809-7.254-1.492-8.07-5.144-.809-3.645 1.504-7.254 5.129-8.07 3.644-.81 7.265 1.492 8.078 5.132.812 3.653-1.504 7.274-5.137 8.082zm11.789 146.79c-3.645.809-7.254-1.5-8.07-5.14-.801-3.64 1.492-7.266 5.132-8.078a6.78 6.78 0 0 1 8.102 5.14c.813 3.649-1.512 7.27-5.164 8.078zm2.398-124.53c-3.66.817-7.25-1.492-8.062-5.133a6.761 6.761 0 0 1 5.129-8.078 6.782 6.782 0 0 1 8.07 5.145c.809 3.652-1.496 7.25-5.137 8.066zm11.418-87.258c3.672-.808 7.293 1.492 8.09 5.133.82 3.64-1.488 7.262-5.16 8.078-3.645.801-7.254-1.492-8.059-5.133-.816-3.644 1.489-7.261 5.13-8.078zm3.246 167.18a6.76 6.76 0 1 1-2.938-13.2 6.775 6.775 0 0 1 8.079 5.134c.8 3.648-1.508 7.262-5.14 8.066zm12.223 96.648a6.791 6.791 0 0 1-8.078-5.152c-.816-3.645 1.493-7.254 5.14-8.059 3.634-.816 7.255 1.493 8.06 5.13.812 3.644-1.497 7.265-5.122 8.081zm14.926-109.6a6.764 6.764 0 0 1-8.058-5.144c-.817-3.653 1.492-7.254 5.14-8.063 3.633-.808 7.254 1.492 8.051 5.133.817 3.656-1.488 7.258-5.133 8.074zm12.06 82.04c-3.645.816-7.254-1.493-8.07-5.141-.802-3.633 1.491-7.266 5.128-8.07a6.755 6.755 0 0 1 8.07 5.128 6.753 6.753 0 0 1-5.129 8.082z"/></svg>