<?xml version="1.0" encoding="UTF-8" standalone="no"?>
<svg
   xmlns:dc="http://purl.org/dc/elements/1.1/"
   xmlns:cc="http://creativecommons.org/ns#"
   xmlns:rdf="http://www.w3.org/1999/02/22-rdf-syntax-ns#"
   xmlns:svg="http://www.w3.org/2000/svg"
   xmlns="http://www.w3.org/2000/svg"
   xmlns:sodipodi="http://sodipodi.sourceforge.net/DTD/sodipodi-0.dtd"
   xmlns:inkscape="http://www.inkscape.org/namespaces/inkscape"
   version="1.1"
   x="0px"
   y="0px"
   viewBox="0 0 81.761566 89.999039"
   enable-background="new 0 0 100 100"
   xml:space="preserve"
   id="svg14"
   sodipodi:docname="soya-beans.svg"
   width="81.761566"
   height="89.999039"
   inkscape:version="0.92.2 (5c3e80d, 2017-08-06)"><metadata
     id="metadata20"><rdf:RDF><cc:Work
         rdf:about=""><dc:format>image/svg+xml</dc:format><dc:type
           rdf:resource="http://purl.org/dc/dcmitype/StillImage" /><dc:title></dc:title></cc:Work></rdf:RDF></metadata><defs
     id="defs18" /><sodipodi:namedview
     pagecolor="#ffffff"
     bordercolor="#666666"
     borderopacity="1"
     objecttolerance="10"
     gridtolerance="10"
     guidetolerance="10"
     inkscape:pageopacity="0"
     inkscape:pageshadow="2"
     inkscape:window-width="2400"
     inkscape:window-height="1271"
     id="namedview16"
     showgrid="false"
     fit-margin-top="0"
     fit-margin-left="0"
     fit-margin-right="0"
     fit-margin-bottom="0"
     inkscape:zoom="5.3400704"
     inkscape:cx="9.3164082"
     inkscape:cy="-2.1629506"
     inkscape:window-x="-9"
     inkscape:window-y="2"
     inkscape:window-maximized="1"
     inkscape:current-layer="svg14" /><path
     d="m 73.05716,8.8390417 c -0.203,-0.684 -0.755,-1.207 -1.447,-1.375 -0.696,-0.167 -1.424,0.047 -1.916,0.562 -2.844,2.9770003 -6.185,5.1150003 -9.415,7.1830003 -2.694,1.725 -5.231,3.368 -7.317,5.373 -0.47,-3.862 -2.277,-7.57 -5.97,-10.297 -3.688,-2.7230003 -7.065,-6.0830003 -9.513,-9.45900025 -0.418,-0.578 -1.112,-0.887 -1.821,-0.816 -0.71,0.072 -1.327,0.517 -1.62,1.16699995 -1.493,3.305 -3.653,6.069 -5.741,8.742 -1.839,2.3540003 -3.576,4.5780003 -4.747,7.0200003 -2.417,5.043 -2.448,10.703 -0.111,15.262 -0.085,2.073 -0.687,4.09 -1.753,5.869 -1.171,1.373 -2.164,2.901 -2.952,4.545 -0.789,1.645 -1.359,3.376 -1.696,5.148 -0.718,1.946 -1.914,3.677 -3.479,5.04 -5.0200003,1.031 -9.4140003,4.6 -11.8310003,9.64 -0.719,1.497 -1.274,3.427 -1.699,5.9 -0.187,1.089 0.545,2.122 1.634,2.31 0.114,0.02 0.228,0.029 0.34,0.029 0.957,0 1.802,-0.688 1.97,-1.663 0.36,-2.103 0.806,-3.687 1.362,-4.845 1.943,-4.053 5.4710003,-6.867 9.4360003,-7.528 0.339,-0.057 0.657,-0.199 0.925,-0.415 2.365,-1.902 4.15,-4.417 5.165,-7.271 0.036,-0.102 0.063,-0.205 0.083,-0.312 0.269,-1.479 0.739,-2.927 1.399,-4.303 0.658,-1.375 1.492,-2.647 2.479,-3.784 0.071,-0.082 0.135,-0.169 0.191,-0.261 1.59,-2.578 2.433,-5.543 2.438,-8.577 10e-4,-0.344 -0.088,-0.683 -0.256,-0.982 -1.966,-3.505 -1.979,-8.018 -0.036,-12.072 0.983,-2.051 2.59,-4.108 4.292,-6.286 1.563,-2.002 3.281,-4.2000003 4.753,-6.7090003 2.396,2.832 5.261,5.5020003 8.413,7.8320003 4.63,3.419 5.137,8.669 3.972,13.094 -0.524,1.103 -0.938,2.241 -1.241,3.398 -0.017,0.057 -0.032,0.113 -0.045,0.17 -0.556,2.212 -0.703,4.49 -0.391,6.725 -0.88,2.242 -2.313,4.222 -4.17,5.758 -1.746,1.012 -3.36,2.255 -4.8,3.695 -1.443,1.441 -2.688,3.058 -3.701,4.804 -1.533,1.857 -3.514,3.291 -5.758,4.171 -0.761,-0.106 -1.539,-0.159 -2.319,-0.159 -4.964,0 -9.96,2.15 -13.709,5.9 -2.7910003,2.791 -4.9710003,7.359 -6.8940003,11.389 -1.277,2.676 -2.724,5.707 -3.668,6.479 -0.541,0.442 -0.812,1.136 -0.714,1.827 0.098,0.692 0.55,1.283 1.192,1.559 2.663,1.143 7.7740003,3.754 10.5210003,5.158 0.925,0.473 1.616,0.826 1.923,0.975 2.117,1.028 4.45,1.55 6.93,1.55 4.966,0 9.971,-2.156 13.733,-5.92 0.53,-0.531 1.051,-1.127 1.595,-1.815 1.675,-1.972 3.83,-3.437 6.262,-4.259 1.586,0.447 3.252,0.674 4.961,0.674 5.553,0 11.149,-2.412 15.355,-6.617 5.583,-5.582 7.875,-13.487 5.944,-20.32 0.822,-2.428 2.283,-4.581 4.201,-6.212 0.742,-0.585 1.339,-1.108 1.877,-1.646 6.196,-6.196 7.891,-15.157 4.028,-21.305 -3.273,-5.216 -5.447,-9.71 -6.644,-13.7400003 z m -0.211,32.2160003 c -0.424,0.423 -0.907,0.846 -1.581,1.378 -2.717,2.309 -4.681,5.328 -5.682,8.732 -0.113,0.387 -0.107,0.799 0.017,1.182 1.801,5.556 -0.073,12.184 -4.776,16.886 -3.462,3.462 -8.027,5.446 -12.527,5.446 -1.518,0 -2.982,-0.225 -4.356,-0.67 -0.384,-0.124 -0.795,-0.131 -1.18,-0.017 -3.408,1.001 -6.429,2.966 -8.78,5.736 -0.49,0.62 -0.915,1.106 -1.332,1.525 -3.017,3.017 -6.991,4.746 -10.904,4.746 -1.87,0 -3.614,-0.387 -5.184,-1.15 -0.294,-0.143 -0.96,-0.483 -1.852,-0.939 -2.258,-1.154 -5.6680003,-2.896 -8.4010003,-4.193 0.913,-1.465 1.821,-3.368 2.859,-5.545 1.7850003,-3.739 3.8080003,-7.978 6.1120003,-10.283 3.005,-3.006 6.971,-4.729 10.881,-4.729 0.74,0 1.475,0.062 2.184,0.186 0.339,0.061 0.686,0.031 1.01,-0.084 3.18,-1.123 5.978,-3.1 8.092,-5.718 0.068,-0.084 0.129,-0.173 0.182,-0.267 0.852,-1.492 1.907,-2.873 3.139,-4.104 1.229,-1.229 2.609,-2.284 4.102,-3.135 0.094,-0.054 0.184,-0.115 0.268,-0.183 2.617,-2.117 4.594,-4.915 5.716,-8.091 0.114,-0.324 0.144,-0.671 0.085,-1.009 -0.32,-1.836 -0.227,-3.727 0.229,-5.568 0.462,-0.996 0.847,-2.043 1.152,-3.123 0.783,-1.571 1.843,-3.056 3.162,-4.374 1.832,-1.832 4.32,-3.424 6.954,-5.11 2.496,-1.598 5.246,-3.358 7.82,-5.58 1.369,3.561 3.368,7.419 6.06,11.707 2.833,4.508 1.341,11.537 -3.469,16.348 z"
     id="path2"
     inkscape:connector-curvature="0" /><path
     d="m 66.38216,22.195042 c -3.057,0 -6.193,1.383 -8.604,3.794 -2.192,2.193 -3.565,5.062 -3.768,7.869 -0.107,1.487 0.035,4.305 2.198,6.466 1.839,1.839 4.133,2.225 5.733,2.225 3.057,0 6.192,-1.383 8.604,-3.794 2.021,-2.021 3.332,-4.584 3.69,-7.217 0.381,-2.795 -0.393,-5.39 -2.122,-7.119 -1.836,-1.838 -4.129,-2.224 -5.731,-2.224 z m 3.892,8.803 c -0.238,1.746 -1.17,3.542 -2.556,4.929 -1.667,1.667 -3.772,2.623 -5.775,2.623 -0.845,0 -2.034,-0.183 -2.906,-1.054 -1.037,-1.036 -1.094,-2.542 -1.035,-3.349 0.134,-1.864 1.084,-3.807 2.605,-5.329 1.667,-1.667 3.771,-2.623 5.775,-2.623 0.845,0 2.034,0.183 2.903,1.053 0.851,0.85 1.201,2.182 0.989,3.75 z"
     id="path4"
     inkscape:connector-curvature="0" /><path
     d="m 53.30916,46.968042 c -3.648,0 -7.383,1.642 -10.243,4.504 -2.64,2.639 -4.228,5.965 -4.474,9.365 -0.224,3.117 0.733,5.912 2.695,7.873 2.255,2.254 5.047,2.727 6.993,2.727 3.647,0 7.381,-1.642 10.244,-4.504 2.639,-2.639 4.227,-5.964 4.473,-9.363 0.225,-3.113 -0.731,-5.91 -2.694,-7.873 -2.255,-2.257 -5.048,-2.729 -6.994,-2.729 z m 5.698,10.312 c -0.176,2.441 -1.352,4.865 -3.311,6.824 -2.118,2.117 -4.821,3.332 -7.416,3.332 -1.19,0 -2.879,-0.27 -4.165,-1.555 -1.129,-1.128 -1.673,-2.817 -1.533,-4.758 0.176,-2.441 1.353,-4.865 3.312,-6.824 2.117,-2.117 4.819,-3.332 7.415,-3.332 1.19,0 2.879,0.27 4.165,1.557 1.129,1.129 1.674,2.819 1.533,4.756 z"
     id="path6"
     inkscape:connector-curvature="0" /><path
     d="m 26.18516,62.394042 c -3.061,0 -6.197,1.383 -8.604,3.793 -2.021,2.021 -3.332,4.584 -3.691,7.217 -0.381,2.795 0.393,5.391 2.122,7.119 1.838,1.838 4.134,2.225 5.735,2.225 3.057,0 6.192,-1.381 8.603,-3.791 2.021,-2.021 3.332,-4.586 3.69,-7.219 0.381,-2.795 -0.393,-5.391 -2.123,-7.119 -1.84,-1.84 -4.133,-2.225 -5.732,-2.225 z m 3.891,8.804 c -0.238,1.746 -1.17,3.543 -2.556,4.93 -1.665,1.664 -3.771,2.619 -5.774,2.619 -0.846,0 -2.036,-0.183 -2.906,-1.053 -0.851,-0.851 -1.201,-2.183 -0.987,-3.75 0.237,-1.746 1.169,-3.543 2.557,-4.93 1.664,-1.666 3.769,-2.621 5.775,-2.621 0.844,0 2.033,0.183 2.903,1.053 0.851,0.851 1.201,2.184 0.988,3.752 z"
     id="path8"
     inkscape:connector-curvature="0" /></svg>