<svg xmlns="http://www.w3.org/2000/svg" width="746.672" height="746.672" viewBox="0 0 560.004 560.004"><path fill-rule="evenodd" d="M263.274 413.843c-5.281-10.566-14.09-31.7-65.156-24.652-58.113 8.804-84.527-26.414-84.527-26.414s3.523 59.875 42.266 72.203c36.98 12.328 84.527-15.848 105.66-17.61-12.328-5.28-28.176-7.042-45.785-1.761-42.266 12.328-73.961-10.566-81.008-22.895 24.652 19.371 56.352 21.133 86.289 12.328 14.09-5.281 29.938 0 42.266 8.805zM282.644 406.793c3.523-12.328 8.805-33.461 59.875-36.98 58.113-3.524 77.484-42.266 77.484-42.266s8.805 59.875-26.414 79.246c-33.461 19.37-86.29 1.761-107.42 3.523 10.566-7.043 26.414-12.328 44.023-10.566 44.023 3.524 70.44-26.414 75.723-38.742-21.133 22.895-52.832 31.7-82.766 28.176-14.09-1.762-28.176 7.043-40.504 17.61z"/><path fill-rule="evenodd" d="m245.664 308.183-5.281 5.281c-7.043 107.42 81.008 77.484 8.804 246.54h28.176c59.875-165.54-40.504-154.97-29.938-244.78l-1.761-7.043zM312.584 235.983c-5.281 3.523-12.328 5.28-17.61 5.28l-7.042-5.28 12.328-12.328 12.328 12.328zM335.474 221.893c-3.524 3.523-8.805 7.043-12.328 10.566l-15.848-15.848 12.328-12.328zM353.084 200.753c-3.524 3.523-7.043 8.804-10.566 12.328l-15.848-15.848 10.566-12.328zM360.124 170.823c0 5.28-1.762 12.328-3.524 17.609l-10.566-10.566L356.6 167.3zM272.074 235.983l-5.281 5.28c-5.282-1.76-10.566-1.76-15.848-5.28l12.328-10.566 8.804 10.566zM291.454 216.613l-10.566 10.562-10.562-10.562 12.324-10.566zM310.824 197.233l-10.566 10.562-10.566-8.805 10.566-12.324zM330.194 177.863l-10.566 12.324-10.566-10.566 10.566-12.324zM349.564 158.493l-12.324 12.324-8.809-10.566 10.566-12.324zM354.844 133.843c1.762 5.281 3.523 10.566 5.281 15.848l-3.523 1.761-8.805-10.566 7.043-7.043zM257.994 89.815c5.281-1.762 12.328-3.524 19.37-3.524L266.8 98.62zM233.334 102.143c3.523-3.524 8.805-5.281 14.09-8.805l12.328 12.328-12.328 12.328-14.09-15.848zM215.724 123.273c1.762-5.281 5.281-8.805 8.805-12.328l15.848 14.09-12.328 12.328-12.328-14.09zM205.164 151.453c0-7.043 1.762-12.328 5.281-17.61l10.566 10.567-12.328 10.566-3.523-3.524zM293.214 86.292c7.043 1.761 12.328 1.761 17.609 5.281l-7.043 5.281-10.566-10.566zM273.844 105.663l12.328-10.566 10.566 10.566-12.328 10.566zM254.464 125.033l12.328-10.566 10.566 8.804L265.03 135.6zM235.094 144.403l12.328-12.328 10.566 10.566-12.328 12.328zM217.484 163.773l10.566-12.328 10.566 10.566-12.328 12.328zM208.684 191.953c-1.762-5.281-3.524-10.566-3.524-15.848l3.524-5.281 10.566 10.566-10.566 10.566zM310.824 105.663l10.566-10.566c3.523 3.523 7.043 5.281 12.328 8.804L321.39 116.23zM291.454 123.273l12.328-10.566 10.566 10.566-12.328 10.566zM272.074 142.643l12.328-10.566 10.566 10.566-12.328 10.566zM254.464 162.013l10.566-10.566 10.566 8.804-12.328 12.328zM235.094 181.383l10.566-12.328 10.566 10.566-10.566 12.328zM221.014 214.843c-1.762-3.524-5.281-8.805-7.043-12.328l12.328-14.09 10.566 10.566zM254.464 216.613l-14.09 14.09c-3.524-1.762-7.043-5.281-10.566-8.805l14.09-15.848 10.566 10.566zM273.844 198.993l-10.566 10.566-10.566-10.566 10.566-10.566zM293.214 179.623l-10.566 10.566-10.566-10.566 10.566-10.566zM312.584 160.253l-12.328 10.566-8.805-8.805 10.566-12.328zM331.954 140.883l-12.328 12.328-10.566-10.566 12.328-12.324zM340.754 110.953c3.523 5.281 5.281 8.804 8.805 12.328l-10.566 10.566-10.566-10.566z"/><path d="M247.424 36.983c3.523-8.805 5.281-15.848 10.566-21.133 14.09-21.133 36.98-21.133 51.07 0 3.523 7.043 5.281 12.328 7.043 21.133 7.043-7.043 12.328-10.566 19.37-14.09 22.896-10.566 42.267 0 44.024 26.414 0 7.043-1.762 14.09-3.524 21.133 8.805-1.762 15.848-1.762 22.895-1.762 24.652 1.762 36.98 21.133 24.652 44.023-3.523 7.043-7.043 12.328-14.09 17.609 8.805 1.762 15.848 5.281 21.133 8.805 21.133 14.09 21.133 36.98 0 51.07-5.28 3.523-12.328 7.043-19.37 8.804 5.28 5.282 8.804 12.328 12.327 17.61 10.566 22.894 0 44.022-26.414 44.022-7.043 0-14.09 0-21.133-3.523 1.762 8.805 3.524 15.848 1.762 22.895-1.762 26.414-21.133 36.98-44.023 24.652-5.281-1.762-12.328-7.043-17.609-12.328-1.762 7.043-5.281 15.848-8.805 21.133-14.09 21.133-36.98 21.133-51.07-1.762-3.523-5.28-5.28-12.328-7.043-19.37-7.043 5.28-12.328 10.565-19.37 14.09-22.896 10.565-42.267-1.762-44.024-26.415 0-7.043 1.762-14.09 3.524-21.133-8.805 1.762-15.848 1.762-22.895 1.762-26.414-1.762-36.98-22.895-24.652-45.785 3.523-5.281 7.043-10.566 12.328-15.848-7.043-1.762-14.09-5.281-21.133-8.805-19.371-15.848-19.371-38.742 1.762-52.832 5.28-3.523 12.328-5.28 19.37-7.043-5.28-5.28-10.565-12.328-12.327-19.37-12.328-22.896 0-42.267 26.414-44.024 5.28 0 12.328 1.762 21.133 3.524-1.762-7.043-3.524-15.848-3.524-22.895 3.524-24.652 22.895-36.98 45.785-24.652 5.281 3.523 10.566 8.804 15.848 14.09zm-33.461 59.875c-14.09-7.043-29.938-15.848-45.785-15.848-15.848 0-21.133 10.566-14.09 24.652 7.043 15.848 22.895 24.652 36.98 35.219-17.61 0-35.22 0-49.31 8.804-14.09 8.805-12.327 19.371 0 28.176 14.09 10.566 31.7 10.566 49.31 12.328-14.09 8.805-29.938 17.61-36.98 31.7-8.805 14.09-1.762 22.894 12.328 24.651 17.609 1.762 33.46-7.043 49.309-14.09-7.043 14.09-17.61 29.938-15.848 45.785 0 15.848 10.566 21.133 24.652 15.848 15.848-8.804 24.652-24.652 33.46-36.98 1.763 15.848 1.763 33.461 10.567 47.547 7.043 14.09 19.37 14.09 28.176 0 8.805-14.09 8.805-31.699 10.566-49.309 8.805 14.09 17.609 29.938 33.46 38.742 14.09 7.043 22.896 1.762 24.653-14.09 0-17.609-8.805-33.46-15.848-49.309 15.848 7.043 29.938 17.61 47.547 15.848 15.848 0 21.133-10.566 14.09-22.895-7.043-15.848-22.895-26.414-36.98-35.219 15.848-1.761 35.219 0 49.309-8.804 12.328-8.805 12.328-19.371 0-29.938-14.09-8.805-33.461-8.805-49.31-10.566 14.09-8.805 29.939-17.61 36.98-31.7 8.806-14.09 1.763-24.651-14.09-24.651-17.608-1.762-33.46 7.043-47.546 14.09 7.043-14.09 15.848-29.938 15.848-47.547 0-14.09-10.566-21.133-24.652-14.09-15.848 7.043-24.652 22.895-35.22 36.98 0-15.848 0-35.22-8.804-49.31-8.805-12.327-19.37-12.327-28.176 0-10.566 14.09-10.566 33.462-12.328 49.31-8.805-12.328-15.848-28.176-31.699-36.98-14.09-7.043-22.895-1.762-24.652 14.09-1.762 17.609 7.043 33.46 14.09 47.547z"/></svg>