<svg xmlns="http://www.w3.org/2000/svg" viewBox="0 0 128 128"><path d="M115.9532 37.084112c-.4321.265363-1.24259-3.615608-3.40986-4.760577C102.30932 21.799862 92.218419 11.123271 81.894985.695125 78.89155-.66150817 75.380549.28098819 72.152064 0 57.046501.05475944 41.92953-.10950846 26.831096.08210789 22.685632 1.1366795 23.894146 5.913586 23.716773 9.0909597V47.494822h7.800778V8.131346h44.30843c.05338 10.043847-.107349 20.098415.08141 30.135484.906325 4.220923 5.690609 3.087331 8.852827 3.259171 7.813002.04433 15.626004.08867 23.439004.133004v78.258145H31.517553V47.494822h-7.800778c.0528 25.758132-.105625 51.526514.07924 77.278238.838582 4.11782 5.473235 3.12357 8.555085 3.22694h79.748501c4.04131-.0537 4.10268-4.53153 3.9004-7.51299-.0312-27.800233.0624-55.606169-.0468-83.402898zm-32.326442-3.653448v-19.57666c6.334244 6.557885 12.668488 13.115769 19.002732 19.673654l-19.002732-.09699z"/></svg>