<svg xmlns="http://www.w3.org/2000/svg" xml:space="preserve" viewBox="0 0 128 128"><path d="M95.5657108 83.50979608c-1.58710277.4599952-3.91621001.51199465-6.41487951.15599837-2.68044025-.38266267-5.41514042-1.18798759-8.10236315-2.37464185 4.79250778-.68532617 8.51066908-.4746617 11.69030062.63332671.75421295.26266393 1.99133921.96398993 2.82694204 1.58531677M68.82642026 79.1885079c-.19533573.05199946-.38660196.10133228-.5778682.15333174-1.29002969.34532972-2.54479043.6813262-3.75343024.98132307l-1.63051071.40666242c-3.28001241.81599147-6.63327571 1.6493161-9.94448758 2.64130573 1.25883024-2.98396881 2.4281316-5.9999373 3.573016-8.94923981.84781131-2.18264386 1.7132571-4.41328721 2.60854585-6.61459754.45442686.73732562.9278447 1.47465125 1.42161 2.21464352 2.24636086 3.36396485 5.0705899 6.474599 8.30312488 9.16657087m-8.34246332-33.64364842c.2129702 3.68129487-.59550267 7.2225912-1.781082 10.61988903-1.45959196-4.20128943-2.140554-8.83990763-.31470756-12.58520182.46799184-.95998997.8518808-1.47331794 1.10011995-1.74131514.38388897.5839939.88986276 1.88798027.99566961 3.70662793M43.36223792 92.17903882c-.82068135 1.44265159-1.65764068 2.79330414-2.51630397 4.06795749-2.0713726 3.06796794-5.45854836 6.35326694-7.19893542 6.35326694-.17091876 0-.37846297-.02666639-.68096205-.34132977-.19533572-.20133123-.22653518-.34532972-.2170397-.54132767.05832943-1.12798822 1.5789638-3.13730055 3.78191671-4.99994775 1.9994782-1.690649 4.25940403-3.19196665 6.83132443-4.53861924m57.74612412-8.51057773c-.26587363-3.75729407-6.70110062-6.16793555-6.76485603-6.19060198-2.48781751-.8666576-5.18996173-1.28798654-8.26107342-1.28798654-3.2881514 0-6.83268093.46799511-11.38508856 1.51331752-4.05050332-2.82263717-7.55026842-6.35593358-10.16424026-10.2678927-1.15437988-1.72798194-2.19210093-3.45329724-3.09688516-5.13861296 2.2083789-5.19061243 4.19700512-10.77188744 3.83617662-17.02248878-.29164709-5.01194763-2.59091137-8.37857911-5.71763949-8.37857911-2.1446235 0-3.9921739 1.56131701-5.4938173 4.64528479-2.67908375 5.49594256-1.97506124 12.52786908 2.09172007 20.91844806-1.46501795 3.381298-2.82558555 6.8865947-4.1427452 10.2812259-1.6386497 4.2199559-3.32748984 8.57324374-5.23065667 12.7145338-5.33782003 2.0759783-9.72202189 4.59328533-13.37642777 7.6839197-2.39421914 2.0213122-5.2794906 5.11061326-5.44498337 8.33591289-.08003339 1.5186508.44900087 2.91196957 1.52606036 4.0279579 1.1435279 1.18532095 2.58141589 1.80931443 4.16173617 1.81064775 5.21980469 0 10.24291715-7.04925967 11.19517882-8.46257823 1.91808831-2.84130364 3.7127353-6.01060386 5.47211334-9.66656565 4.4303228-1.5733169 9.15229268-2.74797129 13.72776077-3.88395942l1.6386497-.40932905c1.23170028-.30799678 2.51223448-.64799323 3.82532465-1.00132287 1.39041055-.36932947 2.82015955-.75199214 4.27296901-1.11598834 4.69890942 2.93730264 9.75186484 4.85328262 14.68002244 5.55594194 4.15088418.59332713 7.83784602.24933073 10.33244603-1.02932258 2.24636085-1.14932132 2.37115867-2.92263612 2.31825525-3.63196204m10.10862384 32.3089957c0 6.88126142-6.17070986 7.305257-7.41597511 7.3199235h-79.608804c-6.97511323 0-7.39562764-6.10660285-7.40919262-7.3199235V12.02254313c0-6.88792802 6.18156184-7.305257 7.40919262-7.3199235h53.77836718l.02848646.0279997v20.62778444c0 4.13995674 2.54614693 11.97720817 12.18949192 11.97720817h20.8493758l.17905775.17599816zm-4.94307908-83.34446238H90.18990883c-6.97375673 0-7.39562764-6.07326986-7.40512313-7.27459064V9.45057Zm9.72609138 83.34446238V35.57029705L82.7847857 2.78663965v-.15199842h-.15871027L79.95920016.0000021H24.19220677c-4.21735259 0-12.19220492 2.51330707-12.19220492 12.02254103v103.95624698c0 4.15728989 2.54885993 12.0212077 12.19220492 12.0212077h79.61694299c4.2159961-.00133331 12.19084842-2.51330706 12.19084842-12.02254102"/></svg>