<svg xmlns="http://www.w3.org/2000/svg" xml:space="preserve" viewBox="-949 951 128 128"><switch transform="matrix(1.34879 0 0 1.33333 327.49315 -319.59997)"><g><path d="M-867.9 970.2H-930c-9.1 0-16.4 7.4-16.4 16.4v28.7c0 9.1 7.4 16.4 16.4 16.4h62.1c9.1 0 16.4-7.4 16.4-16.4v-28.7c0-9-7.4-16.4-16.4-16.4zm12.1 45.1c0 6.7-5.4 12.1-12.1 12.1H-930c-6.7 0-12.1-5.4-12.1-12.1v-28.7c0-6.7 5.4-12.1 12.1-12.1h62.1c6.7 0 12.1 5.4 12.1 12.1z"/><path d="m-887.1 998.9-17.7-11.1c-1.6-1-3.7.2-3.7 2.1v22.1c0 1.9 2.1 3.1 3.7 2.1l17.7-11.1c1.5-.9 1.5-3.1 0-4.1z"/></g></switch></svg>