<svg xmlns="http://www.w3.org/2000/svg" xml:space="preserve" width="128" height="128"><g style="clip-rule:evenodd;fill-rule:evenodd;image-rendering:optimizeQuality;shape-rendering:geometricPrecision;text-rendering:geometricPrecision"><path fill="#2b2727" d="M67.853 14.67a9.664 9.664 0 0 0-2.85-6.85 9.669 9.669 0 0 0-6.85-2.852 9.68 9.68 0 0 0-6.85 2.851 9.673 9.673 0 0 0-2.85 6.852v67.9c-6.72 3.449-11.32 10.445-11.32 18.517 0 11.487 9.31 20.797 20.797 20.797 11.484 0 20.795-9.31 20.795-20.797 0-7.892-4.395-14.756-10.872-18.28zm4.968 63.997c7.247 4.823 12.022 13.063 12.022 22.42 0 14.864-12.05 26.913-26.913 26.913-14.866 0-26.915-12.05-26.915-26.913 0-9.548 4.973-17.932 12.467-22.71V14.67A14.63 14.63 0 0 1 47.79 4.306C50.45 1.648 54.116 0 58.153 0c4.035 0 7.704 1.648 10.363 4.307a14.628 14.628 0 0 1 4.305 10.364z"/><path fill="#ef1c25" d="M62.163 86.386c6.388 1.836 11.06 7.722 11.06 14.701 0 8.448-6.845 15.294-15.293 15.294-8.447 0-15.296-6.846-15.296-15.294 0-6.976 4.675-12.865 11.061-14.7V17.314c0-5.26 8.468-5.053 8.468 0z"/></g><path d="M69.663 22.041a1.412 1.412 0 0 1-1.002-.41l-4.647-4.674-4.66 4.491a1.412 1.412 0 0 1-1.992 0 1.412 1.412 0 0 1 0-2.005l5.65-5.452a1.412 1.412 0 0 1 1.977 0l5.649 5.65a1.412 1.412 0 0 1 0 2.005 1.412 1.412 0 0 1-.975.395z" style="fill:#ef1c25;stroke-width:1.41228" transform="translate(25.93 6.48)"/><path d="M69.663 29.452a1.412 1.412 0 0 1-1.002-.41l-4.647-4.675-4.66 4.492a1.412 1.412 0 0 1-1.992 0 1.412 1.412 0 0 1 0-2.006l5.65-5.451a1.412 1.412 0 0 1 1.977 0l5.649 5.649a1.412 1.412 0 0 1 0 2.005 1.412 1.412 0 0 1-.975.396z" style="fill:#ef1c25;stroke-width:1.41228" transform="translate(25.93 6.48)"/></svg>