<svg xmlns="http://www.w3.org/2000/svg" fill="none" viewBox="0 0 44 44"><path fill="#4682b4" d="M15.083772 25.066101c-2.8279 0-5.6416001.0102-8.4630301 0-3.54125-.0167-6.27655002-2.8626-6.16987002-6.4026.08741-3.0849 2.66076002-5.7225 5.76240002-5.8973 3.1801-.1787 6.0156001 2.0926 6.4591001 5.1724.1414.9782.1414.9473 1.1324.9884.4627.0193.5142-.1465.4859-.5398-.1311-1.8243-.9056-3.5427-2.1855-4.8492-1.2799-1.3065-2.9820001-2.1161-4.8031801-2.2847-.32134-.0334-.42546-.1568-.49358-.437-1.14786-4.8099695 2.25066-9.7034495 7.1595601-10.2895795 5.2868-.63113 9.769 3.48468 9.5466 8.7817795-.0442 1.2206-.3688 2.4147-.9486 3.4898-.1504.2777-.1285.4306.1671.5373.0453.0203.0884.0453.1285.0746.8355.4884.851.4961 1.3034-.3715.1427-.2738.3317-.216.5142-.1748 2.3432.5283 3.9847 1.9023 4.7019 4.2006 1.2636 4.0336-1.7005 7.9939-5.932 8.0003-2.7876.0034-5.576.0038-8.3653.0013z"/><path fill="#e9e9e9" d="M35.853872 11.986001c2.4036 0 4.806 0 7.2097-.0077.3522 0 .473.0591.4872.4538.0179.4923-.1376.7635-.5605 1.0193-1.7661 1.0656-3.5027 2.1851-5.2585 3.2623-.2571.1581-.3753.3188-.365.6427.0269.9113-.0001 1.8265.0179 2.7391.0078.306-.0848.3857-.3753.3625-.2905-.0231-.5771.0129-.8638-.0103-.2648-.0218-.3085.0862-.3136.3252-.027 1.2083-.0334 1.216 1.144 1.2122.2892 0 .4216.0372.41.3792-.0295.784-.0282 1.5707 0 2.3548.0116.3188-.1067.3933-.3856.3509-.0478-.0052-.0961-.0052-.1439 0-.3304.0283-.8625-.1427-.95.0655-.1593.3857-.0604.8728-.0706 1.3189 0 .1285.0758.1568.1838.1542h.2403c1.1132 0 1.1132 0 1.1132 1.1003 0 .5604-.009 1.1209 0 1.6813 0 .2236-.0502.3059-.2892.3008-.8163-.0142-1.635-.0322-2.45.0064-.4023.018-.3445-.2018-.3445-.4409v-9.661c0-.7519-.0154-1.5052.0077-2.2584.0156-.1231-.0083-.248-.0684-.3566-.0601-.1087-.1532-.1953-.2658-.2475-1.0514-.6093-2.0656-1.2854-3.1363-1.8549-.9782-.5141-1.7481-1.2725-2.5515-2.0013-.2571-.2301-.1478-.5142-.1221-.7622.0257-.2481.2866-.1183.4344-.1196 2.4281-.0115 4.8473-.009 7.2664-.009z"/><path fill="#1e90ff" d="M35.836872 2.7000015c.4936.83422.9666 1.57203 1.3754 2.34455.1736.3299.2255.71041.1465 1.07475-.079.36433-.2838.68921-.5784.9175995-.2706.21751-.6081.3348-.9553.33199-.3471-.0028-.6826-.12555-.9497-.34741-.2906-.2331895-.4902-.5609895-.564-.9262495-.0738-.36527-.017-.74483.1604-1.07253.4075-.75838.8715-1.48848 1.3651-2.3227zM3.5211219 31.168701c.49487.8381.96918 1.5759 1.37665 2.3497.1727.3306.2233.7115.1429 1.0756-.08041.3642-.28667.6884-.58251.9155-.27137.2167-.60937.3328-.9566.3285-.34723-.0042-.68231-.1284-.94834-.3516-.28948-.2345-.48753-.5631-.55964-.9286-.07211-.3655-.01371-.7446.16502-1.0715.40747-.7584.87021-1.4872 1.36252-2.3176zM12.754072 31.180501c.4756.7918.9178 1.4949 1.324 2.2185.1995.3337.2731.7277.2073 1.1108s-.2665.7301-.5659.978c-.2725.2287-.6173.3531-.973.3512-.3557-.0018-.6992-.13-.9693-.3615-.2973-.2503-.4953-.5988-.558-.9824-.0627-.3836.014-.7769.2161-1.1089.4075-.7198.8484-1.4216 1.3188-2.2057zM21.987272 31.165301c.5039.8587 1.0013 1.6196 1.4139 2.4256.3445.6799.0926 1.491-.4948 1.937-.2626.2014-.5843.3106-.9152.3106-.331 0-.6526-.1092-.9152-.3106-.5849-.4408-.8381-1.2584-.4936-1.9383.4023-.8047.8998-1.5656 1.4049-2.4243zM8.1381419 38.868501c.49363.8355.96793 1.5746 1.37663 2.3484.173.3302.224.7109.1441 1.0751-.08.3641-.2857.6885-.5811.9159-.2714.217-.6096.3333-.95703.3293-.34745-.0039-.68283-.128-.94921-.3511-.29106-.2342-.49028-.5634-.56268-.9299-.07241-.3665-.01335-.7468.16678-1.074.40747-.7584.87021-1.4872 1.36251-2.3137zM17.371172 38.868501c.4807.8059.9332 1.5206 1.3406 2.261.1892.3301.2557.7165.1877 1.0909-.068.3744-.266.7128-.5591.9554-.2716.2299-.6159.3561-.9718.3561-.3558 0-.7002-.1262-.9717-.3561-.293-.2428-.4907-.5814-.5582-.9558-.0675-.3745-.0005-.7607.1893-1.0905.4087-.7391.8612-1.4538 1.3432-2.261z"/><path fill="#00ced1" d="M37.364172 17.352301h-3.0862v25.3158h3.0862z"/></svg>