<?xml version="1.0" encoding="UTF-8" standalone="no"?>
<svg
   xmlns:dc="http://purl.org/dc/elements/1.1/"
   xmlns:cc="http://creativecommons.org/ns#"
   xmlns:rdf="http://www.w3.org/1999/02/22-rdf-syntax-ns#"
   xmlns:svg="http://www.w3.org/2000/svg"
   xmlns="http://www.w3.org/2000/svg"
   xmlns:sodipodi="http://sodipodi.sourceforge.net/DTD/sodipodi-0.dtd"
   xmlns:inkscape="http://www.inkscape.org/namespaces/inkscape"
   width="400"
   height="163"
   viewBox="0 -1417 400 163"
   version="1.1"
   id="svg248"
   sodipodi:docname="picsa-logo-w-global-stripes.svg"
   inkscape:version="0.92.4 (5da689c313, 2019-01-14)">
  <metadata
     id="metadata254">
    <rdf:RDF>
      <cc:Work
         rdf:about="">
        <dc:format>image/svg+xml</dc:format>
        <dc:type
           rdf:resource="http://purl.org/dc/dcmitype/StillImage" />
        <dc:title></dc:title>
      </cc:Work>
    </rdf:RDF>
  </metadata>
  <defs
     id="defs252" />
  <sodipodi:namedview
     pagecolor="#ffffff"
     bordercolor="#666666"
     borderopacity="1"
     objecttolerance="10"
     gridtolerance="10"
     guidetolerance="10"
     inkscape:pageopacity="0"
     inkscape:pageshadow="2"
     inkscape:window-width="1920"
     inkscape:window-height="1009"
     id="namedview250"
     showgrid="false"
     fit-margin-top="0"
     fit-margin-left="0"
     fit-margin-right="0"
     fit-margin-bottom="0"
     inkscape:pagecheckerboard="true"
     inkscape:zoom="1.2148148"
     inkscape:cx="367.70758"
     inkscape:cy="8.3352791"
     inkscape:window-x="-8"
     inkscape:window-y="-8"
     inkscape:window-maximized="1"
     inkscape:current-layer="svg248" />
  <rect
     x="0"
     y="-1300.4143"
     width="2.433455"
     height="46.825905"
     id="rect2"
     style="fill:#2171b5;stroke-width:0.05912973" />
  <rect
     x="2.366482"
     y="-1300.4143"
     width="4.7611074"
     height="46.825905"
     id="rect4"
     style="fill:#6baed6;stroke-width:0.05912973" />
  <rect
     x="7.0994458"
     y="-1300.4143"
     width="7.1945624"
     height="46.825905"
     id="rect6"
     style="fill:#4292c6;stroke-width:0.05912973" />
  <rect
     x="14.198787"
     y="-1300.4143"
     width="2.433455"
     height="46.825905"
     id="rect8"
     style="fill:#2171b5;stroke-width:0.05912973" />
  <rect
     x="16.565268"
     y="-1300.4143"
     width="4.7611074"
     height="46.825905"
     id="rect10"
     style="fill:#08519c;stroke-width:0.05912973" />
  <rect
     x="21.298233"
     y="-1300.4143"
     width="2.433455"
     height="46.825905"
     id="rect12"
     style="fill:#4292c6;stroke-width:0.05912973" />
  <rect
     x="23.664715"
     y="-1300.4143"
     width="4.7611074"
     height="46.825905"
     id="rect14"
     style="fill:#2171b5;stroke-width:0.05912973" />
  <rect
     x="28.397573"
     y="-1300.4143"
     width="2.433455"
     height="46.825905"
     id="rect16"
     style="fill:#08306b;stroke-width:0.05912973" />
  <rect
     x="30.764057"
     y="-1300.4143"
     width="2.433455"
     height="46.825905"
     id="rect18"
     style="fill:#4292c6;stroke-width:0.05912973" />
  <rect
     x="33.130535"
     y="-1300.4143"
     width="2.433455"
     height="46.825905"
     id="rect20"
     style="fill:#08519c;stroke-width:0.05912973" />
  <rect
     x="35.497017"
     y="-1300.4143"
     width="7.1945624"
     height="46.825905"
     id="rect22"
     style="fill:#4292c6;stroke-width:0.05912973" />
  <rect
     x="42.596466"
     y="-1300.4143"
     width="2.433455"
     height="46.825905"
     id="rect24"
     style="fill:#6baed6;stroke-width:0.05912973" />
  <rect
     x="44.962841"
     y="-1300.4143"
     width="4.7611074"
     height="46.825905"
     id="rect26"
     style="fill:#4292c6;stroke-width:0.05912973" />
  <rect
     x="49.695808"
     y="-1300.4143"
     width="2.433455"
     height="46.825905"
     id="rect28"
     style="fill:#2171b5;stroke-width:0.05912973" />
  <rect
     x="52.06229"
     y="-1300.4143"
     width="2.433455"
     height="46.825905"
     id="rect30"
     style="fill:#6baed6;stroke-width:0.05912973" />
  <rect
     x="54.428768"
     y="-1300.4143"
     width="2.433455"
     height="46.825905"
     id="rect32"
     style="fill:#4292c6;stroke-width:0.05912973" />
  <rect
     x="56.79525"
     y="-1300.4143"
     width="7.1945624"
     height="46.825905"
     id="rect34"
     style="fill:#2171b5;stroke-width:0.05912973" />
  <rect
     x="63.894596"
     y="-1300.4143"
     width="2.433455"
     height="46.825905"
     id="rect36"
     style="fill:#9ecae1;stroke-width:0.05912973" />
  <rect
     x="66.26107"
     y="-1300.4143"
     width="2.433455"
     height="46.825905"
     id="rect38"
     style="fill:#c6dbef;stroke-width:0.05912973" />
  <rect
     x="68.627556"
     y="-1300.4143"
     width="2.433455"
     height="46.825905"
     id="rect40"
     style="fill:#6baed6;stroke-width:0.05912973" />
  <rect
     x="70.994034"
     y="-1300.4143"
     width="2.433455"
     height="46.825905"
     id="rect42"
     style="fill:#4292c6;stroke-width:0.05912973" />
  <rect
     x="73.360519"
     y="-1300.4143"
     width="4.7611074"
     height="46.825905"
     id="rect44"
     style="fill:#6baed6;stroke-width:0.05912973" />
  <rect
     x="78.093483"
     y="-1300.4143"
     width="2.433455"
     height="46.825905"
     id="rect46"
     style="fill:#4292c6;stroke-width:0.05912973" />
  <rect
     x="80.459862"
     y="-1300.4143"
     width="9.5222149"
     height="46.825905"
     id="rect48"
     style="fill:#2171b5;stroke-width:0.05912973" />
  <rect
     x="89.925789"
     y="-1300.4143"
     width="2.433455"
     height="46.825905"
     id="rect50"
     style="fill:#4292c6;stroke-width:0.05912973" />
  <rect
     x="92.292267"
     y="-1300.4143"
     width="2.433455"
     height="46.825905"
     id="rect52"
     style="fill:#6baed6;stroke-width:0.05912973" />
  <rect
     x="94.658752"
     y="-1300.4143"
     width="2.433455"
     height="46.825905"
     id="rect54"
     style="fill:#08519c;stroke-width:0.05912973" />
  <rect
     x="97.025131"
     y="-1300.4143"
     width="4.7611074"
     height="46.825905"
     id="rect56"
     style="fill:#2171b5;stroke-width:0.05912973" />
  <rect
     x="101.75809"
     y="-1300.4143"
     width="2.433455"
     height="46.825905"
     id="rect58"
     style="fill:#08519c;stroke-width:0.05912973" />
  <rect
     x="104.12458"
     y="-1300.4143"
     width="4.7611074"
     height="46.825905"
     id="rect60"
     style="fill:#2171b5;stroke-width:0.05912973" />
  <rect
     x="108.85754"
     y="-1300.4143"
     width="4.7611074"
     height="46.825905"
     id="rect62"
     style="fill:#6baed6;stroke-width:0.05912973" />
  <rect
     x="113.5904"
     y="-1300.4143"
     width="2.433455"
     height="46.825905"
     id="rect64"
     style="fill:#2171b5;stroke-width:0.05912973" />
  <rect
     x="115.95688"
     y="-1300.4143"
     width="2.433455"
     height="46.825905"
     id="rect66"
     style="fill:#4292c6;stroke-width:0.05912973" />
  <rect
     x="118.32336"
     y="-1300.4143"
     width="2.433455"
     height="46.825905"
     id="rect68"
     style="fill:#6baed6;stroke-width:0.05912973" />
  <rect
     x="120.68984"
     y="-1300.4143"
     width="2.433455"
     height="46.825905"
     id="rect70"
     style="fill:#4292c6;stroke-width:0.05912973" />
  <rect
     x="123.05633"
     y="-1300.4143"
     width="2.433455"
     height="46.825905"
     id="rect72"
     style="fill:#2171b5;stroke-width:0.05912973" />
  <rect
     x="125.42281"
     y="-1300.4143"
     width="2.433455"
     height="46.825905"
     id="rect74"
     style="fill:#08519c;stroke-width:0.05912973" />
  <rect
     x="127.78929"
     y="-1300.4143"
     width="2.433455"
     height="46.825905"
     id="rect76"
     style="fill:#08306b;stroke-width:0.05912973" />
  <rect
     x="130.15578"
     y="-1300.4143"
     width="2.433455"
     height="46.825905"
     id="rect78"
     style="fill:#2171b5;stroke-width:0.05912973" />
  <rect
     x="132.52214"
     y="-1300.4143"
     width="2.433455"
     height="46.825905"
     id="rect80"
     style="fill:#4292c6;stroke-width:0.05912973" />
  <rect
     x="134.88863"
     y="-1300.4143"
     width="2.433455"
     height="46.825905"
     id="rect82"
     style="fill:#08519c;stroke-width:0.05912973" />
  <rect
     x="137.25511"
     y="-1300.4143"
     width="4.7611074"
     height="46.825905"
     id="rect84"
     style="fill:#08306b;stroke-width:0.05912973" />
  <rect
     x="141.98807"
     y="-1300.4143"
     width="2.433455"
     height="46.825905"
     id="rect86"
     style="fill:#08519c;stroke-width:0.05912973" />
  <rect
     x="144.35457"
     y="-1300.4143"
     width="2.433455"
     height="46.825905"
     id="rect88"
     style="fill:#08306b;stroke-width:0.05912973" />
  <rect
     x="146.72104"
     y="-1300.4143"
     width="4.7611074"
     height="46.825905"
     id="rect90"
     style="fill:#08519c;stroke-width:0.05912973" />
  <rect
     x="151.4539"
     y="-1300.4143"
     width="2.433455"
     height="46.825905"
     id="rect92"
     style="fill:#4292c6;stroke-width:0.05912973" />
  <rect
     x="153.82037"
     y="-1300.4143"
     width="2.433455"
     height="46.825905"
     id="rect94"
     style="fill:#6baed6;stroke-width:0.05912973" />
  <rect
     x="156.18686"
     y="-1300.4143"
     width="2.433455"
     height="46.825905"
     id="rect96"
     style="fill:#2171b5;stroke-width:0.05912973" />
  <rect
     x="158.55334"
     y="-1300.4143"
     width="2.433455"
     height="46.825905"
     id="rect98"
     style="fill:#08519c;stroke-width:0.05912973" />
  <rect
     x="160.91983"
     y="-1300.4143"
     width="2.433455"
     height="46.825905"
     id="rect100"
     style="fill:#2171b5;stroke-width:0.05912973" />
  <rect
     x="163.2863"
     y="-1300.4143"
     width="7.1945624"
     height="46.825905"
     id="rect102"
     style="fill:#4292c6;stroke-width:0.05912973" />
  <rect
     x="170.38565"
     y="-1300.4143"
     width="2.433455"
     height="46.825905"
     id="rect104"
     style="fill:#2171b5;stroke-width:0.05912973" />
  <rect
     x="172.75214"
     y="-1300.4143"
     width="2.433455"
     height="46.825905"
     id="rect106"
     style="fill:#4292c6;stroke-width:0.05912973" />
  <rect
     x="175.11861"
     y="-1300.4143"
     width="2.433455"
     height="46.825905"
     id="rect108"
     style="fill:#2171b5;stroke-width:0.05912973" />
  <rect
     x="177.48509"
     y="-1300.4143"
     width="2.433455"
     height="46.825905"
     id="rect110"
     style="fill:#4292c6;stroke-width:0.05912973" />
  <rect
     x="179.85158"
     y="-1300.4143"
     width="2.433455"
     height="46.825905"
     id="rect112"
     style="fill:#6baed6;stroke-width:0.05912973" />
  <rect
     x="182.21806"
     y="-1300.4143"
     width="4.7611074"
     height="46.825905"
     id="rect114"
     style="fill:#4292c6;stroke-width:0.05912973" />
  <rect
     x="186.95093"
     y="-1300.4143"
     width="2.433455"
     height="46.825905"
     id="rect116"
     style="fill:#2171b5;stroke-width:0.05912973" />
  <rect
     x="189.3174"
     y="-1300.4143"
     width="7.1945624"
     height="46.825905"
     id="rect118"
     style="fill:#6baed6;stroke-width:0.05912973" />
  <rect
     x="196.41684"
     y="-1300.4143"
     width="2.433455"
     height="46.825905"
     id="rect120"
     style="fill:#2171b5;stroke-width:0.05912973" />
  <rect
     x="198.78333"
     y="-1300.4143"
     width="2.433455"
     height="46.825905"
     id="rect122"
     style="fill:#6baed6;stroke-width:0.05912973" />
  <rect
     x="201.1497"
     y="-1300.4143"
     width="2.433455"
     height="46.825905"
     id="rect124"
     style="fill:#4292c6;stroke-width:0.05912973" />
  <rect
     x="203.51619"
     y="-1300.4143"
     width="2.433455"
     height="46.825905"
     id="rect126"
     style="fill:#6baed6;stroke-width:0.05912973" />
  <rect
     x="205.88268"
     y="-1300.4143"
     width="7.1945624"
     height="46.825905"
     id="rect128"
     style="fill:#9ecae1;stroke-width:0.05912973" />
  <rect
     x="212.98212"
     y="-1300.4143"
     width="2.433455"
     height="46.825905"
     id="rect130"
     style="fill:#c6dbef;stroke-width:0.05912973" />
  <rect
     x="215.3486"
     y="-1300.4143"
     width="2.433455"
     height="46.825905"
     id="rect132"
     style="fill:#deebf7;stroke-width:0.05912973" />
  <rect
     x="217.71497"
     y="-1300.4143"
     width="4.7611074"
     height="46.825905"
     id="rect134"
     style="fill:#c6dbef;stroke-width:0.05912973" />
  <rect
     x="222.44795"
     y="-1300.4143"
     width="2.433455"
     height="46.825905"
     id="rect136"
     style="fill:#deebf7;stroke-width:0.05912973" />
  <rect
     x="224.81442"
     y="-1300.4143"
     width="2.433455"
     height="46.825905"
     id="rect138"
     style="fill:#c6dbef;stroke-width:0.05912973" />
  <rect
     x="227.18091"
     y="-1300.4143"
     width="4.7611074"
     height="46.825905"
     id="rect140"
     style="fill:#9ecae1;stroke-width:0.05912973" />
  <rect
     x="231.91385"
     y="-1300.4143"
     width="4.7611074"
     height="46.825905"
     id="rect142"
     style="fill:#6baed6;stroke-width:0.05912973" />
  <rect
     x="236.64673"
     y="-1300.4143"
     width="2.433455"
     height="46.825905"
     id="rect144"
     style="fill:#4292c6;stroke-width:0.05912973" />
  <rect
     x="239.0132"
     y="-1300.4143"
     width="4.7611074"
     height="46.825905"
     id="rect146"
     style="fill:#9ecae1;stroke-width:0.05912973" />
  <rect
     x="243.74619"
     y="-1300.4143"
     width="2.433455"
     height="46.825905"
     id="rect148"
     style="fill:#c6dbef;stroke-width:0.05912973" />
  <rect
     x="246.11266"
     y="-1300.4143"
     width="2.433455"
     height="46.825905"
     id="rect150"
     style="fill:#6baed6;stroke-width:0.05912973" />
  <rect
     x="248.47914"
     y="-1300.4143"
     width="4.7611074"
     height="46.825905"
     id="rect152"
     style="fill:#4292c6;stroke-width:0.05912973" />
  <rect
     x="253.21199"
     y="-1300.4143"
     width="2.433455"
     height="46.825905"
     id="rect154"
     style="fill:#9ecae1;stroke-width:0.05912973" />
  <rect
     x="255.57849"
     y="-1300.4143"
     width="2.433455"
     height="46.825905"
     id="rect156"
     style="fill:#c6dbef;stroke-width:0.05912973" />
  <rect
     x="257.94495"
     y="-1300.4143"
     width="4.7611074"
     height="46.825905"
     id="rect158"
     style="fill:#9ecae1;stroke-width:0.05912973" />
  <rect
     x="262.67792"
     y="-1300.4143"
     width="7.1945624"
     height="46.825905"
     id="rect160"
     style="fill:#c6dbef;stroke-width:0.05912973" />
  <rect
     x="269.77725"
     y="-1300.4143"
     width="2.433455"
     height="46.825905"
     id="rect162"
     style="fill:#4292c6;stroke-width:0.05912973" />
  <rect
     x="272.14374"
     y="-1300.4143"
     width="2.433455"
     height="46.825905"
     id="rect164"
     style="fill:#6baed6;stroke-width:0.05912973" />
  <rect
     x="274.51022"
     y="-1300.4143"
     width="4.7611074"
     height="46.825905"
     id="rect166"
     style="fill:#9ecae1;stroke-width:0.05912973" />
  <rect
     x="279.24319"
     y="-1300.4143"
     width="2.433455"
     height="46.825905"
     id="rect168"
     style="fill:#6baed6;stroke-width:0.05912973" />
  <rect
     x="281.60968"
     y="-1300.4143"
     width="2.433455"
     height="46.825905"
     id="rect170"
     style="fill:#c6dbef;stroke-width:0.05912973" />
  <rect
     x="283.97614"
     y="-1300.4143"
     width="2.433455"
     height="46.825905"
     id="rect172"
     style="fill:#9ecae1;stroke-width:0.05912973" />
  <rect
     x="286.34265"
     y="-1300.4143"
     width="2.433455"
     height="46.825905"
     id="rect174"
     style="fill:#6baed6;stroke-width:0.05912973" />
  <rect
     x="288.70901"
     y="-1300.4143"
     width="2.433455"
     height="46.825905"
     id="rect176"
     style="fill:#9ecae1;stroke-width:0.05912973" />
  <rect
     x="291.0755"
     y="-1300.4143"
     width="2.433455"
     height="46.825905"
     id="rect178"
     style="fill:#c6dbef;stroke-width:0.05912973" />
  <rect
     x="293.44199"
     y="-1300.4143"
     width="4.7611074"
     height="46.825905"
     id="rect180"
     style="fill:#6baed6;stroke-width:0.05912973" />
  <rect
     x="298.17496"
     y="-1300.4143"
     width="2.433455"
     height="46.825905"
     id="rect182"
     style="fill:#4292c6;stroke-width:0.05912973" />
  <rect
     x="300.54141"
     y="-1300.4143"
     width="2.433455"
     height="46.825905"
     id="rect184"
     style="fill:#c6dbef;stroke-width:0.05912973" />
  <rect
     x="302.9079"
     y="-1300.4143"
     width="2.433455"
     height="46.825905"
     id="rect186"
     style="fill:#9ecae1;stroke-width:0.05912973" />
  <rect
     x="305.27426"
     y="-1300.4143"
     width="2.433455"
     height="46.825905"
     id="rect188"
     style="fill:#deebf7;stroke-width:0.05912973" />
  <rect
     x="307.64075"
     y="-1300.4143"
     width="4.7611074"
     height="46.825905"
     id="rect190"
     style="fill:#fee0d2;stroke-width:0.05912973" />
  <rect
     x="312.37372"
     y="-1300.4143"
     width="2.433455"
     height="46.825905"
     id="rect192"
     style="fill:#c6dbef;stroke-width:0.05912973" />
  <rect
     x="314.7402"
     y="-1300.4143"
     width="2.433455"
     height="46.825905"
     id="rect194"
     style="fill:#fee0d2;stroke-width:0.05912973" />
  <rect
     x="317.10669"
     y="-1300.4143"
     width="4.7611074"
     height="46.825905"
     id="rect196"
     style="fill:#c6dbef;stroke-width:0.05912973" />
  <rect
     x="321.83957"
     y="-1300.4143"
     width="2.433455"
     height="46.825905"
     id="rect198"
     style="fill:#deebf7;stroke-width:0.05912973" />
  <rect
     x="324.20602"
     y="-1300.4143"
     width="2.433455"
     height="46.825905"
     id="rect200"
     style="fill:#fee0d2;stroke-width:0.05912973" />
  <rect
     x="326.57251"
     y="-1300.4143"
     width="2.433455"
     height="46.825905"
     id="rect202"
     style="fill:#fcbba1;stroke-width:0.05912973" />
  <rect
     x="328.939"
     y="-1300.4143"
     width="2.433455"
     height="46.825905"
     id="rect204"
     style="fill:#fee0d2;stroke-width:0.05912973" />
  <rect
     x="331.30548"
     y="-1300.4143"
     width="4.7611074"
     height="46.825905"
     id="rect206"
     style="fill:#fcbba1;stroke-width:0.05912973" />
  <rect
     x="336.03845"
     y="-1300.4143"
     width="4.7611074"
     height="46.825905"
     id="rect208"
     style="fill:#deebf7;stroke-width:0.05912973" />
  <rect
     x="340.7713"
     y="-1300.4143"
     width="2.433455"
     height="46.825905"
     id="rect210"
     style="fill:#fee0d2;stroke-width:0.05912973" />
  <rect
     x="343.13779"
     y="-1300.4143"
     width="2.433455"
     height="46.825905"
     id="rect212"
     style="fill:#fc9272;stroke-width:0.05912973" />
  <rect
     x="345.50427"
     y="-1300.4143"
     width="2.433455"
     height="46.825905"
     id="rect214"
     style="fill:#fee0d2;stroke-width:0.05912973" />
  <rect
     x="347.87073"
     y="-1300.4143"
     width="2.433455"
     height="46.825905"
     id="rect216"
     style="fill:#fc9272;stroke-width:0.05912973" />
  <rect
     x="350.23721"
     y="-1300.4143"
     width="2.433455"
     height="46.825905"
     id="rect218"
     style="fill:#fb6a4a;stroke-width:0.05912973" />
  <rect
     x="352.60373"
     y="-1300.4143"
     width="4.7611074"
     height="46.825905"
     id="rect220"
     style="fill:#fcbba1;stroke-width:0.05912973" />
  <rect
     x="357.33658"
     y="-1300.4143"
     width="2.433455"
     height="46.825905"
     id="rect222"
     style="fill:#fc9272;stroke-width:0.05912973" />
  <rect
     x="359.70303"
     y="-1300.4143"
     width="7.1945624"
     height="46.825905"
     id="rect224"
     style="fill:#fb6a4a;stroke-width:0.05912973" />
  <rect
     x="366.80249"
     y="-1300.4143"
     width="4.7611074"
     height="46.825905"
     id="rect226"
     style="fill:#ef3b2c;stroke-width:0.05912973" />
  <rect
     x="371.53546"
     y="-1300.4143"
     width="2.433455"
     height="46.825905"
     id="rect228"
     style="fill:#fb6a4a;stroke-width:0.05912973" />
  <rect
     x="373.90186"
     y="-1300.4143"
     width="2.433455"
     height="46.825905"
     id="rect230"
     style="fill:#fc9272;stroke-width:0.05912973" />
  <rect
     x="376.26831"
     y="-1300.4143"
     width="2.433455"
     height="46.825905"
     id="rect232"
     style="fill:#fb6a4a;stroke-width:0.05912973" />
  <rect
     x="378.6348"
     y="-1300.4143"
     width="2.433455"
     height="46.825905"
     id="rect234"
     style="fill:#ef3b2c;stroke-width:0.05912973" />
  <rect
     x="381.00128"
     y="-1300.4143"
     width="4.7611074"
     height="46.825905"
     id="rect236"
     style="fill:#fb6a4a;stroke-width:0.05912973" />
  <rect
     x="385.73425"
     y="-1300.4143"
     width="4.7611074"
     height="46.825905"
     id="rect238"
     style="fill:#ef3b2c;stroke-width:0.05912973" />
  <rect
     x="390.46719"
     y="-1300.4143"
     width="2.433455"
     height="46.825905"
     id="rect240"
     style="fill:#a50f15;stroke-width:0.05912973" />
  <rect
     x="392.83359"
     y="-1300.4143"
     width="2.433455"
     height="46.825905"
     id="rect242"
     style="fill:#67000d;stroke-width:0.05912973" />
  <rect
     x="395.20007"
     y="-1300.4143"
     width="2.433455"
     height="46.825905"
     id="rect244"
     style="fill:#a50f15;stroke-width:0.05912973" />
  <rect
     x="397.56656"
     y="-1300.4143"
     width="2.433455"
     height="46.825905"
     id="rect246"
     style="fill:#cb181d;stroke-width:0.05912973" />
  <path
     id="path1309"
     d="m 171.61941,-1416.9901 c -2.96364,0.08 -7.77577,0.7836 -10.70927,1.5571 -2.75266,0.7334 -5.79667,1.738 -6.1081,2.0294 a 0.63291138,0.63291138 0 0 1 -0.37171,0.1406 c -0.25116,0 -1.90878,0.7535 -3.98835,1.8083 -6.93189,3.5162 -13.62266,9.5037 -17.41009,15.5817 l -0.63291,0.9845 a 58.097246,58.097246 0 0 0 -3.45589,6.5703 c -0.20093,0.4018 -0.35162,0.8037 -0.35162,0.874 0,0.08 -0.14065,0.4621 -0.32148,0.8539 -0.40185,0.8539 -0.70323,1.7882 -1.4567,4.3098 a 60.046212,60.046212 0 0 0 -1.90878,9.9257 c -0.25116,1.969 -0.20093,10.3878 0.0804,12.7587 0.82379,6.972 2.40104,12.3066 5.28431,17.9124 a 44.00241,44.00241 0 0 0 3.67691,6.1181 51.295961,51.295961 0 0 0 8.6297,9.0818 c 0.27124,0.2511 0.59272,0.4521 0.70323,0.4621 0.12056,0 0.21097,0.05 0.21097,0.1206 0,0.1105 1.00462,0.8539 1.98915,1.4667 l 1.1955,0.7736 c 5.92727,3.8376 13.57244,6.3894 21.85052,7.2734 2.63211,0.2813 9.57404,0.3115 11.72393,0.06 l 2.84308,-0.3315 c 6.66064,-0.8037 15.54149,-3.9381 20.24312,-7.173 0.40185,-0.2913 0.7836,-0.5224 0.83383,-0.5224 0.10047,0 2.92345,-2.0093 3.8477,-2.7426 3.1947,-2.5417 7.6954,-7.0324 8.90095,-8.8708 l 0.30138,-0.4722 -1.23568,-1.2055 c -0.69319,-0.6531 -1.8485,-1.7481 -2.59192,-2.4312 a 650.0904,650.0904 0 0 1 -2.76271,-2.602 851.58729,851.58729 0 0 0 -9.58409,-9.0115 c -0.89411,-0.8539 -1.03476,-0.9242 -1.24573,-0.5525 -0.64296,1.1553 -5.0231,5.5254 -7.08258,7.0625 -8.46895,6.3592 -22.36287,6.5702 -31.07293,0.4722 -14.2154,-9.9257 -14.15513,-35.0412 0.10046,-44.5449 a 24.372111,24.372111 0 0 1 7.9566,-3.4057 l 1.83846,-0.4019 c 1.20554,-0.2612 8.0872,-0.2511 9.46353,0.03 3.07414,0.6228 4.24955,1.0046 6.78119,2.2302 a 32.630098,32.630098 0 0 1 9.87543,8.0772 c 0.55254,0.7032 1.0649,1.2759 1.15531,1.2759 0.14065,0 4.42034,-4.2697 13.23087,-13.1807 l 3.66686,-3.7171 -1.12517,-1.4667 c -4.31987,-5.7063 -10.05626,-10.2471 -16.00362,-12.6884 -0.60277,-0.2411 -1.24573,-0.5023 -1.42656,-0.6028 -2.09966,-0.9845 -8.66988,-2.6722 -12.38698,-3.1846 l -2.43118,-0.3416 c -1.30601,-0.1808 -8.53929,-0.4219 -10.71931,-0.3616 m 83.47398,0.2411 a 42.405063,42.405063 0 0 0 -12.62809,3.2549 30.188868,30.188868 0 0 0 -14.03456,12.1258 c -2.47137,4.2998 -3.46595,7.5447 -3.95821,12.9697 -0.32148,3.5764 0.0201,7.2634 0.9343,10.0462 0.56259,1.7279 1.62748,3.918 2.49146,5.1336 0.17078,0.2512 0.32148,0.5023 0.32148,0.5626 0,0.6731 4.21941,4.9729 6.69077,6.7912 2.56179,1.8887 8.33836,5.1839 9.10187,5.1839 0.0603,0 0.58268,0.221 1.17541,0.4923 0.59273,0.2712 3.28511,1.2055 5.98754,2.1097 4.96283,1.6174 5.70625,1.8786 7.68536,2.6421 1.77817,0.6832 5.13361,2.2303 5.66606,2.612 0.27125,0.1909 0.54249,0.3416 0.60277,0.3416 0.2813,0 2.09966,1.3864 2.79285,2.1398 2.41109,2.5719 2.3709,6.942 -0.0703,9.2024 -2.89331,2.6622 -8.56942,3.5262 -15.10951,2.2905 a 36.668675,36.668675 0 0 1 -5.52542,-1.5672 44.08278,44.08278 0 0 1 -12.176,-7.605 c -1.00463,-0.9745 -1.04481,-0.9644 -2.04943,0.2612 a 2867.621,2867.621 0 0 0 -4.26964,5.1638 c -0.0502,0.04 -0.43199,0.5023 -0.84388,1.0046 l -1.10509,1.3361 c -0.73337,0.854 -7.03235,8.479 -7.59493,9.1722 l -0.57264,0.7234 0.74342,0.7132 a 50.472171,50.472171 0 0 0 5.18385,4.1491 c 0.0502,0.05 0.60277,0.422 1.25577,0.8138 7.54471,4.6212 14.36609,6.9118 23.54833,7.9365 6.93188,0.7836 13.36146,0.7032 18.84669,-0.2411 10.22704,-1.7481 18.86679,-6.4999 24.17119,-13.3012 a 26.130198,26.130198 0 0 0 3.31525,-5.3647 c 1.12517,-2.381 1.07494,-2.2303 1.70785,-4.561 1.37633,-5.1436 0.78361,-13.4418 -1.306,-18.1233 -3.23488,-7.2635 -9.05164,-12.7386 -16.78723,-15.7826 a 106.088,106.088 0 0 0 -1.54711,-0.6028 l -0.8037,-0.3215 c -0.22102,-0.1005 -0.86397,-0.3315 -1.41651,-0.5425 l -1.75809,-0.653 c -0.4119,-0.1507 -1.9992,-0.6831 -3.51618,-1.1754 -12.17601,-3.9482 -13.45187,-4.4404 -15.83283,-6.1282 -4.18927,-2.9636 -4.35001,-8.3886 -0.32148,-11.1111 3.53627,-2.4111 10.14668,-2.6422 16.24473,-0.6028 a 49.628289,49.628289 0 0 1 10.84991,5.5857 c 0.98453,0.6631 1.89873,1.2457 2.00924,1.296 0.15069,0.05 1.22564,-1.1855 2.89331,-3.2952 a 2043.2188,2043.2188 0 0 0 7.76572,-9.8654 c 0.32148,-0.4119 0.62287,-0.7936 0.6731,-0.8338 0.0502,-0.05 0.35162,-0.4219 0.6731,-0.8439 0.31143,-0.4018 0.67309,-0.8539 0.7836,-0.9745 0.37171,-0.3817 0.24111,-0.6329 -0.92425,-1.6676 -4.5208,-4.0286 -10.49829,-7.1529 -17.22926,-9.0014 a 60.066304,60.066304 0 0 0 -10.01607,-1.9088 c -1.95901,-0.2009 -11.02069,-0.1909 -12.7185,0.03 m 81.87663,2.4714 c -0.11051,0.1406 -0.25116,0.4018 -0.30139,0.5927 -0.10046,0.3918 -0.91421,2.6924 -1.12518,3.1746 -11.75406,33.1123 -22.68434,60.438 -32.53968,88.4971 -0.14064,0.4019 -0.45208,1.306 -0.70323,1.9791 -0.37171,1.0147 -0.40185,1.2658 -0.22102,1.3864 0.3918,0.2411 25.85895,0.1909 26.05988,-0.06 0.10046,-0.1205 0.48221,-1.2256 0.87402,-2.4714 1.70785,-5.7163 3.45589,-10.88 5.07333,-15.8227 l 0.4119,-1.3362 h 31.93691 l 1.27587,4.0989 1.82841,5.8569 0.86397,2.7627 c 0.42194,1.3964 1.27587,4.1089 1.76813,5.6058 0.22102,0.6932 0.49227,1.306 0.60278,1.3864 0.42194,0.2712 27.22523,0.1507 27.22523,-0.1306 0,-0.1407 -0.15069,-0.6832 -0.34157,-1.2056 l -0.75346,-2.2202 a 35.46313,35.46313 0 0 0 -0.90416,-2.5115 l -0.34157,-0.9243 a 255.77657,255.77657 0 0 0 -1.67772,-4.7719 c -9.8051,-30.0382 -19.2385,-53.2148 -29.15411,-82.4593 -0.19088,-0.5526 -0.41189,-1.1353 -0.50231,-1.296 -0.22102,-0.422 -28.99337,-0.5425 -29.34499,-0.1306 m -336.9399256,47.7597 0.040185,47.9305 H 24.693589 l 0.09042,-15.9032 0.08037,-15.9031 9.795057,-0.1106 c 10.136628,-0.1105 10.870003,-0.1607 14.567009,-0.9644 a 37.090616,37.090616 0 0 0 4.942736,-1.527 34.307815,34.307815 0 0 0 4.822182,-2.4714 c 4.098855,-2.5819 8.318263,-7.0022 9.995981,-10.4983 0.1306,-0.2813 0.361663,-0.7032 0.50231,-0.9242 2.290537,-3.5162 3.877838,-11.3422 3.596544,-17.7517 -0.673096,-15.6218 -9.644363,-26.1302 -24.693589,-28.9331 l -2.853124,-0.5525 c -0.843883,-0.1708 -5.927266,-0.2311 -23.307214,-0.2713 l -22.2322672999999,-0.06 0.040185,47.9405 m 85.6941913,-0.04 v 47.8802 l 0.37171,0.1005 c 0.200924,0.04 5.917219,0.06 12.678316,0.04 l 12.306614,-0.05 v -95.7706 l -12.67832,-0.04 -12.688367,-0.04 v 47.8803 m -45.871005,-27.396 c 0.50231,0.1306 1.225638,0.3516 1.607394,0.4822 8.368496,2.9536 8.890899,17.7517 0.773558,21.7701 -2.169982,1.085 -2.782801,1.1453 -10.508338,1.0951 l -6.861563,-0.05 -0.04018,-11.6837 -0.05023,-11.6837 0.381756,-0.1608 c 0.622865,-0.2712 13.562387,-0.07 14.697609,0.2311 m 311.091026,2.7928 c 0,0.1708 0.0703,0.4822 0.16074,0.7033 0.0904,0.2009 0.38175,1.1352 0.66305,2.0494 2.57183,8.9009 5.32449,17.4804 7.88627,26.2106 0.24111,0.8639 0.63292,2.1097 1.15532,3.7171 0.20092,0.6329 0.32148,1.2155 0.27125,1.306 -0.12056,0.2009 -20.8258,0.231 -21.11714,0.04 -0.1306,-0.09 0,-0.7534 0.47217,-2.2202 2.55174,-8.3886 5.34458,-16.7671 7.83605,-24.9447 0.20092,-0.7032 0.43198,-1.4065 0.50231,-1.5974 0.0703,-0.1808 0.37171,-1.1251 0.66305,-2.0896 1.0448,-3.3855 1.16536,-3.707 1.36628,-3.5865 0.0804,0.05 0.14065,0.2311 0.14065,0.4019"
     inkscape:connector-curvature="0"
     style="fill:#5c8bbb;fill-rule:evenodd;stroke-width:1.00462127" />
</svg>
