<svg xmlns="http://www.w3.org/2000/svg" viewBox="0 0 365 118.8"><defs><style>.cls-1{fill:#e32118}.cls-3{fill:#ffe400}.cls-4{fill:#009580}</style></defs><g id="Layer_2" data-name="Layer 2"><g id="Layer_1-2" data-name="Layer 1"><path d="M79.4 5.1s-8.5-.9-37.4-.9h-.4C15.3 4.2 6 4.7 4 5.2a2 2 0 0 0-1.6 1.5s-.1 25.1-.2 42c3.7-.2 14.8-.5 39.8-.5 24.4 0 35.3.3 39 .5l-.1-42A1.6 1.6 0 0 0 79.4 5" class="cls-1"/><path d="m79.4 5.1.2-.8h-.3C78.1 4.2 69 3.4 42 3.4h-.4A1003 1003 0 0 0 7 4l-3 .3v.8-.8a3 3 0 0 0-2.3 2.3v.2l-.2 41.9v.8h.9C6 49.4 17 49 42 49c24.4 0 35.3.3 39 .5h1l-.3-42.9-.4-1.2a3 3 0 0 0-1.9-1zv-.8zl-.2.7a1 1 0 0 1 .8.4l.1.4h.8-.8l.2 42h.8v-.8a971 971 0 0 0-39.2-.5c-25 0-36 .3-39.7.5v.8H3V6.8h-.6.8l.3-.6.6-.3 3-.3c4.6-.3 14.7-.5 34.4-.5h.4a824 824 0 0 1 35.5.7h1.7v-.3.4-.4.4V5l-.1.8V5v.7Z" class="cls-1"/><path d="M41.8 107.6S15.7 94.3 9 84.1A36 36 0 0 1 1.4 57v-7l40.7-.7 40 .5v9.5s2.1 15.3-8.5 25.8c0 0-10.8 12.4-31.9 22.5" style="fill:#fff"/><path d="M131.8 21.6V3.2H126v20.9a18 18 0 0 1-.3 4.1q-1 4.5-6.7 4.5-5.4 0-6.4-4a15 15 0 0 1-.4-4.2V3.2h-6.8v19q-.1 6.9 1.8 10c1.8 2.8 5.4 4.9 11.5 4.9 6.8 0 10-2.8 11.5-5.8 1-1.8 1.5-4.3 1.5-9.7M158.6 36.6V22a23 23 0 0 0-.4-4.7c-.5-2.5-2.5-5.4-7.6-5.4s-7.2 3-7.2 3v-2.5H137v24.2h6.6V16.9a8 8 0 0 1 3.7-.8q3.7 0 4.5 3.2l.2 3.4v13.9zm12.6-31.2q-.2-3.2-3.8-3.4c-3.6-.2-4 1.4-4 3.5 0 2 1.6 3.4 3.8 3.4s4-1.3 4-3.5m-.6 7H164v24.2h6.6Zm26.7 0h-5.9L186.7 28l-.8 3-.7-2.9-4.7-15.7h-7.1l8.5 24.2h6.4ZM220 24.9v-.4c0-2.6-.1-5.8-1.5-8.2-1.5-2.7-4-4.4-8.8-4.4-9.8 0-11.5 8-11.5 12.6 0 9.7 6 12.4 12.6 12.4 5.7 0 8.3-1.4 8.3-1.4l-1.3-3.6a11 11 0 0 1-5 1.1c-4.8 0-7.8-2.9-7.8-7.6v-.5Zm-6.6-3.4H205l.3-2.8q.6-3.4 4-3.6 4.2 0 4.1 5.4zm26-8.9a8 8 0 0 0-3.1-.6 7 7 0 0 0-5.8 3.6v-3.2H224v24.2h6.6v-19a7 7 0 0 1 3.6-.9A7 7 0 0 1 238 18ZM257.5 29.4c0-3.3-1.6-5.1-4.5-6.6l-3.5-1.8c-2-1-2.8-1.5-2.8-3 0-1.8 1.7-2.4 3.7-2.4a12 12 0 0 1 5.2 1.4l1.4-3.8a18 18 0 0 0-7.4-1.3c-5.4 0-8.7 2.3-8.7 6.9 0 3.4 1.7 5.2 4.8 6.9l3.6 2c1.6.8 2.2 1.3 2.2 2.7q0 2.7-4 2.7a13 13 0 0 1-6.1-1.4l-1.4 3.8s2.6 1.5 8.2 1.5c5 0 9.3-2 9.3-7.6m11.5-24q-.2-3.2-3.8-3.4c-2.4 0-4 1.4-4 3.5 0 2 1.6 3.4 3.9 3.4q3.7-.1 3.9-3.5m-.5 7h-6.6v24.2h6.6Zm20.7 23.4-1-3.6a7 7 0 0 1-3 .6c-3 0-3.3-2-3.3-4.3V16h7.1v-3.6h-7.1V6.8h-4.3v.4a7 7 0 0 1-4.7 5.6l-.6.2v3h3v12a19 19 0 0 0 .4 5c1 3 3.5 3.8 7.4 3.8a17 17 0 0 0 6.1-1M314.2 12.4h-5.8l-4.5 15.8-.8 2.9-.7-3-4.8-15.7h-7.2l9.7 25.4-.8 2.2q-1 3.4-3.8 3.4a9 9 0 0 1-2.7-.6l-.7 3.9a11 11 0 0 0 4.1.6c4 0 6.4-1.7 8-6.4zM346.8 24.1c0-7.6-4.2-12.2-11.7-12.2-8.8 0-12.2 6.2-12.2 13 0 7.5 4.2 12.2 11.7 12.2 8.8 0 12.2-6.3 12.2-13m-6.9.4c0 5.8-1.3 8.8-5 8.8s-5.1-3.3-5.1-8.9c0-5.8 1.3-8.7 5-8.7s5.1 3.2 5.1 8.8M365 .8a12 12 0 0 0-5-.8q-6.6 0-8 5.2a25 25 0 0 0-.4 6v1.2h-3V16h3v20.6h6.5V16h5v-3.6h-5V8.9q-.1-2.7.5-3.7a3 3 0 0 1 2.8-1.4 5 5 0 0 1 2.5.6ZM273.3 49c-4 0-6.4 2.2-6.4 5.6s2.4 5.4 6.2 5.4c4 0 6.4-2.2 6.4-5.7 0-3.2-2.4-5.3-6.2-5.3M164.4 64.8c-16.3 0-18.1 13.5-18.1 19.2 0 15.6 10.6 18.9 19.5 18.9 7.9 0 12.1-1.6 13.3-2.1l-1.9-5.5a20 20 0 0 1-7.8 1.5c-8.3 0-12-5.4-12-10.7v-1h23.1v-.2c0-4.2-.2-9.4-2.1-13q-3.7-7.3-14-7.2m5.5 15.3h-12.6v-.4a24 24 0 0 1 .3-4.4q1.1-5.7 6-5.7 6.4-.1 6.3 8zM130.3 80.2a15 15 0 0 0 10.5-14.9c0-9.6-8.2-12.4-10.7-13q-4.2-1-13.6-1c-5 0-9.6.3-11 .3v50.7h10.7V81.8h3l14.5 20.5h12.8l-16.8-22zm-6.3-3.6a15 15 0 0 1-4.4.3h-3.4V57h.3l3.3-.2q9.9 0 9.8 9.9c0 6.1-2.9 9-5.6 9.8M201.7 64.7a41 41 0 0 0-13.6 2l2 5.7a22 22 0 0 1 8.6-1.7c2.3 0 5.4.3 6.6 3.1a10 10 0 0 1 .6 4.2v2.8l-5.4-.2c-4.2 0-8.5.2-11.8 2.5q-4.1 2.9-4 8.9c0 6.7 4.3 10.9 11.3 10.9 6.8 0 9.4-3.7 9.4-3.8l.8-1.2v4.4h10.2V80c0-3.1 0-6.3-1-8.5q-2.4-6.7-13.7-6.7m4.2 31.8h-.2a9 9 0 0 1-4.1.8c-2.4 0-6.3-.8-6.3-6 0-1 .2-3.3 1.6-4.6s3-1.8 5.5-1.8h3.5ZM267.7 65.5h11v36.8h-11zM239.9 65c-10.2 0-17 7.9-17 19.6 0 11.6 5.3 18.3 14.8 18.3 7.3 0 9.8-4.2 9.9-4.2l.8-1.4v5H259V46.5h-11V67l-.7-.5s-2.1-1.5-7.4-1.5m8.1 5.8v24.3l-.2.2a10 10 0 0 1-4.7 1c-5.7 0-9-4.6-9-12.5q0-13.5 10.2-13.5a10 10 0 0 1 3.4.4ZM309.6 64.7c-7.8 0-10.7 4.4-10.8 4.5l-.8 1.3v-5h-10.6v36.8h11V72.5l.2-.1a12 12 0 0 1 5-1.1q5.6 0 6.6 4.5l.3 4.6v21.9h11V79.9a35 35 0 0 0-.5-7.2c-.5-2.4-2.7-8-11.4-8M343 64.8c-10.7 0-15.5 6.2-15.5 12.4 0 9.5 8.2 10.9 8.5 11l1.7.2-1.6.6c-.2.1-5.5 2.2-5.5 7.7a5 5 0 0 0 3 5l1.4.7-1.6.2c-.3 0-7.8.8-7.8 7.5 0 7.6 9.6 8.7 15.3 8.7a37 37 0 0 0 11.6-1.5c9.4-3.2 10.8-9.5 10.8-13 0-8.2-6.3-9.2-11.7-9.2l-5.2.1h-3c-1.5 0-4.3 0-4.3-3.2a4 4 0 0 1 1.1-2.8l.2-.1 3.6.2c9.5 0 15-4.2 15-11.6a9 9 0 0 0-2.1-6l-.8-.7h7.5v-5.4h-14.5a23 23 0 0 0-6-.8m3 38.5c3.5 0 6 0 7.2 1.2a3 3 0 0 1 1 2.6c0 2.9-1.9 6.3-10.6 6.3-4.2 0-9-.6-9-5.5a5 5 0 0 1 3-4.6h.1Zm.5-19.1a6 6 0 0 1-3 .7q-5.8-.1-5.8-7.7c0-2.5.3-5.5 2.6-7a6 6 0 0 1 3.2-.9q5.6.2 5.7 7.7c0 2.6-.3 5.7-2.6 7.2M83.5 63.5l-.2-57.1a4 4 0 0 0-3.4-3.5C79.7 3 71.2 2 42 2h-.4c-26.5 0-36 .5-38 .9A4 4 0 0 0 .2 6.5l-.2 57a27 27 0 0 0 1.3 8.9c1.7 5.6 5.5 13 14.5 20 14.8 11.7 25.2 16.1 25.6 16.3l.4.1.4-.1c.3-.1 10.6-4.7 25.5-16.3 9-7 12.9-14.3 14.6-20a28 28 0 0 0 1.2-9M2.5 6.9A2 2 0 0 1 4 5c2-.3 11.2-.8 37.5-.8h.4c28.9 0 37.2.8 37.2.8A2 2 0 0 1 81 6.8l.2 41.9c-3.8-.2-14.7-.5-39.2-.5-24.9 0-36 .3-39.7.5zm78.7 58.8h-.3zM32.5 50.1l-.2.2zM74 82.9a2.3 2.3 0 0 0-4.3.7l-.1.3-.2-.3a2.3 2.3 0 0 0-2.2-2 2.3 2.3 0 0 0-2.2 2q0 .3-.2.3t-.1-.3a2.3 2.3 0 0 0-2.3-2 2.3 2.3 0 0 0-2.2 2q0 .3-.2.3-.1 0-.1-.3a2.3 2.3 0 0 0-4.5 0l-.1.3-.2-.3a2.3 2.3 0 1 0-2.5 2.5l.2.2-.2.1a2.3 2.3 0 0 0 0 4.5l.2.2-.2.1a2.3 2.3 0 0 0 0 4.5l.2.1q0 .2-.2.2a2.3 2.3 0 0 0-2 2.2 2 2 0 0 0 1.7 2.2l-1.4 1a90 90 0 0 1-9.3 5 79 79 0 0 1-9.2-5s-.5-.4-1.5-1A2.3 2.3 0 0 0 31 96q-.3 0-.3-.2 0-.1.3-.1a2.3 2.3 0 0 0 0-4.5l-.3-.1.3-.2a2.3 2.3 0 0 0 0-4.5l-.3-.1.3-.2a2.3 2.3 0 1 0-2.6-2.5l-.1.3-.2-.3a2.3 2.3 0 0 0-4.5 0l-.1.3-.1-.3a2.3 2.3 0 0 0-4.5 0q0 .3-.2.3t-.1-.3a2.3 2.3 0 0 0-4.5 0q0 .3-.2.3-.1 0-.1-.3a2.3 2.3 0 0 0-2.2-2 2 2 0 0 0-2 1.3 34 34 0 0 1-7.1-17v-.4l.2-.1a2 2 0 0 0 1.5-1.8q0-.3.2-.3.1 0 .1.3a2.3 2.3 0 0 0 4.5 0q0-.3.2-.3.1 0 0 .3a2.3 2.3 0 0 0 2.3 2 2.3 2.3 0 0 0 2.3-2l.1-.3.2.3a2.3 2.3 0 0 0 4.5 0l.1-.3.1.3a2.3 2.3 0 0 0 4.5 0q0-.3.2-.3t.1.3a2.3 2.3 0 0 0 4.5 0q0-.3.2-.3.1 0 0 .3a2.3 2.3 0 0 0 2.3 2 2.3 2.3 0 0 0 .3-4.5l-.2-.2.2-.1a2.3 2.3 0 0 0 2-2.3 2.3 2.3 0 0 0-2-2.2l-.2-.1q0-.1.2-.2a2.3 2.3 0 0 0 0-4.5l-.2-.1q0-.2.2-.2a2 2 0 0 0 1.7-1.2h9l9.5.1a2 2 0 0 0 1.7 1.2l.3.1-.3.2a2.3 2.3 0 0 0 0 4.4l.3.2-.3.1a2.3 2.3 0 0 0 0 4.5l.3.2-.3.1a2.3 2.3 0 1 0 2.5 2.6q0-.3.2-.3.1 0 .1.3a2.3 2.3 0 0 0 2.3 2 2.3 2.3 0 0 0 2.2-2l.1-.3q.2 0 .2.3a2.3 2.3 0 0 0 2.2 2 2.3 2.3 0 0 0 2.3-2l.1-.3q.2 0 .2.3a2.3 2.3 0 0 0 4.5 0l.1-.3.2.3a2.3 2.3 0 0 0 4.4 0q0-.3.2-.3t.1.3a2.3 2.3 0 0 0 2.3 2 2.3 2.3 0 0 0 2.2-2q0-.3.2-.3.1 0 .1.3a2 2 0 0 0 1.8 1.9v.3a34 34 0 0 1-7 17"/><path d="M41.7 69.5a2.1 2.1 0 1 0 2.2 2.1 2 2 0 0 0-2.2-2.1" class="cls-3"/><path d="M41.7 69.5v-.3a2.5 2.5 0 1 0 2.5 2.4 2.5 2.5 0 0 0-2.5-2.4v.6a1.8 1.8 0 1 1-1.8 1.8 2 2 0 0 1 1.8-1.8Z" class="cls-3"/><path d="M50 70a1 1 0 0 0-1.2-.1l-.6.2-.4.2-1 .4c-1.6.6-2 .4-2.1.2v-.3q0-.3 1.7-1l1-.3.5-.1.6-.2a1 1 0 0 0 .8-.8c.6-1.5-.6-3-2-4-1.5-1-3.6-1.7-4.6-.8a1 1 0 0 0-.5 1v.6l.1.5v1c0 1.9-.4 2-.6 2h-.2c-.4-.4-.4-1.6-.4-2v-2.1a1 1 0 0 0-.5-1c-1-1-3-.4-4.6.7-1.3 1-2.5 2.5-2 4a1 1 0 0 0 1 .9l.6.2h.5l1 .4q1.5.6 1.7 1v.3c-.1.2-.5.4-2.2-.2l-1-.4-.4-.2-.6-.2a1 1 0 0 0-1 .1q-1.7.9-.8 4.3c.4 1.8 1.6 3.6 3 3.5a1 1 0 0 0 1-.4l.3-.5.3-.4.6-.8c.3-.4 1.1-1.3 1.7-1.4h.2l.1.3c0 .4-.5 1.2-.7 1.5l-.1.2-.7.8-.3.3-.4.5a1 1 0 0 0-.2 1c.2 1.4 2.2 2.2 4 2.2s3.6-.4 4-2a1 1 0 0 0 0-1.1l-.4-.5-.3-.3-.6-1-.2-.2c-.2-.3-.8-1-.7-1.5l.1-.2h.3c.2 0 .7.2 1.7 1.4l.6.8.3.4.3.5a1 1 0 0 0 1 .4c1.4 0 2.6-1.7 3-3.5l.3-2a3 3 0 0 0-1-2.3m-8.3 3.7a2.1 2.1 0 1 1 2.2-2 2 2 0 0 1-2.2 2" class="cls-1"/><path d="M48.7 69.1c-.3.2-.3.1-1 .3l-1.3.5q-1.3.3-1.2.8c.1.5.7.1 1.4-.2.3 0 1-.3 1.3-.5l1-.4a2 2 0 0 1 1.5.2l.7.7A14 14 0 0 1 54 68a21 21 0 0 1-4.1-.3l-.1.4a2 2 0 0 1-1 1" class="cls-4"/><path d="M48.7 69.1v-.3l-.4.2-.6.1v.3-.3l-1.4.5-1 .4-.2.2-.2.4v.2h.3-.3l.2.3h.4l1.2-.3q.7-.1 1.4-.5l.5-.3.4-.1.5-.1.7.2.4.3.2.3.2.4.3-.3 2.1-2 .5-.4h.2v-.1l.2-.3-.1-.2-.2-.1h-.7l-3.4-.3-.4-.1v.8a1 1 0 0 1-.9.8zl.2.3a2 2 0 0 0 1.2-1.3h-.3.3v-.5h-.3v.3l3.5.3h.6l.1-.2v.2-.2.2-.2l-.2.3h.1l.1-.3-.2.3.2-.3-.3.1.1.2.2-.3-.3.1.3-.1h-.3.3-.3.3l-.2-.2v.2h.2l-.2-.2.1.1v-.1l-.3.1a14 14 0 0 0-2.7 2.4l.2.2.3-.2-.3-.4-.5-.4-.2.3.2-.3-1-.3-.8.1-.4.2-.5.3-1.3.5-1 .2v.2h.1-.1.1l.3-.2.7-.3V70v.3l1.3-.4.6-.2h.4v-.4.3ZM41.5 64.3v2.4q0 1.3.3 1.4.4-.1.3-1.4v-2.5a2 2 0 0 1 .6-1.3l.7-.4-1.5-3.3-1.5 3.4.5.3a2 2 0 0 1 .7 1.3" class="cls-4"/><path d="M41.5 64.3h-.3v3.4l.2.4.4.3V68v.3l.4-.2.2-.7v-3.2a1 1 0 0 1 .5-1.1l.3-.3h.3l.4-.1-.2-.4-1.3-2.5-.2-.6v-.2L42 59h-.4l-.1.1-.1.4-1.4 3-.2.3.4.1.2.1.3.2a1 1 0 0 1 .5 1h.6a2 2 0 0 0-.7-1.5l-.4-.3h-.3l-.1.2.3.2 1.2-2.6.2-.7-.2-.2.2.1h-.2.2-.3l.2.1-.2-.2.2.2-.2-.2v.3h.2l-.2-.3-.2.2.2.1v-.3l-.2.2.2-.2-.3.2h.1l.2-.2-.3.1.1.3 1.5 3 .3-.1v-.3l-.6.1-.3.3a2 2 0 0 0-.8 1.6v3.6-.1.1-.1.1h.2v-3.5ZM48 78.3a2 2 0 0 1-1.3-.6l-.6-.9-1-1c-.5-.7-1-1.3-1.3-1s.2.6.6 1.3l.8 1.1.7.8a2 2 0 0 1 .1 1.5l-.3.7 3.4 1.8-.8-3.8z" class="cls-4"/><path d="M48 78.3V78a1 1 0 0 1-1-.5l-.2-.3-.4-.5-.2.2.2-.2q-.4-.6-.9-1.1l-.7-.8-.4-.3h-.7l.2.3-.1-.3-.2.4v.3l.7 1 .8 1.2.2-.2-.2.2.4.5.2.3.2.7v.5l-.2.3-.1.3-.3.3.4.2 2.5 1.3.6.3.1.2h.3l.2-.1-.3-.2.2.3.1-.2v-.3l-.3-1.1-.5-2.5v-.4H48l-.1.2v.2-.2l.1.1V78H48v.6h.3v-.3zl.5 2.8.2.7v.2h.4-.2.3-.3.3-.3.3l-.1-.3-.2.2.3.1-.1-.3.1.3v-.3H49l.1.3v-.1l.2-.2h-.1v.2-.2l-.2-.2-3-1.7-.2.3.2.2.3-.3.1-.4a2 2 0 0 0-.2-1.8l-.3-.3-.3-.5-.8-1.1-.5-.8-.1-.2H44v.1-.1.1-.2.2h.1l-.1-.2v.2l.4.3.6.7.9 1 .3.6.3.3a2 2 0 0 0 1.5.7zM38.2 77l1-1q.7-1 .4-1.2-.5-.2-1.2 1l-.9 1-.6.9a2 2 0 0 1-1.3.6h-.4l-.6 3.7s.7-.6 3.2-1.7l-.5-1a2 2 0 0 1 .2-1.5z" class="cls-4"/><path d="m38.2 77 .3.3.9-1.1-.3-.2.3.2.4-.7.2-.5-.2-.4-.2.2.2-.2-.3-.1H39l-1 1 .3.3-.3-.2-.9 1.1-.3.5-.3.3a1 1 0 0 1-1 .5h-.2v.2-.2.2-.2l-.4-.2v.4l-.5 2.8-.2.7v.4l.2.2h.3l.3-.1 2.9-1.6.4-.1-.3-.4-.3-.3-.1-.5h-.4.4a1 1 0 0 1 .2-1.2l.2-.2.5-.5-.3-.2-.3-.3-.4.4-.3.4a2 2 0 0 0-.4 1.2v.5l.3.6.3.5.3-.2-.2-.3-3 1.6v.3-.2h-.1v.3l.3-.2-.2-.1v.3l.2-.2-.2.2h.3l-.1-.2-.2.2h.3-.3.3v-.1h-.3.3-.2.2v-.2l.7-3.4h-.3l-.1.3h.4a2 2 0 0 0 1.6-.8l.3-.3.3-.5.9-1 .6-.8.2-.2v-.1l-.1.1v-.2.2-.2h-.1l-.1.3-.4.5-.8 1.1ZM34.6 69.6l1 .4 1.2.5q1.3.5 1.5.2.2-.5-1.2-.8l-1.3-.5c-.7-.2-.7-.1-1-.3a2 2 0 0 1-1-1l-.2-.8-3.7.5 2.6 2.5c.2-.4.3-.3.6-.6a2 2 0 0 1 1.5-.1" class="cls-4"/><path d="m34.6 69.6-.1.3.3.1.6.3 1.3.5 1.3.3h.3l.3-.3-.3-.1h.3v-.1l-.2-.4-.5-.3-.7-.3-1.4-.5v.3-.3l-.6-.2H35a1 1 0 0 1-.9-.9v-1h-.5l-2.8.5h-1.1v.2h.2-.3l.1.3h.1l.8.7 1.8 1.7.3.3.2-.4.2-.2.3-.2-.2-.3.2.3.7-.1h.5zl.2-.3-.7-.1-1 .3-.5.2-.3.4.3.2.3-.3-2.1-1.9-.5-.4h-.1l-.1.1.2-.1-.2.1.2-.1-.3.1h.3v-.1l-.2.1.3.1h-.4.3-.3l.2.2.1-.2H30l.2.2-.1-.2v.3-.2.2h.2l3.5-.5-.1-.3h-.3v.2l.1.7.3-.1h-.3a2 2 0 0 0 1.2 1.3l.1-.3zl.4.2.5.1 1.3.5.9.3.1.1h.2-.1.1l-.1-.2h.2-.2.1-.1.1v-.1H38l-1-.3-1.3-.5-.5-.3-.4-.1-.1.3v-.3Z" class="cls-4"/><path d="M49.9 66.8a5 5 0 0 0-2.2-3.3 6 6 0 0 0-3.6-1.1c-.8-1.4-2.2-5-2.3-5l-2.2 5a5 5 0 0 0-3.8 1.2 5 5 0 0 0-2.1 3c-1.6.5-5.8.7-5.8.7l4.2 3.7a6 6 0 0 0 0 3.6 5 5 0 0 0 2.4 3.4l-1.1 5.7a41 41 0 0 1 4.9-3 6 6 0 0 0 3.4 1.2 5 5 0 0 0 3.5-1.2c1.5.6 5 3 5 2.9A40 40 0 0 1 49 78a5 5 0 0 0 2.5-3.5 6 6 0 0 0 0-3.4c1-1.2 4.2-3.7 4.2-3.7a42 42 0 0 1-5.8-.6m1.2 3.6-.7-.7a2 2 0 0 0-1.5-.1c-.4 0-.3.1-1 .4l-1.3.5q-1.2.5-1.4.2-.2-.4 1.2-.9l1.4-.4 1-.3a2 2 0 0 0 1-1v-.5a20 20 0 0 0 4.2.4 14 14 0 0 0-2.9 2.5m-9.3-11.2 1.6 3.2-.8.4a2 2 0 0 0-.6 1.4v2.4q0 1.3-.3 1.4-.4-.1-.3-1.4v-2.4a2 2 0 0 0-.6-1.4l-.5-.3zm-9.2 11-2.7-2.5 3.8-.5.1.8a2 2 0 0 0 1 1l1 .3 1.3.4q1.3.5 1.3.8-.1.4-1.5 0l-1.3-.6-1-.4a2 2 0 0 0-1.4.1c-.4.3-.4.2-.6.6m2 11.7.7-3.8h.3a2 2 0 0 0 1.3-.6l.6-.8.9-1.1c.5-.6 1-1.2 1.2-1s0 .6-.5 1.2q-.4.6-.9 1.1l-.6.8a2 2 0 0 0-.3 1.4l.5 1c-2.5 1.2-3.2 1.8-3.2 1.8M49 82l-3.4-1.8.4-.7a2 2 0 0 0-.2-1.5l-.6-.8-.8-1.2q-.9-1.1-.6-1.3c.3-.2.8.4 1.3 1l.9 1.1.6.8a2 2 0 0 0 1.3.6h.3zm1.4-7.7c-.4 1.7-1.5 3.3-2.7 3.3a1 1 0 0 1-.8-.4l-.6-.9-.7-.8c-.3-.3-1.6-2-2.3-1.4s.3 2 .6 2.4l.7.8.6.9a1 1 0 0 1 .1.9c-.3 1.3-2 1.8-3.7 1.8s-3.5-.8-3.8-2v-.2l.2-.6.1-.2.6-.6.7-.9c.2-.4 1.4-1.7.7-2.2s-2 .8-2.3 1.3l-.6.8-.6 1a1 1 0 0 1-.9.2c-1.1 0-2.2-1.5-2.7-3.2s-.6-3.4.6-4a1 1 0 0 1 1-.2l1 .5 1 .4c.4.1 2.1.8 2.4 0s-1.3-1.5-1.9-1.7l-1-.3-1-.3a1 1 0 0 1-.6-.7c-.5-1.2.5-2.6 2-3.6s3.2-1.5 4.1-.8a1 1 0 0 1 .4.8v2.1c0 .4 0 2.4.8 2.4s1-1.8 1-2.3v-1.1l-.2-1a1 1 0 0 1 .5-.9c.8-.7 2.7-.2 4.1.8s2.2 2.4 1.7 3.7l-.6.6-1 .3-1 .3c-.4.1-2.2.8-2 1.7s2 .2 2.6 0l1-.4 1-.5a1 1 0 0 1 .9.1c1.2.7 1.1 2.4.7 4"/><path d="m49.7 26-1.3-1a84 84 0 0 1-5.8-8 1 1 0 0 0-.8-.4 1 1 0 0 0-.9.4 84 84 0 0 1-5.8 8l-1.3 1c-.4.3-1.6 1.2-1.6 2l.1 1 .5.9c.3-.3 3.9-3.9 4-3.7s-3.1 4.5-3.5 4.8l.6 1.4.9 1c.2-.4 3.3-5.4 3.6-5.2s-2.6 5.7-2.7 6l1.5 1.2 1.2.4c0-.3 1.8-6.5 2-6.5s-.6 6.6-.6 7l1 .1 1 .3 1-.3 1-.2c0-.3-1-6.9-.7-6.9s2 6.2 2 6.5l1.3-.4 1.4-1.2c0-.3-3-5.9-2.7-6s3.5 4.8 3.7 5.2l.8-1 .6-1.4c-.3-.3-3.7-4.6-3.5-4.8s3.7 3.3 4 3.7l.5-1 .2-1c0-.8-1.2-1.6-1.6-1.9" class="cls-3"/><path d="m49.7 26 .2-.2-.7-.6-.6-.5-.4-.4a83 83 0 0 1-5.4-7.4l-.5-.5-.5-.1h-.6l-.5.6a57 57 0 0 1-5.5 7.4l-.3.4-.6.5-.7.6-1 .8a2 2 0 0 0-.7 1.4v.3l.1.8.5 1 .2.3.3-.2 2-2 1.3-1.2.5-.4h.1v-.2.1-.2l-.2.2h.1v-.2l-.1.2.2-.2-.2.2.1-.2h-.2v.2l.2-.2h-.2.1-.1l-.2.3-2.8 3.7-.3.4-.2.2-.1.1v.2l.7 1.5 1 1 .2.2.1-.3 3-4.4.4-.6h.1l-.1-.3v.2h.1l-.1-.1v-.1l-.1.2v-.2.2-.2h-.2l.2.2v-.2h-.2.2-.2.2-.2l-.1.4-2.6 5.3v.2l.1.2.6.5 1 .7 1.2.5h.3V36l.4-1.2 1-3.4.4-1.4.2-.3v-.1l-.1-.1v.1l-.1-.2v.3h.2l-.2-.3-.2.2.2.1v-.3l-.2.2.1-.1h-.2v.1l.2-.1h-.2v.2l-.3 3.7-.3 2.9v.2l.2.1h.4l.6.2 1 .3 1-.3.6-.1.4-.1.3-.1v-.2l-.3-2.9-.4-3.7v-.2h-.1l.1.1h-.1.1-.2l.1.1h.1l-.2-.2.1.2-.1-.2v.3h.1l-.1-.3-.2.2h.2v-.2l-.2.2.2.4 1 3.4.5 1.7.2.9.1.3.3-.1 1.3-.5-.2-.2.2.2 1-.7.6-.5.1-.2v-.2l-1.5-2.8-1.2-2.7v-.2h-.2.1-.2.2-.2v.2l.2-.2h-.2v.2-.3.3-.3l-.1.3v-.2.2l.2.2c1 1.1 3 4.6 3.2 4.8l.2.3.2-.2 1-1 .6-1.4v-.4l-.3-.2-2.9-3.8-.3-.4v-.1h-.2.2-.2l.1.2v-.2h-.2l.2.2-.2-.2v.2h.2l-.2-.2v.2-.1.1l.2.2q.9.6 2.1 1.9c1.2 1.3 1.4 1.3 1.5 1.4l.3.3.2-.4.5-1h-.3l.3.1.2-.8V28a2 2 0 0 0-.8-1.4l-1-.8zl-.2.2 1 .7.5 1v.3l-.1.6-.5.9h.3l.2-.1L47 26V26h-.6v.5l.7 1 2.9 3.7.2-.2h-.3l-.2.5-.4.8-.4.6-.3.2.1.2-.1-.2.1.2V33v.2l.3-.1c0-.2-.9-1.5-1.7-2.8L46 28.7l-.5-.6-.2-.1-.3-.1H45l-.2.2.2.6 1.4 3.2 1.2 2.4.2-.2-.2-.2-.6.5-.8.7-1.1.4v.3h.3q0-.3-.3-1.3l-1-3.4-.4-1.4-.2-.4-.1-.2-.3-.1-.3.2v.4l.3 3.7.3 2.9h.3v-.3h-.4l-.6.2-1 .3v.3-.3L41 36l-.6-.1h-.4v.2h.2l.4-2.9.3-3.7V29h-.1l-.2-.2-.3.2v.2l-.6 1.3-1 3.2-.5 2h.3l.1-.3-1.1-.4-.9-.7-.6-.4-.2.2.3.1 1.4-2.8 1.2-2.7.1-.5V28l-.2-.2-.3.1-.4.4a43 43 0 0 0-3.2 4.9l.2.2.2-.3-.8-.8-.4-.9q-.1-.5-.2-.5h-.3l.3.3.2-.3 3.3-4.3v-.6l-.3-.1h-.2l-1 .8-3 3 .2.2.3-.2-.5-.9-.2-.6v-.2l.6-1 1-.8.8-.6.5-.5-.2-.3.2.3.5-.5a87 87 0 0 0 5.4-7.5l.3-.3h.6l.3.3a57 57 0 0 0 4.8 6.6l.7.9.4.5.5.5.8.6ZM38.7 18.6h-4.1v.6l1.2 3.3z" class="cls-3"/><path d="M38.7 18.6v-.3h-4.1l-.3.2.3.2-.3-.2v.8l.3-.1h-.3l1.5 3.8.3-.4 2.8-3.9.4-.4h-.6zl-.2-.2-3 3.9.3.1h.3L35 19v-.2h-.2v.1h.2l-.2-.1v.1h4zl-.1-.2ZM49 19.2s0-.4 0-.5l-.5-.1h-3.7l2.9 3.9z" class="cls-3"/><path d="M49 19.2h.2l.1-.4v-.3l-.4-.2h-4.7l.4.5 2.8 3.9.4.4 1.4-3.8zl.3.1zl-.2-.1-1.3 3.3h.5l-2.8-4-.3.2v.3h4l.1-.2-.1.1h.1-.1l.2-.1-.2.1v.2ZM25.3 26.4 24 25.3a83 83 0 0 1-5.8-8 1 1 0 0 0-1.7 0 83 83 0 0 1-5.8 8l-1.3 1c-.4.3-1.6 1.2-1.7 2l.2 1 .5.9c.3-.3 3.8-3.9 4-3.7S9.3 31 8.9 31.4l.6 1.4 1 .9c.1-.3 3.2-5.3 3.5-5.2s-2.6 5.7-2.7 6l1.5 1.2 1.2.4c0-.3 1.8-6.5 2-6.5s-.6 6.6-.6 7l1 .1 1 .3 1-.3.9-.2c0-.3-.9-6.9-.6-6.9s2 6.2 2 6.5l1.2-.4 1.5-1.2c-.1-.3-3-5.9-2.7-6s3.4 4.8 3.6 5.2l.9-1 .6-1.4c-.4-.3-3.8-4.6-3.6-4.8s3.8 3.3 4.1 3.7l.5-1 .1-1c0-.8-1.2-1.6-1.6-1.9" class="cls-3"/><path d="m25.3 26.4.1-.3-.7-.6-.6-.5-.3-.4a83 83 0 0 1-5.4-7.4l-.6-.5-.5-.1h-.6l-.5.6a57 57 0 0 1-4.8 6.6l-.7.8-.3.4q-.2.1-.6.5l-.7.6-1 .8a2 2 0 0 0-.8 1.3v.3l.2.9.3-.1h-.3l.5 1 .2.4.3-.3 2-2 1.3-1.1.4-.4.1-.1v-.1.1-.2l-.2.1.2.1v-.2l-.2.1.2-.1H12l.1.1.2-.1H12h.2-.1l-.2.3L9 30.6l-.4.4-.1.2h-.2v.3l.7 1.5.3-.2-.3.2.6.7.2.2h.2l.2.1.1-.2 3.3-5h.2l-.1-.2v.2-.2l-.2.2h.2v-.3l-.2.2.2-.2h-.3l.1.2.2-.2h-.3.2-.2.2-.2l-.1.4-1.5 3.2-.9 2.3v.3l.7.5.9.8 1.3.4.3.1v-.3a39 39 0 0 1 1.7-5.5l.3-.7v-.2l-.2-.2v.3h.2l-.2-.2-.2.1.2.1v-.3l-.2.2.2-.1h-.2v.1l.2-.1h-.2v.3l-.4 3.6-.3 2.9v.2l.2.1.4.1.6.1 1 .3 1-.3h.6l.4-.2h.2v-.3l-.3-2.9-.3-3.6v-.2h-.2.2-.2.1-.2l.2.2v-.1l-.2-.2.2.3-.2-.3v.3h.2l-.2-.3-.2.2.2.1v-.3l-.2.2.2.4 1.8 6v.3h.3L22 36l1-.7.5-.6.2-.1-.1-.2-1.4-2.8-.9-2-.3-.7v-.2h-.3.2-.2.2l-.2-.1v.2l.2-.1-.2-.1v.2-.2.3-.3l-.1.2v-.2.2l.2.3c.9 1 3 4.5 3.2 4.8l.1.2.3-.1.2-.1.8-1 .6-1.5v-.3l-.3-.2-3.2-4.2v-.1h-.2.2-.2l.1.2v-.2h-.2l.2.2-.2-.2v.2h.2l-.2-.2v.2-.1.1l.2.2 3.6 3.4.3.3.2-.4.5-.9.2-.9v-.2a2 2 0 0 0-.8-1.4l-1-.8zl.2-.3zl-.1.2.8.7.6 1h.3-.3v.9l.2.1-.3-.1-.5.9.3.1.2-.2-3.8-3.6-.2-.1H22l.2.2-.2-.2v.5l.7 1 1.7 2.3.8 1 .4.4.2-.2h-.3l-.2.5-.4.8-.5.6-.2.2v.1l.2.2-.1-.3H24l.2.2-.1-.2v.2l.3-.1-3-4.5-.4-.5-.1-.2h-.1l-.2-.2h-.2l-.1.2v.7l1.5 3.2 1.2 2.4.2-.1-.2-.2-.6.5-.8.6-1.1.5v.2h.3l-.3-1.2-1-3.4-.4-1.4-.2-.5-.1-.1v-.1h-.5l-.1.2v.3l.3 3.8.3 2.8h.3v-.2h-.4l-.6.2-1 .2v.3-.3l-.9-.2-.6-.2h-.3v.3h.2l.3-3 .4-3.7v-.4l-.1-.1-.2-.1-.3.1-.1.2-.5 1.4-1.5 5 .3.1.1-.2-1.1-.5-.9-.6-.6-.5-.2.2h.3l1.4-2.7 1.2-2.8.2-.5v-.1l-.2-.2h-.3l-.4.4a39 39 0 0 0-3.3 5h.3v-.2.3l.1-.3-.1.3.1-.2v.1-.1l-.3-.3-.4-.5-.4-.9-.2-.5h-.3l.2.3.3-.3 3.2-4.3.1-.2v-.4l-.3.2.2-.2-.2-.1h-.2l-1 .8-3 3 .2.2.2-.2-.5-.9-.1-.7v-.2l.6-1 .9-.7.8-.7.5-.4.5-.5a95 95 0 0 0 5.4-7.5l.3-.3h.6l.3.3a64 64 0 0 0 4.7 6.6l.7.9.5.5.5.5.8.6ZM14.2 18.9h-4.1v.6l1.2 3.3z" class="cls-3"/><path d="M14.2 18.9v-.3h-4.1l-.3.2v.8l.3-.1h-.3l1.5 3.9.3-.5 2.9-3.8.3-.5h-.6zl-.2-.2-2.9 3.9.3.2.3-.1-1.3-3.3v-.2L10 19l.2.2-.1-.1v.1h.1l-.1-.1v.1h4zl-.2-.2ZM24.5 19.5s.1-.3 0-.5-.4-.1-.5-.1h-3.7l2.9 3.9z" class="cls-3"/><path d="m24.5 19.5.2.1.1-.4v-.4l-.4-.2h-4.6l.3.5L23 23l.3.4 1.5-3.8zh.3zl-.3-.2-1.2 3.3.2.1.3-.2-2.9-3.8-.2.1v.4h4V19v.1-.1.2ZM74 26.4l-1.2-1.1a83 83 0 0 1-5.9-8 1 1 0 0 0-.8-.4 1 1 0 0 0-.8.5 83 83 0 0 1-5.9 7.9l-1.3 1c-.4.3-1.5 1.2-1.6 2l.1 1 .6.9c.3-.3 3.8-3.9 4-3.7S58 31 57.7 31.4l.6 1.4.8.9c.2-.3 3.4-5.3 3.6-5.2s-2.5 5.7-2.7 6l1.5 1.2 1.2.5c.1-.4 1.8-6.6 2-6.6s-.5 6.7-.5 7l1 .2 1 .2 1-.2.9-.2c0-.3-.9-7-.6-7s2 6.2 2 6.6l1.2-.5 1.5-1.2c-.1-.2-3-5.8-2.7-6s3.4 4.9 3.6 5.2l.9-1 .6-1.3c-.4-.4-3.8-4.6-3.6-4.9s3.8 3.4 4 3.7l.6-1 .1-1c0-.7-1.2-1.6-1.6-1.8" class="cls-3"/><path d="m74 26.4.2-.3-.7-.6-.5-.5-.4-.4a82 82 0 0 1-5.4-7.4l-.5-.5-.6-.1h-.5l-.6.6a51 51 0 0 1-5.4 7.4l-.4.4.2.2-.2-.2-.5.5-.7.6-1 .8a2 2 0 0 0-.8 1.3v.3l.2.9q.1.4.5 1l.2.3.2-.3 2-2 1.3-1.1.5-.4h.1v-.2.1-.2l-.2.2h.2v-.2l-.2.2.2-.2h-.3v.2l.3-.2h-.3.1-.1l-.2.3q-.5.9-1.8 2.4l-1 1.3-.3.4-.2.2h-.1v.3l.7 1.4.6.7.2.3h.4l.1-.1 3-4.4.3-.6.2-.1-.1-.2v.2-.2l-.2.2h.1v-.2.2-.2h-.2l.2.2v-.2h-.2.2-.2.2-.2l-.1.4-2.6 5.4-.1.2.2.1.6.6.9.7 1.3.5h.2l.1-.3 1.7-5.5.2-.7.1-.1v-.1h-.1v.1l-.1-.2v.3l.2-.1-.2-.2-.2.2h.2v-.2l-.2.2.1-.2-.2.1.1.1.2-.2-.3.1v.2a49 49 0 0 1-.6 6.5v.3h.2l.4.2h.6l1 .4 1-.3.6-.1.4-.1.2-.1v-.3l-.3-2.8-.3-3.7v-.2h-.2l.2.1h-.2.2l-.3-.1.2.2-.2-.2.2.2-.2-.2v.3h.2l-.2-.3-.2.2h.2v-.2l-.2.2.2.4 1.8 6v.3l.3-.1 1.4-.5 1-.7.6-.6.1-.1v-.2c-.2-.1-.8-1.5-1.5-2.8l-1.2-2.7v-.2h-.3.2-.2.2l-.2-.1v.2l.2-.1-.2-.1v.2-.2.3-.3l-.2.2h.2v-.2l-.2.2.3.3c.9 1 3 4.5 3.2 4.8l.2.2.2-.1.4-.3.6-.7-.3-.2.3.2.6-1.5v-.3l-.3-.3-3.2-4.2v-.1H71h.1-.2l.2.2v-.2H71l.2.2-.2-.2v.2h.2l-.2-.2v.2-.2.2l.2.2 2 1.8 1.6 1.6.3.3.2-.4.5-.9-.3-.1.3.1.2-.9v-.3a2 2 0 0 0-.8-1.3l-1-.8zl-.1.2.9.7.5 1v.9l-.6.9.3.1.2-.2-2-2-1.8-1.6-.2-.1h-.5l.3.2-.3-.2v.5l.7 1 1.7 2.3.8 1 .4.4.2-.2h-.3l-.2.5-.4.8-.4.6-.2.2h-.1l.1.2v-.2l.2.3-.2-.3.1.3.3-.2-3.4-5-.2-.2-.3-.1h-.1l-.2.2v.1l.1.5 1.5 3.3q.9 2 1.2 2.3l.2-.2-.2-.2-.6.6-.8.6-1.1.4v.3h.4a44 44 0 0 0-2-6.4l-.1-.2v-.1l-.3-.1h-.2l-.1.2v.4l.3 3.7.3 3h.3v-.4l-.4.1-.6.2-1 .2v.3-.3l-.9-.2-.6-.2h-.3v.2h.2l.3-2.9.4-3.7v-.4l-.1-.1a.3.3 0 0 0-.5 0l-.1.2L64 31 63 34l-.5 2h.3v-.3l-1-.4-.9-.7-.6-.5-.2.2.3.2 1.4-2.9 1-2 .2-.7.1-.5v-.2l-.1-.2h-.2l-.2.1-.3.4c-1 1-3.1 4.6-3.3 4.9l.2.1.1-.2v.2-.2.3-.3.2-.2.2-.2l-.2-.3-.5-.5-.3-.8-.3-.6-.3.2.2.2.3-.3 3-3.8.2-.5.1-.2v-.5l-.2.2.2-.2H61l-1 .7-3.1 3 .2.2.3-.1-.5-1-.1-.6v-.2a2 2 0 0 1 .6-1l.9-.7.8-.7.5-.4.4-.5a87 87 0 0 0 5.5-7.5l.2-.3h.7l.2.3a60 60 0 0 0 4.8 6.6l.7.9.5.5.5.4.8.7ZM63 18.9H59v.6l1.3 3.3z" class="cls-3"/><path d="M63 18.9v-.3h-4l-.3.2-.1.3v.5l.3-.1h-.2l1.4 3.9.3-.5 2.9-3.8.4-.5H63zl-.3-.2-2.9 3.9.3.2.3-.1-1.3-3.3v-.2l-.3-.2.2.2-.1-.1v.1h.1L59 19v.1h4zl-.2-.2ZM73.3 19.5s.1-.3 0-.5-.4-.1-.4-.1h-3.7l2.8 3.9z" class="cls-3"/><path d="m73.3 19.5.3.1v-.8l-.3.2.3-.2-.3-.2h-4.7l.3.5 2.9 3.9.3.4 1.5-3.8zh.3zl-.3-.2-1.3 3.3h.3l.3-.1-2.9-3.9-.2.2v.3h4V19l-.1.1h.2-.2v.2Z" class="cls-3"/><path d="m26.3 25.6-1.3-1-1-1v-.2l1.5-3.7.1-.7-.2-.7a1 1 0 0 0-1-.4h-4.6l-.6-1a2 2 0 0 0-2-1.2 2 2 0 0 0-2 1.2l-.5 1h-4.6a1 1 0 0 0-1 .4l-.2.7.1.7 1.5 3.8-1 1-1.2 1a4 4 0 0 0-2 2.8 6 6 0 0 0 1 2.6l.3.4L9 34a21 21 0 0 0 3.4 3l2 .6h.2l2.7.6 2.7-.6h.2l2-.6a22 22 0 0 0 3.4-3l1.4-2.7.2-.4a6 6 0 0 0 1-2.5 4 4 0 0 0-2-2.8m-4.1 1c0 .4 3.3 4.4 3.6 4.7l-.6 1.4-.8 1a34 34 0 0 0-3.7-5.3q0 .7 2.7 5.9v.1L22 35.6l-1.1.4c-.1-.3-1.8-6.5-2.1-6.5s0 0 0 .4c0 1.3.6 6.2.6 6.5H19l-.6.2h-.3l-.7.2-.7-.1-.2-.1-.6-.1-.3-.1c0-.3.6-5.2.6-6.5v-.4c-.4 0-2 6.2-2.1 6.5l-1.2-.4-1.4-1.2v-.1a42 42 0 0 0 2.5-5.8c-.3-.2-3.5 4.8-3.7 5.2l-.8-1-.6-1.3c.2-.2 3.6-4.3 3.6-4.8-.4 0-3.8 3.3-4 3.6l-.2-.3-.3-.6-.2-.7v-.3q.1-.8 1.6-1.8l1.1-1 .2-.2a83 83 0 0 0 5.9-7.9 1 1 0 0 1 1.6 0 84 84 0 0 0 5.8 8l.2.1 1.1 1c.6.3 1.6 1.1 1.6 1.8v.3l-.1.7-.3.5-.2.4c-.3-.3-3.6-3.7-4-3.7v.1M20.6 19h4v.5l-1.3 3.2zm-6.3 0-2.8 3.7-1.2-3.2-.1-.3V19h4M50.8 25.2l-1.3-1q-.3-.1-1-1l1.5-3.8.2-.7-.3-.7a1 1 0 0 0-1-.4h-4.6l-.6-1a2.2 2.2 0 0 0-4 0l-.5 1h-4.6a1 1 0 0 0-1.2 1l.1.8 1.5 3.8-1 1-1.2 1a4 4 0 0 0-2 2.8 6 6 0 0 0 1 2.6l.2.4 1.5 2.7a21 21 0 0 0 3.4 3l2 .5h.2l2.7.7 2.7-.6h.2l2-.6a21 21 0 0 0 3.3-3l1.5-2.7.2-.4a6 6 0 0 0 1-2.5V28a4 4 0 0 0-2-2.8m-4 1c0 .5 3.2 4.5 3.5 4.8l-.6 1.4-.8.9C48.6 33 45.5 28 45 28a37 37 0 0 0 2.6 5.9v.1l-1.4 1.2-1.1.4c-.1-.3-1.8-6.5-2.1-6.5s0 .1 0 .4c0 1.4.6 6.2.6 6.5h-.3l-.6.2h-.2l-.8.3-.7-.2H41l-.6-.2-.3-.1c0-.3.6-5.2.6-6.5v-.4c-.3 0-2 6.2-2.1 6.5l-1.1-.4-1.5-1.2V34a42 42 0 0 0 2.7-5.8c-.5-.2-3.6 4.8-3.8 5.1l-.8-.9-.6-1.4a35 35 0 0 0 3.5-4.8c-.4 0-3.8 3.3-4 3.6l-.2-.3-.4-.5v-1q0-.8 1.5-1.9l1.1-1 .2-.1a82 82 0 0 0 5.9-8 1 1 0 0 1 .8-.4 1 1 0 0 1 .8.5 82 82 0 0 0 5.8 7.9l.2.2 1.1 1c.6.3 1.5 1 1.6 1.8v.3l-.2.7-.2.5-.2.3c-.3-.2-3.7-3.6-4-3.6M45 18.7h3.7l.3.1v.5l-1.3 3.2zm-6.3 0-2.7 3.8-1.3-3.2v-.5h4M75 25.6l-1.2-1-.9-1v-.1l1.5-3.7.1-.8-.2-.6a1 1 0 0 0-1-.5h-4.7l-.5-1a2.2 2.2 0 0 0-4 0l-.5 1h-4.7a1 1 0 0 0-1.2 1.1l.2.7 1.4 3.8q-.6.9-.9 1l-1.2 1a4 4 0 0 0-2 2.8 6 6 0 0 0 1 2.6l.2.4 1.4 2.7a21 21 0 0 0 3.4 3l2 .6h.2l2.7.6 2.7-.6h.3L71 37a21 21 0 0 0 3.4-3l1.5-2.7.2-.4a6 6 0 0 0 1-2.5v-.1a4 4 0 0 0-2-2.8m-4.2 1c0 .5 3.3 4.5 3.6 4.8l-.6 1.4-.8.9c-.2-.3-3.3-5.4-3.7-5.2q0 .6 2.7 5.9l-1.4 1.3-1.2.4c0-.3-1.7-6.5-2-6.5s0 0 0 .3c0 1.4.6 6.3.6 6.6h-.3l-.6.2h-.3l-.7.2-.7-.2h-.2l-.7-.2h-.2c0-.3.6-5.2.6-6.6v-.3c-.3 0-2 6.2-2.1 6.5l-1.1-.4-1.5-1.2v-.2a42 42 0 0 0 2.7-5.8c-.3-.2-3.4 4.9-3.6 5.2l-.8-1-.6-1.3c.2-.2 3.5-4.3 3.5-4.8-.4 0-3.7 3.3-4 3.6l-.5-.3-.3-.5-.1-.8v-.2q0-.8 1.5-1.9l1.1-1 .3-.1a79 79 0 0 0 5.8-8 1 1 0 0 1 1.6 0 84 84 0 0 0 5.8 8l.2.2 1.1.9c.6.4 1.6 1.2 1.6 1.9v.2l-.1.8-.3.5-.2.3c-.3-.3-3.6-3.6-4-3.6M69.3 19h4v.5L72 22.7zm-6.4 0-2.7 3.8-1.2-3.2V19h4"/></g></g></svg>