<svg xmlns="http://www.w3.org/2000/svg" viewBox="0 0 512 512" style="enable-background:new 0 0 512 512" xml:space="preserve"><path d="M278.4 340.3c27.8 3 53.9-2.6 78.8-14.1 18.4-8.4 36.3-17.8 54.9-25.7 20.8-8.8 42.7-13.8 65.5-14.1 12.8-.1 22.6 6.3 26.2 17.2 3.6 11-.4 21.9-10.8 29.3-33.4 23.7-66.9 47.4-100.3 71.2-8.2 5.8-17.4 9-27.1 11.3-29.1 6.8-58.3 13.4-88.3 15.5-27.2 1.9-53.9-.2-80.1-8-8.6-2.5-17.2-5.1-26-6.9-18-3.6-34.7 1.4-50.7 9-11.4 5.4-22.4 11.7-33.4 17.8-3.6 2-5.7 1.6-8.1-1.8-23.4-33.4-47-66.8-70.6-100.1-2.6-3.7-2.1-5.5 1.9-7.5 48-23 96.3-45.3 146.4-63.4 14.9-5.4 30.2-8.2 46.2-8.1 33.9.3 67.9 0 101.8.1 21 .1 35 15.7 31.9 35.6-1.5 9.2-5.5 17.4-11.5 24.6-10 12-23.5 16.4-38.5 17.5-2.7.3-5.4.4-8.2.6z" style="fill:#0c313d"/><path d="M336.5 104.5c9.1-11.1 20.7-21.1 34.2-29 21.8-12.8 45.5-20 70.5-22.9 12.3-1.4 24.8-1.9 37.2-2.2 8-.2 12.3 4.2 12.4 12.2.5 39.6-6.2 77.6-27.6 111.7-17.4 27.8-41.4 46.8-74.9 51.2-16.4 2.2-32.4 0-48-5.4-3-1-6.9-1-9.8 0-43.1 15.3-88.2 1.5-115.6-35.2-18.7-25.1-28.8-53.4-32.5-84.1-1.6-12.8-2-25.9-2.3-38.8-.2-7.4 4.3-11.6 11.7-11.7 39.6-.5 77.7 6 111.7 27.6 11.6 7.4 21.7 17.3 33 26.6zM315.3 201c-2.5-2.1-3.9-3.2-5.1-4.4-16.8-16.7-33.6-33.5-50.3-50.3-1.7-1.7-3.4-3.5-4.7-5.5-2.4-3.6-2.4-7.5-.4-11.3 2.2-4 5.8-6.5 10.2-5.6 3.5.8 7.1 2.7 9.7 5.2 17.3 16.9 34.4 34.1 51.5 51.3 1.3 1.3 1.9 3.3 2.8 5l1.8-1.5c.3-1.1.8-2.2 1-3.4 5.6-31.1-5-56.1-29-75.8-21.3-17.4-46.5-25.4-73.1-29.5-8.8-1.4-17.7-1.9-26.9-2.9v4.2c.8 20.9 4.5 41.3 11.9 60.8 8.8 23.5 22.1 43.9 44.6 56.7 16.9 10.1 35.2 11.8 56 7zm31.4 9c.8-.7 1.6-1.3 2.3-1.9 21.2-21.1 42.3-42.2 63.4-63.4 1.2-1.2 2.3-2.6 3.2-4 3-5 1.6-11.3-3.2-14.6-4.9-3.5-10.5-2.7-15.8 2.5-10 9.8-19.5 20.1-29.8 29.6-7.4 6.8-13.1 13.9-12.4 24.6 0 .7-.3 1.3-.5 2-2.4 8.2-4.8 16.6-7.2 25.2z" style="fill:#2ebc5d"/></svg>