<?xml version="1.0" encoding="UTF-8" standalone="no"?>
<!-- Uploaded to: SVG Repo, www.svgrepo.com, Generator: SVG Repo Mixer Tools -->

<svg
   width="800px"
   height="800px"
   viewBox="0 0 48 48"
   version="1.1"
   id="svg22"
   sodipodi:docname="yourlocalweather-svgrepo-com.svg"
   inkscape:version="1.2.1 (9c6d41e410, 2022-07-14)"
   xml:space="preserve"
   xmlns:inkscape="http://www.inkscape.org/namespaces/inkscape"
   xmlns:sodipodi="http://sodipodi.sourceforge.net/DTD/sodipodi-0.dtd"
   xmlns="http://www.w3.org/2000/svg"
   xmlns:svg="http://www.w3.org/2000/svg"><sodipodi:namedview
     id="namedview24"
     pagecolor="#ffffff"
     bordercolor="#666666"
     borderopacity="1.0"
     inkscape:showpageshadow="2"
     inkscape:pageopacity="0.0"
     inkscape:pagecheckerboard="true"
     inkscape:deskcolor="#d1d1d1"
     showgrid="false"
     inkscape:zoom="0.7327394"
     inkscape:cx="168.5456"
     inkscape:cy="499.49545"
     inkscape:window-width="1920"
     inkscape:window-height="1009"
     inkscape:window-x="1912"
     inkscape:window-y="-8"
     inkscape:window-maximized="1"
     inkscape:current-layer="g12513" /><defs
     id="defs4"><style
       id="style2">.a{fill:none;stroke:#000000;stroke-linecap:round;stroke-linejoin:round;}</style></defs><g
     style="clip-rule:evenodd;fill-rule:evenodd;image-rendering:optimizeQuality;shape-rendering:geometricPrecision;text-rendering:geometricPrecision"
     id="g12513"
     transform="matrix(0.09422589,0,0,0.09422589,-65.969758,10.204813)"><path
       fill="#b4dd87"
       d="m 784.73746,248.79328 329.10754,-0.74661 98.2675,152.18561 H 700.12348 Z"
       id="path12476"
       sodipodi:nodetypes="ccccc" /><path
       fill="#84bd6d"
       d="m 1046.3465,400.23328 -28.473,-151.567 h 14.008 l 45.344,151.567 z m -187.88602,0 28.473,-151.567 h -14.008 l -45.344,151.567 z m 101.179,0 0.003,-151.567 h 14.254 l 14.207,151.567 z m 44.06202,0 -15.77202,-151.567 h 14.25502 l 29.983,151.567 z m -58.53302,0 -0.005,-151.567 h -14.251 l -14.208,151.567 z m -44.063,0 15.773,-151.567 h -14.257 l -29.982,151.567 z m -88.515,0 45.385,-151.567 h -11.789 l -68.524,151.567 z m 279.62602,0 -45.384,-151.567 h 11.788 l 68.524,151.567 z"
       id="path12480" /></g><path
     class="a"
     d="m 24.00005,4.26 a 13.0911,13.0911 0 0 0 -13.0911,13.0911 c 0,10.2509 10.0008,22.612 12.6111,25.6323 a 0.8,0.8 0 0 0 1.21,0 c 2.55,-3 12.361,-15.3814 12.361,-25.6322 A 13.0911,13.0911 0 0 0 24.00005,4.26 Z"
     id="path6"
     style="fill:#ffe1c4;fill-opacity:1" /><path
     class="a"
     d="m 24.21475,15.9919 q -0.0154,-0.0658 -0.0332,-0.1316 a 3.62,3.62 0 1 0 -6.2631,3.2822"
     id="path10"
     style="fill:#ffff48;fill-opacity:0.768448" /><line
     class="a"
     x1="18.579351"
     y1="11.936"
     x2="17.967051"
     y2="10.5105"
     id="line12" /><line
     class="a"
     x1="15.87375"
     y1="14.779199"
     x2="14.432849"
     y2="14.2041"
     id="line14" /><line
     class="a"
     x1="15.927549"
     y1="18.9203"
     x2="14.502049"
     y2="19.532499"
     id="line16" /><line
     class="a"
     x1="22.843451"
     y1="11.882299"
     x2="23.41855"
     y2="10.4414"
     id="line18" /><path
     class="a"
     d="m 30.00005,17.4353 a 2.4845,2.4845 0 0 0 -1.4923,0.5361 c -1.686,-2.7437 -4.9132,-2.7144 -6.5693,0.06 -2,-1.4783 -4.9158,0.5888 -4.469,3.3847 0.5529,2.7194 3.7834,2.8725 7.6485,2.6609 5.5855,-0.3059 6.6654,0.0908 7.7322,-1.7389 a 3.4415,3.4415 0 0 0 -2.8501,-4.9028 z"
     id="path8"
     style="fill:#ffffff;fill-opacity:1" /><line
     class="a"
     x1="25.317451"
     y1="14.6494"
     x2="26.742851"
     y2="14.0371"
     id="line20" /></svg>
