<?xml version="1.0" encoding="UTF-8" standalone="no"?>
<svg
   xmlns:dc="http://purl.org/dc/elements/1.1/"
   xmlns:cc="http://creativecommons.org/ns#"
   xmlns:rdf="http://www.w3.org/1999/02/22-rdf-syntax-ns#"
   xmlns:svg="http://www.w3.org/2000/svg"
   xmlns="http://www.w3.org/2000/svg"
   xmlns:sodipodi="http://sodipodi.sourceforge.net/DTD/sodipodi-0.dtd"
   xmlns:inkscape="http://www.inkscape.org/namespaces/inkscape"
   version="1.1"
   id="svg484"
   viewBox="0 0 512 640"
   sodipodi:docname="gender-equality.svg"
   inkscape:version="0.92.4 (5da689c313, 2019-01-14)"
   width="512"
   height="640">
  <metadata
     id="metadata11">
    <rdf:RDF>
      <cc:Work
         rdf:about="">
        <dc:format>image/svg+xml</dc:format>
        <dc:type
           rdf:resource="http://purl.org/dc/dcmitype/StillImage" />
        <dc:title></dc:title>
      </cc:Work>
    </rdf:RDF>
  </metadata>
  <sodipodi:namedview
     pagecolor="#ffffff"
     bordercolor="#666666"
     borderopacity="1"
     objecttolerance="10"
     gridtolerance="10"
     guidetolerance="10"
     inkscape:pageopacity="0"
     inkscape:pageshadow="2"
     inkscape:window-width="1920"
     inkscape:window-height="1009"
     id="namedview9"
     showgrid="false"
     inkscape:zoom="0.4609375"
     inkscape:cx="256"
     inkscape:cy="256"
     inkscape:window-x="-8"
     inkscape:window-y="-8"
     inkscape:window-maximized="1"
     inkscape:current-layer="svg484" />
  <defs
     id="defs488">
    <style
       id="style823">.cls-1{fill:#00ffd2}</style>
  </defs>
  <path
     id="rect817"
     stroke-miterlimit="4"
     d="M 0,0 H 512 V 640 H 0 Z"
     inkscape:connector-curvature="0"
     style="fill:#ff3a21;fill-opacity:1;stroke:none;stroke-width:71.55417633;stroke-linecap:butt;stroke-linejoin:round;stroke-miterlimit:4;stroke-dasharray:none;stroke-opacity:1;paint-order:normal" />
  <g
     id="g821"
     transform="translate(0,-64.941248)">
    <path
       style="display:inline;fill:#ffffff;fill-opacity:1;stroke-width:10.29166031"
       inkscape:connector-curvature="0"
       display="inline"
       id="path470"
       d="m 96.061954,173.41439 c -1.034461,-25.07235 30.036836,-42.2673 50.983946,-28.84295 20.94602,10.80453 22.36175,43.67144 2.3692,56.18738 -21.13455,15.68228 -53.995198,-0.7302 -53.353146,-27.34443 z m 33.996786,50.18188 c -42.213338,-0.98973 -86.836008,21.69563 -102.810539,62.30917 -5.03691,13.91357 -9.450688,29.64492 -5.922786,44.34348 5.332585,14.53376 28.934395,12.74939 31.941723,-2.46598 -3.269022,-25.37338 22.579212,-61.25437 42.302906,-59.78539 -11.04419,52.23729 -22.37924,104.43427 -33.241788,156.69674 -0.105353,7.86999 8.926643,8.46331 14.744715,7.73934 5.647053,0.006 13.203336,-1.89718 10.568111,6.39112 0.132907,29.06649 -0.266047,58.1648 0.199872,87.21136 1.869901,15.52042 25.445586,19.02937 31.886086,4.84617 3.66691,-10.17819 1.03936,-21.42443 1.83249,-32.07487 v -66.37378 h 16.84174 c 0.13295,31.19686 -0.26609,62.42555 0.19986,93.60249 1.86975,15.52043 25.4454,19.0296 31.88604,4.84646 3.66704,-10.17826 1.03943,-21.42463 1.83257,-32.07517 v -66.37378 c 7.44658,-0.89674 15.895,1.97506 22.6379,-1.80181 5.88134,-5.7582 -0.0134,-14.16624 -0.37073,-20.9901 -10.21629,-48.10773 -20.43259,-96.21547 -30.64888,-144.3232 31.24772,8.59555 40.12476,40.55084 45.2421,67.8484 8.09173,13.16511 30.9123,6.86194 30.80478,-8.6879 1.43323,-40.37802 -25.58625,-78.82718 -63.38967,-92.46025 -14.77703,-5.79281 -30.69352,-8.42923 -46.53651,-8.42251" />
    <path
       style="display:inline;fill:#ffffff;fill-opacity:1;stroke-width:10.29045773"
       inkscape:connector-curvature="0"
       display="inline"
       id="path482"
       d="m 352.15687,173.43919 c -1.04894,-25.05491 29.98612,-42.31167 50.93217,-28.86252 20.92851,10.83574 22.33405,43.69378 2.36158,56.23447 -21.13606,15.69945 -54.04169,-0.7055 -53.29375,-27.37195 z m 33.84314,50.22458 c -42.19746,-0.98267 -86.72904,21.78956 -102.68605,62.36132 -5.23077,14.44173 -9.648,30.86769 -5.86005,46.07661 5.61314,14.54729 29.34595,12.32839 32.07951,-3.05373 -2.14395,-24.1366 13.97309,-56.49924 34.13332,-61.84324 v 257.40928 c 0.52142,15.63934 23.7285,21.09469 31.32244,7.4965 4.73958,-9.61911 1.62345,-20.86188 2.52068,-31.23495 V 399.19289 h 16.98024 c 0.15042,42.3561 -0.30071,84.75277 0.22532,127.08353 2.08876,15.49014 25.7132,18.66647 31.92317,4.37 3.40534,-10.37272 0.94982,-21.71113 1.69472,-32.50991 V 265.3787 c 28.58205,12.53449 31.00406,44.06574 36.83525,69.63576 8.36642,13.13022 31.22759,6.36283 30.82623,-9.29042 1.50976,-38.88455 -22.77373,-76.63908 -58.65042,-91.60256 -16.0814,-7.19979 -33.76945,-10.46906 -51.34438,-10.45771" />
    <path
       style="display:inline;fill:#ffffff;fill-opacity:1;stroke-width:1.08864415"
       inkscape:connector-curvature="0"
       display="inline"
       id="path835"
       d="m 479.20763,515.99756 v 19.88929 H 32.572777 V 515.99756 H 10.095953 c 0.397626,12.41604 -0.8545902,24.99194 0.73928,37.29207 6.096559,8.78064 17.736186,4.13492 26.665406,5.31063 H 240.71077 c -17.31715,18.31407 -35.52787,35.84937 -52.28875,54.64855 -5.1133,9.25008 4.98515,18.81934 13.90746,16.35959 43.96866,-0.17536 87.9822,0.35082 131.92281,-0.26326 9.84258,-1.64325 11.78754,-15.97649 3.69332,-21.32706 -15.48543,-16.47261 -30.97085,-32.94521 -46.45628,-49.41782 67.1858,-0.0988 134.38369,0.19775 201.56191,-0.14859 12.37521,-2.13709 7.66069,-16.86418 8.58991,-26.04769 -1.50898,-4.94594 3.32899,-16.50296 -3.02101,-16.40642 z M 225.09826,606.8512 c 13.71418,-13.93819 27.42836,-27.87638 41.14255,-41.81457 l 39.62677,41.81457 z" />
  </g>
</svg>
