<svg xmlns="http://www.w3.org/2000/svg" version="1.1" id="svg484" viewBox="0 0 512 512"><defs id="defs488"><style id="style823">.cls-1{fill:#00ffd2}</style></defs><path d="M96.061954 45.414392C95.027493 20.342043 126.09879 3.1470911 147.0459 16.571439c20.94602 10.804532 22.36175 43.671438 2.3692 56.187381-21.13455 15.68228-53.995198-.730202-53.353146-27.344428Zm33.996786 50.181873C87.845402 94.606541 43.222732 117.2919 27.248201 157.90544c-5.03691 13.91357-9.450688 29.64492-5.922786 44.34348 5.332585 14.53376 28.934395 12.74939 31.941723-2.46598-3.269022-25.37338 22.579212-61.25437 42.302906-59.78539-11.04419 52.23729-22.37924 104.43427-33.241788 156.69674-.105353 7.86999 8.926643 8.46331 14.744715 7.73934 5.647053.006 13.203336-1.89718 10.568111 6.39112.132907 29.06649-.266047 58.1648.199872 87.21136 1.869901 15.52042 25.445586 19.02937 31.886086 4.84617 3.66691-10.17819 1.03936-21.42443 1.83249-32.07487v-66.37378h16.84174c.13295 31.19686-.26609 62.42555.19986 93.60249 1.86975 15.52043 25.4454 19.0296 31.88604 4.84646 3.66704-10.17826 1.03943-21.42463 1.83257-32.07517v-66.37378c7.44658-.89674 15.895 1.97506 22.6379-1.80181 5.88134-5.7582-.0134-14.16624-.37073-20.9901-10.21629-48.10773-20.43259-96.21547-30.64888-144.3232 31.24772 8.59555 40.12476 40.55084 45.2421 67.8484 8.09173 13.16511 30.9123 6.86194 30.80478-8.6879 1.43323-40.37802-25.58625-78.82718-63.38967-92.46025-14.77703-5.792809-30.69352-8.429225-46.53651-8.422505" id="path470" display="inline" fill="#ff3a21" fill-opacity="1" stroke-width="10.29166031"/><path d="M352.15687 45.439192c-1.04894-25.054912 29.98612-42.3116767 50.93217-28.862517 20.92851 10.835739 22.33405 43.693772 2.36158 56.234464-21.13606 15.699451-54.04169-.7055-53.29375-27.371947zm33.84314 50.22458c-42.19746-.982669-86.72904 21.789558-102.68605 62.361318-5.23077 14.44173-9.648 30.86769-5.86005 46.07661 5.61314 14.54729 29.34595 12.32839 32.07951-3.05373-2.14395-24.1366 13.97309-56.49924 34.13332-61.84324v257.40928c.52142 15.63934 23.7285 21.09469 31.32244 7.4965 4.73958-9.61911 1.62345-20.86188 2.52068-31.23495V271.19289h16.98024c.15042 42.3561-.30071 84.75277.22532 127.08353 2.08876 15.49014 25.7132 18.66647 31.92317 4.37 3.40534-10.37272.94982-21.71113 1.69472-32.50991V137.3787c28.58205 12.53449 31.00406 44.06574 36.83525 69.63576 8.36642 13.13022 31.22759 6.36283 30.82623-9.29042 1.50976-38.88455-22.77373-76.63908-58.65042-91.60256-16.0814-7.199788-33.76945-10.469061-51.34438-10.457708" id="path482" display="inline" fill="#ff3a21" fill-opacity="1" stroke-width="10.29045773"/><path d="M488.63295 398.38775v19.88929H23.412159v-19.88929H4.8e-7c.41417196 12.41604-.89015242 24.99194.77004405 37.29207 6.35025707 8.78064 18.47424747 4.13492 27.77504147 5.31063H240.21145c-18.03777 18.31407-37.0063 35.84937-54.46466 54.64855-5.32608 9.25008 5.19261 18.81934 14.4862 16.35959 45.79834-.17536 91.64343.35082 137.41255-.26326 10.25216-1.64325 12.27806-15.97649 3.84701-21.32706-16.12983-16.47261-32.25965-32.94521-48.38947-49.41782 69.98162-.0988 139.97583.19775 209.94956-.14859 12.89018-2.13709 7.97948-16.86418 8.94736-26.04769-1.57177-4.94594 3.46753-16.50296-3.14672-16.40642h-20.22033zm-264.6837 90.85364c14.28488-13.93819 28.56975-27.87638 42.85463-41.81457l41.27577 41.81457h-84.1304z" id="path835" display="inline" fill="#ff3a21" fill-opacity="1" stroke-width="1.11106431"/></svg>