<svg xmlns="http://www.w3.org/2000/svg" xml:space="preserve" id="Layer_1" width="128" height="128" version="1.1">
  <style id="style2" type="text/css">
    .st0 {
      fill: #fff9f1
    }

    .st2 {
      fill: #598ae2
    }

    .st4 {
      fill: #ffd47c
    }
  </style>
  <g id="g42" transform="translate(-17.1 -12.6)">
    <path id="path4"
      d="M47.615 140.6h66.97c13.502 0 24.44-10.937 24.44-24.439v-66.97c-.001-13.502-10.938-24.44-24.44-24.44h-66.97c-13.502 0-24.44 10.938-24.44 24.44v66.97c0 13.502 10.938 24.439 24.44 24.439z"
      class="st0" style="fill:#e8eeee;fill-opacity:1;stroke:none;stroke-width:1.35021;stroke-opacity:1" />
    <path id="path6"
      d="M23.176 47.57v11.207h115.713V47.57c0-12.556-10.262-22.818-22.819-22.818H45.995c-12.557 0-22.819 10.262-22.819 22.818z"
      style="fill:#9a9bcc;fill-opacity:1;stroke-width:1.35021" />
    <g id="g12" transform="translate(.087 -4.413) scale(1.35021)">
      <circle id="ellipse8" cx="46.8" cy="34.9" r="5.3" class="st2" transform="rotate(-45.001 46.816 34.853)" />
      <circle id="ellipse10" cx="73.2" cy="34.9" r="5.3" class="st2" transform="rotate(-13.286 73.168 34.847)" />
    </g>
    <path id="path14"
      d="M63.952 45.545h-1.215c-2.835 0-5.266-2.295-5.266-5.266V17.866c0-2.836 2.296-5.266 5.266-5.266h1.215c2.836 0 5.266 2.295 5.266 5.266v22.413c-.135 2.97-2.43 5.266-5.266 5.266z"
      class="st0" style="fill:#e9e5e5;fill-opacity:1;stroke-width:1.35021" />
    <path id="path16"
      d="M99.463 45.545h-1.215c-2.836 0-5.266-2.295-5.266-5.266V17.866c0-2.836 2.295-5.266 5.266-5.266h1.215c2.835 0 5.266 2.295 5.266 5.266v22.413c0 2.97-2.296 5.266-5.266 5.266z"
      class="st0" style="fill:#e9e5e5;fill-opacity:1;stroke-width:1.35021" />
    <g id="g40" transform="translate(.087 -4.413) scale(1.35021)">
      <path id="path18"
        d="M78.5 73.1h-2.6c.1-.5.1-1 .1-1.5 0-5.2-4.2-9.4-9.4-9.4-1.8 0-3.4.5-4.8 1.3-2.2-3.4-6-5.7-10.4-5.7-6.8 0-12.3 5.5-12.3 12.3 0 1.1.2 2.2.4 3.2-3.5.9-6.1 4-6.1 7.8 0 4.4 3.6 8 8 8h36.9c4.4 0 8-3.6 8-8s-3.4-8-7.8-8z"
        style="fill:#a8cee6;fill-opacity:1" />
      <g id="g38">
        <circle id="circle20" cx="71.3" cy="69.2" r="8.9" class="st4" />
        <path id="path22" d="M71.3 59.2c.5 0 .9-.4.9-.9V55c0-.5-.4-.9-.9-.9s-.9.4-.9.9v3.2c-.1.6.4 1 .9 1z"
          class="st4" />
        <path id="path24" d="M71.3 79.2c-.5 0-.9.4-.9.9v3.2c0 .5.4.9.9.9s.9-.4.9-.9v-3.2c0-.5-.4-.9-.9-.9z"
          class="st4" />
        <path id="path26" d="M61.3 69.2c0-.5-.4-.9-.9-.9h-3.2c-.5 0-.9.4-.9.9s.4.9.9.9h3.2c.5 0 .9-.4.9-.9z"
          class="st4" />
        <path id="path28" d="M85.4 68.2h-3.2c-.5 0-.9.4-.9.9s.4.9.9.9h3.2c.5 0 .9-.4.9-.9.1-.4-.3-.9-.9-.9z"
          class="st4" />
        <path id="path30" d="M62.9 62.1c.4.4 1 .4 1.3 0 .4-.4.4-1 0-1.3L62 58.5c-.4-.4-1-.4-1.3 0-.4.4-.4 1 0 1.3z"
          class="st4" />
        <path id="path32" d="M79.7 76.3c-.4-.4-1-.4-1.3 0-.4.4-.4 1 0 1.3l2.3 2.3c.4.4 1 .4 1.3 0 .4-.4.4-1 0-1.3z"
          class="st4" />
        <path id="path34"
          d="m79.7 62.1 2.3-2.3c.4-.4.4-1 0-1.3-.4-.4-1-.4-1.3 0l-2.3 2.3c-.4.4-.4 1 0 1.3.3.4.9.4 1.3 0z"
          class="st4" />
        <path id="path36"
          d="m62.9 76.3-2.3 2.3c-.4.4-.4 1 0 1.3.4.4 1 .4 1.3 0l2.3-2.3c.4-.4.4-1 0-1.3-.3-.4-.9-.4-1.3 0z"
          class="st4" />
      </g>
    </g>
  </g>
</svg>