<?xml version="1.0" ?>
<!-- Uploaded to: SVG Repo, www.svgrepo.com, Generator: SVG Repo Mixer Tools -->
<svg width="800px" height="800px" viewBox="0 0 120 120" id="Layer_1" version="1.1" xml:space="preserve" xmlns="http://www.w3.org/2000/svg" xmlns:xlink="http://www.w3.org/1999/xlink">
<style type="text/css">
	.st0{fill:#FFF9F1;}
	.st1{fill:#6796FF;}
	.st2{fill:#598AE2;}
	.st3{fill:#C3E6FF;}
	.st4{fill:#FFD47C;}
</style>
<g>
<path class="st0" d="M35.2,107.4h49.6c10,0,18.1-8.1,18.1-18.1V39.7c0-10-8.1-18.1-18.1-18.1H35.2c-10,0-18.1,8.1-18.1,18.1v49.6   C17.1,99.3,25.2,107.4,35.2,107.4z"/>
<path class="st1" d="M17.1,38.5v8.3h85.7v-8.3c0-9.3-7.6-16.9-16.9-16.9H34C24.7,21.6,17.1,29.2,17.1,38.5z"/>
<g>
<ellipse class="st2" cx="46.8" cy="34.9" rx="5.3" ry="5.3" transform="matrix(0.7071 -0.7071 0.7071 0.7071 -10.9319 43.3121)"/>
<ellipse class="st2" cx="73.2" cy="34.9" rx="5.3" ry="5.3" transform="matrix(0.9732 -0.2298 0.2298 0.9732 -6.0496 17.7466)"/>
</g>
<path class="st0" d="M47.3,37h-0.9c-2.1,0-3.9-1.7-3.9-3.9V16.5c0-2.1,1.7-3.9,3.9-3.9h0.9c2.1,0,3.9,1.7,3.9,3.9v16.6   C51.1,35.3,49.4,37,47.3,37z"/>
<path class="st0" d="M73.6,37h-0.9c-2.1,0-3.9-1.7-3.9-3.9V16.5c0-2.1,1.7-3.9,3.9-3.9h0.9c2.1,0,3.9,1.7,3.9,3.9v16.6   C77.5,35.3,75.8,37,73.6,37z"/>
<g>
<path class="st3" d="M78.5,73.1h-2.6c0.1-0.5,0.1-1,0.1-1.5c0-5.2-4.2-9.4-9.4-9.4c-1.8,0-3.4,0.5-4.8,1.3    c-2.2-3.4-6-5.7-10.4-5.7c-6.8,0-12.3,5.5-12.3,12.3c0,1.1,0.2,2.2,0.4,3.2c-3.5,0.9-6.1,4-6.1,7.8c0,4.4,3.6,8,8,8h36.9    c4.4,0,8-3.6,8-8S82.9,73.1,78.5,73.1z"/>
<g>
<circle class="st4" cx="71.3" cy="69.2" r="8.9"/>
<path class="st4" d="M71.3,59.2c0.5,0,0.9-0.4,0.9-0.9V55c0-0.5-0.4-0.9-0.9-0.9c-0.5,0-0.9,0.4-0.9,0.9v3.2     C70.3,58.8,70.8,59.2,71.3,59.2z"/>
<path class="st4" d="M71.3,79.2c-0.5,0-0.9,0.4-0.9,0.9v3.2c0,0.5,0.4,0.9,0.9,0.9c0.5,0,0.9-0.4,0.9-0.9v-3.2     C72.2,79.6,71.8,79.2,71.3,79.2z"/>
<path class="st4" d="M61.3,69.2c0-0.5-0.4-0.9-0.9-0.9h-3.2c-0.5,0-0.9,0.4-0.9,0.9c0,0.5,0.4,0.9,0.9,0.9h3.2     C60.9,70.1,61.3,69.7,61.3,69.2z"/>
<path class="st4" d="M85.4,68.2h-3.2c-0.5,0-0.9,0.4-0.9,0.9c0,0.5,0.4,0.9,0.9,0.9h3.2c0.5,0,0.9-0.4,0.9-0.9     C86.4,68.7,86,68.2,85.4,68.2z"/>
<path class="st4" d="M62.9,62.1c0.4,0.4,1,0.4,1.3,0c0.4-0.4,0.4-1,0-1.3L62,58.5c-0.4-0.4-1-0.4-1.3,0c-0.4,0.4-0.4,1,0,1.3     L62.9,62.1z"/>
<path class="st4" d="M79.7,76.3c-0.4-0.4-1-0.4-1.3,0c-0.4,0.4-0.4,1,0,1.3l2.3,2.3c0.4,0.4,1,0.4,1.3,0c0.4-0.4,0.4-1,0-1.3     L79.7,76.3z"/>
<path class="st4" d="M79.7,62.1l2.3-2.3c0.4-0.4,0.4-1,0-1.3c-0.4-0.4-1-0.4-1.3,0l-2.3,2.3c-0.4,0.4-0.4,1,0,1.3     C78.7,62.5,79.3,62.5,79.7,62.1z"/>
<path class="st4" d="M62.9,76.3l-2.3,2.3c-0.4,0.4-0.4,1,0,1.3c0.4,0.4,1,0.4,1.3,0l2.3-2.3c0.4-0.4,0.4-1,0-1.3     C63.9,75.9,63.3,75.9,62.9,76.3z"/>
</g>
</g>
</g>
</svg>