<?xml version="1.0" encoding="UTF-8" standalone="no"?>
<!-- Uploaded to: SVG Repo, www.svgrepo.com, Generator: SVG Repo Mixer Tools -->

<svg
   width="128"
   height="128"
   viewBox="0 0 128 128"
   id="Layer_1"
   version="1.1"
   xml:space="preserve"
   sodipodi:docname="seasonal-forecast.svg"
   inkscape:version="1.2.1 (9c6d41e410, 2022-07-14)"
   xmlns:inkscape="http://www.inkscape.org/namespaces/inkscape"
   xmlns:sodipodi="http://sodipodi.sourceforge.net/DTD/sodipodi-0.dtd"
   xmlns="http://www.w3.org/2000/svg"
   xmlns:svg="http://www.w3.org/2000/svg"><defs
   id="defs47" /><sodipodi:namedview
   id="namedview45"
   pagecolor="#ffffff"
   bordercolor="#666666"
   borderopacity="1.0"
   inkscape:showpageshadow="2"
   inkscape:pageopacity="0.0"
   inkscape:pagecheckerboard="0"
   inkscape:deskcolor="#d1d1d1"
   showgrid="false"
   inkscape:zoom="2.9309576"
   inkscape:cx="-55.442631"
   inkscape:cy="67.213528"
   inkscape:window-width="1920"
   inkscape:window-height="1009"
   inkscape:window-x="1912"
   inkscape:window-y="-8"
   inkscape:window-maximized="1"
   inkscape:current-layer="g42" />

<style
   type="text/css"
   id="style2">
	.st0{fill:#FFF9F1;}
	.st1{fill:#6796FF;}
	.st2{fill:#598AE2;}
	.st3{fill:#C3E6FF;}
	.st4{fill:#FFD47C;}
</style>

<g
   id="g42"
   transform="translate(-17.1,-12.6)">

<path
   class="st0"
   d="m 47.614769,140.6 h 66.970461 c 13.50211,0 24.43882,-10.93671 24.43882,-24.43882 V 49.190717 c 0,-13.502109 -10.93671,-24.438818 -24.43882,-24.438818 H 47.614769 c -13.50211,0 -24.438819,10.936709 -24.438819,24.438818 v 66.970463 c 0,13.50211 10.936709,24.43882 24.438819,24.43882 z"
   id="path4"
   style="fill:#e8eeee;fill-opacity:1;stroke:none;stroke-width:1.35021;stroke-opacity:1" />

<path
   class="st1"
   d="M 23.17595,47.570464 V 58.777215 H 138.88903 V 47.570464 c 0,-12.556962 -10.2616,-22.818565 -22.81857,-22.818565 H 45.994515 c -12.556962,0 -22.818565,10.261603 -22.818565,22.818565 z"
   id="path6"
   style="fill:#9a9bcc;fill-opacity:1;stroke-width:1.35021" />

<g
   id="g12"
   transform="matrix(1.350211,0,0,1.350211,0.0873424,-4.4126582)">

<circle
   class="st2"
   cx="46.799999"
   cy="34.900002"
   transform="matrix(0.7071,-0.7071,0.7071,0.7071,-10.9319,43.3121)"
   id="ellipse8"
   r="5.3000002" />

<circle
   class="st2"
   cx="73.199997"
   cy="34.900002"
   transform="matrix(0.9732,-0.2298,0.2298,0.9732,-6.0496,17.7466)"
   id="ellipse10"
   r="5.3000002" />

</g>

<path
   class="st0"
   d="m 63.952321,45.545148 h -1.21519 c -2.835443,0 -5.265822,-2.295359 -5.265822,-5.265823 V 17.865823 C 57.471309,15.03038 59.766667,12.6 62.737131,12.6 h 1.21519 c 2.835443,0 5.265823,2.295359 5.265823,5.265823 v 22.413502 c -0.135021,2.970464 -2.43038,5.265823 -5.265823,5.265823 z"
   id="path14"
   style="fill:#e9e5e5;fill-opacity:1;stroke-width:1.35021" />

<path
   class="st0"
   d="m 99.46287,45.545148 h -1.21519 c -2.835443,0 -5.265823,-2.295359 -5.265823,-5.265823 V 17.865823 C 92.981857,15.03038 95.277216,12.6 98.24768,12.6 h 1.21519 c 2.83544,0 5.26582,2.295359 5.26582,5.265823 v 22.413502 c 0,2.970464 -2.29536,5.265823 -5.26582,5.265823 z"
   id="path16"
   style="fill:#e9e5e5;fill-opacity:1;stroke-width:1.35021" />

<g
   id="g40"
   transform="matrix(1.350211,0,0,1.350211,0.0873424,-4.4126582)">

<path
   class="st3"
   d="m 78.5,73.1 h -2.6 c 0.1,-0.5 0.1,-1 0.1,-1.5 0,-5.2 -4.2,-9.4 -9.4,-9.4 -1.8,0 -3.4,0.5 -4.8,1.3 -2.2,-3.4 -6,-5.7 -10.4,-5.7 -6.8,0 -12.3,5.5 -12.3,12.3 0,1.1 0.2,2.2 0.4,3.2 -3.5,0.9 -6.1,4 -6.1,7.8 0,4.4 3.6,8 8,8 h 36.9 c 4.4,0 8,-3.6 8,-8 0,-4.4 -3.4,-8 -7.8,-8 z"
   id="path18"
   style="fill:#a8cee6;fill-opacity:1" />

<g
   id="g38">

<circle
   class="st4"
   cx="71.300003"
   cy="69.199997"
   r="8.8999996"
   id="circle20" />

<path
   class="st4"
   d="m 71.3,59.2 c 0.5,0 0.9,-0.4 0.9,-0.9 V 55 c 0,-0.5 -0.4,-0.9 -0.9,-0.9 -0.5,0 -0.9,0.4 -0.9,0.9 v 3.2 c -0.1,0.6 0.4,1 0.9,1 z"
   id="path22" />

<path
   class="st4"
   d="m 71.3,79.2 c -0.5,0 -0.9,0.4 -0.9,0.9 v 3.2 c 0,0.5 0.4,0.9 0.9,0.9 0.5,0 0.9,-0.4 0.9,-0.9 v -3.2 c 0,-0.5 -0.4,-0.9 -0.9,-0.9 z"
   id="path24" />

<path
   class="st4"
   d="m 61.3,69.2 c 0,-0.5 -0.4,-0.9 -0.9,-0.9 h -3.2 c -0.5,0 -0.9,0.4 -0.9,0.9 0,0.5 0.4,0.9 0.9,0.9 h 3.2 c 0.5,0 0.9,-0.4 0.9,-0.9 z"
   id="path26" />

<path
   class="st4"
   d="m 85.4,68.2 h -3.2 c -0.5,0 -0.9,0.4 -0.9,0.9 0,0.5 0.4,0.9 0.9,0.9 h 3.2 c 0.5,0 0.9,-0.4 0.9,-0.9 0.1,-0.4 -0.3,-0.9 -0.9,-0.9 z"
   id="path28" />

<path
   class="st4"
   d="m 62.9,62.1 c 0.4,0.4 1,0.4 1.3,0 0.4,-0.4 0.4,-1 0,-1.3 L 62,58.5 c -0.4,-0.4 -1,-0.4 -1.3,0 -0.4,0.4 -0.4,1 0,1.3 z"
   id="path30" />

<path
   class="st4"
   d="m 79.7,76.3 c -0.4,-0.4 -1,-0.4 -1.3,0 -0.4,0.4 -0.4,1 0,1.3 l 2.3,2.3 c 0.4,0.4 1,0.4 1.3,0 0.4,-0.4 0.4,-1 0,-1.3 z"
   id="path32" />

<path
   class="st4"
   d="M 79.7,62.1 82,59.8 c 0.4,-0.4 0.4,-1 0,-1.3 -0.4,-0.4 -1,-0.4 -1.3,0 l -2.3,2.3 c -0.4,0.4 -0.4,1 0,1.3 0.3,0.4 0.9,0.4 1.3,0 z"
   id="path34" />

<path
   class="st4"
   d="m 62.9,76.3 -2.3,2.3 c -0.4,0.4 -0.4,1 0,1.3 0.4,0.4 1,0.4 1.3,0 l 2.3,-2.3 c 0.4,-0.4 0.4,-1 0,-1.3 -0.3,-0.4 -0.9,-0.4 -1.3,0 z"
   id="path36" />

</g>

</g>

</g>

</svg>
