<svg xmlns="http://www.w3.org/2000/svg" viewBox="0 0 96 96" fill="#FFF" stroke-miterlimit="10" stroke-width="2">
	<path stroke="#979593" d="M67.1716,20H11c-1.1046,0-2,0.8954-2,2v52 c0,1.1046,0.8954,2,2,2h74c1.1046,0,2-0.8954,2-2V39.8284c0-0.5304-0.2107-1.0391-0.5858-1.4142L68.5858,20.5858 C68.2107,20.2107,67.702,20,67.1716,20z"/>
	<path fill="none" stroke="#979593" d="M67,20v18c0,1.1046,0.8954,2,2,2h18"/>
	<path fill="#217346" d="M28 44H17c-.5523 0-1-.4477-1-1l0 0c0-.5523.4477-1 1-1h11c.5523 0 1 .4477 1 1l0 0C29 43.5523 28.5523 44 28 44zM28 38H17c-.5523 0-1-.4477-1-1l0 0c0-.5523.4477-1 1-1h11c.5523 0 1 .4477 1 1l0 0C29 37.5523 28.5523 38 28 38zM28 50H17c-.5523 0-1-.4477-1-1l0 0c0-.5523.4477-1 1-1h11c.5523 0 1 .4477 1 1l0 0C29 49.5523 28.5523 50 28 50zM28 56H17c-.5523 0-1-.4477-1-1l0 0c0-.5523.4477-1 1-1h11c.5523 0 1 .4477 1 1l0 0C29 55.5523 28.5523 56 28 56zM28 62H17c-.5523 0-1-.4477-1-1l0 0c0-.5523.4477-1 1-1h11c.5523 0 1 .4477 1 1l0 0C29 61.5523 28.5523 62 28 62zM28 68H17c-.5523 0-1-.4477-1-1l0 0c0-.5523.4477-1 1-1h11c.5523 0 1 .4477 1 1l0 0C29 67.5523 28.5523 68 28 68z"/>
	<path fill="#C8C6C4" d="M45 44H34c-.5523 0-1-.4477-1-1l0 0c0-.5523.4477-1 1-1h11c.5523 0 1 .4477 1 1l0 0C46 43.5523 45.5523 44 45 44zM45 38H34c-.5523 0-1-.4477-1-1l0 0c0-.5523.4477-1 1-1h11c.5523 0 1 .4477 1 1l0 0C46 37.5523 45.5523 38 45 38zM45 50H34c-.5523 0-1-.4477-1-1l0 0c0-.5523.4477-1 1-1h11c.5523 0 1 .4477 1 1l0 0C46 49.5523 45.5523 50 45 50zM45 56H34c-.5523 0-1-.4477-1-1l0 0c0-.5523.4477-1 1-1h11c.5523 0 1 .4477 1 1l0 0C46 55.5523 45.5523 56 45 56zM45 62H34c-.5523 0-1-.4477-1-1l0 0c0-.5523.4477-1 1-1h11c.5523 0 1 .4477 1 1l0 0C46 61.5523 45.5523 62 45 62zM45 68H34c-.5523 0-1-.4477-1-1l0 0c0-.5523.4477-1 1-1h11c.5523 0 1 .4477 1 1l0 0C46 67.5523 45.5523 68 45 68zM62 44H51c-.5523 0-1-.4477-1-1l0 0c0-.5523.4477-1 1-1h11c.5523 0 1 .4477 1 1l0 0C63 43.5523 62.5523 44 62 44zM62 38H51c-.5523 0-1-.4477-1-1l0 0c0-.5523.4477-1 1-1h11c.5523 0 1 .4477 1 1l0 0C63 37.5523 62.5523 38 62 38zM62 50H51c-.5523 0-1-.4477-1-1l0 0c0-.5523.4477-1 1-1h11c.5523 0 1 .4477 1 1l0 0C63 49.5523 62.5523 50 62 50zM62 56H51c-.5523 0-1-.4477-1-1l0 0c0-.5523.4477-1 1-1h11c.5523 0 1 .4477 1 1l0 0C63 55.5523 62.5523 56 62 56zM62 62H51c-.5523 0-1-.4477-1-1l0 0c0-.5523.4477-1 1-1h11c.5523 0 1 .4477 1 1l0 0C63 61.5523 62.5523 62 62 62zM62 68H51c-.5523 0-1-.4477-1-1l0 0c0-.5523.4477-1 1-1h11c.5523 0 1 .4477 1 1l0 0C63 67.5523 62.5523 68 62 68zM79 50H68c-.5523 0-1-.4477-1-1l0 0c0-.5523.4477-1 1-1h11c.5523 0 1 .4477 1 1l0 0C80 49.5523 79.5523 50 79 50zM79 56H68c-.5523 0-1-.4477-1-1l0 0c0-.5523.4477-1 1-1h11c.5523 0 1 .4477 1 1l0 0C80 55.5523 79.5523 56 79 56zM79 62H68c-.5523 0-1-.4477-1-1l0 0c0-.5523.4477-1 1-1h11c.5523 0 1 .4477 1 1l0 0C80 61.5523 79.5523 62 79 62zM79 68H68c-.5523 0-1-.4477-1-1l0 0c0-.5523.4477-1 1-1h11c.5523 0 1 .4477 1 1l0 0C80 67.5523 79.5523 68 79 68z"/>
</svg>