<?xml version="1.0" encoding="UTF-8" standalone="no"?>
<svg
   xmlns:dc="http://purl.org/dc/elements/1.1/"
   xmlns:cc="http://creativecommons.org/ns#"
   xmlns:rdf="http://www.w3.org/1999/02/22-rdf-syntax-ns#"
   xmlns:svg="http://www.w3.org/2000/svg"
   xmlns="http://www.w3.org/2000/svg"
   xmlns:sodipodi="http://sodipodi.sourceforge.net/DTD/sodipodi-0.dtd"
   xmlns:inkscape="http://www.inkscape.org/namespaces/inkscape"
   data-name="Layer 1"
   viewBox="0 0 75 50"
   version="1.1"
   id="svg16"
   sodipodi:docname="videos.svg"
   width="75"
   height="50"
   inkscape:version="0.92.4 (5da689c313, 2019-01-14)">
  <metadata
     id="metadata22">
    <rdf:RDF>
      <cc:Work
         rdf:about="">
        <dc:format>image/svg+xml</dc:format>
        <dc:type
           rdf:resource="http://purl.org/dc/dcmitype/StillImage" />
        <dc:title></dc:title>
      </cc:Work>
    </rdf:RDF>
  </metadata>
  <defs
     id="defs20" />
  <sodipodi:namedview
     pagecolor="#ffffff"
     bordercolor="#666666"
     borderopacity="1"
     objecttolerance="10"
     gridtolerance="10"
     guidetolerance="10"
     inkscape:pageopacity="0"
     inkscape:pageshadow="2"
     inkscape:window-width="1403"
     inkscape:window-height="713"
     id="namedview18"
     showgrid="false"
     fit-margin-top="0"
     fit-margin-left="0"
     fit-margin-right="0"
     fit-margin-bottom="0"
     inkscape:zoom="4.72"
     inkscape:cx="-5.6583709"
     inkscape:cy="13.01224"
     inkscape:window-x="0"
     inkscape:window-y="0"
     inkscape:window-maximized="0"
     inkscape:current-layer="svg16" />
  <path
     style="fill:#ea4335;fill-rule:evenodd;stroke-width:1.00321531"
     d="M 67.33,50 C 44.886667,50 22.443333,50 0,50 0,33.333333 0,16.666667 0,0 25,0 50,0 75,0 74.973248,14.34735 75.053629,28.6975 74.959588,43.043092 74.637374,46.891258 71.17368,50.033921 67.33,50 Z"
     id="path2"
     inkscape:connector-curvature="0" />
  <path
     d="m 46.56,23.852656 -8.41,-4.891302 -8.4,-4.861113 a 1.24,1.2479872 0 0 0 -1.29,0 1.26,1.2681158 0 0 0 -0.66,1.127215 v 19.514896 a 1.28,1.2882448 0 0 0 1.92,1.107085 l 7.82,-4.569244 0.57,-0.332126 8.39,-4.891302 a 1.29,1.2983091 0 0 0 0.06,-2.204109 z"
     id="path4"
     inkscape:connector-curvature="0"
     style="fill:#ffffff;fill-rule:evenodd;stroke-width:1.00321531" />
  <path
     style="fill:#3c4043;fill-rule:evenodd;stroke-width:1.00321531"
     d="m 75,41.103059 c -25,0 -50,0 -75,0 0,2.965647 0,5.931294 0,8.896941 25,0 50,0 75,0 0,-2.965647 0,-5.931294 0,-8.896941 z"
     id="path6"
     inkscape:connector-curvature="0" />
  <rect
     width="5"
     height="5.032207"
     x="3"
     y="43.115944"
     rx="0.47999999"
     id="rect8"
     style="fill:#ffffff;stroke-width:1.00321531" />
  <path
     stroke-miterlimit="10"
     d="M 11,44.404185 H 30"
     id="path10"
     inkscape:connector-curvature="0"
     style="fill:none;stroke:#ffffff;stroke-width:1.00321531;stroke-linecap:round;stroke-miterlimit:10" />
  <path
     stroke-miterlimit="10"
     d="m 11,46.920292 h 9"
     id="path12"
     inkscape:connector-curvature="0"
     style="fill:none;stroke:#ffffff;stroke-width:0.7524116;stroke-linecap:round;stroke-miterlimit:10" />
  <path
     style="fill:#f8bb16;stroke-width:1.00321531"
     d="m 56.5,43.619161 c 4.666667,0 9.333333,0 14,0 0,1.006442 0,2.012883 0,3.019325 -4.666667,0 -9.333333,0 -14,0 0,-1.006442 0,-2.012883 0,-3.019325 z"
     id="path14"
     inkscape:connector-curvature="0" />
</svg>
