<svg xmlns="http://www.w3.org/2000/svg" xmlns:xlink="http://www.w3.org/1999/xlink" version="1.1" x="0px" y="0px" viewBox="0 0 100.001 80.858" enable-background="new 0 0 100.001 80.858" xml:space="preserve"><path d="M12.279,12.927c2.35,0.244,5.111,1.839,7.031,1.855c1.244,0.006,2.937-0.934,4.304-1.035  c1.367-0.091,2.773-0.052,4.127,0.244c6.302,1.364,12.123,2.464,19.037,2.119c3.483-0.172,6.243-0.827,9.545-1.908  c3.424-1.12,5.885-2.057,8.404,1.071c0.736,0.921,1.394,3.066,2.299,3.646c1.276,0.807,3.796-0.169,5.144-0.277  c2.402-0.205,8.072,0.716,9.603-1.416c0.847-1.211-0.396-3.503-0.071-4.932c0.312-1.445,1.433-2.452,2.278-3.646  c1.628-2.334,3.789-5.414,4.082-8.22c1.342,2.363-2.305,8.164-2.617,10.782C87.86,7.731,89.683,3.438,91.011,0  c0.014,3.392-0.345,5.964-1.855,8.978c-1.185,2.393-2.539,6.279-1.035,8.783c1.303,2.155,3.822,2.757,4.389,5.541  c0.71,3.431,2.07,5.349,4.004,8.252c1.191,1.8,4.577,5.238,3.138,7.363c-0.384,0.58-2.852,2.236-3.548,2.389  c-1.608,0.329-2.285-1.211-3.815-1.858c-1.419-0.612-2.604-0.873-4.075-1.699c-1.459-0.811-2.67-1.315-4.395-1.315  c-1.654,0-3.478,0.368-5.04,0.896c-2.044,0.687-1.842,1.292-2.845,2.864c-3.034,4.782-10,6.638-13.646,11.12  c-2.559,3.125-1.158,11.498-0.904,15.612c0.149,2.39,0.872,5.078,2.057,7.24c0.944,1.719,3.692,3.854,3.62,5.84  c-1.387,0.183-5.039-2.246-5.729-3.347c-1.178-1.882-0.95-5.566-1.387-7.676c-0.469-2.266-1.282-4.428-2.109-6.562  c-0.885-2.305-1.295-5.482-2.656-7.48c0.248,2.239,0.3,4.492-0.162,6.673c-0.431,2.005-1.589,3.737-1.882,5.729  c-0.339,2.278,0,4.883,0,7.188c0,1.419-0.007,2.194,0.625,3.398c0.572,1.042,1.719,1.445,1.667,2.715  c-6.446-1.731-4.655-9.414-4.421-14.564c0.156-2.955-0.085-5.904-0.424-8.828c-0.26-2.298,0.059-6.862-1.054-8.851  c-1.198-2.148-4.929-0.814-7.012-0.518c-3.294,0.442-6.602,0.95-9.922,0.611c-2.644-0.267-5.228-1.27-7.402-2.803  c-1.895-1.321-3.861-4.378-5.892-5.01c-0.104,3.679-1.954,4.841-3.269,8.021c-1.12,2.701-1.758,6.321-2.292,9.102  c-1.433,7.409,2.376,12.729,5.091,19.069c0.495,1.159,1.523,2.839,1.016,3.972c-2.247-0.859-3.184-0.781-4.245-3.301  c-0.912-2.136-1.25-4.434-2.012-6.654c-0.709-2.063-1.38-4.343-2.103-6.517c-0.364-1.055-1.537-6.367-3.249-4.44  c0.723,1.472,0.651,3.659,0.905,5.286c0.299,1.934,0.905,3.842,1.452,5.71c0.476,1.635,0.892,3.444,1.465,5.072  c0.54,1.504,1.797,3.242,1.653,4.856c-5.97-1.328-6.686-12.305-7.734-16.745c-0.651-2.695-2.39-6.081-2.376-8.841  c0-3.139,2.351-6.192,3.373-9.083c1.302-3.643,0.475-6.657-0.996-10.016c-1.257-2.842-1.947-7.044-3.874-9.398  c-0.442,6.572,0,13.229,0,20.036c0,3.616,0.039,6.859,0.234,10.368c0.098,2.337,0.632,7.923-1.289,9.329  c-1.758-2.07-0.28-7.669,0-10.182c0.391-3.529,0.612-6.628,0.267-10.15C0.651,39.421,0,32.335,0,25.427  c0-5.45,1.256-8.262,5.918-10.85C8.092,13.376,9.831,12.689,12.279,12.927z"></path></svg>