<?xml version="1.0" encoding="UTF-8" standalone="no"?>
<svg
   xmlns:dc="http://purl.org/dc/elements/1.1/"
   xmlns:cc="http://creativecommons.org/ns#"
   xmlns:rdf="http://www.w3.org/1999/02/22-rdf-syntax-ns#"
   xmlns:svg="http://www.w3.org/2000/svg"
   xmlns="http://www.w3.org/2000/svg"
   xmlns:sodipodi="http://sodipodi.sourceforge.net/DTD/sodipodi-0.dtd"
   xmlns:inkscape="http://www.inkscape.org/namespaces/inkscape"
   version="1.1"
   x="0px"
   y="0px"
   viewBox="0 0 97.889633 87.079643"
   xml:space="preserve"
   id="svg16"
   sodipodi:docname="sheep.svg"
   width="97.889633"
   height="87.079643"
   inkscape:version="0.92.2 (5c3e80d, 2017-08-06)"><metadata
     id="metadata22"><rdf:RDF><cc:Work
         rdf:about=""><dc:format>image/svg+xml</dc:format><dc:type
           rdf:resource="http://purl.org/dc/dcmitype/StillImage" /><dc:title></dc:title></cc:Work></rdf:RDF></metadata><defs
     id="defs20" /><sodipodi:namedview
     pagecolor="#ffffff"
     bordercolor="#666666"
     borderopacity="1"
     objecttolerance="10"
     gridtolerance="10"
     guidetolerance="10"
     inkscape:pageopacity="0"
     inkscape:pageshadow="2"
     inkscape:window-width="750"
     inkscape:window-height="480"
     id="namedview18"
     showgrid="false"
     fit-margin-top="0"
     fit-margin-left="0"
     fit-margin-right="0"
     fit-margin-bottom="0"
     inkscape:zoom="1.888"
     inkscape:cx="-67.193753"
     inkscape:cy="28.365138"
     inkscape:window-x="0"
     inkscape:window-y="0"
     inkscape:window-maximized="0"
     inkscape:current-layer="svg16" /><g
     id="g10"
     transform="translate(-1.0920577,-6.4092484)"><path
       d="m 25.6,63.4 c 0,0 0.2,1.6 1.8,7.1 1.6,5.5 2.8,17 2.8,17 h 3.4 c 0,0 -0.2,-11.7 -0.5,-13.3 -0.2,-1.6 1.6,-9.7 1.6,-9.7 -4,0.7 -9.1,-1.1 -9.1,-1.1 z"
       id="path2"
       inkscape:connector-curvature="0" /><path
       d="m 79.9,60.2 -3,-2 c -3.4,3 -7.1,3.9 -7.1,3.9 l -2.9,1.1 c 0,0 4.1,2.8 4.3,6.2 0.2,3.4 -1.4,7.6 -3.4,11.6 -2.1,4 -3.7,8.4 -3.7,8.4 h 5.7 l 1.6,-2.1 c 0,0 5.7,-9.4 8.5,-13.6 2.8,-4.1 0.9,-4.8 0,-8.7 -0.9,-3.7 0,-4.8 0,-4.8 z"
       id="path4"
       inkscape:connector-curvature="0" /><path
       d="m 22.5,30.4 c 0,0 2.7,-0.6 3,-1.3 0.3,-0.7 0,-0.8 -0.2,-0.8 -0.9,-0.3 -2.8,1.1 -2.8,1.1 0,0 -1.9,-1.3 -2.8,-1.1 -0.2,0.1 -0.6,0.2 -0.2,0.8 0.3,0.6 3,1.3 3,1.3 z"
       id="path6"
       inkscape:connector-curvature="0" /><path
       d="M 94.5,26.2 C 91.6,21.8 86.4,17.1 79,15.9 77.6,15 75.1,14.1 72.6,15.7 c -0.1,0 -0.3,0 -0.4,0 -0.3,0 -0.6,0.1 -0.9,0.1 -1.9,-0.5 -5.7,-1.1 -8.8,1.3 -0.1,0.1 -0.2,0.2 -0.3,0.2 -2,-0.6 -4.9,-0.9 -7.6,0.7 -0.7,0.4 -1,0.7 -1.1,1 0,0 0,0 0,0 -2,-0.7 -5.4,-1.5 -8.5,0.4 -0.1,0.1 -0.2,0.1 -0.3,0.2 -2.5,1.5 -5.6,1.6 -5.6,1.6 0,1.6 -1.4,4.5 -1.4,4.5 0.3,-2.2 0.1,-5.1 0,-5.9 5,0.1 9.2,-4.1 7.9,-4.8 -1.6,-0.8 -4.8,-1.9 -7.1,-1.9 -1.4,0 -2.4,0.4 -3,0.7 0,0 0,0 0,0 C 34.9,11.5 33.3,9.9 31.9,8.9 30.8,7.7 28.6,5.8 25.4,6.6 24.9,6.7 24.6,6.9 24.4,7 22.9,6.4 20.7,6 18.6,7.4 c -0.4,0.3 -0.7,0.5 -0.8,0.7 -1.5,-0.2 -4,0 -5.5,2.7 -0.3,0.5 -0.4,0.9 -0.4,1.1 -0.5,0.7 -1,1.5 -1.3,2.3 -0.1,-0.1 -0.2,-0.2 -0.2,-0.2 0,0 -1.2,-1 -3.4,-1 -2.2,0 -4.1,2.5 -5.7,3.3 -1.4,0.7 4.6,3.5 8.1,3.2 -0.5,2 -1,5.4 1,8.3 0.1,0.1 0.1,0.2 0.2,0.3 -0.5,2 -0.7,5.2 1.2,7.9 0.2,0.3 0.3,0.5 0.5,0.6 -0.4,2 -0.7,5.5 1.5,8.4 0.4,0.5 0.7,0.8 0.9,0.9 0,2 0.4,5.8 3.4,8.2 0.3,0.2 0.6,0.4 0.8,0.5 0.1,1.5 0.8,4.3 3.9,5.2 0.6,0.2 1,0.2 1.2,0.2 2.3,1.7 4.9,2.5 8.3,2.6 h 2.9 c 0,0 -1.1,-4.9 -2.7,-6.6 0,0 4.6,4.5 4.6,6.6 0,2.1 -1.3,8.5 -1.9,11.5 -0.6,3 1.6,6.4 0,14.3 V 93 c 0,0 3.5,1.1 5.8,0 0,0 1.4,-6.7 1.4,-9.4 0,-2.8 2.7,-10.1 5.3,-15 2.6,-4.8 6,-13 6.2,-20.4 0,0 1.6,6.4 -0.9,13 0,0 11.2,0.4 12.6,0 5.7,-1.5 8,-2.9 11.5,-7.5 0,0 3.2,-4.1 3.4,-9.9 0,0 1.8,7 -2.8,12.3 0,0 3.9,3.6 4.8,5.1 0.9,1.5 3.4,6.1 3.7,9.1 0.2,3 0.2,13.3 0,14.9 -0.2,1.6 -0.9,4.6 -0.9,4.6 0,0 5.3,1.8 7.3,-0.2 0,0 -0.6,-6.2 0,-8.4 0.6,-2.2 0.1,-10 1.5,-14.8 0.9,-3.2 -0.6,-7.5 -0.9,-11.8 1.6,-2.4 1.6,-5.1 1.3,-7.1 0.2,-0.4 0.3,-0.8 0.5,-1.3 0.1,-0.1 0.2,-0.2 0.3,-0.4 1.6,-2.3 1.7,-5 1.3,-7 0,-0.1 0,-0.3 0,-0.4 0,0 0.1,0 0.1,0 6.2,1.3 -2.2,-12.2 -2.2,-12.2 z M 18.3,20.7 c 0.7,-0.6 1.7,-1.2 2.9,-1.4 2.3,-0.3 3.8,0 5.7,1.9 0.7,0.7 0.6,2.4 0.4,3.4 -0.5,3.3 -0.7,5.7 -1.1,7.4 -1.8,0.7 -3.7,-0.4 -3.7,-0.4 -1.3,1 -2.7,0.7 -3.8,0.3 -0.6,-1.8 -0.7,-4.3 -1.1,-7.3 -0.1,-1.2 -0.2,-3.1 0.7,-3.9 z m -2.5,-1.3 c -0.6,0 -1.1,-0.5 -1.1,-1.1 0,-0.6 0.5,-1.1 1.1,-1.1 0.6,0 1.1,0.5 1.1,1.1 0,0.6 -0.5,1.1 -1.1,1.1 z m 7,15.6 c -1.9,-0.1 -2.9,-0.9 -3.6,-2.1 0.6,0.3 1.1,0.2 1.1,0.2 0,0 1.2,1 2.6,1 1.3,0 2.2,-1 2.2,-1 0.4,0 0.7,-0.1 1,-0.2 -0.7,1.6 -1.6,2.2 -3.3,2.1 z m 6.3,-15.6 c -0.6,0 -1.1,-0.5 -1.1,-1.1 0,-0.6 0.5,-1.1 1.1,-1.1 0.6,0 1.1,0.5 1.1,1.1 0,0.6 -0.5,1.1 -1.1,1.1 z"
       id="path8"
       inkscape:connector-curvature="0" /></g></svg>