<svg version="1.1" id="Layer_1" xmlns="http://www.w3.org/2000/svg" xmlns:xlink="http://www.w3.org/1999/xlink" x="0px" y="0px"
	 width="100%" viewBox="0 0 512 512" enable-background="new 0 0 512 512" xml:space="preserve">
<path fill="#000000" opacity="1.000000" stroke="none" 
	d="
M277.000000,1.000000 
	C355.636688,1.000000 434.273407,1.000000 512.955078,1.000000 
	C512.955078,171.571671 512.955078,342.143341 512.955078,513.000000 
	C384.644165,513.000000 256.288116,513.000000 127.828911,512.798828 
	C129.177917,512.288879 130.622574,511.756317 132.083481,511.707184 
	C142.116776,511.369843 151.898987,509.471039 161.587585,507.034332 
	C194.146057,498.845795 222.853027,483.039551 249.004471,462.358795 
	C288.364044,431.233002 319.701874,393.802734 338.610626,346.820801 
	C340.253906,342.737701 342.387817,342.744568 345.870178,343.767212 
	C365.162750,349.432861 384.761108,352.405792 404.971802,350.855652 
	C436.091949,348.468781 463.101715,337.123413 484.945770,314.558838 
	C498.856812,300.188965 507.492279,282.942566 511.308136,263.306671 
	C512.148376,258.983093 509.830902,254.982208 505.776367,253.988342 
	C501.523071,252.945694 498.721954,255.038940 497.019897,258.772064 
	C496.405579,260.119354 496.050781,261.604401 495.721069,263.059113 
	C490.019836,288.210571 475.520111,307.085846 453.679230,320.130524 
	C420.315369,340.057465 385.010040,339.431976 348.987885,328.726410 
	C345.697113,327.748413 345.669525,325.794006 346.411896,322.952332 
	C350.301788,308.062134 352.120605,292.939148 351.783203,277.507599 
	C351.225891,252.018311 344.617523,228.340729 329.692230,207.627075 
	C304.130920,172.152451 269.254608,157.933884 226.051422,164.412872 
	C214.951187,166.077530 204.450836,169.851135 194.514114,175.119904 
	C191.941940,176.483734 189.748398,177.389313 188.385269,173.387482 
	C177.643188,141.851517 174.402863,110.206535 185.872696,78.046196 
	C204.363083,26.200781 260.617004,2.244048 310.102997,25.811697 
	C340.463287,40.270741 357.156281,64.914520 361.363159,98.233940 
	C362.860107,110.090157 366.394928,121.185829 374.114746,130.788589 
	C385.491425,144.940094 400.562653,151.542801 418.096436,153.635834 
	C442.617798,156.563019 462.614716,167.659698 477.986877,186.993027 
	C487.612915,199.099548 493.471466,212.903687 496.415527,228.048676 
	C497.517548,233.717575 501.219360,236.477600 505.728333,235.572449 
	C510.226929,234.669403 512.382935,230.630325 511.322784,224.957336 
	C509.758789,216.588120 507.590790,208.372635 503.993927,200.638138 
	C487.211060,164.549408 459.112610,143.713684 419.626495,138.347397 
	C409.757416,137.006180 400.527039,134.323410 392.621765,127.736809 
	C381.423462,118.406464 377.648956,105.804985 375.722931,92.132080 
	C369.486481,47.858852 337.013458,13.295004 293.567230,4.163282 
	C288.056335,3.004981 282.292358,3.219481 277.000000,1.000000 
M395.094299,182.342087 
	C401.672394,184.221771 408.375397,185.485474 415.175171,186.156738 
	C419.567108,186.590317 423.105835,184.037735 423.750000,180.262207 
	C424.503601,175.845001 422.345520,172.550598 417.787659,171.324860 
	C416.185120,170.893890 414.533813,170.604019 412.886841,170.384186 
	C378.038147,165.732635 352.943604,142.716431 345.507721,108.500038 
	C344.661133,104.604355 344.268280,100.603058 343.296326,96.743584 
	C342.295258,92.768349 339.592957,90.388901 335.317780,90.621284 
	C331.540558,90.826591 328.456360,94.395485 328.445038,98.530380 
	C328.439178,100.667946 328.927826,102.813354 329.261993,104.944405 
	C335.356781,143.811539 356.903992,169.645050 395.094299,182.342087 
M296.631531,38.911568 
	C288.773315,36.037716 280.684723,34.353298 272.295532,34.385281 
	C267.002258,34.405457 263.818054,36.914631 263.418060,41.170265 
	C263.031128,45.286404 266.417084,49.220001 271.539398,49.475376 
	C285.801727,50.186443 298.384430,55.041233 309.608368,63.742676 
	C311.639343,65.317207 313.924530,66.079239 316.601013,65.030258 
	C322.413879,62.752060 323.600677,56.294212 318.667358,51.808247 
	C312.461578,46.165184 305.229126,42.099915 296.631531,38.911568 
z"/>
<path fill="#000000" opacity="1.000000" stroke="none" 
	d="
M20.000000,1.000000 
	C37.687561,1.000000 55.375122,1.000000 73.217514,1.152978 
	C70.315552,1.994843 68.268089,4.307876 65.801422,5.961649 
	C51.933815,15.259172 56.039089,27.773899 65.778694,36.708344 
	C69.307503,39.945419 73.671585,42.252708 77.453781,45.238552 
	C80.804039,47.883411 83.682617,47.560661 86.832710,44.948101 
	C94.799561,38.340702 98.334938,29.421467 100.974564,19.753763 
	C103.339378,11.092574 97.650475,3.531143 91.000000,1.000000 
	C148.020889,1.000000 205.041794,1.000000 262.201294,1.238199 
	C261.054443,1.765445 259.782928,2.179100 258.481445,2.324123 
	C246.448029,3.664993 234.905472,6.842004 224.275024,12.605478 
	C184.351700,34.250561 166.430023,69.485718 163.514664,113.325363 
	C162.040268,135.496475 166.149979,157.161163 173.941788,177.903107 
	C176.432892,184.534439 175.111679,188.289627 170.175598,192.827393 
	C153.691833,207.981003 143.925812,226.928345 140.124817,249.000092 
	C138.633621,257.659210 138.120438,266.611359 133.940857,274.586548 
	C126.023674,289.693451 113.102165,297.396667 96.452286,299.336517 
	C64.713760,303.034363 38.950130,317.396484 21.324858,344.100677 
	C-1.649027,378.908630 -5.034519,416.007538 14.334458,453.391449 
	C30.740416,485.056396 58.828835,501.882812 92.916382,509.674530 
	C99.558426,511.192780 106.494461,510.769073 113.000000,513.000000 
	C75.697906,513.000000 38.395817,513.000000 1.000000,513.000000 
	C1.000000,376.312439 1.000000,239.624878 1.198032,102.677757 
	C2.346574,103.986237 3.508144,104.276314 5.146866,103.302338 
	C8.239073,101.464493 11.708972,100.959076 15.229431,100.946030 
	C19.465488,100.930321 21.526962,98.585381 22.454985,94.746910 
	C25.309824,82.938766 26.441204,71.069061 22.776432,59.265919 
	C20.364786,51.498707 19.671129,43.408554 22.799549,36.241131 
	C27.435390,25.620092 26.704334,15.703605 22.639446,5.466190 
	C22.460146,5.014621 22.454527,4.486865 22.408777,3.990837 
	C22.267109,2.454834 21.074970,1.777230 20.000000,1.000000 
z"/>
<path fill="#000000" opacity="1.000000" stroke="none" 
	d="
M336.294037,271.190918 
	C338.420502,315.464417 322.769684,353.568878 298.318176,388.670013 
	C282.035309,412.044708 262.417175,432.365295 240.028564,450.040100 
	C216.501175,468.613922 190.823486,483.100067 161.858765,491.179321 
	C127.363014,500.801361 93.465698,500.497864 61.959423,481.369873 
	C30.621706,462.344208 14.911856,434.025055 17.925180,397.204468 
	C21.350288,355.352264 51.888195,319.757172 97.426254,314.659607 
	C115.060921,312.685577 129.911102,305.680695 141.287354,291.614777 
	C149.969238,280.880188 152.934296,268.234741 154.631149,255.091858 
	C159.895142,214.319382 194.212936,182.108063 235.030975,178.479187 
	C285.318329,174.008438 320.750702,207.276062 332.220886,248.159683 
	C334.295532,255.554367 335.507477,263.089783 336.294037,271.190918 
M181.593475,285.121826 
	C183.955490,277.138092 186.195831,269.111145 186.610458,260.747772 
	C186.870331,255.506073 183.835632,251.813461 179.521561,251.543533 
	C175.866592,251.314865 172.408447,254.571106 171.526321,259.122314 
	C171.368790,259.935059 171.407883,260.783752 171.303757,261.609222 
	C166.899536,296.527435 144.315964,322.121033 110.929214,329.913696 
	C106.400192,330.970795 101.723991,331.407898 97.209816,332.514923 
	C92.735146,333.612213 90.524590,337.464355 91.493050,341.628540 
	C92.337242,345.258453 96.210159,347.781952 100.347519,347.282654 
	C139.300034,342.581879 166.811050,322.774323 181.593475,285.121826 
M199.099701,210.627090 
	C198.437897,211.131195 197.741104,211.595810 197.119949,212.145828 
	C193.096878,215.708160 192.181076,220.164825 194.753952,223.542465 
	C197.525391,227.180786 201.456940,227.491608 206.279556,224.442154 
	C206.982498,223.997681 207.682617,223.541733 208.341583,223.035797 
	C218.574341,215.179535 230.262909,211.447449 243.027664,210.644775 
	C248.937744,210.273132 251.922791,207.428207 251.786270,202.595673 
	C251.653961,197.913040 248.412918,195.245560 242.344376,195.410446 
	C226.590424,195.838501 212.359039,200.821213 199.099701,210.627090 
z"/>
</svg>