<svg xmlns="http://www.w3.org/2000/svg" width="128" height="128" viewBox="-5 -10 128 128"><path d="M38.692 38.215c-.335 0-.683-.093-.985-.266l-18.86-11.054a2.016 2.016 0 0 1-.986-1.733V3.056c0-.72.374-1.373.985-1.733L37.707-9.73a1.932 1.932 0 0 1 1.97 0L58.538 1.323c.604.36.985 1.013.985 1.733l.007 22.113c0 .72-.374 1.373-.985 1.733L39.677 37.95c-.309.18-.643.266-.985.266zM21.802 24.01l16.89 9.9 16.89-9.9.007-19.8-16.897-9.9-16.89 9.9Z" style="stroke-width:1.69384658"/><path d="M76.413 38.215c-.335 0-.683-.093-.986-.266l-18.86-11.054a2.016 2.016 0 0 1-.986-1.733V3.056c0-.72.375-1.373.985-1.733L75.427-9.73a1.932 1.932 0 0 1 1.97 0L96.26 1.323c.604.36.985 1.013.985 1.733l.006 22.113c0 .72-.374 1.373-.985 1.733l-18.86 11.06a2.09 2.09 0 0 1-.992.253zM59.522 24.01l16.89 9.9 16.891-9.9.007-19.8-16.89-9.9-16.892 9.9ZM38.692 104.54c-.335 0-.683-.094-.985-.267l-18.86-11.06a2.016 2.016 0 0 1-.986-1.733V69.374c0-.72.374-1.373.985-1.733l18.861-11.06a1.932 1.932 0 0 1 1.97 0l14.192 8.32c.945.547 1.26 1.773.722 2.733a1.957 1.957 0 0 1-2.692.733l-13.207-7.74-16.89 9.9-.007 19.806 16.89 9.9 16.898-9.9V70.787c0-1.107.88-2 1.97-2 1.09 0 1.97.893 1.97 2v20.706c0 .72-.374 1.374-.985 1.733l-18.86 11.06a2.064 2.064 0 0 1-.986.254z" style="stroke-width:1.69384658"/><path d="M65.466 98.126c-.334 0-.67-.08-.985-.267l-7.913-4.633a2.016 2.016 0 0 1-.985-1.733V70.787c0-1.107.88-2 1.97-2 1.09 0 1.97.893 1.97 2v19.546l6.929 4.06c.945.546 1.26 1.773.722 2.733-.368.64-1.024 1-1.707 1zM19.831 71.382c-.335 0-.683-.094-.985-.267l-18.86-11.06A2.016 2.016 0 0 1-1 58.322V36.216c0-.72.374-1.373.985-1.733l18.861-11.06a1.932 1.932 0 0 1 1.97 0l18.861 11.06c.604.36.985 1.013.985 1.733v22.106c0 .72-.374 1.373-.985 1.733l-18.86 11.06a1.92 1.92 0 0 1-.986.267zM2.941 57.169l16.89 9.9 16.89-9.9V37.375l-16.89-9.9-16.89 9.9ZM102.674 67.042a1.96 1.96 0 0 1-1.707-1c-.539-.96-.224-2.187.722-2.734l10.475-6.14V37.376l-16.891-9.9-16.89 9.9v20.739c0 1.107-.88 2-1.971 2-1.09 0-1.97-.893-1.97-2l-.007-21.9c0-.72.375-1.373.985-1.733l18.861-11.06a1.932 1.932 0 0 1 1.97 0l18.862 11.06c.604.36.985 1.014.985 1.734V58.32c0 .72-.375 1.374-.985 1.734l-11.46 6.713a1.859 1.859 0 0 1-.978.273zM103.311 107.434c-1.169 0-2.508-.233-4.058-.7-2.634-.793-5.865-2.26-9.588-4.36-6.626-3.733-13.213-8.566-15.512-10.906-2.443-2.48-3.77-5.807-3.716-9.367a13.6 13.6 0 0 1 3.94-9.4c2.495-2.526 5.779-3.946 9.26-4 3.506-.06 6.776 1.294 9.226 3.774 2.305 2.34 7.066 9.026 10.744 15.746 2.068 3.787 3.513 7.06 4.295 9.733 1.11 3.807.88 6.44-.716 8.06-.94.947-2.22 1.42-3.875 1.42zM83.82 72.696h-.132c-2.442.033-4.767 1.04-6.534 2.826a9.565 9.565 0 0 0-2.784 6.633c-.033 2.467.88 4.767 2.561 6.48 1.845 1.874 7.96 6.473 14.644 10.24 3.422 1.933 6.47 3.327 8.794 4.027 2.627.793 3.782.533 4.032.28.25-.254.499-1.427-.276-4.094-.69-2.36-2.062-5.453-3.966-8.926-3.71-6.787-8.242-12.993-10.087-14.866a8.75 8.75 0 0 0-6.252-2.6Z" style="stroke-width:1.69384658"/><path d="M67.797 79.46c-1.038 0-2.07-.126-3.087-.366a13.14 13.14 0 0 1-6.271-3.566c-.375-.38-.736-.794-1.058-1.207a13.658 13.658 0 0 1-2.613-5.94c-.19-1.093.525-2.126 1.589-2.32a1.972 1.972 0 0 1 2.285 1.613 9.406 9.406 0 0 0 1.832 4.167c.23.293.473.587.749.847a9.238 9.238 0 0 0 4.4 2.5c3.165.766 6.436-.167 8.74-2.5a9.426 9.426 0 0 0 2.726-6.667c0-2.52-.972-4.893-2.719-6.666a9.15 9.15 0 0 0-4.938-2.613c-1.077-.194-1.787-1.234-1.603-2.32a1.98 1.98 0 0 1 2.286-1.627c2.68.48 5.116 1.767 7.04 3.727 2.495 2.533 3.874 5.906 3.874 9.5 0 3.593-1.379 6.96-3.874 9.5a13.105 13.105 0 0 1-5.871 3.459c-1.136.32-2.312.48-3.487.48z" style="stroke-width:1.69384658"/><path d="M55.267 70.62a3.99 3.99 0 0 1-2.837-1.193c-1.708-1.733-2.364-4.28-1.714-6.653l2.745-9.92a2 2 0 0 1 1.366-1.386l9.772-2.787c2.33-.666 4.833 0 6.554 1.74a4.12 4.12 0 0 1 0 5.767L58.117 69.42a3.95 3.95 0 0 1-2.85 1.2zm1.694-15.592-2.443 8.833c-.27.973 0 2.026.71 2.733.032.033.072.033.105 0l13.035-13.233c.033-.033.033-.073 0-.107-.71-.72-1.74-.993-2.692-.72zM73.26 88.634c-.499 0-1.011-.193-1.392-.587a2.009 2.009 0 0 1 0-2.826l14.835-15.06a1.938 1.938 0 0 1 2.784 0 2.009 2.009 0 0 1 0 2.827l-14.834 15.06c-.381.393-.887.586-1.393.586zM77.924 94.141c-.5 0-1.011-.193-1.392-.586a2.009 2.009 0 0 1 0-2.827l15.596-15.833a1.938 1.938 0 0 1 2.785 0 2.009 2.009 0 0 1 0 2.827L79.316 93.555c-.38.393-.88.586-1.392.586zM83.815 98.413c-.5 0-1.012-.194-1.392-.587a2.009 2.009 0 0 1 0-2.826l13.922-14.133a1.938 1.938 0 0 1 2.784 0 2.009 2.009 0 0 1 0 2.826l-13.922 14.14c-.388.393-.887.58-1.392.58zM90.072 102.32c-.5 0-1.011-.194-1.392-.587a2.009 2.009 0 0 1 0-2.827l11.499-11.673a1.938 1.938 0 0 1 2.784 0 2.009 2.009 0 0 1 0 2.827l-11.499 11.673a1.966 1.966 0 0 1-1.392.586zM96.817 105.72c-.5 0-1.011-.193-1.392-.586a2.009 2.009 0 0 1 0-2.827l8.11-8.233a1.938 1.938 0 0 1 2.784 0 2.009 2.009 0 0 1 0 2.827l-8.11 8.233a1.95 1.95 0 0 1-1.392.587z" style="stroke-width:1.69384658"/><path d="M110.312 87.854a1.967 1.967 0 0 1-1.872-1.387 2.01 2.01 0 0 1 1.26-2.52 7.617 7.617 0 0 0 3.074-1.906 7.932 7.932 0 0 0 1.872-8.107c-.847-2.52-2.857-4.426-5.398-5.093l-33.978-8.96c-1.051-.273-1.681-1.366-1.412-2.44a1.97 1.97 0 0 1 2.403-1.433l33.978 8.96c3.822 1.006 6.87 3.873 8.137 7.68.716 2.146.82 4.44.289 6.633a11.967 11.967 0 0 1-3.1 5.593 11.681 11.681 0 0 1-4.636 2.88c-.21.06-.414.1-.617.1z" style="stroke-width:1.69384658"/><path d="M107.534 90.854a8.71 8.71 0 0 1-.991-.067l-5.582-.773c-1.077-.146-1.832-1.16-1.681-2.253.144-1.093 1.142-1.86 2.22-1.707l5.581.774c.683.093 1.018-.034 1.11-.127.079-.08.17-.333.158-.787-.014-.56-.21-1.766-1.347-3.613-1.411-2.307-3.684-4.533-5.936-5.827L76.892 62.628c-.945-.54-1.28-1.767-.748-2.727s1.74-1.3 2.686-.76l24.166 13.84c2.837 1.627 5.582 4.32 7.35 7.2 1.214 1.987 1.89 3.92 1.936 5.6.066 1.926-.67 3.1-1.313 3.74-.624.64-1.701 1.333-3.435 1.333zM78.082 118a11.42 11.42 0 0 1-3.77-.634c-3.743-1.293-6.573-4.373-7.565-8.266L57.934 74.62c-.27-1.067.361-2.16 1.412-2.44a1.977 1.977 0 0 1 2.404 1.433l8.826 34.493c.656 2.573 2.535 4.626 5.017 5.48 2.817.966 5.878.24 7.986-1.9a7.685 7.685 0 0 0 1.878-3.12 1.954 1.954 0 0 1 2.482-1.28c1.038.34 1.603 1.466 1.261 2.52a11.888 11.888 0 0 1-2.837 4.706 11.644 11.644 0 0 1-8.28 3.487Z" style="stroke-width:1.69384658"/><path d="M87.485 111.194h-.23c-1.648-.06-3.553-.734-5.51-1.967-2.837-1.793-5.49-4.586-7.092-7.46L61.019 77.235c-.532-.96-.197-2.187.75-2.727.945-.54 2.153-.2 2.685.76l13.633 24.533c1.274 2.28 3.474 4.6 5.74 6.026 1.826 1.147 3.014 1.347 3.56 1.367.433.013.689-.074.774-.16.092-.094.21-.427.125-1.127l-.762-5.666c-.144-1.094.604-2.1 1.681-2.254a1.979 1.979 0 0 1 2.22 1.707l.762 5.667c.315 2.346-.5 3.74-1.241 4.493-.611.62-1.701 1.34-3.461 1.34z" style="stroke-width:1.69384658"/></svg>