<svg xmlns="http://www.w3.org/2000/svg" width="128" height="128" viewBox="-5 -10 128 128"><path d="M-3.27 9.607c-.957 0-1.73.773-1.73 1.73V27.48c0 .957.773 1.73 1.73 1.73h14.989c.957 0 1.73-.772 1.73-1.73V11.337c0-.957-.773-1.73-1.73-1.73zm21.908 0c-.957 0-1.73.773-1.73 1.73V27.48c0 .957.773 1.73 1.73 1.73h36.898c.957 0 1.73-.772 1.73-1.73V11.337c0-.957-.773-1.73-1.73-1.73zm43.817 0c-.957 0-1.73.773-1.73 1.73V27.48c0 .957.773 1.73 1.73 1.73h36.898c.957 0 1.73-.772 1.73-1.73V11.337c0-.957-.773-1.73-1.73-1.73zm43.817 0c-.957 0-1.73.773-1.73 1.73V27.48c0 .957.773 1.73 1.73 1.73h14.99c.957 0 1.73-.772 1.73-1.73V11.337c0-.957-.773-1.73-1.73-1.73zm-107.811 3.46H9.99V25.75h-11.53Zm21.908 0h33.439V25.75H20.369Zm43.817 0h33.439V25.75H64.186Zm43.817 0h11.531V25.75h-11.53zM-3.267 32.668c-.957 0-1.73.773-1.73 1.73V50.54c0 .957.773 1.73 1.73 1.73H33.63c.958 0 1.73-.773 1.73-1.73V34.398c0-.957-.772-1.73-1.73-1.73zm43.817 0c-.957 0-1.73.773-1.73 1.73V50.54c0 .957.773 1.73 1.73 1.73h36.897c.958 0 1.73-.773 1.73-1.73V34.398c0-.957-.772-1.73-1.73-1.73zm43.817 0c-.957 0-1.73.773-1.73 1.73V50.54c0 .957.772 1.73 1.73 1.73h36.897c.958 0 1.73-.773 1.73-1.73V34.398c0-.957-.772-1.73-1.73-1.73zm-85.903 3.46h33.438V48.81H-1.536Zm43.817 0h33.438V48.81H42.281Zm43.817 0h33.438V48.81H86.098ZM-3.264 55.728c-.958 0-1.73.773-1.73 1.73v16.143c0 .957.772 1.73 1.73 1.73h14.989c.957 0 1.73-.773 1.73-1.73V57.46c0-.957-.773-1.73-1.73-1.73zm21.908 0c-.957 0-1.73.773-1.73 1.73v16.143c0 .957.773 1.73 1.73 1.73h36.898c.957 0 1.73-.773 1.73-1.73V57.46c0-.957-.773-1.73-1.73-1.73zm43.817 0c-.957 0-1.73.773-1.73 1.73v16.143c0 .957.773 1.73 1.73 1.73h36.898c.957 0 1.73-.773 1.73-1.73V57.46c0-.957-.773-1.73-1.73-1.73zm43.817 0c-.957 0-1.73.773-1.73 1.73v16.143c0 .957.773 1.73 1.73 1.73h14.99c.956 0 1.73-.773 1.73-1.73V57.46c-.001-.957-.774-1.73-1.73-1.73zm-107.811 3.46h11.53v12.683h-11.53Zm21.908 0h33.439v12.683H20.375Zm43.817 0h33.439v12.683H64.192Zm43.817 0h11.53v12.683h-11.53Zm-111.27 19.6c-.958 0-1.73.773-1.73 1.73v16.144c0 .957.772 1.73 1.73 1.73h36.897c.957 0 1.73-.773 1.73-1.73V80.52c0-.957-.773-1.73-1.73-1.73zm43.816 0c-.957 0-1.73.773-1.73 1.73v16.144c0 .957.773 1.73 1.73 1.73h36.898c.957 0 1.73-.773 1.73-1.73V80.52c0-.957-.773-1.73-1.73-1.73zm43.817 0c-.957 0-1.73.773-1.73 1.73v16.144c0 .957.773 1.73 1.73 1.73h36.898c.957 0 1.73-.773 1.73-1.73V80.52c0-.957-.773-1.73-1.73-1.73zM-1.53 82.25h33.438v12.684H-1.53Zm43.817 0h33.438v12.684H42.287Zm43.817 0h33.438v12.684H86.104Z" style="stroke-width:1.47591603"/></svg>