<?xml version="1.0" encoding="UTF-8" standalone="no"?>
<!-- Generator: Adobe Illustrator 18.0.0, SVG Export Plug-In . SVG Version: 6.00 Build 0)  -->

<svg
   xmlns:dc="http://purl.org/dc/elements/1.1/"
   xmlns:cc="http://creativecommons.org/ns#"
   xmlns:rdf="http://www.w3.org/1999/02/22-rdf-syntax-ns#"
   xmlns:svg="http://www.w3.org/2000/svg"
   xmlns="http://www.w3.org/2000/svg"
   xmlns:sodipodi="http://sodipodi.sourceforge.net/DTD/sodipodi-0.dtd"
   xmlns:inkscape="http://www.inkscape.org/namespaces/inkscape"
   version="1.1"
   id="Capa_1"
   x="0px"
   y="0px"
   viewBox="0 0 297 297"
   style="enable-background:new 0 0 297 297;"
   xml:space="preserve"
   sodipodi:docname="build-housing.svg"
   inkscape:version="0.92.4 (5da689c313, 2019-01-14)"><metadata
   id="metadata43"><rdf:RDF><cc:Work
       rdf:about=""><dc:format>image/svg+xml</dc:format><dc:type
         rdf:resource="http://purl.org/dc/dcmitype/StillImage" /></cc:Work></rdf:RDF></metadata><defs
   id="defs41" /><sodipodi:namedview
   pagecolor="#ffffff"
   bordercolor="#666666"
   borderopacity="1"
   objecttolerance="10"
   gridtolerance="10"
   guidetolerance="10"
   inkscape:pageopacity="0"
   inkscape:pageshadow="2"
   inkscape:window-width="1920"
   inkscape:window-height="1001"
   id="namedview39"
   showgrid="false"
   inkscape:zoom="0.79461279"
   inkscape:cx="148.5"
   inkscape:cy="204.61901"
   inkscape:window-x="-9"
   inkscape:window-y="-9"
   inkscape:window-maximized="1"
   inkscape:current-layer="g903" />
<g
   id="g6"
   transform="matrix(0.56779663,0,0,0.56779663,128.36462,64.182197)">
	<path
   d="M 280.452,34.823 142.409,0.312 c -3.124,-0.78 -6.434,-0.08 -8.973,1.903 -2.538,1.981 -4.022,5.023 -4.022,8.243 V 161.424 L 11.69,279.147 c -4.084,4.084 -4.084,10.706 0,14.79 2.043,2.042 4.718,3.063 7.395,3.063 2.677,0 5.352,-1.021 7.395,-3.063 L 129.414,191.003 v 26.518 c 0,5.775 4.682,10.458 10.458,10.458 h 6.798 v 58.563 c 0,5.775 4.683,10.458 10.458,10.458 5.775,0 10.458,-4.682 10.458,-10.458 v -58.563 h 82.616 v 58.563 c 0,5.775 4.683,10.458 10.458,10.458 5.775,0 10.458,-4.682 10.458,-10.458 v -58.563 h 6.798 c 5.775,0 10.458,-4.683 10.458,-10.458 V 44.968 c -0.001,-4.799 -3.267,-8.982 -7.922,-10.145 z m -12.995,18.31 v 153.93 H 150.33 V 23.851 Z"
   id="path2"
   inkscape:connector-curvature="0" />
	<path
   d="m 193.381,193.468 h 31.025 c 16.242,0 29.456,-13.213 29.456,-29.455 v -48.281 c 0,-16.242 -13.214,-29.455 -29.456,-29.455 h -31.025 c -16.242,0 -29.455,13.213 -29.455,29.455 v 48.281 c -10e-4,16.242 13.212,29.455 29.455,29.455 z m -8.54,-77.737 c 0,-4.709 3.831,-8.54 8.54,-8.54 h 31.025 c 4.709,0 8.541,3.831 8.541,8.54 v 48.281 c 0,4.709 -3.832,8.54 -8.541,8.54 h -31.025 c -4.709,0 -8.54,-3.831 -8.54,-8.54 z"
   id="path4"
   inkscape:connector-curvature="0" />
</g>
<g
   id="g8">
</g>
<g
   id="g10">
</g>
<g
   id="g12">
</g>
<g
   id="g14">
</g>
<g
   id="g16">
</g>
<g
   id="g18">
</g>
<g
   id="g20">
</g>
<g
   id="g22">
</g>
<g
   id="g24">
</g>
<g
   id="g26">
</g>
<g
   id="g28">
</g>
<g
   id="g30">
</g>
<g
   id="g32">
</g>
<g
   id="g34">
</g>
<g
   id="g36">
</g>
<g
   id="g903"
   transform="matrix(0.48851134,0,0,0.48851134,9.5381315,24.587021)"><path
     id="path876"
     d="M 82.5,75 H 90 v 7.5 c 0,28.94922 23.55078,52.5 52.5,52.5 28.94922,0 52.5,-23.55078 52.5,-52.5 V 75 h 7.5 c 4.14453,0 7.5,-3.359375 7.5,-7.5 0,-4.140625 -3.35547,-7.5 -7.5,-7.5 H 195 V 52.5 C 195,23.550781 171.44922,0 142.5,0 113.55078,0 90,23.550781 90,52.5 V 60 h -7.5 c -4.144531,0 -7.5,3.359375 -7.5,7.5 0,4.140625 3.355469,7.5 7.5,7.5 z M 180,82.5 C 180,103.17969 163.17969,120 142.5,120 121.82031,120 105,103.17969 105,82.5 V 75 h 75 z m -75,-30 C 105,31.820312 121.82031,15 142.5,15 163.17969,15 180,31.820312 180,52.5 V 60 h -75 z m 0,0"
     inkscape:connector-curvature="0" /><path
     id="path878"
     d="M 217.5,240 H 195 v -55.28516 c 50.26953,-3.84375 90,-45.97656 90,-97.21484 0,-4.140625 -3.35547,-7.5 -7.5,-7.5 -4.14453,0 -7.5,3.359375 -7.5,7.5 0,43.34375 -33.60547,78.96094 -76.125,82.23047 C 190.51172,158.33984 179.96484,150 167.5,150 h -50 c -12.5625,0 -23.179688,8.47266 -26.453125,20 H 45 v -50 h 22.5 c 2.601562,0 5.015625,-1.34766 6.378906,-3.55859 1.367188,-2.21094 1.492188,-4.96875 0.328125,-7.29688 l -15,-29.999999 C 57.9375,76.605469 55.339844,75 52.5,75 H 7.5 C 3.355469,75 0,78.359375 0,82.5 v 30 c 0,4.14063 3.355469,7.5 7.5,7.5 H 30 v 50 H 22.5 C 10.09375,170 0,180.09375 0,192.5 0,204.90625 10.09375,215 22.5,215 h 15 c 4.144531,0 7.5,-3.35938 7.5,-7.5 V 185 h 45 v 55 H 67.5 c -4.144531,0 -7.5,3.35937 -7.5,7.5 v 45 C 60,304.90625 70.09375,315 82.5,315 H 90 v 119.5 c 0,9.77734 6.269531,18.11328 15,21.21094 v 18.38281 l -24.871094,8.29297 c -3.929687,1.30859 -6.054687,5.55469 -4.742187,9.48437 1.046875,3.14453 3.972656,5.13282 7.113281,5.13282 0.785156,0 1.585938,-0.125 2.371094,-0.39063 l 29.999996,-10 C 117.93359,485.59375 120,482.72656 120,479.5 v -23.78906 c 8.73047,-3.09766 15,-11.4336 15,-21.21094 V 329.46484 c 4.94922,0.71094 10.05078,0.71094 15,0 V 434.5 c 0,9.77734 6.26953,18.11328 15,21.21094 V 479.5 c 0,3.22656 2.06641,6.09375 5.12891,7.11328 l 30,10 c 0.78515,0.26563 1.58593,0.39063 2.37109,0.39063 3.14062,0 6.06641,-1.98829 7.11328,-5.13282 1.3125,-3.92968 -0.8125,-8.17578 -4.74219,-9.48437 L 180,474.09375 v -18.38281 c 8.73047,-3.09766 15,-11.4336 15,-21.21094 V 315 h 7.5 c 12.40625,0 22.5,-10.09375 22.5,-22.5 v -45 c 0,-4.14063 -3.35547,-7.5 -7.5,-7.5 z M 15,90 h 32.863281 l 7.5,15 H 15 Z m 15,110 h -7.5 c -4.136719,0 -7.5,-3.36328 -7.5,-7.5 0,-4.13672 3.363281,-7.5 7.5,-7.5 H 30 Z m 150,-22.5 v 31.21094 C 171.26953,205.61328 165,197.27734 165,187.5 V 165 h 2.5 c 6.89453,0 12.5,5.60547 12.5,12.5 z m -45,2.5 v -15 h 15 v 15 z m -17.5,-15 h 2.5 v 22.5 c 0,9.77734 -6.26953,18.11328 -15,21.21094 V 177.5 c 0,-6.89453 5.60547,-12.5 12.5,-12.5 z M 105,224.24609 C 119.67188,221.25391 131.25391,209.67187 134.24609,195 h 16.50782 c 2.98828,14.67187 14.57421,26.25391 29.24609,29.24609 V 240 H 105 Z M 180,270 h -15 v -15 h 15 z m -45,0 v -15 h 15 v 15 z m -30,0 v -15 h 15 v 15 z M 82.5,300 C 78.363281,300 75,296.63672 75,292.5 V 255 h 15 v 45 z M 180,434.5 c 0,4.13672 -3.36328,7.5 -7.5,7.5 -4.13672,0 -7.5,-3.36328 -7.5,-7.5 V 319.92969 c 0,-2.4375 -1.18359,-4.71875 -3.17188,-6.125 -1.28125,-0.90625 -2.79687,-1.375 -4.32812,-1.375 -0.83984,0 -1.6875,0.14062 -2.5,0.42968 -8.03516,2.83985 -16.95703,2.83985 -25,0 -2.29687,-0.8125 -4.84375,-0.46093 -6.82812,0.94532 -1.98829,1.40625 -3.17188,3.6914 -3.17188,6.125 V 434.5 c 0,4.13672 -3.36328,7.5 -7.5,7.5 -4.13672,0 -7.5,-3.36328 -7.5,-7.5 V 285 h 75 z m 30,-142 c 0,4.13672 -3.36328,7.5 -7.5,7.5 H 195 v -45 h 15 z m 0,0"
     inkscape:connector-curvature="0" /></g></svg>