<svg xmlns="http://www.w3.org/2000/svg" width="128" height="128" viewBox="-5 -10 128 128"><path d="m30.2 88.341-2.113-16.932a2.108 2.108 0 0 0-.143-.547L23.53 59.81a2.207 2.207 0 1 0-4.1 1.64l4.31 10.788 2.174 17.401c.06.487.281.94.629 1.294l.645.646h-3.757l-1.964-15.75a2.214 2.214 0 0 0-2.46-1.923 2.222 2.222 0 0 0-1.92 2.465l2.206 17.684a2.206 2.206 0 0 0 2.19 1.934h11.035a2.214 2.214 0 0 0 1.567-3.775l-3.879-3.884z" style="stroke-width:1.41353834"/><path d="M36.932 42.951c0-4.957-2.908-8.841-6.62-8.841-1.711 0-3.25.828-4.414 2.199-1.165-1.376-2.704-2.2-4.414-2.2-1.71 0-3.25.83-4.414 2.2-1.164-1.376-2.704-2.2-4.414-2.2-3.713 0-6.62 3.885-6.62 8.842-1.22 0-2.207.99-2.207 2.21v2.454c-1.021.011-2.23-.166-3.068-.829-.894-.707-1.346-2-1.346-3.835 0-2.84 1.55-6.161 4.044-8.659 2.963-2.968 7.012-4.603 11.404-4.603 5.572 0 9.44 3.74 9.473 3.774.86.862 2.262.862 3.123 0 .86-.862.86-2.266 0-3.128-.133-.132-2.312-2.276-5.904-3.735a8.806 8.806 0 0 0 2.135-5.758c0-4.874-3.96-8.842-8.827-8.842-4.866 0-8.828 3.968-8.828 8.842 0 2.105.74 4.045 1.975 5.559C.1 29.13-5 36.337-5 42.946c0 3.276 1.027 5.747 3.058 7.327 1.81 1.415 3.983 1.763 5.682 1.763h.083v6.222l-2.157 15.12-6.555 19.707a2.208 2.208 0 0 0 2.091 2.907H8.237c.761 0 1.478-.399 1.876-1.05a2.21 2.21 0 0 0 .099-2.15l-1.71-3.432 5.793-11.61c.309-.614.53-1.271.667-1.945l2.064-10.323a2.2 2.2 0 0 0-1.733-2.597A2.202 2.202 0 0 0 12.7 64.62l-2.063 10.323c-.055.287-.155.569-.287.829L4.06 88.37a2.227 2.227 0 0 0 0 1.978l.607 1.221H.265l5.65-16.987a1.87 1.87 0 0 0 .087-.387L8.21 58.723c.011-.105.022-.21.022-.31v-2.21h28.69c1.218 0 2.206-.99 2.206-2.21V45.15c0-1.222-.988-2.21-2.207-2.21zM14.863 16.426a4.423 4.423 0 0 1 4.414 4.421c0 2.437-1.98 4.42-4.414 4.42a4.423 4.423 0 0 1-4.414-4.42c0-2.437 1.98-4.42 4.414-4.42zM30.312 38.53c.9 0 2.207 1.725 2.207 4.421h-4.414c0-2.696 1.308-4.42 2.207-4.42zm-8.828 0c.9 0 2.207 1.725 2.207 4.421h-4.413c0-2.696 1.307-4.42 2.206-4.42zm-8.827 0c.9 0 2.207 1.725 2.207 4.421H10.45c0-2.696 1.308-4.42 2.207-4.42zm22.069 13.263H8.243v-4.42h26.483zM120.794 76.107h-4.414V65.055c0-1.221-.988-2.21-2.207-2.21h-2.207v-6.632c0-1.221-.988-2.21-2.207-2.21 0-4.957-2.907-8.842-6.62-8.842-1.71 0-3.25.829-4.414 2.2-1.164-1.377-2.704-2.2-4.414-2.2-1.71 0-3.25.829-4.414 2.2-1.164-1.377-2.703-2.2-4.414-2.2-3.713 0-6.62 3.885-6.62 8.842-1.22 0-2.207.989-2.207 2.21v6.631H43.552c-1.22 0-2.207.99-2.207 2.21v19.894c0 1.221.988 2.21 2.207 2.21h6.841C51.42 92.198 55.877 96 61.207 96s9.787-3.802 10.814-8.842h9.048c1.22 0 2.207-.989 2.207-2.21s-.988-2.21-2.207-2.21H72.02c-1.027-5.04-5.484-8.842-10.814-8.842s-9.788 3.802-10.814 8.841H45.76V67.264h66.206v15.473h-4.634c-1.026-5.04-5.484-8.841-10.814-8.841-6.085 0-11.034 4.957-11.034 11.052S90.432 96 96.517 96c5.33 0 9.788-3.802 10.814-8.842h6.841c1.22 0 2.207-.989 2.207-2.21v-4.421h4.414c1.22 0 2.207-.99 2.207-2.21 0-1.222-.988-2.21-2.207-2.21zm-59.587 2.21c3.652 0 6.62 2.973 6.62 6.632 0 3.658-2.968 6.63-6.62 6.63s-6.62-2.972-6.62-6.63c0-3.659 2.968-6.632 6.62-6.632zm41.931-28.734c.9 0 2.207 1.724 2.207 4.42h-4.413c0-2.696 1.307-4.42 2.206-4.42zm-8.827 0c.9 0 2.207 1.724 2.207 4.42h-4.414c0-2.696 1.308-4.42 2.207-4.42zm-8.828 0c.9 0 2.207 1.724 2.207 4.42h-4.413c0-2.696 1.307-4.42 2.206-4.42zm22.07 13.262H81.07v-4.42h26.482ZM96.517 91.58c-3.653 0-6.62-2.973-6.62-6.631 0-3.659 2.967-6.632 6.62-6.632 3.652 0 6.62 2.973 6.62 6.632 0 3.658-2.968 6.63-6.62 6.63z" style="stroke-width:1.41353834"/><path d="M98.725 84.949c0 2.945-4.414 2.945-4.414 0 0-2.946 4.414-2.946 4.414 0M63.415 84.949c0 2.945-4.414 2.945-4.414 0 0-2.946 4.414-2.946 4.414 0" style="stroke-width:1.41353834"/></svg>