<?xml version="1.0" encoding="UTF-8" standalone="no"?>
<svg
   xmlns:dc="http://purl.org/dc/elements/1.1/"
   xmlns:cc="http://creativecommons.org/ns#"
   xmlns:rdf="http://www.w3.org/1999/02/22-rdf-syntax-ns#"
   xmlns:svg="http://www.w3.org/2000/svg"
   xmlns="http://www.w3.org/2000/svg"
   xmlns:sodipodi="http://sodipodi.sourceforge.net/DTD/sodipodi-0.dtd"
   xmlns:inkscape="http://www.inkscape.org/namespaces/inkscape"
   version="1.1"
   viewBox="-5 -10 128 128"
   id="svg16"
   sodipodi:docname="noun-harvesting-7516760.svg"
   width="128"
   height="128"
   inkscape:version="0.92.4 (5da689c313, 2019-01-14)">
  <metadata
     id="metadata22">
    <rdf:RDF>
      <cc:Work
         rdf:about="">
        <dc:format>image/svg+xml</dc:format>
        <dc:type
           rdf:resource="http://purl.org/dc/dcmitype/StillImage" />
        <dc:title></dc:title>
      </cc:Work>
    </rdf:RDF>
  </metadata>
  <defs
     id="defs20" />
  <sodipodi:namedview
     pagecolor="#ffffff"
     bordercolor="#666666"
     borderopacity="1"
     objecttolerance="10"
     gridtolerance="10"
     guidetolerance="10"
     inkscape:pageopacity="0"
     inkscape:pageshadow="2"
     inkscape:window-width="1920"
     inkscape:window-height="1009"
     id="namedview18"
     showgrid="false"
     inkscape:zoom="3.4962963"
     inkscape:cx="-6.2375672"
     inkscape:cy="36.119617"
     inkscape:window-x="-8"
     inkscape:window-y="-8"
     inkscape:window-maximized="1"
     inkscape:current-layer="svg16" />
  <path
     d="M 30.200398,88.340968 28.087297,71.408764 c -0.02208,-0.187882 -0.07172,-0.370247 -0.143444,-0.547082 L 23.530084,59.809561 c -0.452408,-1.132841 -1.737966,-1.68544 -2.868879,-1.232306 -1.130914,0.453134 -1.682741,1.740753 -1.230333,2.873481 l 4.308969,10.78687 2.173834,17.401875 c 0.06069,0.486293 0.281379,0.939427 0.628958,1.293095 l 0.645512,0.646547 H 23.430863 L 21.466771,75.829585 c -0.154489,-1.210209 -1.246887,-2.066694 -2.460694,-1.923105 -1.208271,0.154737 -2.063384,1.259949 -1.920025,2.464641 l 2.206885,17.683394 c 0.137935,1.105212 1.075857,1.93414 2.190359,1.93414 h 11.034422 c 0.893785,0 1.699266,-0.541551 2.041351,-1.364932 0.342071,-0.828913 0.154489,-1.779374 -0.474484,-2.409327 l -3.878608,-3.88483 z"
     id="path2"
     inkscape:connector-curvature="0"
     style="stroke-width:1.41353834" />
  <path
     d="m 36.931925,42.951231 c 0,-4.956868 -2.907579,-8.841697 -6.620653,-8.841697 -1.710283,0 -3.249664,0.828913 -4.413769,2.19939 -1.164134,-1.375994 -2.703487,-2.19939 -4.413769,-2.19939 -1.710283,0 -3.249664,0.828913 -4.413769,2.19939 -1.164134,-1.375994 -2.703487,-2.19939 -4.413769,-2.19939 -3.713075,0 -6.620654,3.884829 -6.620654,8.841697 -1.219302,0 -2.206884,0.989167 -2.206884,2.210424 v 2.453607 c -1.02069,0.01104 -2.228919,-0.165785 -3.067605,-0.828913 -0.8937849,-0.707336 -1.3461927,-2.000487 -1.3461927,-3.835032 0,-2.840378 1.5503977,-6.161603 4.0441427,-8.659347 2.962804,-2.967556 7.012313,-4.6032 11.404049,-4.6032 5.572366,0 9.439957,3.741099 9.473008,3.774344 0.860692,0.862073 2.262109,0.862073 3.122688,0 0.860579,-0.862073 0.860692,-2.265738 0,-3.127697 -0.132413,-0.132626 -2.311685,-2.276773 -5.903434,-3.735582 1.329654,-1.547368 2.135135,-3.558748 2.135135,-5.758138 C 23.690449,15.967729 19.729073,12 14.862911,12 c -4.866163,0 -8.827538,3.967729 -8.827538,8.841697 0,2.105456 0.739309,4.045112 1.975108,5.559235 -7.9117337,2.729892 -13.009531,9.935804 -13.009531,16.544584 0,3.276945 1.0261977,5.747104 3.056588,7.327575 1.8095747,1.414671 3.983409,1.762822 5.682675,1.762822 h 0.08275 v 6.222291 L 1.665798,73.378213 -4.888614,93.084588 c -0.2206884,0.674176 -0.1103442,1.414672 0.3034413,1.989311 0.4137856,0.57464 1.0813664,0.91733 1.7875412,0.91733 H 8.236791 c 0.761372,0 1.478648,-0.397876 1.875817,-1.049955 0.402761,-0.652079 0.441377,-1.464468 0.09931,-2.149594 L 8.501635,89.359971 14.29476,77.749761 c 0.308964,-0.613387 0.529652,-1.270997 0.667588,-1.945174 L 17.025732,65.48187 c 0.242764,-1.193628 -0.535175,-2.365189 -1.732457,-2.597195 -1.191718,-0.237623 -2.361402,0.536033 -2.593037,1.735236 l -2.063384,10.322717 c -0.05517,0.287348 -0.154474,0.569179 -0.286888,0.828913 L 4.060381,88.370889 c -0.308964,0.618918 -0.308964,1.353883 0,1.978276 l 0.606897,1.221257 H 0.2645214 L 5.914146,74.583047 c 0.04414,-0.127095 0.07172,-0.254202 0.08827,-0.386828 L 8.209301,58.722542 c 0.01102,-0.104997 0.02208,-0.209995 0.02208,-0.30946 v -2.210424 h 28.688792 c 1.219302,0 2.206885,-0.989167 2.206885,-2.210424 v -8.841698 c 0,-1.221257 -0.987583,-2.210424 -2.206885,-2.210424 z M 14.86308,16.42614 c 2.433152,0 4.413769,1.983794 4.413769,4.420848 0,2.437055 -1.980617,4.420849 -4.413769,4.420849 -2.433152,0 -4.413769,-1.983794 -4.413769,-4.420849 0,-2.437054 1.980617,-4.420848 4.413769,-4.420848 z m 15.448898,22.104243 c 0.899307,0 2.206885,1.724201 2.206885,4.420848 h -4.41377 c 0,-2.696647 1.307578,-4.420848 2.206885,-4.420848 z m -8.827538,0 c 0.899307,0 2.206884,1.724201 2.206884,4.420848 h -4.413769 c 0,-2.696647 1.307578,-4.420848 2.206885,-4.420848 z m -8.827538,0 c 0.899307,0 2.206884,1.724201 2.206884,4.420848 h -4.413769 c 0,-2.696647 1.307578,-4.420848 2.206885,-4.420848 z M 34.725747,51.792929 H 8.243133 V 47.37208 h 26.482614 z"
     id="path4"
     inkscape:connector-curvature="0"
     style="stroke-width:1.41353834" />
  <path
     d="m 120.79354,76.106889 h -4.41377 V 65.054767 c 0,-1.221258 -0.98759,-2.210425 -2.20689,-2.210425 H 111.966 V 56.21307 c 0,-1.221258 -0.98759,-2.210425 -2.20689,-2.210425 0,-4.956867 -2.90758,-8.841697 -6.62065,-8.841697 -1.71028,0 -3.249658,0.828913 -4.413768,2.19939 -1.16413,-1.375994 -2.70349,-2.19939 -4.41377,-2.19939 -1.71028,0 -3.24966,0.828913 -4.413768,2.19939 -1.164133,-1.375994 -2.703487,-2.19939 -4.413769,-2.19939 -3.713075,0 -6.620654,3.88483 -6.620654,8.841697 -1.219302,0 -2.206884,0.989167 -2.206884,2.210425 v 6.631272 H 43.551873 c -1.219302,0 -2.206885,0.989167 -2.206885,2.210425 v 19.893111 c 0,1.221258 0.987583,2.210425 2.206885,2.210425 h 6.841412 C 51.419483,92.198071 55.877376,96 61.206949,96 c 5.329573,0 9.78755,-3.801929 10.813663,-8.841697 h 9.048156 c 1.219302,0 2.206885,-0.989167 2.206885,-2.210425 0,-1.221258 -0.987583,-2.210424 -2.206885,-2.210424 h -9.048156 c -1.026197,-5.039767 -5.48409,-8.841697 -10.813663,-8.841697 -5.329573,0 -9.787551,3.80193 -10.813664,8.841697 H 45.758898 V 67.263777 h 66.206532 v 15.473677 h -4.63438 c -1.0262,-5.039767 -5.4841,-8.841697 -10.813668,-8.841697 -6.08549,0 -11.034421,4.956867 -11.034421,11.052121 0,6.095254 4.948931,11.052122 11.034421,11.052122 5.329568,0 9.787548,-3.801929 10.813668,-8.841697 h 6.84141 c 1.2193,0 2.20688,-0.989167 2.20688,-2.210425 V 80.52703 h 4.41377 c 1.2193,0 2.20689,-0.989167 2.20689,-2.210424 0,-1.221258 -0.98759,-2.210425 -2.20689,-2.210425 z m -59.586591,2.210424 c 3.652341,0 6.620653,2.973074 6.620653,6.631273 0,3.658199 -2.968312,6.631273 -6.620653,6.631273 -3.652341,0 -6.620654,-2.973074 -6.620654,-6.631273 0,-3.658199 2.968313,-6.631273 6.620654,-6.631273 z M 103.13846,49.582504 c 0.89931,0 2.20688,1.724202 2.20688,4.420849 h -4.41377 c 0,-2.696647 1.30758,-4.420849 2.20689,-4.420849 z m -8.827538,0 c 0.89931,0 2.20689,1.724202 2.20689,4.420849 h -4.41377 c 0,-2.696647 1.30757,-4.420849 2.20688,-4.420849 z m -8.827537,0 c 0.899307,0 2.206884,1.724202 2.206884,4.420849 H 83.2765 c 0,-2.696647 1.307578,-4.420849 2.206885,-4.420849 z M 107.55223,62.845051 H 81.069616 V 58.424202 H 107.55223 Z M 96.517812,91.579859 c -3.65235,0 -6.620658,-2.973074 -6.620658,-6.631273 0,-3.658199 2.968308,-6.631273 6.620658,-6.631273 3.652338,0 6.620648,2.973074 6.620648,6.631273 0,3.658199 -2.96831,6.631273 -6.620648,6.631273 z"
     id="path6"
     inkscape:connector-curvature="0"
     style="stroke-width:1.41353834" />
  <path
     d="m 98.724692,84.948586 c 0,2.945346 -4.41377,2.945346 -4.41377,0 0,-2.945346 4.41377,-2.945346 4.41377,0"
     id="path8"
     inkscape:connector-curvature="0"
     style="stroke-width:1.41353834" />
  <path
     d="m 63.41454,84.948586 c 0,2.945346 -4.413769,2.945346 -4.413769,0 0,-2.945346 4.413769,-2.945346 4.413769,0"
     id="path10"
     inkscape:connector-curvature="0"
     style="stroke-width:1.41353834" />
</svg>
