<svg xmlns="http://www.w3.org/2000/svg" width="128" height="128" viewBox="-5 -10 128 128"><path d="m34.982 6.295-11.938 2.97a3.178 3.178 0 0 0-2.434 3.1V23.42l-8.002 5.334a3.254 3.254 0 0 0-4.097.765s-3.39 4.25-5.408 8.565c-1.022 2.175-1.698 4.41-1.698 6.23 0 4.025 2.274 7.7 6.4 10.77C7.615 72.754 3.293 81.03-.197 88.7-2.822 94.514-5 100.009-5 108.224c0 2.555 1.888 5.08 6.014 6.55 5.92 2.14 17.568 2.81 29.121 3.035 14.402.255 43.333.255 57.73 0 11.583-.225 23.202-.895 29.12-3.035 4.127-1.5 6.015-3.995 6.015-6.55 0-8.21-2.143-13.705-4.803-19.525-3.49-7.67-7.807-15.974-8.002-33.615 4.126-3.065 6.4-6.74 6.4-10.77 0-1.82-.671-4.025-1.698-6.23-2.018-4.315-5.408-8.565-5.408-8.565-.992-1.215-2.72-1.565-4.097-.765 0 0-.736.415-2.078 1.085 0 0-.03-.065-.065-.095l-6.4-9.584a3.22 3.22 0 0 0-3.55-1.31l-5.825 1.66-3.07-9.17a3.151 3.151 0 0 0-1.602-1.855l-11.838-5.91-5.92-11.82A3.2 3.2 0 0 0 62.194-10h-9.6c-.865 0-1.662.35-2.273.925L34.963 6.295Zm68.934 52.4c-11.714 5.27-30.272 7.99-44.9 7.99-14.622 0-33.187-2.715-44.9-7.99-.575 13.644-3.585 21.725-6.59 28.469-2.974 6.68-6.05 11.885-6.114 20.705.16.13.51.35.736.48.896.445 2.078.8 3.425 1.12 5.985 1.375 15.359 1.79 24.674 1.98 14.338.255 43.137.255 57.474 0 9.315-.16 18.66-.575 24.674-1.98 1.377-.32 2.529-.67 3.425-1.12.256-.13.576-.35.736-.48-.065-8.82-3.134-14.025-6.114-20.705-3.01-6.74-6.014-14.795-6.59-28.47zM55.815 98.634v6.39a3.21 3.21 0 0 0 3.2 3.195 3.21 3.21 0 0 0 3.2-3.195v-6.39a3.21 3.21 0 0 0-3.2-3.195 3.21 3.21 0 0 0-3.2 3.195zm-7.266 4.185c-2.815-2.97-3.49-6.23-3.135-9.585 2.594.545 5.408.35 8.673-1.375a3.206 3.206 0 0 0 1.698-3.065c-.35-4.6 1.152-7.86 3.936-10.32.641 4.12 1.633 9.65 2.814 11.98 1.343 2.715 2.815 4.12 4.192 4.855 1.663.925 3.295 1.02 4.963.765l.51-.095c-.03 2.81-1.086 5.015-2.754 6.87a3.184 3.184 0 0 0 .226 4.505 3.196 3.196 0 0 0 4.512-.225c3.52-3.865 5.378-8.755 3.966-15.595-.32-1.47-1.603-2.555-3.135-2.555-.896 0-1.793.16-2.654.385-.546.13-1.087.29-1.633.385-.29.03-.546.13-.831 0-.576-.29-1.022-.99-1.633-2.175-1.727-3.45-2.879-14.89-2.879-14.89a3.227 3.227 0 0 0-1.663-2.46c-.926-.51-2.018-.51-2.974-.065-6.946 3.485-11.263 8.594-11.423 16.679-1.858.445-3.456-.065-4.993-.765a3.275 3.275 0 0 0-2.69 0c-.866.385-1.471 1.15-1.727 2.045-1.888 6.74-1.537 13.195 3.966 19.01a3.194 3.194 0 0 0 4.512.13 3.182 3.182 0 0 0 .13-4.505zm10.466-55.31c21.248 0 40.354-8.53 47.043-11.884.706 1.02 1.537 2.3 2.304 3.675.961 1.725 1.858 3.545 1.858 5.015 0 1.725-.992 3.195-2.464 4.535-1.983 1.82-4.833 3.384-8.223 4.76-11.042 4.474-27.458 6.68-40.514 6.68-13.056 0-29.476-2.206-40.514-6.68-3.39-1.375-6.24-2.94-8.223-4.76-1.472-1.375-2.464-2.845-2.464-4.535 0-1.47.897-3.29 1.858-5.015a41.757 41.757 0 0 1 2.304-3.645c6.69 3.355 25.826 11.854 47.043 11.854zm2.559-22.045L59.015 29.3v11.82c4.382 0 8.704-.385 12.8-1.02v-6.965Zm-24.964 8.05v4.57c4.927 1.28 10.336 2.3 15.999 2.78V30.64l-6.145-2.045zm41.184-3.545c.255.48.416 1.02.416 1.565v7.315c7.742-1.755 14.432-4.22 19.264-6.265l-4.642-6.935-15.038 4.28zm-58.531 2.075c2.914 1.28 6.625 2.78 10.947 4.185v-5.56l-5.92-1.98-5.022 3.355zm23.746-17.35-6.53-2.175-9.475 2.365v7.99l7.427 2.46a3.18 3.18 0 0 1 1.698 1.31l6.91-3.45v-8.5zm20.387 1.02.576.385a3.192 3.192 0 0 1 1.121 4.025l6.59 4.92 9.666-2.75-2.56-7.67-9.534-4.76zM49.409 22.87l5.088 1.695 3.265-4.89-6.144-4.09h-2.239v7.285zM42.53 7.79l4.19 1.406h5.89c.641 0 1.247.19 1.758.545l3.585 2.395 6.751-6.74-4.482-8.945h-6.305L42.523 7.825Z" style="fill-rule:evenodd;stroke-width:1.28099167"/></svg>