<?xml version="1.0" encoding="UTF-8" standalone="no"?>
<svg
   xmlns:dc="http://purl.org/dc/elements/1.1/"
   xmlns:cc="http://creativecommons.org/ns#"
   xmlns:rdf="http://www.w3.org/1999/02/22-rdf-syntax-ns#"
   xmlns:svg="http://www.w3.org/2000/svg"
   xmlns="http://www.w3.org/2000/svg"
   xmlns:sodipodi="http://sodipodi.sourceforge.net/DTD/sodipodi-0.dtd"
   xmlns:inkscape="http://www.inkscape.org/namespaces/inkscape"
   version="1.1"
   viewBox="-5 -10 128 128"
   id="svg8"
   sodipodi:docname="noun-charcoal-7273448.svg"
   width="128"
   height="128"
   inkscape:version="0.92.4 (5da689c313, 2019-01-14)">
  <metadata
     id="metadata14">
    <rdf:RDF>
      <cc:Work
         rdf:about="">
        <dc:format>image/svg+xml</dc:format>
        <dc:type
           rdf:resource="http://purl.org/dc/dcmitype/StillImage" />
        <dc:title></dc:title>
      </cc:Work>
    </rdf:RDF>
  </metadata>
  <defs
     id="defs12" />
  <sodipodi:namedview
     pagecolor="#ffffff"
     bordercolor="#666666"
     borderopacity="1"
     objecttolerance="10"
     gridtolerance="10"
     guidetolerance="10"
     inkscape:pageopacity="0"
     inkscape:pageshadow="2"
     inkscape:window-width="1554"
     inkscape:window-height="886"
     id="namedview10"
     showgrid="false"
     inkscape:zoom="2.4722548"
     inkscape:cx="-61.466407"
     inkscape:cy="40.338006"
     inkscape:window-x="0"
     inkscape:window-y="0"
     inkscape:window-maximized="0"
     inkscape:current-layer="svg8" />
  <path
     d="m 34.982452,6.2947551 -11.938648,2.969941 c -1.442252,0.349999 -2.433753,1.6299289 -2.433753,3.0999879 v 11.054817 l -8.002516,5.334964 c -1.377128,-0.764994 -3.104882,-0.444999 -4.096383,0.764994 0,0 -3.390255,4.249923 -5.4085117,8.564869 -1.0216022,2.174944 -1.6976277,4.40992 -1.6976277,6.229926 0,4.024902 2.2735033,7.699858 6.4000134,10.769894 C 7.614725,72.754294 3.2930177,81.029375 -0.1974905,88.699025 -2.8216214,94.513982 -5,100.00882 -5,108.22387 c 0,2.55497 1.888005,5.07999 6.0143864,6.54992 5.9192616,2.14 17.5672796,2.80994 29.1206866,3.03496 14.402016,0.255 43.332966,0.255 57.729854,0 11.583143,-0.22499 23.201683,-0.89499 29.120683,-3.03496 4.12651,-1.50001 6.01439,-3.99495 6.01439,-6.54992 0,-8.20993 -2.14338,-13.704768 -4.80251,-19.524845 -3.49051,-7.669906 -7.80714,-15.974171 -8.00251,-33.614877 4.1265,-3.064916 6.4,-6.739872 6.4,-10.769894 0,-1.820006 -0.67104,-4.024902 -1.69762,-6.229926 -2.01812,-4.314946 -5.40851,-8.564869 -5.40851,-8.564869 -0.99155,-1.214985 -2.71925,-1.565034 -4.09639,-0.764994 0,0 -0.73615,0.414995 -2.07825,1.084989 0,0 -0.03,-0.065 -0.0651,-0.095 L 96.8491,20.159568 C 96.0829,19.009581 94.640592,18.464616 93.298592,18.849634 L 87.474455,20.509643 84.4047,11.339726 C 84.1493,10.539737 83.573398,9.8697951 82.802197,9.4847761 L 70.963673,3.5748451 65.044411,-8.2450169 c -0.545851,-1.084989 -1.662629,-1.754983 -2.849507,-1.754983 h -9.60002 c -0.866351,0 -1.662628,0.349998 -2.273502,0.924992 L 34.962992,6.2950111 Z M 103.91573,58.694643 c -11.713276,5.26994 -30.271929,7.989901 -44.899577,7.989901 -14.62252,0 -33.187198,-2.714969 -44.899573,-7.989901 -0.575901,13.644604 -3.585633,21.725128 -6.590261,28.469351 -2.9746313,6.679969 -6.0495142,11.884886 -6.1145118,20.704986 0.1602503,0.12999 0.5108011,0.35 0.7361515,0.47999 0.8964018,0.445 2.0782542,0.79999 3.4253823,1.11998 5.984387,1.37496 15.35839,1.78993 24.67342,1.98001 14.337916,0.255 43.13682,0.255 57.474736,0 9.314513,-0.16 18.659543,-0.57499 24.673413,-1.98001 1.37713,-0.31999 2.52901,-0.66999 3.42539,-1.11998 0.2554,-0.12999 0.5759,-0.35 0.73615,-0.47999 -0.0651,-8.819844 -3.13488,-14.024761 -6.11451,-20.704986 -3.00976,-6.739871 -6.01439,-14.795307 -6.59026,-28.469351 z M 55.814993,98.63391 v 6.38992 c 0,1.75499 1.442253,3.19497 3.200007,3.19497 1.757753,0 3.200006,-1.43998 3.200006,-3.19497 v -6.38992 c 0,-1.754983 -1.442253,-3.194962 -3.200006,-3.194962 -1.757754,0 -3.200007,1.439979 -3.200007,3.194962 z m -7.26639,4.1849 c -2.81438,-2.969942 -3.490508,-6.229927 -3.13488,-9.584887 2.594004,0.544991 5.408511,0.349999 8.673515,-1.374956 1.121752,-0.604996 1.792753,-1.789926 1.697628,-3.064916 -0.350551,-4.599998 1.151803,-7.859855 3.936133,-10.319852 0.641001,4.120005 1.632501,9.64991 2.814379,11.97986 1.342129,2.714969 2.81438,4.120005 4.191507,4.854971 1.66263,0.924991 3.295131,1.019979 4.96276,0.764993 0.160251,-0.03 0.350551,-0.065 0.510801,-0.095 -0.03005,2.809944 -1.086702,5.014967 -2.754253,6.869917 -1.181853,1.30993 -1.086703,3.32501 0.22535,4.5049 1.312052,1.17988 3.330257,1.08499 4.512007,-0.225 3.520508,-3.8649 5.378385,-8.754818 3.966259,-15.595295 -0.3205,-1.469931 -1.602503,-2.554972 -3.13488,-2.554972 -0.896402,0 -1.792752,0.159998 -2.65413,0.384993 -0.54585,0.129995 -1.086702,0.289993 -1.632501,0.384993 -0.290451,0.03 -0.545852,0.129995 -0.831303,0 -0.575901,-0.289993 -1.021601,-0.989989 -1.632501,-2.174945 -1.727756,-3.449934 -2.879506,-14.890026 -2.879506,-14.890026 -0.1302,-1.054987 -0.736152,-1.949924 -1.662629,-2.459997 -0.926452,-0.509996 -2.018128,-0.509996 -2.974631,-0.065 -6.945889,3.485006 -11.262648,8.59482 -11.422898,16.67944 -1.857878,0.444999 -3.455381,-0.065 -4.992758,-0.764993 -0.866352,-0.384993 -1.82288,-0.384993 -2.689258,0 -0.866351,0.384992 -1.472251,1.149986 -1.727754,2.045026 -1.888005,6.739871 -1.537378,13.195336 3.966259,19.010286 1.216902,1.27998 3.230006,1.34001 4.512007,0.13 1.282003,-1.21499 1.342129,-3.22492 0.130201,-4.5049 z M 59.015,47.509524 c 21.247908,0 40.35359,-8.529926 47.04308,-11.884886 0.70611,1.019992 1.53738,2.299999 2.30364,3.674955 0.96149,1.725032 1.85787,3.544909 1.85787,5.014968 0,1.725032 -0.99155,3.194963 -2.46388,4.534975 -1.98314,1.820006 -4.83251,3.384912 -8.22289,4.759996 -11.042275,4.474944 -27.457933,6.679968 -40.513846,6.679968 -13.055913,0 -29.475802,-2.205024 -40.513843,-6.679968 -3.390255,-1.374956 -6.239762,-2.93999 -8.222892,-4.759996 -1.472252,-1.374956 -2.463881,-2.845015 -2.463881,-4.534975 0,-1.469931 0.896402,-3.289936 1.857879,-5.014968 0.766201,-1.374956 1.602503,-2.649946 2.30363,-3.645003 6.690514,3.35496 25.82594,11.854806 47.043081,11.854806 z M 61.574004,25.4644 59.015,29.299353 v 11.819862 c 4.381884,0 8.703642,-0.384993 12.800025,-1.019992 V 33.134332 Z M 36.60957,33.514333 v 4.40992 0.159998 c 4.927761,1.279981 10.336145,2.299999 15.999392,2.779992 V 30.639366 l -6.144638,-2.045027 z m 41.18433,-3.54491 c 0.255401,0.479994 0.415651,1.019992 0.415651,1.565034 v 7.314839 c 7.742142,-1.754983 14.432784,-4.219971 19.264649,-6.26487 l -4.642257,-6.934941 -15.037889,4.280003 z m -58.531106,2.074979 c 2.914505,1.279981 6.625389,2.779992 10.947148,4.184899 v -5.559984 l -5.919262,-1.980003 -5.022886,3.35496 z M 43.009326,14.69425 36.479063,12.519306 27.004294,14.884328 v 7.989901 l 7.426641,2.459997 c 0.706101,0.224995 1.312001,0.704988 1.697628,1.309933 l 6.910763,-3.449934 v -8.499847 z m 20.386404,1.019992 0.575901,0.384993 c 1.342129,0.894989 1.792753,2.619995 1.121752,4.024902 l 6.590263,4.919994 9.665144,-2.749913 -2.559005,-7.669906 -9.534893,-4.7599949 z m -13.986647,7.154842 5.088012,1.694951 3.265132,-4.889913 -6.144638,-4.089926 h -2.238505 v 7.284888 z m -6.880764,-15.0794639 4.191507,1.405036 h 5.889264 c 0.641,0 1.246952,0.19 1.757753,0.54499 L 57.952476,12.13462 64.702988,5.3947491 60.22098,-3.5501469 H 53.916091 L 42.523319,7.8246661 Z"
     id="path2"
     inkscape:connector-curvature="0"
     style="fill-rule:evenodd;stroke-width:1.28099167" />
</svg>
