<svg enable-background="new 0 0 51.98 60" height="512" viewBox="0 0 51.98 60" width="512" xmlns="http://www.w3.org/2000/svg"><path d="m20.348 60c-5.3 0-10.254-1.843-13.949-5.189-4.186-3.791-6.399-9.188-6.399-15.606 0-9.387 2.063-19.087 5.661-26.613 3.881-8.119 8.971-12.592 14.333-12.592s10.452 4.472 14.333 12.592c2.163 4.527 3.606 9.394 4.52 14.32.514 2.768.843 5.569.999 8.379.134 2.416.229 4.923-.012 7.356-.33 3.327-1.428 6.596-3.301 9.376-1.989 2.953-4.835 5.238-8.146 6.545-2.553 1.007-5.304 1.432-8.039 1.432zm-.354-58c-9.249 0-17.994 18.081-17.994 37.205 0 5.837 1.985 10.721 5.742 14.123 3.326 3.013 7.802 4.672 12.606 4.672 3.371 0 6.769-.858 9.672-2.587 3.102-1.849 5.497-4.689 6.761-8.075.937-2.51 1.111-5.196 1.187-7.85.072-2.551-.114-5.124-.406-7.657-.555-4.826-1.63-9.614-3.314-14.174-1.39-3.766-3.2-7.48-5.753-10.603-1.832-2.241-4.237-4.389-7.175-4.93-.438-.082-.882-.124-1.326-.124z"/><path d="m18.995 54c-.016 0-.032 0-.048-.001-4.106-.194-7.929-2.473-10.765-6.415-.322-.448-.22-1.073.228-1.396s1.073-.222 1.396.228c2.472 3.437 5.751 5.42 9.235 5.585.552.026.978.495.952 1.046-.026.536-.468.953-.998.953z"/><path d="m6.994 44c-.256 0-.512-.098-.707-.293-1.293-1.293-1.293-2.951-1.293-4.707 0-.553.448-1 1-1s1 .447 1 1c0 1.699.031 2.617.707 3.293.391.391.391 1.023 0 1.414-.196.195-.451.293-.707.293z"/><path d="m35.16 59.975c-2.562 0-5.138-.521-7.49-1.58-.364-.164-.596-.529-.589-.929.007-.399.25-.756.619-.908 3.632-1.499 6.663-4.181 8.41-7.72 2.247-4.552 2.065-10.09 1.643-15.021-.431-5.04-1.419-10.054-3.028-14.851-1.014-3.023-2.28-5.982-3.93-8.716-.147-.244-.184-.539-.1-.811.083-.272.28-.496.539-.615 1.191-.547 2.412-.824 3.63-.824 2.422 0 4.655 1.237 6.444 2.783 2.461 2.127 4.307 4.926 5.75 7.816 1.88 3.763 3.119 7.835 3.9 11.96.521 2.752.812 5.545.929 8.343.107 2.566.211 5.209-.247 7.747-.75 4.155-2.996 7.903-6.487 10.319-.139.096-.28.191-.422.283-2.789 1.803-6.167 2.724-9.571 2.724zm-4.518-2.621c4.391 1.248 9.29.617 13.004-1.783 3.599-2.326 5.714-6.201 6.191-10.413.575-5.079-.081-10.477-1.18-15.442-.959-4.331-2.413-8.635-4.665-12.474-1.58-2.693-3.731-5.551-6.725-6.756-.763-.307-1.578-.486-2.403-.486-.582 0-1.168.085-1.754.253 2.365 4.217 3.981 8.843 5.088 13.538 1.189 5.046 1.922 10.374 1.776 15.567-.066 2.353-.156 4.652-.772 6.938-.53 1.97-1.368 3.857-2.514 5.547-.763 1.125-1.659 2.159-2.663 3.076-.509.465-1.046.899-1.605 1.302-.195.142-1.778.992-1.778 1.133z"/></svg>