<svg xmlns="http://www.w3.org/2000/svg" width="128" height="128" viewBox="-5 -10 128 128"><path d="M60.676 81.943h.042c1.969-.022 4.028-.224 6.006-.7C83.8 78.092 94.066 58.49 93.784 41.997c-.043-2.912-.342-5.92-1.057-8.806v-.027c-.01-.048-.026-.096-.042-.15-.032-.122-.07-.24-.102-.362a24.635 24.635 0 0 0-.368-1.264c-.048-.16-.101-.315-.154-.475-.134-.4-.278-.79-.432-1.179a20.77 20.77 0 0 0-.859-1.942v.006a30.519 30.519 0 0 1 .15 1.483c.026.336.047.672.058 1.013.005.075.005.144.01.22.016.404.022.815.016 1.22 0 .054-.005.113-.005.166-.005.352-.016.699-.037 1.05-.182 3.377-.992 6.706-2.571 9.73-1.056 1.872-1.926 4.027-3.58 5.457-2.293.805-.245-6.017-.303-7.185.234-1.862.432-3.729.288-5.606-.534-7.03-3.627-15.175-9.234-19.896v-.016c-.096-.08-.192-.155-.288-.23a19.566 19.566 0 0 0-1.403-1.035l.033.881c.186 5.974-.368 12.082-3.222 17.453-.96 1.899-2.054 3.91-3.643 5.398-2.886 2.715-5.068 1.792-3.724-2.15 2.849-6.849 5.921-13.949 5.863-21.529-.14-7.851-1.387-16.588-6.519-22.797 0-.005 0-.005.006-.01-.038-.043-.075-.086-.107-.128-.059-.07-.117-.134-.17-.198A19.22 19.22 0 0 0 61.383-10C55.656 5.533 38.251 6.252 37.472 26.08c-.47 5.184 1.066 10.177 2.47 15.1.826 2.492-1.74 3.575-3.815 3.17-1.701-.331-3.11-1.462-4.25-2.726-2.081-2.337-3.799-6.092-4.844-10.029a39.652 39.652 0 0 1-.374-1.525c-.021-.085-.037-.176-.053-.261a31.345 31.345 0 0 1-.283-1.515c-.005-.038-.016-.075-.021-.112-.005.01-.005.021-.01.037-.017.048-.033.09-.049.139-.005.021-.016.042-.021.064-.07.197-.139.394-.203.592-.042.122-.074.25-.117.378-.101.31-.197.625-.293.94-.08.266-.155.533-.23.8-.037.133-.08.26-.112.394 0 .005.006.01.006.021a44.529 44.529 0 0 0-.96 4.508c-2.076 11.004-.129 23.144 7.136 31.935 7.116 8.53 18.083 13.986 29.23 13.986zm12.081-4.582c-2.416 1.162-5.008 1.979-7.66 2.576-5.04.624-10.14.059-14.93-1.478-7.82-5.147-14.652-12.15-16.215-22.323 2.677 4.326 6.763 8.759 10.817 9.98.747.283 1.499.41 2.235.41 3.26 0 6.08-2.602 5.782-6.23-.496-4.581-3.808-8.187-5.067-12.561-2.47-7.036-.779-11.436 2.224-16.823-.032 5.163 1.414 10.657 3.622 15.042 1.819 3.585 4.107 7.265 7.734 9.234 1.184.714 2.39 1.029 3.563 1.029 3.468 0 6.652-2.747 8.226-6.006.096-.197.18-.4.266-.603.08 1.478.016 2.923-.117 4.118-.075 3.84-7.58 12.962-.886 14.15h.07c3.494 0 6.39-2.885 7.969-5.776.325-.63.592-1.285.81-1.958.235 3.377-.373 6.85-1.674 9.948-1.435 3.11-4.017 5.313-6.775 7.265zM26.282 35.312c1.67 4.806 4.673 9.03 8.513 10.508a6.623 6.623 0 0 0 2.209.38c1.706 0 3.424-.657 4.368-2.108.928-1.53.315-3.366-.112-4.96-.544-1.835-1.104-3.66-1.499-5.527-1.632-8.433.176-18.065 6.886-23.885C51.46 5.19 57.091 1.276 60.627-4.453c.56-.8 1.025-1.653 1.414-2.534 1.867 3.073 3.174 6.583 4.054 9.858 1.867 7.83 1.84 16.204-1.125 23.784a92.379 92.379 0 0 1-1.995 5.286c-1.195 2.71-3.531 7.265.058 9.116.384.102.763.15 1.131.15 3.76 0 6.69-4.998 8.15-7.97 2.518-4.843 3.484-10.32 3.393-15.75 0-.07-.005-.145-.01-.214 3.984 5.275 6.87 11.538 7.323 18.174.15 2.704-.261 5.387-.693 8.049-.4 2.096-1.062 5.088 1.2 6.347.315.112.619.166.907.166 2.661 0 4.251-4.364 5.451-6.305a27.313 27.313 0 0 0 1.958-4.876c.997 11.975-3.089 24.378-11.527 32.997 2.267-4.166 3.056-9.404 1.461-13.896 0-.005 0-.01.006-.016-.043-.122-.096-.245-.144-.368l-.112-.288a14.873 14.873 0 0 0-.384-.848c-.006-.01-.011-.027-.016-.037-.091.293-.182.586-.278.88-.987 3.04-2.304 5.947-4.96 7.873-1.2.843-3.468 2.101-4.609.613-.576-1.483.336-3.072.827-4.47.907-2.144 2.027-4.23 2.49-6.523.47-2.171.406-5.153-.383-7.735 0-.005.005-.01.005-.02-.048-.16-.112-.316-.17-.476-.06-.16-.107-.325-.171-.485-.128-.32-.267-.624-.422-.923-.021-.037-.037-.085-.058-.122v-.006c-.016.07-.038.144-.06.214-.09.346-.186.693-.287 1.034-.566 1.894-1.344 3.707-2.55 5.302-1.883 2.545-5.2 4.198-8.198 2.491-3.489-1.808-5.612-5.264-7.356-8.678-2.192-4.342-3.376-9.164-3.542-14.028a98.305 98.305 0 0 1-.096-2.811c-.01-.603-.016-1.211 0-1.814-.336.432-.667.87-.987 1.302-.074.09-.144.181-.213.272v.016c-5.6 7.28-6.55 14.545-2.582 22.973 1.057 2.454 2.55 4.662 3.409 7.201 1.926 6.321-3.931 8.241-8.524 4.838-2.598-1.723-4.507-4.235-6.4-6.662-.758-.976-1.542-1.942-2.3-2.923a46.507 46.507 0 0 1-.768-1.024c-.01-.01-.021-.027-.032-.038-.032.182-.053.358-.08.54v.005c-.032.266-.059.528-.075.794 0 .006.006.006.006.01-.576 8.242 5.003 17.182 12.193 22.33C34.774 71.26 26.906 61.6 25.67 49.657c-.689-4.827-.3-9.622.634-14.354Z" style="stroke-width:1.36551487"/><path d="M100.467 101.79c-1.334-1.755-3.403-2.71-5.414-3.467-.971-.373-1.952-.73-2.934-1.083l2.8-.912c6.321-1.664 8.135-6.87 6.775-12.305-.005-.027-.016-.054-.022-.08a14.016 14.016 0 0 0-.176-.635c-.01-.032-.016-.064-.026-.096a17.322 17.322 0 0 0-.768-2.043c-1.606-5.185-4.95-5.003-9.538-4.22-4.731.833-9.329 2.241-13.938 3.575-6.064 1.856-12.15 3.627-18.221 5.451-6.07-1.83-12.162-3.6-18.232-5.451-4.609-1.334-9.207-2.747-13.938-3.574-4.587-.784-7.927-.96-9.537 4.219a17.32 17.32 0 0 0-.769 2.043h-.005c-.016.053-.027.101-.043.155-.048.16-.09.325-.133.485l-.048.17h.005a13.485 13.485 0 0 0-.421 3.004v.026c-.005.14 0 .278 0 .416v.203c.123 3.98 2.315 7.372 7.196 8.657.933.304 1.867.608 2.795.907-.982.352-1.958.71-2.929 1.083-2.01.757-4.08 1.712-5.414 3.467-3.253 4.123-1.573 13.986 3.782 15.682 1.286.373 2.715.533 4.246.533 7.65 0 17.73-4.033 24.11-6.097 3.11-1.088 6.22-2.192 9.329-3.302 3.11 1.11 6.214 2.214 9.329 3.302 6.38 2.06 16.467 6.097 24.11 6.097 1.53 0 2.96-.16 4.245-.533 5.356-1.697 7.041-11.554 3.782-15.682zm-75.028-6.576c-3.564-.955-7.217-2.524-7.697-6.439 2.41.657 4.848 1.2 7.291 1.643a75.826 75.826 0 0 0-7.345-2.821c-.016-1.003.112-1.99.347-2.96 5.5 1.909 11.223 3.29 16.867 4.608-3.345-1.75-7.132-2.886-10.786-3.974a105.285 105.285 0 0 0-5.803-1.632c.373-1.2.87-2.374 1.403-3.5.378-.88 1.13-1.573 2.101-1.706 5.948-.251 11.682 2.021 17.363 3.499 3.792 1.104 7.569 2.256 11.34 3.403 1.787.533 3.574 1.061 5.36 1.59A501.788 501.788 0 0 0 50.2 88.7a96.575 96.575 0 0 0-10.833-3.297c-4.684-1.216-9.458-2.48-14.243-2.992a84.62 84.62 0 0 0 11.02 3.403c4.604 1.21 9.244 2.358 13.975 2.912-.25.08-.496.155-.747.235-4.822 1.478-9.468 3.42-14.21 5.11a107.927 107.927 0 0 0-6.96-1.867c1.77.859 3.584 1.654 5.414 2.411-.864.299-1.74.587-2.614.854l-2.342.8c-1.072-.352-2.15-.7-3.221-1.046zm-6.012 18.583c-1.595-2.907-2.523-6.854-1.04-9.927 2.032-2.373 5.489.88 6.577 4.155 1.947 5.452-.97 10.594-5.532 5.772zm26.015-2.32c-6.108 2.016-12.391 4.187-18.857 4.72-.416.021-.843.037-1.28.037 1.344-.976 2.139-2.843 2.038-4.555.176-3.995-2.72-10.47-7.335-9.81 2.46-1.93 5.708-2.543 8.657-3.722 2.475-.864 5.212-1.75 7.74-2.635 10.097-4.14 20.632-7.063 31.082-10.188 3.776-1.147 7.548-2.305 11.34-3.403 5.393-1.403 10.823-3.52 16.45-3.52.305 0 .609.004.913.02.976.14 1.723.827 2.101 1.707.534 1.131 1.035 2.3 1.408 3.5a99.841 99.841 0 0 0-5.808 1.637c-3.654 1.088-7.441 2.224-10.786 3.974 5.644-1.318 11.367-2.7 16.867-4.609.235.966.363 1.953.347 2.96a75.962 75.962 0 0 0-7.35 2.822 88.731 88.731 0 0 0 7.291-1.642c-.485 3.915-4.139 5.483-7.702 6.438a717.097 717.097 0 0 0-10.999 3.621 1168.723 1168.723 0 0 0-12.588 4.305c-7.777 2.736-15.682 5.654-23.528 8.337zm45.974 4.725c-6.465-.538-12.749-2.704-18.857-4.72a829.226 829.226 0 0 1-10.886-3.825l4.501-1.6c1.585.566 3.169 1.126 4.737 1.686 5.5 1.941 10.972 4.027 16.643 5.414-4.635-2.491-9.708-4.252-14.696-5.99-1.632-.577-3.259-1.163-4.886-1.745a949.115 949.115 0 0 1 7.746-2.699c4.261 1.835 8.753 3.174 13.255 4.102a78.973 78.973 0 0 0-11.874-4.571c1.376-.47 2.747-.944 4.123-1.403.656-.224 1.312-.437 1.963-.656a98.27 98.27 0 0 0 5.131 1.355 49.714 49.714 0 0 0-3.824-1.787c1.61-.539 3.222-1.072 4.833-1.6.005 0 .01.005.01.005 2.95 1.184 6.193 1.792 8.652 3.723-4.614-.661-7.51 5.814-7.334 9.81-.107 1.712.693 3.579 2.037 4.555-.437 0-.87-.016-1.285-.038zm7.163-2.41c-4.566 4.827-7.483-.315-5.542-5.767 1.088-3.275 4.54-6.528 6.577-4.16 1.483 3.067.555 7.02-1.035 9.926z" style="stroke-width:1.36551487"/><path d="M18.712 108.111c.245 1.489.976 2.94 1.963 4.065.032 0 .027-.021.01-.016-.575-.992-2.021-4.849-.522-5.414 2.454.128 3.638 3.734 3.094 5.803-.011.016-.016.032-.032.054-1.494-1.056-2.438-2.94-2.822-4.71-.15 1.781.64 3.744 1.755 5.158.357.421.757.608 1.12.608.613 0 1.136-.534 1.232-1.403.208-1.942-.293-4.08-1.728-5.473-1.574-1.744-4.513-1.504-4.075 1.334zM60.958 91.026c-6.203 1.163-12.13 3.377-18.11 5.329-4.48 1.483-8.966 2.987-13.169 5.18 6.316-1.457 12.53-3.73 18.717-5.756 4.273-1.371 8.524-2.79 12.562-4.753zM92.877 82.407c-4.784.512-9.553 1.776-14.242 2.992a96.717 96.717 0 0 0-10.983 3.35c4.811-.544 9.527-1.712 14.204-2.944 3.745-.891 7.43-2.006 11.02-3.403zM64.905 94.014c-4.705 1.563-9.452 3.083-13.832 5.467a163.606 163.606 0 0 0 13.314-4.027c4.427-1.472 8.865-2.939 13.026-5.03-4.262.848-8.406 2.166-12.508 3.59zM29.029 106.816c5.856-1.211 11.697-3.1 17.041-5.9-5.825 1.275-11.628 3.297-17.041 5.9zM30.447 113.146c5.67-1.387 11.143-3.472 16.643-5.414 4.982-1.776 10.103-3.451 14.764-5.9-5.734 1.233-11.196 3.388-16.711 5.324-4.987 1.739-10.06 3.5-14.696 5.99zM66.815 100.313c7.836-1.936 15.693-4.577 22.984-8.118-7.926 1.84-15.639 4.587-22.984 8.118zM95.208 106.777c-1.435 1.392-1.936 3.531-1.728 5.473.096.87.619 1.403 1.232 1.403.368 0 .763-.187 1.12-.608 1.11-1.414 1.905-3.377 1.755-5.158-.384 1.77-1.328 3.654-2.821 4.71-.016-.022-.022-.038-.032-.054-.545-2.064.64-5.675 3.093-5.803 1.5.565.048 4.422-.522 5.414-.016-.005-.022.016.01.016.987-1.126 1.718-2.576 1.963-4.065.443-2.843-2.496-3.077-4.075-1.333z" style="stroke-width:1.36551487"/></svg>