<?xml version="1.0" encoding="UTF-8" standalone="no"?>
<svg
   xmlns:dc="http://purl.org/dc/elements/1.1/"
   xmlns:cc="http://creativecommons.org/ns#"
   xmlns:rdf="http://www.w3.org/1999/02/22-rdf-syntax-ns#"
   xmlns:svg="http://www.w3.org/2000/svg"
   xmlns="http://www.w3.org/2000/svg"
   xmlns:sodipodi="http://sodipodi.sourceforge.net/DTD/sodipodi-0.dtd"
   xmlns:inkscape="http://www.inkscape.org/namespaces/inkscape"
   version="1.1"
   x="0px"
   y="0px"
   viewBox="0 0 68.804054 90"
   xml:space="preserve"
   id="svg14"
   sodipodi:docname="fish.svg"
   width="68.804054"
   height="90"
   inkscape:version="0.92.2 (5c3e80d, 2017-08-06)"><metadata
     id="metadata20"><rdf:RDF><cc:Work
         rdf:about=""><dc:format>image/svg+xml</dc:format><dc:type
           rdf:resource="http://purl.org/dc/dcmitype/StillImage" /><dc:title></dc:title></cc:Work></rdf:RDF></metadata><defs
     id="defs18" /><sodipodi:namedview
     pagecolor="#ffffff"
     bordercolor="#666666"
     borderopacity="1"
     objecttolerance="10"
     gridtolerance="10"
     guidetolerance="10"
     inkscape:pageopacity="0"
     inkscape:pageshadow="2"
     inkscape:window-width="695"
     inkscape:window-height="480"
     id="namedview16"
     showgrid="false"
     fit-margin-top="0"
     fit-margin-left="0"
     fit-margin-right="0"
     fit-margin-bottom="0"
     inkscape:zoom="1.888"
     inkscape:cx="34.4"
     inkscape:cy="32.5"
     inkscape:window-x="0"
     inkscape:window-y="0"
     inkscape:window-maximized="0"
     inkscape:current-layer="svg14" /><g
     id="g8"
     transform="translate(-15.6,-5)"><path
       d="m 20.2,78.7 c -1.4,0.4 -4.1,2 -4.6,2.9 l 5.2,3.1 c 0.6,-1 0.7,-4.4 0.3,-5.6 2.6,-1.5 10.5,-9.3 12.6,-12.8 L 25.3,61.4 C 23.2,65 20.1,76 20.2,78.7 Z"
       id="path2"
       inkscape:connector-curvature="0" /><path
       d="m 32.6,58.8 v -2.2 c -2.2,0.7 -6.4,3.1 -7.2,4.6 l 8.4,4.9 c 0.8,-1.3 1,-5.3 0.7,-7.7 z M 30.3,61 C 30,61.4 29.5,61.6 29,61.3 28.6,61 28.4,60.5 28.7,60 29,59.6 29.5,59.4 30,59.7 c 0.4,0.2 0.5,0.8 0.3,1.3 z"
       id="path4"
       inkscape:connector-curvature="0" /><path
       d="M 84.3,93.4 35.8,5.4 C 35.6,5 35.1,4.9 34.8,5.1 L 34,5.5 c -0.4,0.2 -0.5,0.7 -0.3,1 v 50 c 0,0.1 0.1,0.2 0.2,0.2 0,0 0,0 0,0 0.3,0.1 0.5,0.4 0.5,0.7 0,0.4 -0.3,0.7 -0.7,0.7 -0.4,0 -0.6,-0.2 -0.7,-0.6 h -0.2 c 0.1,0.4 0.5,0.8 0.9,0.8 0.5,0 0.9,-0.4 0.9,-0.9 0,-0.4 -0.2,-0.7 -0.5,-0.8 0,0 0,0 0,0 V 7.2 l 48.2,87.4 c 0.2,0.4 0.7,0.5 1,0.3 l 0.8,-0.4 c 0.3,-0.2 0.4,-0.7 0.2,-1.1 z"
       id="path6"
       inkscape:connector-curvature="0" /></g></svg>