<svg xmlns="http://www.w3.org/2000/svg" width="128" height="128" viewBox="-5 -10 128 128"><path d="M57.592 29.49c-2.484.303-7.404-7.256-1.876-11.332 3.019-2.222 6.594-2.722 7.597-6.933.26-1.099.42-1.854 1.605-2.223 2.26-.073 1.97 2.04 1.486 3.55-2.234 6.996-8.636 6.715-9.862 9.755-1.122 2.77 5.32 5.632 1.05 7.184zM68.727 32.01c-2.588.448-4.734-4.773-4.276-7.386 1.044-5.898 9.072-4.56 10.386-10.968.208-1.005.291-1.723 1.367-2.103 2.546-.24 2.224 2.223 1.6 3.982-2.302 6.523-9.238 6.658-10.117 9.412-.826 2.597 4.531 5.523 1.04 7.064zM89.412 32.27c-3.045.589-4.915-5.127-4.105-7.813 1.471-4.888 8.314-4.425 10.096-9.797.39-1.181.172-2.472 1.45-3.113 1.766-.203 2.473.786 2.172 2.457-1.517 8.314-9.899 8.397-10.636 11.577-.582 2.52 3.959 4.92 1.023 6.69zM29.072 49.053c2.987-6.033 9.155-12.259 16.226-12.451 6.189-1.146 9.982 3.316 14.217 6.356l.12.083c.826-1.12 2.203-1.88 3.419-2.504 8.698-4.472 17.417-1.728 23.793 5.09.96 1.032 1.917 2.166 2.561 3.42 1.7-.134 3.346.12 5.004.48 10.974 2.4 20.108 11.55 17.453 23.362l5.076-.005c2.308-.01 6.059-.5 6.059 3.102 0 2.306-3.798 7.012-5.388 8.6-2.993 2.982-6.63 5.168-10.704 6.308-4.396 1.234-2.645-.114-6.365 2.89-6.833 5.517-15.006 5.22-23.314 5.21h-40.17C28.07 99 22.37 98.541 15.34 91.941c-5.383-1.104-10.122-2.853-14.315-6.632-2.182-1.973-5.924-6.382-6.022-9.328-.115-3.472 3.31-3.103 5.544-3.097l5.632.005c-3.85-11.895 7.088-21.848 18.16-23.54 1.574-.234 3.143-.275 4.733-.296zm16.72-9.234c-5.352.161-9.8 4.393-12.595 8.662-3.315 5.06-.785 3.336-6.64 3.909-8.283.807-18.051 6.798-17.885 16.122.031 1.582.525 2.915 1.024 4.388h64.399c3.549-9.365-1.668-15.627-9.717-20.01-3.876-2.108-2.572-.896-5.024-4.534-2.775-4.113-8.09-9.245-13.561-8.537zm25.57 1.91c-2.952.11-7.706 1.432-9.706 3.883 1.32 3.764 3.538 3.582 6.37 5.508 8.012 5.45 12.434 11.749 9.571 21.78h20.98l6.433-.005c1.065 0 2.151-.047 3.211.005 3.939-10.354-6.401-19.115-15.874-20.442-6.354-.89-3.232 1.13-7.43-4.045-2.951-3.639-8.693-7.413-13.556-6.684zm4.203 34.47H-1.574c3.045 6.398 8.927 10.651 15.75 12.166 3.231.718 2.12.187 4.619 2.327 4.925 4.216 10.667 5.07 16.98 5.07l6.807-.005H81.49c6.401 0 11.426-.12 16.84-4.482 3.819-3.077 2.437-2.322 7.124-3.514 6.167-1.567 11.306-5.835 14.075-11.567z" style="stroke-width:1.33138657"/><path d="M79.032 52.26c-2.048.223-5.94-3.363-2.567-4.784 1.943-.1 5.965 3.258 2.567 4.783zM51.783 55.639c-2.151.15-5.767-3.987-2.323-4.7 2.318.046 5.519 3.513 2.323 4.7zM35.084 61.64c-3.85.083-1.205-3.983 1.185-5.044 3.725-.12 1.429 4.32-1.185 5.044zM85.059 63.936c-3.7.203-1.746-3.78 1.09-5.029 3.846-.338 1.611 3.748-1.09 5.029zM61.65 64.582c-2.302-.052-5.237-3.701-2.01-4.674 2.28-.047 5.185 3.67 2.01 4.674zM24.977 67.251c-2.244.063-5.57-3.716-2.275-4.752 2.24-.084 5.59 3.529 2.275 4.752zM99.228 67.97c-2.136.348-6.2-3.212-2.895-4.7 2.105-.12 6.158 3.206 2.895 4.7zM47.05 68.865c-2.172.005-5.835-3.134-2.338-4.29 2.614.016 5.778 3.275 2.338 4.29z" style="stroke-width:1.33138657"/></svg>