<?xml version="1.0" encoding="UTF-8" standalone="no"?>
<svg
   xmlns:dc="http://purl.org/dc/elements/1.1/"
   xmlns:cc="http://creativecommons.org/ns#"
   xmlns:rdf="http://www.w3.org/1999/02/22-rdf-syntax-ns#"
   xmlns:svg="http://www.w3.org/2000/svg"
   xmlns="http://www.w3.org/2000/svg"
   xmlns:sodipodi="http://sodipodi.sourceforge.net/DTD/sodipodi-0.dtd"
   xmlns:inkscape="http://www.inkscape.org/namespaces/inkscape"
   version="1.1"
   x="0px"
   y="0px"
   viewBox="0 0 45.299515 49.999096"
   enable-background="new 0 0 50 50"
   xml:space="preserve"
   id="svg10"
   sodipodi:docname="noun_guinea fowl_1761269.svg"
   width="45.299515"
   height="49.999096"
   inkscape:version="0.92.2 (5c3e80d, 2017-08-06)"><metadata
     id="metadata16"><rdf:RDF><cc:Work
         rdf:about=""><dc:format>image/svg+xml</dc:format><dc:type
           rdf:resource="http://purl.org/dc/dcmitype/StillImage" /><dc:title></dc:title></cc:Work></rdf:RDF></metadata><defs
     id="defs14" /><sodipodi:namedview
     pagecolor="#ffffff"
     bordercolor="#666666"
     borderopacity="1"
     objecttolerance="10"
     gridtolerance="10"
     guidetolerance="10"
     inkscape:pageopacity="0"
     inkscape:pageshadow="2"
     inkscape:window-width="1920"
     inkscape:window-height="1001"
     id="namedview12"
     showgrid="false"
     fit-margin-top="0"
     fit-margin-left="0"
     fit-margin-right="0"
     fit-margin-bottom="0"
     inkscape:zoom="3.776"
     inkscape:cx="-7.5392377"
     inkscape:cy="18.749073"
     inkscape:window-x="-9"
     inkscape:window-y="-9"
     inkscape:window-maximized="1"
     inkscape:current-layer="svg10" /><g
     id="g4"
     transform="translate(-2.3485597,2.4451116e-5)"><path
       d="m 40.323,6.873 c -0.542,0 -0.982,-0.44 -0.982,-0.982 0,-0.543 0.44,-0.983 0.982,-0.983 0.542,0 0.983,0.44 0.983,0.983 -10e-4,0.541 -0.441,0.982 -0.983,0.982 M 28.577,12.21 c -13.223,0 -19.45,10.105 -24.11,21.542 l 2.749,0.026 c 10.305,0.003 12.711,-4.914 14.847,-9.297 1.119,-2.297 2,-4.437 4.495,-5.419 0.875,-0.344 1.475,-0.305 1.597,-0.062 0.114,0.23 -0.158,0.6 -0.857,1.198 -1.947,1.665 -2.229,2.217 -3.619,5.071 -2.139,4.388 -5.022,10.308 -16.48,10.308 -0.542,0 -2.345,-0.013 -3.444,-0.042 l -0.96,2.512 c -0.183,0.503 0.106,1.065 0.631,1.19 l 1.23,0.285 c -1.072,2.113 -2.742,5.693 -2.203,9.696 0.064,0.471 0.506,0.837 0.985,0.774 5.008,-0.526 8.699,-3.566 11.288,-9.292 0.861,0.006 1.715,-0.004 2.575,-0.044 l 0.689,3.777 -1.714,-10e-4 c -0.496,0 -0.899,0.401 -0.899,0.901 0,0.496 0.403,0.899 0.899,0.899 l 6.91,0.002 c 0.497,0 0.899,-0.401 0.899,-0.898 0,-0.498 -0.402,-0.901 -0.899,-0.901 h -3.365 l -0.714,-3.904 c 12.714,-1.174 20.926,-8.279 22.757,-19.905 0.295,-1.87 0.338,-3.667 0.379,-5.403 0.078,-3.39 -0.02,-5.797 2.447,-8.191 C 45.497,6.251 46.364,5.615 47.478,5.206 47.682,5.13 47.71,4.863 47.521,4.757 45.983,3.893 44.966,3.54 43.459,3.422 L 43.175,3.115 C 41.942,1.219 39.765,-0.269 36.832,0.041 36.719,0.054 36.64,0.131 36.645,0.248 l 0.104,1.82 c 0.008,0.116 0.107,0.197 0.223,0.184 0.491,-0.067 0.979,-0.051 1.439,0.053 -1.235,0.59 -2.157,1.766 -2.365,3.185 -0.114,0.773 0.115,1.77 0.379,2.925 0.323,1.407 0.765,3.336 0.186,4.064 -0.393,0.495 -1.306,0.587 -3.251,0.144 -1.65,-0.275 -3.261,-0.413 -4.783,-0.413 z"
       id="path2"
       inkscape:connector-curvature="0"
       style="clip-rule:evenodd;fill-rule:evenodd" /></g></svg>