<svg xmlns="http://www.w3.org/2000/svg" xml:space="preserve" width="128" height="128"><path d="M115.643 44.52c-8.659-8.807-13.9-8.497-16.416-8.335l-.338.017c-3.682-1.734-8.003-2.79-12.867-2.302a39.56 39.56 0 0 0-4.382-1.357v-9.728c6.545-.806 12.594-2.173 16.094-5.773a.868.868 0 0 0-.014-1.222.856.856 0 0 0-1.218.014c-3.1 3.188-8.714 4.467-14.862 5.237V10.293h6.729c.475 0 .86-.388.86-.865V.865A.863.863 0 0 0 88.37 0H.86A.863.863 0 0 0 0 .865v8.563c0 .477.385.865.86.865H7.59v58.915c-2.054.572-4.262 2.065-4.533 4.174a3.59 3.59 0 0 0 .837 2.818c.577.676 1.676 1.478 3.696 1.701v39.805H.86a.865.865 0 0 0-.86.866v8.563c0 .478.385.865.86.865h87.507c.475 0 .86-.387.86-.865v-8.563a.863.863 0 0 0-.86-.865H81.64V69.013c3.535 5.43 7.454 10.156 12.288 13.586 7.68 5.45 15.296 7.54 21.36 7.54 4.97 0 8.898-1.405 10.956-3.517 3.838-3.936 1.853-29.436-10.6-42.102zM79.918 32.157c-1.976-.393-3.57-.552-4.573-.606-2.181-.116-3.534.037-4.039.456V23.86c1.265-.133 2.556-.254 3.86-.374 1.583-.148 3.176-.298 4.752-.47zm0 78.34c-2.643.126-4.118.811-5.536 1.483-1.462.69-2.841 1.344-5.663 1.344s-4.203-.653-5.663-1.344c-1.567-.742-3.189-1.508-6.397-1.508-3.206 0-4.826.766-6.393 1.508-1.46.69-2.839 1.344-5.66 1.344s-4.2-.653-5.661-1.344c-1.567-.742-3.187-1.508-6.394-1.508-3.206 0-4.826.766-6.393 1.508-1.46.69-2.84 1.344-5.658 1.344-2.819 0-4.198-.653-5.658-1.344-1.418-.672-2.891-1.357-5.53-1.483v-3.979c2.25.12 3.495.704 4.795 1.32 1.566.742 3.186 1.508 6.392 1.508 3.205 0 4.825-.766 6.392-1.508 1.46-.692 2.84-1.345 5.66-1.345 2.821 0 4.2.653 5.66 1.345 1.567.742 3.189 1.508 6.396 1.508 3.205 0 4.825-.766 6.393-1.508 1.459-.692 2.838-1.345 5.659-1.345 2.823 0 4.202.653 5.663 1.345 1.567.742 3.189 1.508 6.397 1.508 3.207 0 4.829-.766 6.397-1.508 1.303-.616 2.549-1.2 4.803-1.32v3.98zM19.644 1.73h8.61v6.833h-8.61ZM17.92 8.563h-8.61V1.73h8.61zm51.663 0h-8.61V1.73h8.61zm1.722-6.833h8.612v6.833h-8.612zm7.61 38.464c.646.607 1 1.43 1 2.32a3.167 3.167 0 0 1-3.37 3.173l-46.571-3.061v-.222l32.46-2.133c4.543 1.976 9.888 2.96 12.83 3.207.238.297.588.499.996.499a1.3 1.3 0 0 0 1.297-1.304 1.3 1.3 0 0 0-1.297-1.304 1.29 1.29 0 0 0-.911.377c-1.994-.18-5.308-.747-8.628-1.757l9.825-.646a3.173 3.173 0 0 1 2.37.85zM56.66 76.23c-2.951 0-4.557.65-6.018 1.333v-14.72c2.092-.774 3.31-1.682 4.486-2.567 1.128-.85 2.219-1.663 4.126-2.358V76.44a15.184 15.184 0 0 0-2.594-.209zM54.43 31.573c0 2.948 2 5.264 4.82 7.04v.131l-8.61.566V10.293h8.61v14.394c-2.958 1.378-4.82 3.483-4.82 6.886zm4.82-4.892v9.878c-1.866-1.365-3.097-3.016-3.097-4.986 0-2.237 1.172-3.78 3.097-4.892zM48.92 39.423l-8.61.566V10.293h8.61zm-10.333.68-8.61.565V10.293h8.61zm-8.61 4.256 8.61.566v16.888c-1.171-.005-2.544.137-4.32.589-1.903.484-3.224 1.062-4.29 1.672zm29.275 1.924v9.806c-2.518.822-3.862 1.826-5.158 2.803-.987.744-1.951 1.458-3.452 2.091V45.717ZM48.92 61.59c-.249.073-.495.147-.77.217-3.128.8-4.815.548-6.601.279-.404-.06-.814-.119-1.238-.167V45.038l8.61.566V61.59zM28.254 76.86c-.78.261-1.446.57-2.096.879-1.46.692-2.84 1.345-5.658 1.345-.304 0-.583-.011-.855-.024v-8.366a20.582 20.582 0 0 0 2.553-.487c3.093-.79 4.675-1.816 6.059-2.841v9.495zm1.722-10.754c1.115-.753 2.45-1.45 4.714-2.026 1.612-.41 2.84-.54 3.896-.536v14.027c-1.464-.685-3.072-1.34-6.035-1.34-1.002 0-1.835.08-2.575.205zM40.31 78.301V63.664c.331.041.657.087.985.136 1.876.279 3.816.567 7.28-.313.123-.032.227-.066.346-.099V78.3c0 .012.006.02.006.032-1.084.428-2.347.75-4.32.75-1.963 0-3.223-.319-4.304-.745 0-.011.007-.023.007-.036zm20.665-31.905 8.61.566v8.611a27.091 27.091 0 0 1-1.654-.206c-1.814-.268-3.7-.539-6.958.24v-9.211zm8.61-8.33-6.857.45a23.324 23.324 0 0 1-1.753-.869V25.864c2.328-.898 5.325-1.422 8.61-1.813zm-8.61-14.061V10.293h8.61v12.016c-3.193.374-6.161.867-8.61 1.696zM59.25 8.563h-8.61V1.73h8.61zm-10.332 0h-8.61V1.73h8.61zm-10.333 0h-8.61V1.73h8.61zm-10.332 1.73v54.915l-.54.403c-1.445 1.09-2.81 2.12-5.941 2.915-.794.202-1.495.34-2.13.427v-58.66Zm-10.333 68.57c-1.292-.244-2.211-.663-3.157-1.1-1.402-.644-2.86-1.304-5.453-1.487v-5.688c2.482-.459 3.984-.251 5.557-.03.94.132 1.897.266 3.053.256zm61.997 25.927c-2.643.126-4.118.81-5.536 1.483-1.462.692-2.841 1.345-5.663 1.345s-4.203-.653-5.663-1.345c-1.567-.742-3.189-1.509-6.397-1.509-3.206 0-4.826.767-6.393 1.509-1.46.692-2.839 1.345-5.66 1.345s-4.2-.653-5.66-1.345c-1.567-.742-3.188-1.509-6.395-1.509-3.206 0-4.826.767-6.393 1.509-1.46.692-2.84 1.345-5.658 1.345-2.819 0-4.198-.653-5.658-1.345-1.418-.672-2.891-1.357-5.53-1.483v-3.978c2.25.12 3.495.704 4.795 1.32 1.566.742 3.186 1.508 6.392 1.508 3.205 0 4.825-.766 6.392-1.508 1.46-.692 2.84-1.345 5.66-1.345 2.821 0 4.2.653 5.66 1.345 1.567.742 3.189 1.508 6.396 1.508 3.205 0 4.825-.766 6.393-1.508 1.459-.692 2.838-1.345 5.659-1.345 2.823 0 4.202.653 5.663 1.345 1.567.742 3.189 1.508 6.397 1.508 3.207 0 4.829-.766 6.397-1.508 1.303-.616 2.549-1.2 4.803-1.32v3.978zm0-5.706c-2.643.126-4.118.81-5.536 1.483-1.462.692-2.841 1.345-5.663 1.345s-4.203-.653-5.663-1.345c-1.567-.742-3.189-1.509-6.397-1.509-3.206 0-4.826.767-6.393 1.509-1.46.692-2.839 1.345-5.66 1.345s-4.2-.653-5.66-1.345c-1.567-.742-3.188-1.509-6.395-1.509-3.206 0-4.826.767-6.393 1.509-1.46.692-2.84 1.345-5.658 1.345-2.819 0-4.198-.653-5.658-1.345-1.418-.672-2.891-1.357-5.53-1.483v-3.978c2.25.12 3.495.704 4.795 1.32 1.566.742 3.186 1.508 6.392 1.508 3.205 0 4.825-.766 6.392-1.508 1.46-.692 2.84-1.345 5.66-1.345 2.821 0 4.2.653 5.66 1.345 1.567.742 3.189 1.508 6.396 1.508 3.205 0 4.825-.766 6.393-1.508 1.459-.692 2.838-1.345 5.659-1.345 2.823 0 4.202.653 5.663 1.345 1.567.742 3.189 1.508 6.397 1.508 3.207 0 4.829-.766 6.397-1.508 1.303-.616 2.549-1.2 4.803-1.32v3.978zm0-5.708c-2.643.126-4.118.811-5.536 1.483-1.462.692-2.841 1.345-5.663 1.345s-4.203-.653-5.663-1.345c-1.567-.742-3.189-1.508-6.397-1.508-3.206 0-4.826.766-6.393 1.508-1.46.692-2.839 1.345-5.66 1.345s-4.2-.653-5.66-1.345c-1.567-.742-3.188-1.508-6.395-1.508-3.206 0-4.826.766-6.393 1.508-1.46.692-2.84 1.345-5.658 1.345-2.819 0-4.198-.653-5.658-1.345-1.418-.672-2.891-1.357-5.53-1.483V89.4c2.25.12 3.495.703 4.795 1.318 1.566.742 3.187 1.509 6.392 1.509 3.205 0 4.825-.767 6.391-1.509 1.46-.69 2.839-1.344 5.66-1.344 2.82 0 4.2.654 5.661 1.344 1.567.742 3.187 1.509 6.394 1.509 3.206 0 4.826-.767 6.393-1.509 1.46-.69 2.839-1.344 5.66-1.344 2.822 0 4.202.654 5.663 1.344 1.567.742 3.188 1.509 6.397 1.509 3.207 0 4.828-.767 6.397-1.509 1.303-.615 2.549-1.198 4.803-1.318zm0-5.706c-2.643.126-4.118.811-5.536 1.483-1.462.69-2.841 1.344-5.663 1.344s-4.203-.653-5.663-1.344c-1.567-.742-3.189-1.508-6.397-1.508-3.206 0-4.826.766-6.393 1.508-1.46.69-2.839 1.344-5.66 1.344s-4.2-.653-5.661-1.344c-1.567-.742-3.187-1.508-6.394-1.508-3.206 0-4.826.766-6.393 1.508-1.46.69-2.84 1.344-5.658 1.344-2.819 0-4.198-.653-5.658-1.344-1.418-.672-2.891-1.357-5.53-1.483v-3.977c2.25.12 3.495.703 4.795 1.318 1.566.742 3.187 1.509 6.392 1.509 3.205 0 4.825-.767 6.391-1.509 1.46-.69 2.839-1.344 5.66-1.344 2.82 0 4.2.654 5.661 1.344 1.567.742 3.187 1.509 6.394 1.509 3.206 0 4.826-.767 6.393-1.509 1.46-.69 2.839-1.344 5.66-1.344 2.822 0 4.202.654 5.663 1.344 1.567.742 3.188 1.509 6.397 1.509 3.207 0 4.828-.767 6.397-1.509 1.303-.615 2.549-1.198 4.803-1.318zm0-5.706c-2.643.126-4.118.811-5.536 1.483-1.462.69-2.841 1.344-5.663 1.344s-4.203-.653-5.663-1.344c-1.567-.742-3.189-1.508-6.397-1.508-3.206 0-4.826.766-6.393 1.508-1.46.69-2.839 1.344-5.66 1.344s-4.2-.653-5.661-1.344c-1.567-.742-3.187-1.508-6.394-1.508-3.206 0-4.826.766-6.393 1.508-1.46.69-2.84 1.344-5.658 1.344-2.819 0-4.198-.653-5.658-1.344-1.418-.672-2.891-1.357-5.53-1.483v-3.956c2.21.172 3.444.737 4.735 1.33 1.576.726 3.206 1.477 6.452 1.477 3.205 0 4.825-.766 6.392-1.508 1.46-.692 2.84-1.346 5.66-1.346 2.821 0 4.2.654 5.66 1.346 1.567.742 3.189 1.508 6.396 1.508 3.205 0 4.825-.766 6.393-1.508 1.459-.692 2.838-1.346 5.659-1.346 2.823 0 4.202.654 5.663 1.346 1.567.742 3.189 1.508 6.397 1.508 3.207 0 4.829-.766 6.397-1.508 1.303-.617 2.549-1.2 4.803-1.32v3.977zm-11.2-2.879c-2.823 0-4.203-.653-5.664-1.345-.645-.306-1.308-.614-2.08-.873v-19.48c.034-.008.062-.018.096-.027 3.13-.799 4.822-.547 6.61-.281.61.091 1.231.178 1.904.231v21.75c-.275.014-.558.025-.866.025zm2.588-28.592c.387.738.778 1.477 1.164 2.214l1.332 2.545a15.31 15.31 0 0 1-2.497.351v-5.11zm8.612-4.26v2.323c-.615-.5-1.25-.94-1.9-1.322a4.856 4.856 0 0 0 1.9-1.001zm1.722-4.911c2.271 1.182 4.705 2.685 7.005 4.754 6.185 5.561 8.012 10.848 7.698 13.688-.108.983-.478 1.698-1.041 2.013-2.257 1.27-4.36-.994-9.31-6.693a271.532 271.532 0 0 0-4.304-4.87c-.015-.018-.032-.032-.048-.05zm-10.334-3.369v-2.309c.462.628 1.21 1.311 2.422 1.982.09.05.206.099.3.149zm8.612-16.679c-1.624.179-3.273.333-4.911.486-1.247.116-2.485.232-3.7.36V10.293h8.61zm7.589-12.711H81.64V1.73h5.867zm-85.785 0V1.73H7.59v6.833Zm16.2 1.73v58.79c-1.046.01-1.918-.112-2.815-.238-1.584-.223-3.221-.447-5.796-.011V10.293Zm-12.72 64.78a1.852 1.852 0 0 1-.436-1.472c.144-1.127 1.458-2.094 2.824-2.585v5.132c-1.075-.151-1.912-.514-2.389-1.075zm-3.48 44.364H7.59v6.833H1.722zm78.196 0v6.833h-8.612v-6.833zm-10.334 6.833h-8.61v-6.833h8.61zm-10.333 0h-8.61v-6.833h8.61zm-10.332 0h-8.61v-6.833h8.61zm-10.333 0h-8.61v-6.833h8.61zm-10.332 0h-8.61v-6.833h8.61zm-10.333 0h-8.61v-6.833h8.61zm69.586-6.833v6.833H81.64v-6.833Zm-78.196-1.73v-5.48c2.252.12 3.496.704 4.796 1.319 1.566.742 3.187 1.508 6.392 1.508 3.205 0 4.825-.766 6.391-1.508 1.46-.691 2.839-1.344 5.66-1.344 2.82 0 4.2.653 5.661 1.344 1.567.742 3.187 1.508 6.394 1.508 3.206 0 4.826-.766 6.393-1.508 1.46-.691 2.839-1.344 5.66-1.344 2.822 0 4.202.653 5.663 1.344 1.567.742 3.188 1.508 6.397 1.508 3.207 0 4.828-.766 6.397-1.508 1.303-.615 2.549-1.199 4.803-1.319v5.48zm70.607-41.45c-2.643.126-4.118.81-5.536 1.483-.927.439-1.824.86-3.076 1.112V57.338c.945-.042 2.03-.188 3.332-.5 1.727 3.262 3.462 6.433 5.28 9.432zm45.096 9.153c-4.035 4.14-17.073 5.013-30.093-4.226-8.936-6.34-14.76-17.484-20.927-29.282-.73-1.399-1.463-2.801-2.204-4.2.34-.211.76-.284 1.1-.304 1.77-.11 4.907 1.097 7.527 3.98 1.617 1.779 3.026 3.403 4.277 4.843 5.076 5.845 7.872 9.064 11.444 7.067 1.063-.595 1.743-1.779 1.915-3.334.376-3.404-1.596-9.177-8.262-15.17-4.214-3.79-8.788-5.778-12.129-7.232-1.23-.534-2.291-.997-3.107-1.447-1.84-1.014-2.165-1.899-2.22-2.233a.782.782 0 0 1 .07-.514c2.174-.53 19.548-.234 32.1 16.994a.86.86 0 0 0 1.203.187.869.869 0 0 0 .187-1.21c-5.053-6.935-10.808-11.163-16.02-13.752 13.295.917 21.494 13.704 21.582 13.846a.86.86 0 0 0 1.188.27.868.868 0 0 0 .27-1.193c-.063-.1-3.957-6.185-10.76-10.5 2.672.412 6.651 2.028 12.263 7.735 12.708 12.928 13.124 37.083 10.596 39.675z" style="stroke-width:1.42596877"/></svg>