<svg xmlns="http://www.w3.org/2000/svg" viewBox="0 0 1200 1200">
  <path d="M992.67 690.34c-7.74 12.34-16.1 23.6-24.37 34.84 43.98 18.51 71.48 41.88 71.48 67.5 0 59.37-140.77 107.58-314.38 107.58-173.59 0-314.38-48.2-314.38-107.58 0-50.86 103.68-93.28 242.51-104.45.07-11.96.24-23.9 1.48-36.65-177.02 8.28-311.88 53.6-311.88 193.13-.02 156.73 169.6 328.3 378.66 328.3 209.07 0 378.6-171.56 378.6-328.3-.01-77.02-41.26-125.15-107.73-154.37z"/>
  <path d="m710.48 875.18 50.16-80.39c4.05-7.97-9.84-6.17-22.5-12.57-12.66-6.48-19.3-18.74-23.28-10.86L679.47 862c-4.38 8.66 21.64 31.63 31.01 13.18zm26.32-216.16c-48.35-60.4-20.54-102.35-20.54-102.35-15.94 11.69-69.15 157.74-3.83 191.18 29.37 14.83 78.67-21.1 24.37-88.84z"/>
  <path d="M786.34 561.82c-48.36-60.31-20.39-102.34-20.39-102.34-16.02 11.72-69.37 157.77-3.9 191.17 29.3 15 78.57-20.9 24.29-88.84z"/>
  <path d="M834.46 467.61c-48.45-60.2-20.55-102.3-20.55-102.3-15.86 11.64-69.22 157.62-3.82 191.14 29.3 14.83 78.51-20.99 24.37-88.84zm-51.64 316.1c65.47 33.35 152.43-95.56 152.58-115.25 0 0-17.73 47.04-94.92 43.44-86.8-4.21-86.88 56.87-57.66 71.8z"/>
  <path d="M832.35 686.51c65.39 33.45 152.5-95.5 152.66-115.31 0 0-17.8 47.27-94.92 43.52-86.88-4.06-87.04 56.87-57.74 71.79z"/>
  <path d="M880.48 592.25c65.46 33.43 152.41-95.5 152.5-115.23 0 0-17.66 47.34-94.77 43.44-86.94-4.1-87.03 56.8-57.73 71.8z"/>
  <path d="M887.12 503.7c69.46 35.39 71.65-149.88 71.65-149.88-15.93 9.45-141.1 114.48-71.65 149.88zm-515.87-12.48a379.78 379.78 0 0 1-42.96 90.93c-45.57 78.93-158.71 60.9-237.65 15.32a50.53 50.53 0 0 1-14.24-11.65 179.82 179.82 0 0 0-47.57-43.1L-3.25 529l2.46-169.06 146.57 21.51a165.12 165.12 0 0 1 164.97-.08l84.37 48.71a34.18 34.18 0 0 1 16.68 38.8 33.02 33.02 0 0 1-40.55 22.35zM309.1 301.66l-19.9 34.46a202.77 202.77 0 0 1 38.06 16.64l50.05 28.9 17.59-30.46c23.17 3.46 108.25 10.64 150.77-63a246.52 246.52 0 0 0 21.93-178.01s-77 203.4-152.66 159.71l-45.47-26.25c-75.65-43.67 62-212.07 62-212.07a246.52 246.52 0 0 0-143.2 108c-42.51 73.64 6.25 143.74 20.83 162.07zm-198.14 343.2L85.1 689.6a49.54 49.54 0 1 0 85.8 49.54l40.54-70.21a297.22 297.22 0 0 1-100.33-24.37Z"/>
</svg>
