<?xml version="1.0" encoding="UTF-8" standalone="no"?>
<svg
   xmlns:dc="http://purl.org/dc/elements/1.1/"
   xmlns:cc="http://creativecommons.org/ns#"
   xmlns:rdf="http://www.w3.org/1999/02/22-rdf-syntax-ns#"
   xmlns:svg="http://www.w3.org/2000/svg"
   xmlns="http://www.w3.org/2000/svg"
   xmlns:sodipodi="http://sodipodi.sourceforge.net/DTD/sodipodi-0.dtd"
   xmlns:inkscape="http://www.inkscape.org/namespaces/inkscape"
   viewBox="0 0 54.891304 90.000038"
   version="1.1"
   x="0px"
   y="0px"
   id="svg10"
   sodipodi:docname="maize.svg"
   width="54.891304"
   height="90.000038"
   inkscape:version="0.92.2 (5c3e80d, 2017-08-06)">
  <metadata
     id="metadata16">
    <rdf:RDF>
      <cc:Work
         rdf:about="">
        <dc:format>image/svg+xml</dc:format>
        <dc:type
           rdf:resource="http://purl.org/dc/dcmitype/StillImage" />
        <dc:title></dc:title>
      </cc:Work>
    </rdf:RDF>
  </metadata>
  <defs
     id="defs14" />
  <sodipodi:namedview
     pagecolor="#ffffff"
     bordercolor="#666666"
     borderopacity="1"
     objecttolerance="10"
     gridtolerance="10"
     guidetolerance="10"
     inkscape:pageopacity="0"
     inkscape:pageshadow="2"
     inkscape:window-width="750"
     inkscape:window-height="480"
     id="namedview12"
     showgrid="false"
     fit-margin-top="0"
     fit-margin-left="0"
     fit-margin-right="0"
     fit-margin-bottom="0"
     inkscape:zoom="1.888"
     inkscape:cx="-32.935703"
     inkscape:cy="32.50004"
     inkscape:window-x="0"
     inkscape:window-y="0"
     inkscape:window-maximized="0"
     inkscape:current-layer="svg10" />
  <g
     transform="translate(-22.554347,-957.36216)"
     id="g4">
    <path
       style="color:#000000;font-style:normal;font-variant:normal;font-weight:normal;font-stretch:normal;font-size:medium;line-height:normal;font-family:sans-serif;text-indent:0;text-align:start;text-decoration:none;text-decoration-line:none;text-decoration-style:solid;text-decoration-color:#000000;letter-spacing:normal;word-spacing:normal;text-transform:none;writing-mode:lr-tb;direction:ltr;baseline-shift:baseline;text-anchor:start;white-space:normal;clip-rule:nonzero;display:inline;overflow:visible;visibility:visible;opacity:1;isolation:auto;mix-blend-mode:normal;color-interpolation:sRGB;color-interpolation-filters:linearRGB;solid-color:#000000;solid-opacity:1;fill:#000000;fill-opacity:1;fill-rule:nonzero;stroke:none;stroke-width:8;stroke-linecap:round;stroke-linejoin:round;stroke-miterlimit:4;stroke-dasharray:none;stroke-dashoffset:288.50640869;stroke-opacity:1;color-rendering:auto;image-rendering:auto;shape-rendering:auto;text-rendering:auto;enable-background:accumulate"
       d="m 50.019546,957.36216 c -3.059405,0 -5.801673,1.3631 -8.040601,3.6581 -2.238958,2.295 -4.03983,5.5074 -5.482137,9.4047 -2.884644,7.7944 -4.332141,18.3736 -4.332141,30.04324 0,2.5345 0.09309,5.0126 0.26202,7.4259 -3.229492,-1.6489 -6.596564,-3.0504 -9.87234,-4.7032 6.782918,27.393 10.538846,44.1713 25.910927,44.1713 h 3.069451 c 0,-24.2512 -7.431245,-32.7974 -16.56378,-38.0874 -0.245023,-2.8376 -0.378203,-5.7824 -0.378203,-8.8066 0,-11.46664 1.454963,-21.83354 4.181569,-29.20094 1.363274,-3.6837 3.045535,-6.6063 4.94268,-8.551 1.897146,-1.9447 3.943589,-2.926 6.302555,-2.926 2.358965,0 4.406015,0.9813 6.30316,2.926 1.897146,1.9447 3.579407,4.8673 4.942711,8.551 2.726576,7.3674 4.180963,17.7343 4.180963,29.20094 0,3.0149 -0.13233,5.951 -0.375836,8.7804 -5.74607,3.3216 -10.822172,7.9242 -13.804334,16.9023 1.708636,5.4801 2.683964,12.3435 2.695406,21.0578 13.364579,-1.7234 17.073463,-18.128 23.484036,-44.0172 -3.261784,1.6458 -6.614803,3.0409 -9.831426,4.6813 0.167931,-2.4066 0.260228,-4.8776 0.260228,-7.4046 0,-11.66964 -1.447497,-22.24884 -4.33214,-30.04324 -1.442307,-3.8973 -3.242603,-7.1097 -5.481531,-9.4047 -2.238958,-2.295 -4.981863,-3.6581 -8.041237,-3.6581 z m -3.361124,5.4875 a 1.7141248,1.7141248 0 0 0 -1.713766,1.7137 1.7141248,1.7141248 0 0 0 1.713766,1.7144 1.7141248,1.7141248 0 0 0 1.714373,-1.7144 1.7141248,1.7141248 0 0 0 -1.714373,-1.7137 z m 6.070187,0 a 1.7141248,1.7141248 0 0 0 -1.713765,1.7137 1.7141248,1.7141248 0 0 0 1.713765,1.7144 1.7141248,1.7141248 0 0 0 1.714373,-1.7144 1.7141248,1.7141248 0 0 0 -1.714373,-1.7137 z m -9.10528,6.0702 a 1.7141248,1.7141248 0 0 0 -1.713765,1.7137 1.7141248,1.7141248 0 0 0 1.713765,1.7144 1.7141248,1.7141248 0 0 0 1.714373,-1.7144 1.7141248,1.7141248 0 0 0 -1.714373,-1.7137 z m 6.070187,0 a 1.7141248,1.7141248 0 0 0 -1.713766,1.7137 1.7141248,1.7141248 0 0 0 1.713766,1.7144 1.7141248,1.7141248 0 0 0 1.714372,-1.7144 1.7141248,1.7141248 0 0 0 -1.714372,-1.7137 z m 6.070187,0 a 1.7141248,1.7141248 0 0 0 -1.713766,1.7137 1.7141248,1.7141248 0 0 0 1.713766,1.7144 1.7141248,1.7141248 0 0 0 1.714372,-1.7144 1.7141248,1.7141248 0 0 0 -1.714372,-1.7137 z m -15.175468,6.0701 a 1.7141248,1.7141248 0 0 0 -1.713765,1.7138 1.7141248,1.7141248 0 0 0 1.713766,1.7144 1.7141248,1.7141248 0 0 0 1.714373,-1.7144 1.7141248,1.7141248 0 0 0 -1.714374,-1.7138 z m 6.070187,0 a 1.7141248,1.7141248 0 0 0 -1.713766,1.7138 1.7141248,1.7141248 0 0 0 1.713766,1.7144 1.7141248,1.7141248 0 0 0 1.714373,-1.7144 1.7141248,1.7141248 0 0 0 -1.714373,-1.7138 z m 6.070187,0 a 1.7141248,1.7141248 0 0 0 -1.713765,1.7138 1.7141248,1.7141248 0 0 0 1.713765,1.7144 1.7141248,1.7141248 0 0 0 1.714373,-1.7144 1.7141248,1.7141248 0 0 0 -1.714373,-1.7138 z m 6.070187,0 a 1.7141248,1.7141248 0 0 0 -1.713765,1.7138 1.7141248,1.7141248 0 0 0 1.713765,1.7144 1.7141248,1.7141248 0 0 0 1.714373,-1.7144 1.7141248,1.7141248 0 0 0 -1.714373,-1.7138 z m -20.638635,6.0702 a 1.7141248,1.7141248 0 0 0 -1.713765,1.7138 1.7141248,1.7141248 0 0 0 1.713765,1.7144 1.7141248,1.7141248 0 0 0 1.714372,-1.7144 1.7141248,1.7141248 0 0 0 -1.714372,-1.7138 z m 5.463168,0 a 1.7141248,1.7141248 0 0 0 -1.713765,1.7138 1.7141248,1.7141248 0 0 0 1.713765,1.7144 1.7141248,1.7141248 0 0 0 1.714373,-1.7144 1.7141248,1.7141248 0 0 0 -1.714373,-1.7138 z m 6.070187,0 a 1.7141248,1.7141248 0 0 0 -1.713766,1.7138 1.7141248,1.7141248 0 0 0 1.713766,1.7144 1.7141248,1.7141248 0 0 0 1.714372,-1.7144 1.7141248,1.7141248 0 0 0 -1.714372,-1.7138 z m 6.070187,0 a 1.7141248,1.7141248 0 0 0 -1.713766,1.7138 1.7141248,1.7141248 0 0 0 1.713766,1.7144 1.7141248,1.7141248 0 0 0 1.714372,-1.7144 1.7141248,1.7141248 0 0 0 -1.714372,-1.7138 z m 5.463168,0 a 1.7141248,1.7141248 0 0 0 -1.713765,1.7138 1.7141248,1.7141248 0 0 0 1.713765,1.7144 1.7141248,1.7141248 0 0 0 1.714373,-1.7144 1.7141248,1.7141248 0 0 0 -1.714373,-1.7138 z m -20.638636,6.0702 a 1.7141248,1.7141248 0 0 0 -1.713765,1.7138 1.7141248,1.7141248 0 0 0 1.713766,1.7143 1.7141248,1.7141248 0 0 0 1.714373,-1.7143 1.7141248,1.7141248 0 0 0 -1.714374,-1.7138 z m 6.070187,0 a 1.7141248,1.7141248 0 0 0 -1.713766,1.7138 1.7141248,1.7141248 0 0 0 1.713766,1.7143 1.7141248,1.7141248 0 0 0 1.714373,-1.7143 1.7141248,1.7141248 0 0 0 -1.714373,-1.7138 z m 6.070187,0 a 1.7141248,1.7141248 0 0 0 -1.713765,1.7138 1.7141248,1.7141248 0 0 0 1.713765,1.7143 1.7141248,1.7141248 0 0 0 1.714373,-1.7143 1.7141248,1.7141248 0 0 0 -1.714373,-1.7138 z m 6.070187,0 a 1.7141248,1.7141248 0 0 0 -1.713765,1.7138 1.7141248,1.7141248 0 0 0 1.713765,1.7143 1.7141248,1.7141248 0 0 0 1.714373,-1.7143 1.7141248,1.7141248 0 0 0 -1.714373,-1.7138 z m -21.245654,6.0702 a 1.7141248,1.7141248 0 0 0 -1.713766,1.7138 1.7141248,1.7141248 0 0 0 1.713766,1.7143 1.7141248,1.7141248 0 0 0 1.714373,-1.7143 1.7141248,1.7141248 0 0 0 -1.714373,-1.7138 z m 6.070187,0 a 1.7141248,1.7141248 0 0 0 -1.713765,1.7138 1.7141248,1.7141248 0 0 0 1.713765,1.7143 1.7141248,1.7141248 0 0 0 1.714373,-1.7143 1.7141248,1.7141248 0 0 0 -1.714373,-1.7138 z m 6.070187,0 a 1.7141248,1.7141248 0 0 0 -1.713766,1.7138 1.7141248,1.7141248 0 0 0 1.713766,1.7143 1.7141248,1.7141248 0 0 0 1.714372,-1.7143 1.7141248,1.7141248 0 0 0 -1.714372,-1.7138 z m 6.070187,0 a 1.7141248,1.7141248 0 0 0 -1.713766,1.7138 1.7141248,1.7141248 0 0 0 1.713766,1.7143 1.7141248,1.7141248 0 0 0 1.714372,-1.7143 1.7141248,1.7141248 0 0 0 -1.714372,-1.7138 z m 6.070187,0 a 1.7141248,1.7141248 0 0 0 -1.713766,1.7138 1.7141248,1.7141248 0 0 0 1.713766,1.7143 1.7141248,1.7141248 0 0 0 1.714373,-1.7143 1.7141248,1.7141248 0 0 0 -1.714373,-1.7138 z m -21.245655,6.0702 a 1.7141248,1.7141248 0 0 0 -1.713765,1.71374 1.7141248,1.7141248 0 0 0 1.713766,1.7144 1.7141248,1.7141248 0 0 0 1.714373,-1.7144 1.7141248,1.7141248 0 0 0 -1.714374,-1.71374 z m 6.070187,0 a 1.7141248,1.7141248 0 0 0 -1.713766,1.71374 1.7141248,1.7141248 0 0 0 1.713766,1.7144 1.7141248,1.7141248 0 0 0 1.714373,-1.7144 1.7141248,1.7141248 0 0 0 -1.714373,-1.71374 z m 6.070187,0 a 1.7141248,1.7141248 0 0 0 -1.713765,1.71374 1.7141248,1.7141248 0 0 0 1.713765,1.7144 1.7141248,1.7141248 0 0 0 1.714373,-1.7144 1.7141248,1.7141248 0 0 0 -1.714373,-1.71374 z m 6.070187,0 a 1.7141248,1.7141248 0 0 0 -1.713765,1.71374 1.7141248,1.7141248 0 0 0 1.713765,1.7144 1.7141248,1.7141248 0 0 0 1.714373,-1.7144 1.7141248,1.7141248 0 0 0 -1.714373,-1.71374 z m -21.245654,6.07024 a 1.7141248,1.7141248 0 0 0 -1.713766,1.7137 1.7141248,1.7141248 0 0 0 1.713766,1.7144 1.7141248,1.7141248 0 0 0 1.714373,-1.7144 1.7141248,1.7141248 0 0 0 -1.714373,-1.7137 z m 6.070187,0 a 1.7141248,1.7141248 0 0 0 -1.713765,1.7137 1.7141248,1.7141248 0 0 0 1.713765,1.7144 1.7141248,1.7141248 0 0 0 1.714373,-1.7144 1.7141248,1.7141248 0 0 0 -1.714373,-1.7137 z m 6.070187,0 a 1.7141248,1.7141248 0 0 0 -1.713766,1.7137 1.7141248,1.7141248 0 0 0 1.713766,1.7144 1.7141248,1.7141248 0 0 0 1.714372,-1.7144 1.7141248,1.7141248 0 0 0 -1.714372,-1.7137 z m 6.070187,0 a 1.7141248,1.7141248 0 0 0 -1.713766,1.7137 1.7141248,1.7141248 0 0 0 1.713766,1.7144 1.7141248,1.7141248 0 0 0 1.714372,-1.7144 1.7141248,1.7141248 0 0 0 -1.714372,-1.7137 z m 6.070187,0 a 1.7141248,1.7141248 0 0 0 -1.713766,1.7137 1.7141248,1.7141248 0 0 0 1.713766,1.7144 1.7141248,1.7141248 0 0 0 1.714373,-1.7144 1.7141248,1.7141248 0 0 0 -1.714373,-1.7137 z m 4.573401,3.1643 c -0.03727,0.02 -0.07482,0.04 -0.112057,0.06 0.03727,-0.02 0.07475,-0.04 0.112057,-0.06 z m -19.748869,2.9059 a 1.7141248,1.7141248 0 0 0 -1.713766,1.7137 1.7141248,1.7141248 0 0 0 1.713766,1.7144 1.7141248,1.7141248 0 0 0 1.714373,-1.7144 1.7141248,1.7141248 0 0 0 -1.714373,-1.7137 z m 6.070187,0 a 1.7141248,1.7141248 0 0 0 -1.713765,1.7137 1.7141248,1.7141248 0 0 0 1.713765,1.7144 1.7141248,1.7141248 0 0 0 1.714373,-1.7144 1.7141248,1.7141248 0 0 0 -1.714373,-1.7137 z m -3.035093,6.0701 a 1.7141248,1.7141248 0 0 0 -1.713766,1.7138 1.7141248,1.7141248 0 0 0 1.713766,1.7144 1.7141248,1.7141248 0 0 0 1.714372,-1.7144 1.7141248,1.7141248 0 0 0 -1.714372,-1.7138 z"
       id="path2"
       inkscape:connector-curvature="0" />
  </g>
</svg>
