<?xml version="1.0" encoding="UTF-8" standalone="no"?>
<svg
   xmlns:dc="http://purl.org/dc/elements/1.1/"
   xmlns:cc="http://creativecommons.org/ns#"
   xmlns:rdf="http://www.w3.org/1999/02/22-rdf-syntax-ns#"
   xmlns:svg="http://www.w3.org/2000/svg"
   xmlns="http://www.w3.org/2000/svg"
   xmlns:sodipodi="http://sodipodi.sourceforge.net/DTD/sodipodi-0.dtd"
   xmlns:inkscape="http://www.inkscape.org/namespaces/inkscape"
   version="1.1"
   x="0px"
   y="0px"
   viewBox="0 0 86.95842 20.177038"
   xml:space="preserve"
   id="svg308"
   sodipodi:docname="other.svg"
   width="86.95842"
   height="20.177038"
   inkscape:version="0.92.3 (2405546, 2018-03-11)"><metadata
     id="metadata314"><rdf:RDF><cc:Work
         rdf:about=""><dc:format>image/svg+xml</dc:format><dc:type
           rdf:resource="http://purl.org/dc/dcmitype/StillImage" /><dc:title></dc:title></cc:Work></rdf:RDF></metadata><defs
     id="defs312" /><sodipodi:namedview
     pagecolor="#ffffff"
     bordercolor="#666666"
     borderopacity="1"
     objecttolerance="10"
     gridtolerance="10"
     guidetolerance="10"
     inkscape:pageopacity="0"
     inkscape:pageshadow="2"
     inkscape:window-width="684"
     inkscape:window-height="480"
     id="namedview310"
     showgrid="false"
     fit-margin-top="0"
     fit-margin-left="0"
     fit-margin-right="0"
     fit-margin-bottom="0"
     inkscape:zoom="1.888"
     inkscape:cx="59.869934"
     inkscape:cy="-2.4287969"
     inkscape:window-x="0"
     inkscape:window-y="0"
     inkscape:window-maximized="0"
     inkscape:current-layer="svg308" /><style
     type="text/css"
     id="style2">
	.st0{display:none;}
	.st1{display:inline;}
</style><g
     class="st0"
     id="g134"
     style="display:none"
     transform="translate(-6.5495577,-39.894165)"><path
       class="st1"
       d="m 489.7,-101.5 c 0,-0.4 -0.1,-0.8 -0.4,-1.1 -1.5,-2.3 -3.2,-4.4 -4.9,-6.6 2,-3.6 3.2,-7.7 3.3,-12.7 0.2,-8.5 -3,-16.3 -11.3,-19.3 -3.5,-1.3 -4.3,4.3 -1.1,5.5 7.9,3 8.4,13.4 5.2,21.9 -0.3,-0.3 -0.6,-0.7 -0.8,-1 0,-0.1 0,-0.1 0,-0.2 0,0 0,-0.1 0,-0.1 -0.1,-1.5 -1.2,-3.1 -3.3,-2.6 -7.6,1.5 -15.8,0.1 -23.5,1 -0.8,0.1 -1.2,0.6 -1.3,1.2 -11.1,11.4 -23.8,21.4 -35.2,32.5 -1.4,0.7 -2.4,2.7 -0.6,4.3 4.7,4.3 8.1,10.1 12.1,15.1 4,5 7.8,10.3 11.7,15.5 0.2,0.2 0.4,0.4 0.6,0.6 0.7,0.6 1.6,1 2.6,0.4 14.5,-8.1 26.6,-19.7 40.6,-28.5 1.5,-1 1.4,-2.7 0.5,-3.8 0.9,-2.4 1.7,-4.9 2.5,-7.3 1.2,-3.6 2.1,-8.3 4.1,-11.5 0.9,-1.4 0.3,-2.6 -0.8,-3.3 z m -7.6,13.1 c -1,3.1 -2,6.1 -2.8,9.2 -11.1,10.5 -25,18 -37.4,26.8 -3.6,-4.6 -7.2,-9.1 -10.7,-13.7 -3.5,-4.5 -7.6,-9.1 -10.6,-14.1 10.7,-11 22.1,-23 34.8,-31.6 0.2,-0.2 0.4,-0.3 0.6,-0.5 6.7,0.1 13.7,-1.3 20.3,-0.3 0.1,0.1 0.2,0.1 0.3,0.2 0,0 0,0 0,0 0.7,0.9 1.3,1.9 2,2.8 -0.9,1.5 -1.8,2.9 -2.9,4.1 -0.5,-0.4 -1.1,-0.8 -1.6,-1 -1.1,-0.5 -2.2,-0.7 -3.4,-0.8 -2.2,-0.3 -4.7,0 -6.3,1.7 -3.3,3.5 -1.8,8.9 1.5,11.7 3.6,3.1 9.9,3.7 13.3,-0.1 2.3,-2.5 2.5,-6.4 0.7,-9 0.6,-0.7 1.2,-1.5 1.8,-2.2 1.2,1.7 2.5,3.5 3.9,5.1 -0.2,3.9 -2.4,8 -3.5,11.7 z m -6.6,-9.9 c 0.2,-0.2 0.4,-0.4 0.6,-0.6 -0.1,0.6 -0.6,1.2 -1.4,1.7 -1.8,1.1 -4.5,0.6 -6.1,-0.6 -1.4,-1.1 -2.1,-3.1 -0.7,-4.5 0.8,-0.7 2.1,-0.9 3.1,-0.7 0.2,0 0.7,0.2 1.2,0.3 -0.1,0 -0.1,0.1 -0.2,0.1 -3,1.6 0.6,7.1 3.5,4.3 z"
       id="path4"
       inkscape:connector-curvature="0"
       style="display:inline" /><path
       class="st1"
       d="m 1633.9,-195.5 c 9.9,-15.6 11.5,-41.4 1,-57.1 -10.9,-16.2 -29.3,-18 -47,-15.6 -0.1,0 -0.2,0 -0.3,-0.1 -1.6,-0.2 -2.5,0.7 -2.8,1.7 0,0.1 0,0.1 0,0.2 0,0.1 0,0.1 0,0.2 0,0.1 0,0.3 0,0.4 0,0 0,0.1 0,0.1 0,0.1 0,0.2 0,0.3 0.1,0.8 0.6,1.5 1.3,1.8 0.6,0.4 1.4,0.5 2.4,0.2 0.1,0 0.3,-0.1 0.4,-0.1 13.6,-1.5 21,14.1 21.4,25.3 0.3,6.8 -1.3,13.3 -5,19.1 -10.1,15.8 -30.8,17.6 -43.5,4 -2.5,-2.6 -7.1,0.2 -5.3,3.2 -0.1,0.3 -0.1,0.7 0,1.1 6.9,37.2 56.9,47.7 77.4,15.3 z m -69.4,-9.5 c 15.2,9.3 36.1,4.7 45.9,-11.7 10.6,-17.7 4.8,-40.1 -12.2,-48.4 16.9,-1.1 33.1,9 37,26.8 2.8,12.9 0.3,30.2 -7.3,41 -17.7,25.4 -52.2,17.3 -63.4,-7.7 z"
       id="path6"
       inkscape:connector-curvature="0"
       style="display:inline" /><path
       class="st1"
       d="m 1924.8,-262.6 c -0.2,-1 -0.9,-1.9 -2,-2.3 -21.6,-7 -44.2,-6.8 -64.1,5.6 -14.7,9.2 -27.7,27.8 -15,44.1 0.1,0.1 0.1,0.1 0.2,0.2 0.1,0.1 0.1,0.1 0.2,0.2 2.2,2 5.5,0.2 4.4,-2.6 4,-3.9 8.4,-7.3 13.1,-10.2 -14.1,13.4 -24.7,32 -28.7,49.5 -0.4,1.9 2.7,3.7 3.5,1.6 3.2,-8.9 6.7,-17.7 11.5,-25.8 13.8,7.4 28.2,8.1 40.8,-2.9 15.8,-13.8 11.8,-50 34.4,-53.4 2,-0.5 2.4,-2.4 1.7,-4 z m -24.8,20.1 c -2.7,7.8 -3.7,16.2 -7.9,23.4 -7.9,13.4 -26.8,22.9 -41.2,12 1.2,-1.7 2.4,-3.4 3.7,-5 8.6,-10.5 19.3,-17.9 30.1,-26 1.2,-0.9 1,-2.2 0.3,-3.1 -0.5,-0.8 -1.3,-1.4 -2.4,-1.2 -14.1,3 -26.1,11 -35.7,21.5 -9,-19.3 13.2,-34.6 29.5,-39.9 12.1,-3.9 25.1,-4.3 37.4,-1.1 -6.9,4.1 -10.9,11 -13.8,19.4 z"
       id="path8"
       inkscape:connector-curvature="0"
       style="display:inline" /><g
       class="st1"
       id="g14"
       style="display:inline"><path
         d="m 1178.9,-130.9 c -4.2,10.8 -6.9,22.1 -10,33.3 -0.5,-0.1 -1,-0.1 -1.5,-0.3 -4.8,-1.7 -5.9,7.2 -0.6,7.4 -1.3,4.3 -2.8,8.6 -4.4,12.8 -2.1,5.1 6.4,7.9 6.8,2.9 0.5,-5.2 1.5,-10.5 2.9,-15.7 2.5,0.3 5,0.8 7.1,0.9 2.1,0.1 4.2,0.2 6.3,0.2 0.5,4.8 1.2,9.6 2.6,14.2 1.2,4.1 7.1,3.4 7.1,-0.9 0,-17.5 -6.5,-36.8 -10.5,-53.8 -0.5,-2.6 -4.8,-3.8 -5.8,-1 z m -0.1,33.4 c -1.4,0 -3,0.1 -4.7,0.2 2.1,-6.8 4.6,-13.5 7,-20.2 1.3,6.2 2.5,12.4 3.4,18.7 0.1,0.4 0.1,0.8 0.2,1.2 -2,0 -4,0.1 -5.9,0.1 z"
         id="path10"
         inkscape:connector-curvature="0" /><path
         d="m 1249.2,-100.9 c -5.2,-6.9 -13.3,-10 -21.1,-9.3 -0.4,-2.4 -0.8,-4.8 -1.2,-7.3 6.4,-1.3 12.8,-2.6 19,-4.7 4.5,-1.5 2,-8 -2.3,-7.2 -6,1.1 -11.8,2.8 -17.7,4.5 -0.2,-1.9 -0.5,-3.8 -0.7,-5.7 -0.5,-5.3 -8.4,-4.6 -7.1,0.9 0.5,2.2 0.9,4.4 1.4,6.6 -5.4,1.6 -10.8,3 -16.3,3.8 -4.6,0.6 -2.1,8.9 2.3,7.3 4.9,-1.8 10.1,-3.1 15.3,-4.3 0.4,2.4 0.8,4.9 1.2,7.3 -2.9,1 -5.6,2.6 -8,4.7 -9.2,8 -9.6,23.5 3.2,28.1 5.9,2.2 12.1,0.4 16.9,-3.4 5.8,-4.7 6.7,-10.3 8.1,-16.6 5.1,6.8 5.2,17.6 -3.1,24.1 -3.4,2.6 0.3,8.7 3.9,6.2 11.3,-7.8 14.9,-23.5 6.2,-35 z m -29,18.5 c -11.9,-2.7 -4.6,-15.3 2.9,-18.8 0.9,6.1 1.8,12.2 2.9,18.3 -1.8,0.7 -3.7,0.9 -5.8,0.5 z m 12,-5 c -0.8,-5 -1.8,-10 -2.7,-15 2.4,0 4.7,0.5 6.7,1.4 0,0.1 0,0.2 0,0.3 1,4.4 -0.8,9.5 -4,13.3 z"
         id="path12"
         inkscape:connector-curvature="0" /></g><g
       class="st1"
       id="g24"
       style="display:inline"><path
         d="m 1127.2,-248.6 c -0.1,-1.9 -1.8,-3.5 -3.7,-3.6 -26.9,-0.7 -53.9,-0.5 -80.9,-0.4 -1.2,-0.6 -2.7,-0.4 -3.6,0.5 -2.1,1.2 -2.3,4.4 -0.8,6.2 0.2,13.5 -0.4,27 -0.9,40.5 -0.1,1.9 1.8,3.4 3.6,3.5 28.1,0.7 56.4,0.7 84.5,0.5 2.1,0 3.8,-1.9 3.7,-4 -1,-14.4 -1.5,-28.8 -1.9,-43.2 z m -83.3,39.7 c -0.1,-11.8 -0.3,-23.7 0.2,-35.5 25.4,0 50.8,0.1 76.2,-0.5 0.4,11.9 0.7,23.7 0.9,35.6 -25.8,-0.2 -51.6,-0.1 -77.3,0.4 z"
         id="path16"
         inkscape:connector-curvature="0" /><path
         d="m 1064.1,-240.4 c -4.2,-0.7 -7.8,-0.1 -12,0.1 -0.1,0 -0.1,0 -0.2,0 -3.5,-1 -4.3,3.5 -2.7,5.4 -0.5,6.4 -0.9,12.9 -1.1,19.3 0,1.5 1.4,3.3 2.9,3.6 3.4,0.6 6.5,0.6 10,0.1 0.1,0 0.3,-0.1 0.4,-0.1 1.7,0.5 3.5,-0.1 3.9,-2.3 1.2,-7.5 1.8,-15 1.4,-22.6 0,-1.5 -1.1,-3.2 -2.6,-3.5 z"
         id="path18"
         inkscape:connector-curvature="0" /><path
         d="m 1088.7,-240.4 c -4.2,-0.7 -7.8,-0.1 -12,0.1 -0.1,0 -0.1,0 -0.2,0 -3.5,-1 -4.3,3.5 -2.7,5.4 -0.5,6.4 -0.9,12.9 -1.1,19.3 0,1.5 1.4,3.3 2.9,3.6 3.4,0.6 6.5,0.6 10,0.1 0.1,0 0.3,-0.1 0.4,-0.1 1.7,0.5 3.5,-0.1 3.9,-2.3 1.2,-7.5 1.8,-15 1.4,-22.6 0,-1.5 -1.1,-3.2 -2.6,-3.5 z"
         id="path20"
         inkscape:connector-curvature="0" /><path
         d="m 1113.3,-240.4 c -4.2,-0.7 -7.8,-0.1 -12,0.1 -0.1,0 -0.1,0 -0.2,0 -3.5,-1 -4.3,3.5 -2.7,5.4 -0.5,6.4 -0.9,12.9 -1.1,19.3 0,1.5 1.4,3.3 2.9,3.6 3.4,0.6 6.5,0.6 10,0.1 0.1,0 0.3,-0.1 0.4,-0.1 1.7,0.5 3.5,-0.1 3.9,-2.3 1.2,-7.5 1.8,-15 1.4,-22.6 0,-1.5 -1.1,-3.2 -2.6,-3.5 z"
         id="path22"
         inkscape:connector-curvature="0" /></g><g
       class="st1"
       id="g32"
       style="display:inline"><path
         d="m 1244.9,-248.6 c -0.1,-1.9 -1.8,-3.5 -3.7,-3.6 -26.9,-0.7 -53.9,-0.5 -80.9,-0.4 -1.2,-0.6 -2.7,-0.4 -3.6,0.5 -2.1,1.2 -2.3,4.4 -0.8,6.2 0.2,13.5 -0.4,27 -0.9,40.5 -0.1,1.9 1.8,3.4 3.6,3.5 28.1,0.7 56.4,0.7 84.5,0.5 2.1,0 3.8,-1.9 3.7,-4 -1,-14.4 -1.5,-28.8 -1.9,-43.2 z m -83.3,39.7 c -0.1,-11.8 -0.3,-23.7 0.2,-35.5 25.4,0 50.8,0.1 76.2,-0.5 0.4,11.9 0.7,23.7 0.9,35.6 -25.7,-0.2 -51.5,-0.1 -77.3,0.4 z"
         id="path26"
         inkscape:connector-curvature="0" /><path
         d="m 1181.8,-240.4 c -4.2,-0.7 -7.8,-0.1 -12,0.1 -0.1,0 -0.1,0 -0.2,0 -3.5,-1 -4.3,3.5 -2.7,5.4 -0.5,6.4 -0.9,12.9 -1.1,19.3 0,1.5 1.4,3.3 2.9,3.6 3.4,0.6 6.5,0.6 10,0.1 0.1,0 0.3,-0.1 0.4,-0.1 1.7,0.5 3.5,-0.1 3.9,-2.3 1.2,-7.5 1.8,-15 1.4,-22.6 0,-1.5 -1.1,-3.2 -2.6,-3.5 z"
         id="path28"
         inkscape:connector-curvature="0" /><path
         d="m 1206.4,-240.4 c -4.2,-0.7 -7.8,-0.1 -12,0.1 -0.1,0 -0.1,0 -0.2,0 -3.5,-1 -4.3,3.5 -2.7,5.4 -0.5,6.4 -0.9,12.9 -1.1,19.3 0,1.5 1.4,3.3 2.9,3.6 3.4,0.6 6.5,0.6 10,0.1 0.1,0 0.3,-0.1 0.4,-0.1 1.7,0.5 3.5,-0.1 3.9,-2.3 1.2,-7.5 1.8,-15 1.4,-22.6 0,-1.5 -1.1,-3.2 -2.6,-3.5 z"
         id="path30"
         inkscape:connector-curvature="0" /></g><g
       class="st1"
       id="g38"
       style="display:inline"><path
         d="m 1357.7,-248.6 c -0.1,-1.9 -1.8,-3.5 -3.7,-3.6 -26.9,-0.7 -53.9,-0.5 -80.9,-0.4 -1.2,-0.6 -2.7,-0.4 -3.6,0.5 -2.1,1.2 -2.3,4.4 -0.8,6.2 0.2,13.5 -0.4,27 -0.9,40.5 -0.1,1.9 1.8,3.4 3.6,3.5 28.1,0.7 56.4,0.7 84.5,0.5 2.1,0 3.8,-1.9 3.7,-4 -0.9,-14.4 -1.4,-28.8 -1.9,-43.2 z m -83.2,39.7 c -0.1,-11.8 -0.3,-23.7 0.2,-35.5 25.4,0 50.8,0.1 76.2,-0.5 0.4,11.9 0.7,23.7 0.9,35.6 -25.8,-0.2 -51.6,-0.1 -77.3,0.4 z"
         id="path34"
         inkscape:connector-curvature="0" /><path
         d="m 1294.7,-240.4 c -4.2,-0.7 -7.8,-0.1 -12,0.1 -0.1,0 -0.1,0 -0.2,0 -3.5,-1 -4.3,3.5 -2.7,5.4 -0.5,6.4 -0.9,12.9 -1.1,19.3 0,1.5 1.4,3.3 2.9,3.6 3.4,0.6 6.5,0.6 10,0.1 0.1,0 0.3,-0.1 0.4,-0.1 1.7,0.5 3.5,-0.1 3.9,-2.3 1.2,-7.5 1.8,-15 1.4,-22.6 0,-1.5 -1.2,-3.2 -2.6,-3.5 z"
         id="path36"
         inkscape:connector-curvature="0" /></g><path
       class="st1"
       d="m 1466.7,-248.6 c -0.1,-1.9 -1.8,-3.5 -3.7,-3.6 -26.9,-0.7 -53.9,-0.5 -80.9,-0.4 -1.2,-0.6 -2.7,-0.4 -3.6,0.5 -2.1,1.2 -2.3,4.4 -0.8,6.2 0.2,13.5 -0.4,27 -0.9,40.5 -0.1,1.9 1.8,3.4 3.6,3.5 28.1,0.7 56.4,0.7 84.5,0.5 2.1,0 3.8,-1.9 3.7,-4 -0.9,-14.4 -1.5,-28.8 -1.9,-43.2 z m -83.3,39.7 c -0.1,-11.8 -0.3,-23.7 0.2,-35.5 25.4,0 50.8,0.1 76.2,-0.5 0.4,11.9 0.7,23.7 0.9,35.6 -25.7,-0.2 -51.5,-0.1 -77.3,0.4 z"
       id="path40"
       inkscape:connector-curvature="0"
       style="display:inline" /><path
       class="st1"
       d="m 1536.7,-234.5 c -6.9,-0.9 -13.8,-1.6 -20.7,-2.2 4.7,-11.5 6.9,-23.5 11.3,-35 1.3,-3.4 -4.2,-5.1 -4.4,-1.8 0,0.2 -0.1,0.4 -0.1,0.5 0,0 -0.1,0 -0.1,0.1 -15.1,14.6 -28,32.4 -39.4,50 -0.9,1.4 -0.1,3 1.5,3.2 6.9,0.9 13.8,1.6 20.7,2.2 -4.7,11.5 -6.9,23.5 -11.3,35 -1.3,3.4 4.2,5.1 4.4,1.8 0,-0.2 0.1,-0.4 0.1,-0.5 0,0 0.1,0 0.1,-0.1 15.1,-14.6 28,-32.4 39.4,-50 0.9,-1.3 0.1,-3 -1.5,-3.2 z m -37,46.7 c 2.2,-10.5 6.9,-20.7 10.7,-30.4 0.6,-1.5 -0.7,-3 -2,-3.2 -0.3,-0.3 -0.7,-0.5 -1.2,-0.5 -6.3,-0.6 -12.5,-1 -18.8,-1.3 10.9,-14.5 22.5,-28.6 33.5,-43.1 -2.2,10.5 -6.9,20.7 -10.7,30.4 -0.6,1.5 0.7,3 2,3.2 0.3,0.3 0.7,0.5 1.2,0.5 6.3,0.6 12.5,1 18.8,1.3 -11,14.5 -22.5,28.6 -33.5,43.1 z"
       id="path42"
       inkscape:connector-curvature="0"
       style="display:inline" /><path
       class="st1"
       d="m 696.1,-116 c -8.2,-16.2 -27.1,-19.7 -43.7,-18.6 -17.6,1.2 -35.9,3.1 -42.7,21.8 -6.8,18.7 -4.1,38.6 3.2,56.6 0.1,0.3 0.3,0.5 0.4,0.7 0.3,1 1.2,1.8 2.4,1.5 7.1,-1.7 15.1,-1.3 22.4,-2.3 0.8,-0.1 1.4,-0.5 1.8,-1.1 1.1,0.4 2.4,-0.2 2.3,-1.8 -0.4,-10.3 -6.7,-34.4 6.7,-38.4 9.4,-2.8 15.6,6.6 16.3,14.8 0.7,7.6 -2.3,15.1 -4.9,22.1 -0.3,0.9 -0.2,1.7 0.2,2.4 0.1,0.8 0.5,1.5 1.5,1.7 8.2,1.5 16.8,1.8 25.1,2.9 0.7,0.1 1.3,0 1.8,-0.3 1.5,0.9 3.8,0.6 4.5,-1.6 6.1,-17.6 11.6,-42.7 2.7,-60.4 z M 638,-61.6 c -7.1,0.9 -14.5,3.2 -21.6,3.6 -1.4,-3.3 -2.5,-6.8 -3.4,-10.3 7.9,-1 16.1,-0.7 24.1,-1.3 0.2,2.9 0.6,5.6 0.9,8 0,0 0,0 0,0 z m 15.6,-42 c -16.8,-1.7 -18.4,15.1 -17.2,29.6 -8.1,0.4 -16.4,1.7 -24.5,1.7 -2.3,-11.2 -2,-23.1 1,-34.1 5.5,-20.2 23.5,-21.9 41.6,-22.7 17.1,-0.8 35,4.6 38.8,23.4 2.1,10 1.4,20.7 -0.7,31.1 -3.7,-0.2 -7.5,-0.4 -11.2,-0.4 -3.7,0 -7.9,0.5 -11.6,0.1 1.9,-13.2 -0.4,-27.1 -16.2,-28.7 z m 35.2,44.6 c -0.1,0 -0.2,-0.1 -0.3,-0.1 -7,-1.1 -14.8,-2.1 -22,-1.8 1.1,-3.1 2.1,-6.6 2.8,-10.3 7.1,-1 15.3,0.4 22.5,1.3 -0.9,3.7 -1.9,7.4 -3,10.9 z"
       id="path44"
       inkscape:connector-curvature="0"
       style="display:inline" /><g
       class="st1"
       id="g52"
       style="display:inline"><path
         d="m 806.5,-87.4 c -8.1,9.8 -17.6,18 -26.7,26.8 -7.6,-6.5 -14.8,-13.5 -22.1,-20.2 -1.3,1.8 -2.6,3.5 -3.8,5.3 6.8,7.6 14.5,14.5 22.4,20.8 0.7,0.5 1.4,0.8 2.1,0.8 0.8,0.4 1.6,0.5 2.5,0 11.8,-7.6 21.5,-18.4 31,-28.5 3.1,-3.3 -2.4,-8.5 -5.4,-5 z"
         id="path46"
         inkscape:connector-curvature="0" /><path
         d="m 740.4,-79.9 c 1,-1.8 2.1,-3.5 3.3,-5.1 0.5,-0.7 1,-1.3 1.5,-2 -6.2,-0.5 -12.8,0.3 -18.9,0.5 -3.5,0.1 -2.9,5.2 0.4,5.4 4.4,0.3 9.1,1 13.7,1.2 z"
         id="path48"
         inkscape:connector-curvature="0" /><path
         d="m 810.9,-136.7 c -8.7,14.3 -17.9,28.4 -26.3,42.9 -2.4,-2.5 -5.5,-4.5 -7.9,-6.5 -3.4,-2.7 -6.9,-5.2 -10.6,-7.5 -1.7,-1.1 -3.3,0.1 -3.6,1.7 -13.8,17.1 -25.4,37.3 -35.6,56.7 -1.5,2.9 2.9,5.6 4.7,2.7 11.4,-18.1 23.8,-35.7 34.8,-54 2.3,2.1 4.7,4.1 7.1,6.1 2.9,2.4 5.6,5.9 8.9,7.8 1,1.4 3,2.2 4.1,0.6 10.8,-15.3 20.4,-31.4 30.6,-47.1 2.4,-3.7 -3.8,-7.3 -6.2,-3.4 z"
         id="path50"
         inkscape:connector-curvature="0" /></g><g
       class="st1"
       id="g58"
       style="display:inline"><path
         d="m 913.7,-123.8 c -0.1,-0.2 -0.3,-0.4 -0.5,-0.5 -0.1,-0.1 -0.2,-0.1 -0.3,-0.2 -0.5,-0.4 -1,-0.9 -1.5,-1.3 -0.5,-0.4 -1,-0.6 -1.5,-0.6 -7.4,-4.6 -15.5,-7.5 -23.6,-8.4 0,0.1 0,0.2 0,0.3 -1.3,-0.1 -2.7,0.6 -2.7,2.4 -0.5,14.7 0.3,29.4 0,44.1 -15.1,-0.5 -30.3,1 -45.3,0 -2.5,-0.2 -2.8,3.1 -1.5,4.5 1.1,9.1 5.6,17.6 14.7,24.3 20.3,15.1 46.6,14.6 63.1,-5.3 14.5,-17.2 16.1,-43.5 -0.9,-59.3 z m -5.3,56.4 c -13.9,15.4 -33.8,15.5 -50.9,4.9 -8.5,-5.2 -12.9,-12.5 -14.4,-20.3 13.8,-0.5 27.9,0.8 41.7,0.2 0.2,0 0.3,-0.1 0.4,-0.1 1.5,0.5 3.4,-0.2 3.4,-2.3 0,-0.2 0,-0.3 0,-0.5 0,-0.1 0,-0.2 0,-0.3 -0.5,-14.4 0.3,-28.8 0,-43.2 6.1,1.1 12.3,3.2 18.3,6.1 0.1,0.5 0.4,0.9 0.8,1.4 16.6,15 15.2,38 0.7,54.1 z"
         id="path54"
         inkscape:connector-curvature="0" /><path
         d="m 836.8,-93.2 c 0.1,0 0.1,0 0,0 0.5,0.9 1.3,1.7 2.6,1.7 12.7,0.3 26.2,1.4 38.8,-0.1 1.5,-0.2 2.1,-1.1 2.2,-2.1 0.1,-0.3 0.2,-0.5 0.2,-0.8 0.4,-12.7 0.2,-25.5 -0.2,-38.2 -0.1,-2.4 -2.7,-3.1 -4.1,-2 -11.1,1.2 -21.6,6.6 -29.3,17.2 -4.8,6.7 -8.1,14 -9.6,21.3 -0.7,0.7 -0.9,1.9 -0.5,2.9 0,0 -0.1,0 -0.1,0.1 z m 16.9,-23.7 c 6.4,-7.6 13.8,-11.4 21.7,-12.6 -0.3,10.8 -0.4,21.6 -0.1,32.3 -10.3,-0.9 -21.1,-0.4 -31.6,0 1.6,-6.9 5,-13.8 10,-19.7 z"
         id="path56"
         inkscape:connector-curvature="0" /></g><g
       class="st1"
       id="g66"
       style="display:inline"><path
         d="m 1031.7,-140.3 c 0,-0.7 -0.3,-1.2 -0.6,-1.7 -0.4,-1.3 -1.6,-2.3 -3.4,-2 -2.4,0.4 -5.6,-0.1 -8.1,-0.1 -2.4,0 -4.8,-0.1 -7.1,0.2 -0.7,0.1 -1.1,0.4 -1.3,0.7 -1.2,0.2 -2.3,1 -2.3,2.7 -0.2,27.3 -0.9,54.6 -0.2,81.9 0.1,2.2 1.8,3.1 3.4,3 5.1,0 10.3,0.5 15.4,0.4 0.8,0 1.4,-0.3 1.9,-0.7 1,-0.1 1.9,-0.7 2,-2.1 2,-26.9 1.6,-55.3 0.3,-82.3 z m -16.9,78.8 c 0.5,-25.6 0,-51.1 -0.2,-76.7 2,0.2 4.1,0.1 6.1,0.1 1.5,0 3.2,-0.2 4.9,-0.2 -1.1,25.1 -1.6,51.5 0.1,76.6 -3.7,-0.1 -7.3,0.1 -10.9,0.2 z"
         id="path60"
         inkscape:connector-curvature="0" /><path
         d="m 997.6,-116.3 c -0.4,-1.3 -1.6,-2.3 -3.4,-2 -2.4,0.4 -5.6,-0.1 -8.1,-0.1 -2.4,0 -4.8,-0.1 -7.1,0.2 -0.7,0.1 -1.1,0.4 -1.3,0.7 -1.2,0.2 -2.3,1 -2.3,2.7 -0.1,17.4 -0.4,34.8 -0.4,52.2 -1.3,1.5 -0.5,4.5 1.6,5 6.3,1.3 13,1 19.4,0.8 2.8,-0.1 3.7,-2.5 3.1,-4.6 0.1,0 0.1,0 0.2,0 0.3,-17.9 -0.2,-35.9 -1,-53.4 -0.1,-0.6 -0.4,-1.1 -0.7,-1.5 z m -6.5,52.1 c -3.2,-0.1 -6.5,0 -9.7,0.2 0,-16.2 -0.3,-32.4 -0.4,-48.6 2,0.2 4.1,0.1 6.1,0.1 1.5,0 3.2,-0.2 4.9,-0.2 -0.7,15.8 -1.1,32.2 -0.9,48.5 z"
         id="path62"
         inkscape:connector-curvature="0" /><path
         d="m 964.6,-89 c 0,-0.7 -0.3,-1.2 -0.6,-1.7 -0.4,-1.3 -1.6,-2.3 -3.4,-2 -2.4,0.4 -5.6,-0.1 -8.1,-0.1 -2.4,0 -4.8,-0.1 -7.1,0.2 -0.7,0.1 -1.1,0.4 -1.3,0.7 -1.2,0.2 -2.3,1 -2.3,2.7 -0.1,9.2 -0.2,18.3 -0.3,27.5 -0.7,1.6 0.2,4.1 2,4.4 6.4,1.1 13.5,0.5 20,0.5 3.2,0 3.7,-3.7 2,-5.6 -0.2,-8.9 -0.5,-17.8 -0.9,-26.6 z m -6.9,25.6 c -3.3,-0.1 -6.7,-0.1 -10,0.1 -0.1,-7.9 -0.2,-15.7 -0.2,-23.6 2,0.2 4.1,0.1 6.1,0.1 1.5,0 3.2,-0.2 4.9,-0.2 -0.4,7.7 -0.7,15.6 -0.8,23.6 z"
         id="path64"
         inkscape:connector-curvature="0" /></g><path
       class="st1"
       d="m 1137.5,-134.7 c 0,-0.5 -0.1,-0.9 -0.3,-1.2 -0.2,-2.1 -3.2,-3.7 -4.6,-1.3 -6.5,11.2 -13.9,21.8 -18.7,33.9 -4.3,-3.5 -8,-7.8 -11.9,-11.7 -0.8,-1.5 -2.9,-2.4 -4,-0.8 -2.7,3.7 -5.9,7 -8.5,10.8 -2.2,3.1 -4.2,6.3 -6.1,9.6 -2.4,-0.8 -4.8,-1.9 -7.1,-2.7 -2.9,-0.9 -5.8,-1.8 -8.8,-2.2 -1.5,-0.2 -2.2,0.7 -2.3,1.8 -0.2,0.2 -0.5,0.4 -0.7,0.8 -5.5,10.4 -11.4,20.7 -17.8,30.7 -0.8,1.2 -0.2,2.4 0.7,3.1 0.4,0.8 1.1,1.4 2.2,1.4 27.8,0.6 55.7,0.4 83.5,0.3 0.6,0 1.1,-0.2 1.4,-0.5 1.3,0.1 2.6,-0.6 2.7,-2.4 1.1,-23.1 0.8,-46.4 0.3,-69.6 z m -84.4,67 c 5.4,-8.7 10.7,-17.5 15.6,-26.5 2.1,0.7 4.3,1.1 6.4,1.7 2.7,0.7 6.2,1.2 8.8,2.4 0.9,0.4 1.7,0.4 2.3,0 0.5,-0.2 1,-0.6 1.4,-1.2 3.5,-6.3 7.4,-13.2 12.2,-18.7 4,4.6 8.7,8.2 13.4,12.2 0.4,0.5 1,0.9 1.6,1 1.7,0.4 3,-1.1 2.7,-2.8 4.8,-9 9.1,-18.4 14.5,-27.1 -0.3,19.6 -0.5,39.3 0.4,58.8 -26.6,-0.1 -53,-0.3 -79.3,0.2 z"
       id="path68"
       inkscape:connector-curvature="0"
       style="display:inline" /><path
       class="st1"
       d="m 1354,-139.2 c -11.2,11.6 -23,22.7 -34.7,33.8 -10.8,-10.8 -21.7,-22.2 -34.1,-30.9 -5.6,-4 -11.7,4 -8.1,9.1 8.5,12.1 19.8,22.7 30.2,33.3 -9.7,9.3 -19.2,18.8 -28.2,28.8 -5.9,6.6 4,16 10.6,10.1 9.8,-8.8 19.2,-18.3 28.4,-27.8 9.7,10 19.9,19.9 31,28 5.8,4.3 12.4,-4.3 8.6,-9.6 -8,-11 -18,-20.9 -27.9,-30.5 11.2,-11.8 22.3,-23.6 34,-34.9 5.8,-5.5 -3.9,-15.4 -9.8,-9.4 z"
       id="path70"
       inkscape:connector-curvature="0"
       style="display:inline" /><path
       class="st1"
       d="m 1482,-66.9 c -15.1,-21.8 -30,-44.6 -42.5,-68.1 -0.6,-1.9 -1.7,-3.5 -3.1,-4.7 -0.1,-0.1 -0.1,-0.1 -0.2,-0.2 -2.8,-2.2 -6.5,-2.5 -9,1.1 -16.8,24.4 -33.6,49.4 -52.4,72.3 -0.8,0.7 -1.3,1.6 -1.6,2.6 -1.9,5.2 4.1,11.2 8.7,8.7 30.1,2.8 61.4,2.1 91.6,1.4 3.1,-0.1 5,-1.6 6.1,-3.6 3.2,-1.6 5.1,-5.5 2.4,-9.5 z m -88.5,-2.3 c 13.6,-17.2 27.2,-34.2 40,-52 10,17.2 20,34.4 30.5,51.3 -23.3,-0.5 -47.1,-0.8 -70.5,0.7 z"
       id="path72"
       inkscape:connector-curvature="0"
       style="display:inline" /><path
       class="st1"
       d="m 1567.8,-123.2 c -0.1,-1 -0.5,-2.1 -1.3,-3 -1.1,-1.3 -2.3,-2.6 -3.5,-3.7 -2.4,-2.6 -5.4,-4.7 -8.8,-6.2 -16.8,-8.9 -38.8,-5.5 -52.8,8.4 -18.1,18 -17.2,48.3 2.4,65 18.4,15.7 48.1,11.9 61.1,-8.7 8.7,-13.8 11.1,-36.6 2.9,-51.8 z m -21.7,48.2 c -12.5,10.1 -30.6,6 -38.4,-7.7 -7.4,-12.9 -2.6,-29.3 9.2,-37.8 9.1,-6.6 19.3,-7.1 29.2,-4.6 0.1,0.1 0.2,0.2 0.3,0.3 17.2,8.1 12.9,39.1 -0.3,49.8 z"
       id="path74"
       inkscape:connector-curvature="0"
       style="display:inline" /><path
       class="st1"
       d="m 1668.7,-127.8 c 2.5,-4.7 -0.2,-11.9 -7.3,-12.6 -22,-2.1 -44.2,1.1 -66.2,1.9 -4.3,0.2 -5.9,3.5 -5.5,6.7 -1.1,1 -1.9,2.6 -1.9,4.7 -0.1,20.9 -4,43.1 -1.4,63.7 0.1,1 0.5,1.9 0.9,2.8 0.6,2.4 2.2,4.5 4.6,5 10.6,2.4 22,1.8 32.8,1.9 12,0.1 24.6,1.3 36.5,-0.2 3.5,-0.4 5.8,-3.1 6.7,-6.1 0.8,-1.2 1.4,-2.5 1.5,-4.3 1.4,-20.2 2.2,-43.1 -0.7,-63.5 z m -42.1,58.1 c -8.2,0.1 -16.4,-0.3 -24.6,0.3 1,-18.4 -1.6,-37.6 -1.8,-55.9 17.9,0.9 35.9,3 53.9,2.2 -1.8,17.3 -1.4,35.8 -0.5,53 -9,-0.4 -18,0.3 -27,0.4 z"
       id="path76"
       inkscape:connector-curvature="0"
       style="display:inline" /><path
       class="st1"
       d="m 265.5,-186.7 c -6.5,-6.8 -13.3,-13.3 -19.9,-20 -6.4,-6.4 -14.1,-12.5 -20,-19.4 12.5,-14.2 26.6,-27.2 39.8,-40.7 2.2,-2.2 -1.6,-6.1 -3.9,-3.8 -13.6,13.3 -26.7,27.5 -41,40 -0.4,0.4 -0.7,0.8 -0.8,1.3 -1.8,1 -2.7,3.5 -0.5,5.2 7.7,6.1 14.1,14.2 21,21.2 7,7.1 14,14.2 21.1,21.1 3.2,3.2 7.2,-1.8 4.2,-4.9 z"
       id="path78"
       inkscape:connector-curvature="0"
       style="display:inline" /><path
       class="st1"
       d="m 288.2,-202.7 c 6.8,-6.5 13.3,-13.3 20,-19.9 6.4,-6.4 12.5,-14.1 19.4,-20 14.2,12.5 27.2,26.6 40.7,39.8 2.2,2.2 6.1,-1.6 3.8,-3.9 -13.3,-13.6 -27.5,-26.7 -40,-41 -0.4,-0.4 -0.8,-0.7 -1.3,-0.8 -1,-1.8 -3.5,-2.7 -5.2,-0.5 -6.1,7.7 -14.2,14.1 -21.2,21 -7.1,7 -14.2,14 -21.1,21.1 -3.2,3.2 1.7,7.2 4.9,4.2 z"
       id="path80"
       inkscape:connector-curvature="0"
       style="display:inline" /><path
       class="st1"
       d="m 483.9,-249.4 c -6.8,6.5 -13.3,13.3 -20,19.9 -6.4,6.4 -12.5,14.1 -19.4,20 -14.2,-12.5 -27.2,-26.6 -40.7,-39.8 -2.2,-2.2 -6.1,1.6 -3.8,3.9 13.3,13.6 27.5,26.7 40,41 0.4,0.4 0.8,0.7 1.3,0.8 1,1.8 3.5,2.7 5.2,0.5 6.1,-7.7 14.2,-14.1 21.2,-21 7.1,-7 14.2,-14 21.1,-21.1 3.2,-3.1 -1.8,-7.2 -4.9,-4.2 z"
       id="path82"
       inkscape:connector-curvature="0"
       style="display:inline" /><path
       class="st1"
       d="m 517.8,-265.4 c 6.5,6.8 13.3,13.3 19.9,20 6.4,6.4 14.1,12.5 20,19.4 -12.5,14.2 -26.6,27.2 -39.8,40.7 -2.2,2.2 1.6,6.1 3.9,3.8 13.6,-13.3 26.7,-27.5 41,-40 0.4,-0.4 0.7,-0.8 0.8,-1.3 1.8,-1 2.7,-3.5 0.5,-5.2 -7.7,-6.1 -14.1,-14.2 -21,-21.2 -7,-7.1 -14,-14.2 -21.1,-21.1 -3.1,-3.1 -7.2,1.8 -4.2,4.9 z"
       id="path84"
       inkscape:connector-curvature="0"
       style="display:inline" /><path
       class="st1"
       d="m 671.5,-241.9 c 0.2,-3.4 -3.5,-4.7 -5.2,-3.2 -10.4,-0.2 -21.1,0.5 -31.6,-0.1 0.3,-7.5 -0.6,-15.3 0.6,-22.7 0.1,-0.8 0,-1.4 -0.2,-1.9 -0.3,-1 -1.3,-1.9 -2.4,-1.8 -1.8,-0.4 -3.8,0.5 -3.5,2.9 0,0 0,0.1 0,0.1 -6,6.4 -12.8,12.3 -19.1,18.4 -7.8,7.5 -15.1,15.7 -23.4,22.7 -2.6,2.1 -0.6,5.7 1.7,6 14.1,12.1 25.5,27.5 39.8,39.5 1.3,2.7 7.2,2.4 5.8,-2.1 -1.2,-3.7 -0.5,-8.6 -0.5,-12.5 0,-2.7 0.1,-5.3 0.2,-8 11.2,-0.4 22.5,0.4 33.8,0.1 1.5,0 2.3,-0.9 2.6,-1.9 0.5,-0.4 0.9,-1 0.9,-2 -0.4,-11 -0.3,-22.6 0.5,-33.5 z m -41.4,31 c -3.2,-0.2 -3.4,3.9 -1.6,5.6 0.1,2.9 0.2,5.7 0.2,8.6 0,2.3 0.2,4.9 0.1,7.4 -11.3,-12.5 -24.8,-23 -35.9,-35.7 6.2,-7.1 13.2,-13.6 19.7,-20.3 5.8,-5.9 11.2,-12.2 17.1,-18.1 0.3,5.9 -0.2,12 0.1,17.8 0,0.1 0.1,0.2 0.1,0.3 -2.9,0.8 -2.2,6.5 1.3,6.2 11.3,-1.1 22.9,-0.2 34.3,-0.3 0.6,9.4 0.7,19.2 0.4,28.6 -11.8,-0.4 -23.9,0.5 -35.8,-0.1 z"
       id="path86"
       inkscape:connector-curvature="0"
       style="display:inline" /><path
       class="st1"
       d="m 734.3,-269 c -3.4,-0.2 -4.7,3.5 -3.2,5.2 -0.2,10.4 0.5,21.1 -0.1,31.6 -7.5,-0.3 -15.3,0.6 -22.7,-0.6 -0.8,-0.1 -1.4,0 -1.9,0.2 -1,0.3 -1.9,1.3 -1.8,2.4 -0.4,1.8 0.5,3.8 2.9,3.5 0,0 0.1,0 0.1,0 6.4,6 12.3,12.8 18.4,19.1 7.5,7.8 15.7,15.1 22.7,23.4 2.1,2.6 5.7,0.6 6,-1.7 12.1,-14.1 27.5,-25.5 39.5,-39.8 2.7,-1.3 2.4,-7.2 -2.1,-5.8 -3.7,1.2 -8.6,0.5 -12.5,0.5 -2.7,0 -5.3,-0.1 -8,-0.2 -0.4,-11.2 0.4,-22.5 0.1,-33.8 0,-1.5 -0.9,-2.3 -1.9,-2.6 -0.4,-0.5 -1,-0.9 -2,-0.9 -11,0.4 -22.6,0.2 -33.5,-0.5 z m 31,41.4 c -0.2,3.2 3.9,3.4 5.6,1.6 2.9,-0.1 5.7,-0.2 8.6,-0.2 2.3,0 4.9,-0.2 7.4,-0.1 -12.5,11.3 -23,24.8 -35.7,35.9 -7.1,-6.2 -13.6,-13.2 -20.3,-19.7 -5.9,-5.8 -12.2,-11.2 -18.1,-17.1 5.9,-0.3 12,0.2 17.8,-0.1 0.1,0 0.2,-0.1 0.3,-0.1 0.8,2.9 6.5,2.2 6.2,-1.3 -1.1,-11.3 -0.2,-22.9 -0.3,-34.3 9.4,-0.6 19.2,-0.7 28.6,-0.4 -0.4,11.8 0.5,23.8 -0.1,35.8 z"
       id="path88"
       inkscape:connector-curvature="0"
       style="display:inline" /><path
       class="st1"
       d="m 875.4,-183 c 3.4,0.2 4.7,-3.5 3.2,-5.2 0.2,-10.4 -0.5,-21.1 0.1,-31.6 7.5,0.3 15.3,-0.6 22.7,0.6 0.8,0.1 1.4,0 1.9,-0.2 1,-0.3 1.9,-1.3 1.8,-2.4 0.4,-1.8 -0.5,-3.8 -2.9,-3.5 0,0 -0.1,0 -0.1,0 -6.4,-6 -12.3,-12.8 -18.4,-19.1 -7.5,-7.8 -15.7,-15.1 -22.7,-23.4 -2.1,-2.6 -5.7,-0.6 -6,1.7 -12.1,14.1 -27.5,25.5 -39.5,39.8 -2.7,1.3 -2.4,7.2 2.1,5.8 3.7,-1.2 8.6,-0.5 12.5,-0.5 2.7,0 5.3,0.1 8,0.2 0.4,11.2 -0.4,22.5 -0.1,33.8 0,1.5 0.9,2.3 1.9,2.6 0.4,0.5 1,0.9 2,0.9 11,-0.5 22.7,-0.3 33.5,0.5 z m -30.9,-41.5 c 0.2,-3.2 -3.9,-3.4 -5.6,-1.6 -2.9,0.1 -5.7,0.2 -8.6,0.2 -2.3,0 -4.9,0.2 -7.4,0.1 12.5,-11.3 23,-24.8 35.7,-35.9 7.1,6.2 13.6,13.2 20.3,19.7 5.9,5.8 12.2,11.2 18.1,17.1 -5.9,0.3 -12,-0.2 -17.8,0.1 -0.1,0 -0.2,0.1 -0.3,0.1 -0.8,-2.9 -6.5,-2.2 -6.2,1.3 1.1,11.3 0.2,22.9 0.3,34.3 -9.4,0.6 -19.2,0.7 -28.6,0.4 0.3,-11.7 -0.6,-23.8 0.1,-35.8 z"
       id="path90"
       inkscape:connector-curvature="0"
       style="display:inline" /><path
       class="st1"
       d="m 923.6,-210.2 c -0.2,3.4 3.5,4.7 5.2,3.2 10.4,0.2 21.1,-0.5 31.6,0.1 -0.3,7.5 0.6,15.3 -0.6,22.7 -0.1,0.8 0,1.4 0.2,1.9 0.3,1 1.3,1.9 2.4,1.8 1.8,0.4 3.8,-0.5 3.5,-2.9 0,0 0,-0.1 0,-0.1 6,-6.4 12.8,-12.3 19.1,-18.4 7.8,-7.5 15.1,-15.7 23.4,-22.7 2.6,-2.1 0.6,-5.7 -1.7,-6 -14.1,-12.1 -25.5,-27.5 -39.8,-39.5 -1.3,-2.7 -7.2,-2.4 -5.8,2.1 1.2,3.7 0.5,8.6 0.5,12.5 0,2.7 -0.1,5.3 -0.2,8 -11.2,0.4 -22.5,-0.4 -33.8,-0.1 -1.5,0 -2.3,0.9 -2.6,1.9 -0.5,0.4 -0.9,1 -0.9,2 0.4,11 0.3,22.6 -0.5,33.5 z m 41.4,-31 c 3.2,0.2 3.4,-3.9 1.6,-5.6 -0.1,-2.9 -0.2,-5.7 -0.2,-8.6 0,-2.3 -0.2,-4.9 -0.1,-7.4 11.3,12.5 24.8,23 35.9,35.7 -6.2,7.1 -13.2,13.6 -19.7,20.3 -5.8,5.9 -11.2,12.2 -17.1,18.1 -0.3,-5.9 0.2,-12 -0.1,-17.8 0,-0.1 -0.1,-0.2 -0.1,-0.3 2.9,-0.8 2.2,-6.5 -1.3,-6.2 -11.3,1.1 -22.9,0.2 -34.3,0.3 -0.6,-9.4 -0.7,-19.2 -0.4,-28.6 11.8,0.4 23.9,-0.5 35.8,0.1 z"
       id="path92"
       inkscape:connector-curvature="0"
       style="display:inline" /><g
       class="st1"
       id="g100"
       style="display:inline"><path
         d="m 590.2,-61.6 c -14.2,-23.4 -28,-47.2 -43.3,-69.9 0,0 -0.1,-0.1 -0.1,-0.1 -0.8,-1.7 -3,-2.7 -4.4,-0.9 -16.7,23 -33.1,46.9 -46.4,72.1 -1,1.8 0.9,3.5 2.5,3.1 0.1,0 0.3,0.1 0.4,0.1 13.2,1.6 27,0.8 40.3,0.8 14.9,-0.1 30,0.5 44.9,-0.3 1.2,-0.1 2,-0.8 2.2,-1.6 2.1,1.8 5.5,-0.7 3.9,-3.3 z m -6.2,-0.3 c -14.2,-0.8 -28.4,-0.2 -42.6,-0.3 -12.9,-0.1 -26.2,-0.8 -39.1,0.4 13.9,-21.8 27.6,-43.6 42.8,-64.6 12.3,21.9 25.9,43.2 39.1,64.5 -0.2,0 -0.2,0 -0.2,0 z"
         id="path94"
         inkscape:connector-curvature="0" /><path
         d="m 544.4,-75.2 c -0.9,-0.2 -1.9,-0.3 -2.8,-0.4 -1,0 -2.1,0.4 -3,0.3 -1.1,-0.1 -1.7,0.6 -1.9,1.5 -0.9,1.5 0.2,4.1 2.3,4.1 1.7,0 3.3,-0.5 5,-0.5 3,0 3.1,-4.2 0.4,-5 z"
         id="path96"
         inkscape:connector-curvature="0" /><path
         d="m 541.3,-107.4 c -0.1,0.1 -0.3,0.1 -0.4,0.2 -0.7,-0.1 -1.5,0.2 -1.7,1.2 -1.4,6 -1.6,12.6 -1.7,18.7 0,3.2 1.2,6.6 5.1,6.5 3.6,-0.2 5.1,-3.9 4.9,-7 -0.3,-5.9 -0.7,-11.5 -0.2,-17.5 0.1,-1.4 -1.6,-3 -3,-2.8 -1.2,0.1 -1.8,0.2 -3,0.7 z"
         id="path98"
         inkscape:connector-curvature="0" /></g><g
       class="st1"
       id="g106"
       style="display:inline"><path
         d="m 1725.2,-237.3 c -0.1,-0.9 -0.6,-1.5 -1.3,-2 -0.5,-1 -1.5,-1.7 -2.9,-1.7 -3.9,0 -7.8,-0.1 -11.8,-0.2 -0.3,-13.2 -2.4,-27.8 -16.8,-26.3 -11.4,1.2 -14.8,14 -15.4,26.3 -4.5,0.2 -8.9,0.5 -13.3,1.1 -0.2,0 -0.4,0.1 -0.6,0.2 -1,0.2 -1.8,0.9 -1.9,2.3 -0.5,15.5 -1.7,31.2 -0.6,46.7 0.1,1.2 0.7,2 1.4,2.4 0.3,0.4 0.7,0.8 1.2,1 19.1,7.9 40.8,6.9 60.3,1.1 2.5,-0.7 2.9,-3.3 1.9,-5.1 1.9,-14.9 0.7,-31 -0.2,-45.8 z m -34.6,-22.1 c 8.7,-5.3 12,6.7 13.3,18.1 -6.5,-0.1 -13,-0.2 -19.5,-0.1 0.4,-6 1.2,-14.9 6.2,-18 z m 29.3,66.7 c -18.1,5 -34.9,4.3 -53.2,0.9 1,-14.3 0,-28.8 -0.5,-43 17.7,2 36.3,0.9 54.1,0.7 -1,13.5 -1.9,28 -0.4,41.4 z"
         id="path102"
         inkscape:connector-curvature="0" /><path
         d="m 1697.3,-221.9 c -2.4,-2.5 -6.7,-2.2 -8.5,0.8 -0.1,0.1 -0.1,0.2 -0.2,0.3 0,0 0,0 0,0 0,0 0,0 0,0 -0.4,0.7 -0.6,1.6 -0.6,2.5 0,0.5 0.1,1 0.2,1.5 0,0.1 0.1,0.1 0.1,0.2 0.1,0.4 0.3,0.7 0.4,1 0,0.1 0.1,0.2 0.2,0.2 0.2,0.3 0.4,0.6 0.6,0.9 0,0 0.1,0.1 0.1,0.1 0.4,0.4 0.8,0.7 1.2,1 0,0.1 0,0.2 0,0.3 -0.3,0.5 -0.5,1 -0.7,1.4 -0.4,1.2 -0.8,2.5 -1.1,3.7 -0.4,1.6 1,3.1 2.6,3.2 1.5,0.1 3.1,0.3 4.6,0.4 1.7,0.1 3,-1.9 2.3,-3.4 -0.8,-1.8 -1.5,-3.7 -2.4,-5.6 2.8,-1.6 3.7,-5.9 1.2,-8.5 z"
         id="path104"
         inkscape:connector-curvature="0" /></g><g
       class="st1"
       id="g112"
       style="display:inline"><path
         d="m 1813.2,-237.3 c -0.1,-0.9 -0.6,-1.5 -1.3,-2 -0.5,-1 -1.5,-1.7 -2.9,-1.7 -3.9,0 -7.8,-0.1 -11.7,-0.2 0.1,-14.4 0.5,-35.7 -16.9,-34 -9.5,1 -13.4,9.9 -14.8,20 2.5,-0.4 4.9,-0.3 7.4,0.2 0.7,-4.9 2.1,-9.9 5.6,-12.1 10.7,-6.5 13.3,13.2 13.9,25.7 -13.7,-0.3 -27.5,-0.5 -40.8,1.2 -0.2,0 -0.4,0.1 -0.6,0.2 -1,0.2 -1.8,0.9 -1.9,2.3 -0.5,15.5 -1.7,31.2 -0.6,46.7 0.1,1.2 0.7,2 1.4,2.4 0.3,0.4 0.7,0.8 1.2,1 19.1,7.9 40.8,6.9 60.3,1.1 2.5,-0.7 2.9,-3.3 1.9,-5.1 1.9,-14.8 0.7,-30.9 -0.2,-45.7 z m -5.3,44.6 c -18.1,5 -34.9,4.3 -53.2,0.9 1,-14.3 0,-28.8 -0.5,-43 17.7,2 36.3,0.9 54.1,0.7 -1,13.5 -1.9,28 -0.4,41.4 z"
         id="path108"
         inkscape:connector-curvature="0" /><path
         d="m 1785.3,-221.9 c -2.4,-2.5 -6.7,-2.2 -8.5,0.8 -0.1,0.1 -0.1,0.2 -0.2,0.3 0,0 0,0 0,0 0,0 0,0 0,0 -0.4,0.7 -0.6,1.6 -0.6,2.5 0,0.5 0.1,1 0.2,1.5 0,0.1 0.1,0.1 0.1,0.2 0.1,0.4 0.3,0.7 0.4,1 0,0.1 0.1,0.2 0.2,0.2 0.2,0.3 0.4,0.6 0.6,0.9 0,0 0.1,0.1 0.1,0.1 0.4,0.4 0.8,0.7 1.2,1 0,0.1 0,0.2 0,0.3 -0.3,0.5 -0.5,1 -0.7,1.4 -0.4,1.2 -0.8,2.5 -1.1,3.7 -0.4,1.6 1,3.1 2.6,3.2 1.5,0.1 3.1,0.3 4.6,0.4 1.7,0.1 3,-1.9 2.3,-3.4 -0.8,-1.8 -1.5,-3.7 -2.4,-5.6 2.8,-1.6 3.7,-5.9 1.2,-8.5 z"
         id="path110"
         inkscape:connector-curvature="0" /></g><g
       class="st1"
       id="g118"
       style="display:inline"><path
         d="m 1996.8,-261.1 c -0.7,-1.1 -2.1,-1.4 -3.2,-1 -20.6,-22.6 -56.1,4.9 -43.5,30.5 -7.3,12.9 -15.7,25.1 -22.8,38.2 -0.4,0.8 -0.3,1.5 0,2.2 -0.2,0.8 0.1,1.7 0.6,2.5 0.4,3.5 0.9,7.1 0.9,10.6 0,1 0.5,1.7 1.2,2 0.8,1.3 2.3,2.1 3.8,0.5 0.5,-0.5 1.7,-0.5 2.5,-0.6 1.1,-0.2 2.2,-0.5 3.3,-0.7 2,-0.5 4.1,-0.8 6,-1.5 0.1,0 0.1,-0.1 0.2,-0.1 0.7,0.1 1.3,-0.2 1.8,-0.9 2.6,-3.7 3.7,-6.9 2.5,-10.7 0.4,-0.1 0.9,-0.3 1.5,-0.5 0.8,-0.3 3.5,-3.2 4.2,-3.1 0.9,0.1 1.8,-0.7 1.9,-1.6 0.2,-1.8 0.3,-3.5 0.5,-5.3 2,-0.4 2.9,-1.7 3.9,-4 2.1,-4.7 3.8,-7.9 7,-11.2 7.6,2 15.9,0.8 22.4,-4.8 11.7,-10.1 13.4,-27.8 5.3,-40.5 z m -4.9,29.5 c -4.7,8 -13.2,11 -21.2,9.3 -1,-0.7 -2.3,-0.8 -3.4,0.2 -2.3,2.2 -4.7,4.4 -6.5,7.1 -0.9,1.4 -3.9,9.8 -5,9.9 -0.9,0 -1.9,0.7 -2,1.7 -0.1,1.8 -0.2,3.7 -0.3,5.5 -2.4,0.9 -3.2,3.9 -6.6,3.9 -1.6,0 -2.3,1.8 -1.4,3.1 -0.5,2.4 -1,4.8 -1.4,7.3 -0.1,0.1 -0.3,0.2 -0.4,0.2 -1.9,0.2 -3.7,0.7 -5.5,1.2 -0.9,0.3 -1.8,0.6 -2.7,0.9 -0.4,0.2 -1.5,0.8 -2.4,1.1 -0.2,-1.3 -0.4,-2.7 -0.5,-4 -0.1,-0.8 -0.2,-1.6 -0.3,-2.4 -0.1,-0.5 -0.6,-2 -0.4,-2.5 0.4,-0.8 0.3,-1.6 -0.1,-2.4 6.7,-13.4 14.3,-28 23.8,-39.4 1,-1.2 0.7,-2.5 -0.1,-3.4 -3.9,-8.4 -1.9,-18.6 5.2,-25.1 9.7,-8.8 22.7,-6.3 31.8,1.8 0,0 0.1,0.1 0.1,0.1 3.6,8.5 4.1,17.7 -0.7,25.9 z"
         id="path114"
         inkscape:connector-curvature="0" /><path
         d="m 1988.4,-256.4 c -0.7,-0.3 -1.4,-1.4 -2,-2 -0.9,-0.7 -2,-1.3 -3.1,-1.7 -2.2,-0.7 -4.4,-0.6 -6.5,0.3 -4.6,2 -6.1,7.3 -4,11.8 2,4.1 6.7,6.4 11.1,5.2 5.1,-1.4 7.6,-6.5 5.9,-11.4 0,-0.9 -0.5,-1.8 -1.4,-2.2 z m -11.8,6.4 c -1,-2.4 0.5,-4.9 3,-5.5 1.9,-0.5 3.8,0.4 5.1,1.7 0.1,0.6 0.3,1.1 0.7,1.5 0.3,4.8 -6.8,7.3 -8.8,2.3 z"
         id="path116"
         inkscape:connector-curvature="0" /></g><g
       class="st1"
       id="g126"
       style="display:inline"><path
         d="m 314.2,-132.1 c -13.1,-0.5 -26.3,0 -39.5,0 -10.8,0 -21.9,-0.8 -32.6,0.6 0.1,-0.9 0,-1.9 0.1,-2.8 0.1,-1.6 0.3,-3.1 -0.5,-4.5 -0.2,-0.9 -0.8,-1.6 -1.7,-1.8 -2.9,-0.6 -5.8,-0.7 -8.8,-0.7 -3,0.1 -6,-0.3 -8.9,0.2 -2.9,0.5 -2.4,5.1 0.3,5.6 2.9,0.6 6,0.1 8.9,0.2 1.9,0 3.8,-0.1 5.6,-0.3 0,0.3 0,0.6 0.1,0.9 0,0.9 0,1.8 0.1,2.8 -0.5,0.5 -0.8,1.2 -0.4,2.1 6.6,17 10.9,35 16.1,52.5 0.2,0.6 0.5,1 0.8,1.4 0.3,0.6 0.8,1.1 1.4,1.2 15.9,2.5 34,1.2 50.1,0.9 3.9,-0.1 3.6,-6 -0.3,-6.1 -15.1,-0.3 -31.7,-1.3 -46.8,0.5 -0.2,-0.7 -0.4,-1.4 -0.6,-2 16.2,-7.3 33.2,-12.4 50.7,-15.5 0.5,0 1,-0.1 1.4,-0.3 1.6,-0.4 2.1,-1.8 1.8,-3.1 2.8,-9.1 3.7,-18.3 5.4,-27.6 0.2,-0.4 0.3,-0.9 0.2,-1.3 0.2,-2 -1.5,-3.1 -2.9,-2.9 z m -7.6,29 c -17.7,3.2 -34.4,8.9 -50.4,17 -4.3,-13.8 -9.6,-27.4 -14,-41.1 10.8,1.5 22.1,0.6 32.9,0.6 12.4,0 24.9,0.4 37.3,0 -1.3,7.9 -3.7,15.8 -5.8,23.5 z"
         id="path120"
         inkscape:connector-curvature="0" /><path
         d="m 265.2,-68.8 c -2.1,-3.6 -8.3,-3.6 -11.2,-0.9 -3.4,3.1 -2,7.9 1.4,10.2 3.6,2.5 8.8,1.5 10.6,-2.7 0.8,-1.9 0.4,-4.1 -0.7,-5.7 0.1,-0.4 0,-0.7 -0.1,-0.9 z m -4.3,5.1 c -1.1,1.1 -3.1,0.7 -4,-0.6 -1.2,-1.5 0.7,-3 2.1,-3.2 0,0 0,0 0,0 0.3,0.5 0.7,0.9 1.3,1.1 1.4,0.4 1.6,1.7 0.6,2.7 z"
         id="path122"
         inkscape:connector-curvature="0" /><path
         d="m 305.9,-68.8 c -2.1,-3.6 -8.3,-3.6 -11.2,-0.9 -3.4,3.1 -2,7.9 1.4,10.2 3.6,2.5 8.8,1.5 10.6,-2.7 0.8,-1.9 0.4,-4.1 -0.7,-5.7 0.1,-0.4 0,-0.7 -0.1,-0.9 z m -4.3,5.1 c -1.1,1.1 -3.1,0.7 -4,-0.6 -1.2,-1.5 0.7,-3 2.1,-3.2 0,0 0,0 0,0 0.3,0.5 0.7,0.9 1.3,1.1 1.4,0.4 1.6,1.7 0.6,2.7 z"
         id="path124"
         inkscape:connector-curvature="0" /></g><g
       class="st1"
       id="g132"
       style="display:inline"><path
         d="m 410.6,-111.1 c -2.5,-2.8 -5.1,-5.5 -7.7,-8.3 -0.1,0 -0.1,0.1 -0.1,0.1 -0.6,-1.6 -2.9,-2.7 -4.4,-1 -3.9,4.3 -10,3.7 -13.2,-1.1 -2.6,-3.9 -1.8,-9.3 0.6,-13.1 0.3,-0.4 0.3,-0.9 0.2,-1.2 0,0 0,0 0.1,-0.1 0,0 -0.1,-0.1 -0.1,-0.1 -0.2,-0.5 -0.6,-0.9 -1.2,-1.1 -2.4,-2.2 -4.8,-4.5 -7.2,-6.6 -1.2,-1.1 -2.7,-0.4 -3.1,0.7 -0.2,0.1 -0.4,0.2 -0.5,0.3 -18.4,17 -35.9,35.4 -53.2,53.5 -0.2,0.2 -0.4,0.5 -0.4,0.7 -0.4,0.5 -0.5,1.2 0.1,1.9 2.5,3.1 5.2,6.1 8,9.1 0,0 0.1,-0.1 0.1,-0.1 0.9,0.7 2.4,0.9 3.1,-0.4 2.9,-5.2 9.2,-2.6 11.9,1.2 2.1,2.9 4.7,9.9 1.6,12.9 -1.3,1.2 -0.6,2.9 0.7,3.6 2.5,2.2 4.9,4.5 7.4,6.6 0.1,0 0.1,0.1 0.2,0.1 0.7,0.9 2.2,1.3 3.3,0.4 9.3,-8.3 18.1,-17.3 26.8,-26.2 8.7,-8.9 18.3,-17.2 26.4,-26.6 0.5,-0.6 0.7,-1.2 0.6,-1.8 0.7,-0.7 1.1,-2.2 0,-3.4 z m -31.1,28.3 c -8.4,8.2 -16.8,16.5 -24.7,25.2 -1.5,-1.7 -3.1,-3.5 -4.7,-5.2 2.8,-5.9 -0.6,-14.4 -5,-18.7 -4.3,-4.2 -10.8,-5 -14.9,-1.2 -1.8,-1.6 -3.7,-3.3 -5.5,-4.8 17.5,-16.8 35.3,-33.7 51.7,-51.5 1.5,1.6 2.9,3.2 4.4,4.8 -3.3,5.9 -3.4,13 1.9,18.2 4.8,4.6 11.9,5.1 17.1,1.4 2,1.9 4,3.8 6,5.6 -9.2,8 -17.5,17.6 -26.3,26.2 z"
         id="path128"
         inkscape:connector-curvature="0" /><path
         d="m 390.4,-103.6 c -6.4,-6.8 -13,-13.5 -19.7,-20.1 -1.1,-1.1 -2.5,-0.7 -3.2,0.2 -0.2,0 -0.4,0.1 -0.5,0.2 -10.3,7.3 -19.4,18.6 -27.9,27.9 -0.6,0.7 -0.6,1.5 -0.3,2.1 0.1,0.2 0.3,0.5 0.6,0.7 7.4,6.2 12.8,15 20.7,20.6 0.2,0.2 0.5,0.3 0.8,0.3 0.6,0.3 1.3,0.3 1.8,-0.1 5.1,-3.6 9.1,-8.4 13.5,-12.7 5,-4.9 10.3,-9.7 14.7,-15.1 0.9,-1.1 0.6,-2.2 -0.1,-2.9 0.1,-0.3 0,-0.7 -0.4,-1.1 z m -17.7,15.8 c -3.8,3.9 -7.8,7.4 -11.2,11.6 -5.3,-6.5 -12.5,-11.4 -18.1,-17.7 8.7,-7.8 18.6,-16.2 25.6,-25.4 5.9,5.9 11.8,11.9 17.9,17.6 -5.1,4.2 -9.6,9.2 -14.2,13.9 z"
         id="path130"
         inkscape:connector-curvature="0" /></g></g><g
     class="st0"
     id="g224"
     style="display:none"
     transform="translate(-6.5495577,-39.894165)"><g
       class="st1"
       id="g140"
       style="display:inline"><path
         d="m 822.7,-864.3 c -18.4,-0.3 -32.6,14 -36.4,31.3 -5.3,24 8.9,42.4 22.3,60.6 1.5,2 3.5,1.9 4.8,0.8 1.3,0.8 2.9,0.9 4.2,-0.3 16.6,-15.4 29.5,-36.8 30.9,-59.9 1.2,-17 -7.1,-32.2 -25.8,-32.5 z m 12.2,57 c -5.2,11.6 -13,21.4 -22.2,30.1 -20.9,-19.3 -36.7,-71.6 3.8,-79.2 30.6,-5.7 26.2,31.7 18.4,49.1 z"
         id="path136"
         inkscape:connector-curvature="0" /><path
         d="m 830.1,-842.4 c -0.2,-0.7 -0.8,-1.3 -1.7,-1.7 -5.1,-2.1 -8.5,-4.7 -14.3,-3.8 -3.9,0.6 -7.3,2.6 -9.8,5.6 -5.2,6.4 -3.7,16.2 3,21 6.9,4.9 18.5,4.4 24.5,-1.7 5.4,-5.7 5.1,-15.2 -1.7,-19.4 z m -7.6,16.9 c -4.1,1.3 -9.8,1.2 -13,-2 -3.6,-3.7 -2.4,-9.2 1.4,-12.3 3.2,-2.6 10.6,-3.7 13.3,0.4 0.7,1 1.4,1.5 2.2,1.7 5.9,3.8 1,10.6 -3.9,12.2 z"
         id="path138"
         inkscape:connector-curvature="0" /></g><path
       class="st1"
       d="m 1062.8,-840.3 c 0,-0.8 -0.3,-1.5 -0.8,-1.9 -0.1,-0.5 -0.4,-0.9 -0.8,-1.3 -5.2,-5.2 -10.3,-10.5 -15.5,-15.7 -0.1,-0.1 -0.2,-0.2 -0.4,-0.3 0.1,-1.2 -0.6,-2.5 -1.6,-3 -1.7,-1.3 -4.4,-0.9 -4.4,1.9 -3.8,3.1 -7.1,6.9 -10.4,10.3 -3.3,3.3 -6.6,6.7 -9.9,10 -6.7,-7.1 -14.5,-13.1 -20.9,-20.5 -0.6,-2.4 -3.8,-3.2 -5,-1.5 -0.4,0.1 -0.9,0.3 -1.3,0.7 -2.5,2.4 -4.9,4.9 -7.4,7.3 -2.5,2.5 -4.9,5.5 -7.7,7.7 -0.8,0.6 -1.1,1.3 -1.2,2.1 -0.3,0.4 -0.5,0.9 -0.5,1.6 0.5,21.3 -0.1,42.6 -0.2,63.9 0,2.4 2.2,3.4 4,2.9 0.9,0.4 1.9,0.2 2.8,-0.8 4.5,-5.3 10.6,-9.5 14.9,-15 3.1,2.7 5.7,6 8.6,8.8 3.4,3.2 6.6,6.5 10,9.8 1.3,1.2 2.6,0.8 3.4,-0.1 1,0.7 2.4,0.9 3.4,-0.4 6.3,-7.5 14,-14.2 21.1,-21.1 4.7,4.4 8.6,9.7 13.8,13.5 0,0.2 0,0.3 0,0.5 0.1,3.7 5.6,3.9 5.7,0 0.5,-19.9 1.1,-39.7 0.3,-59.4 z m -69.7,43.7 c -4.4,3.4 -8,8 -12,12.1 -0.1,-19.3 -0.6,-38.5 -0.1,-57.8 2.2,-2.7 5,-5.1 7.4,-7.5 1.6,-1.6 3.1,-3.1 4.7,-4.7 0.9,19.2 -0.4,38.6 0,57.9 z m 22.9,16.9 c -2.4,-2.5 -4.9,-4.9 -7.3,-7.5 -3.3,-3.5 -7.6,-6.6 -10.3,-10.6 -0.1,-0.1 -0.1,-0.2 -0.2,-0.2 0.3,-18.5 -0.9,-37.2 0,-55.7 5.9,5.7 11.1,12.1 17.1,17.8 -0.2,0.8 0.1,1.7 0.6,2.4 -0.3,17.9 0.5,35.9 0.1,53.8 z m 23.7,-20.5 c -3.3,3.3 -6.6,6.6 -9.9,10 -2.8,2.8 -5.4,5.8 -8.2,8.6 -0.4,-16.8 0.3,-33.6 0.3,-50.4 1.2,-0.6 1.9,-2.2 1.2,-3.7 3.2,-3.3 6.5,-6.5 9.7,-9.7 2.3,-2.3 4.8,-4.5 7.2,-6.9 0.4,17.3 -1.4,34.8 -0.3,52.1 z m 5.3,-0.7 c 0.8,-17 -0.8,-34.1 -0.2,-51.1 4,4 8,7.9 12,11.9 -0.7,16.9 -0.3,33.9 0,50.8 -3.8,-4 -8.3,-7.4 -11.8,-11.6 z"
       id="path142"
       inkscape:connector-curvature="0"
       style="display:inline" /><path
       class="st1"
       d="m 725.4,-860 c -1.2,-0.2 -2.1,0 -2.8,0.5 -18.4,-5.9 -43.4,6.5 -53.2,21.6 -14.6,22.5 -4,52 19.7,62.7 23.7,10.7 52.2,-2.3 61.6,-25.9 8.9,-22.1 0.8,-53.8 -25.3,-58.9 z m -14.3,80.4 c -0.3,-3.3 0.2,-7 0.2,-10.2 0,-3.9 0.2,-7.9 0,-11.8 -0.1,-3.6 -5.4,-3.9 -5.5,-0.1 -0.1,3.9 0,7.9 0,11.8 0.1,3.4 0.4,7.1 0.1,10.5 -3.3,-0.1 -6.7,-0.5 -10.3,-1.6 -14.5,-4.5 -24.4,-17.5 -25.7,-31.7 5.3,0.1 10.9,0.5 16,-0.4 2.9,-0.5 2.1,-5.2 -0.4,-5.7 -4.9,-0.9 -10.4,-0.5 -15.6,-0.4 0.3,-3.8 1.3,-7.6 3,-11.3 5.4,-11.9 18.8,-20.8 32.6,-23.5 0,6.2 -0.5,12.7 0.3,18.8 0.4,2.9 5.1,4.4 5.5,0.8 0.8,-6.5 0.3,-13.3 0.3,-19.8 0,-0.2 -0.1,-0.4 -0.1,-0.6 3.5,-0.2 7,0 10.3,0.8 0.5,0.6 1.2,1.1 2.1,1.3 16.4,4 23,16.4 22.6,29.9 -6.3,0.2 -12.7,-0.4 -19,0 -4.1,0.3 -3.3,6 0.4,6.3 6,0.4 12,-0.1 18,0 -3.1,17.3 -16.5,34.4 -34.8,36.9 z"
       id="path144"
       inkscape:connector-curvature="0"
       style="display:inline" /><path
       class="st1"
       d="m 948.3,-854.5 c -0.5,-1.7 -2.3,-3.2 -4.5,-2.1 -26.6,13.5 -52.2,26.8 -76.1,44.8 -0.1,0.1 -0.2,0.2 -0.3,0.3 -1.5,0.2 -3,0.5 -4.4,0.9 -1.7,0.4 -1.1,3 0.3,3.4 11.6,3 25.7,1.6 37.8,1.3 0.9,10.4 0.4,22.3 -0.7,32.2 -0.5,4.8 6.9,5.6 6.4,0.9 0,-0.4 -0.1,-0.8 -0.1,-1.2 0.1,-0.1 0.1,-0.1 0.2,-0.2 14.1,-25.3 26.6,-52.2 42.4,-76.5 0.8,-1.4 0.1,-2.9 -1,-3.8 z m -42.4,71.8 c -0.6,-9 -0.6,-18.5 0.6,-26.9 0,-0.2 0,-0.3 0,-0.5 10.4,-10.7 21.1,-21.2 31.7,-31.8 -10,20.1 -21.6,39.6 -32.3,59.2 z"
       id="path146"
       inkscape:connector-curvature="0"
       style="display:inline" /><path
       class="st1"
       d="m 253.7,-838.4 c -4.3,-8.4 -13.3,-13.8 -22.7,-13.3 -9.7,0.6 -15.6,6.5 -20.1,14.1 -9.3,-17.5 -36,-17.7 -44.4,1.7 -13,30.3 27.6,39 43.4,53.7 0.2,0.2 0.4,0.3 0.7,0.4 -0.3,3 3.6,6 5.9,3.2 13.4,-15.7 50.8,-33.1 37.2,-59.8 z m -14.4,30.1 c -7.4,7.9 -16.8,13.4 -24.5,21.1 -0.1,-0.1 -0.1,-0.1 -0.1,-0.2 -10.8,-10.8 -27,-13.3 -37.6,-24 -8.8,-8.9 -7.7,-23.8 3.3,-30.5 10.5,-6.4 22.3,0.2 28,9.5 0.3,0.5 0.7,0.8 1.2,1 1.5,2.3 5.7,3.1 6.3,-0.6 2.5,-13.8 21.4,-17 29.6,-6.6 7.6,9.9 1.2,22.4 -6.2,30.3 z"
       id="path148"
       inkscape:connector-curvature="0"
       style="display:inline" /><path
       class="st1"
       d="m 355.4,-828.9 c -9.3,-1.6 -18.4,0.4 -27.6,1.5 -2.2,-10.7 -7.3,-21 -8.3,-32 0,-0.3 0,-0.6 -0.1,-0.9 0,-0.4 -0.1,-0.7 -0.1,-1.1 -0.2,-3.9 -6,-3.3 -5.4,0.1 -1.8,5.7 -3.9,11.3 -5.8,16.9 -1.7,5 -3,10.7 -5.8,15.1 -4.3,0.7 -8.7,0.5 -13,1.1 -4.7,0.7 -9.3,1.6 -13.9,2.9 -2.6,-0.5 -4.7,4.2 -0.8,5.5 4,1.4 8.1,4.9 11.8,7.2 3.2,2 6.4,4.1 9.5,6.1 -1.5,9.1 -4.5,18 -4.8,27.2 -1.1,1 -0.9,2.4 0,3.4 0,0.1 0,0.1 0,0.2 0.1,2 2.6,2.7 3.5,1 0.4,-0.2 0.8,-0.6 1,-1.2 0.7,-2 3.2,-3.5 4.7,-4.9 1.8,-1.7 3.6,-3.5 5.4,-5.2 3,-3 6.4,-5.9 9.1,-9.2 4.1,2.9 7.9,7.3 11.5,10.6 3.5,3.3 7.1,6.5 10.9,9.6 0.6,3.7 7.5,1.9 4.9,-2 -2.6,-4 -3.1,-10.3 -4.4,-14.9 -1.2,-4.3 -2.3,-8.6 -3.9,-12.7 4.1,-3.1 8,-6.4 12.1,-9.6 4,-3.2 8.1,-7.5 12.6,-9.9 2.8,-1.5 -0.5,-6.3 -3.1,-4.8 z m -14.1,11.6 c -3.8,3.1 -7.7,6.2 -11.5,9.4 -0.7,0.6 -0.7,1.4 -0.5,2.1 -0.2,0.3 -0.3,0.7 -0.2,1.2 0.8,4.4 2,8.7 3.3,13 0.8,2.9 2.3,6.3 3.3,9.6 -2.1,-2 -4.3,-4 -6.5,-6 -4,-3.6 -9.4,-7.4 -12.6,-11.8 -1.6,-2.1 -3.6,-1.4 -4.5,0 -3.4,2.6 -6.3,6 -9.3,9.1 -1.6,1.6 -3.1,3.1 -4.7,4.7 -0.4,0.4 -0.9,1.1 -1.4,1.7 1.2,-7.2 1.9,-14.6 4.4,-21.4 0.4,-1.2 0.1,-2.3 -0.6,-3.1 -0.2,-0.6 -0.6,-1.2 -1.3,-1.6 -3.7,-2.1 -7.3,-4.4 -10.9,-6.6 -2.3,-1.4 -5,-2.7 -7.5,-4.3 7.6,-1.9 16.2,-4.1 23.4,-2.9 2.5,0.4 3.4,-1.5 3,-3.2 0.7,-5.7 3.8,-11.7 5.8,-17 1.1,-2.9 2.1,-5.7 3.2,-8.6 2.2,9.2 3.3,18.9 7.2,27.5 -0.5,1.7 0.7,4 2.7,3.9 0.6,0.2 1.3,0 1.7,-0.4 7.2,-2.1 14.6,-1.9 21.9,-1.9 -2.6,2.3 -5.8,4.4 -8.4,6.6 z"
       id="path150"
       inkscape:connector-curvature="0"
       style="display:inline" /><g
       class="st1"
       id="g156"
       style="display:inline"><path
         d="m 466.5,-841.9 c 0.2,-2 -1.1,-3.8 -3.2,-4 -10.2,-0.6 -19.1,1.3 -28.9,2.5 -0.2,-6.4 -1.5,-12.9 -7.1,-16.9 -4.6,-3.3 -9.7,-3.5 -14.4,-0.5 -0.8,0.5 -1.3,1.5 -1.2,2.5 2.1,14.9 5.3,37.3 -7.3,48.7 -0.9,-3.9 -1.9,-7.8 -3,-11.7 -0.4,-1.4 -2.4,-3 -3.9,-2.3 -5,2.1 -10.4,4.7 -15.9,5.2 -1.2,0.1 -2,0.6 -2.5,1.3 -1.5,0.4 -2.7,1.8 -2,4.1 3.4,10.9 3.1,24 4.4,35.3 0.2,1.7 1.5,3.1 3.3,3.2 5.6,0.4 11.2,1 16.8,1.8 1.2,0.2 2.1,-0.1 2.8,-0.6 2,1.2 5,0.4 4.8,-2.6 -0.1,-2 -0.4,-3.9 -0.5,-5.9 0,0 0.1,0 0.1,0 15.7,1.4 35.9,6.2 48.1,-6.8 13.3,-14.1 7.6,-36.1 9.6,-53.3 z m -64.3,61.9 c -4.9,-0.5 -9.9,-0.8 -14.9,-0.8 -1.4,-10 -3.8,-20.9 -3.4,-30.8 4.2,-1.6 8.5,-2.8 12.7,-4.5 3.2,11.9 5.2,23.9 6,36.2 -0.2,0 -0.3,-0.1 -0.4,-0.1 z m 54.5,-16.6 c -8.9,17.3 -33,9.3 -48.4,8.1 -0.1,0 -0.2,0 -0.3,0 -0.5,-4.4 -1.2,-8.8 -2,-13.1 0.1,-0.1 0.2,-0.2 0.3,-0.3 6.6,-8.2 11.3,-16.2 12.5,-26.9 0.6,-5.7 0.6,-11.4 0.1,-17.1 -0.2,-1.9 -4,-18.2 6.9,-8.9 2.8,2.4 3.8,8 4.1,12.6 -2.3,2.2 0,7.6 3.5,6.2 8.5,-3.5 17.9,-3.7 27.1,-3.6 -0.3,14.2 2.9,30 -3.8,43 z"
         id="path152"
         inkscape:connector-curvature="0" /><path
         d="m 394.2,-807.9 c -1.5,-1.3 -3.4,-1.4 -4.9,0 -0.1,0.1 -0.1,0.1 -0.2,0.2 -2.3,2.3 0,6.5 3,6.5 3.3,0 4.6,-4.4 2.2,-6.5 0,-0.1 0,-0.1 -0.1,-0.2 z"
         id="path154"
         inkscape:connector-curvature="0" /></g><g
       class="st1"
       id="g162"
       style="display:inline"><path
         d="m 567.3,-822.2 c -3.4,-10.9 -3.2,-24.2 -4.4,-35.6 -0.2,-1.8 -1.5,-3.2 -3.3,-3.3 -5.7,-0.4 -11.3,-1 -16.9,-1.8 -1.2,-0.2 -2.1,0.1 -2.8,0.6 -2,-1.2 -5,-0.4 -4.8,2.7 0.1,2 0.4,4 0.5,6 0,0 -0.1,0 -0.1,0 -15.8,-1.4 -36.2,-6.2 -48.4,6.8 -13.4,14.2 -7.7,36.4 -9.6,53.8 -0.2,2 1.1,3.9 3.2,4 10.3,0.6 19.2,-1.4 29.2,-2.5 0.2,6.5 1.5,13 7.2,17 4.6,3.3 9.7,3.5 14.5,0.5 0.8,-0.5 1.3,-1.5 1.2,-2.5 -2.1,-15 -5.4,-37.6 7.4,-49.1 0.9,3.9 1.9,7.8 3,11.7 0.4,1.5 2.4,3 4,2.4 5.1,-2.1 10.5,-4.8 16,-5.3 1.2,-0.1 2,-0.6 2.5,-1.3 1.2,-0.4 2.3,-1.8 1.6,-4.1 z M 538,-833.3 c -6.7,8.3 -11.3,16.3 -12.6,27.1 -0.6,5.7 -0.6,11.5 -0.1,17.2 0.2,1.9 4,18.3 -7,8.9 -2.9,-2.5 -3.8,-8.1 -4.2,-12.7 2.4,-2.2 0,-7.6 -3.5,-6.2 -8.6,3.5 -18,3.8 -27.3,3.6 0.3,-14.5 -3,-30.3 3.7,-43.4 9,-17.4 33.3,-9.4 48.8,-8.1 0.1,0 0.2,0 0.3,0 0.5,4.4 1.3,8.8 2.1,13.2 0,0.1 -0.1,0.2 -0.2,0.4 z m 22.6,9.8 c -4.3,1.6 -8.6,2.8 -12.8,4.5 -3.2,-12 -5.2,-24.1 -6,-36.5 0.1,0 0.2,0.1 0.4,0.1 5,0.6 10,0.8 15,0.8 1.4,10.1 3.8,21 3.4,31.1 z"
         id="path158"
         inkscape:connector-curvature="0" /><path
         d="m 552.2,-834.1 c -3.3,0 -4.6,4.5 -2.2,6.6 0.1,0 0.1,0.1 0.2,0.1 1.5,1.3 3.5,1.4 4.9,0 0.1,-0.1 0.1,-0.1 0.2,-0.2 2.3,-2.3 -0.1,-6.5 -3.1,-6.5 z"
         id="path160"
         inkscape:connector-curvature="0" /></g><path
       class="st1"
       d="m 248.5,-744 c -7.7,-8.5 -19.2,-7.6 -29.7,-7.4 -12.8,0.3 -28.1,-1.4 -40.6,1.5 -8.9,2.1 -10.8,7.3 -11.8,15.8 -1.1,9.7 -4,25 0.5,34.1 4.9,9.8 14.6,8.7 23.7,7.5 0.1,2.8 0.2,5.6 1.3,8.5 1.3,3.6 3.6,6.9 6.4,9.5 5.8,5.2 14.1,7.3 21.7,5.2 0.4,0.2 0.8,0.4 1.2,0.5 3,1.1 3.6,-3.3 1.5,-4.7 -0.2,-0.1 -0.3,-0.2 -0.5,-0.3 -0.3,-0.4 -0.7,-0.7 -1.2,-0.8 -2.1,-1.5 -3.9,-3 -5.1,-5.5 -1.1,-2.4 -1.8,-6.7 -0.5,-9.5 10.4,-0.3 22.8,4.1 31.8,-2.9 7.2,-5.5 7.7,-15.5 8.2,-23.9 0.6,-9.7 0,-20 -6.9,-27.6 z m -14.7,49.4 c -5.8,0.9 -13.9,-1.6 -20,-1.2 -2.2,0.1 -3,2 -2.7,3.7 -0.5,2.1 -1.2,4 -1.2,6.2 0,2.6 0.6,5.3 1.6,7.7 0.7,1.5 1.5,3 2.6,4.3 -4.2,0.2 -8.3,-0.8 -12,-3.4 -4.6,-3.3 -9.4,-11.8 -6.6,-17.5 1.7,-3.6 -3.3,-5.2 -4.8,-3.2 -11.4,3.3 -18.2,-2.5 -19.7,-15.5 -0.6,-5 -0.4,-19.2 1.6,-23.4 5.3,-11.4 31.9,-7.1 41.4,-7.3 8.5,-0.2 21.9,-2.2 28.7,4 5.1,4.7 6,12.9 6,19.3 0,10.4 -0.6,24.1 -14.9,26.3 z"
       id="path164"
       inkscape:connector-curvature="0"
       style="display:inline" /><g
       class="st1"
       id="g170"
       style="display:inline"><path
         d="m 362.6,-742.4 c -6.1,-6.8 -15.2,-6.1 -23.6,-5.9 -10.2,0.2 -22.4,-1.1 -32.3,1.2 -7.1,1.7 -8.6,5.8 -9.4,12.6 -0.9,7.7 -3.2,19.8 0.4,27.1 3.9,7.8 11.6,6.9 18.8,6 0.1,2.3 0.2,4.4 1,6.7 1.1,2.9 2.8,5.5 5.1,7.5 4.6,4.2 11.2,5.8 17.2,4.2 0.3,0.1 0.6,0.3 1,0.4 2.4,0.8 2.9,-2.6 1.2,-3.8 -0.1,-0.1 -0.2,-0.2 -0.4,-0.2 -0.3,-0.3 -0.6,-0.5 -1,-0.7 -1.7,-1.2 -3.1,-2.4 -4,-4.4 -0.9,-1.9 -1.4,-5.3 -0.4,-7.5 8.3,-0.2 18.1,3.3 25.3,-2.3 5.7,-4.4 6.1,-12.4 6.5,-19 0.6,-7.7 0.1,-15.9 -5.4,-21.9 z m -11.6,39.3 c -4.7,0.7 -11.1,-1.3 -15.9,-1 -1.7,0.1 -2.4,1.6 -2.1,2.9 -0.4,1.6 -0.9,3.2 -1,4.9 0,2.1 0.5,4.2 1.3,6.2 0.5,1.2 1.2,2.4 2.1,3.4 -3.4,0.1 -6.6,-0.6 -9.5,-2.7 -3.6,-2.6 -7.4,-9.4 -5.3,-13.9 1.4,-2.8 -2.6,-4.2 -3.8,-2.6 -9.1,2.6 -14.5,-2 -15.6,-12.3 -0.5,-4 -0.3,-15.3 1.2,-18.6 4.2,-9.1 25.4,-5.7 32.9,-5.8 6.7,-0.1 17.4,-1.7 22.8,3.2 4.1,3.7 4.7,10.3 4.8,15.4 -0.1,8.2 -0.5,19.1 -11.9,20.9 z"
         id="path166"
         inkscape:connector-curvature="0" /><path
         d="m 319.5,-683.1 c -3.5,0.2 -6.9,0.4 -10.3,0.3 -2,0 -2.3,2.1 -1.6,3.5 -1.2,2.3 -2.3,4.5 -4.4,6.5 -1.2,1.1 -2.5,2 -3.9,2.7 -0.2,0.1 -0.4,0.2 -0.6,0.3 0.6,-1.3 0.9,-2.7 1,-4.1 0,-0.8 0,-1.6 -0.2,-2.4 -0.2,-1 -1.2,-3.1 -1.1,-4.1 0,-1.3 -1.3,-2.3 -2.5,-2.2 -0.6,-0.5 -1.3,-0.7 -2.2,-0.4 -6.5,2.1 -11,1.6 -12.5,-6.1 -0.5,-2.6 0.1,-6 0.2,-8.7 0.3,-7 4.1,-9.8 9.1,-11.1 0,-0.2 -0.1,-0.5 -0.1,-0.7 0,-0.4 0,-0.8 0,-1.2 -0.2,-1.1 -0.4,-2.1 -0.4,-3.2 -2.1,0.3 -4.1,0.8 -5.9,1.6 -9.1,3.7 -8.1,16.3 -7.6,24.5 0.7,11.2 9.6,12.7 18.9,9.8 0.1,0 0.2,-0.1 0.3,-0.1 1.7,1.4 0.2,6.5 -0.6,7.9 -0.5,0.8 -1.1,1.4 -1.8,1.9 -1.4,-0.4 -2.1,0.4 -2.3,1.4 -0.5,0.3 -1,0.5 -1.5,0.8 -1.3,0.8 -0.4,2.9 1,2.9 1.1,0 2.1,-0.3 3,-0.8 0.2,-0.1 0.4,-0.2 0.7,-0.3 1,-0.6 3.1,-0.6 4.3,-1 0.9,-0.3 1.9,-0.7 2.8,-1.1 2,-0.9 3.7,-2.2 5.3,-3.6 2.3,-2.1 4.4,-5 5.2,-8.2 3.4,-0.1 6.8,0 10.3,0 1.4,0 2.1,-1.1 2.2,-2.4 0,-0.4 0.1,-0.8 0.1,-1.1 -1.5,-1.1 -3,-2.3 -4.3,-3.6 -0.4,0.7 -0.5,1.5 -0.6,2.3 z"
         id="path168"
         inkscape:connector-curvature="0" /></g><path
       class="st1"
       d="m 657.1,-859.9 c -8.7,13.5 -21.4,22.3 -35.7,8.8 -2.9,-2.8 -4,-6.3 -8.1,-8 -11.6,-4.7 -24.5,7.5 -30.8,15.7 0,0 0,0.1 -0.1,0.2 -0.4,0.2 -0.7,0.7 -0.6,1.4 4,23.9 11.5,49.3 21.5,71.4 1,2.3 4.5,1.8 3.7,-1 -2.9,-9.6 -5.9,-19.3 -8.9,-28.9 3.1,-4.2 7.1,-11.9 11.6,-14.2 5.9,-3.1 8.6,2.5 13,5.4 5.8,3.9 11.4,4.3 17.7,0.8 18.1,-10.2 21.3,-33.4 21.9,-51.9 0.2,-3.8 -5.9,-3.7 -5.2,0.3 z m -10.8,39.2 c -5.9,7.1 -12,13.1 -22.7,5.1 -2.8,-2.1 -1.5,-4.5 -4.9,-6.6 -8.9,-5.4 -17.5,7.8 -22.6,15.5 -3.4,-10.9 -6.8,-21.7 -10.2,-32.5 0.1,-0.1 0.3,-0.2 0.4,-0.4 4.3,-5.6 11.8,-14 19.6,-14.8 11,-1 10.9,6.1 15.2,11.4 2.9,3.6 5.6,5.8 10.4,6.3 10.1,0.9 21.1,-7.3 26.4,-16.5 0.4,11.6 -4.4,24 -11.6,32.5 z"
       id="path172"
       inkscape:connector-curvature="0"
       style="display:inline" /><g
       class="st1"
       id="g182"
       style="display:inline"><path
         d="m 480.3,-728.3 c -3.2,-8.5 -17.2,-5.8 -25.5,-5.4 -1.6,-3.9 0.9,-8.8 -5.2,-9.7 -3.7,-0.6 -8.1,0.6 -11.8,1 -5.1,0.5 -10.1,1 -15.2,1.5 -0.8,0.1 -1.6,0.4 -1.9,1.2 -1.1,2.6 -1.9,5.3 -3.1,7.9 -8,-0.2 -15.8,0.2 -23.9,1.4 -0.9,0.1 -1.6,1.1 -1.8,1.9 -1.8,12.5 -2.6,25.3 -1.1,37.9 0.7,5.9 1.5,9.9 7.4,12.1 9.9,3.7 24.6,0.8 34.8,0.1 14.9,-1 29.7,-1.8 44.6,-1.5 1.2,0 2.5,-1 2.6,-2.2 0.9,-7.7 1.4,-15.3 1.3,-23.1 0.1,-6.5 1.2,-16.8 -1.2,-23.1 z m -4.4,30.7 c -0.3,13.3 -4.2,10.9 -15.8,11.2 -7.5,0.2 -14.9,0.8 -22.3,1.4 -11.4,0.9 -36.6,7.3 -41.4,-5.5 -2.1,-5.5 -1.9,-21.1 -0.3,-26.6 0.2,-1.7 0.3,-3.3 0.5,-5 3.2,-3 6.8,-4.5 10.8,-4.4 4,-0.7 8.7,-0.2 12.7,0 1.9,0.1 2.5,-1.5 2.1,-3 1.2,-4.8 2.1,-6.6 7,-7 3.8,-0.3 7.6,-0.6 11.4,-1 3.4,-0.3 7.7,-2.1 8.8,2 0.4,1.5 0.3,2.4 0.7,3.6 -0.7,1.9 0.4,4.6 2.9,4.6 8.6,0 18.9,-2.3 22.1,7.2 2.2,6.3 1,16.1 0.8,22.5 z"
         id="path174"
         inkscape:connector-curvature="0" /><path
         d="m 447.7,-722.5 c -0.4,-0.2 -0.7,-0.2 -1,-0.2 -18.2,-14.8 -43.1,18 -21.4,30.2 9.3,5.2 21.8,3.3 28.1,-5.6 5.9,-8.2 3.5,-19.8 -5.7,-24.4 z m -17.5,25.3 c -9.1,-3 -9.1,-13.2 -3.3,-19.4 5.4,-5.7 12.6,-5 19.2,-2.3 0,0 0,0 0,0 11.8,11.2 -2.4,26.2 -15.9,21.7 z"
         id="path176"
         inkscape:connector-curvature="0" /><path
         d="m 468,-720.6 c -1.3,-1 -3,-1.2 -4.2,0.1 0,0 -0.1,0.1 -0.1,0.1 -1.9,1.9 -0.1,5.3 2.5,5.3 2.7,0 3.9,-3.7 1.8,-5.5 0,0.1 0,0 0,0 z"
         id="path178"
         inkscape:connector-curvature="0" /><path
         d="m 434,-716.4 c -4.9,1.6 -8.1,8.1 -4.7,12.5 3.5,4.6 10.5,4.3 14.5,0.5 2.7,-2.5 3,-6.8 1.1,-9.5 -0.8,-3.6 -7.8,-4.5 -10.9,-3.5 z m 0.3,8.9 c -0.9,-1.2 0.6,-2.4 1.5,-2.9 0.8,-0.4 1.8,-0.6 2.7,-0.6 0.1,0.3 0.3,0.7 0.5,0.9 1.9,2.2 -3.5,4.2 -4.7,2.6 z"
         id="path180"
         inkscape:connector-curvature="0" /></g><path
       class="st1"
       d="m 660.5,-734.1 c -3.3,-4.6 -7.7,-7.4 -12.8,-9.8 -6.5,-3.1 -16.4,-4.7 -20.7,-10.8 -2.7,-3.9 -7.1,0.4 -4.9,3.3 0.4,20.3 5.7,40.3 6.2,60.6 0.1,2.5 2.6,3.4 4.4,2.9 0.1,0.1 0.1,0.3 0.2,0.4 9.3,12.8 -8.8,21.6 -19.4,18.7 -8.5,-2.3 -12.1,-11 -4.9,-17.3 4.8,-4.2 11.6,-4.3 17.2,-1.6 2.6,1.2 3.5,-2.1 1.6,-3.5 -7.1,-5.4 -17.7,-4.5 -23.8,2.2 -6.7,7.3 -5,17.8 3.2,23 8.1,5.1 20.1,5.2 27.6,-1 7,-5.7 8.6,-16 3.1,-23.3 -0.9,-1.1 -2.1,-1.4 -3.1,-1.1 -2.1,-11.3 -2.7,-22.8 -3.6,-34.3 5.4,0.3 10.8,0.1 16.2,0.9 3.4,0.5 6.5,1.5 9.2,3.8 2,1.8 6,7.3 3.1,9.9 -1.7,1.6 -1.1,3.2 0.3,4.2 -0.1,0.3 -0.2,0.6 -0.3,0.9 -0.8,2.4 2.4,4.9 3.9,2.3 5.4,-9.5 3.6,-21.7 -2.7,-30.4 z m -4.3,7.2 c -7.8,-4.4 -16.8,-3.8 -25.5,-4.4 -0.2,-0.3 -0.4,-0.5 -0.7,-0.7 -0.5,-5.2 -1,-10.4 -1.9,-15.6 6.5,3.4 13.3,6.1 19.7,9.8 5.9,3.4 9.6,8 11.4,13.4 -0.7,-1 -1.8,-1.8 -3,-2.5 z"
       id="path184"
       inkscape:connector-curvature="0"
       style="display:inline" /><path
       class="st1"
       d="m 579.8,-694 c 0.1,-0.3 0.1,-0.6 0.1,-1 -3,-18.2 -4.9,-36.3 -8.7,-54.4 -0.3,-1.3 -1.3,-1.8 -2.2,-1.7 1,-1.5 -0.3,-4.2 -2.4,-3.5 -19,6.2 -36.3,15.2 -54.2,23.9 -1.9,0.9 -1,3.6 0.6,4.4 2.6,13.6 7.4,26.9 9.4,40.6 0.1,0.4 0.2,0.7 0.3,0.9 -0.1,0.7 0,1.4 0.5,1.9 7.3,7.9 -10.1,19.8 -17.2,12.5 -7.3,-7.4 6.2,-19.5 14.2,-15.5 1.5,0.8 2.8,-1.3 1.5,-2.3 -11.7,-9.4 -29.5,11.4 -17.6,21.5 11.2,9.5 31.9,-7.5 22.8,-17.7 0.3,-0.5 0.5,-1.2 0.2,-2 -2.7,-8 -4.4,-16.3 -6.1,-24.6 0.2,-0.1 0.4,-0.1 0.7,-0.3 14.5,-8.8 33.2,-13 49.3,-18.4 2.2,11.5 4,23.1 4.5,34.6 0,0.7 0.4,1.3 0.8,1.7 0.1,0.3 0.3,0.6 0.6,0.8 9.5,6.8 -3.1,19.9 -11.5,19.1 -6,-0.6 -9.2,-7 -6.7,-12.4 2.3,-5 8.7,-8.2 14.1,-6.5 3.3,1.1 3.7,-4.9 0.3,-4.8 -8.1,0.4 -15.8,2.1 -18.5,10.9 -2,6.8 1.4,14.6 8.4,16.7 13,3.9 27.9,-14.8 16.8,-24.4 z m -60.1,-21.9 c -0.9,-4 -1.8,-7.9 -2.9,-11.8 15.7,-9.6 33.1,-16.2 50.3,-22.4 -0.3,0.5 -0.4,1 -0.3,1.7 1,4.6 2,9.3 2.9,14 -16.7,5.4 -33,14.3 -50,18.5 z"
       id="path186"
       inkscape:connector-curvature="0"
       style="display:inline" /><g
       class="st1"
       id="g194"
       style="display:inline"><path
         d="m 1141.5,-844.2 c 5.7,-1.2 11.8,-1.3 17.6,-0.2 1.4,-2.1 2.7,-4.2 4,-6.4 -1.1,-0.3 -2.2,-0.5 -3.3,-0.7 -32.2,-5 -60.4,20.5 -57.7,52.6 0.3,3.9 6,3.4 5.2,-0.7 -4.3,-21.9 13.8,-40.4 34.2,-44.6 z"
         id="path188"
         inkscape:connector-curvature="0" /><path
         d="m 1189,-829.1 c -1.9,-4.6 -4.7,-8.6 -8.1,-11.9 -0.9,2.7 -1.7,5.3 -2.7,8 6.5,9 11.1,27.4 4.3,36.1 -2.7,3.5 1.8,7.6 5.1,4.8 9.3,-7.9 5.4,-27.3 1.4,-37 z"
         id="path190"
         inkscape:connector-curvature="0" /><path
         d="m 1168.2,-844.1 c -6.2,7.4 -42.3,34.5 -25.6,46.7 14.4,10.5 27.5,-32.8 29.8,-42.8 2.3,-2.2 -1.9,-6.5 -4.2,-3.9 z m -9.4,25.4 c -1.5,2.9 -10,22 -14.5,13.3 -2.6,-5.1 8.6,-15.2 11.5,-18.2 3,-3.1 5.9,-6.2 8.9,-9.2 -1.7,4.8 -3.6,9.5 -5.9,14.1 z"
         id="path192"
         inkscape:connector-curvature="0" /></g><path
       class="st1"
       d="m 950.1,-699.3 c 0.1,-1.3 -0.4,-2.7 -1.8,-3.6 -14.8,-9 -29.6,-18.4 -44.2,-27.8 -2.9,-1.9 -5.1,1.6 -3.9,4.1 0,0.1 -0.1,0.2 -0.1,0.3 -2,19 -1.1,38.8 -0.6,57.9 0,0.8 0.3,1.4 0.6,1.9 -0.9,2.5 2,5.6 4.7,4.1 7.7,-4.4 14.7,-10.6 21.8,-15.9 7.2,-5.4 14.7,-10.4 22.2,-15.5 2,-1.4 2.1,-3.7 1.3,-5.5 z m -43.2,25.5 c 0.5,-15.9 1,-32.3 -0.4,-48.2 11.5,7.5 23,15 34.4,22.7 -11.4,7.8 -23.8,16.1 -34,25.5 z"
       id="path196"
       inkscape:connector-curvature="0"
       style="display:inline" /><path
       class="st1"
       d="m 1362.9,-699.3 c 0.1,-1.3 -0.4,-2.7 -1.8,-3.6 -14.8,-9 -29.6,-18.4 -44.2,-27.8 -2.9,-1.9 -5.1,1.6 -3.9,4.1 0,0.1 -0.1,0.2 -0.1,0.3 -0.7,7.1 -1.1,14.3 -1.2,21.5 -13.8,-8.5 -27.6,-17.2 -41.2,-26 -2.9,-1.9 -5.1,1.6 -3.9,4.1 0,0.1 -0.1,0.2 -0.1,0.3 -2,19 -1.1,38.8 -0.6,57.9 0,0.8 0.3,1.4 0.6,1.9 -0.9,2.5 2,5.6 4.7,4.1 7.7,-4.4 14.7,-10.6 21.8,-15.9 6.1,-4.6 12.5,-8.8 18.8,-13.2 0.1,7.7 0.4,15.5 0.6,23.1 0,0.8 0.3,1.4 0.6,1.9 -0.9,2.5 2,5.6 4.7,4.1 7.7,-4.4 14.7,-10.6 21.8,-15.9 7.2,-5.4 14.7,-10.4 22.2,-15.5 1.9,-1.3 2.1,-3.6 1.2,-5.4 z m -89.7,25.5 c 0.5,-15.9 1,-32.3 -0.4,-48.2 11.5,7.5 23,15 34.4,22.7 -11.4,7.8 -23.8,16.1 -34,25.5 z m 46.5,0 c 0.5,-15.9 1,-32.3 -0.4,-48.2 11.5,7.5 23,15 34.4,22.7 -11.4,7.8 -23.8,16.1 -34,25.5 z"
       id="path198"
       inkscape:connector-curvature="0"
       style="display:inline" /><path
       class="st1"
       d="m 1478.2,-667 c 2,-19 1.1,-38.8 0.6,-57.9 0,-0.8 -0.3,-1.4 -0.6,-1.9 0.9,-2.5 -2,-5.6 -4.7,-4.1 -7.7,4.4 -14.7,10.6 -21.8,15.9 -6.1,4.6 -12.5,8.8 -18.8,13.2 -0.1,-7.7 -0.4,-15.5 -0.6,-23.1 0,-0.8 -0.3,-1.4 -0.6,-1.9 0.9,-2.5 -2,-5.6 -4.7,-4.1 -7.7,4.4 -14.7,10.6 -21.8,15.9 -7.2,5.4 -14.7,10.4 -22.2,15.5 -2.1,1.4 -2.2,3.7 -1.4,5.5 -0.1,1.3 0.4,2.7 1.8,3.6 14.8,9 29.6,18.4 44.2,27.8 2.9,1.9 5.1,-1.6 3.9,-4.1 0,-0.1 0.1,-0.2 0.1,-0.3 0.7,-7.1 1.1,-14.3 1.2,-21.5 13.8,8.5 27.6,17.2 41.2,26 2.9,1.9 5.1,-1.6 3.9,-4.1 0.3,-0.2 0.3,-0.3 0.3,-0.4 z m -87.2,-27.2 c 11.4,-7.7 23.8,-15.9 34,-25.4 -0.5,15.9 -1,32.3 0.4,48.2 -11.6,-7.5 -23.1,-15.1 -34.4,-22.8 z m 46.4,0 c 11.4,-7.7 23.8,-15.9 34,-25.4 -0.5,15.9 -1,32.3 0.4,48.2 -11.5,-7.5 -23,-15.1 -34.4,-22.8 z"
       id="path200"
       inkscape:connector-curvature="0"
       style="display:inline" /><path
       class="st1"
       d="m 1664.8,-693.6 c 0,-11.2 0.8,-22.7 -1,-33.7 0,-0.2 -0.1,-0.4 -0.2,-0.6 0.1,-2.3 -1.3,-4.8 -4.2,-4.7 -3.4,0 -6.8,0.1 -10.2,0.2 -3.2,0.1 -6.5,-0.1 -9.5,0.9 -2.4,0.7 -2.5,3.3 -1.3,4.9 -0.5,7.3 -0.8,14.7 -1,22 -13.9,-8.5 -27.8,-17.3 -41.5,-26.2 -2.9,-1.9 -5.1,1.6 -3.9,4.1 0,0.1 -0.1,0.2 -0.1,0.3 -2,19 -1.1,38.8 -0.6,57.9 0,0.8 0.3,1.4 0.6,1.9 -0.9,2.5 2,5.6 4.7,4.1 7.7,-4.4 14.7,-10.6 21.8,-15.9 6.1,-4.6 12.4,-8.8 18.7,-13.2 -0.1,9.1 0.1,18.2 0.6,27.2 0,0 0,0.1 0,0.1 -0.2,1.7 0.9,3.7 3.1,3.9 5.8,0.6 12.4,0.9 18.1,0.1 0.8,-0.1 1.4,-0.6 1.8,-1.2 1.4,0.3 2.8,-0.3 3.1,-2.3 1.8,-9.7 1.1,-19.9 1,-29.8 z m -66,19.8 c 0.5,-15.9 1,-32.3 -0.4,-48.2 11.5,7.5 23,15 34.4,22.7 -11.4,7.8 -23.8,16.1 -34,25.5 z m 58,-24.6 c 0,10.4 -1,21.1 0.4,31.4 -3.8,-0.5 -7.8,-0.4 -11.8,-0.2 1,-19 0.5,-38.5 -0.7,-57.5 1.6,0.1 3.3,0.1 4.9,0.1 2.5,0.1 5,0.1 7.6,0.2 -0.8,8.6 -0.4,17.4 -0.4,26 z"
       id="path202"
       inkscape:connector-curvature="0"
       style="display:inline" /><path
       class="st1"
       d="m 1569.9,-666.1 c 2,-19 1.1,-38.8 0.6,-57.9 0,-0.8 -0.3,-1.4 -0.6,-1.9 0.9,-2.5 -2,-5.6 -4.7,-4.1 -7.7,4.4 -14.7,10.6 -21.8,15.9 -6.1,4.6 -12.4,8.8 -18.7,13.2 0.1,-9.1 -0.1,-18.2 -0.6,-27.2 0,0 0,-0.1 0,-0.1 0.2,-1.7 -0.9,-3.7 -3.1,-3.9 -5.8,-0.6 -12.4,-0.9 -18.1,-0.1 -0.8,0.1 -1.4,0.6 -1.8,1.2 -1.4,-0.3 -2.8,0.3 -3.1,2.3 -1.6,9.8 -0.9,20 -0.9,29.9 0,11.2 -0.8,22.7 1,33.7 0,0.2 0.1,0.4 0.2,0.6 -0.1,2.3 1.3,4.8 4.2,4.7 3.4,0 6.8,-0.1 10.2,-0.2 3.2,-0.1 6.5,0.1 9.5,-0.9 2.4,-0.7 2.5,-3.3 1.3,-4.9 0.5,-7.3 0.8,-14.7 1,-22 13.9,8.5 27.8,17.3 41.5,26.2 2.9,1.9 5.1,-1.6 3.9,-4.1 -0.1,-0.2 0,-0.2 0,-0.4 z m -57.8,-1.8 c -2.5,-0.1 -5,-0.1 -7.6,-0.2 0.9,-8.6 0.4,-17.3 0.4,-26 0,-10.4 1,-21.1 -0.4,-31.4 3.8,0.5 7.8,0.4 11.8,0.2 -1,19 -0.5,38.5 0.7,57.5 -1.6,0 -3.3,0 -4.9,-0.1 z m 17,-25.3 c 11.4,-7.7 23.8,-15.9 34,-25.4 -0.5,15.9 -1,32.3 0.4,48.2 -11.6,-7.5 -23.1,-15.1 -34.4,-22.8 z"
       id="path204"
       inkscape:connector-curvature="0"
       style="display:inline" /><g
       class="st1"
       id="g210"
       style="display:inline"><path
         d="m 998.6,-727.4 c 0,-0.2 -0.1,-0.4 -0.2,-0.6 0.1,-2.3 -1.3,-4.8 -4.2,-4.7 -3.4,0 -6.8,0.1 -10.2,0.2 -3.2,0.1 -6.5,-0.1 -9.5,0.9 -2.4,0.7 -2.5,3.3 -1.3,4.9 -1.3,20.6 -1.9,41.7 -0.7,62.3 0,0 0,0.1 0,0.1 -0.2,1.7 0.9,3.7 3.1,3.9 5.8,0.6 12.4,0.9 18.1,0.1 0.8,-0.1 1.4,-0.6 1.8,-1.2 1.4,0.3 2.8,-0.3 3.1,-2.3 1.6,-9.8 0.9,-20 0.9,-29.9 0,-11.1 0.8,-22.6 -0.9,-33.7 z m -7.1,29 c 0,10.4 -1,21.1 0.4,31.4 -3.8,-0.5 -7.8,-0.4 -11.8,-0.2 1,-19 0.5,-38.5 -0.7,-57.5 1.6,0.1 3.3,0.1 4.9,0.1 2.5,0.1 5,0.1 7.6,0.2 -0.8,8.6 -0.4,17.4 -0.4,26 z"
         id="path206"
         inkscape:connector-curvature="0" /><path
         d="m 1036.3,-693.6 c 0,-11.2 0.8,-22.7 -1,-33.7 0,-0.2 -0.1,-0.4 -0.2,-0.6 0.1,-2.3 -1.3,-4.8 -4.2,-4.7 -3.4,0 -6.8,0.1 -10.2,0.2 -3.2,0.1 -6.5,-0.1 -9.5,0.9 -2.4,0.7 -2.5,3.3 -1.3,4.9 -1.3,20.6 -1.9,41.7 -0.7,62.3 0,0 0,0.1 0,0.1 -0.2,1.7 0.9,3.7 3.1,3.9 5.8,0.6 12.4,0.9 18.1,0.1 0.8,-0.1 1.4,-0.6 1.8,-1.2 1.4,0.3 2.8,-0.3 3.1,-2.3 1.7,-9.8 1,-20 1,-29.9 z m -8,-4.8 c 0,10.4 -1,21.1 0.4,31.4 -3.8,-0.5 -7.8,-0.4 -11.8,-0.2 1,-19 0.5,-38.5 -0.7,-57.5 1.6,0.1 3.3,0.1 4.9,0.1 2.5,0.1 5,0.1 7.6,0.2 -0.9,8.6 -0.4,17.4 -0.4,26 z"
         id="path208"
         inkscape:connector-curvature="0" /></g><path
       class="st1"
       d="m 1112.8,-729 c -0.4,-0.1 -0.7,-0.2 -1,-0.2 -13.4,-7.2 -29.4,-3.8 -38.8,10.9 -10.3,16.1 -5.1,39 11.3,48.8 17.2,10.3 39.3,4 48.1,-14 8.9,-18 -1.2,-38.9 -19.6,-45.5 z m 12.9,37.7 c -4,14.2 -20.1,21.4 -33.5,15.9 -13,-5.3 -18.9,-19 -14.8,-32.3 3.6,-11.6 18.6,-21.3 30.3,-16.8 0,1.5 0.7,3 2.3,3.7 11.5,5.1 19.4,16.4 15.7,29.5 z"
       id="path212"
       inkscape:connector-curvature="0"
       style="display:inline" /><path
       class="st1"
       d="m 1236.4,-726.1 c 0,-2 -1.2,-3.2 -2.7,-3.6 -0.6,-0.8 -1.5,-1.3 -2.7,-1.5 -20.2,-2.4 -43.1,-1.4 -63.3,0.5 -2.7,0.2 -3.3,2.8 -2.3,4.6 -1.3,19.6 -1.7,39.9 -0.5,59.5 0,0.1 0,0.1 0,0.2 -0.2,1.9 1.1,4 3.5,4.2 20.3,2.2 42.6,1.6 63,0.3 2.2,-0.1 3.3,-1.6 3.4,-3.2 0.5,-0.5 0.8,-1.2 0.8,-2.1 0.9,-19.5 1,-39.2 0.8,-58.9 z m -64.3,56.4 c 0.9,-17.9 0.6,-36.3 -0.5,-54.2 18.5,1.6 38.7,2.3 57.1,0.4 -0.2,17.9 0,35.9 0.7,53.7 -18.6,-1.1 -38.7,-1.6 -57.3,0.1 z"
       id="path214"
       inkscape:connector-curvature="0"
       style="display:inline" /><path
       class="st1"
       d="m 779.4,-721 c 0,-6.9 -0.1,-13.8 -0.3,-20.8 0,-0.6 -0.2,-1.1 -0.4,-1.5 -0.1,-0.3 -0.2,-0.6 -0.4,-1 -0.4,-2 -3.2,-3.1 -4.5,-1.9 -5.5,0 -11.1,-0.1 -16.6,-0.2 0,-1.4 0,-2.9 -0.1,-4.3 0.2,-4 -5.9,-4.1 -6.1,0 -0.1,1.4 -0.1,2.8 -0.1,4.2 -11.3,-0.2 -22.6,-0.4 -33.8,-0.2 0,-0.9 0,-1.8 0,-2.7 0,-0.8 -0.3,-1.4 -0.7,-1.9 -0.4,-2.9 -4.8,-3.1 -5.1,0 -0.4,0.5 -0.7,1.1 -0.6,2 0,0.9 0,1.9 0,2.8 -2.3,0.1 -4.7,0.2 -7,0.3 -3.8,0 -7.7,0.1 -11.5,0.1 -3.1,0.1 -3.8,3.3 -2.4,5.4 -2.1,10 -1.1,20.5 -1.1,30.7 0.1,12.5 -0.1,24.8 1,37.2 0,0 0,0.1 0,0.1 -0.8,2 0.4,4.8 3.1,4.9 2.6,0.1 5.1,0.1 7.7,0.2 24.4,1.2 49.3,0.1 73.7,0.1 1.4,0 2.3,-0.7 2.8,-1.6 1.2,-0.4 2.2,-1.5 2.2,-3.2 0.1,-16.2 0.5,-32.5 0.2,-48.7 z m -75.3,-18.1 c 2.3,0.1 4.5,0.2 6.8,0.3 0,2.2 0,4.3 0.1,6.5 -0.1,3.9 6,4.1 6.1,0 0.1,-2.1 0.1,-4.2 0.1,-6.3 11.2,0.2 22.5,0 33.7,-0.2 0,2.1 0,4.3 0.2,6.3 0.4,3.1 5.6,4.7 6.1,0.8 0.3,-2.4 0.3,-4.8 0.3,-7.2 5,-0.1 10.1,-0.2 15.1,-0.2 -0.1,5 -0.1,9.9 -0.2,14.9 -25.2,-0.4 -51.2,-1.4 -76.3,0.6 0,-5.2 -0.2,-10.4 -1.2,-15.5 3,0 6.1,0 9.2,0 z m -3.8,64.3 c -1.8,0 -3.6,0.1 -5.4,0.1 0.8,-10.9 0.9,-21.8 0.9,-32.8 0,-3.4 0.1,-6.9 0.2,-10.3 25.1,2 51.1,1 76.3,0.6 -0.1,11.8 0,23.6 0.1,35.4 0,2.3 0,4.6 0,6.9 -23.9,-0.1 -48.2,-1.1 -72.1,0.1 z"
       id="path216"
       inkscape:connector-curvature="0"
       style="display:inline" /><g
       class="st1"
       id="g222"
       style="display:inline"><path
         d="m 816.7,-704 c 2.3,10.1 16.8,14.9 26.1,13.3 15.6,-2.6 14.2,-22.9 13.7,-34.6 -0.5,-12.3 -3.6,-25.3 -17.5,-27.6 -13,-2.2 -23.2,4.8 -23.3,17.9 -0.9,9.7 -0.3,20.1 0.3,29.7 0.1,0.4 0.3,0.9 0.7,1.3 z m 4.1,-30.3 c -1,-13.9 18.7,-16.9 25.6,-7.2 3.2,4.5 3.4,11.2 3.5,16.8 -0.2,0 -0.3,-0.1 -0.5,-0.1 -9.4,-0.3 -19.1,-0.2 -28.5,0.5 0,-3 -0.1,-5.9 -0.3,-8.8 0.2,-0.3 0.2,-0.7 0.2,-1.2 z m 0.1,15.5 c 9.5,0.8 19.4,0.9 28.9,0.5 0.2,0 0.3,-0.1 0.4,-0.1 0.2,5.7 0.2,13 -1.9,16.2 -4.6,7.1 -24.5,6.2 -26.5,-4.1 -0.2,-0.9 -0.7,-1.5 -1.4,-1.8 0.2,-3.4 0.4,-7.1 0.5,-10.7 z"
         id="path218"
         inkscape:connector-curvature="0" /><path
         d="m 872.7,-721.8 c -0.4,-4.4 -7.3,-4.5 -6.9,0.1 0.6,7.4 1.5,15.1 -2.4,21.8 -5.3,9.3 -16.1,12.6 -26.1,12.6 -20.8,0 -31,-13.1 -31.9,-32.9 -0.2,-3.3 -5.4,-3.5 -5.1,0 1.2,10.4 1.6,21.3 8.9,29.6 6.7,7.7 17.5,10.2 27.4,10.4 -0.2,2.8 -0.1,5.5 0,8.3 -1.6,0 -3.2,0.1 -4.8,0.2 -1.7,0 -3.5,0 -5.2,0 -1.3,0 -2.2,0.6 -2.7,1.4 -0.1,0.1 -0.1,0.2 -0.2,0.2 -0.2,0.2 -0.4,0.4 -0.6,0.7 -0.4,0.6 -0.6,1.4 -0.8,2.3 0,0.1 -0.1,0.2 -0.1,0.4 0,0.2 0,0.4 0,0.7 0,0.1 0,0.1 0,0.2 0,0 0,0 0,0 0,0.3 0,0.6 0,0.9 0,0 0,0.1 0,0.1 0,0.1 0,0.1 0,0.1 0,0.2 0.1,0.5 0.1,0.7 0,0.1 0.1,0.2 0.1,0.3 0,0 0,0 0,0 0.1,0.4 0.3,0.7 0.6,1 0,0 0,0 0,0 0.2,0.2 0.4,0.4 0.7,0.6 0.1,0.1 0.2,0.1 0.4,0.2 0.3,0.1 0.5,0.2 0.8,0.2 0.1,0 0.1,0 0.1,0 0,0 0.1,0 0.1,0 0.1,0 0.2,0.1 0.3,0.1 0,0 0.1,0 0.1,0 0,0 0,0 0,0 8.6,1.8 18.5,1.3 27.3,0.7 2.7,-0.2 3.5,-2.6 2.8,-4.5 0,-0.1 0,-0.1 0,-0.2 0,0 0,-0.1 0,-0.1 0,-0.4 0,-0.7 0,-1.1 0.1,-0.4 0.2,-0.8 0.2,-1.2 -0.1,-1.6 -1.3,-3.2 -3.3,-3.3 -3.1,-0.1 -6.3,-0.3 -9.6,-0.4 0.1,-2.9 0.2,-5.8 0,-8.6 22,-2.5 32,-19.7 29.8,-41.5 z"
         id="path220"
         inkscape:connector-curvature="0" /></g></g><g
     class="st0"
     id="g292"
     style="display:none"
     transform="translate(-6.5495577,-39.894165)"><path
       class="st1"
       d="m 244.7,-1124.9 c -2.8,-10.8 -5,-19.6 -13.7,-27.7 -7.4,-6.9 -17,-10.1 -26.9,-10.4 -0.1,-5.2 -0.3,-10.4 0.6,-15.4 0.4,-2.2 -1.3,-3.4 -2.9,-3.4 -0.9,-0.2 -1.8,0 -2.4,1 -3.7,6.3 -7.8,12.4 -12,18.3 -3.8,5.3 -8.4,13 -14,16.5 -3.2,2 0.3,6.1 2.7,5.2 3.6,3.7 7.3,7.2 10.9,11 2,2.1 4,4.4 5.9,6.6 2.3,2.7 5.7,5.5 6.7,8.9 1.2,4.4 7.1,0.8 4.9,-2.1 0.1,-2.6 0.1,-5.2 0.4,-7.8 0.2,-2 -0.3,-5.3 0.3,-7.5 11.8,0 25.7,2.5 35.1,10.1 0.4,0.6 1,1 1.7,1.2 2.6,1.2 4.8,-2.6 2.7,-4.5 z m -40.5,-11.6 c -2.2,-0.8 -5.2,0.1 -3.3,3.7 0.5,1 -0.1,2.7 -0.2,3.8 -0.1,1.4 -0.1,2.8 -0.1,4.2 0,1.6 0,3.1 -0.1,4.6 -1.1,-1.4 -2,-2.9 -3,-4.2 -1.9,-2.5 -4.1,-4.9 -6.2,-7.2 -4,-4.4 -8.1,-8.8 -12.6,-12.7 2,-3.1 5,-6 7.2,-8.7 2.5,-3.1 4.9,-6.2 7.3,-9.4 2.4,-3.3 4.6,-6.7 6.8,-10.2 0.2,4 0,8 -0.1,12 0,0.9 0.5,1.5 1.1,1.9 0.5,0.6 1.1,1 1.9,1 16.2,0 36.9,12.5 37,30.5 -11.6,-5.3 -22.3,-9.4 -35.7,-9.3 z"
       id="path226"
       inkscape:connector-curvature="0"
       style="display:inline" /><path
       class="st1"
       d="m 377.8,-1120.4 c 0.7,-0.2 1.3,-0.6 1.7,-1.2 9.4,-7.6 23.4,-10.1 35.2,-10.1 0.5,2.2 0.1,5.5 0.3,7.5 0.3,2.6 0.3,5.2 0.4,7.8 -2.1,3 3.7,6.6 5,2.1 1,-3.5 4.4,-6.3 6.7,-8.9 1.9,-2.3 3.9,-4.5 5.9,-6.7 3.5,-3.8 7.3,-7.3 10.9,-11 2.4,0.9 5.9,-3.2 2.7,-5.2 -5.6,-3.6 -10.2,-11.3 -14.1,-16.6 -4.3,-5.9 -8.4,-12 -12.1,-18.3 -0.6,-1 -1.5,-1.2 -2.4,-1 -1.6,0.1 -3.3,1.2 -2.9,3.4 0.9,5.1 0.7,10.3 0.6,15.5 -10,0.3 -19.6,3.5 -27,10.4 -8.7,8.1 -11,17 -13.7,27.8 -2.1,1.9 0.2,5.7 2.8,4.5 z m 1.9,-6.9 c 0.2,-18.1 21,-30.6 37.2,-30.6 0.9,0 1.5,-0.4 2,-1 0.6,-0.4 1.1,-1 1.1,-1.9 -0.1,-4 -0.2,-8 -0.1,-12.1 2.2,3.5 4.4,6.9 6.8,10.2 2.4,3.2 4.8,6.3 7.3,9.4 2.2,2.8 5.2,5.7 7.2,8.8 -4.5,3.9 -8.6,8.3 -12.6,12.7 -2.1,2.3 -4.3,4.8 -6.2,7.3 -1,1.3 -1.9,2.8 -3,4.2 -0.1,-1.6 -0.1,-3.1 -0.1,-4.7 0,-1.4 0.1,-2.8 -0.1,-4.3 -0.1,-1.1 -0.7,-2.8 -0.2,-3.8 1.9,-3.6 -1.2,-4.5 -3.4,-3.7 -13.4,0.1 -24.1,4.2 -35.9,9.5 z"
       id="path228"
       inkscape:connector-curvature="0"
       style="display:inline" /><path
       class="st1"
       d="m 363.8,-1123.8 c -2.8,-11 -5.2,-20.1 -14,-28.3 -7.5,-7 -17.4,-10.3 -27.5,-10.6 -0.1,-5.3 -0.3,-10.6 0.6,-15.8 0.4,-2.2 -1.3,-3.4 -3,-3.5 -0.9,-0.2 -1.9,0 -2.5,1 -3.8,6.4 -7.9,12.6 -12.3,18.7 0,-1.7 0,-3.5 0,-5.2 0,-3.2 -0.4,-6.7 0.5,-9.9 0.4,-1.5 -0.3,-2.6 -1.4,-3.1 -1.1,-1.2 -3.1,-1.6 -4.4,0.4 -8,12.7 -21.4,21.8 -31.3,32.9 -0.2,0.2 -0.2,0.4 -0.3,0.6 -1.3,1.3 -1.7,3.6 0.6,4.6 3.5,1.5 6.4,5.2 9.1,7.8 2.5,2.4 5,4.9 7.4,7.4 4.4,4.6 8.6,9.4 13.3,13.7 0.5,3.5 6.8,2.8 5.4,-1.2 -1.2,-3.5 -0.6,-8.3 -0.6,-12 0,-1.3 0,-2.5 0,-3.7 0.4,0.4 0.8,0.8 1.2,1.2 2.1,2.2 4,4.5 6,6.8 2.3,2.7 5.8,5.6 6.8,9.1 1.3,4.5 7.2,0.9 5,-2.2 0.1,-2.7 0.1,-5.3 0.4,-8 0.2,-2.1 -0.3,-5.4 0.3,-7.6 12.1,0 26.3,2.5 35.9,10.3 0.4,0.6 1.1,1 1.7,1.2 2.9,1.2 5.1,-2.7 3.1,-4.6 z m -64.3,5.4 c -3.2,-3.8 -6.9,-7.4 -10.4,-10.9 -2.5,-2.4 -5,-4.9 -7.4,-7.3 -2.6,-2.5 -6.3,-5.1 -8.4,-8.1 9.8,-8.9 17.6,-20.2 27.6,-28.8 0.1,2.7 -0.1,5.5 -0.1,8 0,3 0.1,5.9 0.2,8.9 0,0.1 0,0.2 0.1,0.3 -3,4.2 -6.3,8.5 -10.1,10.9 -3.2,2 0.3,6.3 2.8,5.3 2,2 4,4.1 6.1,6.1 -0.2,2.3 -0.3,4.7 -0.2,7 -0.3,2.5 0,5.7 -0.2,8.6 z m 22.8,-17.3 c -2.2,-0.8 -5.3,0.1 -3.4,3.8 0.5,1 -0.1,2.7 -0.2,3.9 -0.1,1.5 -0.1,2.9 -0.1,4.3 0,1.6 0,3.2 -0.1,4.8 -1.1,-1.4 -2,-3 -3.1,-4.3 -2,-2.5 -4.2,-5 -6.3,-7.4 -4.1,-4.5 -8.2,-9 -12.9,-13 2.1,-3.2 5.1,-6.1 7.4,-8.9 2.5,-3.2 5.1,-6.3 7.5,-9.6 2.5,-3.4 4.7,-6.9 6.9,-10.4 0.2,4.1 0,8.2 -0.1,12.3 0,0.9 0.5,1.6 1.1,1.9 0.5,0.6 1.1,1 2,1 16.5,0 37.7,12.8 37.9,31.2 -12,-5.6 -22.9,-9.8 -36.6,-9.6 z"
       id="path230"
       inkscape:connector-curvature="0"
       style="display:inline" /><path
       class="st1"
       d="m 1938.3,-1160.3 c -1.6,-11.2 -10.2,-19.6 -21.8,-19.2 -10.8,0.4 -20.2,6.9 -26.2,15.4 -7.5,-8.5 -16,-15.9 -28.5,-15.4 -12.4,0.5 -19.6,11.1 -17.9,23 1.6,11.2 10.2,19.6 21.8,19.2 10.8,-0.4 20.2,-6.9 26.2,-15.4 7.5,8.5 16,15.9 28.5,15.4 12.4,-0.4 19.6,-11.1 17.9,-23 z m -86.6,3.2 c -3.9,-22.8 26.5,-14.5 35.3,-2.5 -8.3,11.5 -31.5,24.3 -35.3,2.5 z m 43.3,0 c 8.3,-11.6 31.6,-24.4 35.3,-2.5 3.9,22.8 -26.5,14.4 -35.3,2.5 z"
       id="path232"
       inkscape:connector-curvature="0"
       style="display:inline" /><path
       class="st1"
       d="m 2022.7,-1217.7 c -21.3,21.5 -34.1,49.3 -39.3,78.8 -5.6,-9.6 -10.5,-19.7 -12.8,-30.5 -1.1,-5.3 -9.8,-3 -7.7,2.1 6.1,14.4 11.1,28.3 19.6,41.6 1.7,2.7 6.6,2.8 7.2,-1 4.5,-32.5 19,-59.6 40.7,-83.8 4.3,-4.9 -3.1,-11.9 -7.7,-7.2 z"
       id="path234"
       inkscape:connector-curvature="0"
       style="display:inline" /><g
       class="st1"
       id="g240"
       style="display:inline"><path
         d="m 1560.7,-1120.5 c -1,-1.8 -1.9,-4 -3.8,-5 -1.8,-0.9 -3.6,0.3 -3.6,2.2 0,2.1 1.5,3.7 2.4,5.5 0.1,0.1 0.1,0.2 0.2,0.4 -15.8,-4.6 -25.8,-21.8 -25,-38.2 0.9,-18.4 13.3,-27.3 28.6,-31.5 v -4.6 c -42.4,4.5 -43.4,67.8 -6.7,79.5 -1.5,0.7 -3,1.5 -4.4,2.5 -2.4,1.8 -0.6,6.6 2.5,5.4 2.1,-0.8 4.1,-2 6,-3.2 1,-0.6 2,-1.1 3,-1.7 0.7,-0.4 1.5,-1.3 2.3,-1.5 2.3,-0.8 2,-3.1 0.9,-4.4 -0.7,-2 -1.5,-3.7 -2.4,-5.4 z"
         id="path236"
         inkscape:connector-curvature="0" /><path
         d="m 1606,-1149.1 c -1.1,-18.8 -11.8,-37 -29.4,-42.2 1.5,-0.8 3.1,-1.6 4.4,-2.8 2.1,-1.8 -0.6,-5.5 -3,-4.8 -2,0.6 -3.9,1.9 -5.7,2.9 -0.9,0.5 -1.7,1 -2.6,1.6 -0.9,0.6 -2.1,1.6 -3.1,2 -1.8,0.6 -2,2.1 -1.5,3.4 0.1,0.6 0.3,1.2 0.9,1.7 1.5,1.5 2.7,3.7 4,5.3 1.4,1.7 3.1,3.2 4.7,4.8 2.6,2.6 6.2,-1.6 3.5,-3.9 -1.5,-1.3 -2.8,-2.8 -4.2,-4.3 -0.1,-0.1 -0.2,-0.3 -0.4,-0.4 14.8,3.8 23.5,18.5 25.1,34.2 1.9,18 -13.1,33.4 -30.9,35.2 v 5.9 c 20.5,-1.3 39.5,-17.5 38.2,-38.6 z"
         id="path238"
         inkscape:connector-curvature="0" /></g><path
       class="st1"
       d="m 1680,-1195.1 c 19.1,1.3 37.6,12.5 42.2,30.7 0.9,-1.9 1.5,-3.8 2.3,-5.7 1.5,-3.7 7.4,-1.9 6.2,1.9 -0.8,2.5 -2.2,4.8 -3.4,7.1 -0.6,1 -1.2,2 -1.9,3 -0.6,0.9 -2,1.9 -2.3,2.9 -1,3.1 -4.1,1.7 -5.1,-0.1 -0.7,-0.8 -2.1,-1.3 -2.9,-1.9 -1.1,-0.8 -2.2,-1.6 -3.2,-2.4 -1.9,-1.4 -4.3,-2.8 -5.7,-4.7 -1.9,-2.4 0.5,-5.3 3.2,-3.8 2.2,1.1 4,3.2 5.9,4.6 0.4,0.3 0.8,0.6 1.2,0.9 -3.7,-14.8 -18.3,-23.6 -34,-25.4 -19.5,-2.2 -36.1,15.5 -35.7,35.1 0.5,20.1 20.3,33.6 39.2,32.8 18.6,-0.8 27.6,-13.3 31.9,-28.8 1.5,-0.1 3,-0.2 4.5,-0.1 -4.7,47.5 -82,43.4 -81.4,-5.8 0.1,-21.2 17,-41.8 39,-40.3 z"
       id="path242"
       inkscape:connector-curvature="0"
       style="display:inline" /><path
       class="st1"
       d="m 1784.8,-1195.1 c -19.1,1.3 -37.6,12.5 -42.2,30.7 -0.9,-1.9 -1.5,-3.8 -2.3,-5.7 -1.5,-3.7 -7.4,-1.9 -6.2,1.9 0.8,2.5 2.2,4.8 3.4,7.1 0.6,1 1.2,2 1.9,3 0.6,0.9 2,1.9 2.3,2.9 1,3.1 4.1,1.7 5.1,-0.1 0.7,-0.8 2.1,-1.3 2.9,-1.9 1.1,-0.8 2.2,-1.6 3.2,-2.4 1.9,-1.4 4.3,-2.8 5.7,-4.7 1.9,-2.4 -0.5,-5.3 -3.2,-3.8 -2.2,1.1 -4,3.2 -5.9,4.6 -0.4,0.3 -0.8,0.6 -1.2,0.9 3.7,-14.8 18.3,-23.6 34,-25.4 19.5,-2.2 36.1,15.5 35.7,35.1 -0.5,20.1 -20.3,33.6 -39.2,32.8 -18.6,-0.8 -27.6,-13.3 -31.9,-28.8 -1.5,-0.1 -3,-0.2 -4.5,-0.1 4.7,47.5 82,43.4 81.4,-5.8 -0.1,-21.2 -17,-41.8 -39,-40.3 z"
       id="path244"
       inkscape:connector-curvature="0"
       style="display:inline" /><g
       class="st1"
       id="g252"
       style="display:inline"><path
         d="m 543.1,-1167.4 c 0,1.5 0,2.9 0.1,4.4 0,0.7 0.4,1.3 0.9,1.7 -0.6,2.3 2.8,5.2 5.1,2.9 3.2,-3.2 6.5,-6.5 8.9,-10.3 1.7,-0.3 2.6,-2.3 1.7,-4.3 -1.2,-2.6 -3.8,-4.2 -5.7,-6.2 -1.8,-2 -4,-4.4 -6.3,-5.7 -0.7,-0.4 -1.3,-0.4 -1.9,-0.4 -1.5,-0.3 -3.1,0.4 -3,2.6 0.2,2.8 0.2,5.6 0.2,8.4 -9.2,2.3 -17.5,6.6 -24.3,13.8 -12.5,13.3 -22,44.4 -45.8,36.3 -3.5,-1.2 -4.5,4.7 -1,5.5 13.3,3 23.7,-1.5 32.6,-11.7 12.9,-14.7 19.8,-31.9 38.5,-37 z"
         id="path246"
         inkscape:connector-curvature="0" /><path
         d="m 473,-1165.4 c 14.2,-4.8 23.4,4.3 31.1,15.3 1.2,-1.8 2.4,-3.6 3.7,-5.3 -1,-1.3 -2.1,-2.6 -3.2,-3.8 -8.9,-10.2 -19.4,-14.7 -32.6,-11.7 -3.4,0.7 -2.5,6.6 1,5.5 z"
         id="path248"
         inkscape:connector-curvature="0" /><path
         d="m 558.1,-1122.9 c -2.4,-3.9 -5.7,-7.1 -8.9,-10.3 -2.2,-2.2 -5.7,0.6 -5.1,2.9 -0.5,0.4 -0.8,1 -0.9,1.7 -0.1,1.5 -0.1,2.9 -0.1,4.4 -9.9,-2.7 -16.5,-8.8 -22.4,-16.1 -1.4,2.2 -2.7,4.5 -3.9,6.8 0.7,0.9 1.4,1.7 2.1,2.4 6.8,7.3 15.1,11.5 24.3,13.8 0,2.8 0.1,5.6 -0.2,8.4 -0.2,2.2 1.4,2.9 3,2.6 0.6,0.1 1.2,0 1.9,-0.4 2.3,-1.3 4.5,-3.8 6.3,-5.7 1.9,-2.1 4.5,-3.7 5.7,-6.2 0.8,-1.9 -0.1,-4 -1.8,-4.3 z"
         id="path250"
         inkscape:connector-curvature="0" /></g><g
       class="st1"
       id="g258"
       style="display:inline"><path
         d="m 1240.2,-1195 c -19.9,1.4 -39.2,13 -44,32 -0.9,-1.9 -1.5,-3.9 -2.4,-5.9 -1.6,-3.8 -7.7,-2 -6.4,2 0.8,2.6 2.3,5 3.6,7.4 0.6,1.1 1.2,2.1 1.9,3.1 0.7,0.9 2.1,2 2.4,3.1 1,3.2 4.3,1.8 5.4,-0.1 0.8,-0.8 2.1,-1.4 3,-2 1.1,-0.8 2.2,-1.6 3.3,-2.5 2,-1.5 4.4,-2.9 6,-4.8 2,-2.5 -0.5,-5.5 -3.4,-4 -2.2,1.2 -4.1,3.3 -6.2,4.8 -0.4,0.3 -0.8,0.6 -1.3,0.9 3.9,-15.4 19.1,-24.6 35.4,-26.4 20.3,-2.3 37.6,16.1 37.1,36.5 -0.5,20.9 -21.1,35 -40.8,34.2 -19.3,-0.8 -28.7,-13.9 -33.2,-30 -1.6,-0.1 -3.1,-0.2 -4.7,-0.1 4.9,49.4 85.4,45.2 84.8,-6.1 -0.1,-22.3 -17.6,-43.7 -40.5,-42.1 z"
         id="path254"
         inkscape:connector-curvature="0" /><path
         d="m 1241.6,-1162.6 c 0,-4.6 -0.5,-9.3 -0.5,-13.9 0,-3.5 -5.4,-3.8 -5.5,0 -0.1,8.3 -2.3,18.6 0.3,26.6 0.3,0.8 0.8,1.3 1.4,1.6 1.4,1.9 2.9,3.7 4.7,5.2 0.9,1 1.8,1.9 2.7,2.8 1.2,1.3 2,2.2 3.8,2.7 2.3,0.7 3.8,-1.6 3.3,-3.6 -0.7,-2.6 -3.5,-4.4 -5.3,-6.3 -1.6,-1.6 -3.3,-3.1 -5.1,-4.5 0.5,-3.5 0.2,-7.2 0.2,-10.6 z"
         id="path256"
         inkscape:connector-curvature="0" /></g><path
       class="st1"
       d="m 666.3,-1157 c 0,-0.2 -0.1,-0.5 -0.2,-0.7 0.4,-2.2 -1,-4.8 -3.7,-4.8 -20.8,-0.6 -41.6,-0.9 -62.5,-0.6 -0.1,-3 -0.3,-6 -0.5,-9 -0.2,-2.4 -3.1,-4.7 -5.4,-3.1 -5.5,3.9 -11.2,8.3 -15.4,13.6 -0.4,0.5 -0.6,1 -0.8,1.5 -1.2,1.2 -1.6,3.2 0.1,4.6 5.5,4.5 11,8.4 17.4,11.6 2.5,1.3 4.9,-0.4 4.9,-3.1 0,-2.4 0,-4.8 -0.1,-7.2 19.5,0.3 39.1,0 58.6,-0.6 -0.6,9.9 -0.4,20.4 0.4,30.4 -25.4,-1 -51,0.2 -76.4,0.7 -4.2,0.1 -3.5,6.5 0.4,6.6 25.9,0.6 52,1.8 77.9,0.7 1.3,-0.1 2.2,-0.6 2.7,-1.3 0.9,-0.2 1.7,-0.9 1.8,-2.3 1.4,-11.8 1.7,-25 0.8,-37 z"
       id="path260"
       inkscape:connector-curvature="0"
       style="display:inline" /><path
       class="st1"
       d="m 766.6,-1128 c -2.9,-1.8 -5.5,-4.5 -8.3,-6.5 -2.7,-1.9 -5.5,-3.7 -8.3,-5.3 -2.4,-1.4 -5.6,0.5 -5.4,3.3 0.2,2.8 0.4,5.5 0.5,8.3 -14.8,-0.2 -29.7,-0.4 -44.5,0.1 -4.2,0 -8.3,0 -12.5,0 0,-10 -1,-20 -0.6,-29.9 0.1,-3.9 -6.2,-4.2 -6.1,0 0.4,11.2 -0.9,22.4 -0.6,33.6 0,1.4 0.7,2.3 1.5,2.9 0.7,0.9 1.7,1.5 3.1,1.5 5.2,0 10.4,0 15.5,0 14.7,0.5 29.6,0.3 44.3,0.1 0.1,3.1 0.1,6.3 0.2,9.4 0.1,3.5 4.1,4.7 6.5,2.6 5.4,-4.7 10.9,-9.4 16.3,-14.1 2.5,-2 0.9,-5.1 -1.6,-6 z"
       id="path262"
       inkscape:connector-curvature="0"
       style="display:inline" /><path
       class="st1"
       d="m 980.1,-1157.5 c 2.9,1.8 5.5,4.5 8.3,6.5 2.7,1.9 5.5,3.7 8.3,5.3 2.4,1.4 5.6,-0.5 5.4,-3.3 -0.2,-2.8 -0.4,-5.5 -0.5,-8.3 14.8,0.2 29.7,0.4 44.5,-0.1 4.2,0 8.3,0 12.5,0 0,10 1,20 0.6,29.9 -0.1,3.9 6.2,4.2 6.1,0 -0.4,-11.2 0.9,-22.4 0.6,-33.6 0,-1.4 -0.7,-2.3 -1.5,-2.9 -0.7,-0.9 -1.7,-1.5 -3.1,-1.5 -5.2,0 -10.4,0 -15.5,0 -14.7,-0.5 -29.6,-0.3 -44.3,-0.1 -0.1,-3.1 -0.1,-6.3 -0.2,-9.4 -0.1,-3.5 -4.1,-4.7 -6.5,-2.6 -5.4,4.7 -10.9,9.4 -16.3,14.1 -2.4,2 -0.8,5.1 1.6,6 z"
       id="path264"
       inkscape:connector-curvature="0"
       style="display:inline" /><g
       class="st1"
       id="g270"
       style="display:inline"><path
         d="m 802.6,-1130.2 c -3.9,0 -7.8,0.1 -11.8,0.1 0.4,-6.9 0.6,-14.2 0.4,-21.4 2.6,-0.2 5.2,-0.4 7.8,-0.6 3,-0.2 4.9,-4.2 2.3,-6.4 -3.5,-2.9 -7,-5.7 -10.5,-8.6 -0.4,-0.4 -0.9,-0.6 -1.4,-0.7 -0.8,-1 -2.2,-1.6 -3.3,-1 -0.4,0.2 -0.7,0.4 -1,0.9 -3.4,4.2 -8,8 -12,11.7 -2.1,2 0.1,5.4 2.5,5.5 2.7,0.1 5.3,0 8,-0.2 -0.2,8.3 0.1,16.6 0.6,24.5 0.1,1.8 1.3,2.8 2.6,3 0.5,0.3 1.1,0.5 1.8,0.5 4.7,0.1 9.5,0.1 14.2,0.2 11.8,0.3 23.6,0.2 35.4,0.1 -2.9,-2.6 -5.8,-5.1 -8.6,-7.7 -8.9,-0.2 -18,-0.2 -27,0.1 z"
         id="path266"
         inkscape:connector-curvature="0" /><path
         d="m 861.5,-1140.8 c -2.7,-0.1 -5.3,0 -8,0.2 0.2,-8.3 -0.1,-16.6 -0.6,-24.5 -0.1,-1.8 -1.3,-2.8 -2.6,-3 -0.5,-0.3 -1.1,-0.5 -1.8,-0.5 -4.7,-0.1 -9.5,-0.1 -14.2,-0.2 -11.8,-0.3 -23.6,-0.2 -35.4,-0.1 2.9,2.6 5.8,5.1 8.6,7.7 9,0.1 18.1,0.1 27.1,-0.1 3.9,0 7.8,-0.1 11.8,-0.1 -0.4,6.9 -0.6,14.2 -0.4,21.4 -2.6,0.2 -5.2,0.4 -7.8,0.6 -3,0.2 -4.9,4.2 -2.3,6.4 3.5,2.9 7,5.7 10.5,8.6 0.4,0.4 0.9,0.6 1.4,0.7 0.8,1 2.2,1.6 3.3,1 0.4,-0.2 0.7,-0.4 1,-0.9 3.4,-4.2 8,-8 12,-11.7 2,-2 -0.1,-5.5 -2.6,-5.5 z"
         id="path268"
         inkscape:connector-curvature="0" /></g><path
       class="st1"
       d="m 967.7,-1166.6 c 0,-0.2 -0.1,-0.3 -0.1,-0.5 0,-1.8 0,-3.5 0,-5.3 0,-3.7 -4.1,-4.6 -6.3,-2.9 -0.6,-0.7 -1.5,-1.1 -2.7,-1.1 -4.5,0 -9,-0.1 -13.5,0.1 -1,0.1 -1.8,0.5 -2.3,1 -0.1,0 -0.2,0 -0.3,0 -5.6,0 -5.1,8.7 0.3,8.6 5.7,0 11.3,0.2 17,-0.1 0,0.1 0,0.1 -0.1,0.2 -0.5,13.9 -0.3,27.9 -0.3,41.8 -2.3,0 -4.5,0 -6.8,0 -22.4,-1.7 -45.8,-0.1 -68.2,0 0.3,-13.8 -0.3,-27.8 -0.5,-41.6 7.2,-0.1 14.4,-0.2 21.6,-0.2 1.4,0 2.8,0 4.2,0 0.2,3 0.4,6.1 0.7,9.1 0.3,2.7 3.4,5.2 6,3.4 5.1,-3.6 9.4,-8 12.3,-13.6 0.1,-0.2 0.1,-0.3 0.2,-0.5 1.3,-0.9 1.9,-3.1 0.4,-4.9 -4.1,-4.7 -8.3,-9.6 -12.8,-13.9 -2,-1.9 -5.8,-1.1 -6.2,1.8 -0.5,3.4 -0.7,6.9 -0.8,10.3 -1.7,0 -3.3,0 -5,0 -7.4,0 -14.8,-0.1 -22.2,-0.2 -2,-1.5 -5.6,-0.7 -5.7,2.7 -0.3,0.7 -0.3,1.6 -0.1,2.5 -0.1,3.5 -0.1,7 -0.2,10.6 -0.3,12.6 -0.7,25.2 -0.3,37.7 0,0.1 -0.1,0.1 -0.1,0.2 -0.3,2.4 1.2,5 4.2,5 23.6,-0.1 48.3,1.8 72.1,0.1 3.3,0 6.6,0 9.8,0 0.7,0 1.4,-0.2 1.9,-0.4 2,-0.2 3.9,-1.6 3.9,-4.3 0.2,-15 0.4,-30.3 -0.1,-45.6 z"
       id="path272"
       inkscape:connector-curvature="0"
       style="display:inline" /><g
       class="st1"
       id="g278"
       style="display:inline"><path
         d="m 1152.3,-1158 c 4,0 3.7,-6.3 -0.3,-6.3 -14.1,0 -29,-1 -43.3,-0.1 -2.3,0 -4.5,0 -6.8,0 0,-3.2 0,-6.4 0,-9.6 0,-2.3 -3.2,-3.7 -4.8,-1.9 -3.4,3.8 -6.7,7.6 -10.1,11.4 -0.8,0.8 -0.9,1.8 -0.6,2.7 0,0.4 0.1,0.9 0.4,1.4 3.4,4.7 6.7,9.4 11,13.4 1.6,1.5 4.3,0.4 4.2,-1.9 -0.1,-3 -0.2,-6.1 -0.2,-9.1 2.3,0 4.6,0 6.8,0 14.6,1 29.5,0 43.7,0 z"
         id="path274"
         inkscape:connector-curvature="0" /><path
         d="m 1179.2,-1138.5 c 0,-0.4 -0.1,-0.9 -0.4,-1.4 -3.4,-4.7 -6.7,-9.4 -11,-13.4 -1.6,-1.5 -4.3,-0.4 -4.2,1.9 0.1,3 0.2,6.1 0.2,9.1 -2.3,0 -4.6,0 -6.8,0 -14.3,-1 -29.2,0.1 -43.4,0.1 -4,0 -3.7,6.3 0.3,6.3 14.1,0 29,1 43.3,0.1 2.3,0 4.5,0 6.8,0 0,3.2 0,6.4 0,9.6 0,2.3 3.2,3.7 4.8,1.9 3.4,-3.8 6.7,-7.6 10.1,-11.4 0.4,-1 0.5,-2 0.3,-2.8 z"
         id="path276"
         inkscape:connector-curvature="0" /></g><g
       class="st1"
       id="g284"
       style="display:inline"><path
         d="m 1382.8,-1191.5 c -0.1,-1.6 -0.9,-2.6 -2.1,-3.2 -0.4,-0.4 -1,-0.8 -1.8,-0.9 -7.9,-1.2 -15.5,-2.6 -23.5,-2.3 -3.1,0.1 -4.6,3.8 -2.3,5.9 3.1,2.8 6,5.7 9,8.6 -2.2,2.2 -4.4,4.4 -6.6,6.6 -3.5,3.1 -7,6.3 -10.4,9.6 2.4,2.2 4.7,4.5 7,6.9 3.3,-3.4 6.6,-6.9 9.7,-10.4 2.2,-2.2 4.3,-4.4 6.5,-6.6 3.1,3.1 6.2,6.2 9.2,9.3 2.2,2.3 6.6,0.5 6.4,-2.7 -0.2,-7 -0.7,-13.9 -1.1,-20.8 z"
         id="path280"
         inkscape:connector-curvature="0" /><path
         d="m 1333.1,-1140 c -2.4,-2.2 -4.7,-4.5 -7,-6.9 -3.3,3.4 -6.6,6.9 -9.7,10.4 -2.2,2.2 -4.3,4.4 -6.5,6.6 -3.1,-3.1 -6.2,-6.2 -9.2,-9.3 -2.2,-2.3 -6.6,-0.5 -6.4,2.7 0.4,6.9 0.9,13.8 1.3,20.7 0.1,1.6 0.9,2.6 2.1,3.2 0.4,0.4 1,0.8 1.8,0.9 7.9,1.2 15.5,2.6 23.5,2.3 3.1,-0.1 4.6,-3.8 2.3,-5.9 -3.1,-2.8 -6,-5.7 -9,-8.6 2.2,-2.2 4.4,-4.4 6.6,-6.6 3.3,-3 6.8,-6.2 10.2,-9.5 z"
         id="path282"
         inkscape:connector-curvature="0" /></g><g
       class="st1"
       id="g290"
       style="display:inline"><path
         d="m 1475.8,-1174.8 c 2.2,-2.2 4.4,-4.4 6.6,-6.6 3.5,-3.1 7,-6.3 10.4,-9.6 -2.4,-2.2 -4.7,-4.5 -7,-6.9 -3.3,3.4 -6.6,6.9 -9.7,10.4 -2.2,2.2 -4.3,4.4 -6.5,6.6 -3.1,-3.1 -6.2,-6.2 -9.2,-9.3 -2.2,-2.3 -6.6,-0.5 -6.4,2.7 0.4,6.9 0.9,13.8 1.3,20.7 0.1,1.6 0.9,2.6 2.1,3.2 0.4,0.4 1,0.8 1.8,0.9 7.9,1.2 15.5,2.6 23.5,2.3 3.1,-0.1 4.6,-3.8 2.3,-5.9 -3.2,-2.7 -6.2,-5.6 -9.2,-8.5 z"
         id="path286"
         inkscape:connector-curvature="0" /><path
         d="m 1438.5,-1143.7 c -0.4,-0.4 -1,-0.8 -1.8,-0.9 -7.9,-1.2 -15.5,-2.6 -23.5,-2.3 -3.1,0.1 -4.6,3.8 -2.3,5.9 3.1,2.8 6,5.7 9,8.6 -2.2,2.2 -4.4,4.4 -6.6,6.6 -3.5,3.1 -7,6.3 -10.4,9.6 2.4,2.2 4.7,4.5 7,6.9 3.3,-3.4 6.6,-6.9 9.7,-10.4 2.2,-2.2 4.3,-4.4 6.5,-6.6 3.1,3.1 6.2,6.2 9.2,9.3 2.2,2.3 6.6,0.5 6.4,-2.7 -0.4,-6.9 -0.9,-13.8 -1.3,-20.7 0.1,-1.6 -0.8,-2.7 -1.9,-3.3 z"
         id="path288"
         inkscape:connector-curvature="0" /></g></g><g
     id="g302"
     transform="translate(-6.5495577,-39.894165)"><g
       id="g300"><path
         d="m 19,40.3 c -6,-1.8 -12.3,2.6 -12.3,9 0,0 0,0 0,0 -0.7,4.5 1,8.7 6,10.3 5,1.6 10.7,-1 12.7,-5.9 C 27.5,48.3 24.7,42 19,40.3 Z"
         id="path294"
         inkscape:connector-curvature="0" /><path
         d="m 52.7,40.3 c -6,-1.8 -12.3,2.6 -12.3,9 0,0 0,0 0,0 -0.7,4.5 1,8.7 6,10.3 5,1.6 10.7,-1 12.7,-5.9 C 61.2,48.3 58.4,42 52.7,40.3 Z"
         id="path296"
         inkscape:connector-curvature="0" /><path
         d="m 86.4,40.3 c -6,-1.8 -12.3,2.6 -12.3,9 0,0 0,0 0,0 -0.7,4.5 1,8.7 6,10.3 5,1.6 10.7,-1 12.7,-5.9 C 94.9,48.3 92.2,42 86.4,40.3 Z"
         id="path298"
         inkscape:connector-curvature="0" /></g></g></svg>