<svg xmlns="http://www.w3.org/2000/svg" width="128" height="128" viewBox="-5 -10 128 128"><path d="M109.356 72.127v28.844H85.043c.269-1.47.416-2.96.443-4.456a26.168 26.168 0 0 0-15.77-24.387zM104.29 105.2v5.352h-8.701v-5.352zm-81.926 0v5.352h-8.744v-5.352zM3.812 60.786h110.315v7.095H3.812Zm55.87 13.468a21.882 21.882 0 0 1 21.585 22.175 21.881 21.881 0 0 1-22.197 21.569 21.867 21.867 0 0 1-15.374-6.642 21.884 21.884 0 0 1-6.174-15.57 21.819 21.819 0 0 1 22.159-21.533zm0 7.427a14.422 14.422 0 1 1-6.026 27.648 14.427 14.427 0 0 1-8.681-13.458 14.41 14.41 0 0 1 4.403-10.15 14.404 14.404 0 0 1 10.303-4.04zm-.143 16.518h-.174a5.332 5.332 0 0 1-3.771-1.617 5.314 5.314 0 0 1 .11-7.59 5.65 5.65 0 0 1 1.734-1.138 2.098 2.098 0 0 1 2.101-1.801 2.155 2.155 0 0 1 2.086 1.885.756.756 0 0 0 .327.158c.748.411 1.396.985 1.885 1.686a2.115 2.115 0 0 1-3.46 2.417 1.243 1.243 0 0 0-.4-.358 1.416 1.416 0 0 0-.522-.153 1.214 1.214 0 0 0-1.164 1.16c0 .294.11.579.31.795.18.173.406.29.654.326h.158a5.556 5.556 0 0 1 3.787 1.607 5.458 5.458 0 0 1 1.517 3.829 5.299 5.299 0 0 1-1.644 3.777c-.49.479-1.063.863-1.69 1.137a2.13 2.13 0 0 1-4.256-.084 3.547 3.547 0 0 0-.316-.158 5.582 5.582 0 0 1-1.886-1.69 2.07 2.07 0 0 1 .495-2.935 2.15 2.15 0 0 1 2.94.511c.105.164.242.306.41.411.163.074.348.116.527.11.295.006.58-.105.795-.31.237-.2.374-.495.369-.811a1.33 1.33 0 0 0-.327-.848 1.24 1.24 0 0 0-.637-.316zM1.911 8.356h15.191L22.68-10H10.813Zm19.557 0H37.08L40.788-10H27.036Zm19.873 0h15.501V-10h-11.75Zm35.175 0L72.85-10H61.098V8.35Zm.553-18.35 3.702 18.35h15.612L90.905-10Zm18.156 0 5.615 18.35h15.217L107.17-10Zm6.115 22.58v8.517a7.309 7.309 0 0 0 3.761 6.642c3.376 1.901 7.095 1.901 9.934-.964v-.005a7.966 7.966 0 0 0 2.37-5.673v-8.517zm.522 17.998v25.973h5.551V32.982a16.527 16.527 0 0 1-4.387-1.617c-.4-.232-.785-.485-1.164-.753zM81.224 12.586v8.517c0 2.133.854 4.177 2.37 5.673a7.82 7.82 0 0 0 5.594 2.344 8.045 8.045 0 0 0 8.006-7.964v-8.518zm-20.126 0v8.517a7.992 7.992 0 0 0 7.99 7.99 7.992 7.992 0 0 0 7.99-7.99v-8.517zm-20.157 0v8.517h.005a7.975 7.975 0 0 0 7.97 7.637 7.978 7.978 0 0 0 7.969-7.637v-8.517zm-20.158 0v8.517h.006a7.978 7.978 0 0 0 7.969 7.637 7.975 7.975 0 0 0 7.97-7.637v-8.517zm-4.255 0H.595v8.517c0 2.117.837 4.145 2.338 5.641a7.962 7.962 0 0 0 5.652 2.333 7.83 7.83 0 0 0 4.751-1.532 7.603 7.603 0 0 0 3.208-6.432zm-6 20.637v23.334h5.552v-25.83c-.158.127-.285.2-.395.285h-.005a14.84 14.84 0 0 1-5.152 2.212zm79.783 5.352h6.162l-.005 17.982h-6.157zm-12.394 0h6.205v17.982h-6.205zM65.57 46.196h6.162v10.36h-6.162ZM36.033 34.982a6.686 6.686 0 1 1-2.55 12.857 6.687 6.687 0 0 1-4.119-6.183 6.645 6.645 0 0 1 1.95-4.725 6.664 6.664 0 0 1 4.719-1.949zm11.514 21.575a13.929 13.929 0 0 0-11.504-6.079 13.921 13.921 0 0 0-11.503 6.079zm-13.8 44.414H8.586V72.127H49.08a26.164 26.164 0 0 0-15.786 23.617 25.567 25.567 0 0 0 .453 5.225z" style="fill-rule:evenodd;stroke-width:1.34840441"/></svg>