<?xml version="1.0" encoding="iso-8859-1"?>
<!-- Generator: Adobe Illustrator 19.0.0, SVG Export Plug-In . SVG Version: 6.00 Build 0)  -->
<svg version="1.1" id="Layer_1" xmlns="http://www.w3.org/2000/svg" xmlns:xlink="http://www.w3.org/1999/xlink" x="0px" y="0px"
	 viewBox="0 0 295.238 295.238" style="enable-background:new 0 0 295.238 295.238;" xml:space="preserve">
<g>
	<g>
		<g>
			<path d="M238.095,95.238H200V42.857c0-18.381-14.957-33.333-33.333-33.333h-9.524c2.633,0,4.762-2.133,4.762-4.762
				c0-2.629-2.129-4.762-4.762-4.762h-19.048c-2.633,0-4.762,2.133-4.762,4.762c0,2.629,2.129,4.762,4.762,4.762h-9.524
				c-18.376,0-33.333,14.952-33.333,33.333v52.381H57.143C25.633,95.238,0,120.871,0,152.381s25.633,57.143,57.143,57.143h180.952
				c31.51,0,57.143-25.633,57.143-57.143S269.605,95.238,238.095,95.238z M128.572,19.047h38.095c13.129,0,23.81,10.681,23.81,23.81
				v52.381h-85.714V42.857h-0.001C104.762,29.728,115.443,19.047,128.572,19.047z M57.143,104.762h38.095H200h38.095
				c24.648,0,44.981,18.829,47.376,42.857h-94.995h-85.714H9.767C12.162,123.59,32.495,104.762,57.143,104.762z M180.471,157.143
				c-2.214,10.852-11.829,19.048-23.329,19.048h-19.048c-11.5,0-21.119-8.195-23.329-19.048H180.471z M238.095,200H57.143
				c-24.648,0-44.981-18.829-47.376-42.857h95.376c2.324,16.124,16.195,28.571,32.952,28.571h19.048
				c16.757,0,30.629-12.448,32.952-28.571h95.376C283.076,181.171,262.743,200,238.095,200z"/>
			<path d="M95.238,214.286h-9.524c-2.633,0-4.762,2.129-4.762,4.762s2.129,4.762,4.762,4.762h9.524
				c2.633,0,4.762-2.129,4.762-4.762C100,216.414,97.871,214.286,95.238,214.286z"/>
			<path d="M123.81,214.286h-9.524c-2.633,0-4.762,2.129-4.762,4.762s2.129,4.762,4.762,4.762h9.524
				c2.633,0,4.762-2.129,4.762-4.762C128.571,216.414,126.443,214.286,123.81,214.286z"/>
			<path d="M152.381,214.286h-9.524c-2.633,0-4.762,2.129-4.762,4.762s2.129,4.762,4.762,4.762h9.524
				c2.633,0,4.762-2.129,4.762-4.762C157.143,216.414,155.014,214.286,152.381,214.286z"/>
			<path d="M180.952,214.286h-9.524c-2.633,0-4.762,2.129-4.762,4.762s2.129,4.762,4.762,4.762h9.524
				c2.633,0,4.762-2.129,4.762-4.762C185.714,216.414,183.586,214.286,180.952,214.286z"/>
			<path d="M209.524,214.286H200c-2.633,0-4.762,2.129-4.762,4.762s2.129,4.762,4.762,4.762h9.524c2.633,0,4.762-2.129,4.762-4.762
				C214.286,216.414,212.157,214.286,209.524,214.286z"/>
			<path d="M95.238,228.571h-9.524c-2.633,0-4.762,2.129-4.762,4.762s2.129,4.762,4.762,4.762h9.524
				c2.633,0,4.762-2.129,4.762-4.762S97.871,228.571,95.238,228.571z"/>
			<path d="M123.81,228.571h-9.524c-2.633,0-4.762,2.129-4.762,4.762s2.129,4.762,4.762,4.762h9.524
				c2.633,0,4.762-2.129,4.762-4.762C128.571,230.7,126.443,228.571,123.81,228.571z"/>
			<path d="M152.381,228.571h-9.524c-2.633,0-4.762,2.129-4.762,4.762s2.129,4.762,4.762,4.762h9.524
				c2.633,0,4.762-2.129,4.762-4.762S155.014,228.571,152.381,228.571z"/>
			<path d="M180.952,228.571h-9.524c-2.633,0-4.762,2.129-4.762,4.762s2.129,4.762,4.762,4.762h9.524
				c2.633,0,4.762-2.129,4.762-4.762S183.586,228.571,180.952,228.571z"/>
			<path d="M209.524,228.571H200c-2.633,0-4.762,2.129-4.762,4.762s2.129,4.762,4.762,4.762h9.524c2.633,0,4.762-2.129,4.762-4.762
				S212.157,228.571,209.524,228.571z"/>
			<path d="M95.238,242.857h-9.524c-2.633,0-4.762,2.129-4.762,4.762s2.129,4.762,4.762,4.762h9.524
				c2.633,0,4.762-2.129,4.762-4.762S97.871,242.857,95.238,242.857z"/>
			<path d="M123.81,242.857h-9.524c-2.633,0-4.762,2.129-4.762,4.762s2.129,4.762,4.762,4.762h9.524
				c2.633,0,4.762-2.129,4.762-4.762C128.571,244.986,126.443,242.857,123.81,242.857z"/>
			<path d="M152.381,242.857h-9.524c-2.633,0-4.762,2.129-4.762,4.762s2.129,4.762,4.762,4.762h9.524
				c2.633,0,4.762-2.129,4.762-4.762S155.014,242.857,152.381,242.857z"/>
			<path d="M180.952,242.857h-9.524c-2.633,0-4.762,2.129-4.762,4.762s2.129,4.762,4.762,4.762h9.524
				c2.633,0,4.762-2.129,4.762-4.762S183.586,242.857,180.952,242.857z"/>
			<path d="M209.524,242.857H200c-2.633,0-4.762,2.129-4.762,4.762s2.129,4.762,4.762,4.762h9.524c2.633,0,4.762-2.129,4.762-4.762
				S212.157,242.857,209.524,242.857z"/>
			<path d="M95.238,257.143h-9.524c-2.633,0-4.762,2.129-4.762,4.762s2.129,4.762,4.762,4.762h9.524
				c2.633,0,4.762-2.129,4.762-4.762C100,259.271,97.871,257.143,95.238,257.143z"/>
			<path d="M123.81,257.143h-9.524c-2.633,0-4.762,2.129-4.762,4.762s2.129,4.762,4.762,4.762h9.524
				c2.633,0,4.762-2.129,4.762-4.762C128.571,259.271,126.443,257.143,123.81,257.143z"/>
			<path d="M152.381,257.143h-9.524c-2.633,0-4.762,2.129-4.762,4.762s2.129,4.762,4.762,4.762h9.524
				c2.633,0,4.762-2.129,4.762-4.762C157.143,259.271,155.014,257.143,152.381,257.143z"/>
			<path d="M180.952,257.143h-9.524c-2.633,0-4.762,2.129-4.762,4.762s2.129,4.762,4.762,4.762h9.524
				c2.633,0,4.762-2.129,4.762-4.762C185.714,259.271,183.586,257.143,180.952,257.143z"/>
			<path d="M209.524,257.143H200c-2.633,0-4.762,2.129-4.762,4.762s2.129,4.762,4.762,4.762h9.524c2.633,0,4.762-2.129,4.762-4.762
				C214.286,259.271,212.157,257.143,209.524,257.143z"/>
			<path d="M95.238,271.429h-9.524c-2.633,0-4.762,2.129-4.762,4.762s2.129,4.762,4.762,4.762h9.524
				c2.633,0,4.762-2.129,4.762-4.762C100,273.557,97.871,271.429,95.238,271.429z"/>
			<path d="M123.81,271.429h-9.524c-2.633,0-4.762,2.129-4.762,4.762s2.129,4.762,4.762,4.762h9.524
				c2.633,0,4.762-2.129,4.762-4.762C128.571,273.557,126.443,271.429,123.81,271.429z"/>
			<path d="M152.381,271.429h-9.524c-2.633,0-4.762,2.129-4.762,4.762s2.129,4.762,4.762,4.762h9.524
				c2.633,0,4.762-2.129,4.762-4.762C157.143,273.557,155.014,271.429,152.381,271.429z"/>
			<path d="M180.952,271.429h-9.524c-2.633,0-4.762,2.129-4.762,4.762s2.129,4.762,4.762,4.762h9.524
				c2.633,0,4.762-2.129,4.762-4.762C185.714,273.557,183.586,271.429,180.952,271.429z"/>
			<path d="M209.524,271.429H200c-2.633,0-4.762,2.129-4.762,4.762s2.129,4.762,4.762,4.762h9.524c2.633,0,4.762-2.129,4.762-4.762
				C214.286,273.557,212.157,271.429,209.524,271.429z"/>
			<path d="M123.81,285.714h-9.524c-2.633,0-4.762,2.129-4.762,4.762s2.129,4.762,4.762,4.762h9.524
				c2.633,0,4.762-2.129,4.762-4.762S126.443,285.714,123.81,285.714z"/>
			<path d="M152.381,285.714h-9.524c-2.633,0-4.762,2.129-4.762,4.762s2.129,4.762,4.762,4.762h9.524
				c2.633,0,4.762-2.129,4.762-4.762S155.014,285.714,152.381,285.714z"/>
			<path d="M180.952,285.714h-9.524c-2.633,0-4.762,2.129-4.762,4.762s2.129,4.762,4.762,4.762h9.524
				c2.633,0,4.762-2.129,4.762-4.762S183.586,285.714,180.952,285.714z"/>
		</g>
	</g>
</g>
<g>
</g>
<g>
</g>
<g>
</g>
<g>
</g>
<g>
</g>
<g>
</g>
<g>
</g>
<g>
</g>
<g>
</g>
<g>
</g>
<g>
</g>
<g>
</g>
<g>
</g>
<g>
</g>
<g>
</g>
</svg>
