<svg height="512pt" viewBox="-4 0 512 512" width="512pt" xmlns="http://www.w3.org/2000/svg"><path d="m404.664062 96.996094-.039062-.03125c-.160156-.113282-.363281-.171875-.523438-.273438.417969-5.734375-2.109374-11.265625-7.164062-14.5-24.550781-15.738281-72.050781-38.714844-119.105469-19.867187v-35.75c0-14.652344-10.617187-26.574219-23.664062-26.574219h-21.203125c-13.058594 0-23.671875 11.921875-23.671875 26.574219v39.15625c-21.214844-3.777344-67.429688-7.515625-111.839844 19.007812-6.734375 4.007813-9.5 11.972657-6.722656 19.34375.277343.753907.792969 1.320313 1.164062 1.996094-.972656.257813-1.984375.476563-2.945312.734375-2.253907.601562-4.410157 1.71875-6.277344 3.253906-52.539063 43.710938-82.671875 106.035156-82.671875 170.972656 0 127.355469 113.152344 230.960938 252.25 230.960938s252.25-103.605469 252.25-230.960938c.003906-72.855468-36.386719-139.9375-99.835938-184.042968zm-195.414062-11.835938c4.6875.980469 9.511719-.203125 13.230469-3.246094 3.75-3.042968 5.886719-7.574218 5.886719-12.410156v-42.929687c0-4.214844 2.480468-7.496094 4.597656-7.496094h21.203125c2.125 0 4.585937 3.28125 4.585937 7.496094v40.527343c0 5.4375 2.730469 10.445313 7.308594 13.382813 4.585938 2.957031 10.300781 3.367187 15.277344 1.078125 34.863281-15.9375 71.738281-2.375 95.328125 10.71875-22.242188-.285156-40.347657 1.480469-54.214844 4.894531-6.277344 1.535157-10.941406 6.648438-11.886719 13.027344-.960937 6.535156 2.117188 12.917969 7.832032 16.292969 13.867187 8.15625 22.949218 17.3125 28.976562 26.308594 4.339844 6.476562 7.136719 12.867187 8.777344 18.730468-20.898438-17.109375-44.335938-23.398437-60.394532-25.648437-5.351562-.753907-9.894531-1.046875-13.242187-1.164063-4.386719-.140625-8.546875 1.46875-11.691406 4.558594-3.121094 3.0625-4.875 7.347656-4.808594 11.742188.761719 48.988281-16.167969 81.851562-26.011719 96.71875-9.394531-19.914063-12.292968-62.761719-11.769531-97.964844.132813-8.128906-5.921875-15.042969-14.109375-16.101563-2.449219-.316406-4.929688-.46875-7.417969-.46875-.476562 0-.964843.085938-1.433593.105469-1.296876.027344-2.601563.171875-3.910157.277344-1.964843.160156-3.929687.351562-5.902343.6875-1.28125.207031-2.558594.484375-3.835938.761718-2.03125.441407-4.054688.9375-6.074219 1.515626-1.230469.355468-2.453125.734374-3.675781 1.144531-2.085938.695312-4.15625 1.453125-6.226562 2.28125-1.164063.46875-2.320313.925781-3.472657 1.429687-2.117187.925782-4.214843 1.910156-6.292969 2.945313-1.089843.535156-2.175781 1.058593-3.253906 1.621093-2.144531 1.128907-4.246094 2.320313-6.34375 3.539063-.980468.574219-1.964844 1.109375-2.9375 1.699219-2.277344 1.382812-4.492187 2.8125-6.683594 4.261718-.71875.476563-1.460937.925782-2.167968 1.402344-2.890625 1.957032-5.703125 3.949219-8.421875 5.960938 3.414062-6.1875 7.058593-11.703125 10.769531-16.664063.203125-.265625.394531-.570312.582031-.828125 3.902344-5.140625 7.863281-9.632812 11.714844-13.535156.019531-.019531.039063-.039062.058594-.058594 5.082031-5.148437 9.898437-9.164062 14.144531-12.351562.609375-.457032 1.257812-.980469 1.839844-1.398438.34375-.25.621094-.421875.953125-.660156 1.175781-.828125 2.335937-1.640625 3.367187-2.320312 5-3.269532 7.746094-8.992188 7.125-14.953126-.601562-5.972656-4.441406-11.046874-10.023437-13.25-.488281-.191406-1.085938-.285156-1.59375-.464843-2.097657-.746094-4.339844-1.402344-6.703125-1.984375-1.453125-.363282-2.921875-.707032-4.464844-.992188-.21875-.039062-.410156-.105468-.640625-.144531-.140625-.027344-.273437.011719-.417969-.007813-10.882812-1.910156-23.722656-2.195312-38.6875-.59375 35.976563-14.914062 70.589844-10.488281 85.152344-7.472656zm42.992188 407.773438c-128.566407 0-233.175782-95.050782-233.175782-211.886719 0-59.089844 27.480469-115.917969 75.34375-155.941406 20.574219-5.472657 42.714844-9.863281 65.136719-13.046875.753906.132812 1.585937.207031 2.308594.363281.601562.121094 1.222656.238281 1.792969.371094-.855469.617187-1.8125 1.398437-2.71875 2.085937-.992188.765625-1.9375 1.453125-2.972657 2.292969-.910156.734375-1.871093 1.609375-2.804687 2.402344-1.15625.984375-2.269532 1.886719-3.464844 2.96875-1.125 1.019531-2.289062 2.203125-3.441406 3.316406-1.058594 1.023437-2.089844 1.957031-3.167969 3.054687-1.925781 1.964844-3.871094 4.128907-5.820313 6.351563-.324218.371094-.636718.675781-.960937 1.050781-9.140625 10.625-18.316406 24.179688-25.746094 41.128906-2.984375 6.835938-.988281 14.46875 4.96875 18.972657 5.953125 4.5 14.128907 4.332031 19.878907-.402344 16.300781-13.417969 46.757812-35.320313 71.738281-33.667969-.25 26.832032 1.171875 85.03125 17.121093 109.871094 2.863282 4.453125 7.734376 7.210938 13 7.363281h.476563c5.09375 0 9.890625-2.429687 12.917969-6.582031 9.890625-13.589844 32.550781-51.085938 32.476562-109.058594 13.933594.914063 42.273438 5.597656 64.800782 27.601563 4.925781 4.796875 12.078124 5.933593 18.191406 2.871093 6.179687-3.070312 9.625-9.492187 8.757812-16.367187-.554687-4.339844-1.535156-9.109375-3.089844-14.105469-.070312-.222656-.105468-.421875-.175781-.648437-1.46875-4.609375-3.566406-9.425781-6.21875-14.300781-.363281-.675782-.628906-1.335938-1.019531-2.011719-1.191406-2.070313-2.648438-4.148438-4.101562-6.21875-.503907-.726563-.894532-1.453125-1.429688-2.175781-1.238281-1.660157-2.746094-3.308594-4.167969-4.960938-.972656-1.132812-1.804687-2.277344-2.863281-3.402344-1.238281-1.320312-2.765625-2.605468-4.140625-3.902344-1.507813-1.429687-2.878906-2.878906-4.550781-4.292968-1.4375-1.210938-3.183594-2.375-4.757813-3.566406-1.898437-1.441407-3.65625-2.910157-5.753906-4.3125 4.769531-.820313 10.722656-1.5625 17.972656-2.089844.285157-.015625.582031-.035156.875-.054688 1.433594-.09375 2.929688-.179687 4.457031-.257812.820313-.039063 1.648438-.078125 2.5-.117188 1.179688-.046875 2.375-.09375 3.613282-.132812 1.507812-.046875 3.0625-.074219 4.65625-.09375.734375-.011719 1.457031-.027344 2.210937-.039063 2.910157-.027343 5.992188-.011719 9.1875.039063l3.425781.304687c2.820313.382813 5.65625.714844 8.488282 1.058594l2.363281.277344c57.878906 40.488281 91.066406 101.679687 91.066406 167.980469 0 116.859374-104.609375 211.910156-233.183593 211.910156zm0 0"/><path d="m57.785156 292.914062c-.765625-5.210937-5.523437-8.882812-10.828125-8.050781-5.207031.761719-8.8125 5.609375-8.050781 10.824219 2.089844 14.191406 6.765625 27.507812 13.898438 39.546875 1.78125 3.003906 4.957031 4.671875 8.210937 4.671875 1.652344 0 3.328125-.429688 4.855469-1.335938 4.542968-2.679687 6.027344-8.546874 3.347656-13.066406-5.789062-9.746094-9.746094-21.019531-11.433594-32.589844zm0 0"/><path d="m48.875 263.984375c.21875.015625.449219.027344.667969.027344 4.96875 0 9.15625-3.84375 9.5-8.878907.761719-10.867187 2.984375-21.40625 6.617187-31.335937 1.804688-4.957031-.734375-10.433594-5.683594-12.234375-4.980468-1.792969-10.4375.734375-12.238281 5.683594-4.234375 11.617187-6.839843 23.914062-7.734375 36.570312-.351562 5.246094 3.605469 9.804688 8.871094 10.167969zm0 0"/></svg>