<svg xmlns="http://www.w3.org/2000/svg" viewBox="0 0 1000 1000" xml:space="preserve"><path d="M253.13 127.65c-7.28 3.83-9.39 12.07-9.39 34.68v19.54l-9.96 3.26c-27.21 8.81-47.32 25.86-55.37 46.56-3.26 8.24-4.21 15.14-4.41 28.16 0 22.8 5.94 36.6 22.23 51.73 12.84 11.88 27.97 19.73 63.42 32.38 31.04 11.11 41.38 16.48 48.86 24.91 8.05 9.2 9.58 18.39 4.98 29.7-9.96 23.76-54.8 28.74-117.83 13.03l-24.91-6.32.58 25.87.57 25.85 9.2 2.3c9.01 2.3 30.46 5.36 51.35 7.47l10.92 1.15.77 15.13c.77 20.5 3.83 23.56 23.18 24.52 7.47.38 16.29-.19 19.16-1.34 7.28-2.87 10.92-12.45 10.92-28.74 0-13.22.19-13.6 5.36-14.75 31.61-6.9 53.07-22.23 64.95-46.37 7.09-14.37 7.28-14.94 7.28-36.59 0-20.69-.38-22.99-5.36-32.57-11.69-22.23-33.72-36.4-82.77-53.84-27.97-9.96-38.89-15.33-46.56-22.8-7.09-7.09-8.81-13.41-6.13-23.18 4.22-15.52 21.08-22.99 52.88-22.99 20.31 0 45.98 3.64 59.78 8.43l8.24 2.87-.58-24.14-.57-24.33-5.75-1.53c-3.07-.77-13.03-2.49-22.03-3.64-9-.96-19.16-2.3-22.42-2.87l-6.32-.96v-17.82c0-21.08-2.3-28.93-9.77-32.76-6.91-3.64-27.79-3.64-34.5 0z"/><path d="M10 506.05v178.18h634.18l-.38-177.8-.58-177.61-123.96-.57c-68.4-.19-124.15 0-124.15.38s2.3 5.75 4.98 11.69c7.66 17.63 9.77 37.36 5.94 56.71-8.05 41.19-36.4 75.3-74.53 89.67-4.6 1.72-5.36 3.06-5.36 9.77 0 14.37-9.77 27.78-26.82 36.59-7.47 4.02-11.3 4.6-29.7 4.6-19.54 0-21.65-.38-30.08-5.17-10.73-6.51-19.73-16.86-23.18-27.2-1.34-4.22-3.83-8.24-5.36-9.01-1.53-.77-12.07-3.07-23.76-5.36-11.5-2.11-26.82-5.56-33.72-7.86l-12.65-3.83-.96-37.94c-1.15-43.68.58-53.84 9.77-62.08 8.43-7.47 17.82-7.09 54.99 2.3 27.97 7.09 32.19 7.66 52.11 7.28 12.26-.38 21.65-1.34 22.03-2.49.58-2.87-18.39-11.5-35.83-16.29-21.65-5.75-47.71-18.78-62.84-31.42l-12.64-10.73H10v178.19zM649.92 632.31V801.1h74.15l3.07-14.94c6.13-28.16 24.33-50.58 51.16-63.42 12.45-5.94 16.48-6.9 32.19-7.47 22.23-.96 37.94 2.87 53.65 13.03 21.27 13.79 36.02 35.44 40.81 59.78l2.3 11.11h74.15V785.4c0-11.69.58-14.37 4.41-18.39 3.83-4.21 4.22-6.32 4.22-27.59 0-22.41-.19-23.18-4.98-27.01-2.68-2.3-7.66-9.39-11.3-15.71-12.64-22.8-37.55-57.67-51.73-71.85-15.71-15.9-36.02-32-61.31-48.28-9.01-5.75-30.46-22.03-47.9-36.02-17.43-13.99-38.7-30.27-47.51-36.02-35.64-23.18-73-38.13-100.4-40.04l-14.94-1.15v168.97zm36.21-147.34c18.78 5.17 41 16.09 63.42 30.85 34.3 22.41 53.46 40.42 75.68 70.7l9.01 12.45-80.09.57c-43.88.19-80.28 0-80.66-.38-.96-.96-3.26-118.02-2.3-118.02.38 0 7.28 1.73 14.94 3.83zM34.33 693.24c-.77.57-1.34 22.61-1.34 48.86v47.51H176.5l2.3-8.24c1.15-4.41 4.6-13.03 7.86-18.97 25.1-47.32 86.41-62.27 131.82-31.8 19.73 13.03 31.8 31.23 37.94 56.9l3.07 13.6h284.7l-.38-54.22-.58-54.03-303.87-.57c-167.08-.19-304.45.19-305.03.96z"/><path d="M254.86 736.34c-21.84 2.87-43.11 18.58-52.88 39.47-4.41 9.39-5.17 13.41-5.17 29.12 0 16.86.57 19.35 6.32 31.04 13.6 27.78 44.64 43.68 73.96 37.93 24.14-4.79 41.19-18.01 51.54-39.85 5.37-11.3 6.13-14.94 6.13-29.12 0-21.08-6.13-35.64-21.27-49.81-16.67-15.9-35.45-21.84-58.63-18.78zm27.97 25.29c17.63 7.28 28.74 23.95 28.74 43.3 0 14.94-4.41 24.72-15.71 34.87-9.77 8.81-18.97 11.69-33.91 10.73-47.71-3.06-59.2-68.21-15.52-87.94 9.38-4.21 27.39-4.79 36.4-.96z"/><path d="M251.41 772.55c-6.13 2.49-14.94 10.73-18.39 17.44-1.53 2.87-2.68 9.58-2.68 15.13 0 32.38 40.04 47.13 62.08 22.8 20.12-22.22 3.64-57.67-26.63-57.29-5.19.01-11.7.97-14.38 1.92zM804.54 735.96c-40.04 6.9-67.06 48.86-56.14 87.37 7.66 27.02 28.16 45.41 56.33 50.58 30.27 5.36 60.93-10.92 74.91-40.23 4.21-9 4.98-13.03 4.98-28.74 0-16.29-.58-19.35-5.56-29.51-9.77-19.73-29.31-35.44-48.28-38.51-14.36-2.3-17.05-2.49-26.24-.96zm30.27 26.63c9.77 4.41 22.61 18.78 25.48 28.55 9.2 30.27-12.64 59.78-44.07 59.78-18.78 0-33.34-8.81-42.34-25.87-5.56-10.54-5.56-29.51.19-40.43 4.6-8.81 15.33-19.16 24.14-22.99 8.63-3.63 27.4-3.25 36.6.96z"/><path d="M799.36 774.09c-25.48 13.6-25.29 49.43.38 62.65 8.62 4.6 24.91 3.83 34.29-1.53 14.75-8.24 21.84-30.65 14.37-45.21-3.64-6.9-12.45-14.94-18.97-17.44-8.42-3.26-22.59-2.5-30.07 1.53z"/></svg>