<?xml version="1.0" encoding="UTF-8" standalone="no"?>
<!-- Generator: Adobe Illustrator 16.0.0, SVG Export Plug-In . SVG Version: 6.00 Build 0)  -->

<svg
   xmlns:dc="http://purl.org/dc/elements/1.1/"
   xmlns:cc="http://creativecommons.org/ns#"
   xmlns:rdf="http://www.w3.org/1999/02/22-rdf-syntax-ns#"
   xmlns:svg="http://www.w3.org/2000/svg"
   xmlns="http://www.w3.org/2000/svg"
   xmlns:sodipodi="http://sodipodi.sourceforge.net/DTD/sodipodi-0.dtd"
   xmlns:inkscape="http://www.inkscape.org/namespaces/inkscape"
   version="1.1"
   id="Capa_1"
   x="0px"
   y="0px"
   width="46.457px"
   height="46.457px"
   viewBox="0 0 46.457 46.457"
   style="enable-background:new 0 0 46.457 46.457;"
   xml:space="preserve"
   sodipodi:docname="vaccinate.svg"
   inkscape:version="0.92.4 (5da689c313, 2019-01-14)"><metadata
   id="metadata41"><rdf:RDF><cc:Work
       rdf:about=""><dc:format>image/svg+xml</dc:format><dc:type
         rdf:resource="http://purl.org/dc/dcmitype/StillImage" /></cc:Work></rdf:RDF></metadata><defs
   id="defs39" /><sodipodi:namedview
   pagecolor="#ffffff"
   bordercolor="#666666"
   borderopacity="1"
   objecttolerance="10"
   gridtolerance="10"
   guidetolerance="10"
   inkscape:pageopacity="0"
   inkscape:pageshadow="2"
   inkscape:window-width="1920"
   inkscape:window-height="1001"
   id="namedview37"
   showgrid="false"
   inkscape:zoom="5.0799663"
   inkscape:cx="23.2285"
   inkscape:cy="23.2285"
   inkscape:window-x="-9"
   inkscape:window-y="-9"
   inkscape:window-maximized="1"
   inkscape:current-layer="g4" />
<g
   id="g4">
	<path
   d="m 38.049216,14.95 1.35,-2.373 -5.438,-3.094 5.392,-9.483 -3.606,1.75 -3.762,6.611 -5.55,-3.157 -16.036,28.192 5.284,3.006 -1.449,2.547 -4.23,-2.405 -2.0279998,3.562 11.1759998,6.352 2.027,-3.561 -5.143,-2.924 1.447,-2.547 5.877,3.344 14.601,-25.664 c -21.160686,33.544801 -20.619488,33.910776 0.088,-0.156 z m -15.365,23.355 -4.305,-2.449 6.49,-11.408 3.177,1.806 0.866,-1.521 -7.483,-4.251 -0.866,1.518 2.504,1.424 -6.49,11.407 -3.713,-2.112 14.248,-25.049 9.821,5.585 z m -0.653,-18.848 5.674,-9.979 7.48,4.255 -1.191,2.099 -1.853,-1.054 -0.56,0.981 1.853,1.055 -1.788,3.141 -1.776,-1.01 -0.561,0.981 1.778,1.012 -1.577,2.773 z m 2.498,8.527 1.809,1.029 -0.559,0.981 -1.809,-1.029 z m -2.017,3.78 1.809,1.029 -0.559,0.98 -1.809,-1.029 z"
   id="path2"
   inkscape:connector-curvature="0"
   sodipodi:nodetypes="ccccccccccccccccccccccccccccccccccccccccccccccccccccccc" />
</g>
<g
   id="g6">
</g>
<g
   id="g8">
</g>
<g
   id="g10">
</g>
<g
   id="g12">
</g>
<g
   id="g14">
</g>
<g
   id="g16">
</g>
<g
   id="g18">
</g>
<g
   id="g20">
</g>
<g
   id="g22">
</g>
<g
   id="g24">
</g>
<g
   id="g26">
</g>
<g
   id="g28">
</g>
<g
   id="g30">
</g>
<g
   id="g32">
</g>
<g
   id="g34">
</g>
</svg>