<?xml version="1.0" encoding="UTF-8" standalone="no"?>
<svg
   xmlns:dc="http://purl.org/dc/elements/1.1/"
   xmlns:cc="http://creativecommons.org/ns#"
   xmlns:rdf="http://www.w3.org/1999/02/22-rdf-syntax-ns#"
   xmlns:svg="http://www.w3.org/2000/svg"
   xmlns="http://www.w3.org/2000/svg"
   xmlns:sodipodi="http://sodipodi.sourceforge.net/DTD/sodipodi-0.dtd"
   xmlns:inkscape="http://www.inkscape.org/namespaces/inkscape"
   version="1.1"
   x="0px"
   y="0px"
   viewBox="0 0 512.00006 512"
   enable-background="new 0 0 550 550"
   xml:space="preserve"
   id="svg24"
   sodipodi:docname="watermelon.svg"
   width="512.00006"
   height="512"
   inkscape:version="0.92.3 (2405546, 2018-03-11)"><metadata
     id="metadata30"><rdf:RDF><cc:Work
         rdf:about=""><dc:format>image/svg+xml</dc:format><dc:type
           rdf:resource="http://purl.org/dc/dcmitype/StillImage" /><dc:title></dc:title></cc:Work></rdf:RDF></metadata><defs
     id="defs28" /><sodipodi:namedview
     pagecolor="#ffffff"
     bordercolor="#666666"
     borderopacity="1"
     objecttolerance="10"
     gridtolerance="10"
     guidetolerance="10"
     inkscape:pageopacity="0"
     inkscape:pageshadow="2"
     inkscape:window-width="684"
     inkscape:window-height="480"
     id="namedview26"
     showgrid="false"
     fit-margin-top="0"
     fit-margin-left="0"
     fit-margin-right="0"
     fit-margin-bottom="0"
     inkscape:zoom="0.34327273"
     inkscape:cx="346.3072"
     inkscape:cy="187.25"
     inkscape:window-x="0"
     inkscape:window-y="0"
     inkscape:window-maximized="0"
     inkscape:current-layer="svg24" /><g
     id="g18"
     transform="translate(-19,-19)"><path
       d="m 449.399,19 -15.406,15.406 c 48.651,52.473 75.307,120.334 75.255,192.273 -0.055,75.453 -29.469,146.391 -82.823,199.745 -53.408,53.408 -124.424,82.824 -199.95,82.824 -0.004,0 0,0 -0.004,0 C 154.609,509.247 86.822,482.59 34.405,433.992 L 19,449.399 C 75.533,502.1 148.796,530.998 226.473,531 307.813,531.002 384.286,499.326 441.806,441.806 499.273,384.34 530.949,307.934 531,226.665 531.049,148.916 502.153,75.587 449.399,19 Z"
       id="path2"
       inkscape:connector-curvature="0" /><g
       id="g16"><path
         d="m 268.287,391.285 c -3.654,9.094 -6.07,18.327 -4.984,22.384 2.101,7.836 7.889,12.065 12.269,12.065 0.625,0 1.247,-0.082 1.848,-0.243 3.174,-0.85 4.882,-3.687 5.617,-5.302 1.564,-3.433 1.817,-7.806 0.695,-11.994 -0.819,-3.056 -6.383,-9.811 -15.445,-16.91 z"
         id="path4"
         inkscape:connector-curvature="0" /><path
         d="m 409.563,190.249 c 4.188,-1.123 7.847,-3.527 10.039,-6.599 1.031,-1.445 2.634,-4.343 1.783,-7.517 -1.105,-4.127 -6.082,-7.009 -12.102,-7.009 -1.72,0 -3.467,0.235 -5.193,0.697 -3.054,0.819 -9.803,6.375 -16.897,15.427 6.937,2.793 14.756,5.233 20.059,5.233 1.255,0.001 1.987,-0.145 2.311,-0.232 z"
         id="path6"
         inkscape:connector-curvature="0" /><path
         d="m 165.714,408.196 c -1.122,4.188 -0.868,8.559 0.696,11.993 0.736,1.616 2.445,4.452 5.619,5.302 0.603,0.162 1.224,0.244 1.848,0.244 4.379,0 10.167,-4.23 12.267,-12.067 1.085,-4.048 -1.32,-13.254 -4.963,-22.333 -7.694,6.04 -14.381,12.811 -15.467,16.861 z"
         id="path8"
         inkscape:connector-curvature="0" /><path
         d="m 365.508,354.661 c -2.964,-2.965 -12.139,-5.485 -21.823,-6.87 1.385,9.684 3.905,18.86 6.87,21.826 3.415,3.415 7.889,5.454 11.967,5.454 1.776,0 4.288,-0.395 6.168,-2.275 2.323,-2.323 2.383,-5.633 2.213,-7.4 -0.361,-3.756 -2.328,-7.669 -5.395,-10.735 z"
         id="path10"
         inkscape:connector-curvature="0" /><path
         d="m 409.563,267.411 c -0.397,-0.106 -1.119,-0.232 -2.312,-0.232 -5.569,0 -13.425,2.557 -20.004,5.218 6.036,7.684 12.797,14.358 16.843,15.442 1.726,0.462 3.472,0.697 5.192,0.697 6.021,0 10.998,-2.883 12.103,-7.01 0.851,-3.174 -0.751,-6.071 -1.782,-7.517 -2.192,-3.071 -5.852,-5.476 -10.04,-6.598 z"
         id="path12"
         inkscape:connector-curvature="0" /><path
         d="M 419.151,49.249 234.196,234.203 49.247,419.151 c 48.443,44.64 110.971,69.102 177.224,69.103 69.923,10e-4 135.662,-27.229 185.107,-76.676 49.393,-49.392 76.623,-115.062 76.674,-184.914 C 488.301,160.338 463.84,97.744 419.151,49.249 Z M 206.423,419.104 c -4.359,16.266 -17.743,27.627 -32.546,27.627 -2.459,0 -4.909,-0.323 -7.282,-0.958 -8.396,-2.25 -15.428,-8.401 -19.291,-16.878 -3.602,-7.907 -4.266,-17.188 -1.869,-26.132 2.122,-7.918 8.582,-16.25 19.748,-25.473 7.458,-6.16 14.393,-10.5 14.684,-10.681 2.467,-1.538 5.46,-1.984 8.27,-1.231 2.808,0.752 5.178,2.636 6.546,5.201 2.75,5.155 16.239,31.732 11.74,48.525 z M 362.5,183.973 c 3.092,-4.96 19.363,-29.932 36.156,-34.431 3.497,-0.937 7.073,-1.413 10.627,-1.413 15.752,0 28.765,9.071 32.382,22.57 2.251,8.397 0.438,17.563 -4.972,25.146 -5.046,7.071 -12.751,12.286 -21.695,14.683 -2.348,0.629 -4.954,0.948 -7.746,0.948 -16.509,0 -38.346,-11.39 -40.782,-12.688 -2.565,-1.368 -4.448,-3.738 -5.201,-6.546 -0.753,-2.808 -0.307,-5.802 1.231,-8.269 z m -60.357,244.919 c -3.861,8.478 -10.892,14.63 -19.29,16.879 -2.372,0.637 -4.822,0.958 -7.282,0.958 -14.804,0 -28.188,-11.36 -32.548,-27.626 -2.122,-7.918 -0.694,-18.364 4.365,-31.935 3.378,-9.063 7.215,-16.289 7.377,-16.592 1.367,-2.565 3.738,-4.448 6.546,-5.201 2.809,-0.753 5.802,-0.306 8.269,1.231 4.96,3.091 29.931,19.362 34.43,36.153 2.398,8.947 1.735,18.227 -1.867,26.133 z m 81.394,-41.251 c -5.432,5.433 -12.896,8.425 -21.015,8.425 -9.666,0 -19.438,-4.229 -26.813,-11.604 -12.293,-12.295 -13.899,-42.056 -14.096,-47.897 -0.098,-2.905 1.013,-5.722 3.068,-7.777 2.056,-2.056 4.88,-3.167 7.777,-3.068 5.841,0.197 35.603,1.803 47.895,14.095 6.548,6.548 10.614,14.916 11.448,23.564 0.896,9.271 -2.116,18.115 -8.264,24.262 z m 25.745,-78.111 c -3.554,0 -7.129,-0.476 -10.626,-1.413 -7.918,-2.121 -16.251,-8.581 -25.475,-19.748 -6.16,-7.457 -10.5,-14.392 -10.682,-14.685 -1.538,-2.466 -1.983,-5.461 -1.231,-8.269 0.752,-2.808 2.636,-5.178 5.201,-6.547 2.436,-1.298 24.272,-12.688 40.781,-12.688 2.792,0 5.398,0.319 7.746,0.948 8.944,2.396 16.649,7.611 21.696,14.683 5.412,7.583 7.224,16.748 4.973,25.146 -3.616,13.502 -16.63,22.573 -32.383,22.573 z"
         id="path14"
         inkscape:connector-curvature="0" /></g></g></svg>