<?xml version="1.0" encoding="iso-8859-1"?>
<!-- Generator: Adobe Illustrator 16.0.0, SVG Export Plug-In . SVG Version: 6.00 Build 0)  -->
<!DOCTYPE svg PUBLIC "-//W3C//DTD SVG 1.1//EN" "http://www.w3.org/Graphics/SVG/1.1/DTD/svg11.dtd">
<svg version="1.1" id="Capa_1" xmlns="http://www.w3.org/2000/svg" xmlns:xlink="http://www.w3.org/1999/xlink" x="0px" y="0px"
	 width="489.308px" height="489.308px" viewBox="0 0 489.308 489.308" style="enable-background:new 0 0 489.308 489.308;"
	 xml:space="preserve">
<g>
	<path d="M308.188,347.898h-30.471l-4.259,1.686c-3.32,1.315-6.817,1.976-10.385,1.976c-4.872,0-9.608-1.318-13.778-3.661h-48.479
		v-47.004h43.835l11.008-14.315h-54.843v-49.627h92.985l11.01-14.312h-104v-53.686h107.376v49.287l14.315-18.619v-30.668h23.573
		l4.788-6.236c2.703-3.479,6.063-6.202,9.817-8.079h-38.179v-52.493h110.15v52.493h-46.846c3.81,1.882,7.204,4.61,9.851,8.027
		l4.828,6.288h32.167v41.853l14.315,18.618V39.713c0-9.208-7.491-16.698-16.693-16.698H16.698C7.485,23.015,0,30.512,0,39.713
		v365.861c0,5.651,2.84,10.637,7.154,13.663v2.633h5.989c1.149,0.253,2.331,0.398,3.554,0.398h299.082v-89.406l-7.586,2.998v12.038
		H308.188z M322.503,37.325h107.76c1.315,0,2.391,1.072,2.391,2.388v48.121h-110.15V37.325z M200.811,37.325h107.376v50.509H200.811
		V37.325z M200.811,102.146h107.376v52.493H200.811V102.146z M66.006,407.549H15.458c-0.673-0.416-1.149-1.134-1.149-1.987v-43.344
		h51.697V407.549z M66.006,347.898H14.309v-47.004h51.697V347.898z M66.006,286.585H14.309v-49.629h51.697V286.585z M66.006,222.639
		H14.309v-53.686h51.697V222.639z M66.006,154.639H14.309v-52.493h51.697V154.639z M186.494,407.549H80.319v-45.331h106.175V407.549
		z M186.494,347.898H80.319v-47.004h106.175V347.898z M186.494,286.585H80.319v-49.629h106.175V286.585z M186.494,222.639H80.319
		v-53.686h106.175V222.639z M186.494,154.639H80.319v-52.493h106.175V154.639z M186.494,87.828H80.319V37.319h106.175V87.828z
		 M308.188,407.549H200.811v-45.331h107.376V407.549z M489.308,314.896c0,1.242-0.396,2.479-1.182,3.52
		c-1.573,2.096-4.38,2.89-6.82,1.915l-72.97-28.821v168.938c0,3.239-2.62,5.846-5.86,5.846h-58.472c-3.23,0-5.851-2.618-5.851-5.846
		V291.503l-72.97,28.827c-2.451,0.975-5.242,0.181-6.816-1.915c-1.588-2.102-1.578-4.996,0.031-7.087l110.208-143.355
		c1.114-1.436,2.821-2.281,4.64-2.281c1.81,0,3.535,0.845,4.639,2.281l110.206,143.355
		C488.897,312.384,489.308,313.644,489.308,314.896z"/>
</g>
<g>
</g>
<g>
</g>
<g>
</g>
<g>
</g>
<g>
</g>
<g>
</g>
<g>
</g>
<g>
</g>
<g>
</g>
<g>
</g>
<g>
</g>
<g>
</g>
<g>
</g>
<g>
</g>
<g>
</g>
</svg>
