<?xml version="1.0" encoding="UTF-8" standalone="no"?>
<!-- Generator: Adobe Illustrator 19.0.0, SVG Export Plug-In . SVG Version: 6.00 Build 0)  -->

<svg
   xmlns:dc="http://purl.org/dc/elements/1.1/"
   xmlns:cc="http://creativecommons.org/ns#"
   xmlns:rdf="http://www.w3.org/1999/02/22-rdf-syntax-ns#"
   xmlns:svg="http://www.w3.org/2000/svg"
   xmlns="http://www.w3.org/2000/svg"
   xmlns:sodipodi="http://sodipodi.sourceforge.net/DTD/sodipodi-0.dtd"
   xmlns:inkscape="http://www.inkscape.org/namespaces/inkscape"
   version="1.1"
   id="Layer_1"
   x="0px"
   y="0px"
   viewBox="0 0 512 512"
   style="enable-background:new 0 0 512 512;"
   xml:space="preserve"
   sodipodi:docname="add-custom.svg"
   inkscape:version="0.92.3 (2405546, 2018-03-11)"><metadata
   id="metadata45"><rdf:RDF><cc:Work
       rdf:about=""><dc:format>image/svg+xml</dc:format><dc:type
         rdf:resource="http://purl.org/dc/dcmitype/StillImage" /></cc:Work></rdf:RDF></metadata><defs
   id="defs43" /><sodipodi:namedview
   pagecolor="#ffffff"
   bordercolor="#666666"
   borderopacity="1"
   objecttolerance="10"
   gridtolerance="10"
   guidetolerance="10"
   inkscape:pageopacity="0"
   inkscape:pageshadow="2"
   inkscape:window-width="1920"
   inkscape:window-height="1017"
   id="namedview41"
   showgrid="false"
   inkscape:zoom="0.4609375"
   inkscape:cx="256"
   inkscape:cy="256"
   inkscape:window-x="-8"
   inkscape:window-y="-8"
   inkscape:window-maximized="1"
   inkscape:current-layer="g8" />
<path
   style="fill:#999999;"
   d="M512,0h-40v16h24v32h16V0z M432,0h-40v16h40V0z M352,0h-40v16h40V0z M272,0h-40v16h40V0z M192,0h-40  v16h40V0z M112,0H72v16h40V0z M32,0H0v16h32V0z M16,48H0v40h16V48z M16,128H0v40h16V128z M16,208H0v40h16V208z M16,288H0v40h16V288z   M16,368H0v40h16V368z M16,448H0v40h16V448z M56,496H16v16h40V496z M136,496H96v16h40V496z M216,496h-40v16h40V496z M296,496h-40v16  h40V496z M376,496h-40v16h40V496z M456,496h-40v16h40V496z M512,488h-16v8l0,0v16h16V488z M512,408h-16v40h16V408z M512,328h-16v40  h16V328z M512,248h-16v40h16V248z M512,168h-16v40h16V168z M512,88h-16v40h16V88z"
   id="path2" />
<g
   id="g8">
	<rect
   x="244"
   y="175.976"
   style="fill:#c9c9c9;fill-opacity:1"
   width="24"
   height="160.08"
   id="rect4" />
	<rect
   x="175.976"
   y="244"
   style="fill:#c9c9c9;fill-opacity:1"
   width="160.08"
   height="24"
   id="rect6" />
</g>
<g
   id="g10">
</g>
<g
   id="g12">
</g>
<g
   id="g14">
</g>
<g
   id="g16">
</g>
<g
   id="g18">
</g>
<g
   id="g20">
</g>
<g
   id="g22">
</g>
<g
   id="g24">
</g>
<g
   id="g26">
</g>
<g
   id="g28">
</g>
<g
   id="g30">
</g>
<g
   id="g32">
</g>
<g
   id="g34">
</g>
<g
   id="g36">
</g>
<g
   id="g38">
</g>
</svg>