<?xml version="1.0" encoding="UTF-8" standalone="no"?>
<svg
   xmlns:dc="http://purl.org/dc/elements/1.1/"
   xmlns:cc="http://creativecommons.org/ns#"
   xmlns:rdf="http://www.w3.org/1999/02/22-rdf-syntax-ns#"
   xmlns:svg="http://www.w3.org/2000/svg"
   xmlns="http://www.w3.org/2000/svg"
   xmlns:sodipodi="http://sodipodi.sourceforge.net/DTD/sodipodi-0.dtd"
   xmlns:inkscape="http://www.inkscape.org/namespaces/inkscape"
   height="512pt"
   viewBox="0 0 512 512"
   width="512pt"
   version="1.1"
   id="svg4"
   sodipodi:docname="dipping.svg"
   inkscape:version="0.92.4 (5da689c313, 2019-01-14)">
  <metadata
     id="metadata10">
    <rdf:RDF>
      <cc:Work
         rdf:about="">
        <dc:format>image/svg+xml</dc:format>
        <dc:type
           rdf:resource="http://purl.org/dc/dcmitype/StillImage" />
      </cc:Work>
    </rdf:RDF>
  </metadata>
  <defs
     id="defs8" />
  <sodipodi:namedview
     pagecolor="#ffffff"
     bordercolor="#666666"
     borderopacity="1"
     objecttolerance="10"
     gridtolerance="10"
     guidetolerance="10"
     inkscape:pageopacity="0"
     inkscape:pageshadow="2"
     inkscape:window-width="1920"
     inkscape:window-height="1001"
     id="namedview6"
     showgrid="false"
     inkscape:zoom="0.48889805"
     inkscape:cx="-363.89041"
     inkscape:cy="1.8361721"
     inkscape:window-x="-9"
     inkscape:window-y="-9"
     inkscape:window-maximized="1"
     inkscape:current-layer="svg4" />
  <path
     d="m 498.53406,383.82002 h -31 V 268.0583 c 0,-31.02344 -17.83203,-57.61328 -46.53125,-69.38672 -326.937498,0 0,0 -326.937498,0 -28.699219,11.77344 -46.53125,38.36328 -46.53125,69.38672 v 115.76172 h -31 c -8.2851559,0 -14.9999999,6.71484 -14.9999999,15 0,8.28516 6.714844,15 14.9999999,15 H 498.53406 c 8.28516,0 15,-6.71484 15,-15 0,-8.28516 -6.71484,-15 -15,-15 z M 105.45203,226.42549 c 304.16406,0 0,0 304.16406,0 17.48047,7.17187 27.91797,22.73437 27.91797,41.63281 v 39.76172 H 77.534062 V 268.0583 c 0,-18.89844 10.4375,-34.46094 27.917968,-41.63281 z M 77.534062,383.82002 v -46 H 437.53406 v 46 z"
     id="path2"
     inkscape:connector-curvature="0"
     sodipodi:nodetypes="scsccscssssssccsccscccccc" />
  <rect
     style="fill:#ffffff;fill-opacity:1;stroke:none;stroke-width:0.67499995;stroke-miterlimit:4;stroke-dasharray:none;stroke-opacity:0.37241378"
     id="rect817"
     width="331.35742"
     height="71.333893"
     x="87.441544"
     y="177.57445" />
  <path
     id="path821"
     d="M 374.44444,203.99773 H 348.7265 c -0.0743,-0.97125 0.92956,-4.28179 -1.77397,-7.14478 -2.69446,-2.87748 -6.06844,-2.082 -7.01431,-2.21429 2.1871,-6.09924 1.10895,-10.14366 1.39888,-20.86898 0,-3.87953 -3.14385,-7.01975 -7.01976,-7.01975 -3.8759,0 -7.01975,3.14022 -7.01975,7.01975 v 12.74027 c 0,4.40321 -2.76695,8.12871 -6.04307,8.12871 h -10.06213 c -3.27612,0 -6.04669,-3.7255 -6.04669,-8.12871 v -12.74027 c 0,-3.87953 -3.14022,-7.01975 -7.01975,-7.01975 -3.87409,0 -7.01975,3.14022 -7.01975,7.01975 v 12.74027 c 0,2.86842 0.4965,5.61001 1.39888,8.12871 -0.97123,0.1359 -4.30353,-0.67045 -7.0143,2.21429 -2.70172,2.87205 -1.69969,6.19347 -1.77397,7.14478 h -29.03575 c -3.87953,0 -7.01975,3.14022 -7.01975,7.02156 v 8.34433 c 0,11.13303 9.05646,20.18948 20.18948,20.18948 h 18.09298 l 0.77192,12.38875 h -82.49022 c -11.39576,0 -21.62097,5.10082 -28.51568,13.14618 -0.001,10e-4 -0.004,0.004 -0.004,0.005 -0.067,-10e-4 -0.13049,-0.011 -0.1957,-0.011 h -4.09515 c -7.39665,0 -13.41616,-6.01772 -13.41616,-13.41436 0,-3.87771 -3.14204,-7.01975 -7.01976,-7.01975 -3.87587,-1.2e-4 -7.01972,3.14192 -7.01972,7.01962 0,14.04676 10.60753,25.65816 24.2321,27.25998 -10e-4,0.004 -10e-4,0.005 -10e-4,0.006 -0.98393,3.32685 -1.50759,6.83854 -1.51666,10.47344 -0.54179,29.51955 -1.49309,38.34226 -0.41132,53.6103 l 2.35743,33.83759 c 0.2573,3.6784 3.3178,6.52869 7.00706,6.52869 h 45.06845 c 3.78166,0 6.88384,-2.99526 7.01612,-6.77694 l 1.26298,-36.48676 h 29.66631 l 1.26841,36.48676 c 0.1305,3.78168 3.23446,6.77694 7.01613,6.77694 h 45.14819 c 3.78167,0 6.88384,-2.99526 7.01612,-6.77694 l 1.59095,-45.81319 c 6.22428,-6.02315 10.09836,-14.45626 10.09836,-23.77909 v -24.61203 c 7.6612,-1.67973 13.56295,-8.28816 14.0685,-16.40417 l 1.65255,-26.44638 h 14.77519 c 11.13301,0 20.18946,-9.05646 20.18946,-20.18948 v -8.34433 c 0,-3.88134 -3.14021,-7.02156 -7.01974,-7.02156 z m -106.59365,21.51586 c -3.3921,0 -6.14999,-2.75787 -6.14999,-6.14997 v -1.32458 h 22.89484 l 0.4693,7.47455 z M 213.9125,369.34416 h -7.58508 l 1.01473,-29.22238 h 7.58691 z m 70.92776,-36.48493 -1.2648,36.48493 c -1.95153,0 -7.32417,0 -9.87004,0 L 272.437,332.85923 c -0.13049,-3.78168 -3.23263,-6.77694 -7.01431,-6.77694 h -64.86111 c -3.78167,0 -6.88384,2.99526 -7.01613,6.77694 l -1.2684,36.48493 c -1.99685,0 -7.4927,0 -10.10924,0 l -1.90443,-27.30706 c -1.20861,-17.33738 0.44939,-36.05187 0.44939,-52.53397 0,-12.96861 10.54954,-23.52178 23.5127,-23.52178 h 83.37086 v 0.0181 c 0.59434,9.43155 8.45668,16.82095 17.90995,16.82095 h 11.23271 v 24.19584 c 0,10.44264 -8.4893,19.06603 -19.06603,19.06603 h -5.81295 c -3.78712,0 -6.88387,2.99528 -7.01975,6.77694 z m 20.45042,36.48493 h -7.66484 l 1.0111,-29.23507 c 2.65823,-0.0761 5.24036,-0.46931 7.70831,-1.13794 z m 25.4878,-103.77957 c -0.32615,1.83921 -1.9316,3.21451 -3.84148,3.21451 h -21.43072 c -2.06568,0 -3.76716,-1.62356 -3.894,-3.65846 l -3.53343,-56.44248 h 36.2856 c -3.77442,60.2006 -3.50624,56.4769 -3.58597,56.88643 z m 36.64622,-46.20097 c 0,3.3921 -2.7579,6.14997 -6.14999,6.14997 h -13.89453 l 0.46749,-7.47455 h 19.57703 z m 0,0"
     inkscape:connector-curvature="0"
     style="stroke-width:0.46387604" />
  <rect
     style="fill:#ffffff;fill-opacity:1;stroke:none;stroke-width:0.8020919;stroke-miterlimit:4;stroke-dasharray:none;stroke-opacity:0.37241378"
     id="rect832"
     width="206.71487"
     height="45.638348"
     x="151.87215"
     y="337.88394"
     ry="0" />
</svg>
