<svg height='100px' width='100px'  fill="#000000" xmlns="http://www.w3.org/2000/svg" xmlns:xlink="http://www.w3.org/1999/xlink" version="1.1" x="0px" y="0px" viewBox="0 0 100 92.725" enable-background="new 0 0 100 92.725" xml:space="preserve"><path d="M58.089,25.296c-0.48,0-0.905-0.344-0.992-0.833c-0.088-0.493-2.065-12.179,4.429-20.838  c0.258-0.344,0.707-0.487,1.115-0.355c0.41,0.131,0.691,0.508,0.701,0.938c0.002,0.09,0.224,8.982,2.274,12.928  c0.258,0.494,0.065,1.104-0.429,1.361c-0.492,0.257-1.104,0.065-1.36-0.43c-1.449-2.786-2.065-7.49-2.322-10.627  c-3.961,7.595-2.439,16.571-2.422,16.671c0.098,0.549-0.27,1.072-0.817,1.169C58.206,25.291,58.146,25.296,58.089,25.296z"></path><path fill="none" d="M54.059,50.273c-0.542-0.264-0.954-0.142-1.203,0.007c-0.854,0.504-0.979,2.049-0.995,2.354  c-0.016,0.279,0.198,0.517,0.476,0.531c0.01,0.001,0.019,0.001,0.028,0.001c0.266,0,0.488-0.208,0.503-0.477  c0.028-0.525,0.224-1.377,0.502-1.541c0.023-0.014,0.082-0.048,0.252,0.033c0.25,0.122,0.552,0.016,0.673-0.235  S54.31,50.393,54.059,50.273z"></path><circle cx="61.925" cy="31.935" r="1.246"></circle><path d="M99.052,5.493c-4.961-0.301-9.545,0.315-13.42,1.242c-0.002-0.232,0.276-0.797,0.706-1.289  c0.131-0.149,0.162-0.361,0.08-0.541c-0.082-0.181-0.261-0.296-0.459-0.296c-3.719,0-8.782,3.771-10.566,5.197  c-0.119-4.94-3.271-9.197-3.427-9.404c-0.171-0.227-0.43-0.371-0.712-0.397c-0.29-0.024-0.564,0.068-0.773,0.259  c-4.225,3.854-3.445,11.122-3.116,13.22c-0.308,0.287-0.625,0.579-0.949,0.877c-1.315,1.212-2.753,2.54-4.17,3.961  c-0.002,0-0.004,0-0.006,0c-0.306,0.058-0.4-0.028-0.432-0.056c-0.348-0.313-0.246-1.526-0.196-2.11  c0.059-0.701,0.099-1.163-0.36-1.322c-0.451-0.157-0.751,0.286-0.927,0.553c-1.211,1.833-1.985,6.31-2.018,6.499  c-0.037,0.218,0.075,0.423,0.26,0.523c-2.57,3.234-4.507,6.802-4.559,10.563c-0.091,6.548-1.72,11.841-2.909,15.706  c-0.384,1.251-0.717,2.329-0.932,3.248c-0.195,0.829,0.602,2.34,1.151,3.096c0.909,1.255,2.023,1.974,3.223,2.076  c3.24,0.272,5.345-2.251,7.225-4.478c2.045-2.423,3.394-3.86,5.263-3.005c0.141,0.063,0.598,0.29,0.615,0.512  c0.106,1.309-4.437,4.355-6.376,5.656c-2.607,1.749-3.291,2.239-3.325,3.062c-0.015,0.362,0.142,0.701,0.426,0.928  c1.55,1.233,3.057,1.715,4.479,1.715c1.883-0.001,3.616-0.847,5.107-1.908c0.138,0.021,0.283-0.011,0.399-0.107  c0.448-0.376,0.935-0.511,1.443-0.406c0.796,0.166,1.577,0.915,2.145,2.057c0.242,0.487,0.46,0.862,0.849,0.862  c0.005,0,0.01,0,0.014-0.002c0.196-0.004,0.412-0.155,0.49-0.334c0.181-0.408-0.161-1.949-0.519-3.061  c0.962,0.561,2.34,1.68,2.599,3.113c0.093,0.515,0.154,0.854,0.533,0.932c0.033,0.007,0.066,0.011,0.099,0.011  c0.171,0,0.338-0.087,0.434-0.23c0.235-0.354,0-3.286-0.39-5.625c0.603,0.707,1.297,1.343,1.945,1.511  c0.182,0.047,0.371-0.009,0.497-0.146s0.166-0.331,0.106-0.507c-0.391-1.145-1.086-4.107-0.359-5.855  c5.89-4.089,9.559-7.798,10.184-13.392c2.318-0.94,6.01-1.571,10.003,1.138c0.31,0.209,0.708,0.231,1.039,0.057  c0.33-0.176,0.536-0.519,0.536-0.892V6.5C100,5.966,99.585,5.525,99.052,5.493z M54.294,50.946  c-0.121,0.251-0.423,0.357-0.673,0.235c-0.17-0.081-0.229-0.047-0.252-0.033c-0.278,0.164-0.474,1.016-0.502,1.541  c-0.015,0.269-0.237,0.477-0.503,0.477c-0.01,0-0.019,0-0.028-0.001c-0.277-0.015-0.491-0.252-0.476-0.531  c0.017-0.305,0.142-1.85,0.995-2.354c0.249-0.148,0.661-0.271,1.203-0.007C54.31,50.393,54.415,50.695,54.294,50.946z   M61.925,35.198c-1.801,0-3.265-1.464-3.265-3.264s1.464-3.264,3.265-3.264c1.799,0,3.264,1.464,3.264,3.264  S63.724,35.198,61.925,35.198z"></path><path d="M74.33,69.5c-0.48-0.771-1.414-1.163-2.771-1.163c-3.6,0-10.023,2.739-10.295,2.855c-0.463,0.199-0.709,0.711-0.574,1.196  c0.271,0.979,0.044,2.011-0.637,2.905c-0.918,1.205-3.487,3.227-10.397,3.227c-0.001,0-0.002,0-0.003,0  c-0.288,0-0.58-0.003-0.88-0.011c-1.515-0.036-2.694-0.314-4.325-0.698c-1.112-0.263-2.424-0.57-4.179-0.889  c0.894-0.349,2.356-0.651,4.657-0.651c1.193,0,2.545,0.081,4.018,0.239c0.742,0.08,1.467,0.121,2.154,0.121  c4.892,0,7.451-2.054,7.451-4.081c0-0.905-0.515-1.734-1.413-2.272c-1.13-0.677-2.813-0.902-4.88-0.643  c-0.669,0.084-1.388,0.126-2.136,0.127c-3.128,0-6.481-0.726-9.724-1.428c-3.111-0.674-6.05-1.311-8.704-1.311  c-0.64,0-1.25,0.039-1.812,0.115c-4.541,0.609-7.162,1.951-10.197,3.504c-3.757,1.924-8.432,4.317-18.876,6.437  c-0.301,0.062-0.558,0.257-0.698,0.53c-0.14,0.273-0.148,0.595-0.021,0.875c0.212,0.471,5.27,11.56,10.079,14.121  c0.149,0.079,0.312,0.118,0.475,0.118c0.188,0,0.377-0.054,0.542-0.159c0.127-0.08,13.268-8.441,20.738-7.825  c4.049,0.328,6.512,0.916,8.491,1.389c0.927,0.222,1.728,0.412,2.513,0.531l1.04,0.162c1.502,0.238,2.8,0.443,4.194,0.443  c0,0,0,0,0,0c3.464,0,7.125-1.358,13.509-5.013c1.799-1.029,3.398-1.918,4.807-2.7c5.564-3.091,8.104-4.501,8.655-6.633  C75.482,71.573,74.843,70.324,74.33,69.5z"></path></svg>