<svg height="495pt" viewBox="0 -4 495.672 495" width="495pt" xmlns="http://www.w3.org/2000/svg"><path d="m462.921875 403.734375c-4.753906-6.34375-10.433594-12-16.769531-16.757813l49.519531-24.753906-49.519531-24.757812c6.335937-4.761719 12.015625-10.417969 16.769531-16.761719l24.855469-33.136719-56.089844 8.007813c9.105469-13.261719 14.097656-29.246094 14.097656-45.351563v-13.78125l-11.96875 6.839844c-35.289062 20.160156-75.402344 30.839844-116.03125 30.925781-.007812-13.222656-10.769531-23.984375-24-23.984375-6.144531 0-11.753906 2.320313-16 6.128906-4.25-3.808593-9.855468-6.128906-16-6.128906-13.234375 0-24 10.769532-24 24h-24v-16c13.230469 0 24-10.765625 24-24 0-6.144531-2.320312-11.75-6.128906-16 3.808594-4.246094 6.128906-9.855468 6.128906-16 0-13.230468-10.761718-23.992187-23.984375-24 .085938-40.628906 10.765625-80.742187 30.925781-116.03125l6.839844-11.96875h-13.78125c-16.113281 0-32.097656 4.992188-45.359375 14.105469l8.015625-56.097656-33.144531 24.847656c-6.335937 4.753906-11.992187 10.425781-16.753906 16.769531l-24.757813-49.511718-24.761718 49.519531c-4.757813-6.34375-10.414063-12.015625-16.75-16.765625l-33.144532-24.859375 8.015625 56.097656c-13.265625-9.113281-29.25-14.105469-45.359375-14.105469h-13.785156l6.839844 11.96875c20.160156 35.289063 30.839844 75.402344 30.929687 116.03125-13.226562.007813-23.984375 10.769532-23.984375 24 0 6.144532 2.320313 11.753906 6.125 16-3.804687 4.25-6.125 9.855469-6.125 16 0 13.234375 10.765625 24 24 24v96h104v96h96c0 13.234375 10.765625 24 24 24 6.144532 0 11.75-2.320312 16-6.125 4.246094 3.804688 9.855469 6.125 16 6.125 13.230469 0 23.992188-10.757812 24-23.984375 40.628906.089844 80.742188 10.769531 116.03125 30.929688l11.96875 6.839843v-13.785156c0-16.101562-4.992187-32.085937-14.105468-45.359375l56.097656 8.007813zm-225.136719-113.511719v16h-24v-16zm-24 32h24v16h-24zm-16 16h-16v-80h16zm-96-80v80h-16v-80zm16 0h16v80h-16zm32 80v-80h16v80zm-97.601562-259.199218 28.257812 21.191406-8-56 2.230469 1.679687c8.375 6.28125 15.273437 14.546875 19.960937 23.914063l7.152344 14.304687 24-48 24 48 7.160156-14.3125c4.679688-9.367187 11.582032-17.632812 19.957032-23.914062l2.234375-1.671875-8 56 28.246093-21.191406c7.191407-5.390626 15.503907-9.199219 24.242188-11.199219-16.871094 34.265625-25.753906 72.113281-25.832031 110.398437h-24.007813v-3.160156c0-17.285156 5.0625-34.023438 14.65625-48.40625l-13.3125-8.871094c-11.34375 17.015625-17.34375 36.824219-17.34375 57.277344v3.160156h-24v-72h-16v72h-24v-3.160156c0-20.453125-6-40.261719-17.34375-57.277344l-13.3125 8.871094c9.589844 14.390625 14.65625 31.128906 14.65625 48.40625v3.160156h-24.015625c-.082031-38.285156-8.953125-76.132812-25.832031-110.398437 8.742188 2 17.054688 5.808593 24.246094 11.199219zm-22.398438 155.199218c0-4.40625 3.589844-8 8-8h112v-16h-112c-4.410156 0-8-3.589844-8-8 0-4.40625 3.589844-8 8-8h176c4.40625 0 8 3.59375 8 8 0 4.410156-3.59375 8-8 8h-48v16h48c4.40625 0 8 3.59375 8 8 0 4.410156-3.59375 8-8 8h-176c-4.410156 0-8-3.589844-8-8zm24 24h16v80h-16zm184 96v16h-80v-16zm-80 32h80v16h-80zm0 48v-16h80v16zm144 16c0 4.417969-3.59375 8-8 8-4.410156 0-8-3.582031-8-8v-48h-16v48c0 4.417969-3.59375 8-8 8-4.410156 0-8-3.582031-8-8v-176c0-4.414062 3.589844-8 8-8 4.40625 0 8 3.585938 8 8v112h16v-112c0-4.414062 3.589844-8 8-8 4.40625 0 8 3.585938 8 8zm94.007813-42.648437 21.191406 28.242187c5.390625 7.191406 9.199219 15.511719 11.191406 24.246094-34.265625-16.871094-72.113281-25.75-110.390625-25.832031v-24.007813h3.160156c17.277344 0 34.015626 5.074219 48.40625 14.65625l8.871094-13.3125c-17.023437-11.34375-36.832031-17.34375-57.277344-17.34375h-3.160156v-24h72v-16h-72v-24h3.160156c20.445313 0 40.253907-6 57.277344-17.34375l-8.871094-13.3125c-14.390624 9.585938-31.128906 14.65625-48.40625 14.65625h-3.160156v-24.015625c38.277344-.078125 76.136719-8.960937 110.390625-25.832031-1.992187 8.738281-5.800781 17.058594-11.191406 24.242188l-21.191406 28.246093 56-8-1.679688 2.242188c-6.28125 8.375-14.546875 15.269531-23.90625 19.949219l-14.320312 7.167968 48.007812 24-48.007812 24 14.320312 7.160156c9.359375 4.679688 17.625 11.578126 23.914063 19.953126l1.671875 2.238281zm0 0"/></svg>