<?xml version="1.0" encoding="UTF-8" standalone="no"?>
<svg
   xmlns:dc="http://purl.org/dc/elements/1.1/"
   xmlns:cc="http://creativecommons.org/ns#"
   xmlns:rdf="http://www.w3.org/1999/02/22-rdf-syntax-ns#"
   xmlns:svg="http://www.w3.org/2000/svg"
   xmlns="http://www.w3.org/2000/svg"
   xmlns:sodipodi="http://sodipodi.sourceforge.net/DTD/sodipodi-0.dtd"
   xmlns:inkscape="http://www.inkscape.org/namespaces/inkscape"
   xml:space="preserve"
   version="1.1"
   style="clip-rule:evenodd;fill-rule:evenodd;image-rendering:optimizeQuality;shape-rendering:geometricPrecision;text-rendering:geometricPrecision"
   viewBox="0 0 52700.191 55101.793"
   x="0px"
   y="0px"
   id="svg14"
   sodipodi:docname="groundnuts.svg"
   width="52700.191"
   height="55101.793"
   inkscape:version="0.92.2 (5c3e80d, 2017-08-06)"><metadata
     id="metadata18"><rdf:RDF><cc:Work
         rdf:about=""><dc:format>image/svg+xml</dc:format><dc:type
           rdf:resource="http://purl.org/dc/dcmitype/StillImage" /><dc:title></dc:title></cc:Work></rdf:RDF></metadata><sodipodi:namedview
     pagecolor="#ffffff"
     bordercolor="#666666"
     borderopacity="1"
     objecttolerance="10"
     gridtolerance="10"
     guidetolerance="10"
     inkscape:pageopacity="0"
     inkscape:pageshadow="2"
     inkscape:window-width="1098"
     inkscape:window-height="724"
     id="namedview16"
     showgrid="false"
     fit-margin-top="0"
     fit-margin-left="0"
     fit-margin-right="0"
     fit-margin-bottom="0"
     inkscape:zoom="0.01"
     inkscape:cx="33293.462"
     inkscape:cy="16621.052"
     inkscape:window-x="0"
     inkscape:window-y="0"
     inkscape:window-maximized="0"
     inkscape:current-layer="svg14" /><defs
     id="defs4"><style
       type="text/css"
       id="style2">
   
    .fil0 {fill:black;fill-rule:nonzero}
   
  </style></defs><g
     id="g8"
     transform="translate(-0.05859375,-4919.259)"><path
       class="fil0"
       d="m 24863,5049 c 1003,198 2137,92 3271,-13 383,-36 766,-71 1116,-95 4490,-297 6025,2498 7610,5382 1101,2003 2227,4052 4430,5003 3453,421 5638,2467 6544,4936 390,1061 542,2200 456,3320 -86,1121 -411,2226 -976,3217 -1313,2306 -3913,3994 -7804,3849 -12,0 -25,-2 -37,-3 v 1 c -4484,-689 -5604,-3198 -6725,-5707 -529,-1185 -1059,-2371 -1963,-3323 -464,-441 -1032,-917 -1643,-1429 -3688,-3091 -8903,-7461 -4626,-14979 71,-125 212,-185 345,-159 v -1 z m 3330,634 c -1099,102 -2197,205 -3220,47 -3801,6924 1107,11039 4589,13957 619,518 1194,1000 1679,1462 4,4 8,8 12,12 983,1033 1537,2273 2090,3512 1047,2344 2094,4687 6217,5325 3597,126 5989,-1415 7189,-3521 516,-905 813,-1916 891,-2944 79,-1029 -60,-2074 -418,-3047 -832,-2265 -2852,-4143 -6053,-4518 v -1 c -30,-3 -60,-11 -89,-23 -2442,-1032 -3630,-3194 -4791,-5307 -1483,-2700 -2920,-5315 -6998,-5046 -383,25 -741,59 -1099,92 z m -3464,1216 c -284,85 -386,432 -194,658 106,122 270,170 425,125 516,-152 1034,-297 1556,-426 271,-68 396,-379 246,-616 -95,-148 -271,-218 -442,-176 -534,131 -1064,280 -1592,435 z m 10818,3984 c 125,208 398,263 594,119 168,-125 214,-355 107,-536 l -36,-60 -36,-59 -36,-59 -36,-58 -36,-58 -36,-57 -36,-57 -36,-57 -36,-56 -18,-28 c -160,-245 -515,-248 -680,-6 -92,137 -93,312 -4,451 l 16,25 34,53 34,54 34,54 34,55 34,55 34,56 34,56 34,57 34,57 z M 33759,8523 c 211,203 557,127 664,-146 59,-154 21,-325 -97,-440 l -33,-32 -39,-37 -39,-37 -39,-36 -39,-36 -39,-35 -39,-35 -39,-35 -39,-34 -39,-34 -39,-34 -39,-33 -39,-33 -39,-32 -40,-32 -40,-32 -40,-31 -40,-31 -40,-30 -40,-30 -40,-30 -40,-29 -40,-29 -40,-29 -40,-28 -40,-28 -41,-27 -41,-27 -41,-27 -41,-26 -41,-26 -41,-26 -41,-25 -41,-25 -15,-9 c -244,-143 -554,-2 -608,276 -31,171 45,339 194,427 l 46,28 36,22 36,22 36,23 36,23 36,23 36,24 36,24 36,24 35,25 35,25 35,25 35,26 35,26 35,27 35,27 35,27 35,28 35,28 35,28 35,29 35,29 35,30 35,30 35,30 35,31 35,31 35,32 35,32 35,32 35,33 35,33 35,34 33,32 z M 30408,6861 c 281,32 508,-220 446,-497 -40,-168 -177,-293 -349,-314 l -48,-6 -46,-5 -46,-5 -46,-4 -46,-4 -46,-4 -46,-4 -46,-3 -46,-3 -46,-3 -47,-2 -47,-2 -47,-2 -47,-2 -47,-1 -47,-1 -47,-1 -47,-1 h -47 -47 -47 -47 l -48,1 -48,1 -48,1 -48,1 -48,2 -48,2 -48,2 -48,2 -48,3 -48,3 -48,3 -48,3 -49,4 -60,5 c -289,26 -459,334 -328,593 76,148 232,234 398,220 l 52,-4 45,-3 45,-3 45,-3 44,-3 44,-2 44,-2 44,-2 44,-2 44,-2 44,-1 44,-1 43,-1 43,-1 h 43 43 43 43 l 43,1 42,1 42,1 42,1 42,1 42,2 42,2 42,2 42,2 41,3 41,3 41,3 41,3 41,4 41,4 41,4 41,4 43,5 z m -3484,562 c -269,43 -421,329 -306,576 78,165 252,257 432,230 156,-24 312,-46 469,-65 84,-10 168,-19 253,-27 56,-5 111,-10 167,-15 l 42,-3 83,-6 41,-3 41,-3 41,-2 41,-2 41,-2 41,-2 41,-2 41,-2 41,-1 41,-1 41,-1 41,-1 59,-1 c 288,-4 481,-294 373,-562 -64,-156 -214,-255 -383,-254 l -63,1 -45,1 -45,1 -45,1 -45,1 -45,2 -45,2 -45,2 -45,2 -45,2 -45,3 -45,3 -45,3 -45,3 -45,3 -45,4 -45,4 -45,4 -90,8 -45,4 -45,5 -90,10 -90,10 c -167,20 -332,43 -498,69 z m 9892,7795 c 123,265 474,319 672,104 111,-123 137,-295 69,-446 l -37,-81 -37,-80 -37,-80 -37,-79 -37,-79 -37,-78 -37,-77 -37,-77 -37,-76 -37,-76 -38,-75 -38,-75 -38,-74 -38,-74 -38,-73 -38,-73 -37,-71 c -126,-238 -440,-293 -639,-111 -135,126 -170,324 -85,488 l 36,69 36,71 36,71 36,72 36,72 36,73 36,73 36,74 36,74 36,75 36,75 36,76 36,76 36,77 36,78 36,78 36,79 z m -1843,-3323 c 116,167 336,224 518,134 222,-112 294,-391 154,-596 l -21,-30 -39,-56 -39,-55 -39,-55 -39,-55 -39,-54 -39,-54 -39,-53 -39,-53 -39,-52 -39,-52 -39,-51 -39,-51 -39,-51 -39,-50 -39,-50 -39,-49 -39,-49 -39,-48 -39,-48 -39,-48 -39,-47 -39,-47 -39,-46 -39,-46 -40,-45 -29,-34 c -184,-207 -513,-177 -656,60 -91,153 -74,345 44,480 l 27,31 37,42 37,43 37,43 37,44 37,44 37,45 37,45 37,45 37,46 37,46 37,47 37,47 37,48 37,48 37,49 37,49 37,49 37,50 37,50 37,51 37,51 37,52 37,52 37,53 37,53 21,30 z M 32260,9103 c 163,105 376,81 512,-57 181,-186 147,-487 -70,-629 l -44,-28 -42,-26 -42,-26 -42,-26 -42,-25 -42,-25 -42,-25 -42,-24 -42,-24 -42,-24 -42,-23 -42,-23 -42,-23 -42,-22 -42,-22 -42,-22 -42,-21 -42,-21 -42,-21 -42,-20 -43,-20 -43,-20 -43,-19 -43,-19 -43,-19 -43,-18 -43,-18 -43,-18 -43,-17 -43,-17 -43,-17 -43,-16 -43,-16 -43,-16 -43,-15 -43,-15 -26,-9 c -277,-93 -558,125 -538,416 13,165 120,303 276,356 l 21,7 38,13 38,14 38,14 38,14 38,14 38,15 38,15 38,15 38,15 38,16 38,16 38,16 38,17 38,17 38,17 37,18 38,18 37,18 37,18 37,19 37,19 37,19 37,20 37,20 37,20 37,21 37,21 37,21 37,22 37,22 37,22 37,22 37,23 37,23 37,23 39,25 z m 6822,6617 c -278,-54 -523,181 -483,461 27,171 155,305 324,339 528,104 1054,212 1577,341 284,69 545,-172 500,-461 -27,-163 -146,-292 -306,-332 -535,-132 -1073,-242 -1613,-349 z m 7318,9775 c -17,294 270,508 547,409 153,-57 257,-195 267,-358 l 7,-112 5,-92 5,-91 4,-91 4,-90 3,-90 3,-89 2,-88 2,-88 1,-87 1,-87 v -86 -86 l -1,-85 -1,-84 -2,-84 -2,-83 -3,-83 -3,-76 c -10,-227 -200,-401 -427,-391 -225,11 -397,199 -389,424 l 3,71 2,78 2,79 2,79 1,80 1,80 v 81 82 l -1,82 -1,83 -2,84 -2,84 -2,85 -3,85 -3,86 -4,87 -4,87 -5,88 -6,107 z m -319,-3910 c 80,281 420,389 648,207 128,-104 181,-271 137,-430 l -10,-35 -18,-63 -19,-63 -19,-62 -19,-62 -20,-62 -20,-61 -21,-61 -21,-60 -21,-60 -22,-59 -22,-59 -22,-58 -23,-58 -23,-57 -24,-57 -24,-56 -24,-56 -25,-55 -25,-55 -25,-55 -26,-54 -26,-54 -26,-53 -27,-53 -27,-52 -27,-52 -28,-51 -8,-15 c -116,-207 -380,-273 -579,-144 -180,118 -238,352 -134,540 l 29,54 24,46 24,46 24,47 23,47 23,47 23,48 22,48 22,49 22,49 22,50 21,50 21,51 21,51 20,52 20,52 20,52 19,53 19,53 19,54 19,54 18,55 18,55 18,56 17,56 17,57 17,57 10,35 z m -2034,-3158 c 217,168 532,81 632,-175 64,-169 13,-356 -130,-468 l -20,-16 -41,-31 -41,-31 -41,-31 -41,-30 -41,-30 -41,-30 -42,-29 -42,-29 -42,-29 -42,-28 -42,-28 -42,-28 -43,-27 -43,-27 -43,-27 -43,-27 -43,-26 -43,-26 -43,-26 -43,-25 -44,-25 -44,-25 -44,-24 -44,-24 -44,-24 -44,-24 -44,-23 -44,-23 -44,-23 -45,-22 -45,-22 -45,-22 -45,-22 -28,-13 c -155,-72 -334,-43 -457,75 -205,200 -149,540 109,663 l 24,12 41,20 41,20 41,20 40,20 40,21 40,21 40,21 40,21 40,21 40,22 39,22 39,22 39,22 39,23 39,23 39,23 38,23 38,24 38,24 38,24 38,24 38,25 37,25 37,25 37,25 37,26 37,26 37,26 36,27 36,27 36,27 36,27 36,28 20,16 z m -5761,-1196 c -278,-54 -523,181 -483,461 27,171 155,305 324,339 527,104 1053,212 1574,343 266,66 519,-142 507,-416 -10,-181 -133,-330 -308,-375 -535,-135 -1073,-245 -1614,-352 z m 6808,9604 c -24,291 254,512 532,423 157,-52 266,-189 280,-353 l 8,-90 7,-89 7,-89 6,-88 6,-88 5,-87 5,-87 4,-86 4,-85 3,-85 3,-84 2,-84 2,-83 2,-102 c 2,-275 -258,-472 -523,-396 -173,52 -291,207 -293,387 l -2,93 -2,79 -2,79 -3,80 -3,81 -4,81 -4,82 -5,82 -5,83 -5,84 -6,84 -6,85 -7,86 -7,86 z m -135,-3513 c 60,286 389,419 631,254 136,-94 201,-256 168,-418 l -5,-24 -13,-64 -14,-64 -14,-63 -15,-63 -15,-62 -15,-62 -16,-62 -16,-61 -17,-61 -17,-60 -17,-60 -18,-59 -18,-59 -18,-58 -19,-58 -19,-57 -19,-57 -20,-57 -20,-56 -20,-56 -21,-55 -21,-55 -21,-54 -22,-54 -22,-54 -23,-53 -23,-53 -17,-37 c -115,-256 -446,-322 -652,-130 -127,121 -164,304 -93,464 l 14,31 20,46 20,47 20,47 19,48 19,48 19,49 18,49 18,50 18,50 18,50 17,51 17,51 17,52 16,52 16,53 16,53 15,54 15,54 15,55 15,55 14,56 14,56 14,57 13,57 13,58 13,58 12,59 5,24 z m -1784,-3297 c 216,190 554,105 654,-165 57,-159 13,-333 -113,-445 l -45,-39 -37,-32 -37,-32 -37,-31 -38,-31 -38,-31 -38,-30 -38,-30 -38,-30 -38,-29 -39,-29 -39,-29 -39,-28 -39,-28 -39,-28 -39,-27 -39,-27 -40,-27 -40,-26 -40,-26 -40,-26 -40,-26 -40,-25 -40,-25 -41,-25 -41,-24 -41,-24 -41,-24 -41,-24 -41,-23 -41,-23 -41,-23 -42,-22 -42,-22 -42,-22 -44,-23 c -217,-109 -477,-9 -565,218 -75,196 10,415 196,510 l -2,-1 38,19 37,20 37,20 37,20 37,20 37,21 37,21 37,21 36,21 36,21 36,22 36,22 36,22 36,22 36,23 35,23 35,23 35,23 35,24 35,24 35,24 34,24 34,25 34,25 34,25 34,25 34,26 33,26 33,26 33,26 33,27 33,27 32,27 32,28 32,28 40,35 z M 9589,48975 c -160,-998 -646,-2023 -1131,-3048 -163,-343 -325,-686 -471,-1016 -1817,-4117 282,-6516 2449,-8994 1504,-1720 3043,-3479 3182,-5876 -787,-3388 387,-6141 2395,-7839 864,-730 1882,-1263 2964,-1566 1083,-303 2232,-377 3355,-186 2617,444 5094,2309 6291,6014 4,12 7,24 9,36 h 1 c 889,4447 -1084,6359 -3057,8271 -933,905 -1867,1809 -2451,2985 -256,590 -508,1284 -779,2032 -1640,4524 -3960,10921 -12486,9478 -149,-25 -257,-147 -271,-290 z m -542,-3326 c 472,995 943,1990 1146,3009 7808,1200 9993,-4821 11542,-9093 275,-757 530,-1462 795,-2071 3,-8 7,-15 10,-23 634,-1279 1609,-2223 2583,-3167 1843,-1787 3687,-3573 2873,-7666 -1114,-3422 -3381,-5141 -5770,-5546 -1028,-174 -2080,-107 -3072,171 -994,278 -1928,767 -2719,1436 -1843,1558 -2915,4099 -2171,7236 h -1 c 7,29 10,59 8,90 -133,2647 -1757,4504 -3345,6319 -2028,2318 -3993,4564 -2342,8303 151,342 307,672 463,1001 z m 2329,2839 c 167,224 502,219 663,-10 100,-145 97,-333 -7,-476 -320,-433 -633,-869 -933,-1316 -140,-208 -430,-242 -615,-72 -148,137 -174,360 -62,528 306,457 627,904 954,1346 z m 36,-11529 c 184,-227 79,-566 -201,-650 -158,-46 -326,6 -431,134 l -44,54 -43,54 -43,54 -43,54 -42,53 -42,53 -41,53 -41,53 -40,53 -20,27 c -170,227 -64,550 205,635 166,50 342,-6 447,-145 l 57,-74 39,-50 39,-51 40,-51 40,-51 41,-51 41,-51 42,-51 42,-52 z m -1605,2489 c 117,-265 -69,-564 -359,-574 -167,-4 -317,89 -386,242 l -19,42 -22,49 -21,49 -21,49 -20,49 -20,49 -20,49 -19,48 -19,48 -18,48 -18,48 -18,48 -17,48 -17,48 -16,48 -16,48 -16,48 -15,48 -15,48 -15,48 -14,48 -14,48 -13,48 -13,48 -13,48 -12,47 -12,47 -11,47 -11,47 -11,47 -10,47 -10,47 -10,47 -9,47 -3,18 c -50,281 193,526 475,475 167,-31 297,-160 328,-328 l 10,-53 8,-41 9,-41 9,-41 9,-41 10,-42 10,-42 10,-42 11,-42 11,-42 11,-42 12,-42 12,-42 13,-42 13,-42 13,-42 14,-42 14,-43 14,-43 15,-43 15,-43 15,-43 16,-43 16,-43 17,-43 17,-43 17,-44 18,-44 18,-44 18,-44 19,-44 19,-44 20,-44 19,-42 z m -413,3718 c -46,-195 -224,-326 -424,-314 -252,18 -427,254 -370,501 l 11,47 11,45 11,45 12,45 12,45 12,45 13,45 13,45 13,45 13,45 14,45 14,45 14,45 15,45 15,45 15,45 15,44 16,44 16,44 16,44 16,44 17,44 17,44 17,44 18,44 18,44 18,44 18,44 19,44 19,44 19,44 19,44 20,44 20,44 20,44 25,54 c 123,263 471,317 669,105 113,-122 140,-299 71,-450 l -22,-48 -19,-41 -18,-41 -18,-41 -18,-41 -18,-41 -17,-41 -17,-41 -17,-41 -16,-41 -16,-40 -16,-40 -16,-40 -15,-40 -15,-40 -15,-40 -15,-40 -14,-40 -14,-40 -14,-40 -14,-40 -13,-40 -13,-40 -13,-40 -12,-40 -12,-40 -12,-40 -12,-40 -11,-40 -11,-40 -11,-40 -11,-40 -10,-40 -10,-40 -10,-40 -10,-42 z m 1721,3080 c 143,257 501,284 681,51 99,-130 112,-303 33,-446 -69,-126 -137,-252 -202,-380 l -38,-76 -38,-76 -37,-76 c -18,-38 -36,-76 -54,-114 l -18,-38 -35,-76 -17,-38 -17,-38 -17,-38 -17,-38 -16,-38 -16,-38 -16,-38 -16,-38 -16,-38 -15,-38 -15,-38 -15,-38 -15,-38 -15,-38 -21,-55 c -103,-271 -446,-351 -659,-155 -122,114 -162,287 -104,443 l 22,59 16,42 16,42 16,42 17,41 17,41 17,41 17,41 17,41 18,41 18,41 18,41 18,41 18,41 19,41 19,41 19,41 19,41 19,41 19,41 20,41 20,41 20,41 20,41 41,81 21,41 42,81 c 57,108 114,216 173,323 z m 3934,-11964 c 208,-208 136,-559 -137,-669 -152,-60 -322,-25 -438,90 l -63,63 -62,62 -62,62 -61,62 -61,62 -60,62 -60,62 -59,62 -59,61 -59,61 -58,61 -58,61 -57,61 -57,61 -56,60 -56,60 -54,59 c -194,214 -112,555 158,657 157,58 331,16 444,-107 l 52,-57 54,-58 54,-59 55,-59 55,-59 56,-59 56,-59 57,-59 57,-60 58,-60 58,-60 59,-60 59,-60 60,-61 60,-61 61,-61 61,-61 z m -2490,2869 c 165,-234 47,-558 -230,-631 -165,-42 -336,20 -435,159 l -21,30 -39,55 -39,55 -38,55 -38,55 -37,55 -37,55 -37,55 -36,55 -36,54 -35,54 -35,54 -35,54 -34,54 -34,54 -33,54 -33,54 -32,54 -32,53 -32,53 -31,53 -31,53 -30,53 -30,53 -30,53 -29,53 -21,39 c -120,222 -15,495 222,580 189,67 398,-14 494,-190 l 19,-36 27,-49 28,-49 28,-49 28,-50 29,-50 29,-50 30,-50 30,-50 30,-50 31,-50 31,-51 32,-51 32,-51 33,-51 33,-51 33,-51 34,-51 34,-52 35,-52 35,-52 36,-52 36,-52 36,-52 37,-53 37,-53 21,-30 z m -1694,3505 c 65,-289 -188,-548 -479,-490 -158,33 -280,152 -317,309 l -11,51 -10,48 -10,48 -10,48 -9,48 -9,48 -9,48 -8,48 -8,48 -8,48 -7,47 -7,47 -7,47 -6,47 -6,47 -6,47 -5,47 -5,47 -5,47 -4,47 -4,47 -4,47 -3,47 -3,46 -3,46 -2,46 -2,46 -2,46 -2,46 -1,46 -1,46 -1,46 v 46 46 46 l 1,46 1,27 c 8,280 284,469 548,374 165,-61 272,-217 268,-393 v -22 l -1,-40 v -40 -40 -40 l 1,-40 1,-41 1,-41 1,-41 2,-41 2,-41 2,-41 2,-41 3,-41 3,-41 3,-41 4,-41 4,-41 4,-41 4,-41 5,-42 5,-42 5,-42 6,-42 6,-42 6,-42 7,-42 7,-42 7,-42 7,-42 8,-42 8,-43 8,-43 9,-43 9,-43 9,-43 10,-46 z m 3879,-8676 c 40,253 296,406 539,322 186,-66 297,-253 268,-448 -83,-531 -162,-1063 -220,-1598 -33,-291 -348,-453 -604,-312 -144,81 -224,237 -207,401 59,547 140,1091 225,1635 z m 6676,-10224 c 269,-81 379,-399 216,-628 -102,-142 -280,-203 -448,-154 l -107,32 -88,27 -87,27 -87,27 -86,28 -85,28 -85,28 -84,28 -83,29 -82,29 -82,29 -81,29 -80,30 -80,30 -79,30 -78,30 -78,31 -77,31 -71,29 c -180,75 -282,264 -245,456 50,253 317,396 555,299 l 66,-27 72,-29 73,-29 74,-29 75,-28 75,-28 76,-28 77,-28 78,-28 78,-27 79,-27 80,-27 81,-27 81,-27 82,-26 83,-26 84,-26 84,-26 103,-31 z m -3564,1639 c 226,-165 224,-500 -3,-663 -144,-101 -333,-101 -476,2 l -29,21 -53,39 -53,39 -52,39 -52,40 -51,40 -50,40 -50,40 -49,40 -49,40 -48,41 -48,41 -47,41 -46,41 -46,41 -45,42 -45,42 -44,42 -44,42 -43,42 -43,42 -42,43 -41,43 -41,43 -40,43 -40,43 -39,43 -39,44 -11,13 c -131,152 -133,373 -6,527 162,194 456,198 623,7 l 41,-46 35,-38 35,-38 36,-38 36,-38 37,-38 37,-38 38,-38 38,-38 39,-37 39,-37 40,-37 40,-37 41,-37 41,-37 42,-37 43,-37 43,-36 44,-36 44,-36 45,-36 45,-36 46,-36 47,-36 47,-36 48,-35 48,-35 29,-21 z m -2270,2993 c 84,-261 -106,-528 -381,-534 -181,-2 -339,110 -395,282 l -8,24 -16,49 -15,49 -15,49 -14,49 -14,49 -14,49 -13,49 -13,49 -13,49 -12,49 -12,49 -12,49 -11,49 -11,49 -11,49 -10,49 -10,49 -10,49 -9,49 -9,50 -9,50 -8,50 -8,50 -8,50 -7,50 -7,50 -7,50 -6,50 -6,50 -6,50 -6,50 -5,50 -5,50 -3,31 c -23,269 213,486 479,439 181,-33 316,-181 333,-364 l 3,-27 4,-45 5,-45 5,-45 5,-45 6,-45 6,-45 6,-45 6,-45 7,-45 7,-45 7,-45 7,-44 8,-44 8,-44 8,-44 9,-44 18,-88 9,-44 10,-44 10,-44 10,-44 11,-44 11,-44 11,-44 12,-44 12,-43 12,-43 12,-43 13,-43 13,-43 13,-43 14,-43 8,-24 z m 850,5822 c 40,253 296,406 539,322 186,-66 297,-253 268,-448 -83,-531 -162,-1061 -217,-1596 -29,-263 -291,-429 -541,-343 -179,63 -290,239 -270,427 56,549 137,1092 222,1637 z m 6690,-9687 c 281,-77 393,-412 217,-643 -102,-131 -269,-187 -429,-144 l -87,24 -86,24 -86,24 -85,24 -84,25 -84,25 -83,25 -82,25 -82,26 -81,26 -80,26 -80,26 -79,27 -78,27 -18,6 c -220,79 -329,321 -242,538 83,203 307,304 514,232 l 88,-30 75,-25 75,-25 76,-25 77,-25 78,-24 78,-24 79,-24 80,-24 80,-24 81,-23 82,-23 83,-23 83,-23 z m -3255,1330 c 232,-144 261,-466 59,-650 -136,-122 -332,-140 -488,-44 l -21,13 -56,35 -55,35 -55,35 -54,35 -54,35 -53,36 -52,36 -52,36 -51,36 -51,36 -50,37 -50,37 -49,37 -49,37 -48,37 -47,38 -47,38 -46,38 -46,38 -45,38 -45,38 -44,39 -44,39 -43,39 -43,39 -42,39 -42,40 -29,28 c -207,203 -144,549 121,666 153,66 328,34 448,-82 l 25,-24 37,-35 37,-35 38,-35 38,-35 39,-34 39,-34 40,-34 40,-34 41,-34 41,-34 42,-34 42,-34 43,-33 44,-33 44,-33 45,-33 45,-33 46,-33 46,-33 47,-33 47,-32 48,-32 49,-32 49,-32 50,-32 50,-32 51,-32 21,-13 z m -2486,2806 c 107,-273 -99,-565 -392,-557 -164,6 -306,105 -367,258 l -22,55 -17,46 -17,46 -17,46 -16,46 -16,46 -15,46 -15,46 -15,46 -14,46 -14,46 -14,46 -13,46 -13,46 -13,46 -12,46 -12,46 -12,46 -11,46 -11,46 -11,46 -10,47 -10,47 -10,47 -9,47 -9,47 -9,47 -8,47 -8,47 -8,47 -7,47 -7,47 -7,47 -7,47 -6,47 -6,49 c -33,290 236,521 518,441 159,-46 272,-180 292,-344 v 2 l 5,-42 6,-42 6,-42 6,-42 6,-42 7,-42 7,-42 7,-42 7,-41 8,-41 8,-41 8,-41 9,-41 9,-41 9,-41 9,-41 10,-41 10,-41 10,-41 10,-41 11,-41 11,-41 11,-41 12,-41 12,-40 12,-40 13,-40 13,-40 13,-40 14,-40 14,-40 14,-40 14,-40 15,-40 15,-40 19,-49 z m 6373,24878 c 443,-918 627,-2042 811,-3167 61,-375 123,-750 191,-1104 846,-4421 3938,-5201 7130,-6007 2216,-559 4483,-1132 5960,-3025 1279,-3233 3810,-4830 6427,-5084 1126,-109 2266,31 3327,396 1063,366 2049,959 2866,1756 1900,1853 2877,4795 1755,8523 -4,12 -8,24 -13,36 v 0 c -1798,4164 -4509,4615 -7219,5066 -1280,213 -2560,426 -3704,1055 -544,338 -1151,769 -1805,1234 -3922,2789 -9467,6731 -15661,696 -103,-100 -125,-252 -66,-375 z m 1454,-3062 c -178,1088 -356,2176 -768,3128 5740,5427 10961,1716 14664,-917 658,-468 1269,-903 1840,-1257 v 0 c 5,-3 9,-5 14,-8 1250,-692 2588,-915 3925,-1137 2531,-421 5062,-843 6720,-4666 1032,-3452 145,-6157 -1591,-7849 -746,-727 -1649,-1270 -2624,-1606 -977,-337 -2024,-466 -3055,-366 -2401,233 -4728,1714 -5900,4718 -11,28 -26,54 -45,79 -1615,2103 -4008,2706 -6346,3297 -2986,754 -5880,1484 -6648,5497 -70,368 -129,727 -188,1086 z m 301,3660 c 10,292 312,479 578,358 150,-70 242,-218 237,-384 -17,-538 -26,-1075 -19,-1613 3,-278 -263,-476 -529,-395 -169,53 -284,207 -287,384 -8,550 2,1100 19,1650 z m 6585,-9463 c 263,-77 378,-383 229,-614 -99,-151 -282,-219 -455,-169 l -67,19 -66,20 -66,20 -66,20 -65,20 -65,20 -64,20 -64,20 -63,21 -32,11 c -260,87 -362,398 -204,623 105,147 290,208 462,151 l 29,-9 60,-20 61,-19 61,-19 61,-19 62,-19 62,-19 63,-19 63,-19 64,-19 z m -2735,1135 c 246,-150 264,-499 35,-674 -135,-101 -314,-111 -459,-23 l -39,24 -46,28 -45,28 -45,28 -44,28 -44,29 -44,29 -43,29 -43,29 -43,29 -42,30 -42,30 -42,30 -41,30 -41,30 -41,30 -40,31 -40,31 -40,31 -39,31 -39,31 -38,31 -38,32 -38,32 -37,32 -37,32 -37,32 -36,32 -36,33 -36,33 -35,33 -35,33 -35,33 -34,34 -13,13 c -206,207 -136,555 134,667 153,62 325,27 442,-89 l 38,-38 30,-29 31,-29 31,-29 31,-29 32,-29 32,-28 32,-28 33,-28 33,-28 33,-28 34,-28 34,-28 34,-28 35,-27 35,-27 35,-27 36,-27 36,-27 36,-27 37,-27 37,-27 37,-26 38,-26 38,-26 39,-26 39,-26 39,-26 40,-26 40,-26 40,-25 41,-25 41,-25 39,-24 z m -2454,2824 c 67,-171 12,-364 -135,-475 -217,-162 -526,-74 -625,177 l -17,45 -16,43 -16,43 -16,43 -16,44 -15,44 -15,44 -15,44 -15,44 -14,44 -14,44 -14,45 -14,45 -13,45 -13,45 -13,45 -13,45 -12,45 -12,46 -12,46 -12,46 -12,46 -11,46 -11,46 -11,47 -11,47 -10,47 -10,47 -10,47 -10,47 -10,47 -9,48 -9,48 -9,48 -9,48 -10,59 c -47,280 196,520 476,470 169,-32 299,-163 328,-333 l 9,-52 8,-44 8,-44 8,-44 9,-44 9,-43 9,-43 9,-43 9,-43 10,-43 10,-43 10,-42 10,-42 10,-42 10,-42 11,-42 11,-41 11,-41 11,-41 11,-41 12,-41 12,-41 12,-40 12,-40 12,-40 13,-40 13,-40 13,-39 13,-39 13,-39 14,-39 14,-39 14,-39 14,-38 15,-38 z m -336,3513 c -27,281 228,503 502,437 169,-42 292,-182 309,-356 19,-185 41,-370 67,-554 6,-42 12,-84 19,-126 l 13,-83 14,-83 14,-82 7,-41 8,-41 8,-41 8,-41 8,-41 8,-41 8,-40 9,-40 9,-40 9,-40 9,-40 9,-40 9,-40 10,-40 14,-57 c 44,-181 -38,-368 -202,-457 -236,-126 -525,1 -590,261 l -15,61 -10,43 -10,43 -10,43 -10,44 -10,44 -9,44 -9,44 -9,44 -9,44 -9,44 -9,44 -8,44 -8,44 -8,44 -8,44 -8,44 -8,44 -7,45 -7,45 -7,45 -14,90 -7,45 c -6,45 -13,90 -19,135 l -12,90 c -15,121 -29,242 -41,364 z m 10039,-7605 c 287,-52 429,-378 270,-624 -90,-138 -252,-208 -414,-179 l -87,16 -87,16 -86,16 -86,16 -85,16 -85,17 -84,17 -84,17 -83,17 -83,17 -82,17 -82,17 -81,18 -81,18 -81,18 -80,18 -78,18 c -278,64 -405,384 -249,622 95,143 265,211 432,173 l 76,-17 78,-17 78,-17 79,-17 79,-17 80,-17 80,-17 81,-17 81,-16 82,-16 82,-16 83,-16 83,-16 84,-16 84,-16 85,-16 85,-15 z m -3680,944 c 266,-97 354,-426 175,-644 -111,-133 -290,-181 -453,-123 l -35,13 -64,23 -63,23 -63,24 -63,24 -62,24 -62,24 -61,24 -61,24 -60,24 -60,25 -60,25 -59,25 -59,25 -58,25 -58,25 -58,25 -57,26 -57,26 -56,26 -56,26 -56,26 -55,26 -55,26 -54,27 -54,27 -40,20 c -245,125 -300,446 -111,646 125,130 317,163 479,82 l 36,-18 50,-25 51,-25 51,-25 52,-25 52,-24 52,-24 53,-24 53,-24 54,-24 54,-24 54,-24 55,-24 55,-24 56,-23 56,-23 57,-23 57,-23 58,-23 58,-23 58,-23 59,-23 59,-23 60,-22 60,-22 61,-22 35,-13 z m -3387,1920 c 166,-153 177,-410 25,-576 -153,-166 -410,-177 -576,-25 l -38,35 -36,34 -36,34 -35,34 -35,34 -35,34 -34,34 -34,34 -34,35 -33,35 -33,35 -33,35 -32,35 -32,35 -32,35 -31,35 -31,36 -31,36 -31,36 -30,36 -30,36 -30,36 -29,36 -29,36 -29,37 -28,37 -28,37 -28,37 -27,37 -27,37 -27,37 -27,37 -26,37 -26,38 -26,38 -25,38 -15,23 c -162,248 -16,579 277,627 159,24 316,-44 405,-179 l 12,-18 22,-33 23,-33 23,-33 23,-33 23,-33 24,-33 24,-33 24,-33 24,-33 25,-32 25,-32 25,-32 26,-32 26,-32 26,-32 26,-32 27,-32 27,-32 27,-32 28,-31 28,-31 28,-31 28,-31 29,-31 29,-31 29,-31 30,-31 30,-31 30,-31 31,-31 31,-30 31,-30 31,-30 32,-30 32,-30 34,-32 z m 8125,-4931 c -87,181 -31,396 134,512 208,143 490,70 601,-157 234,-484 471,-967 728,-1439 134,-250 -19,-555 -300,-598 -170,-24 -335,58 -418,210 -263,484 -505,977 -745,1473 z m 11305,-4614 c 278,90 557,-130 534,-421 -14,-164 -123,-302 -279,-354 l -106,-35 -88,-28 -87,-27 -87,-27 -86,-26 -86,-26 -86,-25 -85,-24 -85,-24 -84,-23 -84,-23 -83,-22 -83,-21 -82,-21 -82,-20 -82,-20 -81,-19 -81,-18 -74,-16 c -186,-40 -373,52 -456,224 -112,238 25,516 282,573 l 70,15 76,17 77,18 77,18 78,19 78,20 79,20 79,21 79,21 80,22 80,23 81,23 81,24 82,24 82,25 83,26 83,26 84,27 102,33 z m -3864,-679 c 288,-7 478,-300 367,-566 -66,-155 -217,-253 -385,-250 l -36,1 -66,2 -66,2 -65,3 -65,3 -65,4 -64,4 -64,5 -63,5 -63,6 -63,6 -62,7 -62,7 -62,8 -61,8 -61,8 -61,9 -60,9 -60,10 -60,10 -59,11 -59,11 -58,12 -58,12 -58,13 -57,13 -57,13 -57,14 -16,4 c -285,74 -400,414 -220,646 101,128 265,184 423,144 l 59,-15 50,-12 51,-11 51,-11 51,-11 52,-10 52,-10 52,-10 53,-9 53,-9 54,-8 54,-8 54,-8 55,-7 55,-7 55,-6 56,-6 56,-5 57,-5 57,-5 57,-4 58,-4 58,-3 59,-3 59,-2 59,-2 60,-2 z m -3569,1171 c 218,-167 213,-495 -10,-656 -147,-105 -341,-102 -486,7 l -20,15 -41,31 -40,32 -40,32 -40,32 -40,32 -39,33 -39,33 -39,33 -38,33 -38,34 -38,34 -38,34 -37,34 -37,34 -37,35 -37,35 -36,35 -36,35 -36,35 -35,36 -35,36 -35,36 -35,36 -34,36 -34,37 -34,37 -34,37 -33,37 -33,37 -33,37 -33,38 -32,38 -32,38 -20,24 c -122,147 -127,355 -13,508 160,209 469,217 639,16 l 17,-21 29,-35 30,-34 30,-34 30,-34 30,-34 30,-34 30,-33 31,-33 31,-33 31,-33 31,-33 31,-32 32,-32 32,-32 32,-32 32,-32 32,-31 33,-31 33,-31 33,-31 33,-30 33,-30 34,-30 34,-30 34,-30 34,-29 34,-29 35,-29 35,-29 35,-28 35,-28 36,-28 36,-28 20,-15 z m -2611,5272 c -87,181 -31,396 134,512 208,143 490,70 601,-157 234,-484 471,-965 730,-1436 136,-251 -19,-560 -302,-600 -169,-23 -332,59 -414,208 -265,484 -508,976 -748,1473 z m 11012,-4164 c 202,71 422,-24 509,-219 96,-219 -12,-469 -236,-550 l -85,-30 -85,-29 -84,-29 -84,-28 -83,-28 -83,-27 -83,-26 -82,-26 -82,-25 -81,-25 -81,-24 -80,-23 -80,-23 -98,-27 c -179,-48 -365,28 -459,187 -135,233 -15,528 245,600 l 90,25 76,22 76,22 77,23 77,23 78,24 78,25 79,25 79,26 80,26 80,27 81,28 81,28 82,29 z m -3433,-757 c 290,14 501,-267 407,-542 -56,-157 -197,-264 -364,-273 l -24,-1 -66,-3 -65,-3 -65,-2 -65,-2 -64,-1 -64,-1 h -64 -63 l -63,1 -62,1 -62,2 -62,2 -61,3 -61,3 -61,3 -60,4 -60,4 -60,5 -59,5 -59,6 -59,6 -58,7 -58,7 -58,8 -57,8 -57,8 -57,9 -40,7 c -279,48 -426,355 -288,602 85,150 253,231 424,203 l 34,-6 50,-8 50,-7 51,-7 51,-7 51,-6 52,-6 52,-5 53,-5 53,-5 53,-4 54,-4 54,-4 54,-3 55,-3 55,-2 55,-2 56,-1 56,-1 57,-1 h 57 57 l 58,1 58,1 59,2 59,2 59,2 60,3 24,1 z m -3641,894 c 242,-164 241,-519 -3,-680 -138,-90 -314,-89 -451,2 l -49,33 -40,28 -40,28 -40,28 -39,28 -39,29 -39,29 -39,29 -38,29 -38,30 -38,30 -38,30 -37,30 -37,31 -37,31 -36,31 -36,31 -36,32 -36,32 -35,32 -35,32 -35,32 -35,33 -34,33 -34,33 -34,33 -34,33 -33,34 -33,34 -33,34 -33,34 -32,34 -32,34 -32,35 -32,35 -33,37 c -182,207 -113,529 138,642 164,73 354,32 473,-102 l -2,2 28,-31 28,-31 29,-31 29,-31 29,-31 29,-31 29,-30 30,-30 30,-30 30,-30 30,-30 30,-29 30,-29 31,-29 31,-29 31,-28 31,-28 31,-28 32,-28 32,-28 32,-27 32,-27 32,-27 33,-27 33,-26 33,-26 33,-26 33,-26 34,-26 34,-25 34,-25 34,-25 35,-25 35,-24 35,-24 44,-30 z M 24751,9529 c 7,-112 103,-198 215,-191 112,7 198,103 191,215 -237,3797 2166,5802 4049,7373 353,295 689,575 980,841 83,76 88,205 12,288 -76,83 -205,88 -288,12 -297,-272 -622,-543 -964,-829 -1953,-1629 -4446,-3709 -4196,-7709 z m 217,14569 c -51,-100 -11,-222 88,-273 100,-51 222,-11 273,88 745,1454 1359,3043 1415,4591 56,1572 -459,3093 -1982,4377 -86,73 -214,62 -287,-24 -73,-86 -62,-214 24,-287 1413,-1191 1891,-2599 1839,-4052 -53,-1478 -648,-3011 -1370,-4421 z m 18681,22923 c -110,24 -218,-45 -242,-155 -24,-110 45,-218 155,-242 2038,-453 3647,-1141 4795,-2214 1140,-1066 1831,-2521 2041,-4516 11,-112 111,-193 223,-182 112,11 193,111 182,223 -221,2099 -955,3637 -2168,4771 -1206,1127 -2877,1846 -4984,2314 z"
       id="path6"
       inkscape:connector-curvature="0"
       style="fill:#000000;fill-rule:nonzero" /></g><text
     x="-0.05859375"
     y="55095.742"
     font-size="5px"
     font-weight="bold"
     id="text10"
     style="font-weight:bold;font-size:5px;font-family:'Helvetica Neue', Helvetica, Arial-Unicode, Arial, Sans-serif;fill:#000000">Created by Olena Panasovska</text>
<text
     x="-0.05859375"
     y="55100.742"
     font-size="5px"
     font-weight="bold"
     id="text12"
     style="font-weight:bold;font-size:5px;font-family:'Helvetica Neue', Helvetica, Arial-Unicode, Arial, Sans-serif;fill:#000000">from the Noun Project</text>
</svg>