<?xml version="1.0" encoding="UTF-8" standalone="no"?>
<svg
   xmlns:dc="http://purl.org/dc/elements/1.1/"
   xmlns:cc="http://creativecommons.org/ns#"
   xmlns:rdf="http://www.w3.org/1999/02/22-rdf-syntax-ns#"
   xmlns:svg="http://www.w3.org/2000/svg"
   xmlns="http://www.w3.org/2000/svg"
   xmlns:sodipodi="http://sodipodi.sourceforge.net/DTD/sodipodi-0.dtd"
   xmlns:inkscape="http://www.inkscape.org/namespaces/inkscape"
   version="1.1"
   x="0px"
   y="0px"
   viewBox="0 0 87.219345 56.082001"
   enable-background="new 0 0 100 100"
   xml:space="preserve"
   id="svg32"
   sodipodi:docname="manure-sacks.svg"
   width="87.219345"
   height="56.082001"
   inkscape:version="0.92.3 (2405546, 2018-03-11)"><metadata
     id="metadata38"><rdf:RDF><cc:Work
         rdf:about=""><dc:format>image/svg+xml</dc:format><dc:type
           rdf:resource="http://purl.org/dc/dcmitype/StillImage" /><dc:title></dc:title></cc:Work></rdf:RDF></metadata><defs
     id="defs36" /><sodipodi:namedview
     pagecolor="#ffffff"
     bordercolor="#666666"
     borderopacity="1"
     objecttolerance="10"
     gridtolerance="10"
     guidetolerance="10"
     inkscape:pageopacity="0"
     inkscape:pageshadow="2"
     inkscape:window-width="1920"
     inkscape:window-height="1017"
     id="namedview34"
     showgrid="false"
     fit-margin-top="0"
     fit-margin-left="0"
     fit-margin-right="0"
     fit-margin-bottom="0"
     inkscape:zoom="1.888"
     inkscape:cx="43.552203"
     inkscape:cy="18.502"
     inkscape:window-x="-8"
     inkscape:window-y="-8"
     inkscape:window-maximized="1"
     inkscape:current-layer="svg32" /><g
     id="g26"
     transform="translate(-6.4477971,-24.92)"><path
       d="m 72.79,51.53 c -0.359,0 -8.866,0.047 -14.885,4.135 -0.264,0.179 -0.333,0.539 -0.153,0.803 0.112,0.165 0.294,0.253 0.479,0.253 0.112,0 0.225,-0.032 0.324,-0.1 5.72,-3.885 14.151,-3.935 14.235,-3.935 0.319,0 0.578,-0.259 0.578,-0.578 0,-0.319 -0.259,-0.578 -0.578,-0.578 z"
       id="path2"
       inkscape:connector-curvature="0"
       style="fill:#000000" /><path
       d="m 30.821,61.685 c -0.319,0 -0.578,0.259 -0.578,0.578 v 0.075 c 0,0.319 0.259,0.578 0.578,0.578 0.319,0 0.578,-0.259 0.578,-0.578 v -0.075 c 0,-0.319 -0.259,-0.578 -0.578,-0.578 z"
       id="path4"
       inkscape:connector-curvature="0"
       style="fill:#000000" /><path
       d="m 30.931,58.383 c -0.319,0 -0.578,0.259 -0.578,0.578 v 0.075 c 0,0.319 0.259,0.578 0.578,0.578 0.319,0 0.578,-0.259 0.578,-0.578 v -0.075 c 0,-0.319 -0.259,-0.578 -0.578,-0.578 z"
       id="path6"
       inkscape:connector-curvature="0"
       style="fill:#000000" /><path
       d="m 27.119,63.541 c -0.319,0 -0.578,0.259 -0.578,0.578 v 0.075 c 0,0.319 0.259,0.578 0.578,0.578 0.319,0 0.578,-0.259 0.578,-0.578 v -0.075 c 0,-0.319 -0.259,-0.578 -0.578,-0.578 z"
       id="path8"
       inkscape:connector-curvature="0"
       style="fill:#000000" /><path
       d="m 22.769,67.105 c -0.319,0 -0.578,0.259 -0.578,0.578 v 0.075 c 0,0.319 0.259,0.578 0.578,0.578 0.319,0 0.578,-0.259 0.578,-0.578 v -0.075 c 0,-0.32 -0.259,-0.578 -0.578,-0.578 z"
       id="path10"
       inkscape:connector-curvature="0"
       style="fill:#000000" /><path
       d="m 34.653,58.815 c -0.319,0 -0.578,0.259 -0.578,0.578 v 0.075 c 0,0.319 0.259,0.578 0.578,0.578 0.319,0 0.578,-0.259 0.578,-0.578 v -0.075 c 0,-0.319 -0.258,-0.578 -0.578,-0.578 z"
       id="path12"
       inkscape:connector-curvature="0"
       style="fill:#000000" /><path
       d="m 16.924,67.681 c -0.319,0 -0.578,0.259 -0.578,0.578 v 0.075 c 0,0.319 0.259,0.578 0.578,0.578 0.319,0 0.578,-0.259 0.578,-0.578 v -0.075 c 0.001,-0.319 -0.258,-0.578 -0.578,-0.578 z"
       id="path14"
       inkscape:connector-curvature="0"
       style="fill:#000000" /><path
       d="m 14.708,72.17 c -0.319,0 -0.578,0.259 -0.578,0.578 v 0.075 c 0,0.319 0.259,0.578 0.578,0.578 0.319,0 0.578,-0.259 0.578,-0.578 v -0.075 c 0,-0.32 -0.258,-0.578 -0.578,-0.578 z"
       id="path16"
       inkscape:connector-curvature="0"
       style="fill:#000000" /><path
       d="m 27.464,60.268 c -0.319,0 -0.578,0.259 -0.578,0.578 v 0.075 c 0,0.319 0.259,0.578 0.578,0.578 0.319,0 0.578,-0.259 0.578,-0.578 v -0.075 c 0,-0.319 -0.259,-0.578 -0.578,-0.578 z"
       id="path18"
       inkscape:connector-curvature="0"
       style="fill:#000000" /><path
       d="m 24.126,64.015 c -0.319,0 -0.578,0.259 -0.578,0.578 v 0.075 c 0,0.319 0.259,0.578 0.578,0.578 0.319,0 0.578,-0.259 0.578,-0.578 v -0.075 c 0,-0.319 -0.259,-0.578 -0.578,-0.578 z"
       id="path20"
       inkscape:connector-curvature="0"
       style="fill:#000000" /><path
       d="m 19.754,64.779 c -0.319,0 -0.578,0.259 -0.578,0.578 v 0.075 c 0,0.319 0.259,0.578 0.578,0.578 0.319,0 0.578,-0.259 0.578,-0.578 v -0.075 c 0,-0.319 -0.259,-0.578 -0.578,-0.578 z"
       id="path22"
       inkscape:connector-curvature="0"
       style="fill:#000000" /><path
       d="M 92.468,69.147 C 92.432,68.371 92.19,64.368 90.916,60.269 90,57.323 88.759,55.034 87.232,53.443 c -0.04,-0.737 -0.213,-3.284 -0.822,-6.38 -0.961,-4.882 -2.487,-8.59 -4.534,-11.021 -3.668,-4.356 -3.792,-4.705 -3.721,-5.081 0.025,-0.134 0.06,-0.317 0.06,-0.567 0,-0.075 -0.017,-0.147 -0.041,-0.216 -0.002,-0.017 -0.001,-0.033 -0.004,-0.05 -0.003,-0.016 -0.287,-1.62 0.851,-4.412 0.073,-0.178 0.052,-0.381 -0.056,-0.541 -0.108,-0.16 -0.287,-0.255 -0.48,-0.255 -1.021,0 -2.517,0.238 -4.267,0.605 -0.007,0.001 -0.014,0.003 -0.02,0.004 -2.271,0.478 -4.967,1.175 -7.613,1.859 -3.011,0.778 -5.883,1.521 -8.058,1.936 -0.085,-0.002 -0.168,0.012 -0.244,0.045 -0.388,0.071 -0.754,0.132 -1.09,0.179 -1.884,0.262 -3.757,0.61 -5.568,0.946 -3.422,0.635 -6.961,1.291 -7.927,0.712 -0.179,-0.107 -0.401,-0.11 -0.582,-0.007 -0.181,0.103 -0.293,0.295 -0.293,0.503 v 4.484 c 0,0.067 0.014,0.13 0.035,0.19 0.002,12.63 1.045,19.289 2.36,23.833 -0.001,0 -0.002,0 -0.002,0 -2.523,0 -4.451,-1.072 -6.492,-2.206 -2.279,-1.267 -4.635,-2.576 -8.009,-2.576 -3.546,0 -5.072,1.917 -6.419,3.608 -1.221,1.533 -2.275,2.856 -4.656,3.015 -4.618,0.308 -5.961,5.196 -6.053,7.996 -1.782,1.245 -7.847,5.703 -7.071,8.209 0.466,1.505 2.823,1.505 3.597,1.505 2.522,0 6.057,0.06 10.15,0.129 5.288,0.089 11.62,0.196 17.616,0.196 5.009,0 9.78,-0.075 13.515,-0.297 2.167,0.795 5.038,1.214 8.455,1.214 0.799,0 1.629,-0.023 2.486,-0.069 2.013,-0.108 4.546,-0.087 7.229,-0.064 9.075,0.078 20.372,0.175 23.351,-4.637 1.135,-1.834 0.985,-4.217 -0.447,-7.085 z M 76.981,29.72 c -0.569,0.054 -1.45,0.237 -2.879,0.586 -0.176,-0.848 0.229,-2.525 0.659,-3.713 1.1,-0.226 2.081,-0.393 2.872,-0.469 -0.577,1.681 -0.667,2.907 -0.652,3.596 z m -7.096,1.661 c -0.182,-0.873 0.253,-2.627 0.697,-3.819 0.993,-0.248 1.957,-0.48 2.865,-0.685 -0.32,1.026 -0.702,2.603 -0.465,3.708 -0.819,0.207 -1.777,0.454 -2.903,0.746 -0.063,0.016 -0.129,0.034 -0.194,0.05 z m -0.639,-3.482 c -0.324,1.028 -0.725,2.648 -0.478,3.772 -0.818,0.212 -1.669,0.43 -2.546,0.652 -0.01,-0.031 -0.021,-0.061 -0.036,-0.09 -0.411,-0.796 0.042,-2.599 0.424,-3.549 0.015,-0.038 0.026,-0.076 0.033,-0.115 0.077,-0.02 0.154,-0.04 0.232,-0.06 0.789,-0.204 1.585,-0.409 2.371,-0.61 z m -10.624,5.768 c -0.371,-0.717 -0.039,-2.251 0.31,-3.242 0.781,-0.153 1.64,-0.343 2.557,-0.56 -0.295,0.981 -0.627,2.577 -0.102,3.637 -0.904,0.21 -1.816,0.416 -2.73,0.612 0.047,-0.142 0.04,-0.303 -0.035,-0.447 z m 3.805,-0.663 c -0.399,-0.773 0.016,-2.492 0.39,-3.461 0.8,-0.198 1.633,-0.409 2.484,-0.628 -0.294,0.922 -0.683,2.565 -0.21,3.692 -0.851,0.212 -1.72,0.425 -2.602,0.635 -0.003,-0.08 -0.022,-0.161 -0.062,-0.238 z m -5.076,-2.308 c 0.096,-0.013 0.197,-0.029 0.296,-0.044 -0.287,0.998 -0.578,2.529 -0.052,3.546 0.024,0.046 0.054,0.086 0.087,0.123 -0.93,0.193 -1.857,0.376 -2.775,0.543 -0.009,-0.063 -0.026,-0.125 -0.056,-0.185 -0.411,-0.796 0.042,-2.599 0.424,-3.549 0.016,-0.039 0.026,-0.078 0.033,-0.117 0.68,-0.114 1.361,-0.223 2.043,-0.317 z m -5.517,0.937 c 0.716,-0.133 1.443,-0.266 2.173,-0.396 -0.296,0.893 -0.749,2.648 -0.245,3.829 -0.894,0.152 -1.773,0.287 -2.632,0.402 -0.01,-0.053 -0.025,-0.106 -0.051,-0.156 -0.411,-0.796 0.042,-2.599 0.424,-3.549 0.01,-0.024 0.015,-0.048 0.021,-0.073 0.104,-0.019 0.205,-0.038 0.31,-0.057 z m -4.156,4.185 c -0.045,-0.909 -0.061,-2.605 0.205,-3.5 0.708,-0.105 1.486,-0.237 2.334,-0.389 -0.289,0.888 -0.699,2.533 -0.261,3.684 -0.784,0.089 -1.546,0.159 -2.278,0.205 z m -1.016,-3.34 c -0.216,1.158 -0.175,2.686 -0.14,3.391 -0.908,0.026 -1.762,0.01 -2.546,-0.057 v -3.31 c 0.681,0.121 1.575,0.098 2.686,-0.024 z M 20.281,78.733 c -4.098,-0.069 -7.637,-0.129 -10.169,-0.129 -1.427,0 -2.359,-0.258 -2.493,-0.691 -0.375,-1.209 3.272,-4.618 6.866,-7.083 0.157,-0.108 0.251,-0.286 0.251,-0.476 0,-0.018 0.011,-1.784 0.664,-3.553 0.831,-2.251 2.283,-3.461 4.314,-3.596 2.89,-0.193 4.208,-1.848 5.483,-3.448 1.299,-1.631 2.526,-3.172 5.515,-3.172 3.075,0 5.298,1.236 7.447,2.43 2.08,1.156 4.231,2.352 7.054,2.352 0.12,0 0.232,-0.037 0.324,-0.099 0.222,0.694 0.45,1.341 0.68,1.955 0.536,1.429 1.114,2.381 1.579,3.145 1.076,1.77 1.521,2.503 -0.426,6.761 -0.657,1.437 -0.567,2.84 0.261,4.056 0.396,0.582 0.949,1.099 1.635,1.554 -8.2,0.345 -20.076,0.144 -28.985,-0.006 z m 71.65,-3.109 c -2.638,4.259 -13.572,4.164 -22.359,4.089 -2.701,-0.023 -5.252,-0.045 -7.301,0.065 -4.722,0.256 -7.862,-0.22 -9.939,-0.895 -0.108,-0.178 -0.307,-0.293 -0.53,-0.279 -0.069,0.004 -0.141,0.008 -0.211,0.013 -1.902,-0.752 -2.709,-1.651 -3.005,-2.085 -0.596,-0.876 -0.652,-1.859 -0.165,-2.924 2.113,-4.621 1.638,-5.743 0.363,-7.842 -0.462,-0.761 -0.986,-1.623 -1.484,-2.951 -1.685,-4.492 -3.245,-10.74 -3.288,-25.838 6.88,0.524 18.552,-2.503 26.358,-4.527 2.728,-0.708 5.535,-1.436 6.626,-1.574 -0.135,0.837 0.126,1.317 3.995,5.911 3.65,4.335 4.714,12.375 4.999,15.562 -1.343,-0.986 -2.863,-1.515 -4.539,-1.566 -0.318,-0.016 -0.585,0.241 -0.595,0.56 -0.01,0.319 0.241,0.586 0.56,0.595 1.819,0.055 3.413,0.747 4.772,2.065 0.041,0.06 0.093,0.111 0.152,0.151 1.421,1.446 2.579,3.595 3.465,6.437 1.348,4.322 1.511,8.68 1.512,8.724 0.003,0.084 0.024,0.167 0.063,0.242 1.307,2.57 1.487,4.554 0.551,6.067 z"
       id="path24"
       inkscape:connector-curvature="0"
       style="fill:#000000" /></g></svg>