<?xml version="1.0" encoding="UTF-8" standalone="no"?>
<svg
   xmlns:dc="http://purl.org/dc/elements/1.1/"
   xmlns:cc="http://creativecommons.org/ns#"
   xmlns:rdf="http://www.w3.org/1999/02/22-rdf-syntax-ns#"
   xmlns:svg="http://www.w3.org/2000/svg"
   xmlns="http://www.w3.org/2000/svg"
   xmlns:sodipodi="http://sodipodi.sourceforge.net/DTD/sodipodi-0.dtd"
   xmlns:inkscape="http://www.inkscape.org/namespaces/inkscape"
   viewBox="0 0 60 60"
   version="1.1"
   x="0px"
   y="0px"
   id="svg22"
   sodipodi:docname="add.svg"
   width="60"
   height="60"
   inkscape:version="0.92.3 (2405546, 2018-03-11)">
  <metadata
     id="metadata28">
    <rdf:RDF>
      <cc:Work
         rdf:about="">
        <dc:format>image/svg+xml</dc:format>
        <dc:type
           rdf:resource="http://purl.org/dc/dcmitype/StillImage" />
        <dc:title>add-icon@1x</dc:title>
      </cc:Work>
    </rdf:RDF>
  </metadata>
  <defs
     id="defs26" />
  <sodipodi:namedview
     pagecolor="#ffffff"
     bordercolor="#666666"
     borderopacity="1"
     objecttolerance="10"
     gridtolerance="10"
     guidetolerance="10"
     inkscape:pageopacity="0"
     inkscape:pageshadow="2"
     inkscape:window-width="684"
     inkscape:window-height="480"
     id="namedview24"
     showgrid="false"
     fit-margin-top="0"
     fit-margin-left="0"
     fit-margin-right="0"
     fit-margin-bottom="0"
     inkscape:zoom="3.1466667"
     inkscape:cx="39.851695"
     inkscape:cy="22.5"
     inkscape:window-x="0"
     inkscape:window-y="0"
     inkscape:window-maximized="0"
     inkscape:current-layer="svg22" />
  <title
     id="title2">add-icon@1x</title>
  <desc
     id="desc4">Created with Sketch.</desc>
  <g
     id="g16"
     style="fill:none;fill-rule:evenodd;stroke:none;stroke-width:1">
    <g
       transform="translate(-1505,-2914)"
       id="g14"
       style="fill:#000000">
      <g
         transform="translate(275,1935)"
         id="g12">
        <g
           transform="translate(75,512)"
           id="g10">
          <g
             transform="translate(1155,467)"
             id="g8">
            <path
               d="m 33,27 h 25 c 1.104569,0 2,0.89543 2,2 v 2 c 0,1.104569 -0.895431,2 -2,2 H 33 v 25 c 0,1.104569 -0.895431,2 -2,2 h -2 c -1.10457,0 -2,-0.895431 -2,-2 V 33 H 2 C 0.8954305,33 0,32.104569 0,31 V 29 C 0,27.89543 0.8954305,27 2,27 H 27 V 2 c 0,-1.1045695 0.89543,-2 2,-2 h 2 c 1.104569,0 2,0.8954305 2,2 z"
               id="path6"
               inkscape:connector-curvature="0" />
          </g>
        </g>
      </g>
    </g>
  </g>
</svg>
