<?xml version="1.0" encoding="UTF-8" standalone="no"?>
<svg
   xmlns:dc="http://purl.org/dc/elements/1.1/"
   xmlns:cc="http://creativecommons.org/ns#"
   xmlns:rdf="http://www.w3.org/1999/02/22-rdf-syntax-ns#"
   xmlns:svg="http://www.w3.org/2000/svg"
   xmlns="http://www.w3.org/2000/svg"
   xmlns:sodipodi="http://sodipodi.sourceforge.net/DTD/sodipodi-0.dtd"
   xmlns:inkscape="http://www.inkscape.org/namespaces/inkscape"
   data-name="Layer 1"
   viewBox="0 0 76.645531 64.678627"
   x="0px"
   y="0px"
   version="1.1"
   id="svg14"
   sodipodi:docname="avocado.svg"
   width="76.645531"
   height="64.678627"
   inkscape:version="0.92.2 (5c3e80d, 2017-08-06)">
  <metadata
     id="metadata20">
    <rdf:RDF>
      <cc:Work
         rdf:about="">
        <dc:format>image/svg+xml</dc:format>
        <dc:type
           rdf:resource="http://purl.org/dc/dcmitype/StillImage" />
        <dc:title>Avocado</dc:title>
      </cc:Work>
    </rdf:RDF>
  </metadata>
  <defs
     id="defs18" />
  <sodipodi:namedview
     pagecolor="#ffffff"
     bordercolor="#666666"
     borderopacity="1"
     objecttolerance="10"
     gridtolerance="10"
     guidetolerance="10"
     inkscape:pageopacity="0"
     inkscape:pageshadow="2"
     inkscape:window-width="750"
     inkscape:window-height="480"
     id="namedview16"
     showgrid="false"
     fit-margin-top="0"
     fit-margin-left="0"
     fit-margin-right="0"
     fit-margin-bottom="0"
     inkscape:zoom="1.888"
     inkscape:cx="-21.272642"
     inkscape:cy="18.878561"
     inkscape:window-x="0"
     inkscape:window-y="0"
     inkscape:window-maximized="0"
     inkscape:current-layer="svg14" />
  <title
     id="title2">Avocado</title>
  <path
     d="m 33.108714,47.800064 c -0.91,-0.3 -1.45,-0.53 -1.48,-0.54 a 1,1 0 0 0 -0.8,1.83 c 0,0 0.89,0.38 2.31,0.81 a 1,1 0 0 0 0.51,0.24 h 0.13 0.13 a 35.45,35.45 0 0 0 9.5,1.37 c 5.71,0 12.36,-1.61 17.63,-7.47 a 1.0019606,1.0019606 0 0 0 -1.49,-1.34 20.84,20.84 0 0 1 -2,1.93 14.64,14.64 0 0 0 -6.44,-5.23 c -3.86,-1.69 -7.66,-1.57 -10.68,0.33 -4.93,3.08 -6.69,6.34 -7.32,8.07 z m 8.36,-6.38 c 3.14,-2 6.53,-1.19 8.82,-0.19 2.91,1.27 5.05,3.35 5.67,4.62 -7.34,5.05 -16.18,3.79 -20.92,2.53 0.53,-1.41 2.07,-4.23 6.44,-6.96 z"
     id="path4"
     inkscape:connector-curvature="0" />
  <path
     d="m 75.798714,37.760064 c -0.78,-1.31 -2.47,-2.91 -6.07,-3.07 a 44.72,44.72 0 0 0 -9.27,0.71 14.88,14.88 0 0 1 -2.5,0.29 c -0.22,0 -0.64,-0.07 -1.2,-0.15 a 75.75,75.75 0 0 0 -10.49,-0.81 c -0.87,-2.77 1.45,-5.43 1.48,-5.43 l 0.08,-0.1 a 5.2,5.2 0 0 1 0.34,-0.4 c 1.09,-1.22 3.63,-4.08 4.63,-10.19 a 14.91,14.91 0 0 0 -3.54,-11.9999999 4.82,4.82 0 0 0 0.74,-2.34 c 0.06,-1.64 0,-3.2 0,-3.27 a 1,1 0 0 0 -1,-0.999999984482 h -1.68 a 1,1 0 0 0 -1,1.149999984482 6.22,6.22 0 0 1 -0.36,3.44 c -1.93,-0.62 -7.78,-2.12 -13,0.72 a 48.09,48.09 0 0 0 -7,4.8899999 c -2.7,2.15 -5.24,4.17 -7.63,4.63 -2.78,0.53 -12.1799998,3 -16.2399998,12.85 -3.66,8.86 -2.44000004,18.71 3.11,25.1 4.8,5.52 13.2599998,7.89 20.9099998,7.89 a 33.12,33.12 0 0 0 5.51,-0.45 26,26 0 0 0 3.38,2.45 15.55,15.55 0 0 0 8.16,2 29.78,29.78 0 0 0 13.9,-3.75 40.5,40.5 0 0 0 7.21,-6.45 l 0.59,-0.63 a 29.3,29.3 0 0 1 5.78,-3.43 c 2.15,-0.84 6.15,-5.1 6,-9.26 0,0 0,0 0,-0.07 a 5.87,5.87 0 0 0 -0.84,-3.32 z m -19.31,-0.23 c 0.61,0.08 1.06,0.14 1.31,0.16 a 15.13,15.13 0 0 0 3,-0.31 42.21,42.21 0 0 1 8.87,-0.69 c 2.14,0.09 3.67,0.82 4.44,2.09 a 3.94,3.94 0 0 1 0.15,3.6 c -1,2 -4.32,4.23 -7.44,4.9 -3.4,0.73 -7.16,4 -7.32,4.1 l -0.09,0.09 c -3.78,4.21 -8.34,5.33 -12.68,6.12 -4.87,0.88 -11,0.28 -14.37,-1.41 -3.1,-1.57 -7.36,-5.87 -5.64,-10.71 1.59,-4.45 6.44,-5.91 12.06,-7.59 l 1.15,-0.35 a 24.14,24.14 0 0 1 6.74,-0.78 76.41,76.41 0 0 1 9.82,0.78 z m -49.7299998,13.95 c -5.06,-5.82 -6.14000004,-14.86 -2.77,-23 3.58,-8.64 11.5199998,-11 14.7599998,-11.65 2.87,-0.55 5.6,-2.73 8.5,-5 a 46.59,46.59 0 0 1 6.67,-4.6999999 c 4.62,-2.51 10.07,-1 11.57,-0.53 a 2.3,2.3 0 0 0 2.1,1.34 h 0.16 a 13,13 0 0 1 3.08,10.3599999 c -0.91,5.54 -3.18,8.09 -4.15,9.19 -0.2,0.22 -0.35,0.4 -0.45,0.54 -0.37,0.42 -2.78,3.36 -2,6.81 a 21.88,21.88 0 0 0 -4.91,0.8 l -1.14,0.34 c -5.88,1.77 -11.43,3.44 -13.36,8.84 a 8.89,8.89 0 0 0 0.68,7.39 20.79,20.79 0 0 0 4.26,6.28 c -8.87,1.02 -18.51,-1.85 -22.9999998,-7.01 z m 63.1299998,-2.86 a 29.71,29.71 0 0 0 -6.47,3.88 l -0.64,0.68 a 38.78,38.78 0 0 1 -6.81,6.12 c -2.86,1.79 -13.33,5.7 -19.94,1.67 a 23.63,23.63 0 0 1 -3.33,-2.46 26.93,26.93 0 0 0 9.21,1.49 29.11,29.11 0 0 0 5.2,-0.45 c 4.67,-0.85 9.58,-2.07 13.77,-6.7 0.42,-0.35 3.67,-3 6.39,-3.62 a 15.54,15.54 0 0 0 4,-1.55 5.15,5.15 0 0 1 -1.38,0.93 z"
     id="path6"
     inkscape:connector-curvature="0" />
  <path
     d="m 9.6987142,24.540064 c -2.13,1 -4.38,6.89 -4.63,7.55 -0.89,2.37 -0.38,3.55 0.2,4.11 a 2,2 0 0 0 1.44,0.57 2.46,2.46 0 0 0 0.92,-0.19 c 1.11,-0.45 2.8299998,-3.45 4.0799998,-5.88 a 1,1 0 1 0 -1.7799998,-0.91 25.81,25.81 0 0 1 -3,4.94 0.39,0.39 0 0 1 -0.21,0 c -0.07,-0.07 -0.23,-0.62 0.28,-2 1.39,-3.71 3,-6.17 3.6199998,-6.45 a 1.85,1.85 0 0 1 1.33,0 0.34,0.34 0 0 1 0,0.1 1,1 0 0 0 1.8,0.86 2,2 0 0 0 -0.33,-2.3 3.41,3.41 0 0 0 -3.7199998,-0.4 z"
     id="path8"
     inkscape:connector-curvature="0" />
</svg>
