<?xml version="1.0" encoding="UTF-8" standalone="no"?>
<svg
   xmlns:dc="http://purl.org/dc/elements/1.1/"
   xmlns:cc="http://creativecommons.org/ns#"
   xmlns:rdf="http://www.w3.org/1999/02/22-rdf-syntax-ns#"
   xmlns:svg="http://www.w3.org/2000/svg"
   xmlns="http://www.w3.org/2000/svg"
   xmlns:sodipodi="http://sodipodi.sourceforge.net/DTD/sodipodi-0.dtd"
   xmlns:inkscape="http://www.inkscape.org/namespaces/inkscape"
   version="1.1"
   x="0px"
   y="0px"
   viewBox="0 0 85.043945 80.75"
   xml:space="preserve"
   id="svg8"
   sodipodi:docname="pumpkin.svg"
   width="85.043945"
   height="80.75"
   inkscape:version="0.92.3 (2405546, 2018-03-11)"><metadata
     id="metadata14"><rdf:RDF><cc:Work
         rdf:about=""><dc:format>image/svg+xml</dc:format><dc:type
           rdf:resource="http://purl.org/dc/dcmitype/StillImage" /><dc:title></dc:title></cc:Work></rdf:RDF></metadata><defs
     id="defs12" /><sodipodi:namedview
     pagecolor="#ffffff"
     bordercolor="#666666"
     borderopacity="1"
     objecttolerance="10"
     gridtolerance="10"
     guidetolerance="10"
     inkscape:pageopacity="0"
     inkscape:pageshadow="2"
     inkscape:window-width="684"
     inkscape:window-height="480"
     id="namedview10"
     showgrid="false"
     fit-margin-top="0"
     fit-margin-left="0"
     fit-margin-right="0"
     fit-margin-bottom="0"
     inkscape:zoom="1.888"
     inkscape:cx="59.294492"
     inkscape:cy="28"
     inkscape:window-x="0"
     inkscape:window-y="0"
     inkscape:window-maximized="0"
     inkscape:current-layer="svg8" /><path
     d="m 85.043945,53.125 c 0,-9.947266 -3.08789,-17.284668 -9.176758,-21.808105 -4.400817,-3.26886 -9.785888,-4.634766 -14.954406,-5.027405 -0.09039,-0.0082 -0.183411,-0.01221 -0.274719,-0.01892 -1.480225,-0.102783 -2.939453,-0.128601 -4.351929,-0.09485 -1.467774,-0.238525 -7.179688,-1.569946 -7.179688,-7.86322 0,-8.768921 -5.602539,-17.805969 -15.00531,-18.2683716 C 33.989502,0.0176392 33.874573,0 33.754883,0 h -1.441406 c -2.760743,0 -4.811524,0.708984 -6.269532,2.166992 -2.466797,2.468262 -2.466797,6.484375 0,8.953125 1.045899,1.04541 2.419922,1.567871 3.792969,1.567871 1.374024,0 2.74707,-0.522949 3.792969,-1.567871 0.867187,-0.867676 1.345703,-2.020508 1.345703,-3.24707 0,-1.227051 -0.478516,-2.379883 -1.345703,-3.24707 -0.585938,-0.584961 -1.536133,-0.585938 -2.12207,9.76e-4 -0.584961,0.585938 -0.584961,1.535645 9.76e-4,2.121094 0.300781,0.300293 0.466797,0.699707 0.466797,1.125 0,0.424805 -0.166015,0.824707 -0.466797,1.125488 -0.921875,0.921875 -2.421875,0.920899 -3.34375,0 -1.297851,-1.298828 -1.297851,-3.411621 0,-4.710449 C 28.717773,3.735352 29.75,3 32.313477,3 h 0.73413 c 0.90857,0.440796 4.933838,2.886719 4.933838,11.608398 0,5.782959 -1.176452,11.13739 -9.316406,11.566468 -6.405212,-0.139771 -13.77716,0.90216 -19.489258,5.145935 C 3.086914,35.844238 0,43.180176 0,53.125 c 0,27.007446 29.522339,27.610901 41.712769,27.62439 0.0062,6.1e-5 0.01239,6.1e-4 0.01868,6.1e-4 0.0021,0 0.0041,-6.1e-4 0.0062,-6.1e-4 0.262756,3.05e-4 0.527893,6.1e-4 0.773926,6.1e-4 6.1e-5,0 1.22e-4,0 1.83e-4,0 0.0032,0 0.007,0 0.01025,0 0.0032,0 0.007,0 0.01025,0 6.1e-5,0 1.22e-4,0 1.83e-4,0 0.590454,0 1.240783,-9.77e-4 1.923523,-0.0046 0.01563,4.89e-4 0.03027,0.0046 0.04602,0.0046 0.06213,0 0.121399,-0.005 0.183106,-0.0057 12.886535,-0.08453 40.358886,-1.56781 40.358886,-27.619263 z m -44.0625,-38.516602 c 0,-4.905273 -1.165039,-8.218261 -2.554687,-10.424804 4.887695,2.458496 7.679687,8.36914 7.679687,14.128906 0,4.009521 1.748108,6.672241 3.927735,8.368652 -3.669251,0.497864 -6.446473,1.211243 -7.502869,1.505615 -0.932739,-0.259582 -3.201172,-0.845153 -6.243835,-1.321533 2.594726,-1.970031 4.693969,-5.588806 4.693969,-12.256836 z m 27.386658,59.280457 c 4.44635,-5.496887 4.303162,-12.581726 4.299866,-12.687195 -0.02734,-0.828613 -0.723633,-1.489746 -1.547852,-1.450683 -0.827148,0.02637 -1.477539,0.719238 -1.450195,1.547363 0.01685,0.51355 0.250793,12.095642 -10.620484,15.181274 -1.63684,0.291626 -3.395935,0.53357 -5.26831,0.728577 3.949463,-3.51477 5.936157,-8.859192 6.521606,-12.289246 0.139649,-0.815918 -0.409179,-1.589355 -1.224609,-1.729492 -0.810547,-0.145508 -1.59082,0.40625 -1.732422,1.222656 -0.0059,0.03467 -0.621094,3.492188 -2.583984,6.866211 -2.409913,4.141358 -5.7146,6.292969 -9.810486,6.442627 -0.799317,0.01471 -1.599915,0.02893 -2.433472,0.02899 -0.249329,0 -0.500793,-0.0027 -0.751038,-0.0038 C 38.5354,77.510864 35.894592,76.243652 33.918945,73.975098 28.8125,68.112305 29.491211,57.462402 29.498047,57.355469 c 0.05762,-0.826172 -0.564453,-1.542969 -1.390625,-1.601074 -0.810547,-0.05322 -1.541992,0.5625 -1.601563,1.38916 -0.03516,0.48584 -0.780273,11.980957 5.142578,18.79248 0.479493,0.551514 0.997986,1.041321 1.536011,1.499695 -2.211426,-0.164734 -4.404419,-0.406128 -6.540466,-0.752991 -4.667725,-1.098449 -8.014099,-4.090698 -9.932068,-8.92102 -1.503906,-3.786133 -1.543945,-7.335938 -1.544922,-7.428711 0,-0.828125 -0.671875,-1.499512 -1.5,-1.499512 -0.828125,0 -1.5,0.671387 -1.5,1.5 0,0.113526 0.08368,7.976258 4.832825,13.76825 C 8.816589,70.78125 3,64.573059 3,53.125 3,44.185059 5.677734,37.661133 10.958008,33.733887 c 1.909424,-1.419739 4.062378,-2.425721 6.318237,-3.129883 -5.282776,6.999817 -5.117371,20.083313 -5.1073,20.672363 0.01465,0.819336 0.683594,1.473145 1.499024,1.473145 0.0088,0 0.01855,0 0.02734,0 0.828125,-0.01416 1.487305,-0.697266 1.473633,-1.525391 -0.0029,-0.141602 -0.175781,-14.200684 5.365235,-19.819336 1.20758,-1.224243 2.577209,-1.917724 4.156616,-2.119201 0.908752,-0.05994 1.810059,-0.08795 2.698852,-0.09064 0.07135,0.01044 0.142518,0.02185 0.216797,0.02185 0.287049,0 0.627808,-6.11e-4 1.005677,-0.01013 0.941955,0.02148 1.861633,0.0694 2.752319,0.137268 -2.735107,3.213135 -2.778504,8.654175 -2.778504,8.906067 0,0.827637 0.669922,1.497559 1.498047,1.499023 9.77e-4,0 9.77e-4,0 0.002,0 0.826172,0 1.498047,-0.669922 1.5,-1.49707 0.0039,-1.496094 0.47168,-5.754883 2.557618,-7.470215 0.829284,-0.681823 1.8703,-0.894897 3.162658,-0.676208 2.569275,0.461181 4.331788,0.945679 4.721131,1.057129 0.119263,0.04175 0.243286,0.06903 0.37146,0.07947 0.04138,0.004 0.08173,4.27e-4 0.122742,10e-4 0.04877,-6.1e-5 0.09686,0.0035 0.146118,-0.0013 0.127807,-0.01062 0.251403,-0.03821 0.370239,-0.0799 0.502563,-0.144043 3.274536,-0.905334 7.121826,-1.438843 2.879578,-0.157836 5.211182,0.785584 6.91449,2.798401 3.147461,3.720215 4.050781,10.937012 2.301758,18.385743 -0.189453,0.806152 0.310547,1.613769 1.117187,1.803222 0.115235,0.02686 0.230469,0.04004 0.34375,0.04004 0.680664,0 1.296875,-0.466308 1.458985,-1.157714 1.55957,-6.638672 1.607421,-15.643555 -2.931641,-21.009278 -0.440125,-0.52008 -0.924194,-0.972046 -1.429138,-1.389526 1.082458,0.0096 2.184143,0.06213 3.291076,0.15979 2.304078,0.322815 4.186219,1.251648 5.597046,2.793701 3.897461,4.260254 3.275391,11.807129 3.268555,11.883789 -0.07422,0.824219 0.533203,1.553223 1.357422,1.628906 0.0459,0.0044 0.09277,0.0063 0.138672,0.0063 0.766601,0 1.419922,-0.584473 1.492187,-1.362793 0.03058,-0.332886 0.63385,-7.599243 -2.998779,-12.848206 1.410523,0.60669 2.760132,1.350281 4.003662,2.274964 5.28125,3.926758 7.958985,10.452148 7.958985,19.394531 -10e-7,7.632812 -2.005067,16.011841 -13.675843,20.763855 z"
     id="path2"
     inkscape:connector-curvature="0" /></svg>