<?xml version="1.0" encoding="UTF-8" standalone="no"?>
<svg
   xmlns:dc="http://purl.org/dc/elements/1.1/"
   xmlns:cc="http://creativecommons.org/ns#"
   xmlns:rdf="http://www.w3.org/1999/02/22-rdf-syntax-ns#"
   xmlns:svg="http://www.w3.org/2000/svg"
   xmlns="http://www.w3.org/2000/svg"
   xmlns:sodipodi="http://sodipodi.sourceforge.net/DTD/sodipodi-0.dtd"
   xmlns:inkscape="http://www.inkscape.org/namespaces/inkscape"
   version="1.1"
   x="0px"
   y="0px"
   viewBox="0 0 41.651371 86.395325"
   enable-background="new 0 0 45 90"
   xml:space="preserve"
   id="svg8"
   sodipodi:docname="sorghum.svg"
   width="41.651371"
   height="86.395325"
   inkscape:version="0.92.3 (2405546, 2018-03-11)"><metadata
     id="metadata14"><rdf:RDF><cc:Work
         rdf:about=""><dc:format>image/svg+xml</dc:format><dc:type
           rdf:resource="http://purl.org/dc/dcmitype/StillImage" /><dc:title></dc:title></cc:Work></rdf:RDF></metadata><defs
     id="defs12" /><sodipodi:namedview
     pagecolor="#ffffff"
     bordercolor="#666666"
     borderopacity="1"
     objecttolerance="10"
     gridtolerance="10"
     guidetolerance="10"
     inkscape:pageopacity="0"
     inkscape:pageshadow="2"
     inkscape:window-width="684"
     inkscape:window-height="480"
     id="namedview10"
     showgrid="false"
     fit-margin-top="0"
     fit-margin-left="0"
     fit-margin-right="0"
     fit-margin-bottom="0"
     inkscape:zoom="2.0977778"
     inkscape:cx="36.437644"
     inkscape:cy="31.949"
     inkscape:window-x="0"
     inkscape:window-y="0"
     inkscape:window-maximized="0"
     inkscape:current-layer="svg8" /><path
     d="m 41.604101,84.649326 c -0.192,-0.959 -0.929,-1.738 -1.646,-1.754 -11.842,-0.246 -17.146,-16.621 -18.888,-23.705 0.077,-3.76 0.416,-3.33 2.006,-5.287 0,0 0.036,-0.08 0.097,-0.221 0.891,-0.422 1.438,-1.352 1.369,-2.346 0.621,-0.168 1.009,-0.785 0.868,-1.418 -0.081,-0.361 -0.321,-0.635 -0.625,-0.795 0.027,-0.094 0.055,-0.191 0.083,-0.287 0.178,0.012 0.358,0.008 0.542,-0.033 1.042,-0.23 1.701,-1.266 1.469,-2.309 -0.137,-0.613 -0.555,-1.086 -1.086,-1.33 0.014,-0.064 0.026,-0.133 0.04,-0.197 0.949,-0.352 1.522,-1.347 1.297,-2.363 -0.078,-0.354 -0.251,-0.66 -0.477,-0.912 0.897,-0.551 1.398,-1.619 1.157,-2.703 -0.139,-0.625 -0.503,-1.135 -0.979,-1.486 0.015,-0.268 0.026,-0.54 0.036,-0.812 0.871,-0.342 1.39,-1.27 1.182,-2.212 -0.13,-0.58 -0.513,-1.034 -1.002,-1.289 0.015,-0.165 0.012,-0.334 -0.021,-0.505 0.428,-0.423 0.638,-1.047 0.498,-1.677 -0.122,-0.55 -0.484,-0.978 -0.949,-1.215 -0.594,-4.089 -1.968,-2.74 -2.925,-1.127 -0.64,0.21 -1.032,0.868 -0.881,1.541 0.009,0.042 0.026,0.079 0.039,0.119 -0.108,0.247 -0.172,0.406 -0.172,0.406 0,0 -0.174,-0.525 -0.403,-1.524 0.063,-0.236 0.079,-0.487 0.022,-0.742 -0.004,-0.018 -0.013,-0.034 -0.017,-0.051 0.169,-0.282 0.236,-0.626 0.159,-0.973 -0.052,-0.235 -0.167,-0.437 -0.318,-0.603 0.735,-0.358 1.161,-1.181 0.976,-2.015 -0.099,-0.445 -0.357,-0.808 -0.697,-1.059 0.939,-0.495 1.476,-1.564 1.234,-2.649 -0.237,-1.07 -1.15,-1.804 -2.189,-1.877 0.8,-0.221 1.301,-1.026 1.118,-1.846 -0.108,-0.492 -0.439,-0.871 -0.86,-1.072 0.233,-0.278 0.354,-0.645 0.269,-1.026 -0.035,-0.157 -0.102,-0.298 -0.188,-0.423 0.052,-0.003 0.103,0.009 0.154,-0.003 0.524,-0.116 0.851,-0.632 0.735,-1.155 -0.071,-0.318 -0.298,-0.548 -0.577,-0.665 0.171,-0.219 0.257,-0.502 0.192,-0.795 -0.084,-0.376 -0.38,-0.644 -0.733,-0.725 0.064,-0.005 0.129,-0.008 0.193,-0.023 0.785,-0.174 1.277,-0.946 1.103,-1.7289999 -0.118,-0.533 -0.519,-0.926 -1.009,-1.07 0.01,-0.08 0.021,-0.16 0.033,-0.24 1.063,-0.44 1.691,-1.588 1.436,-2.751 -0.114,-0.514 -0.388,-0.948 -0.752,-1.274 0.006,-0.031 0.013,-0.062 0.02,-0.093 0.138,-0.003 0.277,-0.019 0.417,-0.05 1.174,-0.26 1.914,-1.423 1.653,-2.595 -0.26,-1.17199997 -1.422,-1.91299997 -2.597,-1.65199997 -0.813,0.181 -1.405,0.797 -1.614,1.54499997 -0.256,0.042 -0.525,0.092 -0.809,0.151 -0.418,-0.518 -1.103,-0.78999997 -1.797,-0.635 -0.793,0.176 -1.34,0.848 -1.406,1.616 -0.176,0.071 -0.354,0.144 -0.533,0.223 -0.458,-0.233 -0.991,-0.324 -1.533,-0.204 -0.919,0.205 -1.582,0.934 -1.752,1.8 -0.454,-0.16 -0.955,-0.206 -1.46,-0.094 -1.4359997,0.314 -2.3359997,1.734 -2.0169997,3.167 0.01,0.048 0.031,0.091 0.045,0.138 -0.256,0.271 -0.51,0.555 -0.762,0.85 -0.18,-0.011 -0.361,-0.007 -0.545,0.034 -1.043,0.231 -1.698,1.263 -1.467,2.3049999 0.018,0.081 0.049,0.154 0.076,0.23 -0.127,0.192 -0.25,0.397 -0.375,0.597 -0.277,-0.105 -0.586,-0.134 -0.896,-0.065 -0.848,0.187 -1.379,1.027 -1.19,1.875 0.083,0.376 0.299,0.685 0.583,0.901 -0.15,0.305 -0.299,0.615 -0.444,0.934 -0.228,-0.102 -0.479,-0.153 -0.741,-0.095 -0.654,0.145 -1.063,0.791 -0.919,1.443 0.061,0.272 0.221,0.487 0.419,0.652 -0.008,0.001 -0.017,0.001 -0.025,0.003 -0.78,0.174 -1.277,0.948 -1.104,1.731 0.094,0.418 0.362,0.749 0.709,0.944 -0.181,0.169 -0.279,0.419 -0.221,0.68 0.035,0.166 0.133,0.297 0.255,0.396 -0.003,0.037 -0.009,0.067 -0.012,0.104 -0.939,0.72 -1.437,1.938 -1.163,3.168 0.131,0.586 0.424,1.09 0.813,1.493 -0.502,0.278 -0.787,0.856 -0.656,1.447 0.119,0.533 0.545,0.92 1.051,1.017 0.003,0.031 0.008,0.064 0.01,0.095 -0.068,0.24 -0.086,0.498 -0.028,0.759 0.029,0.133 0.079,0.255 0.139,0.371 0.009,0.081 0.015,0.155 0.023,0.236 -0.099,-0.013 -0.196,-0.025 -0.298,-0.024 0.046,-0.178 0.063,-0.364 0.021,-0.555 -0.144,-0.651 -0.79,-1.063 -1.44000002,-0.917 -0.652,0.144 -1.063,0.791 -0.918,1.441 0.086,0.382 0.352,0.664 0.682,0.816 -0.416,0.5 -0.611,1.174 -0.46,1.858 0.19,0.859 0.86700002,1.482 1.67700002,1.652 0.049,0.185 0.1,0.373 0.151,0.565 -0.13,0.384 -0.167,0.805 -0.072,1.229 0.106,0.479 0.356,0.887 0.692,1.194 -0.28,0.621 -0.38,1.329 -0.221,2.043 0.237,1.072 0.98,1.896 1.92,2.293 0.012,0.029 0.025,0.059 0.037,0.088 -0.235,0.51 -0.32,1.092 -0.189,1.683 0.168,0.755 0.646,1.356 1.267,1.715 -0.038,0.125 -0.056,0.256 -0.026,0.393 0.086,0.387 0.449,0.629 0.833,0.6 10e-4,0.027 -0.004,0.053 0.003,0.082 0.037,0.168 0.176,0.281 0.336,0.301 -0.19,0.184 -0.293,0.449 -0.23,0.727 0.085,0.385 0.443,0.629 0.828,0.6 0,0.027 -0.005,0.053 0.002,0.082 0.038,0.174 0.183,0.287 0.35,0.301 -0.297,0.23 -0.457,0.613 -0.371,1.002 0.121,0.539 0.652,0.877 1.191,0.758 0.01,-0.002 0.018,-0.01 0.028,-0.012 0.009,0.102 0.014,0.203 0.036,0.307 0.232,1.039 1.104,1.762 2.1049997,1.869 -0.01,0.166 -0.006,0.334 0.031,0.504 0.191,0.865 0.972,1.445 1.826,1.416 0.008,0.092 0.012,0.184 0.031,0.275 0.262,1.174 1.424,1.912 2.598,1.652 0.086,-0.02 0.164,-0.053 0.244,-0.08 l 3.631,3.693 c 1.681,7.738 7.262,26.672 21.672,26.98 0.007,0 0.015,0 0.021,0 0.721,0 1.147,-0.781 0.952,-1.746 z m -19.392,-44.665 c 0.591,-0.131 1.166,0.241 1.297,0.824 0.13,0.589 -0.234,1.168 -0.824,1.299 -0.586,0.131 -1.166,-0.24 -1.297,-0.825 -0.131,-0.585 0.24,-1.168 0.824,-1.298 z m -16.8789997,-6.897 c -0.586,0.131 -1.166,-0.24 -1.296,-0.826 -0.131,-0.585 0.239,-1.167 0.824,-1.297 0.585,-0.129 1.166,0.24 1.297,0.825 0.13,0.589 -0.239,1.169 -0.825,1.298 z M 18.889101,3.8343261 c 0.59,-0.131 1.168,0.241 1.297,0.828 0.132,0.586 -0.236,1.164 -0.826,1.295 -0.582,0.131 -1.166,-0.24 -1.295,-0.825 -0.131,-0.585 0.242,-1.167 0.824,-1.298 z m -0.632,18.3379999 c -0.586,0.129 -1.166,-0.241 -1.297,-0.825 -0.129,-0.588 0.239,-1.17 0.825,-1.299 0.591,-0.131 1.167,0.241 1.297,0.827 0.13,0.584 -0.235,1.166 -0.825,1.297 z m -0.624,-9.518 c 0.583,-0.129 1.166,0.242 1.294,0.828 0.131,0.587 -0.238,1.167 -0.824,1.297 -0.588,0.131 -1.166,-0.238 -1.295,-0.826 -0.131,-0.586 0.235,-1.168 0.825,-1.299 z m -2.192,15.218 c 0.585,-0.131 1.165,0.24 1.296,0.825 0.129,0.587 -0.239,1.167 -0.825,1.298 -0.585,0.131 -1.166,-0.239 -1.296,-0.828 -0.131,-0.583 0.238,-1.164 0.825,-1.295 z m -6.4479997,-7.851 c -0.586,0.13 -1.166,-0.24 -1.297,-0.827 -0.13,-0.586 0.242,-1.166 0.824,-1.297 0.586,-0.13 1.168,0.24 1.298,0.825 0.131,0.587 -0.241,1.169 -0.825,1.299 z m 1.8949997,23.591 c -0.586,0.13 -1.1659997,-0.241 -1.2969997,-0.826 -0.129,-0.585 0.24,-1.168 0.8249997,-1.298 0.588,-0.131 1.171,0.238 1.302,0.826 0.13,0.586 -0.243,1.168 -0.83,1.298 z m 0.385,-20.014 c -0.588,0.131 -1.165,-0.24 -1.2959997,-0.825 -0.13,-0.588 0.2369997,-1.167 0.8239997,-1.298 0.585,-0.128 1.166,0.24 1.297,0.827 0.131,0.587 -0.24,1.165 -0.825,1.296 z m 1.835,-14.0229999 c 0.59,-0.13 1.172,0.24 1.3,0.8249999 0.132,0.585 -0.239,1.167 -0.829,1.298 -0.586,0.129 -1.166,-0.24 -1.295,-0.825 -0.131,-0.586 0.239,-1.1669999 0.824,-1.2979999 z m 0.522,26.8669999 c -0.588,0.131 -1.168,-0.238 -1.299,-0.823 -0.131,-0.589 0.239,-1.167 0.827,-1.298 0.586,-0.13 1.166,0.238 1.298,0.825 0.129,0.586 -0.242,1.167 -0.826,1.296 z m 1.964,15.533 c -0.586,0.129 -1.168,-0.242 -1.298,-0.828 -0.131,-0.586 0.24,-1.166 0.826,-1.295 0.584,-0.131 1.166,0.24 1.295,0.824 0.131,0.586 -0.24,1.168 -0.823,1.299 z m 2.399,-17.614 c -0.584,0.129 -1.165,-0.239 -1.295,-0.827 -0.131,-0.587 0.24,-1.166 0.826,-1.296 0.584,-0.13 1.166,0.24 1.294,0.825 0.131,0.588 -0.239,1.167 -0.825,1.298 z m 1.938,13.185 c -0.586,0.131 -1.166,-0.24 -1.297,-0.826 -0.129,-0.584 0.24,-1.168 0.824,-1.297 0.591,-0.131 1.168,0.242 1.297,0.824 0.131,0.588 -0.235,1.168 -0.824,1.299 z"
     id="path2"
     inkscape:connector-curvature="0" /></svg>