<svg height="480pt" viewBox="-64 0 480 480.00001" width="480pt" xmlns="http://www.w3.org/2000/svg"><path d="m344 0h-336c-4.417969 0-8 3.582031-8 8 .410156 29.140625 11.84375 57.039062 32 78.089844v33.910156c-.007812 16.003906 11.808594 29.554688 27.667969 31.722656 15.859375 2.167969 30.878906-7.71875 35.164062-23.136718 15.804688 6.308593 32.3125 10.679687 49.167969 13.015624v26.398438c0 17.671875 14.328125 32 32 32s32-14.328125 32-32v-26.398438c16.855469-2.339843 33.363281-6.714843 49.167969-13.027343 4.285156 15.421875 19.300781 25.304687 35.160156 23.140625 15.855469-2.164063 27.675781-15.710938 27.671875-31.714844v-33.910156c20.15625-21.050782 31.589844-48.949219 32-78.089844 0-4.417969-3.582031-8-8-8zm-37.800781 77.425781c-1.414063 1.484375-2.199219 3.457031-2.199219 5.511719v37.0625c0 8.835938-7.164062 16-16 16s-16-7.164062-16-16v-3.121094c-.011719-2.730468-1.417969-5.269531-3.730469-6.726562-2.308593-1.457032-5.207031-1.636719-7.675781-.472656-19.410156 9.011718-40.175781 14.738281-61.457031 16.953124-4.058594.441407-7.136719 3.867188-7.136719 7.953126v33.414062c0 8.835938-7.164062 16-16 16s-16-7.164062-16-16v-33.457031c0-4.082031-3.078125-7.511719-7.136719-7.949219-21.28125-2.214844-42.046875-7.945312-61.457031-16.953125-2.476562-1.167969-5.382812-.984375-7.695312.488281-2.308594 1.464844-3.710938 4.011719-3.710938 6.75v3.121094c0 8.835938-7.164062 16-16 16s-16-7.164062-16-16v-37.0625c0-2.054688-.785156-4.027344-2.199219-5.511719-16.542969-16.511719-26.933593-38.1875-29.441406-61.425781h319.28125c-2.507813 23.238281-12.898437 44.914062-29.441406 61.425781zm0 0"/><path d="m264 304h-176c-4.417969 0-8 3.582031-8 8v32c0 4.417969 3.582031 8 8 8h8.488281l7.511719 120.496094c.261719 4.222656 3.769531 7.511718 8 7.503906h128c4.230469.007812 7.738281-3.28125 8-7.503906l4.078125-65.320313c1.042969.128907 2.082031.25 3.128906.351563 2.257813.226562 4.503907-.515625 6.183594-2.039063 1.675781-1.527343 2.628906-3.691406 2.617187-5.960937.011719-4.074219-3.066406-7.496094-7.121093-7.910156-1.277344-.128907-2.542969-.289063-3.816407-.464844l2.449219-39.199219h8.480469c4.417969 0 8-3.582031 8-8v-31.953125c0-4.417969-3.582031-8-8-8zm-168 16h72.40625c.460938 5.402344 1.382812 10.753906 2.753906 16h-75.160156zm136.488281 144h-112.976562l-7-112h64.289062c11.496094 24.96875 33.109375 43.84375 59.398438 51.871094zm4.800781-76.6875c-17.886718-6.378906-32.929687-18.890625-42.464843-35.3125h44.664062zm18.710938-51.3125h-68.3125c-1.636719-5.207031-2.738281-10.566406-3.28125-16h71.59375zm0 0"/><path d="m176 296c-17.671875 0-32-14.328125-32-32 0-14.992188 21.167969-46.398438 25.414062-52.542969 1.574219-2.046875 4.007813-3.246093 6.585938-3.246093s5.011719 1.199218 6.585938 3.246093c4.246093 6.144531 25.414062 37.550781 25.414062 52.542969 0 17.671875-14.328125 32-32 32zm0-65.433594c-8.527344 13.601563-16 28.136719-16 33.433594 0 8.835938 7.164062 16 16 16s16-7.164062 16-16c0-5.304688-7.464844-19.808594-16-33.433594zm0 0"/></svg>