<?xml version="1.0" encoding="UTF-8" standalone="no"?>
<svg
   xmlns:dc="http://purl.org/dc/elements/1.1/"
   xmlns:cc="http://creativecommons.org/ns#"
   xmlns:rdf="http://www.w3.org/1999/02/22-rdf-syntax-ns#"
   xmlns:svg="http://www.w3.org/2000/svg"
   xmlns="http://www.w3.org/2000/svg"
   xmlns:sodipodi="http://sodipodi.sourceforge.net/DTD/sodipodi-0.dtd"
   xmlns:inkscape="http://www.inkscape.org/namespaces/inkscape"
   version="1.1"
   x="0px"
   y="0px"
   viewBox="0 0 93.781937 95"
   enable-background="new 0 0 100 100"
   xml:space="preserve"
   id="svg24"
   sodipodi:docname="cowpeas.svg"
   width="93.781937"
   height="95"
   inkscape:version="0.92.2 (5c3e80d, 2017-08-06)"><metadata
     id="metadata30"><rdf:RDF><cc:Work
         rdf:about=""><dc:format>image/svg+xml</dc:format><dc:type
           rdf:resource="http://purl.org/dc/dcmitype/StillImage" /><dc:title></dc:title></cc:Work></rdf:RDF></metadata><defs
     id="defs28" /><sodipodi:namedview
     pagecolor="#ffffff"
     bordercolor="#666666"
     borderopacity="1"
     objecttolerance="10"
     gridtolerance="10"
     guidetolerance="10"
     inkscape:pageopacity="0"
     inkscape:pageshadow="2"
     inkscape:window-width="2400"
     inkscape:window-height="1271"
     id="namedview26"
     showgrid="false"
     fit-margin-top="0"
     fit-margin-left="0"
     fit-margin-right="0"
     fit-margin-bottom="0"
     inkscape:zoom="1.888"
     inkscape:cx="-13.490153"
     inkscape:cy="35"
     inkscape:window-x="-9"
     inkscape:window-y="2"
     inkscape:window-maximized="1"
     inkscape:current-layer="svg24" /><g
     id="g18"
     transform="translate(-3.1087973,-2.5)"><path
       d="m 27.905,92.763 c -3.537,0 -9.074,-1.196 -15.368,-6.907 C 0.958,75.348 1.738,66.231 5.925,61.619 c 2.226,-2.453 5.282,-3.861 8.385,-3.861 2.319,0 4.518,0.812 6.188,2.288 2.48,2.188 3.09,4.013 3.625,5.623 0.447,1.342 0.833,2.502 2.433,3.954 1.356,1.23 2.44,1.486 3.813,1.812 1.752,0.415 3.737,0.885 6.308,3.289 3.987,3.727 3.919,10.165 -0.155,14.657 -1.953,2.15 -5.092,3.382 -8.617,3.382 z M 14.31,60.642 c -2.291,0 -4.569,1.061 -6.25,2.914 -5.27,5.807 0.163,14.491 6.414,20.166 4.38,3.973 9.149,6.16 13.432,6.16 2.714,0 5.075,-0.888 6.481,-2.437 2.954,-3.259 3.1,-8.02 0.321,-10.615 -2.011,-1.882 -3.465,-2.225 -5.003,-2.59 -1.49,-0.353 -3.18,-0.752 -5.086,-2.483 -2.16,-1.959 -2.729,-3.67 -3.23,-5.178 -0.482,-1.447 -0.898,-2.698 -2.797,-4.372 -1.162,-1.026 -2.643,-1.565 -4.282,-1.565 z"
       id="path2"
       inkscape:connector-curvature="0" /><path
       d="m 20.857,68.136 c 0.758,-0.835 2.558,0.575 4.643,2.468 2.085,1.891 3.663,3.547 2.906,4.38 -0.758,0.837 -3.563,0.535 -5.65,-1.357 -2.083,-1.892 -2.656,-4.656 -1.899,-5.491 z"
       id="path4"
       inkscape:connector-curvature="0" /><path
       d="m 86.094,97.5 c -1.395,0 -2.729,-0.306 -3.969,-0.907 -2.977,-1.445 -4.051,-3.041 -4.999,-4.451 -0.789,-1.173 -1.473,-2.188 -3.402,-3.158 -1.635,-0.824 -2.816,-0.775 -4.157,-0.726 -0.371,0.013 -0.743,0.028 -1.131,0.028 -1.452,0 -3.28,-0.181 -5.828,-1.509 -4.84,-2.523 -6.497,-8.747 -3.772,-14.165 1.916,-3.809 6.541,-6.175 12.073,-6.175 3.785,0 7.815,1.062 11.979,3.154 6.39,3.214 10.665,7.007 12.705,11.272 2.264,4.731 1.065,8.49 0.15,10.309 -1.93,3.844 -5.718,6.328 -9.649,6.328 z M 70.537,85.351 c 1.177,0 2.628,0.124 4.482,1.058 2.604,1.31 3.61,2.806 4.498,4.124 0.852,1.268 1.588,2.36 3.865,3.467 0.844,0.41 1.756,0.617 2.711,0.617 2.852,0 5.629,-1.858 7.074,-4.736 0.678,-1.35 1.558,-4.151 -0.175,-7.772 -1.734,-3.624 -5.677,-7.062 -11.401,-9.942 -3.757,-1.889 -7.352,-2.846 -10.684,-2.846 -5.308,0 -8.434,2.472 -9.499,4.588 -1.975,3.931 -0.84,8.556 2.532,10.315 2.59,1.351 4.075,1.211 5.514,1.153 0.363,-0.014 0.721,-0.026 1.083,-0.026 z"
       id="path6"
       inkscape:connector-curvature="0" /><path
       d="m 79.613,88.893 c -0.507,1.006 -2.62,0.128 -5.135,-1.136 -2.514,-1.266 -4.479,-2.438 -3.973,-3.443 0.508,-1.01 3.291,-1.468 5.808,-0.202 2.513,1.262 3.807,3.773 3.3,4.781 z"
       id="path8"
       inkscape:connector-curvature="0" /><path
       d="M 33.071,40.756 C 30.206,40.756 22.842,39.657 16.4,29.487 12.573,23.442 10.859,17.991 11.304,13.282 11.799,8.06 14.759,5.454 16.482,4.364 18.408,3.143 20.583,2.5 22.772,2.5 c 3.39,0 6.445,1.579 8.175,4.227 1.808,2.769 1.909,4.69 1.997,6.387 0.073,1.414 0.136,2.635 1.293,4.461 0.979,1.547 1.955,2.081 3.191,2.761 1.577,0.866 3.366,1.848 5.204,4.848 2.852,4.654 1.073,10.844 -4.052,14.089 -1.535,0.969 -3.439,1.483 -5.509,1.483 z M 22.772,5.382 c -1.642,0 -3.284,0.489 -4.75,1.419 -1.274,0.808 -3.47,2.758 -3.847,6.754 -0.38,4.001 1.232,8.977 4.66,14.39 3.938,6.219 9.26,9.93 14.235,9.93 1.522,0 2.895,-0.359 3.968,-1.039 3.716,-2.353 5.123,-6.903 3.136,-10.146 C 38.736,24.341 37.427,23.624 36.04,22.863 34.699,22.126 33.178,21.291 31.801,19.117 30.24,16.652 30.148,14.852 30.065,13.264 29.986,11.739 29.917,10.421 28.533,8.302 27.321,6.444 25.221,5.382 22.772,5.382 Z"
       id="path10"
       inkscape:connector-curvature="0" /><path
       d="m 29.138,14.622 c 0.953,-0.604 2.313,1.235 3.819,3.614 1.506,2.379 2.587,4.396 1.635,4.997 -0.954,0.604 -3.578,-0.437 -5.084,-2.815 -1.504,-2.375 -1.321,-5.195 -0.37,-5.796 z"
       id="path12"
       inkscape:connector-curvature="0" /><path
       d="m 50.36,62.604 v 0 c -4.912,-0.002 -9.184,-2.058 -11.149,-5.372 -3.094,-5.22 -1.87,-11.541 2.785,-14.393 3,-1.841 5.039,-1.902 6.839,-1.958 1.408,-0.042 2.521,-0.076 4.095,-1.011 1.86,-1.103 2.471,-2.162 3.179,-3.387 0.848,-1.471 1.81,-3.139 4.679,-4.785 1.369,-0.786 2.942,-1.202 4.55,-1.202 3.735,0 7.342,2.171 9.411,5.665 1.038,1.751 2.493,5.418 0.562,10.296 -1.74,4.396 -5.742,8.476 -11.896,12.125 -4.437,2.633 -8.952,4.022 -13.055,4.022 z M 65.337,33.381 c -1.12,0 -2.169,0.274 -3.114,0.818 -2.196,1.26 -2.855,2.402 -3.618,3.726 -0.795,1.377 -1.694,2.938 -4.204,4.425 -2.214,1.313 -3.947,1.366 -5.478,1.414 -1.58,0.048 -3.072,0.095 -5.421,1.532 -3.242,1.987 -4.055,6.682 -1.812,10.467 1.136,1.913 4.011,3.958 8.671,3.96 3.585,0 7.591,-1.253 11.585,-3.618 5.512,-3.27 9.207,-6.971 10.686,-10.708 1.479,-3.733 0.407,-6.468 -0.362,-7.765 -1.554,-2.622 -4.211,-4.251 -6.933,-4.251 z"
       id="path14"
       inkscape:connector-curvature="0" /><path
       d="m 58.816,39.556 c -0.577,-0.971 -2.624,0.05 -5.045,1.486 -2.423,1.434 -4.302,2.742 -3.726,3.711 0.576,0.971 3.385,1.235 5.808,-0.2 2.419,-1.435 3.538,-4.031 2.963,-4.997 z"
       id="path16"
       inkscape:connector-curvature="0" /></g></svg>