<svg xmlns="http://www.w3.org/2000/svg" viewBox="0 0 178.59375 178.59376"><path d="M10.054168 48.458031c.04155 30.6407-.08319 61.28554.06252 91.92364.479522 7.1054 7.616931 11.92496 14.402438 10.99795 35.951851-.042 71.907989.0841 107.857159-.0632 7.13058-.52985 11.77067-7.78563 10.87046-14.54402v-88.31433H10.054169zm33.298143 93.84025H19.135479v-24.21685h24.216832v24.21685zm0-30.27106H19.135479v-24.21683h24.216832v24.21683zm0-30.27104H19.135479v-24.21684h24.216832v24.21684zm30.271044 60.5421H49.406519v-24.21685h24.216836v24.21685zm0-30.27106H49.406519v-24.21683h24.216836v24.21683zm0-30.27104H49.406519v-24.21684h24.216836v24.21684zm30.27104 60.5421h-24.21683v-24.21685h24.21683v24.21685zm0-30.27106h-24.21683v-24.21683h24.21683v24.21683zm0-30.27104h-24.21683v-24.21684h24.21683v24.21684zm30.27104 60.5421h-24.21683v-24.21685h24.21683v24.21685zm0-30.27106h-24.21683v-24.21683h24.21683v24.21683zm0-30.27104h-24.21683v-24.21684h24.21683v24.21684zm-3.0271-63.569192h-19.67618c-.057-4.844391.11692-9.700396-.0923-14.537129-1.06051-5.937981-10.35424-3.688489-8.98901 2.033342v12.503787H50.920072c-.05699-4.844391.116917-9.700396-.0923-14.537129-1.060506-5.937981-10.354241-3.688489-8.98901 2.033342v12.503787c-7.17144.08476-14.360153-.175422-21.520071.141125-6.487341.846114-11.020913 7.429147-10.26452 13.785327v10.29038h133.192574c-.16232-5.00585.37825-10.07274-.38123-15.029093-1.26091-5.26005-6.29338-9.273566-11.72718-9.187739zm-84.75892 21.189732c-6.767452.32818-11.488243-8.04406-7.827523-13.679296 1.485373-2.745641 4.183004-4.271692 3.286867-.182364.154834 3.139991-.904283 7.41667 2.773135 8.9642 4.3485 1.82721 7.07536-2.95957 6.308178-6.699751v-5.340953c5.704997 2.98091 6.069444 12.010614.536985 15.386934-1.487093 1.00996-3.280171 1.5563-5.077642 1.55123zm60.54208 0c-6.76745.32818-11.48824-8.04406-7.82752-13.679296 1.48538-2.74564 4.18301-4.271693 3.28687-.182364.15483 3.139991-.90428 7.41666 2.77313 8.9642 4.3485 1.82721 7.07536-2.95957 6.30818-6.699751v-5.340953c5.705 2.980906 6.06945 12.010614.53699 15.386934-1.4871 1.00997-3.28018 1.5563-5.07765 1.55123z"/><path d="M171.827915 136.260431c1.04238 27.45288-28.95016 49.51794-54.84368 40.44257-26.51725-7.12225-38.78055-42.28246-22.42885-64.34577 14.64094-23.23731 51.85203-24.55506 68.10004-2.41162 5.9086 7.40662 9.19607 16.84148 9.17249 26.31482z" fill="#ecc594"/><text xml:space="preserve" style="line-height:1.25" x="119.56701" y="140.7561" font-weight="400" font-size="42.66666794" font-family="sans-serif" letter-spacing="0" word-spacing="0"/><path d="M127.9756 163.54081v-29.07833l-9.40539 9.40539-3.37026-3.37027 15.12699-15.127 15.12699 15.127-3.37026 3.37027-9.40538-9.40539v29.07833zm-22.7297-34.25129v-11.20809q0-1.88108 1.41081-3.29189t3.29189-1.41081h40.75668q1.88108 0 3.29188 1.41081 1.41081 1.41081 1.41081 3.29189v11.20809h-4.70269v-11.20809h-40.75667v11.20809z" fill="#f5fffa"/></svg>