<svg xmlns="http://www.w3.org/2000/svg" version="1.1" x="0" y="0" viewBox="0 0 64 64" xml:space="preserve" id="svg38"><style type="text/css" id="style2">.st1{opacity:.2}.st4{fill:#fff}</style><g id="Layer_1"><g id="g6"><circle cx="32" cy="32" r="32" id="circle4" fill="#9ac0e2" fill-opacity="1"/></g><g class="st1" id="g12" opacity=".2"><g id="g10"><path d="M44 48c0 2.2-1.8 4-4 4H24c-2.2 0-4-1.8-4-4V16c0-2.2 1.8-4 4-4h16c2.2 0 4 1.8 4 4z" id="path8" fill="#231f20"/></g></g><g id="g22"><g id="g16"><path d="M24 48.5c-1.4 0-2.5-1.1-2.5-2.5V14c0-1.4 1.1-2.5 2.5-2.5h16c1.4 0 2.5 1.1 2.5 2.5v32c0 1.4-1.1 2.5-2.5 2.5z" id="path14" fill="#4f5d73"/></g><g id="g20"><path class="st4" d="M40 13c.6 0 1 .4 1 1v32c0 .6-.4 1-1 1H24c-.6 0-1-.4-1-1V14c0-.6.4-1 1-1h16m0-3H24c-2.2 0-4 1.8-4 4v32c0 2.2 1.8 4 4 4h16c2.2 0 4-1.8 4-4V14c0-2.2-1.8-4-4-4z" id="path18" fill="#fff"/></g></g><g class="st1" id="g26" opacity=".2"><path class="st4" id="polygon24" fill="#fff" d="M42 49.6V11.5H26.2z"/></g><g id="g30"><path class="st4" id="polygon28" fill="#fff" d="m44 42-4 8H24l-4-8z"/></g><g id="g34"><circle cx="32" cy="46" r="2" id="circle32" fill="#e0e0d1"/></g><text xml:space="preserve" style="line-height:1" x="24.849081" y="27.376263" id="text4556" font-style="normal" font-weight="400" font-size="10.66666698" font-family="sans-serif" letter-spacing="0" word-spacing="0" fill="#000" fill-opacity="1" stroke="none"/></g></svg>