<svg xmlns="http://www.w3.org/2000/svg" viewBox="0 0 64 64" xml:space="preserve"><style>.st2{fill:#231f20}.st4{fill:#fff}</style><g id="Layer_1"><circle cx="32" cy="32" r="32" fill="#e0995e"/><g opacity=".2"><path class="st2" d="M48 26v-8H16v32h32z"/><path class="st2" d="M48 14H16c-2.2 0-4 1.8-4 4v32c0 2.2 1.8 4 4 4h32c2.2 0 4-1.8 4-4V18c0-2.2-1.8-4-4-4z"/></g><path d="M16 50c-1.1 0-2-.9-2-2V16c0-1.1.9-2 2-2h32c1.1 0 2 .9 2 2v32c0 1.1-.9 2-2 2H16z" fill="#77b3d4"/><path class="st4" d="M48 16v32H16V16h32m0-4H16c-2.2 0-4 1.8-4 4v32c0 2.2 1.8 4 4 4h32c2.2 0 4-1.8 4-4V16c0-2.2-1.8-4-4-4z"/><path class="st4" d="M16 44h32v4H16z"/><path d="M14 44h34.9v-2.9s-1.7-3-3.3-4.8c-1.2-1.4-2.9-1.8-4.5-.1l-2.8 2.6-6-7.6c-2.2-2.8-5.9-2.8-8.1 0L14 44z" fill="#4f5d73"/><circle cx="40" cy="24" r="3" fill="#f5cf87"/><g><path class="st4" d="M48 16v32H16V16h32m0-4H16c-2.2 0-4 1.8-4 4v32c0 2.2 1.8 4 4 4h32c2.2 0 4-1.8 4-4V16c0-2.2-1.8-4-4-4z"/></g></g></svg>