<?xml version="1.0" encoding="UTF-8" standalone="no"?>
<svg
   xmlns:dc="http://purl.org/dc/elements/1.1/"
   xmlns:cc="http://creativecommons.org/ns#"
   xmlns:rdf="http://www.w3.org/1999/02/22-rdf-syntax-ns#"
   xmlns:svg="http://www.w3.org/2000/svg"
   xmlns="http://www.w3.org/2000/svg"
   xmlns:sodipodi="http://sodipodi.sourceforge.net/DTD/sodipodi-0.dtd"
   xmlns:inkscape="http://www.inkscape.org/namespaces/inkscape"
   version="1.1"
   x="0px"
   y="0px"
   viewBox="0 0 14 14"
   xml:space="preserve"
   id="svg8"
   sodipodi:docname="climate-tool.svg"
   width="14"
   height="14"
   inkscape:version="0.92.2 (5c3e80d, 2017-08-06)"><metadata
     id="metadata14"><rdf:RDF><cc:Work
         rdf:about=""><dc:format>image/svg+xml</dc:format><dc:type
           rdf:resource="http://purl.org/dc/dcmitype/StillImage" /><dc:title></dc:title></cc:Work></rdf:RDF></metadata><defs
     id="defs12" /><sodipodi:namedview
     pagecolor="#ffffff"
     bordercolor="#666666"
     borderopacity="1"
     objecttolerance="10"
     gridtolerance="10"
     guidetolerance="10"
     inkscape:pageopacity="0"
     inkscape:pageshadow="2"
     inkscape:window-width="1920"
     inkscape:window-height="1001"
     id="namedview10"
     showgrid="false"
     fit-margin-top="0"
     fit-margin-left="0"
     fit-margin-right="0"
     fit-margin-bottom="0"
     inkscape:zoom="11.8"
     inkscape:cx="7"
     inkscape:cy="5"
     inkscape:window-x="-9"
     inkscape:window-y="-9"
     inkscape:window-maximized="1"
     inkscape:current-layer="svg8" /><path
     d="M 4.313,6.981 C 4.375,6.989 4.436,7 4.5,7 4.852,7 5.172,6.873 5.428,6.669 L 7.037,7.677 C 7.014,7.781 7,7.889 7,8 7,8.827 7.673,9.5 8.5,9.5 9.327,9.5 10,8.827 10,8 10,7.737 9.926,7.493 9.806,7.277 L 11.939,4.889 C 12.113,4.959 12.302,5 12.5,5 13.327,5 14,4.327 14,3.5 14,2.673 13.327,2 12.5,2 11.673,2 11,2.673 11,3.5 c 0,0.263 0.074,0.507 0.194,0.723 L 9.06,6.611 C 8.887,6.541 8.698,6.5 8.5,6.5 8.148,6.5 7.828,6.627 7.572,6.831 L 5.963,5.823 C 5.986,5.719 6,5.611 6,5.5 6,4.673 5.327,4 4.5,4 3.673,4 3,4.673 3,5.5 3,5.902 3.161,6.265 3.419,6.535 L 1,11.379 V 0 H 0 V 14 H 14 V 13 H 1.309 Z"
     id="path2"
     inkscape:connector-curvature="0" /></svg>