<svg width="805" height="561" viewBox="0 0 805 561" fill="none" xmlns="http://www.w3.org/2000/svg">
<path d="M290 328.75L227.5 453.75L290 428.75L227.5 553.75" stroke="black" stroke-width="30"/>
<path d="M590 266.25L527.5 391.25L590 366.25L527.5 491.25" stroke="black" stroke-width="30"/>
<path d="M408.75 90C432.5 46.25 477.5 15 530 15C606.25 15 668.75 78.75 668.75 157.5C668.75 168.75 667.5 178.75 665 190" stroke="black" stroke-width="30"/>
<path d="M330 117.5C348.75 101.25 373.75 91.25 400 91.25C427.5 91.25 453.75 102.5 473.75 120" stroke="black" stroke-width="30"/>
<path d="M672.5 145C681.25 142.5 691.25 141.25 700 141.25C750 141.25 790 180 790 228.75C790 277.5 750 316.25 700 316.25H602.5" stroke="black" stroke-width="30"/>
<path d="M133.75 162.5C157.5 120 202.5 91.25 255 91.25C331.25 91.25 393.75 152.5 393.75 227.5C393.75 237.5 392.5 248.75 390 258.75" stroke="black" stroke-width="30"/>
<path d="M227.5 378.75H125C65 378.75 15 330 15 271.25C15 211.25 63.75 163.75 125 163.75C152.5 163.75 178.75 173.75 198.75 191.25" stroke="black" stroke-width="30"/>
<path d="M397.5 207.5C406.25 205 416.25 202.5 425 202.5C475 202.5 515 241.25 515 290C515 338.75 475 377.5 425 377.5H302.5" stroke="black" stroke-width="30"/>
<path d="M177.5 416.25L127.5 516.25" stroke="black" stroke-width="30"/>
<path d="M390 416.25L340 516.25" stroke="black" stroke-width="30"/>
<path d="M665 353.75L615 453.75" stroke="black" stroke-width="30"/>
</svg>
