<svg xmlns="http://www.w3.org/2000/svg" width="47" height="47" viewBox="0 0 47 47" fill="none">
    <g clip-path="url(#clip0_706_1232)">
        <path
            d="M28.3977 27.1793C26.9658 27.8349 25.53 27.8426 24.0839 27.8387C18.8909 27.8259 13.6967 27.8387 8.50372 27.8387C4.02929 27.8387 0.599871 24.3283 0.701416 19.8693C0.777254 16.4463 3.32618 13.3614 6.68233 12.6519C7.08465 12.567 7.12579 12.4449 7.05509 12.0709C5.9985 6.43445 9.64386 1.2132 15.2816 0.256875C20.8023 -0.678888 26.1495 3.3688 26.7807 8.93196C26.9097 10.0153 26.8615 11.1123 26.638 12.1801C26.5763 12.4693 26.6046 12.5876 26.9028 12.6223C27.4105 12.6827 27.8745 12.9154 28.3977 13.0503V6.72238C28.3977 6.19408 28.417 5.6645 28.39 5.13621C28.3745 4.82129 28.4684 4.74031 28.7833 4.74288C30.8399 4.7583 32.8863 4.74288 34.9377 4.75959C35.0689 4.77241 35.2008 4.74386 35.3149 4.67793C35.429 4.612 35.5196 4.512 35.574 4.39197C36.2308 3.26083 36.9134 2.14383 37.5895 1.02168C37.772 1.07438 37.799 1.23377 37.8684 1.34688C38.4816 2.35977 39.0985 3.3688 39.6898 4.39325C39.7439 4.51353 39.8344 4.61375 39.9486 4.67973C40.0628 4.74571 40.1949 4.77409 40.3261 4.76088C42.3621 4.74417 44.3982 4.76088 46.433 4.74288C46.7954 4.74288 46.8739 4.83029 46.8739 5.18634C46.8636 18.0736 46.8601 30.9601 46.8636 43.8457C46.8636 45.3367 45.8918 46.2995 44.3892 46.2995C39.8852 46.2995 35.3816 46.2995 30.8785 46.2995C29.354 46.2995 28.4002 45.3367 28.399 43.802C28.399 38.4633 28.399 33.126 28.399 27.7899L28.3977 27.1793Z"
            fill="black" />
        <path
            d="M5.31574 29.4033C6.25407 30.9818 7.17698 32.4574 8.01505 33.9767C8.36983 34.6211 8.48622 35.3699 8.34376 36.0916C8.20131 36.8132 7.80913 37.4616 7.23611 37.9229C6.69055 38.3645 6.00993 38.6055 5.30802 38.6055C4.60612 38.6055 3.92549 38.3645 3.37994 37.9229C2.8084 37.4604 2.41789 36.8116 2.27687 36.09C2.13585 35.3685 2.25333 34.6203 2.60871 33.9767C3.45449 32.4574 4.37612 30.9805 5.31574 29.4033Z"
            fill="black" />
        <path
            d="M14.5529 29.3931C15.5221 31.0396 16.5093 32.5744 17.3448 34.185C18.0312 35.4961 17.5466 37.1414 16.3769 38.0065C15.8196 38.4201 15.1386 38.6326 14.445 38.6092C13.7514 38.5859 13.0862 38.3281 12.558 37.8779C11.4667 36.9563 11.1042 35.32 11.8112 34.0397C12.6608 32.496 13.594 31.0062 14.5529 29.3931Z"
            fill="black" />
        <path
            d="M23.7874 29.4082C24.7322 30.9995 25.6769 32.4841 26.5124 34.0266C26.7171 34.4135 26.8382 34.839 26.8681 35.2756C26.898 35.7122 26.836 36.1503 26.686 36.5614C26.536 36.9726 26.3015 37.3477 25.9975 37.6625C25.6935 37.9774 25.3268 38.2249 24.9211 38.3892C24.5297 38.5444 24.1105 38.6177 23.6896 38.6044C23.2687 38.591 22.855 38.4915 22.4741 38.3118C22.0932 38.1322 21.7533 37.8762 21.4753 37.5599C21.1973 37.2435 20.9872 36.8735 20.858 36.4727C20.6002 35.6885 20.654 34.8352 21.0084 34.0896C21.096 33.9014 21.1947 33.7185 21.3041 33.542C22.1151 32.1911 22.9288 30.8427 23.7874 29.4082Z"
            fill="black" />
        <path
            d="M9.93704 37.1025C10.8844 38.6977 11.824 40.1875 12.6659 41.7299C13.037 42.4307 13.1264 43.2468 12.916 44.0113C12.7055 44.7758 12.211 45.4311 11.5335 45.8432C10.8739 46.254 10.082 46.3968 9.32041 46.2421C8.55884 46.0875 7.88537 45.6471 7.43824 45.0115C6.73771 44.0154 6.66701 42.9369 7.13875 41.8238C7.23858 41.606 7.3537 41.3955 7.48323 41.1939C8.28274 39.8546 9.08868 38.5165 9.93704 37.1025Z"
            fill="black" />
        <path
            d="M19.1628 37.0884C20.1191 38.6977 21.0587 40.1849 21.8994 41.7261C22.2704 42.4268 22.3599 43.2429 22.1494 44.0074C21.9389 44.7719 21.4444 45.4272 20.7669 45.8393C20.1073 46.2501 19.3154 46.3929 18.5539 46.2382C17.7923 46.0836 17.1188 45.6433 16.6717 45.0077C15.9712 44.0115 15.8259 42.8906 16.3889 41.8289C17.2295 40.2427 18.1987 38.7221 19.1628 37.0884Z"
            fill="black" />
        <path
            d="M16.8781 26.2953C14.0502 26.2953 11.2365 26.3055 8.41507 26.2953C4.87382 26.2786 2.13852 23.4327 2.2452 19.8927C2.33261 16.8078 4.90596 14.1702 8.0076 13.9954C11.1877 13.8167 14.0232 16.088 14.4667 19.1678C14.6081 20.146 14.6081 20.1151 15.5991 20.1562C16.0618 20.1755 16.1133 20.0097 16.085 19.6164C15.9539 17.7921 15.1794 16.0737 13.8995 14.7672C12.6196 13.4607 10.9175 12.6511 9.09632 12.4825C8.77498 12.4491 8.67086 12.3257 8.60274 12.0455C7.45488 7.23553 10.8534 2.34205 15.7623 1.75592C21.0491 1.12479 25.5313 5.2406 25.3089 10.5377C25.2647 11.7583 24.9401 12.9524 24.3603 14.0275C24.2099 14.3052 24.2318 14.4581 24.5274 14.5648C24.5727 14.5851 24.6158 14.6101 24.6559 14.6394C25.4914 15.1278 25.5069 15.1355 25.9593 14.2679C26.102 13.9941 26.291 14.0519 26.4735 14.0931C28.8167 14.6214 30.4582 15.9954 31.1754 18.2937C32.439 22.3273 29.4749 26.2876 25.2434 26.294C22.4558 26.2974 19.6674 26.2978 16.8781 26.2953Z"
            fill="#00A3FE" />
        <path
            d="M45.3247 16.1572V43.6491C45.3247 44.536 45.1036 44.7597 44.2257 44.761C43.2167 44.761 42.2064 44.7404 41.1973 44.7713C40.8027 44.7828 40.6947 44.6877 40.6973 44.2802C40.7179 41.6195 40.7089 38.96 40.7089 36.3005C40.7089 30.6928 40.7063 25.0847 40.7012 19.4761C40.7012 19.1548 40.7847 18.9619 41.0701 18.7897C42.3555 18.0095 43.6254 17.2022 44.9018 16.4066C45.0188 16.332 45.1409 16.2652 45.3247 16.1572Z"
            fill="#6B6B6B" />
        <path
            d="M32.7046 17.9297C33.3023 18.2857 33.8152 18.6122 34.3473 18.9014C34.616 19.048 34.5517 19.2691 34.5517 19.4799C34.5517 24.6214 34.5517 29.763 34.5517 34.9045C34.5517 38.028 34.5427 41.1528 34.562 44.2763C34.562 44.6876 34.4515 44.7763 34.0607 44.766C33.0041 44.7365 31.9462 44.7583 30.8884 44.7545C30.2045 44.7545 29.9359 44.4807 29.9359 43.7878C29.9359 38.0841 29.9333 32.3805 29.9282 26.6768C29.9239 26.5528 29.9497 26.4297 30.0031 26.3178C30.0566 26.2059 30.1363 26.1086 30.2354 26.0341C32.6031 23.9397 33.4484 21.3458 32.7715 18.2523C32.756 18.1791 32.7406 18.1019 32.7046 17.9297Z"
            fill="#6B6B6B" />
        <path
            d="M37.6482 13.2152C40.0518 13.2152 42.4542 13.2152 44.8579 13.2075C45.2101 13.2075 45.3309 13.2666 45.3451 13.6613C45.363 14.1536 45.2075 14.4248 44.7846 14.6806C43.0185 15.7462 41.2819 16.8657 39.5261 17.9429C39.269 18.101 39.1508 18.2617 39.1611 18.5856C39.188 19.4969 39.161 20.4121 39.179 21.3247C39.1868 21.6307 39.0942 21.7104 38.8037 21.6872C38.5132 21.6641 38.2266 21.7001 37.9399 21.6769C37.6751 21.6551 37.6314 21.7631 37.6263 22.0021C37.5993 23.2104 37.5929 23.2181 38.7703 23.2143C39.0595 23.2143 39.1919 23.2515 39.1803 23.5935C39.1508 24.3775 39.1521 25.1642 39.1803 25.9483C39.1919 26.2671 39.0736 26.3416 38.7947 26.2992C38.7469 26.294 38.6986 26.294 38.6508 26.2992C38.3204 26.3275 37.7883 26.1565 37.7008 26.3647C37.5415 26.7504 37.6404 27.2375 37.6302 27.6836C37.6302 27.8121 37.706 27.8404 37.814 27.8378C37.8937 27.8378 37.9746 27.8378 38.0543 27.8378C39.1675 27.8378 39.1675 27.8378 39.1675 28.9381C39.1675 29.4985 39.1585 30.059 39.1675 30.6194C39.1675 30.843 39.1173 30.9253 38.8783 30.9202C38.062 30.906 37.2433 30.888 36.4283 30.9266C36.026 30.9446 36.0838 30.7248 36.0838 30.4857C36.0838 27.2654 36.0838 24.045 36.0838 20.8247C36.0838 20.0728 36.0684 19.3195 36.0915 18.5663C36.1071 18.4432 36.0832 18.3183 36.0231 18.2097C35.963 18.101 35.8699 18.0144 35.7573 17.9622C34.7059 17.3529 33.6917 16.6768 32.621 16.1073C31.6428 15.5932 30.8729 14.8348 30.0695 14.106C29.8124 13.8759 29.9217 13.5918 29.9474 13.3438C29.9731 13.0957 30.234 13.2255 30.3818 13.2242C32.8099 13.2127 35.2291 13.2152 37.6482 13.2152Z"
            fill="#E9E9E9" />
        <path
            d="M37.6326 11.675C35.2122 11.675 32.7918 11.666 30.3714 11.6853C30.0064 11.6853 29.9228 11.5901 29.928 11.2354C29.9498 9.7289 29.9524 8.22242 29.928 6.71595C29.928 6.33033 30.0462 6.27635 30.3868 6.28149C31.6362 6.30205 32.8869 6.29948 34.1363 6.28149C34.4782 6.28149 34.6106 6.30591 34.5759 6.72752C34.4551 8.21857 35.2572 9.46411 36.5747 9.94099C37.1957 10.1698 37.8741 10.1917 38.5087 10.0034C39.1432 9.81506 39.6998 9.42659 40.0954 8.89597C40.5812 8.24685 40.7952 7.43402 40.6918 6.62983C40.6648 6.37275 40.6918 6.27506 40.9836 6.27892C42.314 6.29434 43.6443 6.29177 44.9747 6.27892C45.2318 6.27892 45.3359 6.32391 45.3333 6.61312C45.3192 8.18386 45.3166 9.75461 45.3333 11.3254C45.3333 11.6557 45.2048 11.6763 44.9387 11.675C42.5042 11.6724 40.0684 11.675 37.6326 11.675Z"
            fill="#6B6B6B" />
        <path
            d="M37.6312 3.9292C38.1248 4.76342 38.5978 5.50123 39.0066 6.27375C39.1802 6.60365 39.2321 6.98416 39.1531 7.3485C39.0741 7.71283 38.8693 8.03771 38.5747 8.2661C38.3041 8.48361 37.9666 8.6009 37.6194 8.59809C37.2723 8.59528 36.9368 8.47254 36.6697 8.25068C36.3791 8.01749 36.1795 7.68969 36.1057 7.32443C36.0319 6.95916 36.0887 6.5796 36.2661 6.2519C36.6736 5.49352 37.1376 4.76342 37.6312 3.9292Z"
            fill="#0089FD" />
        <path
            d="M5.31545 32.3979C5.81032 33.236 6.28463 33.9738 6.6921 34.7476C6.8648 35.0782 6.9154 35.4591 6.835 35.8232C6.75459 36.1874 6.54833 36.5116 6.25249 36.7387C5.98112 36.9554 5.64312 37.0715 5.29589 37.0672C4.94866 37.063 4.61358 36.9388 4.34755 36.7156C4.05807 36.4811 3.86002 36.1525 3.78791 35.787C3.7158 35.4215 3.7742 35.0424 3.95293 34.7155C4.3604 33.9571 4.82314 33.2283 5.31545 32.3979Z"
            fill="#0089FD" />
        <path
            d="M14.5484 32.4097C15.024 33.2015 15.4662 33.9046 15.8724 34.6282C16.0719 34.9619 16.1455 35.3559 16.0797 35.739C16.0139 36.1221 15.8132 36.4691 15.5138 36.717C15.2413 36.9457 14.8965 37.0701 14.5408 37.0682C14.1851 37.0664 13.8416 36.9382 13.5715 36.7067C13.2742 36.4564 13.0762 36.1079 13.0135 35.7243C12.9508 35.3407 13.0275 34.9474 13.2296 34.6154C13.6371 33.8956 14.078 33.1938 14.5484 32.4097Z"
            fill="#0089FD" />
        <path
            d="M23.7816 32.3945C24.2855 33.2532 24.7829 34.0141 25.1955 34.8201C25.54 35.5 25.2881 36.3111 24.7007 36.7571C24.4381 36.9585 24.1164 37.0677 23.7855 37.0677C23.4545 37.0677 23.1329 36.9585 22.8703 36.7571C22.2854 36.3163 22.0322 35.4987 22.3767 34.8188C22.779 34.0141 23.2765 33.2532 23.7816 32.3945Z"
            fill="#0089FD" />
        <path
            d="M9.93247 40.0977C10.4261 40.9332 10.9004 41.6723 11.3091 42.4461C11.4821 42.7763 11.5331 43.157 11.4532 43.5212C11.3732 43.8853 11.1675 44.2097 10.8721 44.4371C10.6007 44.6541 10.2625 44.7704 9.91507 44.7664C9.56762 44.7625 9.23224 44.6384 8.96586 44.4153C8.6748 44.1811 8.47558 43.8519 8.40318 43.4854C8.33077 43.1189 8.38983 42.7386 8.56996 42.4114C8.97743 41.653 9.44017 40.9242 9.93247 40.0977Z"
            fill="#00A3FE" />
        <path
            d="M19.1655 40.0977C19.6462 40.9036 20.0987 41.6183 20.5061 42.3587C20.6953 42.6888 20.7618 43.0752 20.6938 43.4496C20.6258 43.824 20.4278 44.1624 20.1347 44.405C19.8631 44.6349 19.5188 44.7611 19.1629 44.7611C18.8071 44.7611 18.4627 44.6349 18.1912 44.405C17.8982 44.1622 17.7005 43.8236 17.633 43.4492C17.5655 43.0747 17.6325 42.6885 17.8223 42.3587C18.231 41.6196 18.6835 40.9049 19.1655 40.0977Z"
            fill="#00A3FE" />
        <path d="M39.1585 18.5815H36.0723V43.8973H39.1585V18.5815Z" fill="#36C5FE" />
        <path
            d="M39.4116 21.5225H37.7676C37.6036 21.5225 37.4707 21.6554 37.4707 21.8194V22.9145C37.4707 23.0785 37.6036 23.2115 37.7676 23.2115H39.4116C39.5756 23.2115 39.7086 23.0785 39.7086 22.9145V21.8194C39.7086 21.6554 39.5756 21.5225 39.4116 21.5225Z"
            fill="black" />
        <path
            d="M39.4116 26.1924H37.7676C37.6036 26.1924 37.4707 26.3253 37.4707 26.4893V27.5845C37.4707 27.7484 37.6036 27.8814 37.7676 27.8814H39.4116C39.5756 27.8814 39.7086 27.7484 39.7086 27.5845V26.4893C39.7086 26.3253 39.5756 26.1924 39.4116 26.1924Z"
            fill="black" />
        <path
            d="M39.4116 30.8608H37.7676C37.6036 30.8608 37.4707 30.9938 37.4707 31.1578V32.2529C37.4707 32.4169 37.6036 32.5498 37.7676 32.5498H39.4116C39.5756 32.5498 39.7086 32.4169 39.7086 32.2529V31.1578C39.7086 30.9938 39.5756 30.8608 39.4116 30.8608Z"
            fill="black" />
        <path
            d="M39.4116 35.5308H37.7676C37.6036 35.5308 37.4707 35.6637 37.4707 35.8277V36.9228C37.4707 37.0868 37.6036 37.2198 37.7676 37.2198H39.4116C39.5756 37.2198 39.7086 37.0868 39.7086 36.9228V35.8277C39.7086 35.6637 39.5756 35.5308 39.4116 35.5308Z"
            fill="black" />
        <path
            d="M39.4116 40.2007H37.7676C37.6036 40.2007 37.4707 40.3336 37.4707 40.4976V41.5928C37.4707 41.7567 37.6036 41.8897 37.7676 41.8897H39.4116C39.5756 41.8897 39.7086 41.7567 39.7086 41.5928V40.4976C39.7086 40.3336 39.5756 40.2007 39.4116 40.2007Z"
            fill="black" />
    </g>
    <defs>
        <clipPath id="clip0_706_1232">
            <rect width="46.1737" height="46.1789" fill="white" transform="translate(0.699219 0.12207)" />
        </clipPath>
    </defs>
</svg>