<svg width="766" height="766" viewBox="0 0 766 766" fill="none" xmlns="http://www.w3.org/2000/svg">
<path d="M733.333 63.6641H32V222.997H733.333V63.6641Z" stroke="#020202" stroke-width="63.6667" stroke-miterlimit="10"/>
<path d="M733.333 223.332H32V733.332H733.333V223.332Z" stroke="#020202" stroke-width="63.6667" stroke-miterlimit="10"/>
<path d="M191.333 0V127.667" stroke="#020202" stroke-width="63.6667" stroke-miterlimit="10"/>
<path d="M574 0V127.667" stroke="#020202" stroke-width="63.6667" stroke-miterlimit="10"/>
<path d="M382.667 0V127.667" stroke="#020202" stroke-width="63.6667" stroke-miterlimit="10"/>
<path d="M349.333 605.667H191.333V572.333L268 516.667C283.813 504.694 296.644 489.228 305.491 471.476C314.338 453.724 318.961 434.168 319 414.333C319.044 405.901 317.421 397.543 314.224 389.739C311.027 381.936 306.32 374.841 300.373 368.863C294.425 362.885 287.355 358.141 279.569 354.903C271.782 351.666 263.432 350 255 350H191.333" stroke="#020202" stroke-width="63.6667" stroke-miterlimit="10"/>
<path d="M574 350H446.333V477.667H510.333C527.219 477.667 543.413 484.374 555.352 496.314C567.292 508.254 574 524.448 574 541.333C574 558.219 567.292 574.413 555.352 586.352C543.413 598.292 527.219 605 510.333 605H416" stroke="#020202" stroke-width="63.6667" stroke-miterlimit="10"/>
</svg>
