<svg width="725" height="848" viewBox="0 0 725 848" fill="none" xmlns="http://www.w3.org/2000/svg">
<path d="M363.722 668.822C358.827 657.251 348.691 648.808 336.423 647.308C326.035 646.031 315.864 643.637 306.193 640.184C301.857 638.615 297.787 636.902 294.02 635.067L300.279 616.707C304.7 618.83 309.253 620.772 313.916 622.527L314.109 622.602L314.307 622.671C329.269 627.991 343.993 630.688 358.06 630.688C372.187 630.688 382.427 628.651 390.294 624.283L390.763 624.022L391.223 623.735C403.139 616.377 409.978 603.732 409.978 589.033C409.978 572.722 401.799 559.182 387.535 551.867C380.36 548.111 370.17 544.526 355.489 540.599C340.433 536.503 327.785 532.156 317.976 527.704C310.806 524.214 304.586 518.644 298.979 510.68C294.153 503.572 291.71 492.884 291.71 478.898C291.71 462.023 296.126 448.095 305.214 436.317C313.303 425.996 324.789 418.984 340.206 415.053C351.643 412.137 360.562 403.354 364.572 392.012C369.106 403.508 378.753 412.058 390.758 414.116C400.786 415.835 409.992 418.574 418.269 422.283L412.509 440.275C396.88 433.524 381.497 430.114 366.619 430.114C317.209 430.114 314.707 466.79 314.707 474.142C314.707 490.081 322.707 503.444 336.656 510.813L337.046 511.02L337.442 511.212C344.488 514.595 354.486 517.856 368.914 521.474C383.831 525.102 396.271 529.257 406.047 533.864L406.249 533.96L406.452 534.05C413.711 537.301 419.936 542.727 425.483 550.643L425.573 550.766L425.661 550.894C430.512 557.639 432.974 568.072 432.974 581.904C432.974 597.869 428.678 611.382 419.837 623.219C412.168 633.487 401.463 640.594 387.099 644.946C376.009 648.308 367.406 657.432 363.722 668.822Z" fill="black"/>
<path d="M376.232 716.599H352.424C347.099 716.599 342.782 711.838 342.782 705.959V684.599C342.782 678.982 338.822 674.364 333.759 673.741C321.704 672.268 310.045 669.517 298.776 665.495C287.829 661.527 278.345 656.824 270.324 651.371C266.638 648.865 265.297 643.779 266.821 639.31L283.152 591.398C285.352 584.95 292.447 582.482 297.911 585.818C305.288 590.313 313.219 594.159 321.694 597.351C334.327 601.842 346.451 604.087 358.061 604.087C368.044 604.087 375.179 602.9 379.456 600.522C383.733 597.878 385.874 594.048 385.874 589.031C385.874 583.222 383.021 578.864 377.315 575.96C371.816 573.055 362.644 569.884 349.813 566.453C333.309 561.963 319.558 557.207 308.557 552.19C297.555 546.907 287.978 538.454 279.829 526.835C271.679 514.95 267.604 498.969 267.604 478.896C267.604 455.653 274.022 435.714 286.855 419.073C298.425 404.315 314.396 394.335 334.777 389.137C339.366 387.967 342.782 383.573 342.782 378.38V354.839C342.782 348.961 347.099 344.199 352.424 344.199H376.232C381.557 344.199 385.874 348.961 385.874 354.839V377.034C385.874 382.471 389.592 386.999 394.457 387.834C412.312 390.893 428.001 396.686 441.519 405.214C445.356 407.635 446.879 412.785 445.405 417.381L430.122 465.096C428.099 471.422 421.35 474.098 415.921 471.076C398.705 461.5 382.274 456.712 366.62 456.712C348.078 456.712 338.807 462.521 338.807 474.14C338.807 479.689 341.561 483.913 347.059 486.823C352.563 489.462 361.626 492.367 374.259 495.537C390.556 499.501 404.312 504.118 415.516 509.401C426.72 514.418 436.396 522.738 444.55 534.363C452.901 545.982 457.079 561.83 457.079 581.902C457.079 604.087 450.864 623.499 438.433 640.14C427.61 654.642 412.623 664.793 393.483 670.597C389.083 671.932 385.874 676.231 385.874 681.264V705.959C385.874 711.838 381.557 716.599 376.232 716.599Z" fill="black"/>
<path fill-rule="evenodd" clip-rule="evenodd" d="M258.249 25H466.992C520.457 25 491.097 113.525 469.45 167.523L444.816 229.448L441.489 237.8C464.822 236.55 487.898 243.681 507.245 258.122C579.628 331.209 638.373 419.201 680.174 517.153C696.461 553.372 702.924 594.017 698.78 634.193C693.806 736.598 619.357 818.201 526.529 823H198.711C105.859 818.345 31.2992 736.827 26.2202 634.406C22.0762 594.229 28.5382 553.585 44.8288 517.366C86.6784 419.318 145.505 331.246 217.995 258.122C237.346 243.681 260.418 236.55 283.75 237.8L279.893 228.171L255.79 167.523C234.241 113.525 204.737 25 258.249 25Z" stroke="black" stroke-width="50" stroke-linecap="round" stroke-linejoin="round"/>
<path d="M441.489 277.695C461.969 277.695 478.573 259.831 478.573 237.795C478.573 215.759 461.969 197.895 441.489 197.895V277.695ZM283.75 197.895C263.271 197.895 246.668 215.759 246.668 237.795C246.668 259.831 263.271 277.695 283.75 277.695V197.895ZM573.967 219.169C591.713 208.169 597.814 183.773 587.589 164.678C577.364 145.584 554.693 139.022 536.947 150.021L573.967 219.169ZM444.817 229.443L451.971 268.593L452.08 268.57L444.817 229.443ZM279.893 228.166L287.572 189.128L287.236 189.055L279.893 228.166ZM187.723 149.673C169.798 139.014 147.235 146.008 137.329 165.295C127.422 184.582 133.923 208.858 151.849 219.517L187.723 149.673ZM441.489 197.895H283.75V277.695H441.489V197.895ZM536.947 150.021C505.945 169.235 472.392 182.83 437.553 190.315L452.08 268.57C494.865 259.377 536.018 242.691 573.967 219.169L536.947 150.021ZM437.662 190.292C388.049 200.79 337.052 200.393 287.572 189.128L272.218 267.201C331.469 280.691 392.554 281.164 451.971 268.593L437.662 190.292ZM287.236 189.055C252.49 181.507 218.945 168.239 187.723 149.673L151.849 219.517C189.665 242.003 230.354 258.109 272.555 267.277L287.236 189.055Z" fill="black"/>
</svg>
