<?xml version="1.0" encoding="UTF-8" standalone="no"?>
<svg width="39.122" height="39.122" viewBox="0 0 10.351 10.351" version="1.1" id="svg472" xmlns="http://www.w3.org/2000/svg" xmlns:svg="http://www.w3.org/2000/svg">
    <path class="cls-2"
        d="M66.885 27.089a.865.865 0 1 1 .865.865.868.868 0 0 1-.865-.865m.868 1.299c-1.63 0-2.81 1.09-2.81 2.593a.431.431 0 1 0 .862 0 1.603 1.603 0 0 1 1.082-1.513l-.862 4.106a.198.198 0 0 0 .212.22h.433v2.38a.434.434 0 0 0 .866 0v-2.38h.43v2.38a.434.434 0 0 0 .866 0v-2.38h.431a.198.198 0 0 0 .215-.22l-.86-4.106a1.632 1.632 0 0 1 1.08 1.513.431.431 0 1 0 .862 0c0-1.503-1.18-2.593-2.807-2.593"
        style="stroke-width:0.264583" transform="translate(-62.576 -26.224)" id="path470" />
</svg>