<svg xmlns="http://www.w3.org/2000/svg" viewBox="0 0 100 100"><path d="M41.669753 8.3538065a8.3158271 8.3538113 0 1 1 8.315827 8.3538125 8.3446681 8.3827841 0 0 1-8.315827-8.3538125m8.344668 12.5452045C34.344134 20.899011 23 31.425779 23 45.94113a4.1434935 4.1624197 0 1 0 8.286987 0A15.410717 15.481109 0 0 1 41.68898 31.329203l-8.286987 39.654046a1.9035072 1.9122019 0 0 0 2.038098 2.124669h4.162721v22.985057a4.172334 4.191392 0 0 0 8.325441 0V73.107918h4.133881v22.985057a4.172334 4.191392 0 0 0 8.325439 0V73.107918h4.143494a1.9035072 1.9122019 0 0 0 2.06694-2.124669l-8.26776-39.654046A15.689514 15.761179 0 0 1 68.713013 45.94113a4.1434935 4.1624197 0 1 0 8.286987 0c0-14.515351-11.344134-25.042119-26.98558-25.042119" class="cls-2"/></svg>