<svg width="70" height="72" viewBox="0 0 70 72" fill="none" xmlns="http://www.w3.org/2000/svg">
    <path
        d="M42.9593 51.5178C45.5224 51.5178 47.6003 49.3806 47.6003 46.7442C47.6003 44.1079 45.5224 41.9707 42.9593 41.9707C40.3961 41.9707 38.3184 44.1079 38.3184 46.7442C38.3184 49.3806 40.3961 51.5178 42.9593 51.5178Z"
        fill="url(#paint0_linear_1008_3269)" />
    <path
        d="M16.4986 48.5004C13.8312 49.9279 7.00293 51.9036 7.00293 38.0739C7.00293 24.2442 9.67035 21.3921 11.7522 21.3921C13.834 21.3921 15.219 21.6119 16.7123 19.6363C18.2056 17.6606 20.5539 16.6727 23.968 17.0011C27.3821 17.3293 28.4919 15.2512 29.7744 13.4954C31.0539 11.7396 34.5324 9.42964 37.7327 11.842C40.9331 14.2544 42.9622 14.4772 45.2022 13.1581C47.4421 11.842 53.3099 11.6221 55.7666 16.7812C58.2203 21.9402 59.3944 26.9878 59.3944 30.4994C59.3944 34.0112 60.5686 37.083 61.7427 39.4985C62.9168 41.9138 64.1964 47.0699 60.8877 52.9968C57.579 58.9239 57.3653 60.7881 53.0991 60.4599C48.83 60.1316 45.6413 59.3636 36.4531 59.3636C34.7461 59.3636 32.2924 58.5956 32.2924 56.1802C32.2924 53.7649 34.8544 51.241 38.0548 49.925C41.2551 48.6088 50.6454 47.4012 52.0333 44.6574C53.4211 41.9138 34.1078 43.778 34.1078 43.778L16.4986 48.5004Z"
        fill="url(#paint1_linear_1008_3269)" />
    <path
        d="M60.8848 52.9982C64.1935 47.0712 62.911 41.9152 61.7399 39.4999C60.7092 37.3795 59.6785 34.7504 59.4443 31.7598C59.4443 31.7627 59.4443 31.7627 59.4443 31.7627C59.5614 34.5576 54.8063 43.2042 52.0304 44.6559C50.6426 47.3995 41.2552 48.6072 38.0519 49.9233C34.8516 51.2395 32.2896 53.7632 32.2896 56.1786C32.2896 58.594 34.7433 59.362 36.4504 59.362C45.6356 59.362 48.8271 60.1299 53.0963 60.4582C57.3624 60.7895 57.5762 58.9223 60.8848 52.9982Z"
        fill="url(#paint2_radial_1008_3269)" />
    <path
        d="M56.9404 19.5059C57.1658 20.0811 57.3533 20.6443 57.5465 21.2075C57.3533 20.6413 57.1688 20.0811 56.9404 19.5059Z"
        fill="url(#paint3_linear_1008_3269)" />
    <path
        d="M54.9321 15.416C54.9849 15.4853 55.0376 15.5576 55.0874 15.6299C55.0376 15.5576 54.9849 15.4883 54.9321 15.416Z"
        fill="url(#paint4_linear_1008_3269)" />
    <path
        d="M58.0037 22.7905C58.0095 22.6368 57.9685 22.5104 57.9539 22.3598C57.9275 22.2724 57.8865 22.1822 57.8602 22.0918C57.6816 45.2066 58.0007 50.9107 50.8533 50.9107C43.7031 50.9107 43.1701 48.167 43.1701 46.9593C43.1701 46.4775 43.135 44.547 43.094 42.1286V42.1316C43.094 48.935 41.9961 51.6817 36.872 51.6817C36.2541 51.6817 35.6715 51.6607 35.121 51.6185C34.7403 51.9166 34.389 52.2298 34.0698 52.5551C33.5984 53.04 35.8061 55.1933 43.3547 54.067C44.8597 53.8442 55.1664 57.1992 58.3257 50.5674C59.6902 47.7183 57.3887 42.0894 58.0037 22.7905Z"
        fill="url(#paint5_linear_1008_3269)" />
    <path
        d="M57.8603 22.0806C57.3098 20.3669 56.6188 18.581 55.7609 16.78C53.3072 11.6209 47.4394 11.8408 45.1965 13.157C44.444 13.5997 43.712 13.8496 42.9565 13.9219V31.0494C42.9565 35.549 43.1703 45.7556 43.1703 46.9633C43.1703 48.1709 43.7032 50.9147 50.8535 50.9147C58.0037 50.9116 57.6846 45.2075 57.8603 22.0806Z"
        fill="url(#paint6_linear_1008_3269)" />
    <path
        d="M37.7326 11.8433C34.5323 9.42796 31.0538 11.741 29.7743 13.4968C28.9514 14.6261 28.1638 15.617 26.8374 16.4181C26.8374 16.4211 26.8374 16.4272 26.8374 16.4301C26.9311 23.2486 27.0629 29.2931 27.0629 29.2931C27.0629 35.2202 28.1755 41.126 28.4653 44.5595C28.9602 50.3991 31.7565 51.6821 36.8777 51.6821C41.9988 51.6821 43.0968 48.9354 43.0968 42.132C43.0968 37.2319 43.0968 22.0289 43.0968 13.9064C41.5625 14.0991 39.9229 13.4968 37.7326 11.8433Z"
        fill="url(#paint7_linear_1008_3269)" />
    <path
        d="M15.1106 33.5722C14.9409 28.8198 15.3274 24.2962 15.8661 20.5195C14.6656 21.5134 13.4358 21.3899 11.7493 21.3899C9.66744 21.3899 7 24.242 7 38.0717C7 51.9014 13.8282 49.9258 16.4957 48.4982L16.686 48.4471C15.8281 45.6883 15.3801 41.1286 15.1106 33.5722Z"
        fill="url(#paint8_linear_1008_3269)" />
    <path
        d="M28.4656 44.5593C28.1903 41.3127 27.1948 35.8554 27.0835 30.2628C27.0718 29.9224 27.063 29.5942 27.063 29.293C27.063 29.293 26.9313 23.2485 26.8376 16.43C26.8376 16.427 26.8376 16.4209 26.8376 16.418C26.0997 16.8636 25.1891 17.1197 23.9711 17.0022C20.5569 16.6739 18.2087 17.6618 16.7153 19.6374C16.4313 20.0139 16.1502 20.288 15.8691 20.5229C15.3304 24.3026 14.9439 28.8231 15.1137 33.5756C15.7549 51.5735 17.4064 52.6156 23.2214 52.6156C26.5565 52.6156 28.9516 51.5976 29.9149 49.2786C29.912 49.2726 29.9091 49.2605 29.9062 49.2515C29.1273 48.1764 28.6442 46.6675 28.4656 44.5593Z"
        fill="url(#paint9_linear_1008_3269)" />
    <path
        d="M36.878 51.6823C41.9991 51.6823 43.1001 48.9357 43.1001 42.1322V42.1292C43.1411 44.5477 43.1763 46.4782 43.1763 46.96C43.1763 48.1677 43.7092 50.9114 50.8594 50.9114C58.0067 50.9114 57.6876 45.2072 57.8662 22.0803C57.6202 21.3124 57.3362 20.5293 57.0317 19.7402C56.0011 23.782 54.3819 31.0673 54.3819 36.9852C54.3819 45.665 51.7144 45.5355 47.1262 44.9873C42.538 44.4392 44.1396 27.3177 42.8571 27.3177C41.5746 27.3177 42.9625 41.9696 41.8967 43.6712C40.8309 45.3729 36.553 46.7462 32.079 45.8668C27.6049 44.9873 28.6648 28.417 26.8377 28.417C25.0107 28.417 28.7732 48.1707 21.7752 48.1707C14.7801 48.1707 16.7126 32.805 15.1139 32.805C13.5152 32.805 15.1139 41.6956 14.7039 44.2193C14.3379 46.4721 10.3646 47.0533 7.50391 43.6411C9.12311 51.2637 14.2677 49.6916 16.4988 48.4989L16.6891 48.4478V48.4447C17.875 52.2545 19.8485 52.6129 23.2216 52.6129C26.5567 52.6129 28.9518 51.595 29.9151 49.276C29.9122 49.27 29.9093 49.2579 29.9064 49.2519C31.2855 51.1523 33.6045 51.6823 36.878 51.6823Z"
        fill="url(#paint10_linear_1008_3269)" />
    <path
        d="M34.3364 51.5384C35.5281 51.5986 36.7286 51.5595 37.894 51.442C39.0535 51.3034 40.1954 50.933 41.0006 50.147C41.8175 49.361 42.1982 48.2014 42.4295 47.0419C42.6725 45.8734 42.7604 44.6567 42.8072 43.44C42.9009 41.0095 42.8365 38.5339 42.8892 36.0824C42.939 33.6278 42.9917 31.1703 43.0971 28.7188L43.3548 43.455C43.3342 44.6898 43.2728 45.9336 43.0443 47.1744C42.8072 48.3942 42.3446 49.6771 41.3842 50.5777C40.4267 51.4962 39.1179 51.7763 37.9232 51.8366C36.7081 51.8848 35.5135 51.7673 34.3364 51.5384Z"
        fill="#975500" />
    <path
        d="M27.0602 29.293C27.2213 31.0397 27.3559 32.7805 27.5609 34.5122C27.7629 36.2439 27.9591 37.9756 28.208 39.7074C28.4012 41.4391 28.6472 43.1859 28.7468 44.9327C28.8844 46.6343 29.227 48.3931 30.3191 49.7635C29.0162 48.5708 28.492 46.7186 28.2578 44.9899C28.0558 43.2492 27.8186 41.5325 27.5756 39.7947C27.3794 38.057 27.1715 36.3132 27.0748 34.5604C26.9695 32.8015 26.9577 31.0427 27.0602 29.293Z"
        fill="#975500" />
    <path
        d="M43.0969 28.7178L43.3692 43.8848L43.422 45.7822C43.4601 46.4086 43.3957 47.0742 43.5186 47.6133C43.7587 48.7577 44.7952 49.5106 45.8903 49.9112C47.0029 50.3238 48.2152 50.4895 49.4215 50.5527C50.6309 50.5888 51.8606 50.649 52.9879 50.3298C54.1181 50.0377 55.061 49.2818 55.6232 48.2277C55.954 47.7338 56.1034 47.1224 56.3318 46.5592C56.4635 45.9538 56.6538 45.3666 56.7417 44.7461C57.1721 42.2856 57.295 39.7588 57.4151 37.241C57.5351 34.7202 57.5878 32.1903 57.6464 29.6636L57.8602 22.0801C57.9305 27.1397 58.0329 32.1934 57.907 37.259C57.8631 39.7919 57.7255 42.3308 57.3126 44.8546C57.2248 45.487 57.0345 46.1075 56.8998 46.7368C56.6626 47.3423 56.5132 47.9807 56.1502 48.5409C55.5471 49.7124 54.4197 50.64 53.1518 50.9623C51.8869 51.3026 50.6191 51.2213 49.3835 51.1761C48.142 51.0978 46.8859 50.9231 45.6854 50.4683C44.52 50.0377 43.2668 49.1523 42.9769 47.7338C42.8364 47.029 42.9125 46.4176 42.8862 45.7852L42.8774 43.8909C42.8686 38.8342 42.9916 33.7715 43.0969 28.7178Z"
        fill="#975500" />
    <path
        d="M15.1106 33.5742C15.2921 34.8783 15.4033 36.1823 15.5264 37.4864L15.8631 41.3926C15.9685 42.6936 16.0943 43.9887 16.2408 45.2838C16.3959 46.5757 16.5892 47.8587 16.9172 49.1296C16.3374 47.9491 16.0124 46.654 15.7547 45.3621C15.4912 44.067 15.3477 42.7569 15.2276 41.4498C15.0197 38.8266 14.9583 36.2004 15.1106 33.5742Z"
        fill="#975500" />
    <path
        d="M57.9627 38.1826C57.9627 33.6289 57.8601 22.082 57.8601 22.082C57.6815 45.2059 58.0036 50.9131 50.8534 50.9131C43.7031 50.9131 43.1702 48.1694 43.1702 46.9617L43.0969 42.131C43.0969 48.9343 41.9989 51.6811 36.8749 51.6811C36.2453 51.6811 35.6656 51.6509 35.1064 51.6088C35.1034 51.6118 35.1005 51.6208 35.0975 51.6238C34.7199 51.916 34.3772 52.2292 34.064 52.5484C42.2361 53.6567 42.4732 49.2927 43.1965 50.0367C44.9827 51.8738 51.2252 54.0965 54.8003 51.6811C59.0928 48.7838 57.9627 42.7363 57.9627 38.1826Z"
        fill="url(#paint11_linear_1008_3269)" />
    <path
        d="M60.8848 52.9985C64.1935 47.0715 62.911 41.9154 61.7397 39.5001C61.365 38.7291 60.9961 37.8858 60.6594 36.9883C60.6535 37.1449 60.6827 37.3166 60.7793 37.5274C62.1673 40.4909 62.9959 45.2102 60.7793 51.3542C58.5629 57.501 53.6847 59.9706 50.3233 58.5973C46.9619 57.224 40.1337 57.6636 37.3609 57.6636C35.3991 57.6636 33.4051 56.6968 32.392 55.3958C32.3334 55.6579 32.2925 55.9199 32.2925 56.1789C32.2925 58.5942 34.7462 59.3623 36.4532 59.3623C45.6385 59.3623 48.8301 60.1302 53.0991 60.4585C57.3624 60.7898 57.5761 58.9225 60.8848 52.9985Z"
        fill="url(#paint12_radial_1008_3269)" />
    <path
        d="M7.11719 40.9082C8.00731 51.5967 14.0303 49.8168 16.4986 48.4977L16.689 48.4465C16.3405 47.3292 16.0623 45.8986 15.8339 44.1096C15.3215 48.1152 8.66319 46.8804 7.11719 40.9082Z"
        fill="url(#paint13_linear_1008_3269)" />
    <path
        d="M16.437 47.5591C17.5936 52.2062 19.5993 52.6128 23.2212 52.6128C26.5563 52.6128 28.9514 51.5948 29.9147 49.2758C29.9118 49.2698 29.9089 49.2578 29.906 49.2487C29.1271 48.1735 28.644 46.6676 28.4654 44.5595C28.3921 43.6831 28.2633 42.635 28.114 41.4785C28.073 41.602 28.1052 41.9724 28.234 42.6832C29.3525 48.7397 19.4733 51.896 16.437 47.5591Z"
        fill="url(#paint14_linear_1008_3269)" />
    <path
        d="M34.336 46.8241C31.5807 46.8241 29.0333 45.7158 28.3452 43.3848C28.392 43.7973 28.436 44.1979 28.4653 44.5593C28.9601 50.399 31.7564 51.682 36.8775 51.682C41.2637 51.682 42.6956 49.6581 43.0177 44.8062L43.0527 43.6136C41.864 46.4145 37.5187 46.8241 34.336 46.8241Z"
        fill="url(#paint15_linear_1008_3269)" />
    <path
        d="M50.265 12.5215C53.7933 14.0484 55.4447 22.6197 55.4447 31.3536C55.4447 40.9851 54.6453 46.4151 49.7643 46.4151C44.8833 46.4151 43.7618 45.2617 43.2026 42.8764C43.1791 42.777 43.1469 42.7168 43.1089 42.6746C43.1469 44.837 43.1763 46.5175 43.1763 46.9633C43.1763 48.1709 43.7091 50.9146 50.8594 50.9146C58.0067 50.9146 57.6876 45.2105 57.8662 22.0836C57.3157 20.3699 56.6247 18.5841 55.7668 16.783C54.5078 14.1448 52.3615 12.919 50.265 12.5215Z"
        fill="url(#paint16_linear_1008_3269)" />
    <path opacity="0.75"
        d="M10.7069 31.8919C12.5428 31.642 13.8223 34.5633 14.4343 37.8822C14.935 40.5957 13.7901 43.8755 11.9924 44.0743C10.1916 44.2761 8.55483 44.1255 7.94872 38.4183C7.5915 35.0572 8.91202 32.1389 10.7069 31.8919Z"
        fill="url(#paint17_radial_1008_3269)" />
    <path opacity="0.75"
        d="M12.3523 22.9078C14.5952 22.6609 15.9245 24.0312 16.4136 25.6425C16.8147 26.9616 15.1809 28.6722 12.9848 28.8921C10.7888 29.112 8.81525 29.1481 8.51369 26.3442C8.338 24.6938 10.1592 23.1488 12.3523 22.9078Z"
        fill="url(#paint18_radial_1008_3269)" />
    <path opacity="0.75"
        d="M21.2713 19.3521C23.441 18.7196 24.9753 19.84 25.7219 21.3458C26.331 22.5776 25.0016 24.5442 22.8759 25.1435C20.7502 25.7429 18.8088 26.1194 18.0534 23.4058C17.6083 21.8066 19.1514 19.9724 21.2713 19.3521Z"
        fill="url(#paint19_radial_1008_3269)" />
    <path opacity="0.75"
        d="M33.8942 13.0976C37.0302 12.1851 39.3228 14.0884 40.4882 16.5761C41.4398 18.609 39.598 21.7381 36.5265 22.5964C33.455 23.4548 30.6412 23.9638 29.4026 19.5155C28.6736 16.8923 30.8315 13.989 33.8942 13.0976Z"
        fill="url(#paint20_radial_1008_3269)" />
    <path opacity="0.75"
        d="M50.0512 14.979C52.4902 15.226 53.5942 17.1264 53.7523 19.1111C53.8811 20.7313 51.7641 22.3185 49.3807 22.0505C46.9973 21.7825 44.892 21.3548 45.2024 18.0389C45.3868 16.0873 47.6678 14.7381 50.0512 14.979Z"
        fill="url(#paint21_radial_1008_3269)" />
    <path opacity="0.75"
        d="M20.4075 31.5728C22.4601 31.2626 23.8918 34.5905 24.5799 38.3853C25.1421 41.4873 23.8655 45.2519 21.8539 45.5049C19.8423 45.7579 18.0094 45.6073 17.3301 39.081C16.926 35.232 18.4017 31.874 20.4075 31.5728Z"
        fill="url(#paint22_radial_1008_3269)" />
    <path opacity="0.75"
        d="M34.9658 28.5293C38.2043 28.0656 40.3506 32.2518 41.308 37.0585C42.0927 40.9857 39.967 45.8226 36.7959 46.2141C33.6248 46.6056 30.7495 46.4731 29.8857 38.1908C29.3762 33.3059 31.8007 28.9841 34.9658 28.5293Z"
        fill="url(#paint23_radial_1008_3269)" />
    <path opacity="0.75"
        d="M49.9192 28.0586C52.4344 27.8418 53.9101 32.1817 54.4431 37.0485C54.8793 41.0269 53.0317 45.6891 50.5722 45.8366C48.1096 45.9842 45.899 45.6379 45.5887 37.3075C45.4041 32.3985 47.4597 28.2694 49.9192 28.0586Z"
        fill="url(#paint24_radial_1008_3269)" />
    <path
        d="M56.9409 19.5061C56.5896 18.6086 56.1972 17.6991 55.761 16.7836C53.3072 11.6245 47.4394 11.8444 45.1966 13.1605C44.4645 13.5911 43.7531 13.8321 43.0181 13.9104C41.5043 14.0761 39.8822 13.4677 37.7271 11.8414C34.5268 9.42603 31.0482 11.7389 29.7687 13.4948C28.9459 14.6242 28.1583 15.6151 26.8319 16.4161C26.094 16.8619 25.1834 17.1179 23.9653 17.0004C20.5512 16.6721 18.2029 17.6599 16.7096 19.6356C16.4256 20.0121 16.1445 20.2861 15.8634 20.521C14.6629 21.5149 13.4332 21.3914 11.7466 21.3914C10.59 21.3914 9.25479 22.2799 8.29443 25.4362C10.2797 21.6475 13.4185 23.3219 16.0128 22.7076C18.7915 22.048 19.0989 15.6511 26.8319 18.0997C28.3925 18.5936 30.2753 12.1726 34.0027 12.1726C37.73 12.1726 40.0783 15.4162 42.9566 15.4162C45.8349 15.4162 51.3981 11.0313 56.9409 19.5061Z"
        fill="url(#paint25_linear_1008_3269)" />
    <defs>
        <linearGradient id="paint0_linear_1008_3269" x1="42.9595" y1="51.0773" x2="42.9595" y2="43.694"
            gradientUnits="userSpaceOnUse">
            <stop offset="0.00132565" stop-color="#FFCB4B" />
            <stop offset="1" stop-color="#FFD748" />
        </linearGradient>
        <linearGradient id="paint1_linear_1008_3269" x1="27.0296" y1="13.2169" x2="44.4866" y2="70.6608"
            gradientUnits="userSpaceOnUse">
            <stop offset="0.00132565" stop-color="#FFCB4B" />
            <stop offset="1" stop-color="#FFD748" />
        </linearGradient>
        <radialGradient id="paint2_radial_1008_3269" cx="0" cy="0" r="1" gradientUnits="userSpaceOnUse"
            gradientTransform="translate(38.3182 17.6054) scale(68.8496 70.8167)">
            <stop offset="0.365" stop-color="#FFBC47" stop-opacity="0" />
            <stop offset="1" stop-color="#FF8900" />
        </radialGradient>
        <linearGradient id="paint3_linear_1008_3269" x1="57.8515" y1="66.3695" x2="57.2871" y2="25.8734"
            gradientUnits="userSpaceOnUse">
            <stop stop-color="#FFBC47" stop-opacity="0" />
            <stop offset="1" stop-color="#C86F34" />
        </linearGradient>
        <linearGradient id="paint4_linear_1008_3269" x1="55.6807" y1="66.4005" x2="55.1162" y2="25.9038"
            gradientUnits="userSpaceOnUse">
            <stop stop-color="#FFBC47" stop-opacity="0" />
            <stop offset="1" stop-color="#C86F34" />
        </linearGradient>
        <linearGradient id="paint5_linear_1008_3269" x1="46.6028" y1="66.3769" x2="46.0403" y2="26.0164"
            gradientUnits="userSpaceOnUse">
            <stop stop-color="#FFBC47" stop-opacity="0" />
            <stop offset="1" stop-color="#C86F34" />
        </linearGradient>
        <linearGradient id="paint6_linear_1008_3269" x1="50.4107" y1="50.9124" x2="50.4107" y2="22.9227"
            gradientUnits="userSpaceOnUse">
            <stop offset="0.00132565" stop-color="#FFCB4B" />
            <stop offset="1" stop-color="#FFD748" />
        </linearGradient>
        <linearGradient id="paint7_linear_1008_3269" x1="34.966" y1="50.9428" x2="34.966" y2="23.0286"
            gradientUnits="userSpaceOnUse">
            <stop offset="0.00132565" stop-color="#FFCB4B" />
            <stop offset="1" stop-color="#FFD748" />
        </linearGradient>
        <linearGradient id="paint8_linear_1008_3269" x1="11.8451" y1="50.9403" x2="11.8451" y2="22.9506"
            gradientUnits="userSpaceOnUse">
            <stop offset="0.00132565" stop-color="#FFCB4B" />
            <stop offset="1" stop-color="#FFD748" />
        </linearGradient>
        <linearGradient id="paint9_linear_1008_3269" x1="22.493" y1="50.9407" x2="22.493" y2="22.9509"
            gradientUnits="userSpaceOnUse">
            <stop offset="0.00132565" stop-color="#FFCB4B" />
            <stop offset="1" stop-color="#FFD748" />
        </linearGradient>
        <linearGradient id="paint10_linear_1008_3269" x1="44.0231" y1="73.8658" x2="0.864085" y2="-73.432"
            gradientUnits="userSpaceOnUse">
            <stop stop-color="#FFBC47" stop-opacity="0" />
            <stop offset="1" stop-color="#C86F34" />
        </linearGradient>
        <linearGradient id="paint11_linear_1008_3269" x1="49.7204" y1="20.345" x2="41.9908" y2="77.1973"
            gradientUnits="userSpaceOnUse">
            <stop stop-color="#FFBC47" stop-opacity="0" />
            <stop offset="1" stop-color="#C86F34" />
        </linearGradient>
        <radialGradient id="paint12_radial_1008_3269" cx="0" cy="0" r="1" gradientUnits="userSpaceOnUse"
            gradientTransform="translate(37.1978 33.7384) scale(48.9161 50.3137)">
            <stop stop-color="#FFBC47" stop-opacity="0" />
            <stop offset="1" stop-color="#FFA754" />
        </radialGradient>
        <linearGradient id="paint13_linear_1008_3269" x1="11.7868" y1="40.0978" x2="12.2384" y2="56.9981"
            gradientUnits="userSpaceOnUse">
            <stop stop-color="#FFBC47" stop-opacity="0" />
            <stop offset="1" stop-color="#C86F34" />
        </linearGradient>
        <linearGradient id="paint14_linear_1008_3269" x1="22.7072" y1="43.5285" x2="24.5122" y2="61.2976"
            gradientUnits="userSpaceOnUse">
            <stop stop-color="#FFBC47" stop-opacity="0" />
            <stop offset="1" stop-color="#C86F34" />
        </linearGradient>
        <linearGradient id="paint15_linear_1008_3269" x1="35.6053" y1="39.9109" x2="36.1979" y2="61.6399"
            gradientUnits="userSpaceOnUse">
            <stop stop-color="#FFBC47" stop-opacity="0" />
            <stop offset="1" stop-color="#C86F34" />
        </linearGradient>
        <linearGradient id="paint16_linear_1008_3269" x1="47.562" y1="16.9615" x2="62.0997" y2="99.2996"
            gradientUnits="userSpaceOnUse">
            <stop stop-color="#FFBC47" stop-opacity="0" />
            <stop offset="1" stop-color="#C86F34" />
        </linearGradient>
        <radialGradient id="paint17_radial_1008_3269" cx="0" cy="0" r="1" gradientUnits="userSpaceOnUse"
            gradientTransform="translate(11.1864 38.0162) rotate(-96.0186) scale(6.28749 3.31254)">
            <stop stop-color="#FBE07A" />
            <stop offset="0.2654" stop-color="#FCDF73" stop-opacity="0.7346" />
            <stop offset="0.6548" stop-color="#FDDB5F" stop-opacity="0.3452" />
            <stop offset="1" stop-color="#FFD748" stop-opacity="0" />
        </radialGradient>
        <radialGradient id="paint18_radial_1008_3269" cx="0" cy="0" r="1" gradientUnits="userSpaceOnUse"
            gradientTransform="translate(12.4705 25.9249) rotate(-96.0497) scale(3.08931 4.03585)">
            <stop stop-color="#FBE07A" />
            <stop offset="0.2654" stop-color="#FCDF73" stop-opacity="0.7346" />
            <stop offset="0.6548" stop-color="#FDDB5F" stop-opacity="0.3452" />
            <stop offset="1" stop-color="#FFD748" stop-opacity="0" />
        </radialGradient>
        <radialGradient id="paint19_radial_1008_3269" cx="0" cy="0" r="1" gradientUnits="userSpaceOnUse"
            gradientTransform="translate(21.876 22.2981) rotate(-105.484) scale(3.08424 4.04338)">
            <stop stop-color="#FBE07A" />
            <stop offset="0.2654" stop-color="#FCDF73" stop-opacity="0.7346" />
            <stop offset="0.6548" stop-color="#FDDB5F" stop-opacity="0.3452" />
            <stop offset="1" stop-color="#FFD748" stop-opacity="0" />
        </radialGradient>
        <radialGradient id="paint20_radial_1008_3269" cx="0" cy="0" r="1" gradientUnits="userSpaceOnUse"
            gradientTransform="translate(34.9299 17.9127) rotate(-105.475) scale(5.05946 5.8382)">
            <stop stop-color="#FBE07A" />
            <stop offset="0.2654" stop-color="#FCDF73" stop-opacity="0.7346" />
            <stop offset="0.6548" stop-color="#FDDB5F" stop-opacity="0.3452" />
            <stop offset="1" stop-color="#FFD748" stop-opacity="0" />
        </radialGradient>
        <radialGradient id="paint21_radial_1008_3269" cx="0" cy="0" r="1" gradientUnits="userSpaceOnUse"
            gradientTransform="translate(49.5022 18.4859) rotate(-84.5961) scale(3.64608 4.38424)">
            <stop stop-color="#FBE07A" />
            <stop offset="0.2654" stop-color="#FCDF73" stop-opacity="0.7346" />
            <stop offset="0.6548" stop-color="#FDDB5F" stop-opacity="0.3452" />
            <stop offset="1" stop-color="#FFD748" stop-opacity="0" />
        </radialGradient>
        <radialGradient id="paint22_radial_1008_3269" cx="0" cy="0" r="1" gradientUnits="userSpaceOnUse"
            gradientTransform="translate(20.9578 38.5535) rotate(-95.9249) scale(7.18879 3.70754)">
            <stop stop-color="#FBE07A" />
            <stop offset="0.2654" stop-color="#FCDF73" stop-opacity="0.7346" />
            <stop offset="0.6548" stop-color="#FDDB5F" stop-opacity="0.3452" />
            <stop offset="1" stop-color="#FFD748" stop-opacity="0" />
        </radialGradient>
        <radialGradient id="paint23_radial_1008_3269" cx="0" cy="0" r="1" gradientUnits="userSpaceOnUse"
            gradientTransform="translate(35.6068 37.399) rotate(-95.9021) scale(9.12455 5.84401)">
            <stop stop-color="#FBE07A" />
            <stop offset="0.2654" stop-color="#FCDF73" stop-opacity="0.7346" />
            <stop offset="0.6548" stop-color="#FDDB5F" stop-opacity="0.3452" />
            <stop offset="1" stop-color="#FFD748" stop-opacity="0" />
        </radialGradient>
        <radialGradient id="paint24_radial_1008_3269" cx="0" cy="0" r="1" gradientUnits="userSpaceOnUse"
            gradientTransform="translate(50.0199 36.9689) rotate(-92.0989) scale(9.13141 4.50909)">
            <stop stop-color="#FBE07A" />
            <stop offset="0.2654" stop-color="#FCDF73" stop-opacity="0.7346" />
            <stop offset="0.6548" stop-color="#FDDB5F" stop-opacity="0.3452" />
            <stop offset="1" stop-color="#FFD748" stop-opacity="0" />
        </radialGradient>
        <linearGradient id="paint25_linear_1008_3269" x1="33.2379" y1="24.8656" x2="22.5124" y2="-14.4198"
            gradientUnits="userSpaceOnUse">
            <stop stop-color="#FFBC47" stop-opacity="0" />
            <stop offset="1" stop-color="#C86F34" />
        </linearGradient>
    </defs>
</svg>