<?xml version="1.0" encoding="iso-8859-1"?>
<!-- Uploaded to: SVG Repo, www.svgrepo.com, Generator: SVG Repo Mixer Tools -->
<!DOCTYPE svg PUBLIC "-//W3C//DTD SVG 1.1//EN" "http://www.w3.org/Graphics/SVG/1.1/DTD/svg11.dtd">
<svg fill="#000000" height="800px" width="800px" version="1.1" id="Capa_1" xmlns="http://www.w3.org/2000/svg" xmlns:xlink="http://www.w3.org/1999/xlink" 
	 viewBox="0 0 312.693 312.693" xml:space="preserve">
<g>
	<path d="M113.461,149.395c6.324,0,12.536,1.107,18.473,3.291l46.82,17.201c16.209,5.957,24.554,23.998,18.596,40.248
		c-4.52,12.234-16.32,20.456-29.377,20.456c-4.662,0-6.786-0.808-13.129-2.244c11.545,7.674,12.231,8.745,14.628,7.757
		l96.078-40.256c-2.274-7.768-9.374-13.48-17.882-13.48h-6.293c0.061-0.674,0.244-1.321,0.244-2.015
		c0-14.622-13.831-26.486-31.386-27.694c-1.452-11.426-11.21-20.772-23.849-20.304c16.4-31.334,44.019-23.986,59.194-65.924
		c0.15-0.414,0.587-0.65,1.017-0.549c0.429,0.103,0.713,0.51,0.66,0.947c-3.86,31.986-23.891,48.928-24.231,49.246
		c21.707,3.309,41.996-9.381,48.575-34.443c4.642-17.623-5.495-47.293-13.177-65.938c-0.888-2.154-2.99-3.559-5.321-3.556
		c-2.33,0.004-4.428,1.416-5.309,3.574c-4.385,10.744-14.761,24.368-39.039,33.92c-20.982,9.925-22.85,35.696-11.23,51.921
		c-4.531,2.947-17.047,14.182-21.738,27.025c-5.304-7.491-14.035-12.602-24.133-13.388c0-46.312-33.397-67.144-42.898-94.21
		c-0.287-0.817-1.129-1.303-1.98-1.14c-0.852,0.162-1.456,0.924-1.422,1.79c1.445,36.73,33.661,39.548,33.661,94.85
		c-8.936,2.709-16.169,8.941-19.799,16.964c-2.765-0.698-5.61-1.173-8.59-1.173c-16.626,0-30.469,11.495-34.283,26.934
		C96.886,152.013,102.246,149.395,113.461,149.395z"/>
	<path d="M311.064,216.419c-3.355-8.008-11.128-12.822-19.289-12.822c-2.682,0-5.416,0.525-8.048,1.626L175.52,250.554
		c-6.088,2.553-12.89,1.778-18.156-1.724l-42.506-28.235c-3.193-2.116-4.641-6.063-3.569-9.741c1.297-4.448,5.827-7.12,10.343-6.095
		l41.577,9.42c1.582,0.505,3.184,0.745,4.765,0.745c6.364,0,12.342-3.887,14.678-10.217c2.979-8.125-1.185-17.126-9.303-20.11
		l-46.82-17.207c-8.171-3.009-17.229-3.126-25.593-0.194L6.273,200.362C2.52,201.678,0,205.228,0,209.212v67.946
		c0,5.182,4.202,9.379,9.375,9.379h39.608l100.902,13.628c1.918,0.26,3.847,0.388,5.764,0.388c5.702,0,11.364-1.132,16.646-3.352
		l127.568-53.439C310.513,239.302,315.522,227.063,311.064,216.419z"/>
</g>
</svg>