<svg xmlns="http://www.w3.org/2000/svg" width="47" height="47" viewBox="0 0 47 47" fill="none">
    <g clip-path="url(#clip0_706_1365)">
        <path
            d="M28.5767 26.9555C27.1501 27.6085 25.7198 27.6162 24.2791 27.6124C19.1057 27.5996 13.931 27.6124 8.75756 27.6124C4.29996 27.6124 0.883448 24.1152 0.984611 19.673C1.06016 16.2629 3.5995 13.1895 6.94302 12.4827C7.34383 12.3981 7.38481 12.2765 7.31438 11.9039C6.26177 6.28863 9.89341 1.08703 15.5099 0.134297C21.0099 -0.797945 26.337 3.23452 26.9657 8.77675C27.0943 9.85596 27.0463 10.9489 26.8236 12.0127C26.7621 12.3008 26.7903 12.4186 27.0874 12.4532C27.5932 12.5134 28.0555 12.7452 28.5767 12.8796V6.57548C28.5767 6.04917 28.5959 5.52158 28.569 4.99527C28.5536 4.68154 28.6471 4.60086 28.9608 4.60343C31.0097 4.61879 33.0484 4.60343 35.0921 4.62007C35.2228 4.63285 35.3542 4.6044 35.4679 4.53872C35.5815 4.47304 35.6718 4.37342 35.726 4.25383C36.3804 3.12695 37.0603 2.01415 37.7339 0.896226C37.9157 0.948729 37.9426 1.10752 38.0118 1.22021C38.6226 2.22928 39.2373 3.23451 39.8263 4.25511C39.8802 4.37494 39.9704 4.47478 40.0842 4.54051C40.1979 4.60624 40.3295 4.63452 40.4602 4.62135C42.4886 4.60471 44.517 4.62135 46.5441 4.60343C46.9052 4.60343 46.9833 4.6905 46.9833 5.04522C46.9731 17.884 46.9697 30.722 46.9731 43.5591C46.9731 45.0445 46.005 46.0037 44.508 46.0037C40.021 46.0037 35.5343 46.0037 31.0481 46.0037C29.5294 46.0037 28.5792 45.0445 28.578 43.5156C28.578 38.197 28.578 32.8797 28.578 27.5637L28.5767 26.9555Z"
            fill="black" />
        <path
            d="M17.1003 26.0748C14.2831 26.0748 11.48 26.085 8.66919 26.0748C5.14127 26.0581 2.41625 23.223 2.52254 19.6963C2.60961 16.623 5.17328 13.9953 8.26325 13.8212C11.4313 13.6432 14.2562 15.9059 14.698 18.9741C14.8389 19.9486 14.8389 19.9179 15.8262 19.9589C16.2872 19.9781 16.3384 19.8129 16.3102 19.421C16.1797 17.6036 15.4081 15.8917 14.133 14.5901C12.8579 13.2885 11.1622 12.4819 9.34788 12.314C9.02774 12.2807 8.92402 12.1577 8.85615 11.8786C7.71262 7.08674 11.0984 2.21168 15.9888 1.62775C21.2557 0.998995 25.721 5.09932 25.4995 10.3765C25.4554 11.5925 25.1321 12.7821 24.5544 13.8532C24.4046 14.1298 24.4264 14.2822 24.7209 14.3884C24.7661 14.4087 24.809 14.4336 24.849 14.4627C25.6813 14.9493 25.6967 14.957 26.1474 14.0926C26.2896 13.8199 26.4778 13.8775 26.6597 13.9185C28.9941 14.4448 30.6294 15.8137 31.3439 18.1033C32.6027 22.1217 29.6498 26.0671 25.4342 26.0735C22.6571 26.0769 19.8791 26.0773 17.1003 26.0748Z"
            fill="#00A3FE" />
        <path
            d="M45.4401 15.9751V43.3636C45.4401 44.2471 45.2199 44.4699 44.3452 44.4712C43.34 44.4712 42.3335 44.4507 41.3283 44.4815C40.9351 44.493 40.8276 44.3982 40.8301 43.9923C40.8506 41.3416 40.8416 38.6921 40.8416 36.0426C40.8416 30.456 40.8391 24.869 40.834 19.2815C40.834 18.9613 40.9172 18.7693 41.2015 18.5977C42.482 17.8204 43.7472 17.0162 45.0188 16.2235C45.1353 16.1493 45.257 16.0827 45.4401 15.9751Z"
            fill="#6B6B6B" />
        <path
            d="M32.868 17.7407C33.4635 18.0954 33.9744 18.4207 34.5045 18.7088C34.7722 18.8548 34.7082 19.0751 34.7082 19.2851C34.7082 24.4073 34.7082 29.5295 34.7082 34.6517C34.7082 37.7634 34.6992 40.8765 34.7184 43.9882C34.7184 44.398 34.6083 44.4863 34.219 44.4761C33.1664 44.4466 32.1125 44.4684 31.0586 44.4646C30.3773 44.4646 30.1097 44.1918 30.1097 43.5016C30.1097 37.8194 30.1071 32.1371 30.102 26.4549C30.0978 26.3314 30.1234 26.2088 30.1767 26.0973C30.23 25.9858 30.3093 25.8889 30.4081 25.8146C32.7668 23.7282 33.609 21.144 32.9346 18.0621C32.9192 17.9892 32.9039 17.9123 32.868 17.7407Z"
            fill="#6B6B6B" />
        <path
            d="M37.7928 13.0437C40.1875 13.0437 42.5808 13.0437 44.9755 13.0361C45.3263 13.0361 45.4467 13.095 45.4608 13.4881C45.4787 13.9786 45.3238 14.2487 44.9025 14.5036C43.143 15.5652 41.413 16.6805 39.6637 17.7536C39.4076 17.9111 39.2898 18.0712 39.3 18.3939C39.3269 19.3018 39.3 20.2136 39.318 21.1228C39.3257 21.4275 39.2335 21.5069 38.9441 21.4839C38.6546 21.4608 38.3691 21.4967 38.0835 21.4736C37.8197 21.4519 37.7762 21.5594 37.7711 21.7976C37.7442 23.0013 37.7378 23.009 38.9108 23.0052C39.1989 23.0052 39.3308 23.0423 39.3193 23.3829C39.2898 24.1641 39.2911 24.9478 39.3193 25.7289C39.3308 26.0465 39.213 26.1207 38.9351 26.0785C38.8874 26.0734 38.8393 26.0734 38.7917 26.0785C38.4626 26.1067 37.9324 25.9364 37.8453 26.1438C37.6865 26.528 37.7852 27.0133 37.7749 27.4576C37.7749 27.5857 37.8505 27.6139 37.958 27.6113C38.0374 27.6113 38.1181 27.6113 38.1975 27.6113C39.3064 27.6113 39.3064 27.6113 39.3064 28.7075C39.3064 29.2658 39.2975 29.8241 39.3064 30.3824C39.3064 30.6052 39.2565 30.6872 39.0183 30.6821C38.2052 30.668 37.3895 30.6501 36.5776 30.6885C36.1768 30.7064 36.2344 30.4874 36.2344 30.2492C36.2344 27.041 36.2344 23.8328 36.2344 20.6246C36.2344 19.8755 36.219 19.1251 36.2421 18.3747C36.2576 18.252 36.2338 18.1276 36.1739 18.0194C36.114 17.9112 36.0213 17.8248 35.9091 17.7728C34.8616 17.1658 33.8513 16.4923 32.7846 15.925C31.8101 15.4128 31.043 14.6572 30.2427 13.9312C29.9866 13.702 30.0954 13.419 30.121 13.1718C30.1467 12.9247 30.4066 13.054 30.5539 13.0527C32.9728 13.0412 35.3828 13.0437 37.7928 13.0437Z"
            fill="#E9E9E9" />
        <path
            d="M37.7774 11.5097C35.3661 11.5097 32.9549 11.5007 30.5436 11.5199C30.1799 11.5199 30.0967 11.4251 30.1018 11.0717C30.1236 9.5709 30.1261 8.07009 30.1018 6.56929C30.1018 6.18512 30.2196 6.13134 30.5589 6.13646C31.8036 6.15695 33.0496 6.15439 34.2943 6.13646C34.6349 6.13646 34.7668 6.16079 34.7323 6.58081C34.6119 8.06625 35.411 9.30711 36.7235 9.78219C37.3422 10.0102 38.0181 10.032 38.6502 9.84436C39.2823 9.65673 39.8368 9.26973 40.2309 8.7411C40.715 8.09443 40.9281 7.28466 40.8251 6.48349C40.7982 6.22738 40.8251 6.13006 41.1158 6.1339C42.4412 6.14926 43.7666 6.1467 45.0919 6.1339C45.348 6.1339 45.4518 6.17872 45.4492 6.46684C45.4351 8.03168 45.4326 9.59651 45.4492 11.1613C45.4492 11.4904 45.3211 11.5109 45.0561 11.5097C42.6307 11.5071 40.2041 11.5097 37.7774 11.5097Z"
            fill="#6B6B6B" />
        <path
            d="M36.2433 38.3267C36.2433 36.4264 36.251 34.526 36.2357 32.627C36.2357 32.3043 36.2946 32.1839 36.6454 32.1967C37.4278 32.2262 38.2103 32.2159 38.9927 32.1967C39.2488 32.1967 39.3205 32.262 39.3154 32.5169C39.3 33.3313 39.3 34.1457 39.3154 34.9602C39.3154 35.2163 39.2283 35.3046 38.9876 35.2688C38.9556 35.2668 38.9235 35.2668 38.8915 35.2688C37.6519 35.279 37.6571 35.2777 37.771 36.557C37.7877 36.7388 37.8312 36.8131 38.0195 36.8041C38.3383 36.7926 38.6597 36.8195 38.9773 36.7965C39.259 36.7747 39.3205 36.8874 39.3154 37.1486C39.3 37.9464 39.3013 38.7455 39.3154 39.5432C39.3154 39.7814 39.2693 39.912 39.0042 39.8685C38.9722 39.8659 38.9401 39.8659 38.9082 39.8685C37.6801 39.8826 37.6865 39.8813 37.771 41.1427C37.7851 41.3578 37.853 41.4257 38.0528 41.3988C38.1163 41.3956 38.18 41.3956 38.2436 41.3988C39.3103 41.3988 39.3103 41.3988 39.3103 42.4488C39.3103 43.0238 39.2949 43.6013 39.3103 44.1724C39.3218 44.4593 39.1822 44.4708 38.9658 44.4683C38.1834 44.4606 37.3997 44.4478 36.6185 44.4683C36.2907 44.4798 36.2344 44.3658 36.2344 44.0662C36.2497 42.1594 36.2433 40.2437 36.2433 38.3267Z"
            fill="#36C5FE" />
        <path
            d="M37.7757 3.79297C38.2675 4.62405 38.7387 5.35908 39.1459 6.1287C39.3189 6.45736 39.3706 6.83644 39.2919 7.1994C39.2132 7.56236 39.0092 7.88602 38.7157 8.11355C38.4461 8.33025 38.1099 8.44709 37.764 8.44429C37.4182 8.44149 37.0839 8.31922 36.8179 8.09819C36.5283 7.86588 36.3295 7.53931 36.256 7.17542C36.1825 6.81153 36.2391 6.4334 36.4158 6.10693C36.8217 5.3514 37.284 4.62405 37.7757 3.79297Z"
            fill="#E50333" />
        <path
            d="M17.0849 29.8892C18.0363 31.4924 18.9724 32.974 19.8099 34.5094C20.1796 35.2075 20.2687 36.0205 20.059 36.7822C19.8493 37.5438 19.3567 38.1966 18.6817 38.6072C18.0248 39.0164 17.2361 39.1586 16.4776 39.0045C15.7191 38.8504 15.0484 38.4118 14.6032 37.7786C13.9053 36.7862 13.7606 35.6709 14.3202 34.6118C15.1577 33.038 16.1245 31.5167 17.0849 29.8892Z"
            fill="black" />
        <path
            d="M17.0864 32.8896C17.5654 33.6926 18.0161 34.4045 18.4221 35.1421C18.611 35.4709 18.6775 35.856 18.6098 36.2291C18.5421 36.6023 18.3445 36.9394 18.052 37.1808C17.7817 37.41 17.4389 37.5358 17.0845 37.5358C16.7302 37.5358 16.3873 37.41 16.1171 37.1808C15.825 36.939 15.6279 36.6018 15.5606 36.2286C15.4934 35.8555 15.5603 35.4707 15.7495 35.1421C16.1568 34.4033 16.605 33.6913 17.0864 32.8896Z"
            fill="#00A3FE" />
        <path d="M39.3154 39.7778H36.2344V44.4813H39.3154V39.7778Z" fill="#E50333" />
        <path d="M39.3154 29.5464H36.2344V39.8868H39.3154V29.5464Z" fill="#E9E9E9" />
        <path
            d="M39.6924 25.894H38.0814C37.9124 25.894 37.7754 26.0311 37.7754 26.2001V27.3052C37.7754 27.4742 37.9124 27.6113 38.0814 27.6113H39.6924C39.8614 27.6113 39.9984 27.4742 39.9984 27.3052V26.2001C39.9984 26.0311 39.8614 25.894 39.6924 25.894Z"
            fill="black" />
        <path
            d="M39.6924 30.686H38.0814C37.9124 30.686 37.7754 30.8231 37.7754 30.9921V32.0972C37.7754 32.2662 37.9124 32.4033 38.0814 32.4033H39.6924C39.8614 32.4033 39.9984 32.2662 39.9984 32.0972V30.9921C39.9984 30.8231 39.8614 30.686 39.6924 30.686Z"
            fill="black" />
        <path
            d="M39.6924 35.4775H38.0814C37.9124 35.4775 37.7754 35.6146 37.7754 35.7836V36.8887C37.7754 37.0577 37.9124 37.1948 38.0814 37.1948H39.6924C39.8614 37.1948 39.9984 37.0577 39.9984 36.8887V35.7836C39.9984 35.6146 39.8614 35.4775 39.6924 35.4775Z"
            fill="black" />
        <path
            d="M39.6924 40.2695H38.0814C37.9124 40.2695 37.7754 40.4066 37.7754 40.5756V41.6807C37.7754 41.8497 37.9124 41.9868 38.0814 41.9868H39.6924C39.8614 41.9868 39.9984 41.8497 39.9984 41.6807V40.5756C39.9984 40.4066 39.8614 40.2695 39.6924 40.2695Z"
            fill="black" />
    </g>
    <defs>
        <clipPath id="clip0_706_1365">
            <rect width="46" height="46.0051" fill="white" transform="translate(0.982422)" />
        </clipPath>
    </defs>
</svg>