<svg width="787" height="516" viewBox="0 0 787 516" fill="none" xmlns="http://www.w3.org/2000/svg">
<path d="M395.923 88.8462C419.308 45.7692 463.616 15 515.308 15C590.385 15 651.923 77.7692 651.923 155.308C651.923 166.385 650.693 176.231 648.231 187.308" stroke="black" stroke-width="30"/>
<path d="M318.385 115.924C336.846 99.9243 361.462 90.0781 387.308 90.0781C414.385 90.0781 440.231 101.155 459.923 118.386" stroke="black" stroke-width="30"/>
<path d="M655.616 143.001C664.231 140.54 674.077 138.078 682.692 138.078C731.923 138.078 771.308 177.463 771.308 225.463C771.308 273.463 731.923 312.847 682.692 312.847H500.539" stroke="black" stroke-width="30"/>
<path d="M133.154 160.232C156.538 118.386 200.846 90.0781 252.538 90.0781C327.615 90.0781 389.154 150.386 389.154 224.232C389.154 234.078 387.923 245.155 385.462 255.001" stroke="black" stroke-width="30"/>
<path d="M392.846 204.538C401.462 202.077 411.308 199.615 419.923 199.615C469.154 199.615 508.538 237.769 508.538 285.769C508.538 333.769 469.154 371.923 419.923 371.923H123.308C64.2308 371.923 15 323.923 15 266.077C15 207 63 160.23 123.308 160.23C150.385 160.23 176.231 170.077 195.923 187.307" stroke="black" stroke-width="30"/>
<path d="M168.231 410.078L119 508.54" stroke="black" stroke-width="30"/>
<path d="M360.692 410.078L323.769 483.924" stroke="black" stroke-width="30"/>
<path d="M617.769 348.539L580.846 422.385" stroke="black" stroke-width="30"/>
</svg>
