<svg xmlns="http://www.w3.org/2000/svg" viewBox="0 0 100 100"><path d="M41.518156 8.3607618a8.3069536 8.3607612 0 1 1 8.306954 8.3607612 8.3069536 8.3607612 0 0 1-8.306954-8.3607612M49.82511 20.916402c-15.624755 0-26.985595 10.535526-26.985595 25.062953a4.1678819 4.194879 0 1 0 8.306954 0 16.335408 16.441219 0 0 1 8.287747-14.633749v64.807981a4.1678819 4.194879 0 0 0 8.306953 0V64.798316h4.167882v31.355271a4.1678819 4.194879 0 0 0 8.306954 0V31.345606a16.287391 16.392891 0 0 1 8.287746 14.633749 4.1678819 4.194879 0 1 0 8.306954 0c0-14.527427-11.360839-25.062953-26.985595-25.062953" class="cls-2"/></svg>