<?xml version="1.0" encoding="UTF-8" standalone="no"?>
<svg width="39.111" height="39.111" viewBox="0 0 10.348 10.348" version="1.1" id="svg484" sodipodi:docname="male.svg"
    inkscape:version="1.2.1 (9c6d41e410, 2022-07-14)" xmlns:inkscape="http://www.inkscape.org/namespaces/inkscape"
    xmlns:sodipodi="http://sodipodi.sourceforge.net/DTD/sodipodi-0.dtd" xmlns="http://www.w3.org/2000/svg"
    xmlns:svg="http://www.w3.org/2000/svg">
    <defs id="defs488" />
    <sodipodi:namedview id="namedview486" pagecolor="#ffffff" bordercolor="#000000" borderopacity="0.25"
        inkscape:showpageshadow="2" inkscape:pageopacity="0.0" inkscape:pagecheckerboard="0"
        inkscape:deskcolor="#d1d1d1" showgrid="false" inkscape:zoom="20.556877" inkscape:cx="19.5555"
        inkscape:cy="19.579823" inkscape:window-width="1920" inkscape:window-height="991" inkscape:window-x="1911"
        inkscape:window-y="-9" inkscape:window-maximized="1" inkscape:current-layer="svg484" />
    <path class="cls-2"
        d="M99.759 89.15a.865.865 0 1 1 .865.865.865.865 0 0 1-.865-.865m.865 1.299c-1.627 0-2.81 1.09-2.81 2.593a.434.434 0 1 0 .865 0 1.701 1.701 0 0 1 .863-1.514v6.705a.434.434 0 0 0 .865 0v-3.244h.434v3.244a.434.434 0 0 0 .865 0v-6.705a1.696 1.696 0 0 1 .863 1.514.434.434 0 1 0 .865 0c0-1.503-1.183-2.593-2.81-2.593"
        style="fill:#008066;stroke-width:0.264583" transform="translate(-95.45 -88.285)" id="path482" />
</svg>