<?xml version="1.0" encoding="UTF-8" standalone="no"?>
<svg width="39.111" height="39.111" viewBox="0 0 10.348 10.348" version="1.1" id="svg484" xmlns="http://www.w3.org/2000/svg" xmlns:svg="http://www.w3.org/2000/svg">    
    <path class="cls-2"
        d="M99.759 89.15a.865.865 0 1 1 .865.865.865.865 0 0 1-.865-.865m.865 1.299c-1.627 0-2.81 1.09-2.81 2.593a.434.434 0 1 0 .865 0 1.701 1.701 0 0 1 .863-1.514v6.705a.434.434 0 0 0 .865 0v-3.244h.434v3.244a.434.434 0 0 0 .865 0v-6.705a1.696 1.696 0 0 1 .863 1.514.434.434 0 1 0 .865 0c0-1.503-1.183-2.593-2.81-2.593"
        style="stroke-width:0.264583" transform="translate(-95.45 -88.285)" id="path482" />
</svg>