<svg xmlns="http://www.w3.org/2000/svg" width="47" height="47" viewBox="0 0 47 47" fill="none">
    <g clip-path="url(#clip0_706_1352)">
        <path
            d="M28.5864 26.9555C27.1599 27.6085 25.7295 27.6162 24.2889 27.6124C19.1155 27.5996 13.9408 27.6124 8.76733 27.6124C4.30973 27.6124 0.893213 24.1152 0.994377 19.673C1.06993 16.2629 3.60926 13.1895 6.95279 12.4827C7.3536 12.3981 7.39458 12.2765 7.32415 11.9039C6.27153 6.28863 9.90318 1.08703 15.5197 0.134297C21.0197 -0.797945 26.3468 3.23452 26.9755 8.77675C27.1041 9.85596 27.0561 10.9489 26.8334 12.0127C26.7719 12.3008 26.8001 12.4186 27.0972 12.4532C27.603 12.5134 28.0653 12.7452 28.5864 12.8796V6.57548C28.5864 6.04917 28.6056 5.52158 28.5788 4.99527C28.5634 4.68154 28.6569 4.60086 28.9706 4.60343C31.0195 4.61879 33.0581 4.60343 35.1019 4.62007C35.2326 4.63285 35.3639 4.6044 35.4776 4.53872C35.5913 4.47304 35.6816 4.37342 35.7358 4.25383C36.3901 3.12695 37.0701 2.01415 37.7437 0.896226C37.9255 0.948729 37.9524 1.10752 38.0215 1.22021C38.6324 2.22928 39.247 3.23451 39.8361 4.25511C39.89 4.37494 39.9802 4.47478 40.0939 4.54051C40.2077 4.60624 40.3392 4.63452 40.47 4.62135C42.4984 4.60471 44.5268 4.62135 46.5539 4.60343C46.915 4.60343 46.9931 4.6905 46.9931 5.04522C46.9829 17.884 46.9794 30.722 46.9829 43.5591C46.9829 45.0445 46.0148 46.0037 44.5178 46.0037C40.0307 46.0037 35.5441 46.0037 31.0579 46.0037C29.5392 46.0037 28.589 45.0445 28.5877 43.5156C28.5877 38.197 28.5877 32.8797 28.5877 27.5637L28.5864 26.9555Z"
            fill="black" />
        <path
            d="M12.487 29.9033C13.4307 31.4925 14.3668 32.9766 15.2043 34.5133C15.574 35.2115 15.6631 36.0244 15.4534 36.7861C15.2437 37.5477 14.751 38.2005 14.0761 38.6111C13.419 39.0204 12.6301 39.1626 11.8714 39.0085C11.1127 38.8544 10.4417 38.4158 9.99628 37.7826C9.29838 36.7901 9.22795 35.7157 9.6992 34.6068C9.79821 34.3898 9.91247 34.1801 10.0411 33.9793C10.8402 32.645 11.6405 31.3119 12.487 29.9033Z"
            fill="black" />
        <path
            d="M21.6791 29.8892C22.6306 31.4924 23.5666 32.974 24.4041 34.5094C24.7738 35.2075 24.8629 36.0205 24.6532 36.7822C24.4435 37.5438 23.9509 38.1966 23.276 38.6072C22.6188 39.0165 21.8299 39.1587 21.0712 39.0046C20.3125 38.8505 19.6416 38.4118 19.1961 37.7786C18.4982 36.7862 18.3548 35.6709 18.9144 34.6118C19.7519 33.038 20.7136 31.5167 21.6791 29.8892Z"
            fill="black" />
        <path
            d="M17.1101 26.0748C14.2929 26.0748 11.4898 26.085 8.67895 26.0748C5.15103 26.0581 2.42602 23.223 2.5323 19.6963C2.61938 16.623 5.18305 13.9953 8.27302 13.8212C11.4411 13.6432 14.266 15.9059 14.7078 18.9741C14.8487 19.9486 14.8487 19.9179 15.836 19.9589C16.297 19.9781 16.3482 19.8129 16.32 19.421C16.1894 17.6036 15.4179 15.8917 14.1428 14.5901C12.8677 13.2885 11.172 12.4819 9.35765 12.314C9.03751 12.2807 8.93378 12.1577 8.86591 11.8786C7.72238 7.08674 11.1082 2.21168 15.9986 1.62775C21.2655 0.998995 25.7308 5.09932 25.5093 10.3765C25.4652 11.5925 25.1418 12.7821 24.5642 13.8532C24.4144 14.1298 24.4361 14.2822 24.7307 14.3884C24.7758 14.4087 24.8187 14.4336 24.8587 14.4627C25.6911 14.9493 25.7065 14.957 26.1572 14.0926C26.2994 13.8199 26.4876 13.8775 26.6694 13.9185C29.0039 14.4448 30.6391 15.8137 31.3537 18.1033C32.6125 22.1217 29.6595 26.0671 25.4439 26.0735C22.6669 26.0769 19.8889 26.0773 17.1101 26.0748Z"
            fill="#00A3FE" />
        <path
            d="M45.4499 15.9751V43.3636C45.4499 44.2471 45.2296 44.4699 44.355 44.4712C43.3498 44.4712 42.3433 44.4507 41.338 44.4815C40.9449 44.493 40.8373 44.3982 40.8399 43.9923C40.8604 41.3416 40.8514 38.6921 40.8514 36.0426C40.8514 30.456 40.8489 24.869 40.8437 19.2815C40.8437 18.9613 40.927 18.7693 41.2112 18.5977C42.4918 17.8204 43.757 17.0162 45.0286 16.2235C45.1451 16.1493 45.2668 16.0827 45.4499 15.9751Z"
            fill="#6B6B6B" />
        <path
            d="M32.8778 17.7407C33.4732 18.0954 33.9842 18.4207 34.5143 18.7088C34.782 18.8548 34.7179 19.0751 34.7179 19.2851C34.7179 24.4073 34.7179 29.5295 34.7179 34.6517C34.7179 37.7634 34.709 40.8765 34.7282 43.9882C34.7282 44.398 34.618 44.4863 34.2288 44.4761C33.1761 44.4466 32.1222 44.4684 31.0683 44.4646C30.3871 44.4646 30.1195 44.1918 30.1195 43.5016C30.1195 37.8194 30.1169 32.1371 30.1118 26.4549C30.1076 26.3314 30.1332 26.2088 30.1865 26.0973C30.2397 25.9858 30.3191 25.8889 30.4178 25.8146C32.7766 23.7282 33.6188 21.144 32.9444 18.0621C32.929 17.9892 32.9136 17.9123 32.8778 17.7407Z"
            fill="#6B6B6B" />
        <path
            d="M37.8026 13.0437C40.1972 13.0437 42.5906 13.0437 44.9852 13.0361C45.3361 13.0361 45.4565 13.095 45.4705 13.4881C45.4885 13.9786 45.3335 14.2487 44.9122 14.5036C43.1527 15.5652 41.4227 16.6805 39.6735 17.7536C39.4174 17.9111 39.2996 18.0712 39.3098 18.3939C39.3367 19.3018 39.3098 20.2136 39.3277 21.1228C39.3354 21.4275 39.2432 21.5069 38.9538 21.4839C38.6644 21.4608 38.3788 21.4967 38.0933 21.4736C37.8295 21.4519 37.786 21.5594 37.7808 21.7976C37.7539 23.0013 37.7475 23.009 38.9205 23.0052C39.2086 23.0052 39.3405 23.0423 39.329 23.3829C39.2996 24.1641 39.3008 24.9478 39.329 25.7289C39.3405 26.0465 39.2227 26.1207 38.9449 26.0785C38.8972 26.0734 38.8491 26.0734 38.8014 26.0785C38.4723 26.1067 37.9422 25.9364 37.8551 26.1438C37.6963 26.528 37.7949 27.0133 37.7847 27.4576C37.7847 27.5857 37.8602 27.6139 37.9678 27.6113C38.0472 27.6113 38.1279 27.6113 38.2073 27.6113C39.3162 27.6113 39.3162 27.6113 39.3162 28.7075C39.3162 29.2658 39.3072 29.8241 39.3162 30.3824C39.3162 30.6052 39.2663 30.6872 39.0281 30.6821C38.2149 30.668 37.3992 30.6501 36.5874 30.6885C36.1865 30.7064 36.2442 30.4874 36.2442 30.2492C36.2442 27.041 36.2442 23.8328 36.2442 20.6246C36.2442 19.8755 36.2288 19.1251 36.2519 18.3747C36.2674 18.252 36.2435 18.1276 36.1837 18.0194C36.1238 17.9112 36.0311 17.8248 35.9189 17.7728C34.8714 17.1658 33.8611 16.4923 32.7944 15.925C31.8199 15.4128 31.0528 14.6572 30.2525 13.9312C29.9964 13.702 30.1052 13.419 30.1308 13.1718C30.1564 12.9247 30.4164 13.054 30.5636 13.0527C32.9826 13.0412 35.3926 13.0437 37.8026 13.0437Z"
            fill="#E9E9E9" />
        <path
            d="M37.7872 11.5097C35.3759 11.5097 32.9646 11.5007 30.5533 11.5199C30.1897 11.5199 30.1064 11.4251 30.1115 11.0717C30.1333 9.5709 30.1359 8.07009 30.1115 6.56929C30.1115 6.18512 30.2294 6.13134 30.5687 6.13646C31.8134 6.15695 33.0594 6.15439 34.3041 6.13646C34.6447 6.13646 34.7766 6.16079 34.742 6.58081C34.6217 8.06625 35.4207 9.30711 36.7333 9.78219C37.352 10.0102 38.0278 10.032 38.66 9.84436C39.2921 9.65673 39.8466 9.26973 40.2407 8.7411C40.7247 8.09443 40.9379 7.28466 40.8349 6.48349C40.808 6.22738 40.8349 6.13006 41.1256 6.1339C42.4509 6.14926 43.7763 6.1467 45.1017 6.1339C45.3578 6.1339 45.4615 6.17872 45.459 6.46684C45.4449 8.03168 45.4423 9.59651 45.459 11.1613C45.459 11.4904 45.3309 11.5109 45.0658 11.5097C42.6405 11.5071 40.2138 11.5097 37.7872 11.5097Z"
            fill="#6B6B6B" />
        <path
            d="M36.2531 38.3267C36.2531 36.4264 36.2608 34.526 36.2454 32.627C36.2454 32.3043 36.3043 32.1839 36.6552 32.1967C37.4376 32.2262 38.22 32.2159 39.0025 32.1967C39.2586 32.1967 39.3303 32.262 39.3251 32.5169C39.3098 33.3313 39.3098 34.1457 39.3251 34.9602C39.3251 35.2163 39.2381 35.3046 38.9973 35.2688C38.9653 35.2668 38.9333 35.2668 38.9013 35.2688C37.6617 35.279 37.6668 35.2777 37.7808 36.557C37.7975 36.7388 37.841 36.8131 38.0292 36.8041C38.3481 36.7926 38.6695 36.8195 38.9871 36.7965C39.2688 36.7747 39.3303 36.8874 39.3251 37.1486C39.3098 37.9464 39.3111 38.7455 39.3251 39.5432C39.3251 39.7814 39.2791 39.912 39.014 39.8685C38.982 39.8659 38.9499 39.8659 38.9179 39.8685C37.6899 39.8826 37.6963 39.8813 37.7808 41.1427C37.7949 41.3578 37.8628 41.4257 38.0625 41.3988C38.1261 41.3956 38.1898 41.3956 38.2533 41.3988C39.32 41.3988 39.32 41.3988 39.32 42.4488C39.32 43.0238 39.3047 43.6013 39.32 44.1724C39.3316 44.4593 39.192 44.4708 38.9756 44.4683C38.1931 44.4606 37.4094 44.4478 36.6283 44.4683C36.3005 44.4798 36.2441 44.3658 36.2441 44.0662C36.2595 42.1594 36.2531 40.2437 36.2531 38.3267Z"
            fill="url(#paint0_linear_706_1352)" />
        <path
            d="M37.7855 3.79297C38.2772 4.62405 38.7485 5.35908 39.1557 6.1287C39.3286 6.45736 39.3803 6.83644 39.3016 7.1994C39.223 7.56236 39.019 7.88602 38.7254 8.11355C38.4558 8.33025 38.1196 8.44709 37.7738 8.44429C37.4279 8.44149 37.0937 8.31922 36.8276 8.09819C36.5381 7.86588 36.3392 7.53931 36.2657 7.17542C36.1923 6.81153 36.2488 6.4334 36.4255 6.10693C36.8315 5.3514 37.2938 4.62405 37.7855 3.79297Z"
            fill="url(#paint1_linear_706_1352)" />
        <path
            d="M12.481 32.8833C12.974 33.7157 13.4465 34.4507 13.8537 35.2216C14.0258 35.5511 14.0759 35.9308 13.9953 36.2937C13.9147 36.6566 13.7086 36.9794 13.4132 37.2052C13.143 37.4211 12.8065 37.5371 12.4607 37.5334C12.1148 37.5296 11.7809 37.4064 11.5154 37.1847C11.2264 36.9516 11.0284 36.6244 10.9561 36.2602C10.8838 35.896 10.9417 35.518 11.1197 35.1921C11.5295 34.4366 11.9918 33.7105 12.481 32.8833Z"
            fill="#00A3FE" />
        <path
            d="M21.6802 32.8896C22.1591 33.6926 22.6099 34.4045 23.0158 35.1421C23.2043 35.4711 23.2705 35.856 23.2028 36.229C23.1351 36.602 22.9378 36.9391 22.6457 37.1808C22.3755 37.41 22.0326 37.5358 21.6783 37.5358C21.3239 37.5358 20.9811 37.41 20.7108 37.1808C20.4188 36.939 20.2216 36.6018 20.1544 36.2286C20.0871 35.8555 20.154 35.4707 20.3433 35.1421C20.7505 34.4033 21.2013 33.6913 21.6802 32.8896Z"
            fill="#00A3FE" />
    </g>
    <defs>
        <linearGradient id="paint0_linear_706_1352" x1="36.2454" y1="38.3382" x2="39.3264" y2="38.3382"
            gradientUnits="userSpaceOnUse">
            <stop offset="0.13" stop-color="#FAB30F" />
            <stop offset="0.91" stop-color="#FFF900" />
        </linearGradient>
        <linearGradient id="paint1_linear_706_1352" x1="36.2335" y1="6.11845" x2="39.3388" y2="6.11845"
            gradientUnits="userSpaceOnUse">
            <stop offset="0.13" stop-color="#FAB30F" />
            <stop offset="0.91" stop-color="#FFF900" />
        </linearGradient>
        <clipPath id="clip0_706_1352">
            <rect width="46" height="46.0051" fill="white" transform="translate(0.992188)" />
        </clipPath>
    </defs>
</svg>