<svg width="795" height="516" viewBox="0 0 795 516" fill="none" xmlns="http://www.w3.org/2000/svg">
<path d="M403.923 88.8462C427.308 45.7692 471.616 15 523.308 15C598.385 15 659.923 77.7692 659.923 155.308C659.923 166.385 658.693 176.231 656.231 187.308" stroke="black" stroke-width="30"/>
<path d="M326.385 115.924C344.846 99.9243 369.462 90.0781 395.308 90.0781C422.385 90.0781 448.231 101.155 467.923 118.386" stroke="black" stroke-width="30"/>
<path d="M663.616 143.001C672.231 140.54 682.077 138.078 690.692 138.078C739.923 138.078 779.308 177.463 779.308 225.463C779.308 273.463 739.923 312.847 690.692 312.847H508.539" stroke="black" stroke-width="30"/>
<path d="M133.154 160.232C156.538 118.386 200.846 90.0781 252.538 90.0781C327.615 90.0781 389.154 150.386 389.154 224.232C389.154 234.078 387.923 245.155 385.462 255.001" stroke="black" stroke-width="30"/>
<path d="M392.846 204.538C401.462 202.077 411.308 199.615 419.923 199.615C469.154 199.615 508.538 237.769 508.538 285.769C508.538 333.769 469.154 371.923 419.923 371.923H123.308C64.2308 371.923 15 323.923 15 266.077C15 207 63 160.23 123.308 160.23C150.385 160.23 176.231 170.077 195.923 187.307" stroke="black" stroke-width="30"/>
<path d="M176.231 410.078L127 508.54" stroke="black" stroke-width="30"/>
<path d="M274.692 410.078L237.769 483.924" stroke="black" stroke-width="30"/>
<path d="M373.154 410.078L323.923 508.54" stroke="black" stroke-width="30"/>
<path d="M557.769 348.539L520.846 422.385" stroke="black" stroke-width="30"/>
<path d="M656.231 348.539L607 447.001" stroke="black" stroke-width="30"/>
</svg>
