<svg xmlns="http://www.w3.org/2000/svg" fill="none" viewBox="0 0 44 44"><g clip-path="url(#a)" transform="translate(-2.242183 -.76650123)"><path fill="#4682b4" d="M17.325955 25.832603c-2.8279 0-5.6416.0102-8.4630301 0-3.54125-.0167-6.27655-2.8626-6.16987-6.4026.08741-3.0849 2.66076-5.7225 5.7624-5.8973 3.1801001-.1787 6.0156001 2.0926 6.4591001 5.1724.1414.9782.1414.9473 1.1324.9884.4627.0193.5142-.1465.4859-.5398-.1311-1.8243-.9056-3.5427-2.1855-4.8492-1.2799-1.3065-2.982-2.1161-4.8031801-2.2847-.32134-.0334-.42546-.1568-.49358-.437-1.14786-4.8099703 2.2506601-9.7034503 7.1595601-10.2895803 5.2868-.63112998 9.769 3.48468 9.5466 8.7817803-.0442 1.2206-.3688 2.4147-.9486 3.4898-.1504.2777-.1285.4306.1671.5373.0453.0203.0884.0453.1285.0746.8355.4884.851.4961 1.3034-.3715.1427-.2738.3317-.216.5142-.1748 2.3432.5283 3.9847 1.9023 4.7019 4.2006 1.2636 4.0336-1.7005 7.9939-5.932 8.0003-2.7876.0034-5.576.0038-8.3653.0013z"/><path fill="#e9e9e9" d="M38.096055 12.752503c2.4036 0 4.806 0 7.2097-.0077.3522 0 .473.0591.4872.4538.0179.4923-.1376.7635-.5605 1.0193-1.7661 1.0656-3.5027 2.1851-5.2585 3.2623-.2571.1581-.3753.3188-.365.6427.0269.9113-.0001 1.8265.0179 2.7391.0078.306-.0848.3857-.3753.3625-.2905-.0231-.5771.0129-.8638-.0103-.2648-.0218-.3085.0862-.3136.3252-.027 1.2083-.0334 1.216 1.144 1.2122.2892 0 .4216.0372.41.3792-.0295.784-.0282 1.5707 0 2.3548.0116.3188-.1067.3933-.3856.3509-.0478-.0052-.0961-.0052-.1439 0-.3304.0283-.8625-.1427-.95.0655-.1593.3857-.0604.8728-.0706 1.3189 0 .1285.0758.1568.1838.1542h.2403c1.1132 0 1.1132 0 1.1132 1.1003 0 .5604-.009 1.1209 0 1.6813 0 .2236-.0502.3059-.2892.3008-.8163-.0142-1.635-.0322-2.45.0064-.4023.018-.3445-.2018-.3445-.4409v-9.661c0-.7519-.0154-1.5052.0077-2.2584.0156-.1231-.0083-.248-.0684-.3566-.0601-.1087-.1532-.1953-.2658-.2475-1.0514-.6093-2.0656-1.2854-3.1363-1.8549-.9782-.5141-1.7481-1.2725-2.5515-2.0013-.2571-.2301-.1478-.5142-.1221-.7622.0257-.2481.2866-.1183.4344-.1196 2.4281-.0115 4.8473-.009 7.2664-.009z"/><path fill="#1e90ff" d="M38.079055 3.4665027c.4936.83422.9666 1.57203 1.3754 2.34455.1736.3299.2255.71041.1465 1.07475-.079.36433-.2838.68921-.5784.9176-.2706.21751-.6081.3348-.9553.33199-.3471-.00281-.6826-.12555-.9497-.34741-.2906-.23319-.4902-.56099-.564-.92625-.0738-.36527-.017-.74483.1604-1.07253.4075-.75838.8715-1.48848 1.3651-2.3227zM11.763305 31.935203c.49487.8381.96918 1.5759 1.37665 2.3497.1727.3306.2233.7115.1429 1.0756-.08041.3642-.28667.6884-.58251.9155-.27137.2167-.60937.3328-.9566.3285-.34723-.0042-.68231-.1284-.94834-.3516-.28948-.2345-.48753-.5631-.55964-.9286-.07211-.3655-.01371-.7446.16502-1.0715.40747-.7584.87021-1.4872 1.36252-2.3176zM20.996255 31.947003c.4756.7918.9178 1.4949 1.324 2.2185.1995.3337.2731.7277.2073 1.1108s-.2665.7301-.5659.978c-.2725.2287-.6173.3531-.973.3512-.3557-.0018-.6992-.13-.9693-.3615-.2973-.2503-.4953-.5988-.558-.9824-.0627-.3836.014-.7769.2161-1.1089.4075-.7198.8484-1.4216 1.3188-2.2057zM16.380325 39.635003c.49363.8355.96793 1.5746 1.37663 2.3484.173.3302.224.7109.1441 1.0751-.08.3641-.2857.6885-.5811.9159-.2714.217-.6096.3333-.95703.3293-.34745-.0039-.68283-.128-.94921-.3511-.29106-.2342-.49028-.5634-.56268-.9299-.07241-.3665-.01335-.7468.16678-1.074.40747-.7584.87021-1.4872 1.36251-2.3137z"/><path fill="#00ced1" d="M39.606355 30.229505h-3.0862v13.205098h3.0862z"/></g><defs><clipPath id="a"><path fill="#fff" d="M.699219.12207h46.173698v46.178902H.699219z"/></clipPath></defs></svg>