<svg xmlns="http://www.w3.org/2000/svg" fill="none" viewBox="0 0 22 13"><g clip-path="url(#a)" transform="translate(-2.242183 -31.766501)"><path fill="#1e90ff" d="M8.6271406 32.082201c.49487.8381.96918 1.5759 1.3766504 2.3497.1727.3306.2233.7115.1429 1.0756-.08041.3642-.2866704.6884-.5825104.9155-.27137.2167-.60937.3328-.9566.3285-.34723-.0042-.68231-.1284-.94834-.3516-.28948-.2345-.48753-.5631-.55964-.9286-.07211-.3655-.01371-.7446.16502-1.0715.40747-.7584.87021-1.4872 1.36252-2.3176zm9.2329504.0118c.4756.7918.9178 1.4949 1.324 2.2185.1995.3337.2731.7277.2073 1.1108s-.2665.7301-.5659.978c-.2725.2287-.6173.3531-.973.3512-.3557-.0018-.6992-.13-.9693-.3615-.2973-.2503-.4953-.5988-.558-.9824-.0627-.3836.014-.7769.2161-1.1089.4075-.7198.8484-1.4216 1.3188-2.2057zm-4.61593 7.688c.49363.8355.96793 1.5746 1.37663 2.3484.173.3302.224.7109.1441 1.0751-.08.3641-.2857.6885-.5811.9159-.2714.217-.6096.3333-.95703.3293-.34745-.0039-.68283-.128-.94921-.3511-.29106-.2342-.49028-.5634-.56268-.9299-.07241-.3665-.01335-.7468.16678-1.074.40747-.7584.87021-1.4872 1.36251-2.3137z"/></g><defs><clipPath id="a"><path fill="#fff" d="M.699219.12207h46.173698v46.178902H.699219Z"/></clipPath></defs></svg>