<svg xmlns="http://www.w3.org/2000/svg" fill="none" viewBox="0 0 22 13"><path fill="#1e90ff" d="M1.7606874.31740021c.49487.83809999.96918 1.57589999 1.37665 2.34969999.1727.3306.2233.7115.1429 1.0756-.08041.3642-.28667.6884-.58251.9155-.27137.2167-.60937.3328-.9566.3285-.34723-.0042-.68231-.1284-.94834-.3516-.28948-.2345-.48753-.5631-.55964-.9286-.07211-.3655-.01371-.7446.16502-1.0715.40747-.7584.87021-1.4872 1.36252-2.31759999zm9.2329496.0118c.4756.79179999.9178 1.49489999 1.324 2.21849999.1995.3337.2731.7277.2073 1.1108s-.2665.7301-.5659.978c-.2725.2287-.6173.3531-.973.3512-.3557-.0018-.6992-.13-.9693-.3615-.2972995-.2503-.4952995-.5988-.5579995-.9824-.0627-.3836.014-.7769.2161-1.1089.4074995-.7198.8483995-1.4216 1.3187995-2.20569999zm9.2332-.0152c.5039.85869999 1.0013 1.61959999 1.4139 2.42559999.3445.6799.0926 1.491-.4948 1.937-.2626.2014-.5843.3106-.9152.3106-.331 0-.6526-.1092-.9152-.3106-.5849-.4408-.8381-1.2584-.4936-1.9383.4023-.8047.8998-1.5656 1.4049-2.42429999zM6.3777074 8.0172002c.49363.8355.96793 1.5746 1.37663 2.3483998.173.3302.224.7109.1441 1.0751-.08.3641-.2857.6885-.5811.9159-.2714.217-.6096.3333-.95703.3293-.34745-.0039-.68283-.128-.94921-.3511-.29106-.2342-.49028-.5634-.56268-.9299-.07241-.3665-.01335-.7468.16678-1.074.40747-.7583998.87021-1.4871998 1.36251-2.3136998zm9.2330296 0c.4807.8059.9332 1.5206 1.3406 2.2609998.1892.3301.2557.7165.1877 1.0909-.068.3744-.266.7128-.5591.9554-.2716.2299-.6159.3561-.9718.3561-.3558 0-.7002-.1262-.9717-.3561-.293-.2428-.4907-.5814-.5582-.9558-.0675-.3745-.0005-.7607.1893-1.0905.4087-.7390998.8612-1.4537998 1.3432-2.2609998z"/></svg>