<?xml version="1.0" encoding="UTF-8" standalone="no"?>
<svg
   xmlns:dc="http://purl.org/dc/elements/1.1/"
   xmlns:cc="http://creativecommons.org/ns#"
   xmlns:rdf="http://www.w3.org/1999/02/22-rdf-syntax-ns#"
   xmlns:svg="http://www.w3.org/2000/svg"
   xmlns="http://www.w3.org/2000/svg"
   xmlns:sodipodi="http://sodipodi.sourceforge.net/DTD/sodipodi-0.dtd"
   xmlns:inkscape="http://www.inkscape.org/namespaces/inkscape"
   viewBox="0 0 22 13"
   version="1.1"
   id="svg17"
   sodipodi:docname="rain-medium-label.svg"
   width="22"
   height="13"
   style="fill:none"
   inkscape:version="0.92.4 (5da689c313, 2019-01-14)">
  <metadata
     id="metadata21">
    <rdf:RDF>
      <cc:Work
         rdf:about="">
        <dc:format>image/svg+xml</dc:format>
        <dc:type
           rdf:resource="http://purl.org/dc/dcmitype/StillImage" />
        <dc:title></dc:title>
      </cc:Work>
    </rdf:RDF>
  </metadata>
  <sodipodi:namedview
     pagecolor="#ffffff"
     bordercolor="#666666"
     borderopacity="1"
     objecttolerance="10"
     gridtolerance="10"
     guidetolerance="10"
     inkscape:pageopacity="0"
     inkscape:pageshadow="2"
     inkscape:window-width="1920"
     inkscape:window-height="1009"
     id="namedview19"
     showgrid="false"
     inkscape:zoom="30.341309"
     inkscape:cx="13.50392"
     inkscape:cy="4.0172932"
     inkscape:window-x="-8"
     inkscape:window-y="-8"
     inkscape:window-maximized="1"
     inkscape:current-layer="g10" />
  <g
     clip-path="url(#a)"
     transform="translate(-2.242183,-31.766501)"
     id="g10">
    <path
       d="m 8.6271406,32.082201 c 0.49487,0.8381 0.96918,1.5759 1.3766504,2.3497 0.1727,0.3306 0.2233,0.7115 0.1429,1.0756 -0.08041,0.3642 -0.2866704,0.6884 -0.5825104,0.9155 -0.27137,0.2167 -0.60937,0.3328 -0.9566,0.3285 -0.34723,-0.0042 -0.68231,-0.1284 -0.94834,-0.3516 -0.28948,-0.2345 -0.48753,-0.5631 -0.55964,-0.9286 -0.07211,-0.3655 -0.01371,-0.7446 0.16502,-1.0715 0.40747,-0.7584 0.87021,-1.4872 1.36252,-2.3176 z m 9.2329504,0.0118 c 0.4756,0.7918 0.9178,1.4949 1.324,2.2185 0.1995,0.3337 0.2731,0.7277 0.2073,1.1108 -0.0658,0.3831 -0.2665,0.7301 -0.5659,0.978 -0.2725,0.2287 -0.6173,0.3531 -0.973,0.3512 -0.3557,-0.0018 -0.6992,-0.13 -0.9693,-0.3615 -0.2973,-0.2503 -0.4953,-0.5988 -0.558,-0.9824 -0.0627,-0.3836 0.014,-0.7769 0.2161,-1.1089 0.4075,-0.7198 0.8484,-1.4216 1.3188,-2.2057 z m -4.61593,7.688 c 0.49363,0.8355 0.96793,1.5746 1.37663,2.3484 0.173,0.3302 0.224,0.7109 0.1441,1.0751 -0.08,0.3641 -0.2857,0.6885 -0.5811,0.9159 -0.2714,0.217 -0.6096,0.3333 -0.95703,0.3293 -0.34745,-0.0039 -0.68283,-0.128 -0.94921,-0.3511 -0.29106,-0.2342 -0.49028,-0.5634 -0.56268,-0.9299 -0.07241,-0.3665 -0.01335,-0.7468 0.16678,-1.074 0.40747,-0.7584 0.87021,-1.4872 1.36251,-2.3137 z"
       id="path6"
       inkscape:connector-curvature="0"
       style="fill:#1e90ff"
       sodipodi:nodetypes="ccccccsccccscccsccccccccccc" />
  </g>
  <defs
     id="defs15">
    <clipPath
       id="a">
      <path
         d="M 0.699219,0.12207 H 46.872917 V 46.300972 H 0.699219 Z"
         id="path12"
         inkscape:connector-curvature="0"
         style="fill:#ffffff" />
    </clipPath>
  </defs>
</svg>
