<?xml version="1.0" encoding="UTF-8" standalone="no"?>
<svg
   xmlns:dc="http://purl.org/dc/elements/1.1/"
   xmlns:cc="http://creativecommons.org/ns#"
   xmlns:rdf="http://www.w3.org/1999/02/22-rdf-syntax-ns#"
   xmlns:svg="http://www.w3.org/2000/svg"
   xmlns="http://www.w3.org/2000/svg"
   xmlns:sodipodi="http://sodipodi.sourceforge.net/DTD/sodipodi-0.dtd"
   xmlns:inkscape="http://www.inkscape.org/namespaces/inkscape"
   viewBox="0 0 22 13"
   version="1.1"
   id="svg10"
   sodipodi:docname="rain-high-label.svg"
   width="22"
   height="13"
   style="fill:none"
   inkscape:version="0.92.4 (5da689c313, 2019-01-14)">
  <metadata
     id="metadata16">
    <rdf:RDF>
      <cc:Work
         rdf:about="">
        <dc:format>image/svg+xml</dc:format>
        <dc:type
           rdf:resource="http://purl.org/dc/dcmitype/StillImage" />
        <dc:title></dc:title>
      </cc:Work>
    </rdf:RDF>
  </metadata>
  <defs
     id="defs14" />
  <sodipodi:namedview
     pagecolor="#ffffff"
     bordercolor="#666666"
     borderopacity="1"
     objecttolerance="10"
     gridtolerance="10"
     guidetolerance="10"
     inkscape:pageopacity="0"
     inkscape:pageshadow="2"
     inkscape:window-width="1920"
     inkscape:window-height="1009"
     id="namedview12"
     showgrid="false"
     fit-margin-top="0"
     fit-margin-left="0"
     fit-margin-right="0"
     fit-margin-bottom="0"
     inkscape:zoom="5.3636364"
     inkscape:cx="-37.415378"
     inkscape:cy="-10.539441"
     inkscape:window-x="-8"
     inkscape:window-y="-8"
     inkscape:window-maximized="1"
     inkscape:current-layer="svg10" />
  <path
     style="fill:#1e90ff"
     inkscape:connector-curvature="0"
     d="m 1.7606874,0.31740021 c 0.49487,0.83809999 0.96918,1.57589999 1.37665,2.34969999 0.1727,0.3306 0.2233,0.7115 0.1429,1.0756 -0.08041,0.3642 -0.28667,0.6884 -0.58251,0.9155 -0.27137,0.2167 -0.60937,0.3328 -0.9566,0.3285 -0.34723,-0.0042 -0.68231,-0.1284 -0.94834,-0.3516 -0.28948,-0.2345 -0.48753,-0.5631 -0.55964,-0.9286 -0.07211,-0.3655 -0.01371,-0.7446 0.16502,-1.0715 0.40747,-0.7584 0.87021,-1.4872 1.36252,-2.31759999 z m 9.2329496,0.0118 c 0.4756,0.79179999 0.9178,1.49489999 1.324,2.21849999 0.1995,0.3337 0.2731,0.7277 0.2073,1.1108 -0.0658,0.3831 -0.2665,0.7301 -0.5659,0.978 -0.2725,0.2287 -0.6173,0.3531 -0.973,0.3512 -0.3557,-0.0018 -0.6992,-0.13 -0.9693,-0.3615 -0.2972995,-0.2503 -0.4952995,-0.5988 -0.5579995,-0.9824 -0.0627,-0.3836 0.014,-0.7769 0.2161,-1.1089 0.4074995,-0.7198 0.8483995,-1.4216 1.3187995,-2.20569999 z m 9.2332,-0.0152 c 0.5039,0.85869999 1.0013,1.61959999 1.4139,2.42559999 0.3445,0.6799 0.0926,1.491 -0.4948,1.937 -0.2626,0.2014 -0.5843,0.3106 -0.9152,0.3106 -0.331,0 -0.6526,-0.1092 -0.9152,-0.3106 -0.5849,-0.4408 -0.8381,-1.2584 -0.4936,-1.9383 0.4023,-0.8047 0.8998,-1.5656 1.4049,-2.42429999 z M 6.3777074,8.0172002 c 0.49363,0.8355 0.96793,1.5746 1.37663,2.3483998 0.173,0.3302 0.224,0.7109 0.1441,1.0751 -0.08,0.3641 -0.2857,0.6885 -0.5811,0.9159 -0.2714,0.217 -0.6096,0.3333 -0.95703,0.3293 -0.34745,-0.0039 -0.68283,-0.128 -0.94921,-0.3511 -0.29106,-0.2342 -0.49028,-0.5634 -0.56268,-0.9299 -0.07241,-0.3665 -0.01335,-0.7468 0.16678,-1.074 0.40747,-0.7583998 0.87021,-1.4871998 1.36251,-2.3136998 z m 9.2330296,0 c 0.4807,0.8059 0.9332,1.5206 1.3406,2.2609998 0.1892,0.3301 0.2557,0.7165 0.1877,1.0909 -0.068,0.3744 -0.266,0.7128 -0.5591,0.9554 -0.2716,0.2299 -0.6159,0.3561 -0.9718,0.3561 -0.3558,0 -0.7002,-0.1262 -0.9717,-0.3561 -0.293,-0.2428 -0.4907,-0.5814 -0.5582,-0.9558 -0.0675,-0.3745 -5e-4,-0.7607 0.1893,-1.0905 0.4087,-0.7390998 0.8612,-1.4537998 1.3432,-2.2609998 z"
     id="path6"
     sodipodi:nodetypes="ccccccsccccscccscccccsccccccccccccccscscccc" />
</svg>
