<svg width="681" height="800" viewBox="0 0 681 800" fill="none" xmlns="http://www.w3.org/2000/svg">
<path d="M662.397 339.078C669.191 325.158 673.156 309.725 673.164 293.525C673.164 266.3 662.544 241.369 645.298 222.682C647.386 214.658 648.547 205.852 648.547 196.291C648.553 161.286 631.416 130.28 604.787 111.297C603.5 60.9628 566.855 18.7409 516.82 10.6393L516.583 10.5878L515.891 10.5128L480.617 5.38464L479.334 5.24401L472.053 4.4362H472.086C450.548 1.9862 432.558 -0.0263025 397.898 0.000259963C379.755 0.000259963 357.786 0.51276 328.722 1.56432C293.544 2.87057 253.098 6.81901 215.267 13.4456C177.397 20.0971 142.316 29.2503 117.033 41.8362C56.1609 72.1893 16.0031 131.817 3.85312 207.453C1.26406 223.45 0 239.563 0 255.533C0.071875 326.902 24.9313 395.975 69.9531 441.133C90.0391 461.205 108.931 477.56 126.941 493.146H126.928C149.744 512.911 170.77 531.202 189.112 552.774C223.322 592.996 249.336 628.461 267.017 655.725C275.861 669.338 282.617 680.911 287.217 689.846C289.519 694.319 291.281 698.125 292.48 701.099C293.684 704.046 294.294 706.264 294.37 706.892L296.292 718.505L294.377 706.892C298.817 733.708 310.828 756.855 328.061 773.467C345.255 790.066 367.886 800.011 392.444 800C413.53 800.013 433.352 792.669 449.541 779.722C465.756 766.791 478.439 748.397 486.2 726.235V726.247C494.302 703.163 497.364 680.975 497.358 660.544C497.352 617.989 484.192 582.944 476.311 561.719L476.483 562.18L474.317 556.283L474.112 555.746L474.323 556.322C468.991 541.852 460.314 529.88 451.898 518.036L451.905 518.063C448.995 513.961 444.644 507.835 441.087 502.117C440.567 501.285 440.119 500.502 439.652 499.708C443.747 498.964 449.38 498.247 457.109 497.889H575.852C633.794 497.863 680.853 450.797 680.88 392.836C680.88 372.507 673.58 354.049 662.397 339.078ZM575.852 448.527H455.93C433.416 449.489 409.127 453.333 396.764 466.613C363.464 502.322 418.092 546.247 427.987 573.306C437.825 600.313 459.987 651.928 439.652 709.891C429.891 737.68 411.03 750.652 392.452 750.652C370.334 750.652 348.616 732.297 343.066 698.842C337.431 664.722 282.65 586.599 226.706 520.792C190.497 478.186 149.378 450.769 104.856 406.242C25.9969 327.388 26.0719 142.507 139.092 85.9815C179.467 65.7799 264.372 53.3471 330.548 50.9128C359.747 49.8096 381.12 49.3487 397.898 49.3487C433.655 49.3487 448.534 51.4768 473.895 54.2706L508.887 59.3471C535.356 63.6534 555.569 86.4175 555.569 114.078C555.569 119.128 554.806 123.974 553.48 128.588H543.58C536.637 128.588 531.044 134.175 531.044 141.097C531.044 148.017 536.637 153.633 543.58 153.633H578.77C591.159 163.758 599.195 179.013 599.195 196.289C599.195 207.121 597.014 217.157 589.427 225.667H566.592C559.67 225.667 554.077 231.283 554.077 238.203C554.077 245.125 559.67 250.713 566.592 250.713H603.173C615.689 260.864 623.809 276.169 623.809 293.525C623.809 309.803 616.748 324.313 605.591 334.413H578.289C571.373 334.413 565.759 340.053 565.759 346.974C565.759 353.883 571.373 359.485 578.289 359.485H614.248C624.105 367.866 631.539 379.685 631.539 392.836C631.539 423.597 606.639 448.527 575.852 448.527Z" fill="black"/>
</svg>
