<svg width="70" height="72" viewBox="0 0 70 72" fill="none" xmlns="http://www.w3.org/2000/svg">
    <path
        d="M34.8187 7.19922C32.6508 7.19922 31.8266 8.98403 31.9944 12.4417C32.1058 14.7211 32.8521 21.0757 29.7245 24.2958C26.8075 27.2977 25.9591 27.031 22.6353 30.9073C19.3129 34.7822 16.5436 33.9851 12.6669 33.6425C7.7967 33.2129 9.45587 61.0238 12.8883 60.5417C15.3248 60.1991 20.8634 59.5153 21.7494 59.5153C22.6353 59.5153 28.7109 64.3586 34.0442 64.4166C42.6824 64.5092 47.4464 62.9343 47.4464 62.9343L49.9782 57.0246L50.8253 39.0052L46.7807 30.3368C46.7807 30.3368 41.3535 31.2485 39.803 28.7412C38.2526 26.234 41.0218 23.1561 41.0218 15.9754C41.0218 8.79477 35.9262 7.19922 34.8187 7.19922Z"
        fill="url(#paint0_linear_1008_3173)" />
    <path
        d="M47.7485 62.8815L47.4197 61.6478C46.4464 61.5414 45.194 61.9974 43.4838 61.9835C35.3155 61.9186 27.5068 59.5053 24.1562 56.7756C21.9615 54.988 20.999 52.6092 19.4486 53.293C17.5356 54.1371 12.1084 55.4494 10.1123 52.8496C10.6707 57.2978 11.6667 60.7126 12.8883 60.5414C15.3248 60.1987 20.8634 59.5149 21.7494 59.5149C22.6353 59.5149 28.5418 64.2311 34.0442 64.4162C41.1628 64.6552 47.4854 63.3939 47.4854 63.3939L47.7485 62.8815Z"
        fill="url(#paint1_linear_1008_3173)" />
    <path
        d="M16.1263 35.3984C19.3386 36.3101 21.379 34.8016 23.0208 32.7488C24.6518 30.7098 26.0666 28.9015 30.1649 26.1663C34.2631 23.431 33.7369 15.9078 33.4041 13.4005C33.0711 10.8932 33.2926 7.19922 34.8189 7.19922C32.6509 7.19922 31.8268 8.98403 31.9945 12.4417C32.106 14.7211 32.8523 21.0757 29.7246 24.2958C26.8076 27.2977 25.9592 27.031 22.6355 30.9073C19.3131 34.7822 16.5438 33.9851 12.667 33.6426C12.6684 34.5074 12.914 34.4866 16.1263 35.3984Z"
        fill="url(#paint2_linear_1008_3173)" />
    <path
        d="M39.803 28.7413C38.2526 26.2339 41.0219 23.1561 41.0219 15.9754C41.0219 8.79477 35.9275 7.19922 34.8187 7.19922C34.5274 7.19922 34.2684 7.23237 34.0361 7.29591C38.5546 7.5874 41.2756 13.4515 39.7185 19.4981C38.4552 24.4049 37.8257 28.3392 39.8889 30.6462C41.2232 32.1396 43.8771 31.8853 46.782 30.3368C46.782 30.3368 41.3535 31.2485 39.803 28.7413Z"
        fill="url(#paint3_linear_1008_3173)" />
    <path
        d="M40.1074 31.3008C37.4495 32.2126 30.7362 34.3579 25.6513 39.1032C12.7645 51.1284 34.766 52.6356 39.31 62.9203C40.1785 64.8861 45.2554 52.6107 45.2554 52.6107L46.8971 49.7677L42.1531 36.7671L40.1074 31.3008Z"
        fill="url(#paint4_linear_1008_3173)" />
    <path
        d="M40.4983 32.3418C37.8404 33.2536 26.9819 40.4122 26.9819 43.9472C26.9819 54.1491 34.5019 49.1138 38.5667 61.1516C39.1291 62.819 41.1172 64.2211 41.1172 64.2211C42.7643 62.8383 45.2571 52.6102 45.2571 52.6102L46.8988 49.7672L42.1549 36.7666L40.4983 32.3418Z"
        fill="url(#paint5_linear_1008_3173)" />
    <path
        d="M46.6328 63.6104L51.7204 57.6247L52.8413 32.6195L40.1062 31.2988C37.1825 32.9178 36.8442 35.1323 37.9302 38.6881C38.3867 40.1842 36.5301 40.6124 36.4107 44.9708C36.3274 47.992 38.2497 48.0058 38.2497 48.9037C38.2497 49.8017 37.2926 49.7216 36.9744 52.3228C36.5207 56.0444 39.5491 56.1162 39.5491 56.9119C39.5491 57.7076 37.8671 58.18 37.9705 61.2137C38.102 65.061 31.1593 64.2832 26.465 60.7827C24.5373 59.3446 22.8553 59.1968 21.5425 59.5228C21.6244 59.5187 21.6942 59.5159 21.7465 59.5159C22.6325 59.5159 28.5833 64.4172 34.0413 64.4172C40.4244 64.4172 44.8381 64.0332 46.6328 63.6104Z"
        fill="url(#paint6_linear_1008_3173)" />
    <path
        d="M47.8032 32.9492C43.8714 32.9492 41.7116 36.9028 43.2069 39.9406C44.7023 42.9784 40.4377 46.9997 40.8806 48.9793C41.3236 50.9589 42.0995 55.9693 42.7076 56.7982C43.317 57.627 41.7102 59.5071 41.7102 59.5071L46.6944 60.1343L51.3458 58.0235L51.1793 43.5503L51.6773 34.4881L47.8032 32.9492Z"
        fill="url(#paint7_linear_1008_3173)" />
    <path
        d="M22.6353 30.9075C20.4767 33.4244 18.5517 33.9701 16.4053 33.9494C17.0242 34.9772 17.455 36.1003 17.4107 37.1986C17.2939 40.0775 17.9101 43.6264 18.3813 39.9352C18.7397 37.1239 20.5921 33.6496 22.8205 30.6934C22.7601 30.7638 22.6997 30.8329 22.6353 30.9075Z"
        fill="url(#paint8_linear_1008_3173)" />
    <path
        d="M50.782 30.2235C46.1334 30.0412 37.7758 29.7704 37.5891 34.7823C37.4549 38.4168 39.9598 39.609 43.8339 39.7609C47.708 39.9129 49.645 39.9889 51.2492 40.0511C52.8533 40.1132 57.9007 40.0829 57.9504 35.694C58.0121 30.2111 50.782 30.2235 50.782 30.2235Z"
        fill="url(#paint9_linear_1008_3173)" />
    <path
        d="M43.1363 48.3409C41.8905 48.3035 38.1895 49.2637 37.8432 51.6826C37.5707 53.5848 38.5144 56.0424 41.7348 56.6226C45.8143 57.3575 52.6121 57.7429 55.1519 56.7649C56.2861 56.3283 57.2755 55.1057 57.3278 53.2533C57.3802 51.4007 56.0432 48.9045 53.1369 48.8174C50.2307 48.7318 48.7165 48.7774 47.06 48.5757C45.0679 48.3353 44.1323 48.3712 43.1363 48.3409Z"
        fill="url(#paint10_linear_1008_3173)" />
    <path
        d="M41.838 56.7949C40.4258 56.7949 38.6807 58.077 38.6807 60.214C38.6807 62.3511 39.2204 63.9328 42.2528 64.531C45.2852 65.1292 50.1446 64.6166 51.9716 64.0185C53.3958 63.5516 53.9234 62.1812 53.9234 59.9157C53.9234 57.6501 52.5541 57.2536 51.0588 57.2536C49.5634 57.2536 47.7485 57.534 46.7121 57.4787C43.818 57.3213 43.2502 56.7949 41.838 56.7949Z"
        fill="url(#paint11_linear_1008_3173)" />
    <path
        d="M50.3863 31.2355C46.327 31.0765 39.0285 30.8348 38.8821 34.7968C38.7761 37.6701 40.9669 38.6205 44.3496 38.7532C47.7324 38.8857 56.6324 39.0529 56.6619 35.5842C56.6982 31.2492 50.3863 31.2355 50.3863 31.2355Z"
        fill="url(#paint12_linear_1008_3173)" />
    <path
        d="M43.5104 49.3637C42.4257 49.3319 39.3893 49.5971 39.098 51.9082C38.9006 53.4721 39.6887 55.4807 42.4929 55.96C46.0461 56.5679 51.9633 56.8939 54.1742 56.0968C55.1608 55.7403 56.0213 54.7416 56.063 53.2234C56.1059 51.7052 54.7461 49.8443 52.2171 49.7684C49.688 49.6924 48.3416 49.9342 46.8986 49.7657C45.1642 49.5653 44.3775 49.3885 43.5104 49.3637Z"
        fill="url(#paint13_linear_1008_3173)" />
    <path
        d="M42.4423 57.5762C41.2207 57.5762 39.7119 58.608 39.7119 60.3294C39.7119 62.0506 40.1791 63.3243 42.8021 63.805C45.4251 64.2858 49.628 63.8741 51.2093 63.392C52.4403 63.0162 52.8981 61.9125 52.8981 60.0876C52.8981 58.2627 51.7127 57.945 50.4187 57.945C49.1246 57.945 47.5554 58.1715 46.6587 58.126C44.1539 58.0003 43.6625 57.5762 42.4423 57.5762Z"
        fill="url(#paint14_linear_1008_3173)" />
    <path
        d="M41.6971 34.7984C41.7979 32.0687 43.9134 30.7605 46.5861 30.1582C42.32 30.2604 37.7264 31.081 37.5881 34.7819C37.4539 38.4164 39.9588 39.6086 43.8328 39.7605C44.2598 39.7771 44.6611 39.7937 45.0424 39.8075C42.8677 39.1527 41.5911 37.6759 41.6971 34.7984Z"
        fill="url(#paint15_linear_1008_3173)" />
    <path
        d="M42.0619 30.6523C39.5798 31.2104 37.6763 32.4178 37.5891 34.7815C37.4777 37.8027 39.1919 39.1357 41.9987 39.5875C36.3045 37.2487 38.3476 31.4881 42.0619 30.6523Z"
        fill="url(#paint16_linear_1008_3173)" />
    <path
        d="M35.4524 59.3695C34.796 60.9208 31.6722 61.0189 28.4747 59.5864C25.2772 58.1552 23.218 55.7364 23.8744 54.1837C24.5308 52.6323 27.6545 52.5342 30.8521 53.9668C34.0483 55.3993 36.1088 57.8181 35.4524 59.3695Z"
        fill="url(#paint17_radial_1008_3173)" />
    <path
        d="M54.2643 35.5324C54.2321 37.6295 51.5071 38.6241 48.5256 38.8105C46.0879 38.9625 43.3817 37.1874 43.4515 35.1387C43.5213 33.0901 43.8757 31.2748 48.9418 31.4558C51.9273 31.5622 54.2952 33.4837 54.2643 35.5324Z"
        fill="url(#paint18_radial_1008_3173)" />
    <path
        d="M54.8053 53.9647C54.7879 56.8684 51.6856 56.3117 48.7042 56.5134C44.9241 56.7703 42.4178 55.5589 42.4165 53.5087C42.4138 51.4587 43.8515 49.9654 48.9217 49.9571C51.9084 49.9529 54.8268 50.2348 54.8053 53.9647Z"
        fill="url(#paint19_radial_1008_3173)" />
    <path
        d="M52.0724 61.2875C52.0576 63.763 49.2386 64.1 46.5673 64.1015C43.8959 64.1042 40.9964 62.6468 40.9951 60.8993C40.9937 59.1518 42.2784 57.8781 46.8116 57.8711C49.4816 57.867 52.0912 58.1074 52.0724 61.2875Z"
        fill="url(#paint20_radial_1008_3173)" />
    <path
        d="M41.3094 52.2714C41.7336 48.9656 44.1982 49.159 47.024 48.8164C43.7713 48.5664 42.4061 48.5305 42.4061 48.5305C42.1028 48.5001 41.7631 48.4987 41.4101 48.536C40.3537 48.775 39.1562 49.2696 38.4448 50.1979C38.2032 50.5515 38.0072 50.9687 37.8783 51.4632C37.8649 51.5351 37.8514 51.6083 37.8434 51.6829C37.6139 53.5921 38.5146 56.0427 41.7349 56.6229C42.1994 56.7072 42.7001 56.7859 43.225 56.8592C43.476 56.8923 43.7499 56.9268 44.0438 56.9655C44.1231 56.9752 44.2023 56.9849 44.2828 56.9945C42.5055 56.1312 40.9966 54.7013 41.3094 52.2714Z"
        fill="url(#paint21_linear_1008_3173)" />
    <path
        d="M42.0958 48.5102C41.877 48.5032 41.6447 48.5115 41.4072 48.5364C40.3413 48.7781 39.1332 49.2796 38.4258 50.2231C38.1922 50.5713 38.0042 50.9829 37.878 51.465C37.8646 51.5369 37.8552 51.6087 37.8431 51.6833C37.5169 53.5634 38.4218 55.7793 41.2353 56.5128C36.435 53.7886 38.4834 48.5129 42.0958 48.5102Z"
        fill="url(#paint22_linear_1008_3173)" />
    <path
        d="M44.8906 57.3005C43.4717 57.0863 42.8891 56.7949 41.8394 56.7949C40.4272 56.7949 38.6821 58.0769 38.6821 60.2139C38.6821 60.9903 38.7547 61.6921 38.9895 62.3013C39.2285 62.8041 39.5762 63.2752 40.0527 63.6731C40.5762 64.0488 41.2877 64.3403 42.2528 64.5309C42.9012 64.6594 43.6342 64.7354 44.402 64.7727C42.92 63.8872 40.4098 63.4106 40.936 60.446C41.5172 57.172 43.4167 57.6141 44.8906 57.3005Z"
        fill="url(#paint23_linear_1008_3173)" />
    <path
        d="M41.7763 56.7969C40.3762 56.8341 38.6821 58.1093 38.6821 60.2145C38.6821 62.172 39.1372 63.664 41.5455 64.3602C37.7841 61.8736 38.9909 57.6782 41.7763 56.7969Z"
        fill="url(#paint24_linear_1008_3173)" />
    <path
        d="M57.9507 35.6951C57.9561 35.2033 57.9024 34.7571 57.8016 34.3496C58.1761 36.0626 56.6929 37.7646 52.761 38.5906C50.1555 39.1377 43.2355 39.8215 38.4473 37.8654C39.4809 39.1501 41.3831 39.664 43.8342 39.7607C47.7084 39.9127 49.6453 39.9887 51.2496 40.0508C52.8537 40.1157 57.8997 40.084 57.9507 35.6951Z"
        fill="url(#paint25_linear_1008_3173)" />
    <path
        d="M57.3275 53.1381C57.3221 51.2981 55.981 48.904 53.1352 48.8198C50.229 48.7341 48.7148 48.7797 47.0583 48.578C45.0675 48.3363 44.1319 48.3722 43.1359 48.3432C42.3828 48.3211 40.525 48.5545 39.2617 49.3626C40.682 49.8697 42.9962 50.6322 46.2529 50.4181C54.0561 49.9015 56.2764 50.8726 57.3275 53.1381Z"
        fill="url(#paint26_linear_1008_3173)" />
    <path
        d="M41.4621 40.0507C39.8016 40.0161 37.1638 41.0218 37.0954 44.5706C37.0269 48.1182 40.0432 48.9636 41.3721 48.9913C42.7012 49.0189 47.3471 49.3449 53.0777 49.4623C58.8083 49.5797 59.5761 46.4148 59.6083 44.7571C59.6405 43.0981 58.619 40.099 55.1718 40.0272C45.2046 39.8213 41.4621 40.0507 41.4621 40.0507Z"
        fill="url(#paint27_linear_1008_3173)" />
    <path
        d="M42.3536 41.0793C40.9092 41.0503 38.6191 41.8212 38.5667 44.5577C38.5131 47.2957 41.1374 47.9533 42.2919 47.9768C43.4477 48.0003 47.4868 48.2614 52.4684 48.3636C57.4499 48.4658 58.1118 46.0263 58.1359 44.7457C58.1614 43.4664 57.9896 41.1511 54.9921 41.0889C46.3297 40.9122 42.3536 41.0793 42.3536 41.0793Z"
        fill="url(#paint28_linear_1008_3173)" />
    <path
        d="M40.6593 44.2277C40.8258 40.5849 43.2971 40.5739 46.0866 39.9453C42.8246 39.966 41.4621 40.0489 41.4621 40.0489C39.8016 40.0143 37.1638 41.0201 37.0954 44.569C37.0269 48.1164 40.0432 48.9619 41.3721 48.9895C41.8514 48.9992 42.7628 49.0476 43.9978 49.1111C42.1561 48.3306 40.5372 46.9077 40.6593 44.2277Z"
        fill="url(#paint29_linear_1008_3173)" />
    <path
        d="M56.69 44.6058C56.8054 47.5068 53.6737 48.0525 50.6896 48.1989C47.7055 48.3453 44.3884 46.794 44.2932 44.7467C44.1978 42.6995 45.5657 41.1385 50.6291 40.8857C53.6132 40.7378 56.5423 40.8788 56.69 44.6058Z"
        fill="url(#paint30_radial_1008_3173)" />
    <path
        d="M41.1521 40.0566C39.4929 40.1478 37.1599 41.2364 37.0954 44.5698C37.0297 47.9432 39.752 48.8729 41.1628 48.9793C35.7034 46.7124 37.4928 40.391 41.1521 40.0566Z"
        fill="url(#paint31_linear_1008_3173)" />
    <path
        d="M59.5991 44.3984C58.8796 49.6478 45.3928 48.6863 38.105 47.5591C39.089 48.6435 40.5522 48.9722 41.3723 48.9902C42.7013 49.0179 47.3473 49.3438 53.0779 49.4613C58.8084 49.5787 59.5763 46.4139 59.6085 44.7562C59.6099 44.6429 59.6071 44.5227 59.5991 44.3984Z"
        fill="url(#paint32_linear_1008_3173)" />
    <path
        d="M52.8428 56.0877C50.2305 56.2066 43.3186 57.0907 38.2793 54.3126C38.8417 55.3873 39.9304 56.3005 41.7333 56.6251C45.8127 57.36 52.6105 57.7455 55.1503 56.7674C56.2846 56.3309 57.274 55.1083 57.3263 53.2559C57.1585 54.8666 55.6671 55.9593 52.8428 56.0877Z"
        fill="url(#paint33_linear_1008_3173)" />
    <path
        d="M53.7235 61.9199C52.012 63.2598 49.0533 64.0515 44.7846 63.3096C42.1482 62.851 40.3413 62.6949 39.1533 62.6617C39.6285 63.5459 40.5454 64.1951 42.2528 64.5322C45.2853 65.1303 50.1447 64.6179 51.9716 64.0196C52.91 63.7102 53.4576 63.0085 53.7235 61.9199Z"
        fill="url(#paint34_linear_1008_3173)" />
    <path
        d="M39.2417 58.2911C42.4043 57.1058 43.9548 58.8644 47.3389 58.8644C50.8533 58.8644 52.5286 57.4042 53.7769 58.7926C53.385 57.5119 52.2627 57.2536 51.0587 57.2536C49.5632 57.2536 47.7484 57.534 46.7107 57.4787C43.8165 57.3227 43.2501 56.7949 41.8378 56.7949C40.9237 56.7949 39.8713 57.3323 39.2417 58.2911Z"
        fill="url(#paint35_linear_1008_3173)" />
    <path
        d="M12.8897 60.5432C15.326 60.2006 20.8647 59.5169 21.7506 59.5169C13.7178 53.6084 17.2899 41.0416 20.2525 34.6857C20.6687 33.7932 20.925 33.0611 21.0634 32.4395C18.3907 34.5365 15.918 33.9314 12.6668 33.644C7.79664 33.2144 9.45711 61.0253 12.8897 60.5432Z"
        fill="url(#paint36_linear_1008_3173)" />
    <path
        d="M17.9543 54.8324C17.1234 53.6928 17.8429 56.1434 18.5087 57.9103C19.0739 59.4133 14.7394 58.525 11.4224 58.8939C11.8559 59.9948 12.3513 60.6179 12.8896 60.5419C15.326 60.1993 20.8647 59.5155 21.7506 59.5155C20.5008 58.4228 18.7839 55.9721 17.9543 54.8324Z"
        fill="url(#paint37_linear_1008_3173)" />
    <path
        d="M21.749 59.5185C21.0604 58.9149 20.2295 57.8982 19.4817 56.916C19.4817 56.916 15.4493 59.0392 11.1255 58.0405C11.6235 59.665 12.2222 60.6375 12.888 60.5436C15.3258 60.2024 20.8631 59.5185 21.749 59.5185Z"
        fill="url(#paint38_linear_1008_3173)" />
    <path
        d="M37.0246 17.9005C35.4459 18.2514 34.1666 16.008 33.4444 13.3902C32.8538 11.249 33.6565 8.52202 35.2069 8.21533C36.7574 7.90728 38.1884 7.89346 39.0435 12.4315C39.5455 15.1045 38.5682 17.5579 37.0246 17.9005Z"
        fill="url(#paint39_radial_1008_3173)" />
    <path
        d="M41.776 56.7974C40.9075 56.8914 40.1209 57.3707 39.5799 58.0297C39.0308 58.6942 38.7744 59.5617 38.8309 60.4334C38.8362 61.3106 38.9651 62.2071 39.4484 62.9172C39.9276 63.6342 40.733 64.0611 41.5451 64.3609C40.7075 64.166 39.8309 63.8096 39.2698 63.054C38.7006 62.3066 38.5691 61.3327 38.5409 60.4389C38.5033 59.5244 38.7865 58.5519 39.4135 57.8777C40.0215 57.1967 40.8995 56.7795 41.776 56.7974Z"
        fill="#804B24" />
    <path
        d="M40.383 48.8457C39.8111 49.1013 39.2836 49.4508 38.8473 49.8859C38.403 50.3156 38.1668 50.9041 38.0044 51.5009L38.0057 51.4912C37.7963 52.5797 37.9735 53.7387 38.595 54.6436C39.2017 55.5609 40.187 56.1605 41.2341 56.5113C40.1562 56.2972 39.0702 55.7571 38.3882 54.7942C38.0513 54.3203 37.8177 53.7664 37.7049 53.1876C37.5908 52.6088 37.6432 52.0037 37.7479 51.4387L37.7506 51.429C37.9211 50.8019 38.2245 50.1733 38.7252 49.7492C39.2044 49.3113 39.7923 49.0419 40.383 48.8457Z"
        fill="#804B24" />
    <path
        d="M41.1519 40.0547C40.125 40.1748 39.1316 40.6141 38.4243 41.3532C37.7141 42.0923 37.3302 43.1104 37.2685 44.1478C37.165 45.1811 37.3275 46.26 37.9021 47.1179C38.4685 47.9785 39.3947 48.5559 40.3854 48.8543C39.3706 48.6637 38.3611 48.1484 37.7194 47.2519C37.0644 46.3622 36.8913 45.1977 36.9785 44.123C37.0644 43.0427 37.4765 41.9403 38.2685 41.1902C39.0524 40.4318 40.1169 40.0658 41.1519 40.0547Z"
        fill="#804B24" />
    <path
        d="M42.0623 30.6523C40.9643 30.9618 39.8729 31.3886 39.0071 32.1222C38.1346 32.8516 37.6621 33.9775 37.7346 35.1309C37.7198 36.2762 38.0835 37.4448 38.9292 38.2033C39.7628 38.9713 40.8878 39.3444 41.998 39.5875C40.8717 39.4507 39.6998 39.1606 38.7829 38.376C37.8446 37.6023 37.4459 36.3204 37.4446 35.1337C37.3842 33.9277 37.9118 32.6651 38.8675 31.944C39.8045 31.2049 40.9415 30.8568 42.0623 30.6523Z"
        fill="#804B24" />
    <path
        d="M38.2808 54.3105C39.0365 55.6574 40.4889 56.3551 41.9239 56.554C43.3845 56.7861 44.8557 56.9449 46.3309 57.0416C47.8036 57.1701 49.2815 57.2502 50.7595 57.2447C51.4977 57.235 52.2374 57.2157 52.9717 57.141C53.706 57.0803 54.4469 57.0029 55.153 56.7639C53.7557 57.3041 52.2401 57.3897 50.7635 57.4436C49.2788 57.4823 47.7928 57.4395 46.3108 57.34C44.8315 57.2087 43.3563 57.0168 41.893 56.7502C41.1574 56.6258 40.4245 56.391 39.7802 55.9876C39.1385 55.5801 38.6123 54.993 38.2808 54.3105Z"
        fill="#804B24" />
    <path
        d="M38.105 47.5586C38.6715 48.1387 39.4004 48.5214 40.1615 48.7163C40.9186 48.9497 41.7147 48.8986 42.5147 48.9359L47.2922 49.0782L52.0671 49.3199C53.6511 49.4193 55.2633 49.4415 56.7815 48.9069C55.3022 49.5561 53.6403 49.6086 52.0631 49.5188L47.2856 49.3766L42.5107 49.1334C41.7254 49.0782 40.8998 49.1169 40.1226 48.8558C39.3547 48.6084 38.6366 48.1733 38.105 47.5586Z"
        fill="#804B24" />
    <path
        d="M55.1716 40.0261C54.0293 40.0289 52.8856 40.062 51.7432 40.0511L48.3161 40.0579L44.8903 40.1063C43.7493 40.1132 42.6056 40.1201 41.4686 40.1671H41.4593C40.3357 40.1477 39.1719 40.5428 38.3624 41.3703C37.5368 42.1895 37.1475 43.3817 37.0952 44.5697C37.1046 43.9743 37.1664 43.3733 37.3435 42.7973C37.5234 42.2227 37.8308 41.6853 38.2483 41.2528C39.0806 40.3729 40.2807 39.9364 41.4646 39.9336H41.4553C43.744 39.7913 46.03 39.79 48.3161 39.8272C50.6036 39.8535 52.8883 39.8977 55.1716 40.0261Z"
        fill="#804B24" />
    <defs>
        <linearGradient id="paint0_linear_1008_3173" x1="46.9606" y1="35.3339" x2="30.297" y2="35.984"
            gradientUnits="userSpaceOnUse">
            <stop offset="0.00132565" stop-color="#FFCB4B" />
            <stop offset="1" stop-color="#FFD748" />
        </linearGradient>
        <linearGradient id="paint1_linear_1008_3173" x1="28.976" y1="59.0983" x2="28.6216" y2="50.0868"
            gradientUnits="userSpaceOnUse">
            <stop offset="0.00132565" stop-color="#FFCB4B" />
            <stop offset="1" stop-color="#FFD748" />
        </linearGradient>
        <linearGradient id="paint2_linear_1008_3173" x1="26.8402" y1="25.1716" x2="39.8715" y2="43.2855"
            gradientUnits="userSpaceOnUse">
            <stop offset="0.00132565" stop-color="#FFCB4B" />
            <stop offset="1" stop-color="#FFD748" />
        </linearGradient>
        <linearGradient id="paint3_linear_1008_3173" x1="17.7566" y1="17.8172" x2="49.9143" y2="20.1588"
            gradientUnits="userSpaceOnUse">
            <stop offset="0.3118" stop-color="#FFBC47" stop-opacity="0" />
            <stop offset="1" stop-color="#FF8900" />
        </linearGradient>
        <linearGradient id="paint4_linear_1008_3173" x1="17.1441" y1="47.2176" x2="59.3597" y2="47.2176"
            gradientUnits="userSpaceOnUse">
            <stop stop-color="#FFBC47" stop-opacity="0" />
            <stop offset="1" stop-color="#FFA754" />
        </linearGradient>
        <linearGradient id="paint5_linear_1008_3173" x1="10.3374" y1="47.2824" x2="93.7435" y2="49.8656"
            gradientUnits="userSpaceOnUse">
            <stop stop-color="#FFBC47" stop-opacity="0" />
            <stop offset="1" stop-color="#C86F34" />
        </linearGradient>
        <linearGradient id="paint6_linear_1008_3173" x1="23.589" y1="58.4926" x2="37.5553" y2="51.1346"
            gradientUnits="userSpaceOnUse">
            <stop stop-color="#FFBC47" stop-opacity="0" />
            <stop offset="1" stop-color="#C86F34" />
        </linearGradient>
        <linearGradient id="paint7_linear_1008_3173" x1="39.3889" y1="47.5786" x2="50.9008" y2="46.1088"
            gradientUnits="userSpaceOnUse">
            <stop stop-color="#643800" stop-opacity="0" />
            <stop offset="1" stop-color="#643800" />
        </linearGradient>
        <linearGradient id="paint8_linear_1008_3173" x1="18.977" y1="21.4604" x2="21.6156" y2="63.938"
            gradientUnits="userSpaceOnUse">
            <stop stop-color="#FFBC47" stop-opacity="0" />
            <stop offset="1" stop-color="#FFA754" />
        </linearGradient>
        <linearGradient id="paint9_linear_1008_3173" x1="57.1623" y1="35.1045" x2="40.8418" y2="35.1045"
            gradientUnits="userSpaceOnUse">
            <stop offset="0.00132565" stop-color="#FFBC47" />
            <stop offset="1" stop-color="#FFD748" />
        </linearGradient>
        <linearGradient id="paint10_linear_1008_3173" x1="57.1626" y1="52.8457" x2="40.833" y2="52.8457"
            gradientUnits="userSpaceOnUse">
            <stop offset="0.00132565" stop-color="#FFBC47" />
            <stop offset="1" stop-color="#FFD748" />
        </linearGradient>
        <linearGradient id="paint11_linear_1008_3173" x1="57.1625" y1="60.7961" x2="40.8419" y2="60.7961"
            gradientUnits="userSpaceOnUse">
            <stop offset="0.00132565" stop-color="#FFBC47" />
            <stop offset="1" stop-color="#FFD748" />
        </linearGradient>
        <linearGradient id="paint12_linear_1008_3173" x1="38.6417" y1="35.1884" x2="47.1427" y2="35"
            gradientUnits="userSpaceOnUse">
            <stop offset="0.00132565" stop-color="#FFCB4B" />
            <stop offset="1" stop-color="#FFD748" />
        </linearGradient>
        <linearGradient id="paint13_linear_1008_3173" x1="53.5073" y1="52.9651" x2="44.8421" y2="52.9651"
            gradientUnits="userSpaceOnUse">
            <stop offset="0.00132565" stop-color="#FFCB4B" />
            <stop offset="1" stop-color="#FFD748" />
        </linearGradient>
        <linearGradient id="paint14_linear_1008_3173" x1="53.5077" y1="60.7982" x2="44.8425" y2="60.7982"
            gradientUnits="userSpaceOnUse">
            <stop offset="0.00132565" stop-color="#FFCB4B" />
            <stop offset="1" stop-color="#FFD748" />
        </linearGradient>
        <linearGradient id="paint15_linear_1008_3173" x1="42.9301" y1="34.9826" x2="38.3067" y2="34.9826"
            gradientUnits="userSpaceOnUse">
            <stop offset="0.00132565" stop-color="#FBA23B" stop-opacity="0" />
            <stop offset="1" stop-color="#FBA23B" />
        </linearGradient>
        <linearGradient id="paint16_linear_1008_3173" x1="42.099" y1="35.1202" x2="36.782" y2="35.1202"
            gradientUnits="userSpaceOnUse">
            <stop offset="0.00132565" stop-color="#FFBC47" />
            <stop offset="1" stop-color="#E89043" />
        </linearGradient>
        <radialGradient id="paint17_radial_1008_3173" cx="0" cy="0" r="1" gradientUnits="userSpaceOnUse"
            gradientTransform="translate(29.2279 55.5815) rotate(24.1215) scale(6.52072 3.08549)">
            <stop stop-color="#FBE07A" />
            <stop offset="1" stop-color="#FFD748" stop-opacity="0" />
        </radialGradient>
        <radialGradient id="paint18_radial_1008_3173" cx="0" cy="0" r="1" gradientUnits="userSpaceOnUse"
            gradientTransform="translate(48.8658 35.1477) rotate(2.08505) scale(5.55387 3.74906)">
            <stop stop-color="#FBE07A" />
            <stop offset="1" stop-color="#FFD748" />
        </radialGradient>
        <radialGradient id="paint19_radial_1008_3173" cx="0" cy="0" r="1" gradientUnits="userSpaceOnUse"
            gradientTransform="translate(48.5969 53.5538) rotate(-0.0559599) scale(5.96429 3.30707)">
            <stop stop-color="#FBE07A" />
            <stop offset="1" stop-color="#FFD748" stop-opacity="0" />
        </radialGradient>
        <radialGradient id="paint20_radial_1008_3173" cx="0" cy="0" r="1" gradientUnits="userSpaceOnUse"
            gradientTransform="translate(46.5336 60.9903) rotate(-0.0555018) scale(5.4608 3.51542)">
            <stop stop-color="#FBE07A" />
            <stop offset="1" stop-color="#FFD748" stop-opacity="0" />
        </radialGradient>
        <linearGradient id="paint21_linear_1008_3173" x1="43.4841" y1="52.7508" x2="36.7832" y2="52.7508"
            gradientUnits="userSpaceOnUse">
            <stop offset="0.00132565" stop-color="#FBA23B" stop-opacity="0" />
            <stop offset="1" stop-color="#FBA23B" />
        </linearGradient>
        <linearGradient id="paint22_linear_1008_3173" x1="42.0597" y1="52.5103" x2="38.4501" y2="52.5103"
            gradientUnits="userSpaceOnUse">
            <stop offset="0.00132565" stop-color="#FFBC47" />
            <stop offset="1" stop-color="#FBA23B" />
        </linearGradient>
        <linearGradient id="paint23_linear_1008_3173" x1="43.2431" y1="60.8426" x2="35.3925" y2="59.4409"
            gradientUnits="userSpaceOnUse">
            <stop offset="0.00132565" stop-color="#FBA23B" stop-opacity="0" />
            <stop offset="1" stop-color="#FBA23B" />
        </linearGradient>
        <linearGradient id="paint24_linear_1008_3173" x1="42.4328" y1="60.5784" x2="39.1204" y2="60.5784"
            gradientUnits="userSpaceOnUse">
            <stop offset="0.00132565" stop-color="#FFBC47" />
            <stop offset="1" stop-color="#FBA23B" />
        </linearGradient>
        <linearGradient id="paint25_linear_1008_3173" x1="47.7129" y1="34.0487" x2="49.9362" y2="44.5097"
            gradientUnits="userSpaceOnUse">
            <stop stop-color="#FFBC47" stop-opacity="0" />
            <stop offset="1" stop-color="#C86F34" />
        </linearGradient>
        <linearGradient id="paint26_linear_1008_3173" x1="49.3128" y1="54.766" x2="46.8913" y2="46.272"
            gradientUnits="userSpaceOnUse">
            <stop stop-color="#FFBC47" stop-opacity="0" />
            <stop offset="1" stop-color="#C86F34" />
        </linearGradient>
        <linearGradient id="paint27_linear_1008_3173" x1="57.1625" y1="44.7026" x2="40.8419" y2="44.7026"
            gradientUnits="userSpaceOnUse">
            <stop offset="0.00132565" stop-color="#FFBC47" />
            <stop offset="1" stop-color="#FFD748" />
        </linearGradient>
        <linearGradient id="paint28_linear_1008_3173" x1="40.1836" y1="44.2335" x2="52.6865" y2="44.6776"
            gradientUnits="userSpaceOnUse">
            <stop offset="0.00132565" stop-color="#FFCB4B" />
            <stop offset="0.7382" stop-color="#FFD748" />
            <stop offset="1" stop-color="#FFCB4B" />
        </linearGradient>
        <linearGradient id="paint29_linear_1008_3173" x1="45.0621" y1="44.5287" x2="35.7217" y2="44.5287"
            gradientUnits="userSpaceOnUse">
            <stop offset="0.00132565" stop-color="#FBA23B" stop-opacity="0" />
            <stop offset="1" stop-color="#FBA23B" />
        </linearGradient>
        <radialGradient id="paint30_radial_1008_3173" cx="0" cy="0" r="1" gradientUnits="userSpaceOnUse"
            gradientTransform="translate(50.4853 44.5487) rotate(-2.81411) scale(6.10746 4.12271)">
            <stop stop-color="#FBE07A" />
            <stop offset="1" stop-color="#FFD748" stop-opacity="0" />
        </radialGradient>
        <linearGradient id="paint31_linear_1008_3173" x1="40.7206" y1="44.5178" x2="37.7715" y2="44.5178"
            gradientUnits="userSpaceOnUse">
            <stop offset="0.00132565" stop-color="#FFBC47" />
            <stop offset="1" stop-color="#FBA23B" />
        </linearGradient>
        <linearGradient id="paint32_linear_1008_3173" x1="48.4875" y1="43.5929" x2="50.3615" y2="55.1739"
            gradientUnits="userSpaceOnUse">
            <stop stop-color="#FFBC47" stop-opacity="0" />
            <stop offset="1" stop-color="#C86F34" />
        </linearGradient>
        <linearGradient id="paint33_linear_1008_3173" x1="47.2579" y1="52.5646" x2="52.0179" y2="62.6052"
            gradientUnits="userSpaceOnUse">
            <stop stop-color="#FFBC47" stop-opacity="0" />
            <stop offset="1" stop-color="#C86F34" />
        </linearGradient>
        <linearGradient id="paint34_linear_1008_3173" x1="46.353" y1="61.4609" x2="47.0563" y2="67.8681"
            gradientUnits="userSpaceOnUse">
            <stop stop-color="#FFBC47" stop-opacity="0" />
            <stop offset="1" stop-color="#C86F34" />
        </linearGradient>
        <linearGradient id="paint35_linear_1008_3173" x1="46.5096" y1="60.4883" x2="46.5096" y2="55.8505"
            gradientUnits="userSpaceOnUse">
            <stop stop-color="#FFBC47" stop-opacity="0" />
            <stop offset="1" stop-color="#C86F34" />
        </linearGradient>
        <linearGradient id="paint36_linear_1008_3173" x1="16.0684" y1="47.6864" x2="1.37702" y2="69.2685"
            gradientUnits="userSpaceOnUse">
            <stop stop-color="#C86F34" stop-opacity="0" />
            <stop offset="1" stop-color="#C86F34" />
        </linearGradient>
        <linearGradient id="paint37_linear_1008_3173" x1="15.1354" y1="52.543" x2="17.5918" y2="63.1986"
            gradientUnits="userSpaceOnUse">
            <stop stop-color="#FFBC47" stop-opacity="0" />
            <stop offset="1" stop-color="#C86F34" />
        </linearGradient>
        <linearGradient id="paint38_linear_1008_3173" x1="16.5451" y1="54.5494" x2="16.1931" y2="67.6279"
            gradientUnits="userSpaceOnUse">
            <stop stop-color="#FFBC47" stop-opacity="0" />
            <stop offset="1" stop-color="#C86F34" />
        </linearGradient>
        <radialGradient id="paint39_radial_1008_3173" cx="0" cy="0" r="1" gradientUnits="userSpaceOnUse"
            gradientTransform="translate(36.2646 13.0291) rotate(79.368) scale(6.01713 3.43853)">
            <stop stop-color="#FBE07A" />
            <stop offset="1" stop-color="#FFD748" stop-opacity="0" />
        </radialGradient>
    </defs>
</svg>