<svg width="70" height="72" viewBox="0 0 70 72" fill="none" xmlns="http://www.w3.org/2000/svg">
    <path
        d="M34.8186 64.8006C32.6507 64.8006 31.8265 63.0158 31.9943 59.5581C32.1057 57.2788 32.8521 50.9242 29.7244 47.7041C26.8074 44.7023 25.959 44.9689 22.6353 41.094C19.3116 37.2191 16.5436 38.0162 12.6669 38.3588C7.79671 38.7884 9.45587 10.9776 12.8883 11.4597C15.3248 11.8023 20.8633 12.4861 21.7494 12.4861C22.6353 12.4861 28.7109 7.64006 34.0428 7.58205C42.6809 7.48949 47.445 9.06435 47.445 9.06435L49.9767 14.9727L50.8237 32.9919L46.7805 41.6617C46.7805 41.6617 41.3533 40.75 39.8029 43.2573C38.2524 45.7646 41.0218 48.8424 41.0218 56.023C41.0218 63.2037 35.9261 64.8006 34.8186 64.8006Z"
        fill="url(#paint0_linear_1008_3221)" />
    <path
        d="M47.7469 9.11765L47.418 10.3512C46.4448 10.4576 45.1924 10.0017 43.4822 10.0156C35.3139 10.0805 27.5053 12.4938 24.1548 15.2235C21.96 17.0111 20.9975 19.3899 19.447 18.7061C17.5342 17.8621 12.107 16.5497 10.1108 19.1495C10.6693 14.7013 11.6654 11.2865 12.8883 11.4577C15.3246 11.8004 20.8633 12.4842 21.7492 12.4842C22.6352 12.4842 28.5416 7.76798 34.044 7.58286C41.1626 7.34388 47.4852 8.60512 47.4852 8.60512L47.7469 9.11765Z"
        fill="url(#paint1_linear_1008_3221)" />
    <path
        d="M16.1263 36.6019C19.3386 35.6901 21.379 37.1986 23.0207 39.2514C24.6517 41.2904 26.0666 43.0987 30.1648 45.8339C34.263 48.5691 33.7369 56.0923 33.404 58.5996C33.071 61.1069 33.2926 64.8008 34.8188 64.8008C32.6509 64.8008 31.8267 63.016 31.9944 59.5583C32.1059 57.279 32.8523 50.9244 29.7245 47.7043C26.8075 44.7025 25.9592 44.9691 22.6354 41.0942C19.3131 37.2193 16.5438 38.0164 12.667 38.359C12.667 37.4914 12.914 37.5136 16.1263 36.6019Z"
        fill="url(#paint2_linear_1008_3221)" />
    <path
        d="M39.803 43.2581C38.2525 45.7654 41.0218 48.8432 41.0218 56.0239C41.0218 63.2045 35.9275 64.8001 34.8187 64.8001C34.5274 64.8001 34.2684 64.7669 34.0361 64.7034C38.5545 64.4119 41.2755 58.5478 39.7184 52.5012C38.4552 47.5944 37.8257 43.6615 39.8888 41.3532C41.2232 39.8598 43.8771 40.1141 46.7819 41.6626C46.7819 41.6626 41.3534 40.7495 39.803 43.2581Z"
        fill="url(#paint3_linear_1008_3221)" />
    <path
        d="M40.1078 40.6985C37.4499 39.7867 30.7367 37.6413 25.6518 32.8962C12.7651 20.8708 34.7665 19.3637 39.3104 9.08037C40.1789 7.11464 45.2557 19.39 45.2557 19.39L46.8975 22.233L42.1535 35.2321L40.1078 40.6985Z"
        fill="url(#paint4_linear_1008_3221)" />
    <path
        d="M40.4968 39.6584C37.8389 38.7466 26.9805 31.5881 26.9805 28.0531C26.9805 17.8512 34.5004 22.8865 38.5651 10.8488C39.1276 9.18143 41.1156 7.7793 41.1156 7.7793C42.7627 9.16208 45.2555 19.3901 45.2555 19.3901L46.8972 22.2331L42.1532 35.2323L40.4968 39.6584Z"
        fill="url(#paint5_linear_1008_3221)" />
    <path
        d="M46.6328 8.39016L51.7204 14.3758L52.8412 39.3796L40.1061 40.7003C37.1825 39.0813 36.8442 36.8668 37.9302 33.311C38.3866 31.815 36.5301 31.3867 36.4106 27.0283C36.3274 24.0085 38.2496 23.9933 38.2496 23.0954C38.2496 22.1975 37.2926 22.2777 36.9744 19.6764C36.5206 15.9548 39.549 15.883 39.549 15.0873C39.549 14.2916 37.8671 13.8192 37.9704 10.7856C38.1019 6.93829 31.1593 7.71602 26.465 11.2166C24.5373 12.6546 22.8553 12.8025 21.5425 12.4764C21.6244 12.4805 21.6942 12.4833 21.7465 12.4833C22.6325 12.4833 28.5833 7.58203 34.0413 7.58203C40.423 7.58203 44.838 7.96745 46.6328 8.39016Z"
        fill="url(#paint6_linear_1008_3221)" />
    <path
        d="M47.8022 39.0503C43.8704 39.0503 41.7105 35.0967 43.2059 32.0589C44.7013 29.0211 40.4366 24.9998 40.8796 23.0202C41.3225 21.042 42.0985 16.0303 42.7065 15.2014C43.3147 14.3725 41.7092 12.4924 41.7092 12.4924L46.6934 11.8652L51.3447 13.976L51.1783 28.4493L51.6762 37.51L47.8022 39.0503Z"
        fill="url(#paint7_linear_1008_3221)" />
    <path
        d="M22.6353 41.0913C20.4767 38.5744 18.5517 38.0287 16.4053 38.0495C17.0242 37.0217 17.455 35.8986 17.4107 34.8003C17.2939 31.9215 17.9101 28.3726 18.3813 32.0638C18.7397 34.8749 20.5921 38.3492 22.8205 41.3054C22.7587 41.235 22.6984 41.1659 22.6353 41.0913Z"
        fill="url(#paint8_linear_1008_3221)" />
    <path
        d="M50.7805 41.775C46.1319 41.9573 37.7743 42.2281 37.5877 37.2163C37.4534 33.5817 39.9583 32.3896 43.8324 32.2377C47.7065 32.0856 49.6435 32.0097 51.2476 31.9475C52.8532 31.884 57.8991 31.9157 57.9487 36.3046C58.0105 41.7874 50.7805 41.775 50.7805 41.775Z"
        fill="url(#paint9_linear_1008_3221)" />
    <path
        d="M43.1347 23.6565C41.8891 23.6937 38.1881 22.7336 37.8418 20.3148C37.5693 18.4125 38.513 15.955 41.7333 15.3748C45.8127 14.6399 52.6105 14.2544 55.1503 15.2326C56.2847 15.6691 57.2739 16.8916 57.3263 18.7441C57.3787 20.5966 56.0417 23.0928 53.1354 23.1798C50.2292 23.2655 48.7149 23.2199 47.0585 23.4216C45.0665 23.6633 44.1321 23.6274 43.1347 23.6565Z"
        fill="url(#paint10_linear_1008_3221)" />
    <path
        d="M41.8379 15.2038C40.4258 15.2038 38.6807 13.9219 38.6807 11.7848C38.6807 9.64776 39.2204 8.066 42.2528 7.46785C45.2852 6.8697 50.1446 7.3822 51.9715 7.98036C53.3957 8.44728 53.9233 9.81768 53.9233 12.0832C53.9233 14.3487 52.5527 14.7438 51.0574 14.7438C49.5619 14.7438 47.7471 14.4634 46.7107 14.5187C43.818 14.6775 43.2501 15.2038 41.8379 15.2038Z"
        fill="url(#paint11_linear_1008_3221)" />
    <path
        d="M50.3848 40.7634C46.3254 40.9223 39.0269 41.1641 38.8806 37.2021C38.7746 34.3288 40.9653 33.3784 44.3482 33.2457C47.7309 33.1132 56.6308 32.946 56.6604 36.4147C56.6979 40.7497 50.3848 40.7634 50.3848 40.7634Z"
        fill="url(#paint12_linear_1008_3221)" />
    <path
        d="M43.5089 22.637C42.4243 22.6688 39.3879 22.4036 39.0965 20.0924C38.8992 18.5286 39.6873 16.5201 42.4915 16.0407C46.0447 15.4329 51.9618 15.1069 54.1727 15.9039C55.1594 16.2603 56.0198 17.2592 56.0614 18.7773C56.1044 20.2955 54.7446 22.1562 52.2155 22.2323C49.6852 22.3068 48.3401 22.0665 46.8971 22.235C45.1641 22.4339 44.3761 22.6107 43.5089 22.637Z"
        fill="url(#paint13_linear_1008_3221)" />
    <path
        d="M42.4408 14.4236C41.2192 14.4236 39.7104 13.3918 39.7104 11.6705C39.7104 9.94925 40.1775 8.67554 42.8005 8.19481C45.4235 7.71408 49.6265 8.12573 51.2078 8.60786C52.4387 8.98361 52.8965 10.0874 52.8965 11.9122C52.8965 13.7357 51.7112 14.0548 50.4171 14.0548C49.1231 14.0548 47.5539 13.8283 46.6572 13.8739C44.1537 13.9995 43.6624 14.4236 42.4408 14.4236Z"
        fill="url(#paint14_linear_1008_3221)" />
    <path
        d="M41.6967 37.2004C41.7974 39.9301 43.9129 41.2383 46.5856 41.8406C42.3196 41.7384 37.726 40.9178 37.5877 37.217C37.4534 33.5824 39.9583 32.3903 43.8324 32.2383C44.2593 32.2217 44.6606 32.2052 45.0419 32.1914C42.8659 32.8462 41.5906 34.3215 41.6967 37.2004Z"
        fill="url(#paint15_linear_1008_3221)" />
    <path
        d="M42.0604 41.3452C39.5783 40.7871 37.6749 39.5797 37.5876 37.2162C37.4763 34.1949 39.1905 32.8619 41.9973 32.4102C36.303 34.7502 38.3461 40.5108 42.0604 41.3452Z"
        fill="url(#paint16_linear_1008_3221)" />
    <path
        d="M31.1904 14.1744C30.7488 12.5443 27.6667 12.0041 24.3081 12.9684C20.9495 13.9327 18.5856 16.0351 19.0272 17.6652C19.4688 19.2953 22.5509 19.8355 25.9095 18.8712C29.2681 17.907 31.6321 15.8058 31.1904 14.1744Z"
        fill="url(#paint17_radial_1008_3221)" />
    <path
        d="M54.2628 36.4669C54.2306 34.3699 51.5056 33.3753 48.5242 33.1888C46.0864 33.0369 43.3802 34.8119 43.4501 36.8606C43.5198 38.9093 43.8743 40.7245 48.9403 40.5435C51.9257 40.4371 54.2937 38.517 54.2628 36.4669Z"
        fill="url(#paint18_radial_1008_3221)" />
    <path
        d="M54.8053 18.0341C54.7892 15.1304 51.6856 15.687 48.7042 15.4853C44.9241 15.2284 42.4179 16.44 42.4165 18.49C42.4139 20.54 43.8515 22.0333 48.9217 22.0416C51.9071 22.0471 54.8267 21.7653 54.8053 18.0341Z"
        fill="url(#paint19_radial_1008_3221)" />
    <path
        d="M52.0724 10.7124C52.0576 8.23689 49.2387 7.89982 46.5673 7.89844C43.896 7.89568 40.9965 9.35306 40.9951 11.1006C40.9938 12.8481 42.2785 14.1218 46.8116 14.1286C49.4816 14.1328 52.0912 13.8925 52.0724 10.7124Z"
        fill="url(#paint20_radial_1008_3221)" />
    <path
        d="M41.3075 19.7289C41.7317 23.0347 44.1962 22.8413 47.0219 23.1839C43.7694 23.4339 42.4042 23.4698 42.4042 23.4698C42.1007 23.5002 41.7612 23.5016 41.4081 23.4643C40.3517 23.2253 39.1543 22.7307 38.4428 21.8025C38.2012 21.4488 38.0052 21.0316 37.8763 20.5371C37.8629 20.4653 37.8495 20.392 37.8414 20.3174C37.6119 18.4083 38.5126 15.9576 41.733 15.3775C42.1974 15.2931 42.6995 15.2144 43.223 15.1412C43.4741 15.108 43.7478 15.0735 44.0418 15.0348C44.121 15.0252 44.2002 15.0155 44.2808 15.0059C42.5048 15.8692 40.996 17.299 41.3075 19.7289Z"
        fill="url(#paint21_linear_1008_3221)" />
    <path
        d="M42.0958 23.4889C41.877 23.4958 41.6447 23.4875 41.4072 23.4627C40.3413 23.2209 39.1331 22.7194 38.4258 21.776C38.1922 21.4279 38.0042 21.0162 37.878 20.5341C37.8646 20.4622 37.8552 20.3904 37.8431 20.3158C37.5169 18.4356 38.4218 16.2198 41.2353 15.4863C36.435 18.2105 38.4821 23.4862 42.0958 23.4889Z"
        fill="url(#paint22_linear_1008_3221)" />
    <path
        d="M44.8891 14.7006C43.4703 14.9147 42.8877 15.2063 41.8379 15.2063C40.4258 15.2063 38.6807 13.9243 38.6807 11.7872C38.6807 11.0108 38.7532 10.3091 38.9881 9.69987C39.227 9.19704 39.5747 8.72598 40.0513 8.32813C40.5748 7.95238 41.2862 7.6609 42.2515 7.47026C42.8997 7.34179 43.6327 7.26581 44.4005 7.22852C42.9186 8.11401 40.4083 8.5906 40.9346 11.5551C41.5171 14.8292 43.4166 14.3871 44.8891 14.7006Z"
        fill="url(#paint23_linear_1008_3221)" />
    <path
        d="M41.7748 15.2019C40.3747 15.1647 38.6807 13.8896 38.6807 11.7844C38.6807 9.82686 39.1358 8.33491 41.544 7.63867C37.784 10.1252 38.9908 14.3206 41.7748 15.2019Z"
        fill="url(#paint24_linear_1008_3221)" />
    <path
        d="M57.9491 36.3055C57.9545 36.7972 57.9007 37.2434 57.8001 37.651C58.1746 35.938 56.6913 34.2361 52.7595 33.41C50.1539 32.863 43.2341 32.1791 38.4458 34.1353C39.4794 32.8505 41.3815 32.3366 43.8327 32.24C47.7068 32.088 49.6439 32.012 51.248 31.9498C52.8535 31.8849 57.8994 31.9167 57.9491 36.3055Z"
        fill="url(#paint25_linear_1008_3221)" />
    <path
        d="M57.3259 18.8613C57.3205 20.7014 55.9795 23.0954 53.1337 23.1797C50.2275 23.2653 48.7132 23.2198 47.0568 23.4214C45.0661 23.6632 44.1304 23.6273 43.1344 23.6563C42.3813 23.6784 40.5235 23.4449 39.2603 22.6367C40.6806 22.1298 42.9948 21.3672 46.2513 21.5814C54.0546 22.098 56.2748 21.1269 57.3259 18.8613Z"
        fill="url(#paint26_linear_1008_3221)" />
    <path
        d="M41.4622 31.95C39.8016 31.9846 37.1639 30.9788 37.0954 27.4299C37.027 23.881 40.0433 23.037 41.3722 23.0094C42.7012 22.9818 47.3471 22.6558 53.0777 22.5383C58.8082 22.4209 59.5761 25.5857 59.6083 27.2434C59.6405 28.9026 58.619 31.9017 55.1717 31.9735C45.2047 32.1793 41.4622 31.95 41.4622 31.95Z"
        fill="url(#paint27_linear_1008_3221)" />
    <path
        d="M42.3535 30.9203C40.9092 30.9492 38.619 30.1784 38.5667 27.4418C38.5143 24.7052 41.1374 24.0462 42.2917 24.0227C43.4475 23.9993 47.4867 23.7382 52.4683 23.6359C57.4498 23.5338 58.1116 25.9733 58.1357 27.2539C58.16 28.5331 57.9894 30.8483 54.9919 30.9105C46.3283 31.0874 42.3535 30.9203 42.3535 30.9203Z"
        fill="url(#paint28_linear_1008_3221)" />
    <path
        d="M40.6594 27.772C40.8259 31.4148 43.2971 31.4245 46.0866 32.0545C42.8246 32.0338 41.4622 31.9509 41.4622 31.9509C39.8016 31.9853 37.1639 30.9797 37.0954 27.4308C37.027 23.8819 40.0433 23.0379 41.3722 23.0103C41.8514 23.0006 42.7628 22.9522 43.9979 22.8887C42.1561 23.6692 40.5372 25.0921 40.6594 27.772Z"
        fill="url(#paint29_linear_1008_3221)" />
    <path
        d="M56.6885 27.3956C56.8039 24.4946 53.6722 23.949 50.6881 23.8025C47.704 23.6561 44.3871 25.2074 44.2917 27.2547C44.1964 29.302 45.5643 30.8629 50.6277 31.1158C53.6132 31.2636 56.5409 31.1227 56.6885 27.3956Z"
        fill="url(#paint30_radial_1008_3221)" />
    <path
        d="M41.1506 31.9441C39.4914 31.8529 37.1584 30.7644 37.0939 27.4309C37.0282 24.0576 39.7505 23.1279 41.1614 23.0215C35.7019 25.2884 37.4913 31.6098 41.1506 31.9441Z"
        fill="url(#paint31_linear_1008_3221)" />
    <path
        d="M59.5991 27.6031C58.8796 22.3537 45.3928 23.3152 38.105 24.4424C39.089 23.358 40.5522 23.0293 41.3723 23.0113C42.7013 22.9837 47.3473 22.6576 53.0778 22.5403C58.8084 22.4228 59.5763 25.5877 59.6085 27.2454C59.6098 27.3586 59.6071 27.4789 59.5991 27.6031Z"
        fill="url(#paint32_linear_1008_3221)" />
    <path
        d="M52.8427 15.9121C50.2304 15.7933 43.3186 14.9093 38.2793 17.6873C38.8417 16.6125 39.9304 15.6995 41.7332 15.3748C45.8127 14.6399 52.6105 14.2544 55.1502 15.2326C56.2845 15.6691 57.2739 16.8916 57.3262 18.7441C57.1584 17.1334 55.667 16.0407 52.8427 15.9121Z"
        fill="url(#paint33_linear_1008_3221)" />
    <path
        d="M53.723 10.0781C52.0114 8.73819 49.0528 7.94663 44.7841 8.68846C42.1477 9.14709 40.3408 9.30315 39.1528 9.33636C39.628 8.45224 40.5449 7.80297 42.2524 7.4659C45.2848 6.86774 50.1442 7.38025 51.9711 7.9784C52.9095 8.28784 53.4572 8.98961 53.723 10.0781Z"
        fill="url(#paint34_linear_1008_3221)" />
    <path
        d="M39.2417 13.7081C42.4043 14.8934 43.9547 13.1348 47.3389 13.1348C50.8531 13.1348 52.5284 14.5949 53.7769 13.2067C53.3849 14.4872 52.2627 14.7455 51.0586 14.7455C49.5631 14.7455 47.7483 14.4651 46.7106 14.5204C43.8165 14.6765 43.25 15.2041 41.8378 15.2041C40.9236 15.2041 39.8713 14.6668 39.2417 13.7081Z"
        fill="url(#paint35_linear_1008_3221)" />
    <path
        d="M12.8883 11.4574C15.3248 11.8 20.8633 12.4838 21.7493 12.4838C13.7166 18.3921 17.2886 30.9589 20.2526 37.3148C20.6687 38.2073 20.9251 38.9394 21.0634 39.561C18.3907 37.464 15.9181 38.0691 12.6669 38.3565C7.79671 38.7861 9.45587 10.9752 12.8883 11.4574Z"
        fill="url(#paint36_linear_1008_3221)" />
    <path
        d="M21.749 12.4824C21.0603 13.0861 20.2294 14.1028 19.4817 15.085C19.4817 15.085 15.4492 12.9618 11.1255 13.9605C11.6235 12.336 12.2222 11.3635 12.888 11.4574C15.3244 11.7986 20.863 12.4824 21.749 12.4824Z"
        fill="url(#paint37_linear_1008_3221)" />
    <path
        d="M37.4025 54.3469C35.8238 53.996 34.5446 56.2394 33.8223 58.8571C33.2317 60.9984 34.0344 63.7239 35.5849 64.0319C37.1354 64.34 38.5663 64.3539 39.4214 59.8159C39.9235 57.1415 38.9449 54.6894 37.4025 54.3469Z"
        fill="url(#paint38_radial_1008_3221)" />
    <path
        d="M46.7805 41.6637C46.7805 41.6637 41.3532 40.752 39.8028 43.2592C38.2524 45.7665 41.0217 48.8443 41.0217 56.025C41.0217 63.2056 35.926 64.8011 34.8185 64.8011C32.6506 64.8011 31.8265 63.0164 31.9942 59.5587C32.1057 57.2793 32.852 50.9248 29.7243 47.7047C26.8073 44.7028 25.9589 44.9695 22.6352 41.0945C19.3115 37.2197 43.2339 40.0143 46.7805 41.6637Z"
        fill="url(#paint39_linear_1008_3221)" />
    <path
        d="M41.7745 15.2019C40.898 15.2199 40.02 14.8013 39.412 14.1217C38.785 13.4476 38.5018 12.475 38.5394 11.5605C38.5676 10.6667 38.6991 9.6942 39.2683 8.9455C39.8294 8.18986 40.706 7.83345 41.545 7.63867C40.7329 7.93982 39.9288 8.36668 39.4482 9.08229C38.9636 9.7923 38.8361 10.6902 38.8307 11.566C38.7757 12.4378 39.0321 13.3053 39.5797 13.9697C40.1194 14.6287 40.9061 15.1081 41.7745 15.2019Z"
        fill="#804B24" />
    <path
        d="M40.3814 23.1532C39.7922 22.9571 39.2029 22.6877 38.7249 22.2484C38.2243 21.8243 37.9209 21.1957 37.7504 20.5686L37.7477 20.5589C37.6417 19.994 37.5893 19.3889 37.7034 18.81C37.8162 18.2312 38.0497 17.6787 38.3867 17.2034C39.0686 16.2406 40.1546 15.7005 41.2325 15.4863C40.1841 15.8372 39.2002 16.4382 38.592 17.354C37.9705 18.2603 37.7933 19.4192 38.0028 20.5064L38.0001 20.4968C38.1625 21.0936 38.4001 21.682 38.8445 22.1117C39.2821 22.5482 39.8096 22.8977 40.3814 23.1532Z"
        fill="#804B24" />
    <path
        d="M41.1504 31.9447C40.1155 31.9337 39.0496 31.5676 38.267 30.8106C37.4737 30.0605 37.063 28.9581 36.977 27.8778C36.8898 26.8031 37.063 25.6371 37.718 24.7489C38.3596 23.8524 39.3678 23.3371 40.3839 23.1465C39.3933 23.4448 38.4671 24.0223 37.9006 24.8829C37.326 25.7394 37.1636 26.8197 37.2669 27.8529C37.3287 28.8904 37.7126 29.9085 38.4227 30.6476C39.1301 31.3853 40.1235 31.8246 41.1504 31.9447Z"
        fill="#804B24" />
    <path
        d="M42.0609 41.3452C40.94 41.1421 39.803 40.7926 38.866 40.0536C37.9116 39.3324 37.3827 38.0698 37.4432 36.8639C37.4458 35.6758 37.8431 34.3938 38.7815 33.6203C39.6983 32.837 40.8702 32.5455 41.9964 32.4102C40.8863 32.6533 39.7614 33.0263 38.9278 33.7944C38.0808 34.5541 37.7183 35.7228 37.7317 36.868C37.6579 38.0215 38.1318 39.1474 39.0043 39.8767C39.8714 40.6089 40.9628 41.0371 42.0609 41.3452Z"
        fill="#804B24" />
    <path
        d="M38.2793 17.6869C38.6108 17.0044 39.1384 16.4187 39.7774 16.0098C40.4204 15.6064 41.1546 15.373 41.8902 15.2486C43.3534 14.982 44.8274 14.79 46.308 14.6587C47.79 14.5593 49.276 14.5164 50.7606 14.5551C52.2373 14.6091 53.7528 14.6946 55.1502 15.2348C54.4441 14.9958 53.7031 14.9185 52.9689 14.8576C52.2346 14.7831 51.4949 14.7638 50.7566 14.754C49.2787 14.7486 47.8007 14.8273 46.3282 14.9557C44.8529 15.0525 43.3817 15.2113 41.9211 15.4434C40.4875 15.6437 39.035 16.3399 38.2793 17.6869Z"
        fill="#804B24" />
    <path
        d="M38.105 24.4408C38.6366 23.826 39.3547 23.3909 40.1226 23.1422C40.8998 22.8811 41.7241 22.9198 42.5107 22.8646L47.2855 22.6215L52.063 22.4792C53.6403 22.3894 55.3035 22.4418 56.7814 23.0911C55.2632 22.5551 53.651 22.5786 52.067 22.6781L47.2922 22.9198L42.5147 23.0621C41.716 23.0995 40.9199 23.0483 40.1629 23.2818C39.399 23.4793 38.6701 23.8606 38.105 24.4408Z"
        fill="#804B24" />
    <path
        d="M55.1716 31.9751C52.8882 32.1036 50.6022 32.1478 48.3161 32.1741C46.0287 32.2114 43.744 32.21 41.4553 32.0677H41.4646C40.282 32.0649 39.0806 31.627 38.2483 30.7484C37.8308 30.316 37.5234 29.7787 37.3435 29.204C37.1664 28.6279 37.1033 28.0271 37.0952 27.4316C37.1475 28.6196 37.5368 29.8119 38.3624 30.6311C39.1719 31.4571 40.337 31.8522 41.4593 31.8343H41.4686C42.6056 31.8798 43.7493 31.8867 44.8903 31.895L48.3161 31.9433L51.7432 31.9503C52.8856 31.9378 54.0279 31.971 55.1716 31.9751Z"
        fill="#804B24" />
    <defs>
        <linearGradient id="paint0_linear_1008_3221" x1="46.9597" y1="36.6645" x2="30.2962" y2="36.0143"
            gradientUnits="userSpaceOnUse">
            <stop offset="0.00132565" stop-color="#FFCB4B" />
            <stop offset="1" stop-color="#FFD748" />
        </linearGradient>
        <linearGradient id="paint1_linear_1008_3221" x1="30.1595" y1="27.7397" x2="28.9284" y2="14.8806"
            gradientUnits="userSpaceOnUse">
            <stop offset="0.00132565" stop-color="#FFCB4B" />
            <stop offset="1" stop-color="#FFD748" />
        </linearGradient>
        <linearGradient id="paint2_linear_1008_3221" x1="26.8394" y1="46.8269" x2="39.8707" y2="28.7131"
            gradientUnits="userSpaceOnUse">
            <stop offset="0.00132565" stop-color="#FFCB4B" />
            <stop offset="1" stop-color="#FFD748" />
        </linearGradient>
        <linearGradient id="paint3_linear_1008_3221" x1="17.7558" y1="54.1806" x2="49.9134" y2="51.8391"
            gradientUnits="userSpaceOnUse">
            <stop offset="0.3118" stop-color="#FFBC47" stop-opacity="0" />
            <stop offset="1" stop-color="#FF8900" />
        </linearGradient>
        <linearGradient id="paint4_linear_1008_3221" x1="17.1439" y1="24.7815" x2="59.3593" y2="24.7818"
            gradientUnits="userSpaceOnUse">
            <stop stop-color="#FFBC47" stop-opacity="0" />
            <stop offset="1" stop-color="#FFA754" />
        </linearGradient>
        <linearGradient id="paint5_linear_1008_3221" x1="10.3367" y1="24.7163" x2="93.7423" y2="22.1337"
            gradientUnits="userSpaceOnUse">
            <stop stop-color="#FFBC47" stop-opacity="0" />
            <stop offset="1" stop-color="#C86F34" />
        </linearGradient>
        <linearGradient id="paint6_linear_1008_3221" x1="23.5884" y1="13.5064" x2="37.5546" y2="20.8645"
            gradientUnits="userSpaceOnUse">
            <stop stop-color="#FFBC47" stop-opacity="0" />
            <stop offset="1" stop-color="#C86F34" />
        </linearGradient>
        <linearGradient id="paint7_linear_1008_3221" x1="39.3885" y1="24.4208" x2="50.9005" y2="25.8906"
            gradientUnits="userSpaceOnUse">
            <stop stop-color="#643800" stop-opacity="0" />
            <stop offset="1" stop-color="#643800" />
        </linearGradient>
        <linearGradient id="paint8_linear_1008_3221" x1="18.9762" y1="50.5367" x2="21.6149" y2="8.05963"
            gradientUnits="userSpaceOnUse">
            <stop stop-color="#FFBC47" stop-opacity="0" />
            <stop offset="1" stop-color="#FFA754" />
        </linearGradient>
        <linearGradient id="paint9_linear_1008_3221" x1="57.1614" y1="36.8925" x2="40.8408" y2="36.8924"
            gradientUnits="userSpaceOnUse">
            <stop offset="0.00132565" stop-color="#FFBC47" />
            <stop offset="1" stop-color="#FFD748" />
        </linearGradient>
        <linearGradient id="paint10_linear_1008_3221" x1="57.1618" y1="19.1515" x2="40.8322" y2="19.1514"
            gradientUnits="userSpaceOnUse">
            <stop offset="0.00132565" stop-color="#FFBC47" />
            <stop offset="1" stop-color="#FFD748" />
        </linearGradient>
        <linearGradient id="paint11_linear_1008_3221" x1="57.1618" y1="11.2012" x2="40.8413" y2="11.2011"
            gradientUnits="userSpaceOnUse">
            <stop offset="0.00132565" stop-color="#FFBC47" />
            <stop offset="1" stop-color="#FFD748" />
        </linearGradient>
        <linearGradient id="paint12_linear_1008_3221" x1="38.6409" y1="36.8103" x2="47.1418" y2="36.9987"
            gradientUnits="userSpaceOnUse">
            <stop offset="0.00132565" stop-color="#FFCB4B" />
            <stop offset="1" stop-color="#FFD748" />
        </linearGradient>
        <linearGradient id="paint13_linear_1008_3221" x1="53.5065" y1="19.034" x2="44.8414" y2="19.034"
            gradientUnits="userSpaceOnUse">
            <stop offset="0.00132565" stop-color="#FFCB4B" />
            <stop offset="1" stop-color="#FFD748" />
        </linearGradient>
        <linearGradient id="paint14_linear_1008_3221" x1="53.5069" y1="11.2002" x2="44.8418" y2="11.2001"
            gradientUnits="userSpaceOnUse">
            <stop offset="0.00132565" stop-color="#FFCB4B" />
            <stop offset="1" stop-color="#FFD748" />
        </linearGradient>
        <linearGradient id="paint15_linear_1008_3221" x1="42.9289" y1="37.0147" x2="38.3055" y2="37.0147"
            gradientUnits="userSpaceOnUse">
            <stop offset="0.00132565" stop-color="#FBA23B" stop-opacity="0" />
            <stop offset="1" stop-color="#FBA23B" />
        </linearGradient>
        <linearGradient id="paint16_linear_1008_3221" x1="42.0982" y1="36.8772" x2="36.7812" y2="36.8771"
            gradientUnits="userSpaceOnUse">
            <stop offset="0.00132565" stop-color="#FFBC47" />
            <stop offset="1" stop-color="#E89043" />
        </linearGradient>
        <radialGradient id="paint17_radial_1008_3221" cx="0" cy="0" r="1" gradientUnits="userSpaceOnUse"
            gradientTransform="translate(24.5044 17.038) rotate(-16.0163) scale(6.50427 3.09365)">
            <stop stop-color="#FBE07A" />
            <stop offset="1" stop-color="#FFD748" stop-opacity="0" />
        </radialGradient>
        <radialGradient id="paint18_radial_1008_3221" cx="0" cy="0" r="1" gradientUnits="userSpaceOnUse"
            gradientTransform="translate(48.8646 36.852) rotate(-2.08503) scale(5.55385 3.74904)">
            <stop stop-color="#FBE07A" />
            <stop offset="1" stop-color="#FFD748" />
        </radialGradient>
        <radialGradient id="paint19_radial_1008_3221" cx="0" cy="0" r="1" gradientUnits="userSpaceOnUse"
            gradientTransform="translate(48.5962 18.4455) rotate(0.0559593) scale(5.96424 3.30705)">
            <stop stop-color="#FBE07A" />
            <stop offset="1" stop-color="#FFD748" stop-opacity="0" />
        </radialGradient>
        <radialGradient id="paint20_radial_1008_3221" cx="0" cy="0" r="1" gradientUnits="userSpaceOnUse"
            gradientTransform="translate(46.533 11.0088) rotate(0.055501) scale(5.46077 3.51539)">
            <stop stop-color="#FBE07A" />
            <stop offset="1" stop-color="#FFD748" stop-opacity="0" />
        </radialGradient>
        <linearGradient id="paint21_linear_1008_3221" x1="43.4829" y1="19.2479" x2="36.782" y2="19.2479"
            gradientUnits="userSpaceOnUse">
            <stop offset="0.00132565" stop-color="#FBA23B" stop-opacity="0" />
            <stop offset="1" stop-color="#FBA23B" />
        </linearGradient>
        <linearGradient id="paint22_linear_1008_3221" x1="42.059" y1="19.4873" x2="38.4495" y2="19.4872"
            gradientUnits="userSpaceOnUse">
            <stop offset="0.00132565" stop-color="#FFBC47" />
            <stop offset="1" stop-color="#FBA23B" />
        </linearGradient>
        <linearGradient id="paint23_linear_1008_3221" x1="43.2424" y1="11.157" x2="35.3919" y2="12.5586"
            gradientUnits="userSpaceOnUse">
            <stop offset="0.00132565" stop-color="#FBA23B" stop-opacity="0" />
            <stop offset="1" stop-color="#FBA23B" />
        </linearGradient>
        <linearGradient id="paint24_linear_1008_3221" x1="42.432" y1="11.4189" x2="39.1197" y2="11.4189"
            gradientUnits="userSpaceOnUse">
            <stop offset="0.00132565" stop-color="#FFBC47" />
            <stop offset="1" stop-color="#FBA23B" />
        </linearGradient>
        <linearGradient id="paint25_linear_1008_3221" x1="47.712" y1="37.9503" x2="49.9352" y2="27.4894"
            gradientUnits="userSpaceOnUse">
            <stop stop-color="#FFBC47" stop-opacity="0" />
            <stop offset="1" stop-color="#C86F34" />
        </linearGradient>
        <linearGradient id="paint26_linear_1008_3221" x1="49.3121" y1="17.2321" x2="46.8905" y2="25.7259"
            gradientUnits="userSpaceOnUse">
            <stop stop-color="#FFBC47" stop-opacity="0" />
            <stop offset="1" stop-color="#C86F34" />
        </linearGradient>
        <linearGradient id="paint27_linear_1008_3221" x1="57.1618" y1="27.2965" x2="40.8413" y2="27.2965"
            gradientUnits="userSpaceOnUse">
            <stop offset="0.00132565" stop-color="#FFBC47" />
            <stop offset="1" stop-color="#FFD748" />
        </linearGradient>
        <linearGradient id="paint28_linear_1008_3221" x1="40.1829" y1="27.7644" x2="52.6856" y2="27.3205"
            gradientUnits="userSpaceOnUse">
            <stop offset="0.00132565" stop-color="#FFCB4B" />
            <stop offset="0.7382" stop-color="#FFD748" />
            <stop offset="1" stop-color="#FFCB4B" />
        </linearGradient>
        <linearGradient id="paint29_linear_1008_3221" x1="45.0615" y1="27.4695" x2="35.7212" y2="27.4695"
            gradientUnits="userSpaceOnUse">
            <stop offset="0.00132565" stop-color="#FBA23B" stop-opacity="0" />
            <stop offset="1" stop-color="#FBA23B" />
        </linearGradient>
        <radialGradient id="paint30_radial_1008_3221" cx="0" cy="0" r="1" gradientUnits="userSpaceOnUse"
            gradientTransform="translate(50.4847 27.4517) rotate(2.81409) scale(6.10743 4.12272)">
            <stop stop-color="#FBE07A" />
            <stop offset="1" stop-color="#FFD748" stop-opacity="0" />
        </radialGradient>
        <linearGradient id="paint31_linear_1008_3221" x1="40.7198" y1="27.4813" x2="37.7708" y2="27.4813"
            gradientUnits="userSpaceOnUse">
            <stop offset="0.00132565" stop-color="#FFBC47" />
            <stop offset="1" stop-color="#FBA23B" />
        </linearGradient>
        <linearGradient id="paint32_linear_1008_3221" x1="48.4868" y1="28.407" x2="50.3608" y2="16.826"
            gradientUnits="userSpaceOnUse">
            <stop stop-color="#FFBC47" stop-opacity="0" />
            <stop offset="1" stop-color="#C86F34" />
        </linearGradient>
        <linearGradient id="paint33_linear_1008_3221" x1="47.2572" y1="19.4338" x2="52.0172" y2="9.39326"
            gradientUnits="userSpaceOnUse">
            <stop stop-color="#FFBC47" stop-opacity="0" />
            <stop offset="1" stop-color="#C86F34" />
        </linearGradient>
        <linearGradient id="paint34_linear_1008_3221" x1="46.352" y1="10.5356" x2="47.0553" y2="4.12842"
            gradientUnits="userSpaceOnUse">
            <stop stop-color="#FFBC47" stop-opacity="0" />
            <stop offset="1" stop-color="#C86F34" />
        </linearGradient>
        <linearGradient id="paint35_linear_1008_3221" x1="46.509" y1="11.5094" x2="46.509" y2="16.1471"
            gradientUnits="userSpaceOnUse">
            <stop stop-color="#FFBC47" stop-opacity="0" />
            <stop offset="1" stop-color="#C86F34" />
        </linearGradient>
        <linearGradient id="paint36_linear_1008_3221" x1="15.5318" y1="28.5243" x2="9.40887" y2="46.6715"
            gradientUnits="userSpaceOnUse">
            <stop stop-color="#C86F34" stop-opacity="0" />
            <stop offset="1" stop-color="#C86F34" />
        </linearGradient>
        <linearGradient id="paint37_linear_1008_3221" x1="16.5445" y1="17.4502" x2="16.1925" y2="4.37138"
            gradientUnits="userSpaceOnUse">
            <stop stop-color="#FFBC47" stop-opacity="0" />
            <stop offset="1" stop-color="#C86F34" />
        </linearGradient>
        <radialGradient id="paint38_radial_1008_3221" cx="0" cy="0" r="1" gradientUnits="userSpaceOnUse"
            gradientTransform="translate(36.6422 59.2173) rotate(-79.368) scale(6.01709 3.43852)">
            <stop stop-color="#FBE07A" />
            <stop offset="1" stop-color="#FFD748" stop-opacity="0" />
        </radialGradient>
        <linearGradient id="paint39_linear_1008_3221" x1="34.3428" y1="39.1321" x2="38.8554" y2="78.7974"
            gradientUnits="userSpaceOnUse">
            <stop stop-color="#FFBC47" stop-opacity="0" />
            <stop offset="1" stop-color="#C86F34" />
        </linearGradient>
    </defs>
</svg>