<?xml version="1.0" encoding="UTF-8" standalone="no"?>
<svg
   xmlns:dc="http://purl.org/dc/elements/1.1/"
   xmlns:cc="http://creativecommons.org/ns#"
   xmlns:rdf="http://www.w3.org/1999/02/22-rdf-syntax-ns#"
   xmlns:svg="http://www.w3.org/2000/svg"
   xmlns="http://www.w3.org/2000/svg"
   xmlns:sodipodi="http://sodipodi.sourceforge.net/DTD/sodipodi-0.dtd"
   xmlns:inkscape="http://www.inkscape.org/namespaces/inkscape"
   id="Layer"
   enable-background="new 0 0 64 64"
   height="512"
   viewBox="0 0 64 64"
   width="512"
   version="1.1"
   sodipodi:docname="banding.svg"
   inkscape:version="0.92.4 (5da689c313, 2019-01-14)">
  <metadata
     id="metadata9">
    <rdf:RDF>
      <cc:Work
         rdf:about="">
        <dc:format>image/svg+xml</dc:format>
        <dc:type
           rdf:resource="http://purl.org/dc/dcmitype/StillImage" />
      </cc:Work>
    </rdf:RDF>
  </metadata>
  <defs
     id="defs7" />
  <sodipodi:namedview
     pagecolor="#ffffff"
     bordercolor="#666666"
     borderopacity="1"
     objecttolerance="10"
     gridtolerance="10"
     guidetolerance="10"
     inkscape:pageopacity="0"
     inkscape:pageshadow="2"
     inkscape:window-width="1920"
     inkscape:window-height="1001"
     id="namedview5"
     showgrid="false"
     inkscape:zoom="0.4609375"
     inkscape:cx="-96.411262"
     inkscape:cy="-15.602194"
     inkscape:window-x="-9"
     inkscape:window-y="-9"
     inkscape:window-maximized="1"
     inkscape:current-layer="Layer" />
  <g
     id="g4577"
     transform="matrix(0.125,0,0,0.125,4.372995,11.519514)">
    <g
       id="g4521">
	<path
   id="path4519"
   d="m 10.412409,190.8483 c 16.5,0 25.7,7.3 39.8,20.2 14.1,12.9 33,33 63.600001,33 h 5.5 c 27.5,-2.4 44.7,-20.8 58.1,-33 12.2,-11 20.8,-18.4 34.3,-20.2 1.8,0 3.7,-0.6 6.1,-0.6 16.5,0 25.7,7.3 39.8,20.2 3.7,3.1 7.3,6.7 11.601,11 12.899,11 28.8,22.6 52,22.6 h 5.5 c 27.5,-2.4 44.699,-20.8 58.1,-33 12.2,-11 20.8,-18.4 34.3,-20.2 1.8,0 3.7,-0.6 6.101,-0.6 3.1,0 6.699,-0.6 9.199,-1.8 1.2,-0.6 3.101,-1.2 4.301,-2.4 6.699,-4.3 11.6,-12.2 11.6,-20.2 0,-3.1 -0.6,-6.7 -1.8,-9.2 v 0 c -1.2,-3.1 -3.101,-5.5 -5.5,-8 -1.2,-1.2 -2.4,-2.4 -3.7,-3.1 -1.2,-0.6 -2.4,-1.8 -4.3,-2.4 -1.8,-0.6 -3.101,-1.2 -4.9,-1.2 -1.8,-0.6 -3.1,-0.6 -4.899,-0.6 h -6.101 c -30.6,2.4 -52.6,19.6 -67.3,33 -13.5,12.2 -20.8,19 -27.5,20.2 -1.2,0 -1.8,0.6 -2.4,0.6 -1.8,0 -3.7,-0.6 -5.5,-1.2 -3.7,-1.8 -8.6,-4.9 -14.1,-10.4 -3.101,-2.4 -6.7,-5.5 -10.4,-9.2 -15.3,-14.1 -39.2,-33 -73.4,-33 h -6.1 c -30.6,2.4 -52.6,19.6 -67.3,33 -13.5,12.2 -20.8,19 -27.5,20.2 -1.2,0 -1.8,0.6 -2.4,0.6 -1.8,0 -3.7,-0.6 -5.5,-1.2 -1.8,-0.6 -4.3,-2.4 -6.7,-3.7 -4.900001,-3.1 -10.400001,-8.6 -18.400001,-15.3 -15.3,-14.1 -39.2,-33 -73.4,-33 H 8.8144094 v 0 c -12.9,0.6 -24.5000004,12.9 -23.3000004,25.7 -0.802,12.8 11.9980004,23.8 24.898,23.2 z m 414.300001,71 h -6.101 c -30.6,2.4 -52.6,20.2 -67.3,33 -13.5,12.2 -20.8,19 -27.5,20.2 -1.2,0 -1.8,0.6 -2.4,0.6 -2.399,0 -5.5,-1.2 -8.6,-3.1 -5.5,-3.1 -12.2,-8.6 -21.4,-17.7 -15.3,-14.1 -39.199,-33.7 -73.399,-33.7 h -6.1 c -30.6,2.4 -52.6,20.2 -67.3,33 -13.5,12.2 -20.8,19 -27.5,20.2 -1.2,0 -1.8,0.6 -2.4,0.6 -2.4,0 -5.5,-1.199 -8.6,-3.1 -1.2,-0.6 -2.4,-1.2 -3.7,-1.8 -4.900001,-3.1 -10.400001,-8.6 -18.400001,-15.3 -15.3,-14.1 -39.2,-33.7 -73.4,-33.7 -12.8999996,0 -25.1,11.6 -25.1,25.1 0,13.5 12.2000004,25.1 25.1,24.5 16.5,0 25.7,8 39.8,20.8 14.1,12.9 33,33 63.600001,33 h 5.5 c 27.5,-2.399 44.7,-20.8 58.1,-33 8.6,-8 15.9,-14.1 23.9,-17.1 1.8,-0.6 3.1,-1.2 4.9,-1.8 1.8,-0.6 3.7,-0.6 5.5,-1.2 1.8,0 3.7,-0.6 6.1,-0.6 16.5,0 25.7,8 39.8,20.8 3.7,3.1 7.3,6.7 11.6,11 12.9,11 28.801,22.6 52,22.6 h 5.5 c 27.5,-2.399 44.7,-20.8 58.101,-33 8.6,-8 15.899,-14.1 23.899,-17.1 1.801,-0.601 3.101,-1.2 4.9,-1.8 1.799,-0.6 3.7,-0.6 5.5,-1.2 1.8,0 3.7,-0.6 6.1,-0.6 12.9,0 25.101,-11.6 25.101,-24.5 -0.102,-12.9 -12.301,-25.1 -25.801,-25.1 z"
   inkscape:connector-curvature="0"
   sodipodi:nodetypes="csscccsccscccsccsccccccscccscccscccssccsccccscccsccscccscccssccscccscsccscccscscs" />

</g>
    <g
       id="g4523">
</g>
    <g
       id="g4525">
</g>
    <g
       id="g4527">
</g>
    <g
       id="g4529">
</g>
    <g
       id="g4531">
</g>
    <g
       id="g4533">
</g>
    <g
       id="g4535">
</g>
    <g
       id="g4537">
</g>
    <g
       id="g4539">
</g>
    <g
       id="g4541">
</g>
    <g
       id="g4543">
</g>
    <g
       id="g4545">
</g>
    <g
       id="g4547">
</g>
    <g
       id="g4549">
</g>
    <g
       id="g4551">
</g>
  </g>
  <path
     style="stroke-width:0.22457406"
     inkscape:connector-curvature="0"
     d="m 36.540005,22.872828 c -0.14104,-0.0348 -3.51593,-0.846644 -8.414114,-0.0058 a 0.39300461,0.39300461 0 0 0 0.06602,0.780396 0.38649196,0.38649196 0 0 0 0.06737,-0.0058 c 4.724587,-0.811165 8.059512,-0.0139 8.092525,-0.0056 a 0.39325584,0.39325584 0 0 0 0.188643,-0.763553 z"
     id="path2" />
  <path
     style="stroke-width:0.22457406"
     inkscape:connector-curvature="0"
     d="m 31.925009,17.370539 v 2.451226 a 0.39300463,0.39300463 0 1 0 0.786009,0 v -2.451226 a 2.21969,2.21969 0 0 0 1.824665,-2.180614 c 0,-1.084917 -1.586392,-3.233867 -1.904387,-3.652697 a 0.4069282,0.4069282 0 0 0 -0.626337,0 c -0.318223,0.419729 -1.90439,2.56778 -1.90439,3.652697 a 2.21969,2.21969 0 0 0 1.82444,2.180614 z m 0.393006,-4.929849 c 0.648795,0.917834 1.431658,2.20397 1.431658,2.74901 a 1.4332317,1.4332317 0 0 1 -1.038655,1.375517 v -2.170733 a 0.39300463,0.39300463 0 0 0 -0.786009,0 v 2.170733 A 1.4332317,1.4332317 0 0 1 30.886355,15.1897 c 0,-0.544815 0.782865,-1.830951 1.43166,-2.74901 z"
     id="path4" />
  <path
     style="stroke-width:0.22457406"
     inkscape:connector-curvature="0"
     d="m 30.913304,4.5478103 a 1.2034924,1.2034924 0 0 0 -1.202146,1.2021442 0.393005,0.393005 0 1 0 0.78601,0 0.41658489,0.41658489 0 0 1 0.416136,-0.416135 0.39300463,0.39300463 0 0 0 0,-0.7860092 z"
     id="path6" />
  <path
     style="stroke-width:0.22457406"
     inkscape:connector-curvature="0"
     d="m 33.017563,3.4060755 a 0.39300461,0.39300461 0 0 0 0.07455,0.7824166 0.17718893,0.17718893 0 0 1 0.126428,0.038855 0.17292204,0.17292204 0 0 1 0.06199,0.116996 0.39300461,0.39300461 0 0 0 0.390759,0.3557239 c 0.01258,0 0.02492,0 0.03773,-0.00182 A 0.39300461,0.39300461 0 0 0 34.062948,4.2697574 0.95915582,0.95915582 0 0 0 33.017333,3.4055975 Z"
     id="path8" />
  <path
     style="stroke-width:0.22457406"
     inkscape:connector-curvature="0"
     d="m 41.879029,25.636214 c -0.0078,-0.0031 -0.808467,-0.314403 -1.087387,-0.997558 a 1.9313369,1.9313369 0 0 0 -0.999354,-0.952643 c 0.549309,-1.280074 0.8828,-3.374226 0.8828,-5.619968 0,-2.00814 -0.985431,-6.406423 -1.532269,-8.1872951 h 0.691015 A 0.39300461,0.39300461 0 0 0 40.226838,9.4857444 V 7.8144647 A 0.39300461,0.39300461 0 0 0 39.833834,7.4214592 h -0.750752 a 2.0121836,2.0121836 0 0 0 -1.969963,-1.616932 h -0.01523 A 2.037785,2.037785 0 0 0 35.237523,3.9717782 2.7436213,2.7436213 0 0 0 30.441744,3.5417179 2.0436241,2.0436241 0 0 0 28.555322,5.044118 1.5989673,1.5989673 0 0 0 27.297707,5.8182258 2.0133065,2.0133065 0 0 0 25.552093,7.4219094 H 24.802241 A 0.39300461,0.39300461 0 0 0 24.409236,7.8149131 V 9.485296 a 0.39300461,0.39300461 0 0 0 0.393005,0.3930038 h 0.691238 c -0.547061,1.7808722 -1.532268,6.1787062 -1.532268,8.1872972 0,2.245739 0.333268,4.338995 0.882576,5.619967 a 1.9313369,1.9313369 0 0 0 -0.999356,0.952869 c -0.278471,0.682255 -1.079526,0.994412 -1.08604,0.996883 a 0.39300461,0.39300461 0 0 0 0.130699,0.76108 c 0.114315,0.004 2.656486,0.02964 4.252534,-1.19945 a 5.5296873,5.5296873 0 0 0 1.467816,0.299358 34.86445,34.86445 0 0 0 3.708616,0.17427 34.861306,34.861306 0 0 0 3.709064,-0.17382 5.5287888,5.5287888 0 0 0 1.467816,-0.299357 c 1.493866,1.150717 3.81776,1.199898 4.201331,1.199898 h 0.0512 A 0.39300461,0.39300461 0 0 0 41.87929,25.636663 Z M 27.506291,6.5923319 c 0.0076,0 0.02672,0.00157 0.03436,0.00157 a 0.39075887,0.39075887 0 0 0 0.370323,-0.2470318 0.81991993,0.81991993 0 0 1 0.764899,-0.519889 0.83676298,0.83676298 0 0 1 0.140363,0.013238 0.39278003,0.39278003 0 0 0 0.457681,-0.3581945 1.252225,1.252225 0 0 1 1.243467,-1.1543115 c 0.03661,0 0.07276,0.00265 0.108473,0.00563 a 0.39188175,0.39188175 0 0 0 0.377958,-0.2021167 1.9571629,1.9571629 0 0 1 3.585324,0.3516829 0.39210633,0.39210633 0 0 0 0.401315,0.2728571 l 0.02245,-0.00157 c 0.01954,-0.00134 0.03907,-0.00298 0.05885,-0.00298 a 1.2499792,1.2499792 0 0 1 1.248631,1.2486315 1.2818687,1.2818687 0 0 1 -0.01706,0.1958284 0.39300461,0.39300461 0 0 0 0.490469,0.4403896 1.2126999,1.2126999 0 0 1 1.476125,0.7860092 H 26.366816 a 1.2169669,1.2169669 0 0 1 1.140612,-0.830473 z m -2.313113,1.6169337 h 14.24765 v 0.884372 H 25.195199 Z M 37.766854,24.401056 a 0.40580534,0.40580534 0 0 0 -0.567049,0.03167 0.38424623,0.38424623 0 0 0 -0.04064,0.05681 c -0.400639,0.173596 -2.206214,0.395474 -4.842938,0.395474 -2.636725,0 -4.444321,-0.222103 -4.843614,-0.3957 a 0.39682237,0.39682237 0 0 0 -0.05054,-0.06737 0.40423331,0.40423331 0 0 0 -0.556719,-0.02065 c -0.707634,0.658901 -1.7793,0.959157 -2.630211,1.096147 a 2.2315926,2.2315926 0 0 0 0.335063,-0.561436 c 0.103757,-0.253993 0.437246,-0.495859 0.939618,-0.681358 a 0.39300461,0.39300461 0 0 0 0.209304,-0.556045 c -0.600511,-1.108051 -0.973753,-3.266208 -0.973753,-5.632545 0,-2.00522 1.07526,-6.702861 1.570221,-8.1872943 h 12.003256 c 0.494063,1.4848823 1.570222,6.1825223 1.570222,8.1872943 0,2.366114 -0.373017,4.524271 -0.973753,5.632545 a 0.39300461,0.39300461 0 0 0 0.209303,0.556045 c 0.502147,0.185499 0.835865,0.426691 0.939618,0.681358 a 2.2300205,2.2300205 0 0 0 0.334839,0.561436 c -0.851136,-0.137432 -1.922577,-0.437918 -2.630436,-1.096819 z"
     id="path10" />
</svg>
