<?xml version="1.0" encoding="UTF-8" standalone="no"?>
<svg
   xmlns:dc="http://purl.org/dc/elements/1.1/"
   xmlns:cc="http://creativecommons.org/ns#"
   xmlns:rdf="http://www.w3.org/1999/02/22-rdf-syntax-ns#"
   xmlns:svg="http://www.w3.org/2000/svg"
   xmlns="http://www.w3.org/2000/svg"
   xmlns:sodipodi="http://sodipodi.sourceforge.net/DTD/sodipodi-0.dtd"
   xmlns:inkscape="http://www.inkscape.org/namespaces/inkscape"
   version="1.1"
   x="0px"
   y="0px"
   viewBox="0 0 189.58122 139.42041"
   xml:space="preserve"
   id="svg14"
   sodipodi:docname="beans.svg"
   width="189.58122"
   height="139.42041"
   inkscape:version="0.92.2 (5c3e80d, 2017-08-06)"><metadata
     id="metadata20"><rdf:RDF><cc:Work
         rdf:about=""><dc:format>image/svg+xml</dc:format><dc:type
           rdf:resource="http://purl.org/dc/dcmitype/StillImage" /><dc:title></dc:title></cc:Work></rdf:RDF></metadata><defs
     id="defs18" /><sodipodi:namedview
     pagecolor="#ffffff"
     bordercolor="#666666"
     borderopacity="1"
     objecttolerance="10"
     gridtolerance="10"
     guidetolerance="10"
     inkscape:pageopacity="0"
     inkscape:pageshadow="2"
     inkscape:window-width="2400"
     inkscape:window-height="1271"
     id="namedview16"
     showgrid="false"
     fit-margin-top="0"
     fit-margin-left="0"
     fit-margin-right="0"
     fit-margin-bottom="0"
     inkscape:zoom="2.6700352"
     inkscape:cx="87.678094"
     inkscape:cy="9.0732493"
     inkscape:window-x="-9"
     inkscape:window-y="2"
     inkscape:window-maximized="1"
     inkscape:current-layer="svg14" /><style
     type="text/css"
     id="style2">
	.st0{fill:none;}
	.st1{fill:#F7BC60;}
	.st2{fill:#FFFFFF;}
	.st3{fill-rule:evenodd;clip-rule:evenodd;}
</style><g
     id="g8"
     transform="translate(-7.5346939,-22.279592)"><g
       id="g6"><path
         class="st3"
         d="m 196.4,131.5 c 0,-0.1 -0.2,0 -0.1,-0.2 0.1,-0.3 0.4,-1 0.5,-1.5 0,-0.5 -0.1,-1.1 -0.1,-1.6 0.1,-0.4 0.5,-1.4 0.4,-1.8 -0.1,-0.6 -0.4,-1.2 -0.6,-1.6 0.2,-0.4 0,-2.5 -0.2,-2.8 -0.3,-0.4 -0.4,0 -0.5,-1 -0.3,0.1 -0.2,0.1 -0.5,0.2 -1.2,-1.4 -2.3,-2.9 -3.4,-4.4 -0.3,-0.2 -0.6,-0.4 -0.9,-0.6 -0.1,-0.3 0,-0.7 0,-0.7 -0.1,-0.2 -0.9,-0.7 -1.1,-0.9 -0.6,-0.4 -1.4,-0.3 -2,-0.7 -0.3,-0.2 -0.8,-0.7 -1.1,-0.9 -0.5,-0.3 -1,-0.2 -1.6,-0.5 -0.1,-0.1 -0.2,-0.2 -0.2,-0.4 h -1.6 c -0.2,-0.2 -0.3,-0.3 -0.5,-0.5 -0.4,-0.2 -0.8,0.1 -1.1,-0.1 -0.2,-0.2 -0.3,-0.3 -0.5,-0.5 l -0.6,0.1 c -0.2,0 -0.6,-0.3 -0.7,-0.4 -1.2,-0.3 -2.2,0 -3.3,-0.4 -0.8,-0.2 -1.3,-0.4 -2.1,-0.6 -0.4,0 -0.8,0.1 -1.2,0.1 -0.2,-0.1 -0.9,-0.3 -1,-0.4 -0.2,0 -0.4,0.1 -0.6,0.1 -0.8,-0.3 -2.1,-0.6 -3.2,-0.7 v -0.4 c -1.1,0.3 -1.8,-0.6 -2.6,-0.5 -1,0.1 -2.2,-0.9 -3.1,-1.3 h -0.6 c -0.6,-0.2 -1.4,-0.5 -2.1,-0.9 -0.2,-0.2 -0.4,-0.4 -0.6,-0.6 -0.6,-0.4 -1.2,-0.3 -1.7,-0.7 -0.1,-0.1 -0.2,-0.4 -0.2,-0.5 -0.2,-0.1 -0.6,0 -0.7,-0.1 h -0.1 l 0.1,-0.2 c -0.3,-0.1 -0.7,0.1 -1,0 -0.3,-0.1 -0.4,-0.6 -0.6,-0.7 h -0.6 c -0.2,-0.1 -0.5,-0.5 -0.7,-0.6 -0.7,-0.2 -1.4,-0.3 -2.1,-0.5 -0.4,-0.2 -1.4,-0.5 -1.8,-0.9 -0.1,-0.1 -0.1,-0.4 -0.2,-0.5 l -0.4,0.2 c -0.6,-0.2 -0.7,-0.7 -1.6,-0.7 v -0.4 c -1.4,0 -1.7,-0.1 -2.7,-0.5 -0.1,0 -0.4,0.2 -0.7,0 -0.2,-0.1 -0.5,-0.5 -0.7,-0.6 -0.5,-0.2 -0.9,0 -1.1,0 -0.4,0 -0.8,0 -1.1,-0.1 0.4,-1.7 3.4,-2.8 4.4,-4 0.3,-0.4 0.4,-0.9 0.7,-1.2 0.4,-0.5 1.2,-0.7 1.7,-1.1 v -0.2 h 0.5 c 0.4,-0.2 0.8,-1.3 1.2,-1.6 0.3,-0.2 1.1,-0.5 1.3,-0.7 0.8,-0.8 1.4,-1.8 2.2,-2.6 0.3,0.5 0.8,-0.4 1,-0.5 h 0.5 c 0.1,-0.1 0.1,-0.4 0.2,-0.5 1.9,-1 3.9,-1.9 5.6,-3.1 0.7,-0.5 1.8,-0.5 2.3,-0.9 0.1,-0.1 0.1,-0.1 0.1,-0.4 1.4,-0.1 2.6,-1.1 3.7,-1.6 0.5,-0.2 0.9,-0.1 1.3,-0.4 0.1,-0.2 0.2,-0.3 0.2,-0.5 0.3,-0.2 0.6,-0.1 1,-0.2 0.2,-0.2 0.3,-0.3 0.5,-0.5 0.5,-0.2 1.8,-0.2 1.8,-0.2 0.7,-0.3 1.2,-1 2.2,-1.1 0,-0.3 0,-0.2 0.1,-0.4 0.3,-0.1 0.8,0.1 1.3,-0.1 0.3,-0.1 0.3,-0.5 0.5,-0.6 h 0.9 c 0.4,-0.1 0.8,-0.5 1.2,-0.6 0.3,0.1 1.5,0 2.1,-0.2 0.3,-0.1 1,-0.3 1.3,-0.5 l 0.6,-0.6 c 0.3,-0.1 0.5,0.2 0.6,0.1 1.1,-0.3 2.1,-1.4 2.8,-2.2 -0.1,-1.1 -0.3,-2.5 -0.9,-3.3 0.1,-0.7 0.2,-0.4 0.4,-0.6 0,-0.4 -0.1,-0.7 -0.1,-1.1 h -0.4 c -0.1,-1.6 -0.3,-3.1 -1.3,-4 -0.2,-0.1 -1.3,-0.4 -1.8,-0.1 -0.1,0.1 -0.1,0.4 -0.2,0.5 -1.1,0.6 -1.8,0.3 -2.6,0.4 -1.1,0.1 -2.2,0.6 -3.1,0.9 v 0.6 c -0.7,0.1 -2,1 -2.7,1.2 -0.5,0.2 -1,-0.1 -1.3,0.1 -0.6,0.3 -1.1,1.1 -1.7,1.3 h -0.9 c -0.1,0 -0.1,0.3 -0.2,0.4 -0.2,0.1 -0.7,-0.1 -0.7,-0.1 0,0.1 -0.1,0.2 -0.1,0.4 -0.4,0.1 -0.9,0.2 -1.3,0.2 -0.1,0 -0.1,0.3 -0.2,0.4 -0.1,0 -0.2,-0.4 -0.5,-0.2 -0.1,0.1 -0.1,0.4 -0.2,0.5 -0.4,0 -0.8,-0.1 -1.2,-0.1 -0.1,0.2 -0.2,0.3 -0.4,0.5 -0.5,0.3 -1.2,0.1 -1.6,0.7 -0.4,-0.1 -0.4,-0.1 -0.6,-0.5 -0.2,0.3 -0.1,0.4 -0.2,0.7 -0.4,0 -0.2,0 -0.5,0 -0.1,0.3 0,0.1 0,0.4 -0.7,0 -0.4,0.1 -0.6,0.2 -0.7,0.5 -3.6,1.5 -5,1.5 -0.1,0.2 -0.1,0.2 -0.1,0.5 -1.4,-0.5 -2.8,0 -4.4,0.4 -1,0.2 -1.9,-0.4 -2.6,0 h -0.1 c 0,-1 0.2,-0.5 0.5,-1.2 -0.3,-1.1 0.6,-1.7 1,-2.4 0.3,-0.6 0.3,-1.6 0.7,-2.1 0.1,-0.1 0.5,-0.1 0.6,-0.2 0,-0.3 -0.1,-0.6 -0.1,-0.9 0,-0.1 0.3,-0.4 0.4,-0.5 v -0.7 c 0.1,-0.3 0.5,-0.3 0.6,-0.5 0.1,-0.4 0.2,-0.9 0.2,-1.3 0.1,-0.2 0.5,-0.3 0.6,-0.5 v -0.9 c 0.1,-0.2 0.7,-0.4 0.9,-0.6 v -0.5 c 0.2,-0.3 0.6,-0.7 0.7,-1.1 l -0.1,-0.4 c 0.4,-0.9 1.9,-2 2.6,-2.9 0.1,-0.2 0.5,-0.2 0.6,-0.4 V 56 c 0.1,-0.3 0.4,-1.1 0.6,-1.5 0.1,0 0.2,-0.1 0.4,-0.1 0.1,-0.2 -0.1,-0.7 0.1,-1.1 0.1,-0.2 0.4,-0.1 0.6,-0.2 l -0.1,-0.2 c 0.1,-1 0.8,-1.6 1.1,-2.6 0.4,-1.1 1.6,-3.1 2.3,-4.4 -0.1,-0.1 0.2,-1.2 0.4,-1.6 0.5,-1.3 1.6,-2.8 2.1,-4.2 0,-0.2 -0.1,-0.3 -0.1,-0.5 0.1,-0.3 0.5,-0.5 0.6,-0.7 0.3,-0.6 0.2,-1 0.5,-1.5 0.2,-0.1 0.3,-0.2 0.5,-0.4 v -0.7 c 0.2,-0.2 0.5,-0.4 0.7,-0.6 0.5,-1 0.5,-1.9 0.9,-2.9 0.3,-0.9 1.2,-2 1.2,-3.2 0.5,0 0.5,-0.1 0.7,-0.2 0.1,-0.3 0.6,-1.9 0.4,-2.4 -0.3,-0.7 -0.8,-0.8 -0.7,-1.6 -0.3,0.1 -0.4,0.1 -0.6,0.2 -0.5,-0.1 -0.4,-0.2 -0.7,-0.4 0,-0.2 -0.1,-0.4 -0.1,-0.6 -0.3,0 -0.3,0 -0.5,-0.1 -0.5,-0.3 -0.2,-0.5 -1,-0.6 0.1,-0.2 0.1,-0.2 0.1,-0.5 -0.7,-0.1 -0.8,-0.5 -1.1,-1 -0.6,0 -1.1,0.2 -1.5,0.1 -0.1,0 0,-0.3 -0.4,-0.2 -0.5,0.1 -0.5,0.3 -1.2,0.4 0,0.3 0,0.2 -0.1,0.4 -0.1,0.1 -0.5,-0.1 -0.7,0.1 -0.5,0.4 -0.4,1.5 -0.7,2.1 -0.4,0.5 -1.1,1 -1.5,1.6 0,0.2 -0.1,0.4 -0.1,0.6 -0.2,0.3 -0.8,0.4 -1,0.7 0,0.2 -0.1,0.5 -0.1,0.7 -0.2,0.2 -0.5,0.4 -0.7,0.6 -0.2,0.3 -0.2,0.6 -0.4,0.9 -0.2,0.3 -0.7,0.4 -1,0.6 -0.3,0.3 -0.4,0.8 -0.7,1.1 -0.3,0.3 -0.8,0.3 -1,0.4 -0.3,0.2 -0.6,0.7 -1,1 -0.2,0 -0.3,0.1 -0.5,0.1 l -0.1,0.5 c -0.2,0 -0.4,0.1 -0.6,0.1 -0.1,0.1 -0.1,0.4 -0.2,0.5 -0.2,0 -0.5,0.1 -0.7,0.1 -0.6,0.4 -1.1,1.3 -1.7,1.7 -0.4,0.2 -0.8,0.3 -1.1,0.6 -0.3,0.4 -0.4,0.8 -0.9,1.1 v 0.4 h -0.2 c -0.1,0 -0.5,0.1 -0.4,0.2 0,0 0.2,0.2 0.1,0.4 -0.2,0.3 -0.8,0.6 -1.1,0.9 l -0.1,0.4 c -0.1,0.1 -0.4,0 -0.5,0.1 V 41 c -0.1,0.2 -0.4,0.2 -0.5,0.4 -0.2,0.4 -0.1,0.6 -0.4,1 -0.2,0.2 -0.5,0.3 -0.7,0.5 -0.3,0.3 -1.7,2 -1.8,2.3 -0.2,0.4 -0.1,0.8 -0.4,1.2 -0.2,0.3 -0.7,0.5 -0.9,0.7 -0.4,0.6 -0.3,1.2 -0.7,1.7 -0.2,0.2 -0.6,0.4 -0.7,0.6 -0.2,0.3 -0.2,1.1 -0.2,1.2 -0.3,0.4 -1.2,0.6 -1.5,1 v 0.5 c -0.4,0.3 -0.7,0.6 -1.1,0.9 v 0.4 c -0.8,0.2 -1.1,0.8 -2,0.9 v 0.5 c -0.5,0.1 -1.9,1 -2.2,1.3 l -0.1,0.5 c -0.3,0.3 -0.3,-0.1 -0.6,0 -1.3,0.6 -2.1,2.4 -3.9,2.4 v 0.4 c -0.8,0.3 -3.3,1.6 -3.7,2.3 -0.5,0 -0.6,0.1 -0.7,-0.2 -0.2,0.3 -0.2,0.7 -0.4,1 -0.3,0.2 -0.7,0.3 -1.1,0.4 v 0.4 c -0.5,0 -0.7,0.1 -1.1,0 -0.5,1 -1.1,0.5 -1.7,1.1 -0.2,0.2 -0.2,0.6 -0.4,0.9 -0.2,0.2 -0.7,0.2 -0.9,0.4 -0.2,0.2 -0.2,0.6 -0.5,0.7 -0.2,0 -0.4,0.1 -0.6,0.1 -0.1,0.1 -0.1,0.4 -0.2,0.5 -0.4,0.3 -1,0.1 -1.3,0.4 -0.1,0.1 -0.1,0.1 -0.1,0.4 -0.3,0 -0.3,0 -0.5,0.1 -0.1,0.1 -0.1,0.1 -0.1,0.4 -0.4,0 -0.6,0 -0.9,-0.1 -0.2,0.3 -0.3,0.4 -0.6,0.6 v 0.1 c -0.1,-0.1 -0.2,-0.2 -0.2,-0.2 -0.4,0.2 -0.4,0.9 -0.7,1.1 h -0.5 c -0.2,0.3 -0.4,0.6 -0.6,0.9 -0.5,0.3 -2.1,1.1 -2.8,1.1 v 0.5 c -0.4,0 -0.4,0.1 -0.6,0 -0.4,0.3 -0.8,1.5 -1.8,1.2 -0.4,1.1 -2.5,2.2 -3.5,1.5 -0.4,-0.2 -0.6,-0.4 -0.7,-0.9 -0.6,0.1 -0.6,-0.1 -1,-0.1 v -0.5 c -0.5,0.1 -1.2,0.4 -1.7,0 l -0.1,-0.4 c -0.2,0 -0.5,0.1 -0.7,0.1 -0.2,-0.1 -0.3,-0.5 -0.5,-0.6 -0.4,-0.2 -0.8,0 -1.2,-0.2 C 96.6,72.2 96.5,72 96.3,71.8 96,71.6 95.8,71.7 95.6,71.6 l -0.4,-0.5 c -0.3,-0.2 -0.7,-0.2 -1,-0.4 -0.1,-0.3 -0.1,-0.1 0.1,-0.4 V 70.1 C 94.1,70.2 94,70.3 93.8,70.5 93,70.4 92.3,70 92,69.4 c -0.1,0.1 -0.1,0.1 -0.1,0.4 -0.3,0 -0.3,0 -0.5,-0.1 -0.3,-0.2 -0.2,-0.1 -0.2,-0.5 -1,0.1 -0.8,-0.2 -2.1,-0.2 -0.1,-0.2 -0.2,-0.4 -0.2,-0.6 -0.4,0.1 -0.4,0.3 -0.7,0.2 -0.4,-0.1 -0.9,-0.8 -1.2,-0.9 -0.2,0.1 -0.5,0.2 -0.7,0.2 0,0 -0.5,-0.5 -0.5,-0.5 -0.7,-0.2 -1.1,0 -1.6,-0.4 -0.1,-0.2 -0.2,-0.3 -0.4,-0.5 -0.5,-0.2 -1.6,0.1 -2.3,-0.1 -1.1,-0.3 -1.9,-0.9 -3.3,-0.9 -0.1,-0.2 -0.1,-0.2 -0.1,-0.5 -1.4,0.3 -2.7,-0.8 -4,-1.1 v -0.5 c -0.3,0.1 -0.4,0.1 -0.6,0.2 -0.6,-0.8 -1.4,-0.5 -2.2,-1.1 -0.1,-0.2 0,-0.1 0,-0.4 0,0 -0.1,-0.1 -0.1,-0.1 -0.5,0.1 -0.8,0.6 -1.3,0.4 C 68.1,61.8 65.7,60.8 63.5,60.9 62.9,60.6 62.3,60.2 61.8,60 H 59 c -0.3,-0.1 -1.2,-0.4 -1.5,-0.5 -0.7,-0.2 -1.7,0.7 -2.8,0.4 -0.2,-0.1 -0.6,-0.4 -0.7,-0.5 -0.4,-0.2 -1.3,0.1 -2.1,-0.1 -0.5,-0.1 -1.4,-0.1 -2,-0.4 -0.1,-0.1 -0.2,-0.2 -0.2,-0.4 -0.6,-0.2 -0.5,0.4 -1.1,0.2 l -0.2,-0.4 c -0.7,-0.3 -1.1,0.1 -1.7,-0.1 -1.1,-0.3 -2.7,-1 -3.8,-1.3 -0.2,-0.1 -0.3,0.3 -0.6,0.2 -0.9,-0.2 -2.1,-0.5 -3.1,-0.7 -0.4,-0.1 -0.6,0.3 -1,0.2 -0.5,-0.1 -0.7,-0.6 -1.1,-0.7 -0.4,-0.2 -0.7,0 -1,0 -0.1,0 -0.5,-0.3 -0.6,-0.4 -0.1,0 -0.4,0.2 -0.7,0.1 0,-0.1 -0.1,-0.2 -0.1,-0.2 -0.4,-0.2 -3,-0.5 -3.2,-0.5 0,-0.1 -0.1,-0.2 -0.1,-0.4 H 30.7 C 30.5,54.4 30.2,54.1 30,54 h -0.9 c -0.2,-0.1 -0.4,-0.4 -0.6,-0.5 -0.2,0.1 -0.4,0.2 -0.6,0.2 -0.9,0.1 -4.1,-0.3 -4.4,-0.5 -0.2,-0.3 -0.1,-0.3 0,-0.6 -0.3,0.2 -0.1,-0.1 -0.2,0.2 -0.5,-0.1 -0.4,-0.1 -0.6,-0.5 -0.6,0.1 -0.5,0.4 -1,0.4 -0.6,-0.1 -1.5,-0.9 -2.3,-0.4 -0.9,0.5 -0.7,1.4 -1,2.6 -0.2,0.5 -0.6,1.8 -0.4,2.3 0.2,0.1 0.3,0.2 0.5,0.4 0.3,0.6 -0.2,0.8 -0.1,1.2 0.1,0.6 2.4,2.3 3.1,2.7 0.1,0.2 0,0.1 0.1,0.2 0.3,-0.6 1.1,0.5 1.5,0.6 0.5,0 1,-0.1 1.5,-0.1 0.1,0 0.2,0.3 0.2,0.4 0.1,0 0.6,0 0.9,0.1 l 0.1,0.4 c 0.1,0 1.2,-0.2 1.6,-0.1 1.4,0.4 2.8,0.3 4.4,0.9 0.4,0.1 1.1,0.6 1.5,0.7 0.4,0 0.9,0.1 1.3,0.1 l 0.2,0.4 c 0.4,0 0.7,0.1 1.1,0.1 0.2,0.1 0.4,0.4 0.6,0.5 0.8,0.3 1.3,0.1 2,0.5 0.5,0.2 0.9,0.9 1.3,1.1 1.1,0.6 2.3,0.8 3.3,1.3 0.1,0.2 0.2,0.3 0.4,0.5 0.4,0.3 0.8,0.2 1.3,0.5 0.3,0.2 0.6,0.7 1,0.9 0.5,0.2 0.8,0.1 1.2,0.4 0.1,0.2 0.2,0.3 0.2,0.5 h 0.7 c 0.7,0.3 1.4,1 2.1,1.3 0.5,0.2 0.7,-0.1 1.1,0.2 0.2,0.2 0.4,0.8 0.6,1 0.2,0 0.5,-0.1 0.7,-0.1 0.6,0.2 1.1,0.9 1.6,1.2 0.4,0.1 0.7,0.2 1.1,0.4 0.3,0.1 0.6,0.6 0.9,0.7 0.3,0.2 0.6,0.1 0.9,0.2 0,0.1 0.1,0.2 0.1,0.4 0.3,0.2 0.7,0.1 1,0.4 0.1,0.2 0.2,0.3 0.2,0.5 0.7,0.5 1.4,0.5 2.2,0.9 0.4,0.2 0.8,0.7 1.2,0.9 h 0.5 l 0.1,0.4 c 0.6,0.1 1.1,0.2 1.7,0.2 0.6,0.2 1,0.5 1.7,0.5 l 0.1,0.1 c -0.1,0.4 0.1,0.2 -0.2,0.4 -0.8,0.3 -3.9,-0.7 -5.1,-1.2 -0.3,0 -0.6,0.1 -0.9,0.1 -0.7,-0.2 -1.5,-1.1 -2.3,-1.2 -0.2,0 -0.3,0.3 -0.7,0.2 -0.2,0 -0.7,-0.4 -0.9,-0.5 -0.6,-0.2 -1.6,0 -2,-0.1 v -0.2 h -0.2 c -0.1,0 -0.4,0.3 -0.7,0.1 V 78 c 0,0 -0.4,-0.1 -0.4,-0.1 -1.2,-0.4 -3.9,-0.4 -4.3,-1.3 -0.3,0.2 -0.1,0 -0.2,0.4 -0.5,-0.1 -0.7,-0.4 -1,-0.5 -0.2,0 -0.4,0.1 -0.6,0.1 -0.3,0 -2.3,-0.1 -2.7,-0.2 -0.3,-0.1 -1,-0.5 -1.3,-0.6 -0.2,0.1 -1.4,0.1 -1.6,0 -0.1,-0.1 -0.2,-0.2 -0.2,-0.4 -0.4,-0.1 -1.1,0.2 -1.5,0.1 -0.1,-0.1 -0.2,-0.2 -0.4,-0.4 L 36,74.7 c -0.2,0.1 -0.3,0.6 -0.9,0.4 l -0.2,-0.4 c -0.2,0 -1.9,0.3 -2.2,0.4 -0.5,0.1 -0.9,-0.3 -1.1,-0.2 -0.7,0.2 -2.1,0.4 -3.2,0.6 -0.9,-0.1 -1.8,-0.2 -2.7,-0.2 -1.2,0.3 -4.5,0.5 -5.3,0 -1.8,1 -4.2,0.1 -6.1,0.2 l 0.1,0.4 c -1.2,0.3 -4.8,0.1 -5.3,-0.1 -0.8,0.1 -0.8,0.5 -1.5,0.7 0,1.2 -0.2,2.1 0.1,3.2 0.2,0.6 0.7,1.5 0.9,2.2 0.7,0.2 1,0.7 1.5,1 0.6,0.4 1.1,0.2 1.8,0.5 0.8,0.3 1.6,1.1 2.3,1.3 V 85 c 0.3,0 0.2,0 0.4,0.1 0.7,0.1 1.2,0.9 1.5,1.3 0.1,0.3 0,0.7 0,0.7 0.3,0.5 1.2,0.8 1.5,1.3 0,0.2 0.1,0.5 0.1,0.7 0.5,0.7 1.9,2.2 2.7,2.7 v 0.4 c 0.8,0.1 0.8,0.6 1.3,0.9 0.6,0.3 1.2,0.2 1.8,0.5 0.6,0.3 1.3,0.9 1.8,1.1 0.7,0.3 1.3,0.2 2,0.5 l 0.2,0.4 c 0.9,0.4 2.2,0.4 2.9,0.5 0.3,0 0.7,-0.1 1,-0.1 l 0.6,0.6 c 0.6,0.3 1.2,-0.1 1.7,0.1 0.2,0.1 0.2,0.4 0.4,0.5 h 1.2 c 0.3,0.1 1.2,0.3 1.5,0.5 h 0.1 c 0.1,0.2 -0.1,0.2 -0.1,0.2 0.6,1 1,-0.2 2.1,0.2 0.1,0.1 0.2,0.2 0.2,0.4 0.3,0.1 0.5,-0.1 0.6,-0.1 0.7,0.4 2.4,0.8 3.2,1.1 0.6,0.2 0.9,-0.1 1.3,0 0.4,0.2 0.7,0.5 1.5,0.5 v 0.4 c 0.1,0 0.2,0.1 0.2,0.1 0.2,0.2 0.7,-0.4 1.1,-0.2 0.5,0.2 0.7,0.7 1.2,0.6 -0.5,0.9 -2.3,0.9 -3.4,1.2 -0.5,0.1 -1.2,0.6 -1.7,0.7 -0.4,0.1 -0.9,-0.2 -1.1,-0.1 -0.1,0.2 -0.2,0.4 -0.4,0.6 h -0.5 c -0.1,0.1 -0.2,0.2 -0.4,0.4 h -0.9 c -0.4,0.1 -0.7,0.5 -1,0.6 -0.4,0.1 -0.7,0.2 -1.1,0.2 -0.1,0.1 -0.2,0.5 -0.4,0.6 -0.2,0.1 -0.7,0 -0.9,0.1 h -0.1 l 0.1,0.2 c -0.5,0.2 -1,0.3 -1.5,0.6 -0.1,0.1 -0.2,0.2 -0.2,0.4 -0.2,0.1 -0.7,-0.1 -0.7,-0.1 v 0.2 c -0.4,0.3 -0.8,0.6 -1.5,0.6 -0.2,0.6 -0.4,0.9 -0.7,1.3 -0.9,0 -0.5,0.1 -0.9,0.6 -0.2,0.2 -0.1,0 -0.4,0 l -0.2,0.5 c -0.2,0 -0.4,0.1 -0.6,0.1 -0.6,0.3 -1.1,1 -1.7,1.3 h -0.9 l -0.1,0.4 v 0 c -0.2,0.2 -0.4,0.4 -0.6,0.6 -0.1,0 -0.4,-0.2 -0.6,0 -0.2,0.1 -0.4,0.5 -0.6,0.6 h -1 c -2.2,0.8 -3.9,0.3 -6.4,-0.7 h -0.7 l -0.9,-0.9 c -0.3,-0.2 -0.1,0.2 -0.4,0 -0.9,-0.6 -0.8,-2.2 -1.6,-2.9 -0.8,-0.7 -0.8,0.1 -1.2,0 -0.1,0 -0.3,-0.2 -0.9,-0.2 -0.1,0.9 -1,1.6 -0.4,2.4 0,1.7 0.7,1.1 1.1,2 0.5,1.1 0.2,1.8 0.7,2.7 0.2,0.3 0.6,0.4 1,0.6 0.3,0.2 0.4,0.7 0.7,1 0.7,0.5 1.4,0.9 2,1.5 0.1,0.1 0.1,0.1 0.1,0.4 h 0.4 l 0.1,0.1 v 0.5 c 0.7,0.2 1.8,1 2.4,0.5 0.6,0.1 0.3,0.3 0.6,0.6 0.6,-0.5 1.4,0.6 1.7,0.9 0.2,-0.4 1.2,0.1 1.5,0 0.7,-0.2 1.4,-0.5 2.1,-0.6 0.4,-0.1 1.1,0.3 1.7,0.1 0.1,0 0.5,-0.4 0.5,-0.4 0.4,-0.1 0.2,0.3 0.4,0.4 0.2,0.1 0.6,-0.1 0.6,-0.1 0.5,-0.1 0.6,0.2 0.9,0.4 0.1,0 0.9,-0.3 1,-0.2 0.1,0.1 0.2,0.2 0.2,0.4 0.3,0.1 0.5,-0.2 0.6,-0.1 0.4,0.1 0.8,0.6 1.2,0.5 0.6,-0.2 1.7,-0.1 2.4,0 0.7,0 1.5,-0.1 2.2,-0.1 0.1,0.1 0.2,0.2 0.2,0.4 0.3,0.1 0.3,-0.2 0.6,-0.2 0.9,-0.1 1.9,0.4 2.4,0.7 0.1,0 0.4,-0.2 0.4,-0.2 0,0 2.7,0.3 2.8,0.4 h 0.1 c 0,0.1 0.1,0.2 0.1,0.4 0.4,0.2 0.6,-0.3 0.7,-0.2 1.2,0.4 2.6,0.5 4,0.7 0.4,0.1 0.5,-0.2 0.6,-0.2 h 0.2 c 0,0.1 0.1,0.2 0.1,0.4 0.3,0.2 0.8,0 1,0.1 0.6,0 0.6,-0.1 0.9,-0.5 0.5,0 1.1,0.1 1.6,0.1 0,0 0.2,0.3 0.2,0.4 0.6,0.2 1.2,-0.1 1.6,-0.1 -0.3,0.6 -0.8,1.3 -1.3,1.7 -0.3,0.2 -0.8,0.2 -1.1,0.5 v 0.4 c -0.2,0.2 -0.7,0.2 -0.9,0.4 -0.5,0.5 -0.9,1.4 -1.5,1.8 -0.2,0.2 -1.1,0.6 -1.2,0.7 0,0.2 -0.1,0.3 -0.1,0.5 -0.4,0.5 -1,0.9 -1.3,1.5 v 0.5 H 48 c -0.4,0.5 -0.5,0.9 -0.9,1.5 -0.2,0.1 -0.4,0.2 -0.6,0.4 -1.6,1.9 -2,2.8 -4.4,4.2 -0.5,0.3 -1,1.1 -1.6,1.3 -0.3,0.1 -0.4,-0.2 -0.5,-0.1 -2,0.8 -3.7,0.9 -6,1.5 -1.1,0.2 -2.1,-0.3 -2.7,0.2 -0.1,-0.1 -0.1,-0.1 -0.1,-0.4 -2.2,0.8 -2.9,-0.6 -4.4,-1.2 -0.2,-0.1 -0.9,0.1 -1.3,0 -0.4,0.4 -0.9,0.6 -1.1,1.2 -0.1,0.2 -0.1,0.5 -0.1,0.6 0.1,0.9 0.9,1 1.1,2 0.4,0.1 0.7,0.2 1.1,0.2 0.2,0.8 1.3,0.9 2,1.2 0.3,0.1 0.6,0.6 0.9,0.7 0.1,0.1 0.4,-0.2 0.6,0 0.1,0.2 0.2,0.3 0.4,0.5 1.1,0.5 3.2,0 4.2,0.1 0.8,0.1 2.7,-0.4 3.8,-0.5 0.2,0 1,0.3 1.5,0.1 0.1,-0.2 0.2,-0.3 0.4,-0.5 0.3,-0.2 1.8,-0.4 2.1,-0.5 0.9,0 1.8,0.1 2.7,0.1 0.6,-0.1 1.5,-0.4 2.3,-0.2 0.4,0.1 2.7,0.6 3.1,0.5 0.1,0 0.2,-0.2 0.4,-0.2 0.6,0.3 1.3,0.5 2.3,0.4 0.2,0.2 0.3,0.3 0.5,0.5 0,0 1.4,-0.3 1.7,-0.2 1.2,0.2 2.6,0.5 3.9,0.2 0.7,-0.1 1.2,0.5 1.7,0.4 0.1,0 0.6,-0.3 0.7,-0.4 0.6,0 1.2,0.1 1.8,0.1 1.4,-0.3 3.8,-0.2 4.5,-1 0.3,0.1 0.3,0.1 0.5,0.4 3.5,-1.1 5.8,-2.2 8.7,-4.5 0.7,-0.6 0.9,-1.6 1.6,-2.2 h 0.4 c 0.4,-0.3 0.7,-1 1.1,-1.2 h 0.4 c 0.8,-0.6 1.3,-1.8 2,-2.6 0.3,-0.2 0.6,-0.3 0.9,-0.5 0.1,-0.3 -0.2,-0.3 0,-0.6 0.2,-0.1 0.4,-0.2 0.6,-0.4 0.2,-0.3 0.2,-0.8 0.5,-1.1 0.5,-0.5 1.4,-1.1 1.7,-1.7 0.2,-0.5 0.2,-0.8 0.5,-1.2 0.4,-0.5 1.3,-1.1 1.7,-1.6 0.9,-1.1 1.4,-2.5 2.9,-2.9 l 0.1,-0.6 c 1.6,-0.3 2.8,-3.6 3.8,-4.8 0.3,-0.5 1.9,-0.1 2.8,-0.4 0.4,-0.1 0.6,-0.5 0.9,-0.6 h 1.1 c 0.7,-0.3 2.4,-0.6 3.2,-1.2 0.4,0.1 0.3,0.2 0.6,0.4 0.1,0 0.1,0 0.2,-0.2 0.4,0.1 1,0.4 1.3,0.6 0.2,-0.1 0.7,-0.4 1.1,-0.1 0,0.1 0.1,0.2 0.1,0.4 0.3,-0.1 0.2,0 0.4,-0.4 0.6,0.3 2.6,0.7 3.4,0.9 0.2,0 0.6,-0.2 1,0 1.6,0.7 2.1,1.3 3.9,1.1 v 0.4 c 0.1,0 1.8,-0.1 1.8,-0.1 0.2,0.2 0.3,0.4 0.5,0.6 0.4,0.1 0.6,-0.1 1.2,0.2 0.2,-0.3 0.4,-0.4 0.7,-0.6 0.5,0.8 1.5,0.2 1.8,0.9 0.4,-0.2 0.4,-0.3 0.5,-0.7 1.7,0.8 2.8,2.4 3.9,3.8 0.4,0.5 0.8,0.1 1.3,0.5 0.6,0.4 1.1,1.1 1.7,1.6 v 0.4 c 0.7,0.1 0.7,0.4 1.2,0.4 0.2,0.9 1.1,2.1 1.7,2.6 0.2,0.2 0.5,0.2 0.6,0.4 0.2,0.2 0.1,0.6 0.4,0.7 0.1,0 0.2,-0.1 0.4,-0.1 0.1,0.1 0.2,0.2 0.2,0.4 h 0.5 c 0.2,0.1 0.5,1 0.7,1.1 l 0.4,-0.1 c 0.4,0.1 1.2,0.6 1.5,0.9 0.4,0.4 0.4,0.9 0.7,1.3 h 0.2 c 0.1,0.2 0.1,0.5 0.2,0.6 0.2,0.2 0.6,0.3 0.7,0.5 0,0.2 0.1,0.5 0.1,0.7 0.2,0.2 0.6,0.3 0.9,0.5 0.5,0.5 0.8,1.4 1.3,1.8 0.8,0.6 1.7,1.6 2.4,2.1 0.2,0 0.4,0.1 0.6,0.1 0.2,0.1 0.3,0.6 0.5,0.7 1.2,1.1 2.2,2.5 3.7,3.3 v 0.1 c 0.1,0.2 0.1,-0.2 0.1,-0.2 0.8,0.3 0.8,0.9 1.2,1.5 0.1,0.2 0.4,0 0.6,0.1 v 0.2 c 0.3,0.4 0.8,0.7 1,0.9 0,0.1 -0.1,0.2 -0.1,0.4 0.3,0.4 0.9,0.5 1.2,1 0.4,0.6 0.4,2.1 0.6,2.4 -0.1,0.4 0,0.3 -0.4,0.5 0.2,0.3 0.4,1.9 0,2.4 -0.1,0.1 -0.4,0.2 -0.5,0.4 0.4,0.9 -1.1,1.5 -1.6,2 -0.1,0.1 -0.1,0.4 -0.2,0.5 -0.8,0.5 -2.5,0.8 -3.3,1.1 -0.7,0.2 -1.2,-0.4 -1.7,-0.2 -0.4,0.1 -0.7,0.5 -1,0.6 -0.3,0.1 -0.8,0 -1,0.1 -0.4,0.3 -0.6,0.8 -1,1.1 0.3,1 0.9,1.5 1.3,2.3 1.1,0 1.9,-0.4 2.6,0.2 0.5,-0.4 1,-0.2 1.7,0.1 0.4,-0.1 1.4,-0.2 1.7,0.1 0.6,-0.3 0.9,-1 1.6,-1.2 0.4,-0.1 1,0.6 1.5,0.2 0.2,-0.1 0.1,-0.5 0.4,-0.6 0.4,-0.1 0.7,0.3 1.1,0 l 0.1,-0.4 c 0.3,-0.2 0.8,-0.1 1.1,-0.4 0.2,-0.2 0.3,-0.7 0.5,-0.9 0.3,-0.3 0.4,0 0.7,-0.1 l 0.9,-0.9 c 0.7,-0.4 1.6,-0.5 2.2,-1 0.1,-0.1 0.1,-0.4 0.2,-0.5 0.6,-0.4 1,-0.5 1.7,-0.9 0.5,-0.2 0.7,-0.9 1.1,-1.2 l 0.5,-0.1 c 0.8,-0.6 1.4,-1.8 2.4,-2.1 v -0.5 c 0.8,-0.2 1.3,-3 1.7,-4 0.2,-0.5 0.7,-0.8 0.9,-1.1 0,-0.7 0.1,-1.5 0.1,-2.2 0,-0.1 0.3,-0.3 0.4,-0.4 v -1 c 0.2,-0.6 0.4,-1.5 0.5,-1.8 0.2,-0.5 -0.2,-1.1 -0.1,-1.3 0.1,-0.1 0.2,-0.2 0.4,-0.2 0.1,-0.4 -0.2,-2.1 -0.2,-2.7 h -0.4 c 0,-0.8 0,-0.9 -0.2,-1.5 0.1,-0.1 0.2,-0.2 0.2,-0.2 -0.1,-0.4 -0.1,-1.1 -0.2,-1.6 -0.1,-0.3 -0.5,-0.7 -0.6,-1 -0.2,-0.7 0,-1.3 -0.5,-1.7 v -0.1 c 0.4,0.1 1.3,0.4 1.6,0.5 0.3,0 0.7,-0.1 1,-0.1 0.1,0.1 0.2,0.2 0.2,0.4 0,0 0.1,-0.1 0.1,-0.1 0.4,-0.1 1.2,-0.2 2,0 1.7,0.5 4.1,0.7 6,0.2 2,-0.4 4,0.5 5,-0.2 0.4,0.1 0.4,0.1 0.5,0.5 0.6,-0.1 0.3,-0.3 0.5,-0.4 0.4,-0.2 2.6,0.4 3.3,0.6 0.2,0 0.5,-0.1 0.7,-0.1 0.2,0.2 0.3,0.3 0.5,0.5 0.3,0.1 0.6,-0.3 1,0 0.8,0.6 1.2,1.8 2.1,2.4 -0.1,0.8 -0.2,1.2 0.2,1.8 -0.1,0.3 -0.1,0.2 -0.4,0.4 0.3,0.5 0,1.2 0.1,1.5 0,0.7 -0.2,0.6 -0.5,1 -0.1,0.3 0.1,0.8 -0.1,1.1 0.1,1 0.7,1.2 1.1,1.8 0.5,-0.1 1,-0.2 1.5,-0.5 -0.4,-0.2 0.6,-0.9 0.7,-1.1 V 140 l 0.5,-0.2 c 0.7,-1.1 1.2,-2 2.3,-2.7 -0.1,-1 0,-3 0.2,-3.9 -0.3,-1.1 -0.5,-1.2 -0.6,-1.7 z M 20.8,116.3 c -0.3,0 -0.6,-0.1 -0.9,-0.1 V 116 c 0.2,0 0.5,0.1 0.7,0.1 l 0.1,0.1 v 0.1 z m 0.8,0.2 c -0.3,0 -0.4,-0.1 -0.6,-0.1 0,-0.1 -0.1,-0.2 -0.1,-0.2 L 21,116 c 0.3,0 0.2,0 0.4,0.1 h 0.2 z m 125.6,-27 h 0.5 c -0.2,0.1 -0.3,0.1 -0.5,0 z m -47,-5.9 c 0.2,-0.3 0.7,-0.5 1,-0.7 0.1,-0.2 0,0 0,-0.2 h 0.1 c 0.2,-0.1 0.2,0 0.6,0 0,-0.3 0,-0.3 -0.1,-0.5 0,-0.3 0,-0.5 0.1,-0.6 0.3,-0.2 0.8,0 1.1,-0.2 0.6,-0.4 0.8,-1.1 1.5,-1.5 v -0.4 c 0.9,-0.2 1.9,-1.5 2.4,-2.2 0.3,-0.4 2.1,-1.4 2.6,-1.7 0.5,-0.3 1,-1.4 1.3,-1.7 0.2,-0.2 0.6,-0.1 0.9,-0.2 0.7,-0.4 1,-1.1 2,-1.2 0.2,-0.9 1,-0.7 1.5,-1.2 1.6,-1.9 4.4,-3 6.5,-4 v -0.4 c 1.7,-0.3 2.7,-1.9 3.9,-2.7 0.8,-0.5 1.7,-0.6 2.4,-1.1 1.9,-1.3 3.7,-2.5 5.7,-3.8 0.2,-0.2 0.4,-0.5 0.6,-0.7 0.9,-0.6 1.7,-1.1 2.6,-1.7 0.3,-0.3 0.6,-0.7 0.9,-1 0.5,-0.3 0.9,-0.2 1.3,-0.5 0.3,-0.3 0.6,-0.7 0.9,-1 0.3,-0.2 0.6,0 0.9,-0.2 0.5,-0.4 0.6,-1.2 1.1,-1.6 v -0.1 c 0.2,-0.1 0.2,0.1 0.2,0.1 0.3,-0.1 0.2,-0.2 0.4,-0.5 -0.3,-0.2 -0.2,-0.1 -0.5,-0.1 0.3,-0.9 0.8,-1.9 1.3,-2.7 0.2,-0.1 0.3,-0.2 0.5,-0.4 v -0.6 c 0.1,-0.3 0.7,-0.7 0.9,-1 0,-0.2 0.1,-0.5 0.1,-0.7 0.4,-0.6 1.2,-1.1 1.6,-1.7 0,-0.2 0.1,-0.5 0.1,-0.7 0.4,-0.6 1.8,-1.4 2.1,-2 0.1,-0.2 -0.2,-0.4 -0.1,-0.5 0.3,-0.5 1.8,-1.1 2.2,-1.6 0.8,-1.1 1.6,-2.1 2.6,-3.1 1.4,-1.4 3.6,-2.2 5,-3.5 1.9,-1.8 4.3,-6.5 6.7,-7.3 V 26 c 0.7,0.3 0.9,1.2 1.5,1.6 0,0.8 -0.4,1.3 -0.4,1.6 -0.1,0.5 0,0.3 -0.5,0.4 -0.1,0.4 0,0.9 -0.2,1.3 -0.2,0.3 -0.7,0.3 -0.9,0.6 -0.2,0.4 0.2,1 0,1.7 -0.1,0.2 -0.4,0.4 -0.5,0.6 -0.2,0.5 0,0.9 -0.2,1.5 -0.2,0.4 -0.6,1.3 -0.9,1.7 -0.3,0.2 -0.6,0.5 -0.9,0.7 v 0.9 c -0.1,0.2 -0.5,0.5 -0.6,0.7 -0.1,0.3 0,0.5 0,0.6 -0.1,0.1 -0.2,0.2 -0.4,0.2 -0.3,0.5 -0.2,1.1 -0.5,1.6 -0.3,0.4 -1,0.8 -1.2,1.3 -0.3,0.6 0,1.1 -0.2,1.7 -0.2,0.2 -0.4,0.4 -0.6,0.6 -0.2,0.3 -0.1,0.6 -0.2,0.9 -0.3,0.2 -0.6,0.5 -0.9,0.7 -0.5,0.7 -0.5,1.6 -1,2.3 -0.1,0.1 -1.5,1.8 -1.6,1.8 h -0.4 c -0.7,0.6 -1,2.4 -1.6,3.2 -0.6,0.9 -1.8,1.7 -2.4,2.6 -0.2,0.3 0.1,0.7 0,0.9 -0.2,0.5 -0.8,0.8 -1,1.6 H 149 c -0.1,0.9 -0.4,1 -0.7,1.6 -0.3,0.6 -0.1,1.2 -0.1,1.7 0,0.3 -1.3,2.4 -1.5,2.8 -0.4,0.9 -0.3,2.1 -0.6,3.2 -0.1,0.2 -0.4,0.7 -0.5,0.9 -0.4,1.1 -0.1,2.6 -0.5,3.8 -0.1,0.3 -0.3,0.3 -0.4,0.9 -0.8,-0.4 -0.4,-0.1 -0.9,0.2 -0.2,0.1 -0.7,0.2 -0.9,0.2 -0.5,-0.1 -0.9,-0.5 -1.3,-0.4 -0.5,0.1 -1.4,0.5 -2.1,0.4 -0.1,0 -1.2,-0.1 -1.8,0.1 -0.1,0.1 -0.2,0.2 -0.4,0.4 -0.3,0.1 -1.1,-0.2 -1.6,-0.1 -0.3,0 -0.5,0.2 -0.7,0.2 -0.4,0 -0.7,-0.1 -1.1,-0.1 -0.5,0.1 -1.3,0.2 -2,0.4 -1.6,0.4 -3.3,1.2 -4.6,1.8 -0.3,0 -0.7,0.1 -1,0.1 -0.2,0.1 -0.1,0.5 -0.2,0.6 -0.4,0.4 -1.1,0.2 -1.6,0.5 -0.1,0.2 -0.2,0.4 -0.4,0.6 h -0.5 c -0.3,0.2 -0.6,0.6 -1,0.7 H 122 c -0.2,0.2 -0.4,0.4 -0.6,0.6 v 0.4 c -0.9,0 -1.5,0.1 -1.6,0.9 -0.7,0.1 -1.3,0.6 -1.8,0.9 -0.4,0.1 -0.7,0.2 -1.1,0.2 -0.2,0.1 -0.3,0.6 -0.5,0.7 -0.4,0.1 -0.9,0.2 -1.3,0.4 0,0.2 -0.1,0.3 -0.1,0.5 -0.5,0 -1,0.1 -1.5,0.1 -0.3,0.2 -0.8,0.7 -1.2,0.9 -1,0.4 -1.9,0.4 -2.9,0.9 l -0.4,0.4 c -0.4,0 -0.7,-0.1 -1.1,-0.1 -0.3,0.1 -0.5,0.5 -0.7,0.6 -0.4,0 -0.8,0.1 -1.2,0.1 -0.5,0.1 -1.2,0.5 -1.7,0.6 -0.5,0.1 -1.4,-0.2 -2.1,0 -0.8,0.3 -1.3,1.1 -2.2,1.3 -0.8,0 -1.6,0.1 -2.4,0.1 -0.2,0.1 -0.7,0.4 -0.9,0.5 -0.5,0.2 -0.9,0 -1.2,0.2 h -0.2 c 0.2,-0.5 0.5,-0.5 0.6,-1.1 h 0.4 c 0.4,-0.8 1.2,-2 2,-2.6 0.2,0 0.3,-0.1 0.5,-0.1 0.2,-0.5 0.3,-1 0.5,-1.5 0.1,-0.2 0.4,0 0.6,-0.1 0.1,-0.2 0.1,-0.7 0.3,-1 z m -2.5,-1.5 h 0.4 c -0.2,0.1 -0.2,0.1 -0.4,0 z M 64.9,75.8 C 64,76.1 62.4,74.4 62,74.2 61.5,74 61.4,74.4 61,74.1 60.7,74 60.8,74 60.8,73.6 59,73.8 58,72.9 57,72.3 56.5,72 56.1,72.5 55.7,72.2 c 0,-0.2 -0.1,-0.3 -0.1,-0.5 -0.2,-0.2 -0.4,0 -0.5,0 -0.2,-0.1 -0.2,-0.4 -0.4,-0.5 v -0.1 h -0.5 c -0.1,-0.2 -0.2,-0.4 -0.4,-0.6 -0.4,0 -0.7,0.1 -1.1,0.1 -0.2,-0.1 -0.6,-0.5 -0.9,-0.6 -0.7,-0.4 -1.6,-0.5 -2.2,-1 -0.1,-0.2 -0.2,-0.1 0,-0.2 -0.4,-0.6 -0.3,0 -0.9,-0.2 C 48.5,68.4 48.4,68.2 48.2,68 48,67.8 47.5,68 47.4,68 47,67.9 46.6,67.3 46.3,67 45.8,66.8 45.3,66.7 44.8,66.5 44.6,66.3 44.5,66.1 44.3,65.9 44,65.7 43.8,65.8 43.4,65.7 43.3,65.5 43.2,65.4 43,65.2 c -0.3,0 -0.7,-0.1 -1,-0.1 -0.2,-0.2 -0.4,-0.5 -0.6,-0.7 -0.2,-0.1 -0.6,0.2 -0.6,0.1 -0.1,-0.2 -0.2,-0.4 -0.4,-0.6 H 40 c -0.3,-0.1 -0.5,-0.5 -0.7,-0.6 h -0.6 c -0.9,-0.3 -1.6,-0.6 -2.6,-1 -0.3,-0.1 -2.6,-1.2 -2.8,-1.2 -1.2,0 -2.4,-0.3 -3.4,-0.7 C 29,60.6 25.7,60.3 25.1,59.8 25,59.7 25,59.3 24.9,59.2 24.6,59 24.2,59.3 23.9,59 c 0,-0.3 -0.1,-0.6 -0.1,-0.9 -0.2,-0.3 -0.9,-0.3 -1.1,-0.6 -0.1,-0.1 0,0 -0.1,-0.2 0.1,-0.1 0.2,-0.2 0.2,-0.4 1.7,-0.3 3.7,-0.4 5.4,0.1 h 2 c 1,0.3 2.1,0.9 3.1,1.2 H 34 c 1.2,0.4 2.8,0.8 4.2,1.1 0.6,0 1.1,0.1 1.7,0.1 0.8,0.2 2,0.7 2.8,1 0.5,0.1 1.7,0.1 2.1,0.4 0.2,0.1 0.3,0.5 0.6,0.6 1.1,0.3 1.9,-0.3 3.1,0 3,0.8 6.6,0.6 9.6,1.5 0.7,0.2 1.8,-0.3 2.2,-0.1 l 0.2,0.4 c 0.7,0.3 1.4,0 2.1,0.2 l 0.5,0.5 c 0.4,0.2 1.3,0.1 2.1,0.4 0.4,0.1 0.8,0.5 1.2,0.6 0.2,0 0.4,-0.1 0.6,-0.1 l 0.1,0.4 c 0.5,0 1,0.1 1.5,0.1 0.1,0.1 0.2,0.2 0.2,0.4 h 0.9 c 1.1,0.4 2.7,0.8 3.8,1.2 h 0.7 c 0.2,0.2 0.3,0.3 0.5,0.5 h 1.1 c 0.3,0.1 0.4,0.4 0.6,0.5 0.4,0.2 0.9,0 1.3,0.2 0.5,0.2 1.1,0.8 1.8,1 H 81 c 0.7,0.2 1.3,0.8 2,1 h 1.8 c 0.5,0.1 1.1,0.6 1.6,0.7 0.9,0.3 1.8,0.3 2.6,0.7 0.4,0.2 1,0.9 1.5,1.1 0.4,0 0.9,0.1 1.3,0.1 0.3,0.1 0.7,0.6 1,0.7 0.8,0.5 1.6,0.8 2.4,1.3 0.9,0.6 1.3,1.7 2.7,2 0,0.2 0.1,0.5 0.1,0.7 0.8,0.1 1.1,0.4 1.6,0.7 -0.4,1 -1.1,1.1 -2,1.6 -0.3,0.2 -0.2,0.8 -0.5,1 -0.3,0.2 -0.6,0 -0.7,0.2 -0.4,0.7 -0.5,1.6 -1,2.3 -0.3,0.2 -0.6,0.5 -0.9,0.7 -0.5,0.7 -0.8,1 -1.5,1.6 -1.1,-0.1 -2.2,-0.7 -3.1,-1 -1.5,-0.5 -2.3,0.2 -3.8,-0.2 -1.4,-0.4 -3.3,-0.7 -4.8,-1.1 -0.6,0 -1.2,-0.1 -1.8,-0.1 C 79,83 78.6,82.7 78,82.6 77.9,82.4 77.8,82.2 77.8,82 76.1,81.8 74,81.4 72.5,80.5 72,80.2 71.5,79.3 70.9,79 h -0.6 c -0.1,-0.2 -0.2,-0.4 -0.2,-0.6 h -0.4 l -0.4,-0.5 c -0.3,0 -0.7,-0.1 -1,-0.1 C 68,77.6 68.1,77.3 67.9,77.1 67.7,76.9 67.3,77 67,76.9 c -0.4,-0.3 -1.1,-1 -1.5,-1.3 -0.2,-0.1 -0.3,0.1 -0.6,0.2 z m 1.9,5.4 c -0.2,-0.1 -0.1,0 -0.2,-0.1 0.2,0.1 0.1,0 0.2,0.1 z m -0.6,-0.4 c 0.1,0 0.4,-0.1 0.4,0.1 -0.3,0 -0.1,0.2 -0.4,-0.1 z M 48.4,97.4 c -0.1,0 -0.3,0.2 -0.6,0.1 l -0.2,-0.4 c -0.7,-0.3 -1.7,0 -2.4,-0.2 -0.4,-0.2 -0.9,-0.7 -1.3,-0.9 -0.7,-0.1 -1.4,-0.2 -2.1,-0.2 -0.3,-0.1 -1,-0.5 -1.2,-0.6 -0.3,-0.1 -0.7,0.1 -0.7,0.1 -0.6,0.1 -0.5,-0.3 -0.7,-0.4 -0.3,0 -0.7,0.1 -1,0.1 C 38.1,94.9 38,94.8 38,94.6 h -1.3 c -0.3,-0.1 -0.8,-0.4 -1.1,-0.5 h -0.9 c -0.4,-0.1 -0.9,-0.6 -1.2,-0.7 -0.5,-0.1 -1.4,0.2 -2.2,0 -0.9,-0.3 -2.1,-0.9 -3.1,-1.2 -0.4,0 -0.8,-0.1 -1.2,-0.1 -0.6,-0.3 -1,-0.8 -2,-0.9 0,0 -0.1,-0.1 -0.1,-0.1 v -0.5 c -1,-0.1 -1.4,-0.9 -2.1,-1.3 -0.3,-0.2 -0.6,-0.2 -1,-0.4 -0.3,-0.2 -0.3,-0.6 -0.5,-0.9 -0.6,-0.5 -1.1,-1.1 -1.7,-1.6 -0.3,-0.4 0,-0.7 -0.2,-1.1 l -0.7,-0.7 c 0,-0.1 0.2,-0.4 0.1,-0.6 h -0.6 v -0.7 c -0.1,-0.3 -0.6,-0.6 -0.7,-0.9 -0.1,-0.2 -0.1,-0.7 -0.2,-1 -1,-0.6 -2.4,0.1 -3.7,-0.4 -0.5,-0.2 -0.7,-0.7 -1.5,-0.7 v -0.1 c 0,0 0.1,-0.1 0.1,-0.1 1.6,0.2 4.4,0.3 6.2,-0.2 h 2.4 c 0.1,-0.2 0.2,-0.3 0.4,-0.5 h 0.9 c 0,-0.1 0.1,-0.2 0.1,-0.2 1.1,-0.4 2.7,-0.1 3.7,-0.2 0.5,-0.1 1,-0.4 1.5,-0.5 1.4,-0.3 3.2,0.7 5,0.2 1.3,-0.3 2.8,0.2 3.9,0.5 h 1.6 c 0.6,0.2 1.7,0.6 2.3,0.7 0.2,0 0.5,-0.1 0.7,-0.1 1.9,0.7 3.6,1.3 5.6,1.8 h 1.1 c 1.8,0.4 4.6,0.4 6.7,1 1.7,0.5 4.1,-0.2 5.6,0.2 h 1.3 c 0.3,0.1 0.6,0.4 0.9,0.5 0.5,0 1,0.1 1.5,0.1 0.1,0.1 0.2,0.2 0.4,0.4 0.9,0.3 1.5,0 2.4,0.2 1.8,0.5 4.2,0.9 6.1,1.3 0.4,0 0.8,-0.1 1.2,-0.1 2,0.3 4,0.2 6,0.7 0.6,0.2 1.1,-0.2 1.3,-0.1 0.2,0 0.7,0.3 0.9,0.4 0.3,0 0.6,-0.1 0.9,-0.1 1.6,0.5 5.6,2 7.1,1.8 0.7,-0.1 0.8,0.6 1.6,0.4 v 0.2 h 0.1 c 0.1,0.2 -0.1,0.2 -0.1,0.2 -0.1,1 -1,1.3 -1.5,2 -0.9,0 -1.3,0.2 -1.8,0.4 -0.8,0 -1.6,0.1 -2.4,0.1 -0.2,0.1 -0.4,0.5 -0.7,0.6 -1,0.3 -2.2,0.1 -3.1,0.5 -1.6,0.8 -3.5,1.8 -5.1,2.6 -0.3,0 -0.7,0.1 -1,0.1 -0.1,0.2 -0.2,0.3 -0.4,0.5 -0.6,0.3 -1.3,0.2 -1.8,0.5 -0.3,0.2 -0.9,0.7 -1.2,0.9 -0.4,0.2 -0.7,0.1 -0.9,0.1 -0.1,0.1 -0.2,0.2 -0.4,0.4 -0.3,0.1 -0.6,-0.3 -1,-0.1 L 70,97.6 c -0.5,0 -1,-0.1 -1.5,-0.1 -0.1,0 -0.4,0.3 -0.6,0.2 -0.3,-0.1 -0.4,-0.5 -1,-0.4 -0.3,0.1 -1.1,0.1 -1.5,0.2 -0.1,0.1 -0.2,0.2 -0.2,0.4 -0.4,0.1 -1.4,-0.4 -2,-0.2 0,0.1 -0.1,0.2 -0.1,0.2 h -0.7 c -0.1,0 -0.4,0.3 -0.5,0.4 -1,0.4 -2.1,0.1 -3.1,0.5 -0.3,0.1 -0.4,0.5 -0.6,0.6 h -1 c -0.8,0.2 -2.5,-0.1 -2.9,0.1 -0.3,0 -0.5,0 -0.7,-0.1 0,-0.2 -0.1,-0.4 -0.1,-0.6 -0.3,0 -0.6,-0.1 -0.9,-0.1 V 99 c -0.3,-0.1 -0.4,-0.3 -0.6,-0.4 -0.1,0 -0.2,0.1 -0.4,0.1 C 51.4,98.6 51.2,98.1 51,98 50.5,98 50,97.9 49.5,97.9 49.3,97.8 48.7,97.5 48.4,97.4 Z m -14.8,9.9 c -0.1,0.2 0,0.1 -0.2,0 z m -10,9.1 c -0.2,0.4 -0.5,0.6 -0.9,0.4 -0.5,-0.1 -0.5,-0.2 -0.9,-0.4 0.2,-0.2 0.7,-0.2 1,-0.4 0.4,0 0.5,0 0.7,0.2 0.2,0.1 0.1,0.1 0.1,0.2 z m 66.9,2.2 c -0.3,0.6 -0.9,0.5 -1,1.5 -1.8,0.2 -3.5,4 -4.4,5.4 -0.3,0.5 -0.8,0.8 -1,1.5 h -0.4 c -0.2,0.5 -0.5,0.9 -0.7,1.3 h -0.4 c -0.2,1 -0.8,1.1 -1.2,1.7 -0.1,0.3 -0.2,0.6 -0.2,0.9 L 80,132 c -0.3,0.1 -0.6,0.2 -0.9,0.2 v 0.4 c -0.2,0.2 -0.4,0.3 -0.6,0.5 v 0.4 c -0.2,0 -0.5,0.1 -0.7,0.1 -0.2,0.3 -0.5,0.6 -0.7,0.9 h -0.4 c -0.2,0.1 -0.2,0.5 -0.4,0.6 -0.2,0 -0.4,0.1 -0.6,0.1 -0.2,0.1 -0.2,0.5 -0.4,0.6 -0.3,0 -0.6,0.1 -0.9,0.1 -0.6,0.4 -1.2,1.3 -1.8,1.7 -0.9,0.5 -1.6,0.5 -2.7,0.9 -0.3,0.1 -0.5,0.5 -0.7,0.6 -0.6,0.4 -1.3,0.3 -2,0.6 -0.2,0.1 -0.4,0.4 -0.6,0.5 h -1.3 c -1,0.3 -2.4,0.6 -3.5,1 -0.7,0 -1.4,-0.1 -2.1,-0.1 -1.2,0.3 -2.7,0.5 -4.2,0.1 -0.8,-0.2 -1.1,0.5 -1.8,0.2 -0.9,-0.3 -2.3,-0.6 -2.9,-0.7 h -2.2 c -0.3,-0.1 -1.1,-0.3 -1.5,-0.4 -0.4,0 -0.8,0.1 -1.2,0.1 -0.1,-0.1 -0.2,-0.2 -0.2,-0.4 -0.4,-0.1 -2.8,0.5 -3.1,0.5 h -0.2 v -0.2 c 0.7,-0.3 1.6,-0.5 2.3,-1 0.4,-0.4 0.7,-0.8 1.1,-1.2 0.2,0 0.5,-0.1 0.7,-0.1 0.4,-0.2 0.7,-1.2 1,-1.6 0.9,-1.3 2,-2.6 2.9,-3.9 0.5,-0.7 2.2,-1.8 2.9,-2.6 1.3,-1.3 2.7,-2.7 4,-4 0.4,-0.5 0.7,-1 1.1,-1.5 0.4,-0.2 0.7,-0.1 1.1,-0.4 0.2,-0.1 0.1,-0.5 0.2,-0.6 0.2,-0.2 0.5,-0.1 0.7,-0.2 0.1,-0.2 0.2,-0.4 0.4,-0.6 0.6,-0.4 1.2,-0.4 1.7,-0.7 0,0 0.5,0 0.2,0.1 l -0.1,0.1 c 0.7,-0.1 0.8,-0.4 1.2,-0.5 h 1.3 c 1.8,-0.4 4.2,-0.4 5.6,-0.9 0.6,0 1.2,-0.1 1.8,-0.1 l 0.6,-0.6 c 0.5,-0.1 0.3,0.5 0.9,0.2 V 120 c 0.3,0 0.6,0.1 0.9,0.1 0.1,0 0.5,-0.3 0.6,-0.4 0.3,-0.1 0.4,0.2 0.5,0.1 0.7,-0.2 1.7,-0.8 2.4,-1 h 1.1 c 2,-0.8 5.5,-1.5 7.6,-1 0.8,0.2 1.3,-0.6 2.3,-0.2 0.4,0.1 0.6,0.5 0.9,0.5 0.2,0.4 0.1,0.2 0.2,0.5 z m 15.3,-6.5 h -1.1 v 0.4 c -1.2,0.1 -2.5,1.1 -3.4,1.5 -0.7,0 -1.3,0.1 -2,0.1 -0.3,0.1 -0.7,0.6 -1.1,0.7 -1.5,0.4 -2.5,-0.4 -3.2,-0.6 -0.5,-0.1 -0.7,0.3 -1,0.4 -0.2,0.1 -2.6,0.4 -2.9,0.4 -0.6,-0.1 -1,-0.2 -1.6,-0.4 -0.8,-0.2 -2,0.2 -3.1,0.2 h -2.1 c -0.7,0.2 -1.9,0.6 -2.7,0.6 -0.4,0 -0.9,-0.2 -1.2,-0.1 -1.5,0.3 -3.4,0.7 -5,1 -0.3,0 -0.6,-0.2 -1,-0.1 -0.5,0.1 -1,0.5 -1.5,0.6 -1.1,0.3 -2,-0.1 -3.1,0.2 -0.3,0.1 -0.5,0.5 -0.7,0.6 -0.6,0.3 -1.7,0.5 -2.3,0.6 -0.9,0 -1.8,0.1 -2.7,0.1 -2.9,0.8 -6.9,1.1 -9.9,1.7 -1.2,0.2 -2.9,-0.5 -4,-0.4 -2.5,0.3 -5.2,-0.6 -7.1,-1.3 -0.7,0 -1.5,-0.1 -2.2,-0.1 -0.2,-0.1 -0.8,-0.5 -1,-0.6 -0.9,0 -1.9,0.1 -2.8,0.1 -0.8,0 -1.6,-0.2 -2.1,-0.2 -0.4,0 -0.4,0.2 -0.6,0.2 -0.7,0.2 -1.7,-0.1 -2.1,-0.2 -0.4,0.1 -1.7,0.4 -2,0.4 -0.3,0 -0.6,-0.4 -0.9,-0.5 -0.2,0 -0.5,0.1 -0.7,0.1 -0.2,-0.2 -0.3,-0.3 -0.5,-0.5 -0.8,-0.3 -1.5,0.2 -2.2,0 -0.8,-0.2 -1.5,-0.3 -2.6,-0.4 l 0.1,-0.1 c 0.7,-0.8 3.2,-1 4.4,-1.5 0.8,-0.4 1.5,-1.1 2.2,-1.5 0.4,-0.1 0.9,-0.2 1.3,-0.4 v -0.4 c 0.4,-0.6 1.5,-1.1 2.3,-1.2 v -0.4 c 1.2,-0.5 1.9,-1.6 2.9,-2.2 0.7,-0.4 1.5,-0.5 2.2,-0.9 0.2,-0.2 0.3,-0.4 0.5,-0.6 0.3,0 0.6,-0.1 0.9,-0.1 0.2,-0.1 0.2,-0.5 0.4,-0.6 0.4,0 0.8,-0.1 1.2,-0.1 0.2,-0.1 0.8,-0.4 1.1,-0.5 0.4,-0.1 0.6,0.2 1,0 0.1,-0.1 0.1,-0.1 0.1,-0.4 0.9,-0.1 1.3,-0.5 2,-0.7 0.9,-0.3 1.9,0 2.7,-0.4 l 0.1,-0.4 c 0.5,-0.3 1.1,-0.1 1.6,-0.4 0.1,-0.1 0.2,-0.2 0.2,-0.4 0.3,0 0.6,0.1 0.9,0.1 0.8,0.1 1.3,-0.4 2,-0.4 0.2,0 0.5,0.2 0.9,0.1 1.2,-0.4 3.7,-0.6 5.3,-0.9 0.6,-0.1 1.8,0.4 2.3,0.1 l 0.5,-0.5 h 1 c 0.9,-0.3 1.7,-0.5 2.6,-0.7 0.8,-0.2 2.1,0.1 2.8,-0.2 0.1,-0.1 0.2,-0.2 0.2,-0.4 0.2,0 0.4,0.1 0.6,0.1 0.3,-0.1 0.7,-0.6 1.1,-0.7 0.9,-0.3 2.1,-0.3 2.9,-0.7 l 0.1,-0.4 c 0.4,0 0.7,-0.1 1.1,-0.1 0.4,-0.2 0.8,-0.7 1.2,-0.9 0.5,-0.2 0.8,-0.1 1.2,-0.4 0.2,-0.2 0.3,-0.4 0.5,-0.6 0.5,0 1,-0.1 1.5,-0.1 0.7,-0.3 1.5,-1 2.2,-1.3 0.7,-0.4 1.7,-0.2 2.4,-0.6 0.4,-0.2 1.2,-0.7 1.7,-0.9 0.4,-0.1 2,0 2.3,-0.1 0.2,-0.2 0.3,-0.3 0.5,-0.5 0.2,-0.1 1,-0.1 1.1,-0.1 0.7,-0.2 1,0.4 1.6,0.2 0.7,-0.3 2,-0.7 3.1,-1 0.3,-0.1 0.6,0.1 0.7,0.1 0.5,0.1 2.5,-0.1 2.9,-0.2 0.3,-0.1 1.1,-0.4 1.3,-0.5 0.5,0 1,-0.1 1.5,-0.1 1.1,-0.6 2.4,-0.8 3.7,-1.2 0.4,-0.1 0.8,-0.5 1.2,-0.6 1.5,-0.4 2.9,-0.3 4.3,-0.7 0.9,-0.3 1.6,-1 2.6,-1.2 h 1.1 c 0.7,-0.3 1.5,-0.9 2.1,-1.2 0.4,-0.1 0.7,-0.2 1.1,-0.2 0.2,-0.2 0.3,-0.4 0.5,-0.6 0.3,0 0.7,-0.1 1,-0.1 l 0.2,-0.4 c 0.5,-0.3 0.9,-0.2 1.3,-0.5 0.3,-0.3 0.6,-0.7 0.9,-1 0.5,-0.3 0.6,-0.1 1,-0.5 0.1,0.1 0.3,0.2 0.5,0.1 0.3,-0.2 0.3,-0.6 0.5,-0.9 0.3,-0.3 0.9,-0.3 1.3,-0.5 0.1,-0.2 0.2,-0.3 0.4,-0.5 h 0.9 c 0.2,-0.1 0.6,-0.5 0.9,-0.6 h 1.2 l 0.1,-0.4 c 0.3,-0.3 1,-0.8 1.3,-1 0.6,-0.1 1.2,-0.2 1.8,-0.2 1.9,-1.2 4,-1.1 6.6,-1.8 0.6,0 1.1,0.1 1.7,0.1 0.7,-0.2 1.6,-0.3 2.3,-0.5 0.8,-0.2 0.8,0.6 1.5,0.4 0.1,-0.1 0.2,-0.2 0.2,-0.4 0.7,0 1.3,0.1 2,0.1 0.8,-0.2 1.7,-0.5 2.7,-0.5 0,-0.3 0,-0.2 0.1,-0.4 v -0.1 c 0.3,0.1 0.2,0.2 0.4,0.5 2.3,0 5.1,-0.3 6.7,-1.1 1.4,0.5 3.1,-0.1 4,-0.6 0.8,-0.4 3.6,-0.6 3.2,-1.7 0.9,-0.7 1,0 1.7,-0.2 0.1,-0.1 0.2,-0.2 0.4,-0.4 0.1,0 0.6,0.3 0.9,0.1 0.2,-0.1 0.3,-0.6 0.5,-0.7 h 0.7 c 0.3,-0.1 0.6,-0.4 0.9,-0.5 h 1.1 c 0,0 1.2,-0.6 1.2,-0.6 v -0.2 c 0.4,-0.2 1.1,-0.2 1.5,-0.4 l 0.4,-0.5 c 0.4,0 0.8,-0.1 1.2,-0.1 0.6,-0.3 0.7,-0.8 1.6,-0.9 0,-0.3 0,-0.2 0.1,-0.4 0.2,-0.3 0,0 0.5,0 v -0.4 c 1.7,-0.8 4.3,-2.2 6.5,-2.1 0.1,0.4 0,1.2 0.1,1.7 0.2,0.6 0.4,1.3 0.6,2 -1.2,0.3 -2.4,0.3 -3.8,0.9 -0.4,0.2 -0.7,0.6 -1.1,0.7 -0.8,0.2 -1.7,-0.2 -2.2,0 -0.3,0.1 -0.8,0.6 -1.1,0.7 -0.2,0 -0.5,-0.1 -0.7,-0.1 -0.2,0.1 -0.4,0.5 -0.6,0.6 -0.6,0.3 -1.9,0.3 -2.2,0.5 -0.5,0.2 -1,1.1 -1.5,1.3 -1.8,1.1 -3.7,1.7 -5.4,2.8 -0.9,0.6 -1.6,1.8 -2.7,2.2 -0.3,0 -0.6,0.1 -0.9,0.1 -0.8,0.4 -2,1 -2.9,1.3 H 156 c -0.2,0.1 -0.4,0.4 -0.6,0.5 H 154 c -0.5,0.2 -1.4,0.4 -2,0.7 -0.2,0.2 -0.3,0.4 -0.5,0.6 -1.2,0.8 -2.2,1.6 -3.3,2.4 -0.5,0.4 -1.4,0.6 -2,1 -0.8,0.4 -1.3,1.5 -2.1,2 -0.3,0.1 -0.6,0.2 -0.9,0.2 0,0.2 -0.1,0.3 -0.1,0.5 -0.5,0.4 -1,0.9 -1.5,1.3 -0.2,0.3 -0.1,0.6 -0.4,0.7 -0.5,0.3 -0.9,0.1 -1.2,0.6 V 92 c -0.2,0.1 -0.4,0.2 -0.6,0.4 -0.3,0.5 -0.3,0.8 -0.7,1.1 -0.2,0.1 -0.4,0.2 -0.6,0.2 -0.1,0.2 0.1,0.5 -0.1,0.6 h -0.5 c -0.3,0.3 -0.6,0.7 -0.9,1 -0.7,0.4 -1.3,1 -2.1,1.3 -0.3,0 -0.7,0.1 -1,0.1 -0.2,0.1 -0.2,0.5 -0.4,0.6 h -0.5 c -0.4,0.2 -1,0.7 -1.5,0.9 -0.4,0 -0.8,0.1 -1.2,0.1 -0.2,0.1 -0.6,0.5 -0.9,0.6 -0.9,0.3 -1.5,0.1 -2.2,0.5 -0.1,0.1 -0.2,0.2 -0.2,0.4 -0.4,0 -0.8,0.1 -1.2,0.1 -0.2,0.1 -0.4,0.4 -0.6,0.5 -0.7,0 -1.3,0.1 -2,0.1 -0.3,0.1 -0.8,0.6 -1.2,0.7 h -0.7 c -0.1,0.2 -0.2,0.3 -0.4,0.5 -0.4,0.1 -0.7,0.2 -1.1,0.2 -0.2,0.1 -0.6,0.9 -0.7,1 H 118 c -0.5,0.2 -1.2,0.4 -1.7,0.7 -0.4,0.2 -0.8,0.9 -1.2,1.1 -0.4,0.2 -0.6,0.1 -1,0.4 -0.3,0.3 -0.6,0.7 -0.9,1 -0.3,0.2 -0.6,0.1 -0.9,0.2 -0.3,0.3 -0.6,0.7 -0.9,1 -0.2,0 -0.5,0.1 -0.7,0.1 -0.6,0.6 -1.1,1.2 -1.7,1.8 -1,1.7 -2.4,1.7 -3.2,2.9 z m 58.3,33.2 c -0.4,0.7 -0.3,1.6 -0.7,2.3 -1.5,2.2 -4,3.2 -6,4.9 -0.5,0.4 -1.3,0.4 -1.8,0.7 h -0.1 c 0.6,-1.1 0.4,-4.4 0,-5.4 -1.2,-2.8 -5.4,-7 -7.9,-8.5 -0.3,-0.2 -0.3,-0.5 -0.5,-0.9 -0.2,-0.3 -0.8,-0.6 -1.1,-0.7 v -0.4 c -1.2,-0.1 -2.2,-1.6 -3.1,-2.2 v -0.6 c -0.3,0 -0.3,0.1 -0.5,0.1 -0.7,-1 -2.8,-2.1 -2.3,-3.7 -1.3,-0.5 -1.2,-1.1 -2.1,-1.8 -1.2,-1.1 -2.3,-2.2 -3.3,-3.5 -0.3,-0.4 -0.8,-0.4 -1.1,-0.7 -0.1,-0.1 -0.1,-0.5 -0.2,-0.6 -0.7,-0.5 -1.8,-0.9 -2.3,-1.1 -0.5,-0.2 -0.7,-0.9 -1.1,-1.1 -0.2,0 -0.5,-0.1 -0.7,-0.1 -0.6,-0.3 -1.9,-1.9 -1.2,-2.9 v -0.2 c 1.5,-0.2 1.6,0 2.7,0.4 0.8,0.3 1.5,-0.1 2.1,0.2 0.2,0.1 0.4,0.4 0.7,0.5 0.9,0.3 2,-0.1 2.8,0.4 0.2,0.2 0.3,0.4 0.5,0.6 0.4,0 0.8,0.1 1.2,0.1 0.2,0.2 0.3,0.4 0.5,0.6 0.7,0.3 1.8,-0.2 2.4,0.1 1.4,0.7 3.2,1.8 4.9,2 v 0.4 c 1.6,-0.1 2.9,0.9 4.2,1.5 0.7,0.3 1.9,0 2.4,0.1 0.5,0.1 1.2,0.7 1.7,0.9 0.5,0.2 1.1,-0.1 1.5,0 0.2,0.2 0.3,0.3 0.5,0.5 0.4,0.2 1.1,0.1 1.2,0.1 0.1,0.1 0.2,0.2 0.2,0.4 0.3,0 0.7,0.1 1,0.1 l 0.2,0.4 c 0.5,0 1,-0.1 1.5,-0.1 0.9,0.2 2.5,0.5 2.9,1.2 0.2,0.3 0,0.7 0.1,1 0.2,0.1 0.3,0.2 0.5,0.2 0.4,0.8 0.5,1.9 0.5,2.8 0.6,1.1 1.1,2.5 1.5,3.9 0.2,0.9 -0.3,1.7 -0.2,2.2 0,1.5 -0.8,4.5 -1.5,5.9 z m 29.4,-13.2 h -0.1 c -0.4,-1.1 -2,-3.6 -3.2,-3.9 h -1.5 C 188.1,128 187.8,128 187,128 h -1.1 c -1.3,-0.5 -2,-0.5 -3.3,-0.2 -0.9,0 -1.7,-0.1 -2.6,-0.1 -1.6,0.4 -4.4,0.3 -6.5,-0.1 -0.4,0 -0.8,0.1 -1.2,0.1 -0.1,-0.1 -0.2,-0.2 -0.2,-0.4 -0.1,-0.1 -2.4,-0.2 -2.4,-0.2 -0.9,0.1 -4.3,-1 -5.4,-1.2 -0.4,0 -0.7,0.1 -1.1,0.1 -0.4,-0.1 -0.9,-0.5 -1.2,-0.6 -0.8,0.2 -3.2,-0.6 -3.9,-0.9 h -0.9 c -0.4,-0.1 -1.3,-0.5 -1.7,-0.6 h -1.1 c -0.2,-0.1 -0.5,-0.4 -0.6,-0.5 -0.5,0 -1,-0.1 -1.5,-0.1 -0.1,-0.2 -0.2,-0.3 -0.4,-0.5 -0.3,-0.2 -0.9,-0.3 -1.1,-0.4 H 150 c -1.1,-0.3 -2.2,-0.7 -3.3,-1.2 -0.2,-0.1 -0.2,-0.5 -0.4,-0.6 -0.5,-0.1 -1.1,-0.2 -1.6,-0.2 -0.5,-0.3 -1,-1.1 -1.5,-1.3 -0.5,-0.3 -0.9,-0.2 -1.5,-0.5 -0.2,-0.2 -0.5,-0.5 -0.7,-0.7 -0.7,-0.5 -4.3,-1.4 -5.1,-1.3 V 116 c -1.1,0 -1.6,-0.6 -2.6,-0.4 -1.9,0.4 -5.6,0.3 -7.1,0.1 -0.5,-0.1 -0.7,0.2 -1,0.2 h -2.1 c -0.7,0.2 -2,0.6 -3.1,0.2 l -0.1,-0.2 H 119 l -0.1,-0.2 H 116 c -1,-0.2 -1.7,-0.7 -2.6,-1 -0.7,-0.2 -1.6,0.1 -2.1,0 -0.8,-0.2 -1.8,-0.7 -2.6,-0.5 -0.1,-0.2 -0.1,-0.3 -0.1,-0.6 0.9,-0.1 0.6,-0.6 1.1,-1 0.3,-0.2 0.6,-0.1 0.9,-0.2 0.2,-0.2 0.4,-0.5 0.6,-0.7 h 0.4 c 0.2,-0.2 0.4,-0.5 0.6,-0.7 h 0.4 c 0.2,-0.2 0.4,-0.5 0.6,-0.7 0.5,-0.3 1.2,-0.3 1.5,-0.5 0,0 0.1,-0.1 0.1,-0.1 h -0.1 c 0.3,-1.6 3.6,-2.6 5,-3.3 2.4,-1.2 5.1,-2.5 7.8,-3.3 h 1.6 c 1.2,-0.4 2.6,-0.8 4,-1.2 0,0 0.7,0 1,-0.1 0.1,-0.2 0.2,-0.3 0.2,-0.5 0,0 0.6,0.2 0.9,0.1 0.3,-0.1 0.7,-0.6 1,-0.7 1.8,-0.7 7.4,1.3 9,2 h 1.1 c 1.1,0.3 2.6,1 3.5,1.5 0.3,0 0.7,0.1 1,0.1 0.8,0.3 1.6,1.1 2.3,1.5 0.3,0 0.6,0.1 0.9,0.1 0.3,0.1 0.7,0.6 1,0.7 0.6,0.3 1,0.2 1.6,0.5 0.4,0.2 1,0.8 1.5,1 0.3,0 0.6,0.1 0.9,0.1 1.3,0.7 3.6,2.7 5.4,2.6 0.2,0.1 0.5,0.4 0.7,0.5 h 1.1 c 0.2,0.1 0.4,0.4 0.6,0.5 0.6,0.3 1.4,0 2.1,0.2 0.2,0.1 0.4,0.4 0.6,0.5 0.5,0.2 1.2,0.2 1.6,0.1 0.1,0.1 0.3,0.3 0.5,0.4 0.3,0.1 0.9,-0.3 1.3,-0.1 0.7,0.3 2.2,0.6 3.3,0.9 0.2,0.1 1.2,-0.1 1.6,0.1 l 0.2,0.4 h 1.1 c 0.7,0.2 1.7,0.6 2.4,0.9 h 0.9 c 3.5,1.7 7,4.8 8.8,7.9 h 0.4 c 0.3,1.4 1.5,2.6 1.2,4.2 h 0.4 c 0.1,0.8 0.4,1.5 0.6,2.2 0.2,0.8 -0.3,1.6 -0.3,2.6 z m -8.6,-58.5 c -0.1,-0.2 0,-0.1 -0.1,-0.2 v 0.2 z"
         id="path4"
         inkscape:connector-curvature="0"
         style="clip-rule:evenodd;fill-rule:evenodd" /></g></g></svg>