<svg height="512pt" viewBox="-13 0 512 512.002" width="512pt" xmlns="http://www.w3.org/2000/svg"><path d="m58.339844 99.285156c0-4.140625-3.359375-7.5-7.5-7.5h-43.339844c-4.140625 0-7.5 3.359375-7.5 7.5s3.359375 7.496094 7.5 7.496094h43.339844c4.140625 0 7.5-3.355469 7.5-7.496094zm0 0"/><path d="m16.359375 65.636719 30.640625 14.539062c1.039062.496094 2.132812.726563 3.210938.726563 2.804687 0 5.496093-1.582032 6.777343-4.28125 1.777344-3.742188.183594-8.214844-3.558593-9.988282l-30.640626-14.542968c-3.742187-1.777344-8.214843-.179688-9.988281 3.558594-1.777343 3.742187-.183593 8.210937 3.558594 9.988281zm0 0"/><path d="m48.21875 118.421875-30.640625 14.539063c-3.738281 1.777343-5.335937 6.25-3.558594 9.988281 1.28125 2.703125 3.972657 4.285156 6.777344 4.285156 1.078125 0 2.171875-.230469 3.210937-.726563l30.640626-14.539062c3.742187-1.777344 5.335937-6.25 3.558593-9.988281-1.773437-3.742188-6.246093-5.335938-9.988281-3.558594zm0 0"/><path d="m241.808594 396.96875c4.140625 0 7.496094-3.355469 7.496094-7.496094v-43.609375l7.203124-4.328125c6.113282 6.804688 14.007813 10.390625 22.644532 10.386719 3.015625 0 6.121094-.433594 9.269531-1.320313 20.246094-5.691406 36.976563-27.683593 39.777344-52.292968.015625-.125.027343-.25.035156-.375.339844-5.351563-.996094-9.765625-3.96875-13.113282-3.148437-3.554687-7.871094-5.527343-14.046875-5.875-27.414062-1.5-50.007812 8.140626-58.953125 25.152344-4.105469 7.804688-4.820313 16.410156-2.273437 24.457032l-7.183594 4.320312-7.203125-4.324219c2.542969-8.042969 1.835937-16.636719-2.261719-24.4375-8.941406-17.023437-31.539062-26.664062-58.984375-25.167969-6.164063.347657-10.886719 2.320313-14.039063 5.875-2.972656 3.347657-4.304687 7.761719-3.964843 13.113282.007812.125.019531.25.03125.375 2.804687 24.609375 19.53125 46.601562 39.777343 52.292968 3.152344.886719 6.257813 1.320313 9.273438 1.320313 8.636719 0 16.535156-3.585937 22.648438-10.394531l7.226562 4.335937v43.609375c-.003906 4.136719 3.355469 7.496094 7.496094 7.496094zm22.726562-85.894531c4.847656-9.214844 19.183594-18.558594 44.855469-17.15625 2.558594.140625 3.535156.707031 3.660156.851562.066407.089844.292969.6875.226563 2.042969-2.386719 20.21875-16.550782 35.878906-28.914063 39.355469-5.636719 1.582031-10.519531.695312-14.578125-2.617188l14.40625-8.664062c3.550782-2.132813 4.699219-6.738281 2.566406-10.289063-2.132812-3.546875-6.742187-4.691406-10.289062-2.5625l-13.917969 8.371094c-.269531-3.128906.382813-6.285156 1.984375-9.332031zm-43.488281 9.332031-13.929687-8.371094c-3.550782-2.132812-8.15625-.984375-10.289063 2.566406-2.132813 3.550782-.980469 8.15625 2.566406 10.285157l14.410157 8.660156c-4.0625 3.3125-8.945313 4.203125-14.582032 2.617187-12.363281-3.476562-26.527344-19.132812-28.914062-39.351562-.066406-1.355469.160156-1.957031.226562-2.042969.125-.144531 1.105469-.710937 3.648438-.855469 25.707031-1.402343 40.039062 7.949219 44.882812 17.171876 1.597656 3.042968 2.246094 6.195312 1.980469 9.320312zm0 0"/><path d="m481.726562 188.554688-50.882812-89.460938c-.042969-.078125-.089844-.15625-.136719-.234375-16.53125-26.769531-30.164062-28.984375-43.824219-28.984375h-111.640624v-15.757812h9.113281c10.808593 0 19.601562-8.792969 19.601562-19.605469v-14.910157c0-10.808593-8.792969-19.601562-19.601562-19.601562h-83.507813c-10.824218 0-19.628906 8.792969-19.628906 19.601562v14.910157c0 10.8125 8.804688 19.605469 19.628906 19.605469h9.113282v15.757812h-83.117188c-.367188-8.28125-7.214844-14.910156-15.597656-14.910156h-22.535156c-8.605469 0-15.605469 7-15.605469 15.605468v54.9375c0 8.601563 7 15.605469 15.605469 15.605469h22.535156c8.382812 0 15.230468-6.632812 15.597656-14.914062h53.824219l-16.742188 33.507812h-27.195312c-10.808594 0-19.605469 8.792969-19.605469 19.601563v313.089844c0 10.808593 8.796875 19.605468 19.605469 19.605468h211.375c10.808593 0 19.601562-8.796875 19.601562-19.605468v-156.105469c0-4.140625-3.355469-7.5-7.5-7.5-4.140625 0-7.496093 3.359375-7.496093 7.5v107.53125h-220.589844v-222.351563h90.921875c4.140625 0 7.496093-3.355468 7.496093-7.496094 0-4.140624-3.355468-7.5-7.496093-7.5h-90.921875v-27.167968c0-2.542969 2.066406-4.605469 4.605468-4.605469h211.378907c2.539062 0 4.601562 2.0625 4.601562 4.605469v27.167968h-88.394531c-4.140625 0-7.5 3.359376-7.5 7.5 0 4.140626 3.359375 7.496094 7.5 7.496094h88.394531v80.207032c0 4.140624 3.359375 7.5 7.5 7.5s7.496094-3.359376 7.496094-7.5v-122.371094c0-10.808594-8.792969-19.601563-19.601563-19.601563h-21.890624l-16.722657-33.507812h50.71875c22.03125 0 23.816407 3.296875 33.71875 21.597656 1.589844 2.9375 3.390625 6.261719 5.460938 9.90625l33.382812 58.667969c3.707031 6.527344 9.746094 11.226562 17.019531 13.230468 2.496094.6875 5.03125 1.027344 7.546876 1.023438 4.800781 0 9.535156-1.238281 13.804687-3.664062 6.527344-3.703126 11.222656-9.75 13.226563-17.023438 2.003906-7.273438 1.066406-14.867188-2.640626-21.382812zm-369.84375-63.046876c0 .316407-.304687.605469-.636718.605469h-22.535156c-.324219 0-.609376-.28125-.609376-.605469v-54.9375c0-.324218.285157-.609374.609376-.609374h22.535156c.332031 0 .636718.289062.636718.609374zm240.828126 333.3125v33.578126c0 2.539062-2.066407 4.605468-4.605469 4.605468h-211.375c-2.542969 0-4.605469-2.066406-4.605469-4.605468v-33.578126zm-151.863282-419.703124c-2.511718 0-4.632812-2.105469-4.632812-4.605469v-14.910157c0-2.496093 2.121094-4.605468 4.632812-4.605468h83.507813c2.539062 0 4.605469 2.066406 4.605469 4.605468v14.910157c0 2.542969-2.066407 4.605469-4.605469 4.605469zm59.398438 14.996093v15.761719h-35.289063v-15.761719zm-79.558594 105.59375 16.742188-33.507812h95.296874l16.722657 33.507812zm289.222656 46.25c-.941406 3.410157-3.128906 6.238281-6.175781 7.964844-3.027344 1.722656-6.570313 2.15625-9.964844 1.222656-3.402343-.9375-6.230469-3.128906-7.960937-6.179687l-33.386719-58.675782c-1.992187-3.503906-3.753906-6.757812-5.308594-9.628906-11.339843-20.953125-17.128906-29.457031-46.90625-29.457031h-233.328125v-26.332031h260.003906c8.617188 0 17.527344-.003906 30.996094 21.753906l50.8125 89.34375c1.722656 3.03125 2.15625 6.578125 1.21875 9.988281zm0 0"/></svg>