<?xml version="1.0" encoding="UTF-8" standalone="no"?>
<svg
   xmlns:dc="http://purl.org/dc/elements/1.1/"
   xmlns:cc="http://creativecommons.org/ns#"
   xmlns:rdf="http://www.w3.org/1999/02/22-rdf-syntax-ns#"
   xmlns:svg="http://www.w3.org/2000/svg"
   xmlns="http://www.w3.org/2000/svg"
   xmlns:sodipodi="http://sodipodi.sourceforge.net/DTD/sodipodi-0.dtd"
   xmlns:inkscape="http://www.inkscape.org/namespaces/inkscape"
   viewBox="0 0 60.00079 60"
   version="1.1"
   x="0px"
   y="0px"
   id="svg42"
   sodipodi:docname="feeding-livestock.svg"
   width="60.00079"
   height="60"
   inkscape:version="0.92.3 (2405546, 2018-03-11)">
  <metadata
     id="metadata48">
    <rdf:RDF>
      <cc:Work
         rdf:about="">
        <dc:format>image/svg+xml</dc:format>
        <dc:type
           rdf:resource="http://purl.org/dc/dcmitype/StillImage" />
        <dc:title>040 - Trough </dc:title>
      </cc:Work>
    </rdf:RDF>
  </metadata>
  <defs
     id="defs46" />
  <sodipodi:namedview
     pagecolor="#ffffff"
     bordercolor="#666666"
     borderopacity="1"
     objecttolerance="10"
     gridtolerance="10"
     guidetolerance="10"
     inkscape:pageopacity="0"
     inkscape:pageshadow="2"
     inkscape:window-width="716"
     inkscape:window-height="480"
     id="namedview44"
     showgrid="false"
     fit-margin-top="0"
     fit-margin-left="0"
     fit-margin-right="0"
     fit-margin-bottom="0"
     inkscape:zoom="3.1466667"
     inkscape:cx="30"
     inkscape:cy="22.5"
     inkscape:window-x="0"
     inkscape:window-y="0"
     inkscape:window-maximized="0"
     inkscape:current-layer="svg42" />
  <title
     id="title2">040 - Trough </title>
  <desc
     id="desc4">Created with Sketch.</desc>
  <g
     id="g36"
     style="fill:none;fill-rule:evenodd;stroke:none;stroke-width:1">
    <g
       id="g34"
       style="fill:#000000;fill-rule:nonzero">
      <path
         d="m 19,21 h -1 c -0.552285,0 -1,0.447715 -1,1 0,0.552285 0.447715,1 1,1 h 1 c 0.552285,0 1,-0.447715 1,-1 0,-0.552285 -0.447715,-1 -1,-1 z"
         id="path6"
         inkscape:connector-curvature="0" />
      <path
         d="m 14,23 h -1 c -0.552285,0 -1,0.447715 -1,1 0,0.552285 0.447715,1 1,1 h 1 c 0.552285,0 1,-0.447715 1,-1 0,-0.552285 -0.447715,-1 -1,-1 z"
         id="path8"
         inkscape:connector-curvature="0" />
      <path
         d="m 30,22 h -1 c -0.552285,0 -1,0.447715 -1,1 0,0.552285 0.447715,1 1,1 h 1 c 0.552285,0 1,-0.447715 1,-1 0,-0.552285 -0.447715,-1 -1,-1 z"
         id="path10"
         inkscape:connector-curvature="0" />
      <path
         d="m 36,23 h -1 c -0.552285,0 -1,0.447715 -1,1 0,0.552285 0.447715,1 1,1 h 1 c 0.552285,0 1,-0.447715 1,-1 0,-0.552285 -0.447715,-1 -1,-1 z"
         id="path12"
         inkscape:connector-curvature="0" />
      <path
         d="m 43,23 h -1 c -0.552285,0 -1,0.447715 -1,1 0,0.552285 0.447715,1 1,1 h 1 c 0.552285,0 1,-0.447715 1,-1 0,-0.552285 -0.447715,-1 -1,-1 z"
         id="path14"
         inkscape:connector-curvature="0" />
      <path
         d="m 24,23 h -1 c -0.552285,0 -1,0.447715 -1,1 0,0.552285 0.447715,1 1,1 h 1 c 0.552285,0 1,-0.447715 1,-1 0,-0.552285 -0.447715,-1 -1,-1 z"
         id="path16"
         inkscape:connector-curvature="0" />
      <path
         d="M 59,54 H 56.7 L 53.755,45.991 57.817,34.4 57.825,34.378 59.943,28.335 C 60.051904,28.028699 60.00512,27.688576 59.817563,27.423052 59.630006,27.157529 59.325085,26.999746 59,27 h -3.239 c -0.7,-2.269 -2.165,-4.479 -4.45,-5.176 -1.484811,-2.566671 -4.530468,-3.787494 -7.377,-2.957 -3.242,-2.992 -7.428,-1.949 -9.581,-1.088 -2.72,-2.044 -6.2,-1.883 -8.792,-1.324 -1.079928,-0.653555 -2.279894,-1.084033 -3.529,-1.266 -4.293,-0.733 -6.578,0.813 -7.732,2.187 -0.03022,-0.0083 -0.06095,-0.01469 -0.092,-0.019 -2.382,0 -4.123,0.678 -5.176,2.015 -0.536817,0.700361 -0.8722117,1.534007 -0.97,2.411 C 5.2767062,21.945349 3.0782934,24.211077 3,27 H 1 C 0.67591327,27.000204 0.3720218,27.157454 0.18466645,27.421897 -0.0026889,27.686341 -0.05027279,28.025182 0.057,28.331 L 6.247,45.991 3.3,54 H 1 c -0.55228475,0 -1,0.447715 -1,1 0,0.552285 0.44771525,1 1,1 h 58 c 0.552285,0 1,-0.447715 1,-1 0,-0.552285 -0.447715,-1 -1,-1 z M 8.117,23.8 8.132,23.871 c 0.074699,0.356935 0.3377735,0.644907 0.686517,0.751492 0.3487435,0.106584 0.7278566,0.01488 0.9893305,-0.239313 C 10.069321,24.128986 10.171695,23.752614 10.075,23.401 c -0.2023278,-0.96398 -0.01194,-1.968846 0.529,-2.792 0.679633,-0.731161 1.624171,-1.159121 2.622,-1.188 -0.01888,0.449858 0.269082,0.855471 0.7,0.986 0.09082,0.02729 0.185163,0.04111 0.28,0.041 0.444444,0 0.835556,-0.293333 0.96,-0.72 0.01,-0.035 1.09,-3.5 6.531,-2.566 0.339,0.056 0.657,0.125 0.959,0.2 -0.445316,0.2434 -0.634133,0.784358 -0.437,1.252 0.217255,0.507338 0.804447,0.742752 1.312,0.526 0.645575,-0.255666 1.308598,-0.464866 1.984,-0.626 0.0092,-0.0029 0.01853,-0.0053 0.028,-0.007 0.073,-0.018 0.142,-0.036 0.218,-0.053 1.967,-0.454 4.585,-0.668 6.691,0.486 -0.13876,0.289973 -0.126807,0.629502 0.032,0.909 0.278511,0.475132 0.888772,0.635633 1.365,0.359 0.023,-0.013 0.287,-0.163 0.741,-0.364 h 0.009 c 1.37,-0.621 4.522,-1.712 7.1,-0.167 -0.402826,0.282679 -0.535545,0.8191 -0.311,1.257 0.254722,0.48913 0.857347,0.679715 1.347,0.426 0.376802,-0.182552 0.768993,-0.331465 1.172,-0.445 1.616695,-0.606746 3.434282,-0.304831 4.768,0.792 -0.078,0.013 -0.151,0.018 -0.23,0.035 -0.532278,0.122067 -0.868198,0.648575 -0.754596,1.182724 0.113602,0.534148 0.634712,0.878384 1.170596,0.773276 2.772,-0.586 4.161,1.719 4.776,3.3 H 5 C 5.095167,25.303437 6.4254354,23.938599 8.117,23.8 Z M 3.986,29 c 0.038153,0.0096 0.076907,0.0166 0.116,0.021 C 4.161884,29.0199 4.2215132,29.0129 4.28,29 h 0.011 53.3 l -1.4,4 H 50 c -0.552285,0 -1,0.447715 -1,1 0,0.552285 0.447715,1 1,1 h 5.487 l -1.43,4.078 C 53.934465,39.026542 53.802901,39.000025 53.67,39 H 15 c -0.552285,0 -1,0.447715 -1,1 0,0.552285 0.447715,1 1,1 h 38.384 l -1.4,4 H 8.019 l -1.4,-4 H 10 c 0.552285,0 1,-0.447715 1,-1 0,-0.552285 -0.447715,-1 -1,-1 H 5.915 l -1.4,-4 H 45 c 0.552285,0 1,-0.447715 1,-1 0,-0.552285 -0.447715,-1 -1,-1 H 3.812 l -1.4,-4 z m 4.021,18 h 43.986 l 2.574,7 H 5.433 Z"
         id="path18"
         inkscape:connector-curvature="0" />
      <path
         d="m 59,58 h -9 c -0.552285,0 -1,0.447715 -1,1 0,0.552285 0.447715,1 1,1 h 9 c 0.552285,0 1,-0.447715 1,-1 0,-0.552285 -0.447715,-1 -1,-1 z"
         id="path20"
         inkscape:connector-curvature="0" />
      <path
         d="M 46,58 H 1 c -0.55228475,0 -1,0.447715 -1,1 0,0.552285 0.44771525,1 1,1 h 45 c 0.552285,0 1,-0.447715 1,-1 0,-0.552285 -0.447715,-1 -1,-1 z"
         id="path22"
         inkscape:connector-curvature="0" />
      <path
         d="M 59,10 C 54.031722,9.9944889 50.005511,5.9682782 50,1 50,0.44771525 49.552285,0 49,0 c -0.552285,0 -1,0.44771525 -1,1 0.0072,6.0721625 4.927837,10.992836 11,11 0.552285,0 1,-0.447715 1,-1 0,-0.552285 -0.447715,-1 -1,-1 z"
         id="path24"
         inkscape:connector-curvature="0" />
      <path
         d="M 46,1 C 46,0.44771525 45.552285,0 45,0 h -2 c -0.552285,0 -1,0.44771525 -1,1 0,0.5522847 0.447715,1 1,1 h 2 c 0.552285,0 1,-0.4477153 1,-1 z"
         id="path26"
         inkscape:connector-curvature="0" />
      <path
         d="m 45.145,10 c 0.175539,-7.7e-6 0.347983,-0.046223 0.5,-0.134 l 1.732,-1 C 47.851214,8.5879942 48.012129,7.979353 47.737274,7.5033057 47.46242,7.0272584 46.85486,6.8623097 46.377,7.134 l -1.732,1 C 44.253059,8.3603139 44.061979,8.8216562 44.179119,9.2588223 44.296259,9.6959884 44.692412,9.9999801 45.145,10 Z"
         id="path28"
         inkscape:connector-curvature="0" />
      <path
         d="m 50.5,15.723 c 0.2298,0.132519 0.502838,0.168302 0.759025,0.09947 0.256188,-0.06883 0.47453,-0.236629 0.606975,-0.466472 l 1,-1.731 c 0.181484,-0.30957 0.183183,-0.692649 0.0045,-1.003817 -0.17878,-0.311166 -0.510537,-0.502712 -0.869382,-0.501923 -0.358845,7.89e-4 -0.689756,0.193791 -0.867118,0.505742 l -1,1.731 c -0.13292,0.229769 -0.169032,0.502958 -0.10038,0.759372 0.06865,0.256414 0.236436,0.475012 0.46638,0.607628 z"
         id="path30"
         inkscape:connector-curvature="0" />
      <path
         d="m 59,14 c -0.552285,0 -1,0.447715 -1,1 v 2 c 0,0.552285 0.447715,1 1,1 0.552285,0 1,-0.447715 1,-1 v -2 c 0,-0.552285 -0.447715,-1 -1,-1 z"
         id="path32"
         inkscape:connector-curvature="0" />
    </g>
  </g>
</svg>
