<svg id="Layer_1" height="512" viewBox="0 0 128 128" width="512" xmlns="http://www.w3.org/2000/svg" data-name="Layer 1"><path d="m82.8 101.753c-.628-.155-15.656-3.77-37.467-.026a1.75 1.75 0 0 0 .294 3.475 1.721 1.721 0 0 0 .3-.026c21.038-3.612 35.888-.062 36.035-.025a1.75 1.75 0 0 0 .84-3.4z"/><path d="m62.25 77.252v10.915a1.75 1.75 0 1 0 3.5 0v-10.915a9.884 9.884 0 0 0 8.125-9.71c0-4.831-7.064-14.4-8.48-16.265a1.812 1.812 0 0 0 -2.789 0c-1.417 1.869-8.48 11.434-8.48 16.265a9.884 9.884 0 0 0 8.124 9.71zm1.75-21.952c2.889 4.087 6.375 9.814 6.375 12.241a6.382 6.382 0 0 1 -4.625 6.125v-9.666a1.75 1.75 0 0 0 -3.5 0v9.666a6.382 6.382 0 0 1 -4.625-6.125c0-2.426 3.486-8.153 6.375-12.241z"/><path d="m57.745 20.154a5.359 5.359 0 0 0 -5.353 5.353 1.75 1.75 0 1 0 3.5 0 1.855 1.855 0 0 1 1.853-1.853 1.75 1.75 0 0 0 0-3.5z"/><path d="m67.115 15.07a1.75 1.75 0 0 0 .332 3.484.789.789 0 0 1 .563.173.77.77 0 0 1 .276.521 1.75 1.75 0 0 0 1.74 1.584c.056 0 .111 0 .168-.008a1.75 1.75 0 0 0 1.576-1.908 4.271 4.271 0 0 0 -4.656-3.848z"/><path d="m106.574 114.058c-.035-.014-3.6-1.4-4.842-4.442a8.6 8.6 0 0 0 -4.45-4.242c2.446-5.7 3.931-15.025 3.931-25.025 0-8.942-4.388-28.527-6.823-36.457h3.077a1.75 1.75 0 0 0 1.75-1.75v-7.442a1.75 1.75 0 0 0 -1.75-1.75h-3.343a8.96 8.96 0 0 0 -8.772-7.2h-.068a9.074 9.074 0 0 0 -8.284-8.161 12.217 12.217 0 0 0 -21.355-1.915 9.1 9.1 0 0 0 -8.4 6.69 7.12 7.12 0 0 0 -5.6 3.447 8.965 8.965 0 0 0 -7.773 7.141h-3.339a1.75 1.75 0 0 0 -1.75 1.75v7.438a1.75 1.75 0 0 0 1.75 1.75h3.078c-2.436 7.93-6.823 27.513-6.823 36.457 0 10 1.484 19.321 3.93 25.025a8.6 8.6 0 0 0 -4.45 4.243c-1.24 3.038-4.807 4.428-4.836 4.439a1.75 1.75 0 0 0 .582 3.389c.509.017 11.829.132 18.936-5.341a24.623 24.623 0 0 0 6.536 1.333 155.247 155.247 0 0 0 16.514.776 155.233 155.233 0 0 0 16.516-.774 24.619 24.619 0 0 0 6.536-1.333c6.652 5.124 17 5.343 18.708 5.343h.228a1.75 1.75 0 0 0 .587-3.387zm-64-84.8c.034 0 .119.007.153.007a1.74 1.74 0 0 0 1.649-1.1 3.651 3.651 0 0 1 3.406-2.315 3.726 3.726 0 0 1 .625.059 1.749 1.749 0 0 0 2.038-1.595 5.576 5.576 0 0 1 5.537-5.14c.163 0 .324.012.483.025a1.745 1.745 0 0 0 1.683-.9 8.715 8.715 0 0 1 15.965 1.566 1.746 1.746 0 0 0 1.787 1.215l.1-.007c.087-.006.174-.013.262-.013a5.566 5.566 0 0 1 5.56 5.56 5.708 5.708 0 0 1 -.076.872 1.75 1.75 0 0 0 2.184 1.961 5.4 5.4 0 0 1 6.573 3.5h-53.003a5.419 5.419 0 0 1 5.079-3.698zm-10.3 7.2h63.443v3.938h-63.434zm55.989 72.1a1.807 1.807 0 0 0 -2.525.141 1.711 1.711 0 0 0 -.181.253c-1.784.773-9.824 1.761-21.565 1.761s-19.79-.989-21.568-1.762a1.767 1.767 0 0 0 -.225-.3 1.8 1.8 0 0 0 -2.479-.092c-3.151 2.934-7.923 4.271-11.712 4.881a9.937 9.937 0 0 0 1.492-2.5c.462-1.131 1.947-2.208 4.184-3.034a1.75 1.75 0 0 0 .932-2.476c-2.674-4.934-4.336-14.544-4.336-25.081 0-8.929 4.788-29.847 6.992-36.457h53.449c2.2 6.612 6.992 27.53 6.992 36.457 0 10.536-1.661 20.146-4.336 25.081a1.75 1.75 0 0 0 .932 2.476c2.236.826 3.722 1.9 4.184 3.034a9.93 9.93 0 0 0 1.491 2.5c-3.79-.612-8.561-1.95-11.713-4.884z"/></svg>