<?xml version="1.0" encoding="UTF-8" standalone="no"?>
<svg
   xmlns:dc="http://purl.org/dc/elements/1.1/"
   xmlns:cc="http://creativecommons.org/ns#"
   xmlns:rdf="http://www.w3.org/1999/02/22-rdf-syntax-ns#"
   xmlns:svg="http://www.w3.org/2000/svg"
   xmlns="http://www.w3.org/2000/svg"
   xmlns:sodipodi="http://sodipodi.sourceforge.net/DTD/sodipodi-0.dtd"
   xmlns:inkscape="http://www.inkscape.org/namespaces/inkscape"
   version="1.1"
   x="0px"
   y="0px"
   viewBox="0 0 77.894447 90.783394"
   xml:space="preserve"
   id="svg8"
   sodipodi:docname="fruits.svg"
   width="77.894447"
   height="90.783394"
   inkscape:version="0.92.2 (5c3e80d, 2017-08-06)"><metadata
     id="metadata14"><rdf:RDF><cc:Work
         rdf:about=""><dc:format>image/svg+xml</dc:format><dc:type
           rdf:resource="http://purl.org/dc/dcmitype/StillImage" /><dc:title></dc:title></cc:Work></rdf:RDF></metadata><defs
     id="defs12" /><sodipodi:namedview
     pagecolor="#ffffff"
     bordercolor="#666666"
     borderopacity="1"
     objecttolerance="10"
     gridtolerance="10"
     guidetolerance="10"
     inkscape:pageopacity="0"
     inkscape:pageshadow="2"
     inkscape:window-width="695"
     inkscape:window-height="480"
     id="namedview10"
     showgrid="false"
     fit-margin-top="0"
     fit-margin-left="0"
     fit-margin-right="0"
     fit-margin-bottom="0"
     inkscape:zoom="1.888"
     inkscape:cx="38.945343"
     inkscape:cy="32.907715"
     inkscape:window-x="0"
     inkscape:window-y="0"
     inkscape:window-maximized="0"
     inkscape:current-layer="svg8" /><path
     d="m 64.950226,39.987496 c 0.206054,-0.683593 1.532226,-2.630859 3.654297,-4.751953 0.428711,-0.429199 0.557617,-1.074218 0.325195,-1.634765 -0.232422,-0.560547 -0.779297,-0.92627 -1.385742,-0.92627 -1.96582,0 -3.702149,1.27002 -4.53711,1.880371 l -0.06445,0.07471 -0.378906,-2.620605 c -0.09082,-0.62793 -0.566406,-1.13086 -1.188476,-1.256348 -0.623047,-0.121582 -1.254883,0.155273 -1.582032,0.698242 l -1.222659,2.10156 c -0.84668,-0.927735 -2.095703,-2.242188 -3.800781,-2.591309 -0.591797,-0.121582 -1.191406,0.121094 -1.532227,0.61377 -0.342773,0.492675 -0.358398,1.141601 -0.04101,1.65039 1.071289,1.714844 1.565429,4.155274 1.502929,5.020996 -3.277649,0.113831 -6.282348,0.857422 -8.953979,2.210327 -1.829773,-3.909118 -4.293152,-6.936096 -7.312927,-8.986694 -0.08948,-0.07458 -0.187378,-0.138 -0.292359,-0.190124 -1.784729,-1.161438 -3.756286,-1.988953 -5.902527,-2.461243 1.417481,-3.403687 6.016175,-6.247559 8.096558,-7.224121 0.586914,-0.274902 0.930664,-0.895996 0.852539,-1.539063 -0.07813,-0.643066 -0.55957,-1.163574 -1.194336,-1.290527 -2.872253,-0.57428 -5.40332,-0.250549 -7.579529,0.532471 2.149048,-4.64917 6.885743,-6.274109 7.121033,-6.351319 0.626465,-0.20166 1.04834,-0.787109 1.040527,-1.444824 -0.0068,-0.657715 -0.441406,-1.233887 -1.072265,-1.421387 -4.245362,-1.2610471 -8.322083,0.05853 -11.148987,1.514222 1.020081,-1.505738 2.081116,-2.4107671 2.194397,-2.5049441 0.538574,-0.443848 0.699707,-1.200684 0.38916,-1.825684 -0.310547,-0.624511 -1.010254,-0.951172 -1.690918,-0.791015 -2.078369,0.494934 -3.789429,1.363464 -5.199707,2.434265 -4.584722,-9.83087177 -11.05866,-8.91119397 -11.349614,-8.86395277 -0.521973,0.084961 -0.960938,0.4384766 -1.154786,0.9301758 -0.193847,0.49218747 -0.114257,1.04980467 0.208985,1.46826167 3.041687,3.9309083 3.507568,7.5482793 3.407043,9.7773434 C 9.6188053,8.3082359 4.3313293,9.2170499 4.2524723,9.2345669 c -0.640625,0.121094 -1.129394,0.641601 -1.209473,1.2885741 -0.08057,0.646484 0.265625,1.270996 0.856446,1.54541 6.9385977,3.221131 7.3683467,8.169006 7.2272337,10.169861 -4.4470827,-0.359985 -8.0450437,1.672669 -9.8180547,3.431702 -0.44091797,0.437011 -0.56689397,1.101074 -0.31640597,1.669433 0.24999997,0.568848 0.82910197,0.930176 1.44531297,0.893555 7.244934,-0.347961 10.3015127,2.373901 11.5556027,4.329407 -1.598328,1.179992 -2.983216,2.582153 -4.1041867,4.223388 -0.08313,0.104676 -0.151734,0.218445 -0.204163,0.340638 -1.648743,2.529419 -2.727234,5.560058 -3.207764,9.008239 -0.224365,-0.0647 -0.453491,-0.124572 -0.687439,-0.178527 -0.345215,-0.08008 -0.707031,-0.03467 -1.021972,0.126953 -0.140625,0.07226 -3.458985,1.817382 -4.70751997,6.100586 -0.200683,0.688964 0.114258,1.423339 0.751465,1.752441 0.01904,0.0098 1.82617197,1.020508 2.71972697,4.075684 -1.323243,2.418457 -5.6489263,11.793457 0.224121,22.061523 3.974609,6.947754 13.3354487,10.710449 23.5131827,10.709961 6.789551,-4.88e-4 13.944336,-1.675781 20.100586,-5.196777 3.22522,-1.84491 5.924866,-3.99231 8.080628,-6.413331 0.666076,0.05145 1.325195,0.08179 1.973083,0.08179 10.44043,0 18.414063,-6.622559 20.143555,-16.997071 C 79.243195,52.208199 74.40921,43.681832 64.950226,39.987496 Z M 42.666778,67.77308 c -0.09784,-0.0379 -0.2005,-0.06738 -0.308349,-0.08441 -0.347107,-0.05487 -0.668213,-0.125122 -1.008606,-0.184082 0.876709,-0.893371 1.662353,-1.762085 2.356323,-2.60028 0.514465,0.119689 1.0401,0.230835 1.569092,0.339904 -0.259583,0.784119 -0.56366,1.528138 -0.916321,2.228333 -0.547668,0.09241 -1.109375,0.190735 -1.692139,0.300537 z M 14.50357,46.649972 c 1.189332,1.582275 2.630066,3.276306 4.36139,4.989502 -1.069519,1.236084 -2.271424,2.503113 -3.632019,3.792664 -1.313111,-1.244019 -2.361145,-2.416932 -3.181397,-3.447388 0.09631,-0.24408 0.207764,-0.46228 0.343506,-0.633484 0.48291,-0.609375 0.420898,-1.486328 -0.143555,-2.020996 -0.01758,-0.01666 -0.106994,-0.09937 -0.250427,-0.221985 0.931397,-0.845764 1.759277,-1.664856 2.502502,-2.458313 z M 36.011139,33.486215 c 0.01251,0.701538 -0.01575,1.904907 -0.226257,3.498291 -2.087464,-1.551636 -3.499329,-2.944519 -4.229126,-3.729981 0.243225,-0.446045 0.3609,-0.922912 0.32965,-1.428284 1.528138,0.369263 2.905457,0.928345 4.125733,1.659974 z m 1.774109,33.302124 c -1.9375,-0.444519 -3.756958,-0.950684 -5.456238,-1.51239 1.088684,-1.001282 2.086487,-1.995972 3.004456,-2.981019 1.615539,0.644471 3.329345,1.232361 5.136779,1.759339 -0.785705,0.880737 -1.676758,1.794189 -2.684997,2.73407 z M 25.939606,57.389413 c -1.021546,1.163391 -2.147095,2.333374 -3.384644,3.503174 -1.930725,-1.139161 -3.606567,-2.316529 -5.049499,-3.481018 1.319763,-1.261292 2.504211,-2.505249 3.564575,-3.723145 1.450745,1.260803 3.074219,2.505921 4.869568,3.700989 z m -2.930542,-6.067627 c 1.565307,-2.039185 2.790161,-3.979065 3.751037,-5.774902 1.448242,1.220214 3.092469,2.464294 4.92627,3.666626 -1.011353,1.866516 -2.260865,3.815124 -3.792603,5.8031 -1.841735,-1.211059 -3.46759,-2.461304 -4.884704,-3.694824 z m 5.542236,7.690491 c 1.207825,0.699279 2.485596,1.37091 3.837524,2.00708 -0.987182,1.018249 -2.079589,2.048889 -3.266174,3.084778 -1.341431,-0.53888 -2.609497,-1.10315 -3.787903,-1.693787 1.1698,-1.13562 2.236511,-2.269837 3.216553,-3.398071 z m 8.903198,0.862426 c 1.623963,-1.986938 2.922119,-3.907104 3.965638,-5.720642 1.414001,0.528748 2.890747,1.008911 4.438049,1.42218 -0.458801,1.267029 -1.425537,3.369568 -3.321777,5.943238 -1.796021,-0.484802 -3.48584,-1.039307 -5.08191,-1.644776 z m -2.924011,-1.218505 c -1.426148,-0.64502 -2.766296,-1.327088 -4.017639,-2.038147 1.519409,-1.981385 2.767944,-3.924378 3.798095,-5.797547 1.338563,0.764465 2.763062,1.49408 4.274293,2.171143 -1.053284,1.786377 -2.380555,3.690185 -4.054749,5.664551 z m 1.147522,-10.546631 c 1.013,-2.206971 1.729736,-4.277039 2.22821,-6.145203 1.291382,0.742004 2.719361,1.466431 4.285218,2.139832 -0.355835,1.635681 -1.004456,3.76538 -2.179505,6.222045 -1.537536,-0.685974 -2.981201,-1.432922 -4.333923,-2.216674 z m -2.635376,-1.641602 c -1.85083,-1.239746 -3.489624,-2.520874 -4.915955,-3.760742 1.208863,-2.839783 1.727112,-5.146484 1.947022,-6.660889 1.086975,1.090393 2.78009,2.609314 5.098572,4.200928 -0.44458,1.842529 -1.114929,3.943603 -2.129639,6.220703 z m -7.28064,-5.953003 c -1.270813,-1.257995 -2.289856,-2.401428 -3.051757,-3.31958 0.436889,-0.04633 0.875671,-0.09528 1.321044,-0.171265 1.016053,-0.173461 2.020203,-0.420593 2.956238,-0.731445 -0.20111,1.072022 -0.569397,2.511231 -1.225525,4.22229 z m -8.358581,-3.634338 c -0.361817,1.04834 -1.113648,2.7005 -2.630738,4.780334 -1.016113,-1.651062 -1.658752,-2.967529 -1.997741,-3.729065 0.708191,-0.935485 1.518005,-1.777404 2.432922,-2.520874 0.363465,0.560181 1.022156,1.104431 2.195557,1.469605 z m 2.554687,1.713684 c 0.991272,1.249817 2.48407,2.974426 4.485718,4.878296 -0.896118,1.765808 -2.084595,3.714477 -3.648865,5.784851 -0.396606,-0.39679 -0.77832,-0.789307 -1.132324,-1.171814 -1.215942,-1.313782 -2.24591,-2.595581 -3.122436,-3.796387 1.799072,-2.294128 2.833801,-4.246765 3.417907,-5.694946 z m -6.96051,18.846863 c -0.237549,0.203796 -0.470703,0.407226 -0.716186,0.611755 -0.157898,-0.584228 -0.282349,-1.151001 -0.373902,-1.695251 0.341675,0.354736 0.706665,0.715942 1.090088,1.083496 z m 2.263733,2.009704 c 1.42749,1.177735 3.064331,2.37262 4.946655,3.534729 -1.181274,1.000428 -2.450927,1.995545 -3.814392,2.981873 -0.899414,-1.062622 -1.571472,-2.097046 -2.004394,-2.850098 -0.394043,-0.685302 -0.73761,-1.377075 -1.041932,-2.065613 0.663697,-0.535339 1.301514,-1.06903 1.914063,-1.600891 z m 7.727722,5.114868 c 1.106812,0.586548 2.26648,1.159607 3.513977,1.704224 -1.539001,1.198486 -3.231628,2.397644 -5.078308,3.58844 -1.070251,-0.463074 -2.021118,-1.078919 -2.864136,-1.759399 1.593933,-1.169373 3.071717,-2.348816 4.428467,-3.533265 z m 6.719727,2.980713 c 1.652649,0.602539 3.408325,1.161255 5.284912,1.657349 -0.03876,0.03101 -0.07184,0.06128 -0.11084,0.09229 -0.0084,0.0067 -0.01428,0.01508 -0.02246,0.02185 -2.34137,0.452392 -4.845825,0.904968 -7.571289,1.297973 -0.614685,0.08917 -1.200012,0.11023 -1.771973,0.102967 1.506775,-1.055481 2.9021,-2.114441 4.191651,-3.172425 z m 16.297302,-5.216919 c -0.10144,-0.02081 -0.204285,-0.04047 -0.305115,-0.06171 0.138611,-0.203369 0.267151,-0.400879 0.395264,-0.598267 -0.03113,0.219117 -0.05359,0.445679 -0.09015,0.659973 z M 42.828278,51.468881 c 0.887817,-1.88385 1.495666,-3.600281 1.910156,-5.091065 0.449158,1.55658 0.771484,3.043762 0.993042,4.340637 0.103821,0.607911 0.176636,1.19043 0.255432,1.777893 -1.088074,-0.309509 -2.140747,-0.653564 -3.15863,-1.027465 z M 42.621124,40.935006 c -7.32e-4,0.02496 -0.001,0.04584 -0.0021,0.07355 -1.485413,-0.679077 -2.827881,-1.403931 -4.030151,-2.138367 0.198486,-1.156189 0.310546,-2.178711 0.372497,-3.057983 1.506958,1.506774 2.711548,3.269592 3.659729,5.122802 z M 26.494171,16.363473 c 0.04395,-0.03809 3.254395,-2.773438 7.328125,-3.571777 -2.162659,1.739929 -4.385559,4.460266 -5.163147,8.47583 -0.383484,0.270141 -0.749084,0.549255 -1.094727,0.833496 -1.062133,-2.08429 -1.299011,-4.019104 -1.085571,-5.726746 0.0049,-0.0041 0.0105,-0.0066 0.01532,-0.0108 z m -4.746887,-5.242432 c -1.264038,1.532837 -2.127136,3.214783 -2.675537,4.770508 -0.394715,-0.478271 -0.794129,-0.922729 -1.196839,-1.336792 0.373841,-1.776062 0.804322,-5.9067381 -1.685913,-10.7293701 1.66687,0.9560547 3.754517,2.996582 5.558289,7.2956541 z M 7.5366523,25.525094 c 2.6079097,-0.724609 6.2836907,-0.580566 10.5029287,2.927246 0.637207,0.529297 1.583496,0.442871 2.112305,-0.194336 0.529785,-0.637207 0.442871,-1.583008 -0.194336,-2.112304 -2.023254,-1.681946 -4.005737,-2.73407 -5.888489,-3.326294 0.172058,-1.897827 0.04834,-6.104248 -3.584656,-9.825562 1.468201,0.586426 3.090272,1.545349 4.701172,3.078369 0.01318,0.01251 0.02509,0.026 0.03876,0.03809 1.952026,1.869141 3.885498,4.58551 5.505676,8.540772 0.237793,0.580078 0.797852,0.93164 1.388672,0.93164 0.189453,0 0.381836,-0.03613 0.568359,-0.112304 0.766602,-0.313965 1.133301,-1.19043 0.819336,-1.957032 -0.671325,-1.638488 -1.400451,-3.085205 -2.166382,-4.375183 0.173584,-1.121215 0.828614,-4.124023 3.080445,-6.574524 -1.338196,3.232361 -1.650208,7.327088 0.901367,11.69043 -1.430969,1.59137 -2.213867,2.928833 -2.300781,3.081055 -0.411133,0.717773 -0.162598,1.631836 0.554687,2.043945 0.717285,0.411621 1.633789,0.165039 2.047363,-0.550781 0.162598,-0.282227 3.241211,-5.494141 8.651368,-6.965332 -2.937622,2.289551 -6.013794,5.772095 -5.38617,10.018066 -0.338196,0.518799 -2.184997,1.643677 -5.361877,2.186035 -3.174622,0.541871 -5.288025,0.09424 -5.781861,-0.281921 C 17.208712,31.10188 14.442232,26.738355 7.5366543,25.525098 Z m 3.4103997,15.534302 c 0.460205,0.880188 1.053955,1.92218 1.803223,3.081848 -0.917725,1.013977 -2.021302,2.096985 -3.3046267,3.226318 -0.03052,-0.01666 -0.0636,-0.03302 -0.09454,-0.04962 0.249633,-2.331055 0.7835077,-4.41864 1.5959467,-6.258545 z M 45.878937,82.982125 C 32.070343,90.881539 12.124054,88.662301 6.3598943,78.584176 1.6524963,70.35444 4.5040593,62.783273 5.8384093,60.075387 c 0.0093,-0.0191 0.0246,-0.03308 0.0332,-0.05273 0.422363,-0.962403 1.433593,-2.052735 1.788574,-2.392579 0.599609,-0.571289 0.623047,-1.520019 0.05225,-2.119628 -0.535217,-0.562134 -1.390198,-0.596497 -1.990112,-0.135254 -0.760437,-1.609803 -1.708069,-2.677918 -2.433716,-3.312989 0.71582,-1.633789 1.80957,-2.59375 2.413086,-3.028808 1.544922,0.45459 2.80664,1.213867 3.594238,1.771972 -1.308106,3.273438 -0.367188,8.833497 2.4926757,13.807129 3.802246,6.614746 9.608398,9.879883 15.929199,8.973145 4.441894,-0.641113 8.335937,-1.430664 11.771484,-2.127441 6.964844,-1.412598 11.994141,-2.431153 13.232422,-0.340333 0.422852,0.713868 1.34375,0.949708 2.054688,0.527344 0.71289,-0.421875 0.949219,-1.341797 0.527344,-2.054687 -0.0039,-0.0073 -0.0088,-0.01465 -0.0127,-0.02197 l 0.841801,-0.344245 c 0.474609,0.478515 1.128906,1.259277 1.537109,2.255859 l -1.254882,1.189453 c -0.116211,0.109375 -0.212891,0.236328 -0.289063,0.376465 -2.110352,3.911133 -5.558594,7.254395 -10.24707,9.936035 z M 74.607452,61.76484 c -1.455932,8.732544 -8.127502,14.334046 -16.89862,14.474304 0.333984,-0.508483 0.648498,-1.026245 0.940613,-1.554382 l 1.764648,-1.672363 c 0.387695,-0.367188 0.550781,-0.91211 0.428711,-1.431641 -0.764649,-3.255859 -3.416992,-5.226562 -3.530274,-5.308594 -0.420898,-0.308105 -0.971679,-0.375 -1.452148,-0.177246 l -3.207031,1.311036 c -1.291138,-0.466858 -2.915833,-0.538758 -4.824158,-0.385071 0.296631,-0.781922 0.545166,-1.602967 0.755554,-2.454956 0.02319,-0.06897 0.06213,-0.129212 0.07544,-0.202942 0.0099,-0.05493 0.0089,-0.108826 0.01263,-0.163269 0.650757,-2.831848 0.834534,-6.037415 0.55127,-9.596985 0.0026,-0.03888 0.0046,-0.07721 0.0042,-0.115723 -4.27e-4,-0.04773 -0.0054,-0.09399 -0.01025,-0.140747 -0.0053,-0.0509 -0.01086,-0.101257 -0.0213,-0.150879 -0.0041,-0.01929 -0.0058,-0.03918 -0.01068,-0.05823 -0.114563,-1.269532 -0.265869,-2.566712 -0.497559,-3.923584 -0.431457,-2.526184 -1.039062,-4.844849 -1.797058,-6.96576 1.654236,-0.868164 3.470825,-1.460266 5.432434,-1.766418 -0.132507,0.384765 -0.113586,0.820007 0.09705,1.205322 0.271484,0.499024 0.786133,0.782227 1.317383,0.782227 0.243164,0 0.489258,-0.05908 0.717773,-0.183594 2.279419,-1.243897 3.076843,-3.399719 3.204407,-4.551636 0.0016,-0.01178 0.006,-0.02246 0.0075,-0.0343 0.0013,-0.01025 0.0012,-0.02289 0.0024,-0.03326 8.54e-4,-0.009 0.0037,-0.02081 0.0044,-0.02972 6.72e-4,-0.0082 -9.77e-4,-0.01599 -4.27e-4,-0.02417 0.05316,-0.512756 0.01941,-1.172668 -0.09821,-1.911865 0.269531,0.151367 0.573242,0.233398 0.907227,0.220703 0.692383,-0.02978 1.33789,-0.301758 1.833984,-0.75293 0.322266,0.588379 0.844727,1.0542 1.492188,1.308594 0.251953,0.09778 0.512146,0.150086 0.773376,0.176087 -0.04498,0.05719 -0.09064,0.11383 -0.127868,0.178894 -0.965821,1.687011 -1.958985,5.372558 1.195312,7.245605 0.240235,0.142578 0.503906,0.210449 0.764649,0.210449 0.511718,0 1.010742,-0.261718 1.291015,-0.733886 0.152649,-0.257202 0.216919,-0.541382 0.206665,-0.819641 6.685974,3.517639 9.995728,10.229797 8.694702,18.030578 z"
     id="path2"
     inkscape:connector-curvature="0" /></svg>