<svg height="512" viewBox="0 0 60 60" width="512" xmlns="http://www.w3.org/2000/svg"><g id="006---Vitamins"><path id="Shape" d="m7 9c.55228475 0 1-.44771525 1-1v-3c0-.55228475-.44771525-1-1-1s-1 .44771525-1 1v3c0 .55228475.44771525 1 1 1z"/><path id="Shape" d="m11 9c.5522847 0 1-.44771525 1-1v-3c0-.55228475-.4477153-1-1-1s-1 .44771525-1 1v3c0 .55228475.4477153 1 1 1z"/><path id="Shape" d="m15 9c.5522847 0 1-.44771525 1-1v-3c0-.55228475-.4477153-1-1-1s-1 .44771525-1 1v3c0 .55228475.4477153 1 1 1z"/><path id="Shape" d="m19 9c.5522847 0 1-.44771525 1-1v-3c0-.55228475-.4477153-1-1-1s-1 .44771525-1 1v3c0 .55228475.4477153 1 1 1z"/><path id="Shape" d="m23 9c.5522847 0 1-.44771525 1-1v-3c0-.55228475-.4477153-1-1-1s-1 .44771525-1 1v3c0 .55228475.4477153 1 1 1z"/><path id="Shape" d="m27 9c.5522847 0 1-.44771525 1-1v-3c0-.55228475-.4477153-1-1-1s-1 .44771525-1 1v3c0 .55228475.4477153 1 1 1z"/><path id="Shape" d="m22.333 29h-2.123c-.8402028.001634-1.590273.5269625-1.879 1.316l-1.331 3.659-1.331-3.659c-.288727-.7890375-1.0387972-1.314366-1.879-1.316h-2.123c-.6521988.000249-1.2633104.3184885-1.6374421.8527064-.37413176.5342179-.46428384 1.2173038-.2415579 1.8302936l3.632 10c.2887651.789588 1.0392672 1.3153386 1.88 1.317h3.4c.8412891.0000995 1.5926998-.5262877 1.88-1.317l3.633-10c.2227862-.6131558.1325218-1.2964341-.2418448-1.830703-.3743666-.534269-.9857798-.8523741-1.6381552-.852297zm0 2-3.633 10h-3.4l-3.633-10h2.123l2.271 6.242c.1443277.3940593.5193416.6560829.939.6560829s.7946723-.2620236.939-.6560829l2.271-6.242z"/><path id="Shape" d="m48 23c-4.457 0-12 .842-12 4v7c0 1.142.84.218-2 1.215v-15.315c.005678-2.1225779-.8380018-4.1592202-2.343-5.656l-1.483-1.484c1.1069476-.4707263 1.8257005-1.5571217 1.826-2.76v-7c0-1.65685425-1.3431458-3-3-3h-24c-1.65685425 0-3 1.34314575-3 3v7c.00029953 1.2028783.71905241 2.2892737 1.826 2.76l-1.483 1.483c-1.50524504 1.4970238-2.34894533 3.5340757-2.343 5.657v33.1c.00440864 3.8641657 3.13583434 6.9955914 7 7h20c3.8641657-.0044086 6.9955914-3.1358343 7-7v-5.215c.6932137.2382066 1.4014268.4302927 2.12.575-.174.477-.12.027-.12 7.64 0 3.158 7.543 4 12 4s12-.842 12-4v-7c0-1.879-2.7-2.857-5.123-3.358.171-.47.123-.042.123-7.642-.002449-.2186913-.0430586-.435276-.12-.64 2.813-.579 5.12-1.615 5.12-3.36v-7c0-3.158-7.543-4-12-4zm0 2c5.926 0 9.582 1.278 9.986 2-.4.722-4.06 2-9.986 2-6.019 0-9.695-1.319-10-1.95v-.016c.305-.715 3.981-2.034 10-2.034zm5 19.968c-.3.714-3.975 2.032-10 2.032-2.505 0-7.543-.342-9.649-1.686-.0465023-.0428249-.0970757-.0810061-.151-.114-.0816668-.0610005-.1497721-.1383-.2-.227v-4.595c4.446 2.152 15.548 2.154 20 0zm-.333-7.25c.226.157.308.259.331.26-.333.716-3.998 2.022-9.998 2.022-6.025 0-9.7-1.318-10-1.95v-.016c.145-.337 1.586-1.192 4.952-1.677 3.477 1.711 10.304 1.902 14.715 1.361zm-21.667.282v7h-29v-19h30v10.237c-.5949857.3949629-.9663332 1.0496486-1 1.763zm-27-35c0-.55228475.44771525-1 1-1h24c.5522847 0 1 .44771525 1 1v7c0 .5522847-.4477153 1-1 1h-24c-.55228475 0-1-.4477153-1-1zm-.243 12.657 2.657-2.657h21.172l2.657 2.657c1.1288329 1.1229176 1.7615083 2.6507728 1.757 4.243l.0000239 4.1h-30.00004783l.00002393-4.1c-.0045083-1.5922272.62816708-3.1200824 1.757-4.243zm23.243 42.343h-20c-2.76005315-.0033061-4.99669388-2.2399468-5-5v-6h30v6c-.0033061 2.7600532-2.2399468 4.9966939-5 5zm21 0c-6.012 0-9.684-1.312-10-2.028v-4.594c4.446 2.152 15.548 2.154 20 0v4.59c-.3.714-3.975 2.032-10 2.032zm10.006-9.041c-.277.712-3.957 2.041-10.006 2.041-6.025 0-9.7-1.318-10-1.949v-.018c.0898743-.1267969.2049387-.233691.338-.314 4.324.529 11.186.373 14.71-1.362 3.388.488 4.829 1.35 4.958 1.602zm-10.006-12.959c-6.012 0-9.684-1.312-10-2.028v-4.594c4.446 2.152 15.548 2.154 20 0v4.59c-.3.714-3.975 2.032-10 2.032z"/><path id="Shape" d="m7 17h1c.55228475 0 1-.4477153 1-1s-.44771525-1-1-1h-1c-.55228475 0-1 .4477153-1 1s.44771525 1 1 1z"/><path id="Shape" d="m12 17h15c.5522847 0 1-.4477153 1-1s-.4477153-1-1-1h-15c-.5522847 0-1 .4477153-1 1s.4477153 1 1 1z"/></g></svg>