<?xml version="1.0" encoding="UTF-8" standalone="no"?>
<svg
   xmlns:dc="http://purl.org/dc/elements/1.1/"
   xmlns:cc="http://creativecommons.org/ns#"
   xmlns:rdf="http://www.w3.org/1999/02/22-rdf-syntax-ns#"
   xmlns:svg="http://www.w3.org/2000/svg"
   xmlns="http://www.w3.org/2000/svg"
   xmlns:sodipodi="http://sodipodi.sourceforge.net/DTD/sodipodi-0.dtd"
   xmlns:inkscape="http://www.inkscape.org/namespaces/inkscape"
   data-name="Layer 1"
   viewBox="0 0 62.784279 62.472622"
   x="0px"
   y="0px"
   version="1.1"
   id="svg10"
   sodipodi:docname="rice.svg"
   width="62.784279"
   height="62.472622"
   inkscape:version="0.92.2 (5c3e80d, 2017-08-06)">
  <metadata
     id="metadata16">
    <rdf:RDF>
      <cc:Work
         rdf:about="">
        <dc:format>image/svg+xml</dc:format>
        <dc:type
           rdf:resource="http://purl.org/dc/dcmitype/StillImage" />
        <dc:title>Noun Project-Food</dc:title>
      </cc:Work>
    </rdf:RDF>
  </metadata>
  <defs
     id="defs14" />
  <sodipodi:namedview
     pagecolor="#ffffff"
     bordercolor="#666666"
     borderopacity="1"
     objecttolerance="10"
     gridtolerance="10"
     guidetolerance="10"
     inkscape:pageopacity="0"
     inkscape:pageshadow="2"
     inkscape:window-width="750"
     inkscape:window-height="480"
     id="namedview12"
     showgrid="false"
     fit-margin-top="0"
     fit-margin-left="0"
     fit-margin-right="0"
     fit-margin-bottom="0"
     inkscape:zoom="1.888"
     inkscape:cx="-28.992758"
     inkscape:cy="18.73828"
     inkscape:window-x="0"
     inkscape:window-y="0"
     inkscape:window-maximized="0"
     inkscape:current-layer="svg10" />
  <title
     id="title2">Noun Project-Food</title>
  <path
     d="m 11.834888,47.534142 a 3.6441,3.6441 0 0 1 -1.47217,-0.31152 l -8.1792001,-3.58789 a 3.66268,3.66268 0 0 1 2.94336,-6.708 l 8.1797201,3.58886 v 0 a 3.66457,3.66457 0 0 1 -1.47168,7.01855 z m -8.1787101,-8.917 a 1.663,1.663 0 0 0 -0.66895,3.18555 l 8.1796901,3.58887 a 1.66131,1.66131 0 0 0 2.19043,-0.85352 1.66452,1.66452 0 0 0 -0.85449,-2.19043 l -8.1796901,-3.58887 a 1.65856,1.65856 0 0 0 -0.66699,-0.14159 z m 6.06787,-13.65039 a 3.6693,3.6693 0 0 1 -3.47945,-2.51073 l -2.81055,-8.47852 a 3.66257,3.66257 0 1 1 6.9531301,-2.30468 l 2.8105,8.47852 a 3.66359,3.66359 0 0 1 -3.4736301,4.81543 z m -2.81545,-13.8037 a 1.64519,1.64519 0 0 0 -0.52148,0.084 1.66484,1.66484 0 0 0 -1.05469,2.10156 l 2.81054,8.47851 a 1.66267,1.66267 0 0 0 3.1562501,-1.04687 v 0 l -2.8105201,-8.47853 a 1.66659,1.66659 0 0 0 -1.5801,-1.13867 z m 10.5215001,21.57715 a 3.6638,3.6638 0 0 1 -3.13818,-5.542 l 4.58057,-7.668 a 3.6624,3.6624 0 1 1 6.28857,3.75586 l -4.58057,7.668 v 0 a 3.64135,3.64135 0 0 1 -2.24951,1.67382 3.68362,3.68362 0 0 1 -0.90088,0.11232 z m 4.58985,-12.99414 a 1.66448,1.66448 0 0 0 -1.43067,0.80957 l -4.58056,7.668 a 1.6627028,1.6627028 0 1 0 2.855,1.70508 l 4.58056,-7.668 a 1.66541,1.66541 0 0 0 -0.57519,-2.28028 1.648,1.648 0 0 0 -0.84914,-0.23437 z m -2.29785,10.69528 z m 10.35986,-16.65915 a 3.63479,3.63479 0 0 1 -2.25049,-0.78027 l -7.03271,-5.5058596 a 3.66236,3.66236 0 1 1 4.51513,-5.76758 l 7.03371,5.50686 a 3.66347,3.66347 0 0 1 -1.81591,6.5195296 3.87227,3.87227 0 0 1 -0.44973,0.02732 z M 23.058028,2.9501924 a 1.6626,1.6626 0 0 0 -1.02685,2.97168 l 7.0332,5.5058596 a 1.6627125,1.6627125 0 0 0 2.05029,-2.6181596 h -4.8e-4 l -7.03321,-5.50684 a 1.65426,1.65426 0 0 0 -1.02295,-0.35257 z m 12.29639,30.9316096 a 3.68008,3.68008 0 0 1 -0.59961,-0.0498 3.66321,3.66321 0 0 1 -3.01562,-4.21094 l 1.458,-8.8125 a 3.66238,3.66238 0 1 1 7.22657,1.19531 l -1.458,8.8125 v 0 a 3.66909,3.66909 0 0 1 -3.61134,3.06543 z m 1.45508,-14.13867 a 1.66685,1.66685 0 0 0 -1.63965,1.3916 l -1.458,8.8125 a 1.66442,1.66442 0 0 0 1.36913,1.91211 1.67008,1.67008 0 0 0 1.91211,-1.36914 l 1.458,-8.8125 a 1.66654,1.66654 0 0 0 -1.36913,-1.91211 1.72792,1.72792 0 0 0 -0.27246,-0.02246 z m 1.16992,10.91021 z m -9.92969,20.38178 a 3.672,3.672 0 0 1 -3.333,-2.1416 l -3.71142,-8.124 a 3.6629136,3.6629136 0 0 1 6.6626,-3.0459 l 3.71142,8.125 a 3.666,3.666 0 0 1 -3.32959,5.18652 z m -3.71631,-13.45117 a 1.66237,1.66237 0 0 0 -1.50882,2.35351 l 3.71142,8.124 a 1.66215,1.66215 0 1 0 3.02393,-1.38086 v -10e-4 l -3.71135,-8.12495 a 1.66631,1.66631 0 0 0 -1.51518,-0.9707 z m 20.02,-23.23242 a 3.66088,3.66088 0 0 1 -2.8789,-5.9199196 l 5.50881,-7.03127 a 3.66264,3.66264 0 0 1 5.76562,4.51855 l -5.50879,7.0312496 v 0 a 3.66008,3.66008 0 0 1 -2.88672,1.40139 z m 5.51663,-12.3544896 a 1.60159,1.60159 0 0 0 -0.20411,0.01269 1.65217,1.65217 0 0 0 -1.10839,0.625 l -5.50879,7.03125 a 1.66218,1.66218 0 0 0 2.61718,2.0498096 l 5.50879,-7.0312496 a 1.66219,1.66219 0 0 0 -1.30468,-2.6875 z m -3.417,10.3359296 z m 12.67188,21.43262 c -0.03321,0 -0.06641,-10e-4 -0.10059,-10e-4 a 3.63563,3.63563 0 0 1 -2.55957,-1.14257 l -6.14551,-6.48145 a 3.66032,3.66032 0 0 1 0.13868,-5.17773 3.75746,3.75746 0 0 1 2.61621,-1.00391 3.63608,3.63608 0 0 1 2.56054,1.14258 l 6.14551,6.48047 v 0.001 a 3.66311,3.66311 0 0 1 -2.65527,6.18262 z m -6.14942,-11.80762 a 1.663,1.663 0 0 0 -1.20507,2.80664 l 6.1455,6.48145 a 1.66271,1.66271 0 0 0 2.41309,-2.28809 l -6.14551,-6.48047 a 1.64873,1.64873 0 0 0 -1.16211,-0.51855 c -0.01562,-9.8e-4 -0.03027,-9.8e-4 -0.0459,-9.8e-4 z m -4.03027,25.875 a 3.66994,3.66994 0 0 1 -3.51464,-2.62793 l -2.52344,-8.56933 a 3.66224,3.66224 0 1 1 7.02636,-2.06837 l 2.52344,8.56836 v 0 a 3.66585,3.66585 0 0 1 -3.51172,4.69726 z m -2.52148,-13.89453 a 1.66469,1.66469 0 0 0 -1.59864,2.13281 l 2.52348,8.56836 a 1.6629349,1.6629349 0 1 0 3.19043,-0.93945 l -2.52344,-8.56836 a 1.663,1.663 0 0 0 -1.59179,-1.19336 z m -11.88672,28.53418 a 3.66354,3.66354 0 0 1 -3.03369,-5.7041 l 4.97509,-7.418 a 3.6624484,3.6624484 0 0 1 6.084,4.0791 l -4.97656,7.418 a 3.68029,3.68029 0 0 1 -3.04883,1.625 z m 4.98535,-12.74512 a 1.73691,1.73691 0 0 0 -0.32422,0.03125 1.65709,1.65709 0 0 0 -1.05957,0.70508 l -4.97461,7.41895 a 1.662074,1.662074 0 1 0 2.76074,1.85156 h 10e-4 l 4.97559,-7.418 a 1.664,1.664 0 0 0 -1.37891,-2.58887 z"
     id="path4"
     inkscape:connector-curvature="0" />
</svg>
