<?xml version="1.0" encoding="iso-8859-1"?>
<!-- Generator: Adobe Illustrator 17.1.0, SVG Export Plug-In . SVG Version: 6.00 Build 0)  -->
<!DOCTYPE svg PUBLIC "-//W3C//DTD SVG 1.1//EN" "http://www.w3.org/Graphics/SVG/1.1/DTD/svg11.dtd">
<svg version="1.1" id="Capa_1" xmlns="http://www.w3.org/2000/svg" xmlns:xlink="http://www.w3.org/1999/xlink" x="0px" y="0px"
	 viewBox="0 0 470 470" style="enable-background:new 0 0 470 470;" xml:space="preserve">
<g>
	<path d="M114.391,298.173c-31.306,0-56.776,25.47-56.776,56.776s25.47,56.776,56.776,56.776s56.776-25.47,56.776-56.776
		S145.697,298.173,114.391,298.173z M72.615,354.948c0-23.035,18.741-41.776,41.776-41.776s41.776,18.741,41.776,41.776
		s-18.741,41.776-41.776,41.776S72.615,377.984,72.615,354.948z"/>
	<path d="M114.391,328.173c-14.764,0-26.776,12.012-26.776,26.776s12.012,26.775,26.776,26.775s26.776-12.011,26.776-26.775
		S129.155,328.173,114.391,328.173z M114.391,366.724c-6.493,0-11.776-5.282-11.776-11.775s5.283-11.776,11.776-11.776
		s11.776,5.283,11.776,11.776S120.884,366.724,114.391,366.724z"/>
	<path d="M462.5,303.85h-22.967v-12.5c0-4.142-3.357-7.5-7.5-7.5s-7.5,3.358-7.5,7.5v12.5h-15.468V94.744
		c0-20.109-16.36-36.469-36.47-36.469H36.469C16.36,58.275,0,74.635,0,94.744v240.225c0,4.142,3.358,7.5,7.5,7.5h21.033
		c-0.075,0.521-0.168,1.037-0.234,1.562c-0.519,4.109,2.393,7.861,6.502,8.379c4.104,0.526,7.861-2.393,8.379-6.502
		c4.512-35.765,35.125-62.735,71.21-62.735s66.698,26.97,71.21,62.735c0.478,3.791,3.708,6.563,7.432,6.563
		c0.313,0,0.629-0.02,0.948-0.06c4.11-0.519,7.021-4.27,6.502-8.379c-0.066-0.525-0.159-1.04-0.234-1.562h201.317h22.968v61.755
		c0,4.142,3.357,7.5,7.5,7.5s7.5-3.358,7.5-7.5v-61.755H462.5c4.143,0,7.5-3.358,7.5-7.5V311.35
		C470,307.208,466.642,303.85,462.5,303.85z M114.391,268.173c-37.848,0-70.704,24.554-82.308,59.296H15v-82.53h281.672v12.5
		c0,4.142,3.357,7.499,7.499,7.5c4.144,0,7.501-3.358,7.501-7.5V122.223h82.393v205.246h-82.393l-0.001-40.031
		c0-4.142-3.358-7.5-7.5-7.5c-4.143,0-7.5,3.358-7.5,7.5l0.001,40.031h-99.974C185.094,292.727,152.239,268.173,114.391,268.173z
		 M36.469,73.275h336.126c11.839,0,21.47,9.631,21.47,21.469v12.479H15V94.744C15,82.906,24.631,73.275,36.469,73.275z
		 M212.782,204.034h83.891v25.905h-83.891V204.034z M197.782,229.94h-83.891v-25.905h83.891V229.94z M296.672,189.034h-83.891
		v-25.906h83.891V189.034z M212.782,148.129v-25.905h83.891v25.905H212.782z M197.782,122.223v25.905h-83.891v-25.905H197.782z
		 M197.782,163.129v25.906h-83.891v-25.906H197.782z M98.891,189.034H15v-25.906h83.891V189.034z M98.891,204.034v25.905H15v-25.905
		H98.891z M98.891,122.223v25.905H15v-25.905H98.891z M455,327.469h-45.935v-8.619H455V327.469z"/>
</g>
<g>
</g>
<g>
</g>
<g>
</g>
<g>
</g>
<g>
</g>
<g>
</g>
<g>
</g>
<g>
</g>
<g>
</g>
<g>
</g>
<g>
</g>
<g>
</g>
<g>
</g>
<g>
</g>
<g>
</g>
</svg>
