<?xml version="1.0"?>
<svg xmlns="http://www.w3.org/2000/svg" viewBox="0 0 64 64" width="512" height="512"><g id="outline"><path d="M55,35H53.89A6.977,6.977,0,0,0,56,30V28a1,1,0,0,0-1-1H50V26a7.008,7.008,0,0,0-7-7H23a9,9,0,0,0-8.975,8.516,9,9,0,0,0-6,8A9.008,9.008,0,0,0,2,44a1,1,0,0,0,1,1H61a1,1,0,0,0,1-1V42A7.008,7.008,0,0,0,55,35ZM35.89,37H36v.11Zm1.885-2-2.048-2.835-1.621,1.17L35.308,35H32V34a5,5,0,0,1,10,0v1ZM42,29.11,41.89,29H42Zm2,5.78.11.11H44ZM50,37h.11l-.11.11Zm4-7a5,5,0,0,1-10,0V29h4.15l-.545,2.541,1.957.418L50.2,29H54Zm-6-4v1H44.991l1.478-1.986-1.605-1.2-1.784,2.4L41.6,23.811,39.9,24.856,41.213,27H38V26a5,5,0,0,1,10,0ZM16.071,27A7.011,7.011,0,0,1,23,21H38.11A6.977,6.977,0,0,0,36,26v1H16.071Zm-6,8A7.011,7.011,0,0,1,17,29H32.11a7.033,7.033,0,0,0-1.425,2H24v2h6.08A7.026,7.026,0,0,0,30,34v1H10.071Zm-6,8A7.011,7.011,0,0,1,11,37H26.11a7.033,7.033,0,0,0-1.425,2H8v2H24.08A7.026,7.026,0,0,0,24,42v1H4.071Zm28.972,0,1.38-1.6L32.91,40.1l-1.824,2.109-1.524-2.122L27.937,41.25,29.194,43H26V42a5,5,0,0,1,10,0v1ZM38,43v-.11l.11.11Zm0-5V37h2.972l-1.149,1.265L41.3,39.61l1.807-1.987,1.77,1.981,1.492-1.333L45.235,37H48v1a5,5,0,0,1-10,0Zm10,4.89V43h-.11ZM60,43H57.043l1.38-1.6L56.91,40.1l-1.824,2.109-1.524-2.122L51.937,41.25,53.194,43H50V42a5,5,0,0,1,10,0Z"/><rect x="21" y="23" width="9" height="2"/><rect x="32" y="23" width="2" height="2"/><rect x="14" y="31" width="8" height="2"/></g></svg>
