<?xml version="1.0" encoding="UTF-8" standalone="no"?>
<!-- Created with Inkscape (http://www.inkscape.org/) -->

<svg
   xmlns:dc="http://purl.org/dc/elements/1.1/"
   xmlns:cc="http://creativecommons.org/ns#"
   xmlns:rdf="http://www.w3.org/1999/02/22-rdf-syntax-ns#"
   xmlns:svg="http://www.w3.org/2000/svg"
   xmlns="http://www.w3.org/2000/svg"
   xmlns:sodipodi="http://sodipodi.sourceforge.net/DTD/sodipodi-0.dtd"
   xmlns:inkscape="http://www.inkscape.org/namespaces/inkscape"
   width="675"
   height="675"
   viewBox="0 0 178.59375 178.59376"
   version="1.1"
   id="svg8"
   inkscape:version="0.92.4 (5da689c313, 2019-01-14)"
   sodipodi:docname="budget-create.svg">
  <defs
     id="defs2" />
  <sodipodi:namedview
     id="base"
     pagecolor="#ffffff"
     bordercolor="#666666"
     borderopacity="1.0"
     inkscape:pageopacity="0.0"
     inkscape:pageshadow="2"
     inkscape:zoom="0.7"
     inkscape:cx="11.745205"
     inkscape:cy="369.34477"
     inkscape:document-units="mm"
     inkscape:current-layer="layer1"
     showgrid="false"
     fit-margin-top="0"
     fit-margin-left="0"
     fit-margin-right="0"
     fit-margin-bottom="0"
     inkscape:window-width="1920"
     inkscape:window-height="1009"
     inkscape:window-x="-8"
     inkscape:window-y="-8"
     inkscape:window-maximized="1"
     units="px" />
  <metadata
     id="metadata5">
    <rdf:RDF>
      <cc:Work
         rdf:about="">
        <dc:format>image/svg+xml</dc:format>
        <dc:type
           rdf:resource="http://purl.org/dc/dcmitype/StillImage" />
        <dc:title></dc:title>
      </cc:Work>
    </rdf:RDF>
  </metadata>
  <g
     inkscape:label="Layer 1"
     inkscape:groupmode="layer"
     id="layer1"
     transform="translate(-30.165615,-71.109049)">
    <path
       style="fill:#c487a8;fill-opacity:1;stroke-width:1.51355207"
       d="m 40.219783,119.56708 c 0.04155,30.6407 -0.08319,61.28554 0.06252,91.92364 0.479522,7.1054 7.616931,11.92496 14.402438,10.99795 35.951851,-0.042 71.907989,0.0841 107.857159,-0.0632 7.13058,-0.52985 11.77067,-7.78563 10.87046,-14.54402 0,-29.43811 0,-58.87622 0,-88.31433 -44.39753,0 -88.79505,0 -133.192576,0 z m 33.298143,93.84025 c -8.072277,0 -16.144555,0 -24.216832,0 0,-8.07228 0,-16.14457 0,-24.21685 8.072277,0 16.144555,0 24.216832,0 0,8.07228 0,16.14457 0,24.21685 z m 0,-30.27106 c -8.072277,0 -16.144555,0 -24.216832,0 0,-8.07228 0,-16.14455 0,-24.21683 8.072277,0 16.144555,0 24.216832,0 0,8.07228 0,16.14455 0,24.21683 z m 0,-30.27104 c -8.072277,0 -16.144555,0 -24.216832,0 0,-8.07228 0,-16.14456 0,-24.21684 8.072277,0 16.144555,0 24.216832,0 0,8.07228 0,16.14456 0,24.21684 z m 30.271044,60.5421 c -8.072279,0 -16.144557,0 -24.216836,0 0,-8.07228 0,-16.14457 0,-24.21685 8.072279,0 16.144557,0 24.216836,0 0,8.07228 0,16.14457 0,24.21685 z m 0,-30.27106 c -8.072279,0 -16.144557,0 -24.216836,0 0,-8.07228 0,-16.14455 0,-24.21683 8.072279,0 16.144557,0 24.216836,0 0,8.07228 0,16.14455 0,24.21683 z m 0,-30.27104 c -8.072279,0 -16.144557,0 -24.216836,0 0,-8.07228 0,-16.14456 0,-24.21684 8.072279,0 16.144557,0 24.216836,0 0,8.07228 0,16.14456 0,24.21684 z m 30.27104,60.5421 c -8.07228,0 -16.14455,0 -24.21683,0 0,-8.07228 0,-16.14457 0,-24.21685 8.07228,0 16.14455,0 24.21683,0 0,8.07228 0,16.14457 0,24.21685 z m 0,-30.27106 c -8.07228,0 -16.14455,0 -24.21683,0 0,-8.07228 0,-16.14455 0,-24.21683 8.07228,0 16.14455,0 24.21683,0 0,8.07228 0,16.14455 0,24.21683 z m 0,-30.27104 c -8.07228,0 -16.14455,0 -24.21683,0 0,-8.07228 0,-16.14456 0,-24.21684 8.07228,0 16.14455,0 24.21683,0 0,8.07228 0,16.14456 0,24.21684 z m 30.27104,60.5421 c -8.07228,0 -16.14455,0 -24.21683,0 0,-8.07228 0,-16.14457 0,-24.21685 8.07228,0 16.14455,0 24.21683,0 0,8.07228 0,16.14457 0,24.21685 z m 0,-30.27106 c -8.07228,0 -16.14455,0 -24.21683,0 0,-8.07228 0,-16.14455 0,-24.21683 8.07228,0 16.14455,0 24.21683,0 0,8.07228 0,16.14455 0,24.21683 z m 0,-30.27104 c -8.07228,0 -16.14455,0 -24.21683,0 0,-8.07228 0,-16.14456 0,-24.21684 8.07228,0 16.14455,0 24.21683,0 0,8.07228 0,16.14456 0,24.21684 z"
       id="path3699"
       inkscape:connector-curvature="0" />
    <path
       style="fill:#c487a8;fill-opacity:1;stroke-width:1.51355207"
       d="m 161.30395,89.296038 c -6.55873,0 -13.11745,0 -19.67618,0 -0.057,-4.844391 0.11692,-9.700396 -0.0923,-14.537129 -1.06051,-5.937981 -10.35424,-3.688489 -8.98901,2.033342 0,4.167929 0,8.335858 0,12.503787 -17.15359,0 -34.307182,0 -51.460773,0 -0.05699,-4.844391 0.116917,-9.700396 -0.0923,-14.537129 -1.060506,-5.937981 -10.354241,-3.688489 -8.98901,2.033342 0,4.167929 0,8.335858 0,12.503787 -7.17144,0.08476 -14.360153,-0.175422 -21.520071,0.141125 -6.487341,0.846114 -11.020913,7.429147 -10.26452,13.785327 0,3.43012 0,6.86025 0,10.29038 44.397526,0 88.795044,0 133.192574,0 -0.16232,-5.00585 0.37825,-10.07274 -0.38123,-15.029093 -1.26091,-5.26005 -6.29338,-9.273566 -11.72718,-9.187739 z M 76.54503,110.48577 c -6.767452,0.32818 -11.488243,-8.04406 -7.827523,-13.679296 1.485373,-2.745641 4.183004,-4.271692 3.286867,-0.182364 0.154834,3.139991 -0.904283,7.41667 2.773135,8.9642 4.3485,1.82721 7.07536,-2.95957 6.308178,-6.699751 0,-1.780317 0,-3.560635 0,-5.340953 5.704997,2.98091 6.069444,12.010614 0.536985,15.386934 -1.487093,1.00996 -3.280171,1.5563 -5.077642,1.55123 z m 60.54208,0 c -6.76745,0.32818 -11.48824,-8.04406 -7.82752,-13.679296 1.48538,-2.74564 4.18301,-4.271693 3.28687,-0.182364 0.15483,3.139991 -0.90428,7.41666 2.77313,8.9642 4.3485,1.82721 7.07536,-2.95957 6.30818,-6.699751 0,-1.780317 0,-3.560635 0,-5.340953 5.705,2.980906 6.06945,12.010614 0.53699,15.386934 -1.4871,1.00997 -3.28018,1.5563 -5.07765,1.55123 z"
       id="path3701"
       inkscape:connector-curvature="0" />
    <path
       style="fill:#94ec9e;fill-opacity:1;stroke:none;stroke-width:16.91490555;stroke-linecap:butt;stroke-linejoin:round;stroke-miterlimit:4;stroke-dasharray:none;stroke-opacity:1;paint-order:normal"
       d="m 201.99353,207.36948 c 1.04238,27.45288 -28.95016,49.51794 -54.84368,40.44257 -26.51725,-7.12225 -38.78055,-42.28246 -22.42885,-64.34577 14.64094,-23.23731 51.85203,-24.55506 68.10004,-2.41162 5.9086,7.40662 9.19607,16.84148 9.17249,26.31482 z"
       id="path815"
       inkscape:connector-curvature="0" />
    <path
       inkscape:connector-curvature="0"
       id="path839"
       style="font-style:normal;font-weight:normal;font-size:88.19444275px;line-height:1.25;font-family:sans-serif;letter-spacing:0px;word-spacing:0px;fill:#fffafa;fill-opacity:1;stroke:none;stroke-width:1.89660907"
       d="m 185.95166,212.69263 h -23.41358 v 23.52598 h -7.13148 v -23.52598 h -23.41359 v -6.90671 h 23.41359 v -23.52597 h 7.13148 v 23.52597 h 23.41358 z" />
  </g>
</svg>
