<svg xmlns="http://www.w3.org/2000/svg" width="702.767" height="702.767" viewBox="0 0 527.075 527.075"><path d="M88.758 273.438c4.812 0 8.75-3.938 8.75-8.75V262.5c0-4.812-3.938-8.75-8.75-8.75-4.813 0-8.75 3.938-8.75 8.75v2.188c0 4.813 3.937 8.75 8.75 8.75zM80.008 339.058c0 4.813 3.937 8.75 8.75 8.75 4.812 0 8.75-3.938 8.75-8.75v-3.938c0-4.812-3.938-8.75-8.75-8.75-4.813 0-8.75 3.938-8.75 8.75zM80.008 301.878c0 4.813 3.937 8.75 8.75 8.75 4.812 0 8.75-3.938 8.75-8.75v-4.375c0-4.813-3.938-8.75-8.75-8.75-4.813 0-8.75 3.938-8.75 8.75zM80.008 376.248c0 4.813 3.937 8.75 8.75 8.75 4.812 0 8.75-3.938 8.75-8.75v-4.375c0-4.813-3.938-8.75-8.75-8.75-4.813 0-8.75 3.938-8.75 8.75zM97.508 411.248v-2.188c0-4.812-3.938-8.75-8.75-8.75-4.813 0-8.75 3.938-8.75 8.75v2.188c0 4.813 3.937 8.75 8.75 8.75 4.812 0 8.75-3.938 8.75-8.75zM123.758 273.438c4.812 0 8.75-3.938 8.75-8.75V262.5c0-4.812-3.938-8.75-8.75-8.75-4.813 0-8.75 3.938-8.75 8.75v2.188c0 4.813 3.937 8.75 8.75 8.75zM115.008 300.118c0 4.813 3.937 8.75 8.75 8.75 4.812 0 8.75-3.938 8.75-8.75v-3.938c0-4.812-3.938-8.75-8.75-8.75-4.813 0-8.75 3.938-8.75 8.75zM115.008 335.118c0 4.813 3.937 8.75 8.75 8.75 4.812 0 8.75-3.938 8.75-8.75v-3.938c0-4.812-3.938-8.75-8.75-8.75-4.813 0-8.75 3.938-8.75 8.75zM115.008 368.808c0 4.813 3.937 8.75 8.75 8.75 4.812 0 8.75-3.938 8.75-8.75v-2.188c0-4.812-3.938-8.75-8.75-8.75-4.813 0-8.75 3.938-8.75 8.75zM158.758 273.438c4.812 0 8.75-3.938 8.75-8.75V262.5c0-4.812-3.938-8.75-8.75-8.75-4.813 0-8.75 3.938-8.75 8.75v2.188c0 4.813 3.937 8.75 8.75 8.75zM150.008 301.878c0 4.813 3.937 8.75 8.75 8.75 4.812 0 8.75-3.938 8.75-8.75v-4.375c0-4.813-3.938-8.75-8.75-8.75-4.813 0-8.75 3.938-8.75 8.75zM150.008 376.248c0 4.813 3.937 8.75 8.75 8.75 4.812 0 8.75-3.938 8.75-8.75v-4.375c0-4.813-3.938-8.75-8.75-8.75-4.813 0-8.75 3.938-8.75 8.75zM150.008 339.058c0 4.813 3.937 8.75 8.75 8.75 4.812 0 8.75-3.938 8.75-8.75v-3.938c0-4.812-3.938-8.75-8.75-8.75-4.813 0-8.75 3.938-8.75 8.75zM167.508 409.058c0-4.813-3.938-8.75-8.75-8.75-4.813 0-8.75 3.938-8.75 8.75v2.188c0 4.812 3.937 8.75 8.75 8.75 4.812 0 8.75-3.938 8.75-8.75zM193.758 273.438c4.812 0 8.75-3.938 8.75-8.75V262.5c0-4.812-3.938-8.75-8.75-8.75-4.813 0-8.75 3.938-8.75 8.75v2.188c0 4.813 3.937 8.75 8.75 8.75zM185.008 335.118c0 4.813 3.937 8.75 8.75 8.75 4.812 0 8.75-3.938 8.75-8.75v-3.938c0-4.812-3.938-8.75-8.75-8.75-4.813 0-8.75 3.938-8.75 8.75zM185.008 300.118c0 4.813 3.937 8.75 8.75 8.75 4.812 0 8.75-3.938 8.75-8.75v-3.938c0-4.812-3.938-8.75-8.75-8.75-4.813 0-8.75 3.938-8.75 8.75zM185.008 368.808c0 4.813 3.937 8.75 8.75 8.75 4.812 0 8.75-3.938 8.75-8.75v-2.188c0-4.812-3.938-8.75-8.75-8.75-4.813 0-8.75 3.938-8.75 8.75zM228.758 273.438c4.812 0 8.75-3.938 8.75-8.75V262.5c0-4.812-3.938-8.75-8.75-8.75-4.813 0-8.75 3.938-8.75 8.75v2.188c0 4.813 3.937 8.75 8.75 8.75zM220.008 339.058c0 4.813 3.937 8.75 8.75 8.75 4.812 0 8.75-3.938 8.75-8.75v-3.938c0-4.812-3.938-8.75-8.75-8.75-4.813 0-8.75 3.938-8.75 8.75zM220.008 301.878c0 4.813 3.937 8.75 8.75 8.75 4.812 0 8.75-3.938 8.75-8.75v-4.375c0-4.813-3.938-8.75-8.75-8.75-4.813 0-8.75 3.938-8.75 8.75zM220.008 376.248c0 4.813 3.937 8.75 8.75 8.75 4.812 0 8.75-3.938 8.75-8.75v-4.375c0-4.813-3.938-8.75-8.75-8.75-4.813 0-8.75 3.938-8.75 8.75zM220.008 411.248c0 4.813 3.937 8.75 8.75 8.75 4.812 0 8.75-3.938 8.75-8.75v-2.188c0-4.812-3.938-8.75-8.75-8.75-4.813 0-8.75 3.938-8.75 8.75zM263.758 273.438c4.812 0 8.75-3.938 8.75-8.75V262.5c0-4.812-3.938-8.75-8.75-8.75-4.813 0-8.75 3.938-8.75 8.75v2.188c0 4.813 3.937 8.75 8.75 8.75zM255.008 335.118c0 4.813 3.937 8.75 8.75 8.75 4.812 0 8.75-3.938 8.75-8.75v-3.938c0-4.812-3.938-8.75-8.75-8.75-4.813 0-8.75 3.938-8.75 8.75zM255.008 300.118c0 4.813 3.937 8.75 8.75 8.75 4.812 0 8.75-3.938 8.75-8.75v-3.938c0-4.812-3.938-8.75-8.75-8.75-4.813 0-8.75 3.938-8.75 8.75zM272.508 368.808v-2.188c0-4.812-3.938-8.75-8.75-8.75-4.813 0-8.75 3.938-8.75 8.75v2.188c0 4.813 3.937 8.75 8.75 8.75 4.812 0 8.75-3.938 8.75-8.75zM298.758 273.438c4.812 0 8.75-3.938 8.75-8.75V262.5c0-4.812-3.938-8.75-8.75-8.75-4.813 0-8.75 3.938-8.75 8.75v2.188c0 4.813 3.937 8.75 8.75 8.75zM290.008 376.248c0 4.813 3.937 8.75 8.75 8.75 4.812 0 8.75-3.938 8.75-8.75v-4.375c0-4.813-3.938-8.75-8.75-8.75-4.813 0-8.75 3.938-8.75 8.75zM290.008 301.878c0 4.813 3.937 8.75 8.75 8.75 4.812 0 8.75-3.938 8.75-8.75v-4.375c0-4.813-3.938-8.75-8.75-8.75-4.813 0-8.75 3.938-8.75 8.75zM290.008 339.058c0 4.813 3.937 8.75 8.75 8.75 4.812 0 8.75-3.938 8.75-8.75v-3.938c0-4.812-3.938-8.75-8.75-8.75-4.813 0-8.75 3.938-8.75 8.75zM333.758 273.438c4.812 0 8.75-3.938 8.75-8.75V262.5c0-4.812-3.938-8.75-8.75-8.75-4.813 0-8.75 3.938-8.75 8.75v2.188c0 4.813 3.937 8.75 8.75 8.75zM325.008 335.118c0 4.813 3.937 8.75 8.75 8.75 4.812 0 8.75-3.938 8.75-8.75v-3.938c0-4.812-3.938-8.75-8.75-8.75-4.813 0-8.75 3.938-8.75 8.75zM325.008 300.118c0 4.813 3.937 8.75 8.75 8.75 4.812 0 8.75-3.938 8.75-8.75v-3.938c0-4.812-3.938-8.75-8.75-8.75-4.813 0-8.75 3.938-8.75 8.75zM325.008 368.808c0 4.813 3.937 8.75 8.75 8.75 4.812 0 8.75-3.938 8.75-8.75v-2.188c0-4.812-3.938-8.75-8.75-8.75-4.813 0-8.75 3.938-8.75 8.75zM368.758 273.438c4.812 0 8.75-3.938 8.75-8.75V262.5c0-4.812-3.938-8.75-8.75-8.75-4.813 0-8.75 3.938-8.75 8.75v2.188c0 4.813 3.937 8.75 8.75 8.75zM360.008 301.878c0 4.813 3.937 8.75 8.75 8.75 4.812 0 8.75-3.938 8.75-8.75v-4.375c0-4.813-3.938-8.75-8.75-8.75-4.813 0-8.75 3.938-8.75 8.75zM360.008 376.248c0 4.813 3.937 8.75 8.75 8.75 4.812 0 8.75-3.938 8.75-8.75v-4.375c0-4.813-3.938-8.75-8.75-8.75-4.813 0-8.75 3.938-8.75 8.75zM360.008 339.058c0 4.813 3.937 8.75 8.75 8.75 4.812 0 8.75-3.938 8.75-8.75v-3.938c0-4.812-3.938-8.75-8.75-8.75-4.813 0-8.75 3.938-8.75 8.75zM438.758 253.748c-4.813 0-8.75 3.938-8.75 8.75v2.188c0 4.812 3.937 8.75 8.75 8.75 4.812 0 8.75-3.938 8.75-8.75v-2.188c0-4.813-3.938-8.75-8.75-8.75zM438.758 288.748c-4.813 0-8.75 3.938-8.75 8.75v4.375c0 4.813 3.937 8.75 8.75 8.75 4.812 0 8.75-3.938 8.75-8.75v-4.375c0-4.813-3.938-8.75-8.75-8.75zM438.758 363.118c-4.813 0-8.75 3.938-8.75 8.75v4.375c0 4.813 3.937 8.75 8.75 8.75 4.812 0 8.75-3.938 8.75-8.75v-4.375c0-4.813-3.938-8.75-8.75-8.75zM438.758 325.938c-4.813 0-8.75 3.938-8.75 8.75v3.938c0 4.812 3.937 8.75 8.75 8.75 4.812 0 8.75-3.938 8.75-8.75v-3.938c0-4.813-3.938-8.75-8.75-8.75zM403.758 273.438c4.812 0 8.75-3.938 8.75-8.75V262.5c0-4.812-3.938-8.75-8.75-8.75-4.813 0-8.75 3.938-8.75 8.75v2.188c0 4.813 3.937 8.75 8.75 8.75zM395.008 300.118c0 4.813 3.937 8.75 8.75 8.75 4.812 0 8.75-3.938 8.75-8.75v-3.938c0-4.812-3.938-8.75-8.75-8.75-4.813 0-8.75 3.938-8.75 8.75zM395.008 335.118c0 4.813 3.937 8.75 8.75 8.75 4.812 0 8.75-3.938 8.75-8.75v-3.938c0-4.812-3.938-8.75-8.75-8.75-4.813 0-8.75 3.938-8.75 8.75zM395.008 368.808c0 4.813 3.937 8.75 8.75 8.75 4.812 0 8.75-3.938 8.75-8.75v-2.188c0-4.812-3.938-8.75-8.75-8.75-4.813 0-8.75 3.938-8.75 8.75zM375.318 413.248c-4.375-2.188-9.625-.875-11.812 3.5L311.88 514.31c-2.188 4.375-.875 9.625 3.5 11.812 4.375 2.187 9.625.438 11.812-3.5l51.625-97.125c2.187-4.375.875-9.625-3.5-12.25zM329.818 439.938c-.438-19.25-16.188-34.562-35.438-34.125-19.25.437-34.562 16.188-34.125 35.438.437 18.812 15.75 34.125 34.562 34.125 19.688-.438 35.438-16.188 35-35.438zm-34.562 17.5c-9.625.438-17.938-7.438-18.375-17.062-.437-9.624 7.437-17.938 17.062-18.375 9.624-.437 17.938 7.438 18.375 17.062v.438c.437 10.062-7.438 17.938-17.062 17.938zM399.818 456.558c-19.25-.438-35.438 15.312-35.875 34.562-.437 19.25 15.312 35.438 34.562 35.875 19.25.437 35.438-15.312 35.875-34.562v-.438c0-19.688-15.312-35.438-34.562-35.438zm0 52.938c-9.625.438-17.938-7.438-18.375-17.062-.437-9.625 7.437-17.938 17.062-18.375 9.624-.437 17.938 7.437 18.375 17.062v.438c0 9.624-7.438 17.937-17.062 17.937zM433.068 117.688c-5.688-39.812-42-67.375-81.812-63C339.444 22.75 309.256 1.313 275.13 0h-23.188c-33.688 1.313-63.875 22.75-75.688 54.688-39.812-4.375-76.125 23.188-81.812 63-33.688 12.25-40.688 37.625-40.688 57.312-.875 32.812 25.375 60.375 58.188 61.25h.437-.437 303.19-.438.438c32.812-.875 59.062-28 58.188-61.25.437-19.688-6.563-45.062-40.25-57.312zm-18.375 101.06h-301.44c-23.188 0-42-19.25-42-42.438v-1.313c0-18.375 7.875-31.5 24.5-38.938.875 3.938 2.625 7.876 4.375 11.376 2.625 3.937 7.875 5.25 11.812 3.062 3.937-2.625 5.687-7.875 3.062-11.812-2.187-4.375-3.5-9.188-3.937-14.438 1.75-31.062 28.438-54.25 59.5-52.5h2.625c0 6.563 1.75 12.688 5.25 18.375 2.625 3.938 7.875 5.25 11.812 3.063 4.375-2.626 5.687-7.876 3.062-11.813-3.062-5.25-3.5-11.374-2.187-17.061 8.75-27.126 33.25-45.939 62.125-46.813h21.438c21.438.876 41.562 11.813 53.812 29.75 4.375 5.25 6.562 12.25 7 18.813 0 3.937-1.313 7.874-3.063 11.374-2.187 4.376-.875 9.626 3.063 11.813 4.375 2.187 9.625.874 11.812-3.063 2.625-4.375 4.375-9.188 4.812-14.438 30.625-4.375 59.062 16.625 63.438 46.812.438 1.75.438 3.5.438 4.813 0 4.812-1.313 10.061-3.5 14.437-2.625 3.938-1.313 9.625 3.062 11.812 3.938 2.625 9.625 1.313 11.812-3.062 2.188-3.5 3.5-7.438 4.375-11.375 16.188 7.438 24.062 20.562 24.062 38.938.875 23.188-17.5 42.875-40.688 43.75 0 .875 0 .875-.437.875z"/></svg>