<svg height="496pt" viewBox="0 0 496 496" width="496pt" xmlns="http://www.w3.org/2000/svg"><path d="m320 480v-57.207031c0-3.386719.695312-6.664063 2.070312-9.746094l26.480469-59.582031c2.28125-5.144532 3.449219-10.617188 3.449219-16.257813v-17.207031h104v-280h-56v-40h-88c-27.832031 0-52.015625 15.871094-64 39.03125-11.984375-23.160156-36.167969-39.03125-64-39.03125h-88v40h-56v280h104v15.710938c0 6.785156 1.742188 13.496093 5.03125 19.425781l31.953125 57.503906c1.96875 3.542969 3.015625 7.574219 3.015625 11.648437v55.710938h-184v16h496v-16zm120-424v248h-168v8c0 13.230469-10.769531 24-24 24-1 0-1.96875-.246094-2.960938-.375-4.230468-17.769531-13.039062-34.113281-25.902343-47.625h180.863281v-232zm-328-40h72c30.871094 0 56 25.121094 56 56v64h16v-64c0-30.878906 25.128906-56 56-56h72v256h-128v-120h-16v120h-32v-40c0-26.472656-21.527344-48-48-48-8.824219 0-16 7.175781-16 16v72h-32zm-56 288v-248h40v232h48v16zm107.015625 43.367188c-1.96875-3.550782-3.015625-7.582032-3.015625-11.65625v-135.710938c17.648438 0 32 14.351562 32 32v51.3125l14.0625 14.0625c16.730469 16.730469 25.9375 38.96875 25.9375 62.625h16c0-2.695312-.191406-5.359375-.390625-8.023438.132813 0 .261719.023438.390625.023438 19.320312 0 35.480469-13.769531 39.191406-32h48.808594v17.207031c0 3.386719-.695312 6.664063-2.070312 9.746094l-26.480469 59.582031c-1.351563 3.039063-2.183594 6.226563-2.746094 9.464844h-105.648437c-.824219-3.878906-2.152344-7.648438-4.085938-11.136719zm36.984375 116.632812h72v-16h-72v-16h104v16h-16v16h16v16h-104zm0 0"/><path d="m312 208h16v16h-16zm0 0"/><path d="m344 208h16v16h-16zm0 0"/><path d="m280 208h16v16h-16zm0 0"/><path d="m272 240h96v16h-96zm0 0"/><path d="m272 176h96v16h-96zm0 0"/><path d="m272 120h96v16h-96zm0 0"/><path d="m272 88h96v16h-96zm0 0"/><path d="m272 56h96v16h-96zm0 0"/><path d="m168 88h16v16h-16zm0 0"/><path d="m200 88h16v16h-16zm0 0"/><path d="m136 88h16v16h-16zm0 0"/><path d="m128 56h96v16h-96zm0 0"/><path d="m128 120h96v16h-96zm0 0"/><path d="m128 152h96v16h-96zm0 0"/></svg>