<svg xmlns="http://www.w3.org/2000/svg" xml:space="preserve" width="40" height="40"><path d="M-409.6 283h63c6.9 0 12.5-5.6 12.5-12.5s-5.6-12.5-12.5-12.5c-.8 0-1.6.1-2.4.2-1.8-9.8-10.4-17.2-20.6-17.2-6.8 0-13 3.2-17 8.6-1.5-.4-3-.6-4.5-.6-6.5 0-12.3 3.7-15 9.5-1.1-.3-2.3-.5-3.5-.5-6.9 0-12.5 5.6-12.5 12.5s5.6 12.5 12.5 12.5zm0-21c1.3 0 2.6.3 3.8.9.5.3 1.1.3 1.7.1.5-.2 1-.7 1.1-1.2 1.7-5.2 6.4-8.7 11.9-8.7 1.6 0 3.1.3 4.6.9.9.4 1.9 0 2.4-.8 3.2-5.2 8.6-8.2 14.5-8.2 8.9 0 16.4 7 16.9 15.9 0 .6.4 1.2.9 1.6.6.3 1.2.4 1.8.1 1-.4 2.1-.7 3.3-.7 4.7 0 8.5 3.8 8.5 8.5s-3.7 8.6-8.4 8.6h-63c-4.7 0-8.5-3.8-8.5-8.5s3.8-8.5 8.5-8.5zM-353.2 311.2l1.3-7c.2-1.1-.5-2.1-1.6-2.3-1.1-.2-2.1.5-2.3 1.6l-1.3 7c-.2 1.1.5 2.1 1.6 2.3h.4c.9 0 1.8-.6 1.9-1.6zM-350.4 296.3l1.3-7c.2-1.1-.5-2.1-1.6-2.3-1.1-.2-2.1.5-2.3 1.6l-1.3 7c-.2 1.1.5 2.1 1.6 2.3h.4c.8.1 1.7-.6 1.9-1.6zM-356.2 316.7c-1.1-.2-2.1.5-2.3 1.6l-.2 1.3c-.2 1.1.5 2.1 1.6 2.3h.4c.9 0 1.8-.7 2-1.6l.2-1.3c.1-1-.6-2.1-1.7-2.3zM-362.8 305.5l1.3-7c.2-1.1-.5-2.1-1.6-2.3-1.1-.2-2.1.5-2.3 1.6l-1.3 7c-.2 1.1.5 2.1 1.6 2.3h.4c.9.1 1.7-.6 1.9-1.6zM-360.1 290.7l.2-1.3c.2-1.1-.5-2.1-1.6-2.3-1.1-.2-2.1.5-2.3 1.6l-.2 1.2c-.2 1.1.5 2.1 1.6 2.3h.4c.9.1 1.8-.6 1.9-1.5zM-381.4 290.7l.2-1.3c.2-1.1-.5-2.1-1.6-2.3-1.1-.2-2.1.5-2.3 1.6l-.2 1.3c-.2 1.1.5 2.1 1.6 2.3h.4c.9 0 1.7-.7 1.9-1.6zM-395.8 311.2l1.3-7c.2-1.1-.5-2.1-1.6-2.3-1.1-.2-2.1.5-2.3 1.6l-1.3 7c-.2 1.1.5 2.1 1.6 2.3h.4c.8 0 1.7-.6 1.9-1.6z" style="display:inline" transform="matrix(.44305 0 0 .39492 187.473 -94.881)"/><path d="m13.312 22.133.576-2.764c.088-.434-.222-.83-.709-.908-.487-.08-.93.197-1.019.632l-.576 2.764c-.089.434.222.83.709.908h.177a.792.792 0 0 0 .842-.632zM6.489 27.978c-.487-.079-.93.198-1.019.632l-.576 2.765c-.089.434.222.829.709.908h.177c.399 0 .798-.277.886-.632l.576-2.764c.045-.435-.266-.83-.753-.909zM7.818 25.767l.576-2.765c.089-.434-.221-.83-.709-.908-.487-.08-.93.197-1.019.632L6.09 25.49c-.088.435.222.83.71.909h.176c.4.039.798-.237.842-.632zM9.059 19.922l.088-.514c.089-.434-.221-.829-.709-.908-.487-.079-.93.198-1.019.632l-.088.513c-.089.435.221.83.709.909h.177c.399 0 .753-.277.842-.632z"/><path d="m28.2 35.39-7.116-12.33a2.153 2.153 0 0 0-3.737 0l-7.115 12.33a2.16 2.16 0 0 0 1.868 3.232h14.231A2.16 2.16 0 0 0 28.2 35.39zm-1.147 1.49a.815.815 0 0 1-.722.417H12.1a.815.815 0 0 1-.722-.417.808.808 0 0 1 0-.828l7.122-12.33a.822.822 0 0 1 1.431 0l7.122 12.33a.808.808 0 0 1 0 .828zm-8.5-4.353V26.93a.663.663 0 0 1 1.325 0v5.598a.663.663 0 0 1-1.325 0zm1.676 2.452a1.014 1.014 0 1 1-1.013-1.014 1.02 1.02 0 0 1 1.013 1.014z" data-name="Layer 19"/></svg>