<svg xmlns="http://www.w3.org/2000/svg" width="512" height="512" fill-rule="evenodd" clip-rule="evenodd" image-rendering="optimizeQuality" shape-rendering="geometricPrecision" text-rendering="geometricPrecision"><path fill="#2b2727" d="M167.14 58.65c0-10.66-4.356-20.36-11.39-27.39-7.024-7.03-16.705-11.4-27.356-11.4-10.65 0-20.332 4.37-27.366 11.4-7.023 7.03-11.38 16.73-11.38 27.39V330.1c-26.846 13.78-45.21 41.75-45.21 74.02 0 45.92 37.188 83.14 83.067 83.14 45.87 0 83.057-37.22 83.057-83.14 0-31.55-17.555-58.99-43.422-73.08zm19.842 255.84C215.927 333.77 235 366.71 235 404.12c0 59.42-48.127 107.59-107.495 107.59C68.127 511.71 20 463.54 20 404.12c0-38.17 19.862-71.69 49.796-90.79V58.65c0-16.14 6.594-30.81 17.205-41.43C97.62 6.59 112.268 0 128.394 0c16.116 0 30.773 6.59 41.394 17.22 10.61 10.62 17.194 25.29 17.194 41.43z" style="stroke-width:.999558"/><path fill="#ef1c25" d="M144.41 345.35c25.518 7.34 44.181 30.87 44.181 58.77 0 33.77-27.346 61.14-61.086 61.14-33.74 0-61.096-27.37-61.096-61.14 0-27.89 18.673-51.43 44.18-58.77V69.22c0-21.03 33.821-20.2 33.821 0z" style="stroke-width:.999558;fill:#fe1212;fill-opacity:1"/><path fill="#2b2727" d="M424.14 61.185c0-10.66-4.356-20.36-11.39-27.39-7.024-7.03-16.705-11.4-27.356-11.4-10.65 0-20.332 4.37-27.366 11.4-7.023 7.03-11.38 16.73-11.38 27.39v271.45c-26.846 13.78-45.21 41.75-45.21 74.02 0 45.92 37.188 83.14 83.067 83.14 45.87 0 83.057-37.22 83.057-83.14 0-31.55-17.555-58.99-43.422-73.08zm19.842 255.84c28.945 19.28 48.018 52.22 48.018 89.63 0 59.42-48.127 107.59-107.495 107.59-59.378 0-107.505-48.17-107.505-107.59 0-38.17 19.862-71.69 49.796-90.79V61.185c0-16.14 6.594-30.81 17.205-41.43 10.62-10.63 25.267-17.22 41.393-17.22 16.116 0 30.773 6.59 41.394 17.22 10.61 10.62 17.194 25.29 17.194 41.43z" style="stroke-width:.999559"/><path fill="#ef1c25" d="M401.41 347.885c25.518 7.34 44.181 30.87 44.181 58.77 0 33.77-27.346 61.14-61.086 61.14-33.74 0-61.096-27.37-61.096-61.14 0-27.89 18.673-51.43 44.18-58.77V280c0-21.03 33.821-20.2 33.821 0z" style="fill:#0071bd;stroke-width:.999559;fill-opacity:1"/></svg>