<?xml version="1.0" encoding="UTF-8" standalone="no"?>
<svg
   xmlns:dc="http://purl.org/dc/elements/1.1/"
   xmlns:cc="http://creativecommons.org/ns#"
   xmlns:rdf="http://www.w3.org/1999/02/22-rdf-syntax-ns#"
   xmlns:svg="http://www.w3.org/2000/svg"
   xmlns="http://www.w3.org/2000/svg"
   xmlns:sodipodi="http://sodipodi.sourceforge.net/DTD/sodipodi-0.dtd"
   xmlns:inkscape="http://www.inkscape.org/namespaces/inkscape"
   id="Layer"
   enable-background="new 0 0 64 64"
   height="512"
   viewBox="0 0 64 64"
   width="512"
   version="1.1"
   sodipodi:docname="banding.svg"
   inkscape:version="0.92.4 (5da689c313, 2019-01-14)">
  <metadata
     id="metadata9">
    <rdf:RDF>
      <cc:Work
         rdf:about="">
        <dc:format>image/svg+xml</dc:format>
        <dc:type
           rdf:resource="http://purl.org/dc/dcmitype/StillImage" />
      </cc:Work>
    </rdf:RDF>
  </metadata>
  <defs
     id="defs7" />
  <sodipodi:namedview
     pagecolor="#ffffff"
     bordercolor="#666666"
     borderopacity="1"
     objecttolerance="10"
     gridtolerance="10"
     guidetolerance="10"
     inkscape:pageopacity="0"
     inkscape:pageshadow="2"
     inkscape:window-width="1920"
     inkscape:window-height="1001"
     id="namedview5"
     showgrid="false"
     inkscape:zoom="0.4609375"
     inkscape:cx="-478.24177"
     inkscape:cy="-15.602194"
     inkscape:window-x="-9"
     inkscape:window-y="-9"
     inkscape:window-maximized="1"
     inkscape:current-layer="g4577" />
  <g
     id="g4577"
     transform="matrix(0.125,0,0,0.125,4.372995,-0.95506227)">
    <path
       sodipodi:nodetypes="csscccsccscccsccsccccccscccscccscccssccsccccscccsccscccscccssccscccscsccscccscscs"
       inkscape:connector-curvature="0"
       d="m 10.412409,201.69576 c 16.5,0 25.7,7.3 39.8,20.2 14.1,12.9 33,33 63.600001,33 h 5.5 c 27.5,-2.4 44.7,-20.8 58.1,-33 12.2,-11 20.8,-18.4 34.3,-20.2 1.8,0 3.7,-0.6 6.1,-0.6 16.5,0 25.7,7.3 39.8,20.2 3.7,3.1 7.3,6.7 11.601,11 12.899,11 28.8,22.6 52,22.6 h 5.5 c 27.5,-2.4 44.699,-20.8 58.1,-33 12.2,-11 20.8,-18.4 34.3,-20.2 1.8,0 3.7,-0.6 6.101,-0.6 3.1,0 6.699,-0.6 9.199,-1.8 1.2,-0.6 3.101,-1.2 4.301,-2.4 6.699,-4.3 11.6,-12.2 11.6,-20.2 0,-3.1 -0.6,-6.7 -1.8,-9.2 v 0 c -1.2,-3.1 -3.101,-5.5 -5.5,-8 -1.2,-1.2 -2.4,-2.4 -3.7,-3.1 -1.2,-0.6 -2.4,-1.8 -4.3,-2.4 -1.8,-0.6 -3.101,-1.2 -4.9,-1.2 -1.8,-0.6 -3.1,-0.6 -4.899,-0.6 h -6.101 c -30.6,2.4 -52.6,19.6 -67.3,33 -13.5,12.2 -20.8,19 -27.5,20.2 -1.2,0 -1.8,0.6 -2.4,0.6 -1.8,0 -3.7,-0.6 -5.5,-1.2 -3.7,-1.8 -8.6,-4.9 -14.1,-10.4 -3.101,-2.4 -6.7,-5.5 -10.4,-9.2 -15.3,-14.1 -39.2,-33 -73.4,-33 h -6.1 c -30.6,2.4 -52.6,19.6 -67.3,33 -13.5,12.2 -20.8,19 -27.5,20.2 -1.2,0 -1.8,0.6 -2.4,0.6 -1.8,0 -3.7,-0.6 -5.5,-1.2 -1.8,-0.6 -4.3,-2.4 -6.7,-3.7 -4.900001,-3.1 -10.400001,-8.6 -18.400001,-15.3 -15.3,-14.1 -39.2,-33 -73.4,-33 H 8.8144094 v 0 c -12.9,0.6 -24.5000004,12.9 -23.3000004,25.7 -0.802,12.8 11.9980004,23.8 24.898,23.2 z m 414.300001,71 h -6.101 c -30.6,2.4 -52.6,20.2 -67.3,33 -13.5,12.2 -20.8,19 -27.5,20.2 -1.2,0 -1.8,0.6 -2.4,0.6 -2.399,0 -5.5,-1.2 -8.6,-3.1 -5.5,-3.1 -12.2,-8.6 -21.4,-17.7 -15.3,-14.1 -39.199,-33.7 -73.399,-33.7 h -6.1 c -30.6,2.4 -52.6,20.2 -67.3,33 -13.5,12.2 -20.8,19 -27.5,20.2 -1.2,0 -1.8,0.6 -2.4,0.6 -2.4,0 -5.5,-1.199 -8.6,-3.1 -1.2,-0.6 -2.4,-1.2 -3.7,-1.8 -4.900001,-3.1 -10.400001,-8.6 -18.400001,-15.3 -15.3,-14.1 -39.2,-33.7 -73.4,-33.7 -12.8999996,0 -25.1,11.6 -25.1,25.1 0,13.5 12.2000004,25.1 25.1,24.5 16.5,0 25.7,8 39.8,20.8 14.1,12.9 33,33 63.600001,33 h 5.5 c 27.5,-2.399 44.7,-20.8 58.1,-33 8.6,-8 15.9,-14.1 23.9,-17.1 1.8,-0.6 3.1,-1.2 4.9,-1.8 1.8,-0.6 3.7,-0.6 5.5,-1.2 1.8,0 3.7,-0.6 6.1,-0.6 16.5,0 25.7,8 39.8,20.8 3.7,3.1 7.3,6.7 11.6,11 12.9,11 28.801,22.6 52,22.6 h 5.5 c 27.5,-2.399 44.7,-20.8 58.101,-33 8.6,-8 15.899,-14.1 23.899,-17.1 1.801,-0.601 3.101,-1.2 4.9,-1.8 1.799,-0.6 3.7,-0.6 5.5,-1.2 1.8,0 3.7,-0.6 6.1,-0.6 12.9,0 25.101,-11.6 25.101,-24.5 -0.102,-12.9 -12.301,-25.1 -25.801,-25.1 z"
       id="path4519" />
    <g
       id="g4523" />
    <g
       id="g4525" />
    <g
       id="g4527" />
    <g
       id="g4529" />
    <g
       id="g4531" />
    <g
       id="g4533" />
    <g
       id="g4535" />
    <g
       id="g4537" />
    <g
       id="g4539" />
    <g
       id="g4541" />
    <g
       id="g4543" />
    <g
       id="g4545" />
    <g
       id="g4547" />
    <g
       id="g4549" />
    <g
       id="g4551" />
  </g>
</svg>
