<svg xmlns="http://www.w3.org/2000/svg" xml:space="preserve" viewBox="0 0 322.7539 233.4517">
  <path d="M148.8736 116.639c-.4031 1.4402-1.1099 2.7355-2.0329 3.8329l6.65-1.5743-.5759-2.4328 74.6575-17.6746 7.1055 1.7451.7148-2.9131-7.8066-1.918-75.3624 17.8407-.4606-1.9456-2.6507.6275c.2326 1.4298.1766 2.928-.2387 4.4122zM123.9389 31.0621 140.022 41.19c-2.3972 2.7734-10.1271 10.1735-20.9531 5.439-.0823.8091-.1736 1.6173-.3412 2.3447 2.5667 1.0377 4.9874 1.4805 7.2254 1.4805 10.148 0 16.6177-8.7559 16.7056-8.8779.1855-.2578.2563-.5806.1958-.8921s-.2476-.5845-.5161-.7534l-.1322-.0833c1.53-1.85 2.7925-3.9735 3.6936-6.3424 1.9952-5.2452 1.8938-10.7703.1192-15.662-11.9141 2.6769-18.4393 7.8257-22.0801 13.219zM93.4277 167.5109l-1.2274 5.6597c1.3711-.375 3.0584-.6027 5.1375-.6027 6.3011 0 14.8292 2.2259 19.2908 5.9171l2.5417-11.7202c.8262-3.8096-.1719-7.7871-2.6997-10.7549l-19.3003-22.6601c-7.1903 3.3108-14.5794 7.2823-22.528 12.1061l18.7854 22.055zM88.3588 88.7776l.9474 13.9595c.2295 3.3799 2.5625 6.249 5.8242 7.1621l41.667 11.6665c.7217.2021 1.4473.2983 2.1611.2983 3.498 0 6.7109-2.3115 7.7002-5.8447 1.1904-4.2549-1.292-8.6694-5.5469-9.8608l-36.2256-10.1431-.6569-9.6786c-4.7626.9206-10.3096 1.8436-15.8705 2.4408z"/>
  <path d="m89.3867 179.0684-8.1133 37.4136c-1.6387 7.5562 3.1582 15.0103 10.7148 16.6489 1 .2168 1.9971.3208 2.9805.3208 6.4463 0 12.2461-4.4795 13.668-11.0361l8.1133-37.4136c1.6387-7.5562-25.7246-13.4903-27.3633-5.9336zM125.9692 120.3126c-.3933.0856-.792.1873-1.1868.2775-9.147 2.089-18.6944 5.381-28.4079 9.8202l1.2471 2.7285c9.7352-4.4493 19.2894-7.7264 28.4128-9.7607l.4527 1.9123 8.1726-1.9348-6.919-1.9373c-.1947-.7849-.9776-1.2803-1.7715-1.1057zM2.918 84.548c-2.4517 2.4023-4.6143 6.9429-.9961 14.9326 2.4829 5.4834 6.3003 11.2373 10.3418 17.3291 8.9595 13.5049 19.1143 28.8105 16.8716 45.1826-.3428 2.502-.5254 6 1.8359 7.4707.6514.4053 1.3999.5996 2.2598.5996 4.1465 0 10.8652-4.5273 21.5645-11.7363 5.5273-3.7246 11.7925-7.9453 18.7827-12.2275l-1.5674-2.5586c-7.0454 4.3164-13.3389 8.5566-18.8916 12.2979-9.0566 6.1025-18.4233 12.4082-20.562 11.0781-.231-.1436-.9458-.8945-.4492-4.5176 2.396-17.4932-8.0918-33.3008-17.3447-47.248-3.9727-5.9883-7.7251-11.6445-10.1089-16.9072-2.3301-5.146-2.208-9.0332.3633-11.5527 3.4406-3.3724 11.2537-4.0121 18.6116-1.9007l-3.7751 10.2977c-.7572 2.0656.3132 4.3751 2.3788 5.1324l28.8711 10.5839c.4876.1787.9882.2479 1.4794.2339-.017 1.3448.0612 2.5992.2248 3.7697-.094 2.9949.8678 6.0325 2.9637 8.4933l16.8991 19.8405c7.9254-4.8262 15.3021-8.8148 22.4821-12.16l-9.0825-10.6636c.7852-3.8264 1.9485-7.6695 3.3651-11.4711-1.3903-1.6419-2.2722-3.7112-2.4246-5.9539l-.9428-13.8904c-14.9803 1.3536-29.267-.0002-27.6615-10.5203 2.8818 16.1685 55.4464 2.8498 59.2822 1.8552.1454-.0377.2239-.0585.2239-.0585s-1.109-13.2562-1.1983-25.5667c-.0244-3.3684.0269-6.665.199-9.6006.8658-8.0201 3.8009-25.0114 31.221-30.0476-2.7891-6.2144-7.8311-10.9702-14.1982-13.3921C131.0195.5625 127.9717 0 124.875 0c-10.5176 0-20.0977 6.6069-23.8379 16.4399-1.5746 4.1395-2.0327 8.5158-1.3987 12.7795-.6215.3562-1.3371.7792-2.1271 1.2621-4.2827 2.6183-10.8433 7.1004-17.6647 13.5391l4.6137-12.5853c.7572-2.0656-.3132-4.3751-2.3788-5.1324l-1.878-.6885 1.6349-4.4596c.5044-1.375.4409-2.8682-.1782-4.2041-.6187-1.3354-1.7173-2.3491-3.0928-2.853L63.7803 8.6769c-2.8491-1.0469-6.0132.4233-7.0571 3.271l-1.6349 4.4596-1.8779-.6884c-2.0656-.7572-4.3751.3132-5.1323 2.3788L24.6571 81.986c-7.8145-2.2525-17.0795-2.0054-21.7391 2.562zm56.6216-71.5674c.2285-.623.6895-1.1216 1.2983-1.4038.3379-.1567.6973-.2354 1.0571-.2354.2876 0 .5757.0503.8525.1519l14.7876 5.4209c.6226.2285 1.1211.6895 1.4033 1.2983.2822.6084.3115 1.2871.0835 1.9102l-1.6349 4.4594L57.9046 17.44l1.635-4.4594zM241.76826212 97.92939144l.06060808-1.49899984 2.9971004.1211798-.06060808 1.49899984zM301.7211614 100.3498852l.06059192-1.49860016 2.9971004.1211798-.06059192 1.49860016zM295.72584496 100.10810812l.0606-1.4988 2.9971004.1211798-.0606 1.4988zM259.75408704 98.65573028l.06060808-1.49899984 2.9971004.1211798-.06060808 1.49899984zM319.70708624 101.07622808l.06059192-1.49860016 2.9971004.1211798-.06059192 1.49860016zM265.74939532 98.89781124l.06060808-1.49899984 2.9971004.1211798-.06060808 1.49899984zM247.7635704 98.1714724l.06060808-1.49899984 2.9971004.1211798-.06060808 1.49899984zM283.7353242 99.6240542l.06060808-1.49899984 2.9971004.1211798-.06060808 1.49899984zM313.71177796 100.83414712l.06059192-1.49860016 2.9971004.1211798-.06059192 1.49860016zM289.73433248 99.86763516l.06060808-1.49899984 2.9971004.1211798-.06060808 1.49899984zM277.74001592 99.38197324l.06060808-1.49899984 2.9971004.1211798-.06060808 1.49899984zM307.71646968 100.59196616l.06059192-1.49860016 2.9971004.1211798-.06059192 1.49860016zM271.7447036 99.1398922l.06060808-1.49899984 2.9971004.1211798-.06060808 1.49899984zM253.75887868 98.41355336l.06060808-1.49899984 2.9971004.1211798-.06060808 1.49899984zM274.344662 128.5541472l.84875658-1.23698246 2.47371754 1.69734342-.84875658 1.23698246zM304.0309018 148.9207878l.84875658-1.23698246 2.47371754 1.69734342-.84875658 1.23698246zM289.187349 138.7374798l.84875658-1.23698246 2.47371754 1.69734342-.84875658 1.23698246zM249.59289131 111.57811398l.8478344-1.2362253 2.47467729 1.69719592-.8478344 1.2362253zM239.70995054 104.79385002l.84875658-1.23698246 2.47371754 1.69734342-.84875658 1.23698246zM244.65753758 108.18831454l.84875658-1.23698246 2.47371754 1.69734342-.84875658 1.23698246zM264.44862084 121.76616952l.84875658-1.23698246 2.47371754 1.69734342-.84875658 1.23698246zM284.23976196 135.34301528l.84875658-1.23698246 2.47371754 1.69734342-.84875658 1.23698246zM294.13580184 142.13191972l.84875658-1.23698246 2.47371754 1.69734342-.84875658 1.23698246zM269.38253996 125.17215248l.8475346-1.2363752 2.47456496 1.69631308-.8475346 1.2363752zM299.0833323 145.5263667l.84875658-1.23698246 2.47371754 1.69734342-.84875658 1.23698246zM254.55360334 114.97725802l.84875658-1.23698246 2.47371754 1.69734342-.84875658 1.23698246zM259.50363064 118.36912948l.84965664-1.23638242 2.47251758 1.69914336-.84965664 1.23638242zM279.29224904 131.94851172l.84875658-1.23698246 2.47371754 1.69734342-.84875658 1.23698246zM312.64596748 124.15487474l.4569044-1.4297025 2.8573095.91313912-.4569044 1.4297025zM272.64342951 111.35282093l.4567543-1.4298526 2.85846682.91311301-.4567543 1.4298526zM306.9296931 122.32714197l.4564541-1.4298526 2.8573237.91214795-.4564541 1.4298526zM261.20661512 107.7204242l.4569044-1.4297025 2.8573095.91313912-.4569044 1.4297025zM284.07431516 115.00395713l.4567543-1.4298526 2.85846682.91311301-.4567543 1.4298526zM301.22106161 120.48110448l.4567543-1.4298526 2.85846682.91311301-.4567543 1.4298526zM249.77569019 104.06673117l.4564541-1.4298526 2.8573237.91214795-.4564541 1.4298526zM295.5015949 118.6654552l.4570545-1.4297025 2.8573095.9134391-.4570545 1.4297025zM266.92240764 109.54591558l.4569044-1.4297025 2.8573095.91313912-.4569044 1.4297025zM244.06020177 102.24201445l.4569044-1.4297025 2.8573095.91313912-.4569044 1.4297025zM278.35270685 113.19688894l.4564541-1.4298526 2.8573237.91214795-.4564541 1.4298526zM289.78376161 116.85097361l.4569044-1.4297025 2.8573095.91313912-.4569044 1.4297025zM255.49678306 105.87557358l.4567543-1.4298526 2.85846682.91311301-.4567543 1.4298526z"/>
</svg>
