<svg xmlns="http://www.w3.org/2000/svg" shape-rendering="geometricPrecision" text-rendering="geometricPrecision" image-rendering="optimizeQuality" fill-rule="evenodd" clip-rule="evenodd" viewBox="0 0 512 485.13"><path d="M81.18 185.41c-24.34 23.4-51.1 21.82-81.18-16.86 29.88-19.38 65.63-21.25 81.18 16.86zM305.4 337l8.93-8.94-26.04-26.01a6.967 6.967 0 0 1-1.31-8.07c11.52-22.81 19.18-43.89 23.26-63.37 4.04-19.24 4.6-36.92 1.98-53.15-4.88-30.17-18.46-54.06-37.36-71.7-16.9-15.76-38.13-26.6-61.29-32.52-23.36-5.97-48.62-6.95-73.35-2.95-37.37 6.04-73.56 23.41-100.26 52.04-5.22 5.61-14.35-.21-11.59-7.28 12.56-32 34.62-58.26 61.88-77.57C119.03 17.06 153.65 4.43 188.96 1c17.83-1.73 34.95-1.18 51.09 1.39 38.03 6.07 70.63 23.37 94.67 48.73 24.06 25.38 39.52 58.79 43.23 97.02 1.54 15.91 1.05 32.67-1.72 50.02-2.25 14.11-6 28.43-11.31 42.73-4.51 12.22-10.22 24.48-17.14 36.64l8.52 8.57 7.56-7.57c2.06-2.05 4.74-3.07 7.41-3.07 2.64 0 5.31 1.03 7.34 3.04l32.47 32.45-73.27 73.27-32.41-32.4a10.51 10.51 0 0 1-3.07-7.41c0-2.68 1.02-5.36 3.07-7.41zm118.84-12.89 72.63 72.61.52.57c9.74 10.03 14.61 23.06 14.61 36.07 0 13.25-5.05 26.52-15.13 36.61v.03c-10.09 10.09-23.37 15.13-36.64 15.13v-.03c-13.27-.01-26.55-5.04-36.6-15.1l-72.66-72.63 73.27-73.26zm-100.06-5.89 22.27-22.27-12.3-12.4a6.979 6.979 0 0 1-1.04-8.48c7.64-12.81 13.87-25.89 18.75-39.03 5-13.4 8.52-26.82 10.63-40.06 2.58-16.17 3.04-31.76 1.61-46.54-3.4-35.01-17.51-65.56-39.47-88.72-21.98-23.18-51.86-39.02-86.76-44.59-15-2.39-30.95-2.89-47.6-1.28-32.9 3.19-65.15 14.96-91.96 33.96-15.22 10.76-28.66 23.86-39.45 39.04 23.8-16.34 51.2-26.78 79.18-31.3 26.64-4.31 53.84-3.26 78.96 3.17 25.34 6.47 48.66 18.42 67.34 35.85 21.08 19.66 36.21 46.23 41.62 79.71 2.89 17.9 2.3 37.24-2.08 58.16-4.07 19.37-11.39 40.1-22.22 62.29l22.52 22.49zM175.2 214.09c-4.1 31.56-13.83 44.67-63.64 41.78 15.18-30.05 22.48-56.03 63.64-41.78zM63.04 241.83c12.6-25.04 19.71-52.57 59.27-38.89-4.93 37.79-23.77 40.97-59.27 38.89zm128.69-104.25c1.79 33.9-3.78 67.85 46.7 71.93 12.94-44.24-6.38-56.96-46.7-71.93zm-54.42-4.35c1.63 30.09-3.32 60.23 41.46 63.84 11.49-39.25-5.7-50.54-41.46-63.84zm-11.45 52.78c8.32-28.46 4.96-43.27-38.62-59.44 1.65 31.31-1.81 56.2 38.62 59.44zm108.96 40.69c-4.63 35.58-15.58 50.36-71.69 47.07 17.07-33.88 25.3-63.12 71.69-47.07zm23.26-12.86c-4.66-.97-9.19 2.03-10.16 6.64a8.587 8.587 0 0 0 6.64 10.16l21.35 4.49 3.53-16.8-21.36-4.49z"/></svg>