<?xml version="1.0" encoding="iso-8859-1"?><!--Generator: Adobe Illustrator 16.0.0, SVG Export Plug-In . SVG Version: 6.00 Build 0)--><!DOCTYPE svg PUBLIC "-//W3C//DTD SVG 1.1//EN" "http://www.w3.org/Graphics/SVG/1.1/DTD/svg11.dtd"><svg version="1.1" id="Capa_1" xmlns="http://www.w3.org/2000/svg" xmlns:xlink="http://www.w3.org/1999/xlink" x="0px" y="0px" width="464.996px" height="464.996px" viewBox="0 0 464.996 464.996" style="enable-background:new 0 0 464.996 464.996;" xml:space="preserve"><g><g><path d="M153.91,122.664c25.501,0,46.252-20.748,46.252-46.251s-20.751-46.251-46.252-46.251c-25.502,0-46.25,20.748-46.25,46.251
			S128.408,122.664,153.91,122.664z"/><path d="M157.709,328.925c-0.514-0.514-1.264-0.711-1.963-0.509c-0.698,0.199-1.233,0.761-1.398,1.468l-17.874,77.923
			c-1.342,5.722-0.375,11.623,2.723,16.617c3.098,4.994,7.953,8.483,13.674,9.824c1.66,0.389,3.357,0.586,5.045,0.586
			c10.254,0,19.053-6.983,21.396-16.983l12.213-53.772c0.156-0.674-0.044-1.381-0.534-1.871L157.709,328.925z"/><path d="M112.236,285l-14.714-14.577l-3.061,0.505c-3.689,0.823-5.43-0.307-6.932-1.596c-1.502-1.289-9.902-8.496-9.902-8.496
			c-0.549-0.324-1.22-0.367-1.806-0.115c-0.586,0.25-1.016,0.767-1.16,1.387l-1.768,7.654L3.956,393.25
			c-3.361,4.822-4.641,10.663-3.607,16.447c1.033,5.785,4.258,10.821,9.08,14.18c3.711,2.585,8.053,3.952,12.557,3.952
			c7.203,0,13.959-3.523,18.074-9.429l72.587-130.687C113.241,286.767,113.005,285.782,112.236,285z"/><path d="M283.791,378.389c-0.076-0.391-0.267-0.75-0.549-1.031l-34.188-34.191c-0.781-0.78-2.048-0.78-2.828,0l-17.035,17.031
			l-71.684-71.685l70.098-65.966c6.152-5.79,7.144-15.046,2.358-22.009l-38.686-56.289c-2.563-3.731-6.43-6.246-10.863-7.076
			l-72.192-15.473c-0.033-0.007-0.066-0.013-0.1-0.019c-1.16-0.248-2.35-0.374-3.544-0.374c-3.245,0-6.399,0.912-9.118,2.637
			l-65.966,41.828c-4.381,2.779-7.222,7.331-7.794,12.489c-0.569,5.159,1.209,10.221,4.877,13.889l54.406,54.406
			c3.211,3.211,7.479,4.979,12.021,4.979c1.23,0,2.526-0.155,3.854-0.462l1.619-0.375l120.107,120.105l-17.031,17.031
			c-0.78,0.781-0.78,2.047,0,2.828l34.189,34.19c0.281,0.281,0.641,0.473,1.033,0.549c2.084,0.405,13.031,2.425,23.815,2.425
			c10.171,0,16.834-1.719,20.367-5.254c4.191-4.189,5.854-12.727,5.082-26.096C285.537,387.677,284.078,379.867,283.791,378.389z
			 M135.715,262.337l-2.227,2.154l-24.363-24.359l0.391-1.633c1.389-5.809-0.291-11.785-4.49-15.985l-39.397-39.396l11.714-7.427
			l37.324,37.275c5.787,5.789,8.957,13.463,8.926,21.609c-0.002,0.533,0.209,1.045,0.586,1.421l8.215,8.213
			c0.764,0.765,1.998,0.783,2.785,0.042l38.283-36.027c0.316-0.298,0.527-0.691,0.602-1.119l3.82-22.322l15.805,22.993
			l-57.879,54.465C135.777,262.275,135.746,262.306,135.715,262.337z"/><path d="M180.933,280.482c-0.774-0.637-1.905-0.598-2.638,0.091l-7.057,6.641c-0.395,0.371-0.622,0.886-0.629,1.427
			c-0.008,0.541,0.203,1.062,0.586,1.443l32.141,32.141c0.379,0.381,0.891,0.586,1.413,0.586c0.184,0,0.372-0.024,0.554-0.078
			c0.699-0.2,1.234-0.767,1.396-1.476l0.026-0.108c2.332-9.951-1.27-20.567-9.174-27.047L180.933,280.482z"/><path d="M464.616,423.019l-6.719-12.662c-0.269-0.507-0.666-0.935-1.148-1.236l-6.973-4.39c-0.761-0.48-1.711-0.625-2.568-0.402
			l-8.369-17.232c-0.172-0.341-0.42-0.639-0.725-0.87c-0.92-0.696-2.205-0.854-3.271-0.398l-3.934,1.688l-3.394-7.945
			c-0.305-0.716-0.926-1.249-1.682-1.441l-11.285-2.877l-3.024-12.656c-0.164-0.687-0.611-1.271-1.23-1.611l-17.125-9.375
			c-0.74-0.404-1.631-0.409-2.375-0.016l-15.156,8.061l-10.065-0.371l-16.133-15.297c-0.806-0.762-2.017-0.904-2.976-0.348
			l-22,12.75c-0.547,0.316-0.953,0.83-1.139,1.437l-6.228,20.515l-11.551,13.86c-0.244,0.292-0.416,0.635-0.508,1.004l-7.75,31.528
			c-0.184,0.745-0.014,1.534,0.461,2.139c0.475,0.604,1.199,0.958,1.967,0.958h162.004c1.146,0,2.222-0.609,2.812-1.592
			C465.12,425.258,465.151,424.025,464.616,423.019z"/></g></g><g/><g/><g/><g/><g/><g/><g/><g/><g/><g/><g/><g/><g/><g/><g/></svg>