<svg xmlns="http://www.w3.org/2000/svg" xml:space="preserve" viewBox="0 0 249.8989 243.7039">
  <path d="M5.1924 217.0674c-3.8115 5.7559-2.2358 13.5117 3.52 17.3237 2.124 1.4067 4.52 2.0796 6.8901 2.0796 4.0527 0 8.0283-1.9678 10.4336-5.5996 13.8588-20.9268 18.5628-40.2086 19.0222-56.1666l-28.1067-22.8463c4.747 14.7342 6.3961 37.795-11.7592 65.2092zM147.3872 230.5599l-2.1995-1.5008-3.4407.4737-1.9538 3.5764 2.1352-.0642 4.4612-2.4112z"/>
  <path d="M.3037 120.9523c-.6514 4.855-.2168 8.7083.9375 11.8088.6104 2.5963 2.04 5.0209 4.2695 6.8333l45.2129 36.7515 16.3955 51.7676c1.6875 5.3257 6.6094 8.729 11.9141 8.729 1.25 0 2.5215-.1895 3.7773-.5869 6.5811-2.0845 10.2266-9.1094 8.1426-15.6909l-17.5254-55.3335c-.7373-2.3262-2.1387-4.3862-4.0322-5.9253l-35.0977-28.5295c.5043-1.9297 1.097-3.8593 1.7576-5.7811-1.9089-1.8256-3.1064-4.3383-3.2039-7.0649L31.416 77.696c-.2021-5.6758 4.251-10.458 9.9268-10.6606.123-.0044.2451-.0068.3662-.0068 5.5732 0 10.0947 4.3633 10.2949 9.9326l.5294 14.8419c.771-1.3297 1.5201-2.6234 2.2245-3.8576 5.8984-8.5114 6.1489-20.9984-1.2583-25.7435-.8345-.5344-1.746-.9988-2.714-1.3922-.1202-.0572-.236-.1202-.3603-.1719-.4846-.202-5.0994-2.0744-11.5593-3.1015-10.7064-1.7024-26.4836-1.0812-36.9441 13.3264-2.271 3.1279-1.981 7.4326.6899 10.2271l6.4985 6.8007 1.6557 1.7327c-4.6724 9.0352-7.7297 18.4721-10.4622 31.329zM89.6421 141.8467l80.6774 43.1445-.4617.8635 2.9252 1.9278-17.5565 31.97-6.7565 5.7424.9178 1.1996 6.9257-5.7937 19.3879-31.1949 2.3317 1.5367.8842-1.6534 2.2781 1.2183 2.8295-5.2909-2.2781-1.2183.8842-1.6534-9.0202-3.8079-.4618.8635-80.3185-42.9526c-.1161.4263-.2499.8495-.4222 1.2642-.6274 1.5116-1.5856 2.8098-2.7662 3.8346z"/>
  <path d="m40.0782 124.9518 39.75 16.5c1.0029.4165 2.042.6133 3.0645.6133 3.1367 0 6.1143-1.8574 7.3916-4.9351 1.6943-4.0806-.2412-8.7617-4.3213-10.4556l-35.0059-14.5308-1.252-35.1001c-.1582-4.415-3.8848-7.8647-8.2803-7.71-4.416.1577-7.8672 3.8647-7.71 8.2803l1.4355 40.2344c.1114 3.128 2.0372 5.9039 4.9279 7.1036zM204.2054 228.4671l3.7921-4.1907 8.6143-2.6919 5.4971 3.5732 2.247 3.2094 23.3537-.116-1.3333-1.9221-19.2386-3.6888-3.3297-.9081-11.0999-3.4924h-7.486l-4.6464 1.1642-7.486-2.3283h-6.4534l-9.7751 6.6129 6.8312-1.3081 4.4389 3.9716.7531 2.1912 12.6418-.0627.7936-.2481.3727.2423z"/>
  <path d="M173.8071 226.2915h-8.6348l-7.1074 5.4829-11.1011.8223-4.083 2.207 17.229.5015 8.6465-.7741 4.3374-2.6791 9.1607-.4355 2.263 1.5483 3.6422-.3784-1.75-5.0918-3.313-2.9639z"/>
  <path d="m166.7666 238.0757-4.2559 1.354-1.3848 1.3847h11.0494l14.575-.3472-.4339-.3637 1.6009-2.3895-6.2381-4.2682-7.9742.3799zM226.5734 235.0223l-5.8806-8.3998-4.3828-2.8486-7.1953 2.2485-3.7754 4.1727 2.2984 1.4938 6.0731 4.3968zM249.8989 236.0146l-8.4277-2.394h-4.2954l-5.5499 4.0356-.6147 1.062 5.125.5235 8.9727.126zM192.9306 243.0381l9.2539-.0415 7.5596-.8296 3.0899-4.2476-6.3277-4.582-4.4873-2.9155-7.1684 2.2402-4.4449 4.9126-1.4311 2.147zM103.369 234.2002l30.7909-.2361-4.9586-3.9669-6.0921-2.1251h-4.1086l-2.5501.7083-4.1086-1.4167H108.8zM220.6682 238.7039l-3 1.75 1.5 3.25 3.75-1.75 2.5-2.25zM138.6877 236.8091l-3.4407.4737-2.0788 3.5764 6.3601-.1876 3.1691-1.1266zM44.9357 32.704c.3743-1.1714.8358-2.329 1.3928-3.4632.9878-2.0109 2.7539-3.4893 5.1077-4.2756 6.4111-2.1425 16.5692 1.0861 23.9375 4.8218 10.1591 5.1506 20.6367 13.9866 16.7312 21.9384-.5878 1.1964-1.283 2.3146-2.0321 3.3871 18.0996 6.3447 32.048 7.7355 34.5922 2.6046 2.7471-5.5401-8.6057-17.058-26.9583-28.485 2.6018-9.9262-.1182-23.2637-9.0803-27.7075-8.9637-4.4446-21.2268 1.4636-27.5532 9.543-20.2046-7.6912-36.243-9.7551-38.99-4.2151-2.5357 5.1136 6.9431 15.3225 22.8525 25.8515Z"/>
  <path d="M49.0215 30.5632C43.5429 41.717 48.144 55.1999 59.297 60.6783c11.1547 5.4791 24.6362.8783 30.115-10.2755 5.4788-11.1539-34.9117-30.9935-40.3905-19.8396ZM102.0429 237.1624l-5.3333-.5-.5 3.6666 4.3333-.3333zM106.3667 236.6624l-.9071 3.6666 7.8619-.3333 2.7214-2.8333zM101.1274 233.0885l1.0822-2.044-3.8476-.3607-.3607 2.6452z"/>
</svg>
