<?xml version="1.0" encoding="UTF-8" standalone="no"?><!--Uploaded to: SVG Repo, www.svgrepo.com, Generator: SVG Repo Mixer Tools--><svg width="600" height="600" viewBox="0 0 36 36" fill="none" version="1.1" id="svg23" sodipodi:docname="marketing_and_selling.svg" inkscape:version="1.2.2 (732a01da63, 2022-12-09)" xmlns:inkscape="http://www.inkscape.org/namespaces/inkscape" xmlns:sodipodi="http://sodipodi.sourceforge.net/DTD/sodipodi-0.dtd" xmlns="http://www.w3.org/2000/svg" xmlns:svg="http://www.w3.org/2000/svg"><defs id="defs27"/><sodipodi:namedview id="namedview25" pagecolor="#ffffff" bordercolor="#000000" borderopacity="0.25" inkscape:showpageshadow="2" inkscape:pageopacity="0.0" inkscape:pagecheckerboard="0" inkscape:deskcolor="#d1d1d1" showgrid="false" inkscape:zoom="0.59" inkscape:cx="55.932203" inkscape:cy="244.0678" inkscape:window-width="1920" inkscape:window-height="1094" inkscape:window-x="-11" inkscape:window-y="-11" inkscape:window-maximized="1" inkscape:current-layer="svg23"/><path fill-rule="evenodd" clip-rule="evenodd" d="M 3.26322,0 C 2.88541,0 2.54782,0.26219 2.41801,0.65642 L 0.10958,7.6672 C 0.03709,7.8874 0,8.1199 0,8.3544 v 2.7885 C 0,12.7208 1.15127,14 2.57143,14 3.99159,14 5.1429,12.7208 5.1429,11.1429 5.1429,12.7208 6.2941,14 7.7143,14 c 1.4201,0 2.5714,-1.2792 2.5714,-2.8571 0,1.5779 1.1513,2.8571 2.5714,2.8571 1.4195,0 2.5703,-1.2779 2.5715,-2.8548 C 15.4297,12.7221 16.5805,14 18,14 c 1.4202,0 2.5714,-1.2792 2.5714,-2.8571 0,1.5779 1.1513,2.8571 2.5715,2.8571 1.4194,0 2.5702,-1.2779 2.5714,-2.8548 0.0011,1.5769 1.152,2.8548 2.5714,2.8548 1.4202,0 2.5714,-1.2792 2.5714,-2.8571 0,1.5779 1.1513,2.8571 2.5715,2.8571 C 34.8487,14 36,12.7208 36,11.1429 V 8.3544 C 36,8.1199 35.9629,7.8874 35.8904,7.6672 L 33.582,0.65642 C 33.4522,0.26218 33.1146,0 32.7368,0 Z" fill="#333333" id="path13" style="fill:#000000"/><path fill-rule="evenodd" clip-rule="evenodd" d="M 3,15.4771 V 22 H 1.5 C 1.22386,22 1,22.2239 1,22.5 v 1 C 1,23.7761 1.22386,24 1.5,24 h 33 c 0.2761,0 0.5,-0.2239 0.5,-0.5 v -1 C 35,22.2239 34.7761,22 34.5,22 H 33 v -6.5229 c -0.7634,-0.0824 -1.4418,-0.383 -2,-0.8305 V 22 H 5 V 14.6466 C 4.4418,15.0941 3.7634,15.3947 3,15.4771 Z M 31.4744,13 c 0.0972,0.1261 0.2041,0.2427 0.3194,0.3484 0.3399,0.3113 0.7529,0.5276 1.2062,0.6121 V 13 Z M 3,13.9605 V 13 H 4.5256 C 4.4284,13.1261 4.3215,13.2427 4.2062,13.3484 3.86634,13.6597 3.45328,13.876 3,13.9605 Z M 2.5,25 C 2.22386,25 2,25.2239 2,25.5 V 35 c 0,0.5523 0.44772,1 1,1 h 30 c 0.5523,0 1,-0.4477 1,-1 V 25.5 C 34,25.2239 33.7761,25 33.5,25 Z" fill="#333333" id="path15" style="fill:#000000"/><path d="M 6,19.5 C 6,19.2239 6.2239,19 6.5,19 h 3 c 0.2761,0 0.5,0.2239 0.5,0.5 v 2 C 10,21.7761 9.7761,22 9.5,22 h -3 C 6.2239,22 6,21.7761 6,21.5 Z" fill="#333333" id="path17" style="fill:#000000"/><path d="M 8,20.5 C 8,20.2239 8.2239,20 8.5,20 h 3 c 0.2761,0 0.5,0.2239 0.5,0.5 v 1 c 0,0.2761 -0.2239,0.5 -0.5,0.5 h -3 C 8.2239,22 8,21.7761 8,21.5 Z" fill="#333333" id="path19" style="fill:#000000"/><path d="M 16,20.5 C 16,21.3284 15.3284,22 14.5,22 13.6716,22 13,21.3284 13,20.5 13,19.6716 13.6716,19 14.5,19 c 0.8284,0 1.5,0.6716 1.5,1.5 z" fill="#333333" id="path21" style="fill:#000000"/></svg>