<?xml version="1.0" standalone="no"?><!DOCTYPE svg PUBLIC "-//W3C//DTD SVG 20010904//EN"
 "http://www.w3.org/TR/2001/REC-SVG-20010904/DTD/svg10.dtd"><svg version="1.0" xmlns="http://www.w3.org/2000/svg" width="1280.000000pt" height="674.000000pt" viewBox="0 0 1280.000000 674.000000" preserveAspectRatio="xMidYMid meet"><metadata>Created by potrace 1.15, written by Peter Selinger 2001-2017</metadata><g transform="translate(0.000000,674.000000) scale(0.100000,-0.100000)" fill="#000000" stroke="none"><path d="M2030 6731 c-106 -33 -158 -111 -130 -196 15 -47 54 -72 136 -89 232
-49 810 -244 1031 -347 l88 -41 -135 -33 c-835 -204 -848 -207 -871 -195 -44
24 -243 91 -386 130 -341 92 -793 165 -1278 204 -329 27 -298 28 -366 -6 -130
-65 -159 -207 -58 -279 32 -23 41 -24 152 -21 346 8 1006 -46 1267 -104 139
-31 580 -186 707 -249 168 -83 260 -185 643 -715 238 -329 997 -1346 1549
-2074 277 -366 332 -432 666 -802 201 -222 365 -406 365 -409 0 -3 -36 -5 -80
-5 l-79 0 -128 -128 c-203 -201 -311 -362 -318 -469 -2 -31 -9 -51 -21 -60
-24 -17 -27 -11 -10 21 37 72 -41 120 -243 152 -109 17 -458 30 -514 20 -31
-6 -39 -12 -44 -37 -11 -55 -77 -26 -213 91 -104 90 -145 113 -203 112 -40 -1
-74 -17 -119 -60 l-28 -26 38 -21 c20 -11 52 -43 70 -70 l34 -50 -87 -7 c-60
-5 -105 -16 -143 -33 -30 -14 -56 -25 -59 -25 -2 0 -1 44 3 98 11 161 -16 203
-116 181 -76 -16 -133 -92 -166 -220 -19 -75 -12 -133 20 -174 24 -30 24 -30
117 -27 85 3 103 0 194 -31 55 -19 159 -59 232 -90 118 -50 251 -97 274 -97 4
0 17 19 27 43 31 68 50 79 153 88 80 6 98 11 136 38 24 17 45 31 47 31 2 0 18
-24 34 -53 65 -116 215 -220 387 -269 68 -19 103 -23 225 -22 148 1 153 2 333
61 13 4 17 0 17 -21 0 -38 25 -93 48 -105 12 -6 36 -11 56 -11 26 0 36 5 41
20 4 11 18 28 33 38 23 15 49 17 200 14 138 -3 176 -1 183 10 13 20 11 35 -8
53 -14 15 -32 16 -132 11 -64 -4 -122 -3 -129 2 -7 5 -13 20 -13 33 -2 86 -20
94 -219 104 -141 6 -162 10 -229 37 -83 35 -136 76 -145 114 -9 35 -4 38 31
21 189 -98 860 -214 1913 -332 203 -22 620 -79 2675 -365 352 -49 644 -85 648
-81 5 5 7 17 5 26 -2 13 -365 187 -1250 601 -1222 572 -1248 584 -1338 597
-77 12 -93 12 -97 1 -3 -8 -8 -14 -12 -14 -4 0 23 138 60 308 310 1411 324
1472 339 1477 61 20 340 57 460 62 574 23 1295 -209 2165 -694 94 -53 314
-182 490 -287 338 -203 365 -217 460 -240 103 -25 529 -76 639 -76 8 0 20 -47
35 -150 19 -124 26 -150 40 -149 9 0 81 17 160 37 l144 37 -2 98 c-1 54 -5
105 -8 113 -3 8 -4 14 -2 14 2 0 40 -7 84 -15 212 -38 295 -4 295 124 0 46
-18 139 -28 145 -4 2 -87 -2 -185 -8 -98 -6 -180 -9 -182 -6 -5 8 -85 316 -85
327 0 6 14 16 32 22 22 8 28 15 21 22 -6 6 -18 6 -37 -1 -20 -7 -28 -7 -31 3
-2 6 -17 58 -32 114 -15 56 -32 102 -38 103 -5 1 -72 -15 -147 -36 -158 -43
-147 -28 -122 -168 8 -49 16 -109 18 -132 l2 -43 -55 -12 c-35 -7 -106 -10
-191 -6 -297 12 -583 126 -1140 458 -904 536 -1210 694 -1625 836 -277 95
-488 133 -737 133 -202 0 -348 -22 -519 -80 -307 -102 -531 -246 -824 -530
-189 -182 -277 -261 -400 -357 -113 -88 -420 -303 -432 -303 -6 0 -51 111
-101 248 -51 136 -104 281 -120 322 l-28 75 -73 3 c-66 3 -72 1 -67 -15 3 -10
59 -164 124 -343 l119 -325 -236 -8 c-129 -4 -238 -4 -243 1 -16 16 -797 1984
-878 2212 -224 631 -451 1087 -649 1302 -249 271 -839 581 -1595 837 -205 70
-237 77 -286 62z m1463 -892 c89 -61 181 -126 204 -145 61 -50 135 -154 192
-270 44 -89 311 -746 311 -765 0 -4 -15 -12 -32 -18 -53 -16 -662 -213 -674
-218 -7 -2 -51 53 -100 124 -322 471 -613 825 -840 1024 -53 46 -114 95 -135
109 -21 14 -39 27 -39 30 0 3 127 36 283 74 229 55 654 161 665 165 1 1 75
-49 165 -110z m781 -1361 c308 -750 471 -1145 658 -1593 127 -302 233 -558
235 -567 5 -16 -3 -18 -64 -18 l-70 0 -50 63 c-112 138 -1403 1910 -1403 1925
0 7 641 219 668 221 7 1 19 -14 26 -31z m3143 -1615 c-2 -5 -102 -354 -222
-778 -120 -424 -222 -774 -226 -779 -9 -10 -534 83 -553 98 -12 10 -240 616
-234 622 2 1 45 7 96 13 65 7 101 16 122 31 16 11 90 87 164 168 74 81 158
170 188 198 149 142 342 278 533 374 117 58 141 68 132 53z m-1286 -1127 c87
-241 107 -286 127 -296 14 -6 23 -12 21 -14 -7 -7 -513 92 -517 101 -1 4 -47
114 -101 243 l-97 235 115 5 c64 4 168 7 232 8 l116 2 104 -284z m-801 243
c17 -30 6 -34 -14 -4 -9 14 -12 25 -7 25 6 0 15 -9 21 -21z"/><path d="M2739 1130 c-120 -63 -214 -273 -165 -365 17 -32 80 -75 108 -75 8 0
22 17 30 38 11 27 37 57 87 97 95 75 111 102 111 188 0 55 -4 71 -21 88 -11
11 -27 18 -34 15 -7 -2 -21 4 -31 15 -21 24 -39 23 -85 -1z"/><path d="M3520 468 c-106 -54 -68 -150 74 -194 125 -38 214 -26 237 34 13 32
4 108 -14 130 -45 55 -214 71 -297 30z"/><path d="M4044 395 c-12 -30 12 -172 37 -222 22 -43 28 -48 61 -51 27 -2 61 7
117 32 43 20 93 36 111 36 l32 0 -4 59 c-8 115 -65 153 -240 159 -96 4 -109 2
-114 -13z"/></g></svg>