<svg xmlns="http://www.w3.org/2000/svg" xml:space="preserve" viewBox="0 0 349.0605 256.4319">
  <path d="M53.6719 126.986c-1.636.176-3.1457.2641-4.542.2641-4.9736 0-8.7061-1.1343-11.7441-3.5703-3.8398-3.0762-5.6309-7.707-4.9141-12.7046 1.1981-8.3326 2.983-15.0793 5.1069-20.5761L0 119.2018s20.5065 36.701 51.5887 44.373l2.0832-25.5419V126.986zM56.2894 142.8447c2.9024-1.4585 8.5649-6.2748 18.3683-21.3637-1.1227.3394-2.2639.6769-3.4194 1.006-5.656 1.6111-10.4698 2.7211-14.5664 3.3719v12.2958l-.3825 4.69zM197.6636 224.2944c-3.8397-3.1182-11.8905-3.3135-11.8905-3.3135s1.8446 7.8364 5.6846 10.956c3.8408 3.1192 6.5107 2.4473 8.2246.3384 1.7138-2.1118 1.8213-4.8628-2.0187-7.9809zM207.3364 221.1376c.8295-3.6967-1.7856-9.2879-1.7856-9.2879s-4.7455 3.9423-5.5751 7.6414c-.8295 3.6991.5439 5.3018 2.5752 5.758 2.0323.4548 3.9583-.411 4.7855-4.1115zM213.0983 233.7875c3.9004-3.042 5.8955-10.8452 5.8955-10.8452s-8.0519.041-11.9521 3.084c-3.9004 3.0444-3.8448 5.7964-2.174 7.9399 1.674 2.1436 4.3312 2.8653 8.2306-.1787zM210.5576 250.0898c-1.3038-1.3195-3.9502-2.2979-7.1438-2.5683 1.5378-3.4247 2.2246-8.2148-.6013-14.1407l-2.708 1.291c2.717 5.6977 1.6057 10.0361.0022 12.8305-3.3145.2365-6.0759 1.2302-7.4171 2.5865-5.0006.207-8.9208 2.1321-8.9208 4.4793 0 2.0222 12.9915 2.3987 17.8335 1.1302 4.842 1.2685 17.8333.892 17.8333-1.1302-.0001-2.3406-3.8976-4.2623-8.878-4.4783zM154.4553 224.2944c-3.8397-3.1182-11.8905-3.3135-11.8905-3.3135s1.8446 7.8364 5.6846 10.956c3.8408 3.1192 6.5107 2.4473 8.2246.3384 1.7137-2.1118 1.8213-4.8628-2.0187-7.9809zM164.1281 221.1376c.8295-3.6967-1.7856-9.2879-1.7856-9.2879s-4.7455 3.9423-5.5751 7.6414c-.8295 3.6991.5439 5.3018 2.5752 5.758 2.0323.4548 3.9583-.411 4.7855-4.1115zM169.89 233.7875c3.9004-3.042 5.8955-10.8452 5.8955-10.8452s-8.0519.041-11.9521 3.084c-3.9004 3.0444-3.8448 5.7964-2.174 7.9399 1.674 2.1436 4.3312 2.8653 8.2306-.1787zM167.3492 250.0898c-1.3038-1.3195-3.9502-2.2979-7.1438-2.5683 1.5378-3.4247 2.2246-8.2148-.6013-14.1407l-2.708 1.291c2.717 5.6977 1.6057 10.0361.0022 12.8305-3.3145.2365-6.0759 1.2302-7.4171 2.5865-5.0006.207-8.9208 2.1321-8.9208 4.4793 0 2.0222 12.9915 2.3987 17.8335 1.1302 4.842 1.2685 17.8333.892 17.8333-1.1302 0-2.3406-3.8975-4.2623-8.878-4.4783zM234.666 231.9369c3.8408 3.1192 6.5107 2.4473 8.2246.3384 1.7137-2.1118 1.8213-4.8628-2.0187-7.9809-3.8397-3.1182-11.8905-3.3135-11.8905-3.3135s1.8446 7.8364 5.6846 10.956zM250.5447 221.1376c.8295-3.6967-1.7856-9.2879-1.7856-9.2879s-4.7455 3.9423-5.5751 7.6414c-.8295 3.6991.5439 5.3018 2.5752 5.758 2.0323.4548 3.9583-.411 4.7855-4.1115zM256.3066 233.7875c3.9004-3.042 5.8955-10.8452 5.8955-10.8452s-8.0519.041-11.9521 3.084c-3.9004 3.0444-3.8448 5.7964-2.174 7.9399 1.674 2.1436 4.3312 2.8653 8.2306-.1787zM253.7659 250.0898c-1.3038-1.3195-3.9502-2.2979-7.1438-2.5683 1.5378-3.4247 2.2246-8.2148-.6013-14.1407l-2.708 1.291c2.717 5.6977 1.6057 10.0361.0022 12.8305-3.3145.2365-6.0759 1.2302-7.4171 2.5865-5.0006.207-8.9208 2.1321-8.9208 4.4793 0 2.0222 12.9915 2.3987 17.8335 1.1302 4.842 1.2685 17.8333.892 17.8333-1.1302-.0001-2.3406-3.8976-4.2623-8.878-4.4783zM277.8744 231.9369c3.8408 3.1192 6.5107 2.4473 8.2246.3384 1.7137-2.1118 1.8213-4.8628-2.0187-7.9809-3.8397-3.1182-11.8905-3.3135-11.8905-3.3135s1.8446 7.8364 5.6846 10.956zM293.7531 221.1376c.8295-3.6967-1.7856-9.2879-1.7856-9.2879s-4.7455 3.9423-5.5751 7.6414c-.8295 3.6991.5439 5.3018 2.5752 5.758 2.0323.4548 3.9583-.411 4.7855-4.1115zM299.515 233.7875c3.9004-3.042 5.8955-10.8452 5.8955-10.8452s-8.0519.041-11.9521 3.084c-3.9004 3.0444-3.8448 5.7964-2.174 7.9399 1.674 2.1436 4.3312 2.8653 8.2306-.1787zM296.9742 250.0898c-1.3038-1.3195-3.9502-2.2979-7.1438-2.5683 1.5378-3.4247 2.2246-8.2148-.6013-14.1407l-2.708 1.291c2.717 5.6977 1.6057 10.0361.0022 12.8305-3.3145.2365-6.0759 1.2302-7.4171 2.5865-5.0006.207-8.9208 2.1321-8.9208 4.4793 0 2.0222 12.9915 2.3987 17.8335 1.1302 4.842 1.2685 17.8333.892 17.8333-1.1302 0-2.3406-3.8975-4.2623-8.878-4.4783zM327.2886 224.2944c-3.8397-3.1182-11.8905-3.3135-11.8905-3.3135s1.8446 7.8364 5.6846 10.956c3.8408 3.1192 6.5107 2.4473 8.2246.3384 1.7138-2.1118 1.8213-4.8628-2.0187-7.9809zM329.6006 219.4911c-.8295 3.6991.5439 5.3018 2.5752 5.758 2.0323.4548 3.9584-.411 4.7855-4.1115.8295-3.6967-1.7856-9.2879-1.7856-9.2879s-4.7455 3.9423-5.5751 7.6414zM334.4927 233.9662c1.674 2.1436 4.3312 2.8653 8.2306-.1787 3.9004-3.042 5.8955-10.8452 5.8955-10.8452s-8.0519.041-11.9521 3.084c-3.9004 3.0444-3.8449 5.7964-2.174 7.9399zM340.1826 250.0898c-1.3038-1.3195-3.9502-2.2979-7.1438-2.5683 1.5378-3.4247 2.2246-8.2148-.6013-14.1407l-2.708 1.291c2.717 5.6977 1.6057 10.0361.0022 12.8305-3.3145.2365-6.0759 1.2302-7.4171 2.5865-5.0006.207-8.9208 2.1321-8.9208 4.4793 0 2.0222 12.9915 2.3987 17.8335 1.1302 4.842 1.2685 17.8333.892 17.8333-1.1302-.0001-2.3406-3.8976-4.2623-8.878-4.4783z"/>
  <path d="M108.3817 70.0425c-.9281 1.96-6.7079 14.0818-14.2633 28.0815 1.4417 1.1346 2.5899 2.6494 3.2635 4.4279.9746 2.5718.8896 5.3701-.2402 7.8789s-3.1689 4.4272-5.7412 5.4023c-.059.0225-3.8866 1.4719-9.3231 3.2859-14.2203 23.0871-21.7075 28.2966-26.2324 29.175l-7.7033 94.4507c-.5547 6.8071 4.5137 12.7725 11.3184 13.3271 6.8047.5542 12.7734-4.5098 13.3281-11.3174l7.4287-91.084h7.0024l7.4282 91.084c.5547 6.8076 6.5234 11.8716 13.3281 11.3174 6.8047-.5547 11.873-6.52 11.3184-13.3271l-8.5303-104.5917V86.0789c.9397-.0026 1.9348-.0126 3-.0352 18.029-.3826 53.2631-4.0397 79.5445-24.9107 3.4609-2.7471 4.0381-7.7793 1.29-11.2393-2.7471-3.4609-7.7803-4.04-11.2393-1.29-23.8244 18.9197-57.8766 21.3529-72.6683 21.4431-.8323.0051-1.6039.0029-2.3089-.0043z"/>
  <path d="M35.4414 111.4015c-.5625 3.9189.8291 7.541 3.8203 9.9375 2.1826 1.7495 5.0342 2.9111 9.8682 2.9111 4.7891 0 11.5225-1.1396 21.4785-3.9751 10.2764-2.9272 19.5859-6.4443 19.9766-6.5928 4.1318-1.5659 6.2119-6.1846 4.6455-10.3159-1.5645-4.1318-6.1865-6.2104-10.3154-4.645-12.3389 4.6763-25.626 8.3979-32.6768 9.3291 1.5562-7.793 3.6392-13.0009 5.6797-16.4059l1.9846 1.124c-1.0593 1.7706-2.1774 4.1751-3.2307 7.348v4.8108c7.4279-1.5789 17.8906-4.7421 27.4277-8.3568 1.1738-.4449 2.4014-.6705 3.6484-.6705.6099 0 1.2103.0609 1.7985.1667 6.2572-11.5756 11.3098-21.902 13.3993-26.2458H64.4004c-.1113 0-.2195.012-.3297.0167-5.6673.0647-23.1476 3.4347-28.6293 41.5639zM221.8639 32.9688c-1.1798 0-2.1362.9564-2.1362 2.1362s.9564 2.1362 2.1362 2.1362c1.1797 0 2.1361-.9564 2.1361-2.1362s-.9564-2.1362-2.1361-2.1362zM216.2389 39.2716c0-1.1797-.9564-2.1361-2.1362-2.1361s-2.1362.9564-2.1362 2.1361c0 1.1798.9564 2.1362 2.1362 2.1362s2.1362-.9564 2.1362-2.1362zM204.814 46.4694c0 1.1797.9564 2.1361 2.1362 2.1361s2.1362-.9564 2.1362-2.1361-.9564-2.1362-2.1362-2.1362-2.1362.9565-2.1362 2.1362zM211.2723 31.4213c0-1.1797-.9564-2.1361-2.1362-2.1361S207 30.2415 207 31.4213c0 1.1798.9564 2.1362 2.1362 2.1362s2.1361-.9564 2.1361-2.1362zM245.5 10.7018c1.1798 0 2.1362-.9564 2.1362-2.1361 0-1.1798-.9564-2.1362-2.1362-2.1362-1.1797 0-2.1361.9564-2.1361 2.1362 0 1.1797.9564 2.1361 2.1361 2.1361zM230.1362 18.0657c0-1.1798-.9564-2.1362-2.1362-2.1362-1.1797 0-2.1361.9564-2.1361 2.1362 0 1.1797.9564 2.1361 2.1361 2.1361 1.1798 0 2.1362-.9564 2.1362-2.1361zM231.8458 35.6919c0 1.182.9583 2.1403 2.1403 2.1403 1.1821 0 2.1403-.9583 2.1403-2.1403 0-1.1821-.9583-2.1403-2.1403-2.1403s-2.1403.9582-2.1403 2.1403zM232.7723 2.7458c-1.1797 0-2.1362.9564-2.1362 2.1362s.9564 2.1362 2.1362 2.1362 2.1361-.9564 2.1361-2.1362-.9563-2.1362-2.1361-2.1362z"/>
  <circle cx="249.7776" cy="48.6199" r="2.1403"/>
  <path d="M232.6502 52.4301c1.182 0 2.1403-.9583 2.1403-2.1403s-.9583-2.1403-2.1403-2.1403c-1.1821 0-2.1403.9583-2.1403 2.1403 0 1.1821.9582 2.1403 2.1403 2.1403zM221.3475 59.6666c-1.1798 0-2.1362.9564-2.1362 2.1362s.9564 2.1362 2.1362 2.1362c1.1797 0 2.1361-.9564 2.1361-2.1362s-.9564-2.1362-2.1361-2.1362zM241.3977 31.4031c0 1.1821.9582 2.1403 2.1403 2.1403 1.182 0 2.1403-.9583 2.1403-2.1403s-.9583-2.1403-2.1403-2.1403c-1.1821 0-2.1403.9583-2.1403 2.1403zM265.25 44.5516c-1.182 0-2.1403.9582-2.1403 2.1403 0 1.182.9583 2.1403 2.1403 2.1403 1.1821 0 2.1403-.9583 2.1403-2.1403 0-1.1821-.9582-2.1403-2.1403-2.1403zM265.25 28.3948c-1.182 0-2.1403.9583-2.1403 2.1403s.9583 2.1403 2.1403 2.1403c1.1821 0 2.1403-.9583 2.1403-2.1403s-.9582-2.1403-2.1403-2.1403zM285.25 47.5615c-1.182 0-2.1403.9583-2.1403 2.1403 0 1.1821.9583 2.1403 2.1403 2.1403 1.1821 0 2.1403-.9582 2.1403-2.1403 0-1.182-.9582-2.1403-2.1403-2.1403zM256.6097 70.4518c0 1.1821.9583 2.1403 2.1403 2.1403 1.1821 0 2.1403-.9582 2.1403-2.1403 0-1.182-.9583-2.1403-2.1403-2.1403s-2.1403.9583-2.1403 2.1403zM277.5 23.5615c-1.182 0-2.1403.9583-2.1403 2.1403 0 1.1821.9583 2.1403 2.1403 2.1403 1.1821 0 2.1403-.9582 2.1403-2.1403 0-1.182-.9582-2.1403-2.1403-2.1403zM109.9484 38.347c.246 1.3101.3592 2.6219.4017 3.9294 18.2936-5.7614 30.2958-13.0029 29.2595-18.6355-1.1188-6.0817-17.1088-8.5041-38.6494-6.6609C97.0978 7.4732 86.9305-1.5774 77.0922.2327c-9.84 1.8104-16.1205 13.8871-16.3467 24.1462-20.7858 5.944-34.8647 13.8986-33.7458 19.9801 1.0328 5.6136 14.738 8.1105 33.7844 7.0116-.402-1.1622-.7259-2.3656-.9592-3.6074-.4136-2.202.1151-4.4436 1.5288-6.4832 3.8503-5.5558 13.9182-9.0554 22.056-10.4778 11.2201-1.9611 24.9029-1.162 26.5387 7.5448z"/>
  <path d="M62.7734 47.2089c2.2943 12.2131 14.0549 20.2533 26.2672 17.9592 12.2141-2.2944 20.2534-14.054 17.9592-26.2672-2.2942-12.2132-46.5206-3.9052-44.2264 8.308zM180.0845 40.7658c-2.2954 1.8496-2.5718 4.792-2.5825 4.917-.0469.5488.3589 1.0293.9077 1.0791.0298.0029.0601.0039.0898.0039.5107 0 .9463-.3906.9951-.9092.002-.0215.228-2.2422 1.8584-3.5449 1.0439-.835 2.4795-1.1455 4.2607-.9082.5488.0566 1.0498-.3164 1.1211-.8633.0703-.5479-.3164-1.0498-.8633-1.1211-2.3543-.2998-4.2997.1485-5.787 1.3467z"/>
  <path d="M185.9937 34.967c-3.4854-.5898-6.4033-.0449-8.6738 1.6191-3.4541 2.5313-4.0742 6.7148-4.0986 6.8916-.0767.5479.3052 1.0527.8521 1.1289.0469.0068.0933.0098.1396.0098.4907 0 .9189-.3613.9888-.8613.0049-.0352.52-3.5186 3.3003-5.5557 1.8179-1.3301 4.2271-1.7559 7.1577-1.2598.5508.083 1.0605-.2764 1.1533-.8193.0917-.5449-.2754-1.0606-.8194-1.1533z"/>
</svg>
