<?xml version="1.0" encoding="utf-8"?><svg version="1.1" id="Layer_1" xmlns="http://www.w3.org/2000/svg" xmlns:xlink="http://www.w3.org/1999/xlink" x="0px" y="0px" viewBox="0 0 100.31 122.88" style="enable-background:new 0 0 100.31 122.88" xml:space="preserve"><style type="text/css">.st0{fill-rule:evenodd;clip-rule:evenodd;}</style><g><path class="st0" d="M1.05,0h7.68c0.58,0,1.05,0.47,1.05,1.05v13.87h80.75V1.05C90.53,0.47,91,0,91.58,0h7.68 c0.58,0,1.05,0.47,1.05,1.05v120.77c0,0.58-0.47,1.05-1.05,1.05h-7.68c-0.58,0-1.05-0.47-1.05-1.05v-8.22H9.78v8.22 c0,0.58-0.47,1.05-1.05,1.05H1.05c-0.58,0-1.05-0.47-1.05-1.05V1.05C0,0.47,0.47,0,1.05,0L1.05,0z M35.19,88.61h-6.68 c-1.6,0-2.91,1.31-2.91,2.91l0,0c0,1.6,1.31,2.91,2.91,2.91h6.68c1.6,0,2.91-1.31,2.91-2.91l0,0 C38.1,89.92,36.79,88.61,35.19,88.61L35.19,88.61z M71.81,85.56h-6.68c-1.6,0-2.91,1.31-2.91,2.91l0,0c0,1.6,1.31,2.91,2.91,2.91 h6.68c1.6,0,2.91-1.31,2.91-2.91l0,0C74.72,86.87,73.41,85.56,71.81,85.56L71.81,85.56z M65.13,47.59h6.68 c1.6,0,2.91,1.31,2.91,2.91l0,0c0,1.6-1.31,2.91-2.91,2.91h-6.68c-1.6,0-2.91-1.31-2.91-2.91l0,0 C62.22,48.9,63.53,47.59,65.13,47.59L65.13,47.59z M28.51,44.53h6.68c1.6,0,2.91,1.31,2.91,2.91l0,0c0,1.6-1.31,2.91-2.91,2.91 h-6.68c-1.6,0-2.91-1.31-2.91-2.91l0,0C25.59,45.84,26.9,44.53,28.51,44.53L28.51,44.53z M90.53,103.82V73.8H9.78v30.02h6.08v-19.4 c0-0.93,0.36-1.79,0.95-2.45l0.13-0.15c0.67-0.67,1.58-1.08,2.6-1.08h24.62c1.01,0,1.93,0.41,2.6,1.08 c0.67,0.67,1.08,1.59,1.08,2.6v19.4h4.64V81.36c0-1.01,0.41-1.93,1.08-2.6c0.67-0.67,1.58-1.08,2.6-1.08h24.62 c1.01,0,1.93,0.41,2.6,1.08c0.67,0.67,1.08,1.59,1.08,2.6v22.46H90.53L90.53,103.82z M19.59,103.82h24.52V84.47H19.59V103.82 L19.59,103.82z M56.21,103.82h24.52V81.41H56.21V103.82L56.21,103.82z M90.53,64.02v-39.3H9.78v39.3h6.08V40.33 c0-1.01,0.41-1.93,1.08-2.59v-0.01c0.67-0.67,1.59-1.08,2.6-1.08h24.62c1.01,0,1.93,0.41,2.6,1.08c0.67,0.67,1.08,1.59,1.08,2.6 v23.69h4.64V43.39c0-1.01,0.41-1.93,1.08-2.6c0.67-0.67,1.59-1.08,2.6-1.08h24.62c1.01,0,1.93,0.41,2.6,1.08l0.13,0.15 c0.59,0.65,0.95,1.52,0.95,2.45v20.63H90.53L90.53,64.02z M19.59,64.02h24.52V40.38H19.59V64.02L19.59,64.02z M56.21,64.02h24.52 V43.44H56.21V64.02L56.21,64.02z"/></g></svg>