<svg xmlns="http://www.w3.org/2000/svg" xml:space="preserve" viewBox="0 0 250.675 230.7587">
  <path d="M174.6973 206.2638c3.8408 3.1192 6.5107 2.4473 8.2246.3384 1.7137-2.1118 1.8213-4.8628-2.0187-7.9809-3.8397-3.1182-11.8905-3.3135-11.8905-3.3135s1.8446 7.8364 5.6846 10.956zM185.7904 199.576c2.0323.4548 3.9584-.411 4.7855-4.1115.8295-3.6967-1.7856-9.2879-1.7856-9.2879s-4.7455 3.9423-5.5751 7.6414c-.8295 3.6991.5439 5.3018 2.5752 5.758zM188.1073 208.2931c1.674 2.1436 4.3312 2.8653 8.2306-.1787 3.9004-3.042 5.8955-10.8452 5.8955-10.8452s-8.0519.041-11.9521 3.084c-3.9005 3.0444-3.8449 5.7964-2.174 7.9399zM193.7971 224.4167c-1.3038-1.3195-3.9502-2.2979-7.1438-2.5683 1.5378-3.4247 2.2246-8.2148-.6013-14.1407l-2.708 1.291c2.717 5.6977 1.6057 10.0361.0022 12.8305-3.3145.2365-6.0759 1.2302-7.4171 2.5865-5.0006.207-8.9208 2.1321-8.9208 4.4793 0 2.0222 12.9915 2.3987 17.8335 1.1302 4.842 1.2685 17.8333.892 17.8333-1.1302-.0001-2.3406-3.8975-4.2623-8.878-4.4783zM222.6973 206.2638c3.8408 3.1192 6.5107 2.4473 8.2246.3384 1.7137-2.1118 1.8213-4.8628-2.0187-7.9809-3.8397-3.1182-11.8905-3.3135-11.8905-3.3135s1.8446 7.8364 5.6846 10.956zM233.7904 199.576c2.0323.4548 3.9584-.411 4.7855-4.1115.8295-3.6967-1.7856-9.2879-1.7856-9.2879s-4.7455 3.9423-5.5751 7.6414c-.8295 3.6991.5439 5.3018 2.5752 5.758zM236.1073 208.2931c1.674 2.1436 4.3312 2.8653 8.2306-.1787 3.9004-3.042 5.8955-10.8452 5.8955-10.8452s-8.0519.041-11.9521 3.084c-3.9005 3.0444-3.8449 5.7964-2.174 7.9399zM241.7971 224.4167c-1.3038-1.3195-3.9502-2.2979-7.1438-2.5683 1.5378-3.4247 2.2246-8.2148-.6013-14.1407l-2.708 1.291c2.717 5.6977 1.6057 10.0361.0022 12.8305-3.3145.2365-6.0759 1.2302-7.4171 2.5865-5.0006.207-8.9208 2.1321-8.9208 4.4793 0 2.0222 12.9915 2.3987 17.8335 1.1302 4.842 1.2685 17.8333.892 17.8333-1.1302-.0001-2.3406-3.8975-4.2623-8.878-4.4783zM31.8447 100.6544l.0654-38.3101c.0098-5.6699 4.6309-10.2822 10.2998-10.2822 2.7686.0044 5.3535 1.0801 7.2959 3.0288s3.0088 4.5376 3.0039 7.2886l-.0216 12.6075c.786-1.3549 1.5514-2.6758 2.2684-3.9321 5.8987-8.5113 6.1489-20.9984-1.2581-25.7435-7.4095-4.744-20.6168-4.3074-30.0677 7.9579C10.5355 70.2093 4.952 82.1856.3023 104.0619c-.3928 2.9282-.3876 5.4892-.0724 7.745-.0941 2.995.8677 6.0328 2.9638 8.4938l37.6553 44.2109-10.6885 49.2871c-1.4629 6.7471 2.8193 13.4023 9.5664 14.8652.8926.1934 1.7842.2871 2.6611.2871 5.7559 0 10.9346-4 12.2041-9.8535l12-55.333c.8262-3.8096-.1719-7.7871-2.7002-10.7549l-30.3997-35.6913c.5828-2.8404 1.3706-5.6901 2.3201-8.5257-2.4733-1.922-3.9737-4.8933-3.9676-8.1382zM111.4443 27.9304c1.4075-3.7003-6.4495-10.1223-17.5479-14.3439-.3797-.1444-.7548-.2733-1.132-.4089C90.395 7.9762 86.0571 3.6689 80.2919 1.476 68.678-2.9418 55.6802 2.8926 51.2625 14.5064 46.844 26.1223 52.6791 39.1181 64.293 43.5359c10.6543 4.0527 22.4631-.5237 27.7555-10.272-1.8595-.8179-3.7822-1.783-5.7179-2.8854-10.1307-5.7696-16.8264-13.1453-15.2135-16.668.1943 3.7754 7.584 9.4319 17.6832 13.2734 7.6211 2.8989 14.7888 4.0063 18.9883 3.2183 1.9161-.3595 3.2149-1.113 3.6557-2.2718zM153.6086 137.9271l.9583 2.0999-34.9453 13.6841 6.5865-27.4208.8362.3129c.9828.3678 2.0778-.131 2.4454-1.113.3669-.9828-.1318-2.0778-1.1139-2.4447l-30.5154-11.4171c-.982-.3677-2.0769.1311-2.4447 1.114-.3677.9819.1312 2.0769 1.114 2.4447l.8373.3132-1.4484 2.7802c-1.5308-2.5151-4.2061-5.9429-8.0038-7.3544.1738.3195.3345.6481.4758.9888.5835 1.4071.8323 2.8931.7705 4.3713 2.6009 2.2264 4.1971 5.5731 4.5187 6.2916l-8.5696 16.4486c-.7581-3.8549-2.3361-7.5803-3.8061-11.037-.2935-.6901-.561-1.3328-.8151-1.9536-.5284.0829-1.0675.1281-1.615.1281-.9554 0-1.8947-.1384-2.8077-.3987.4806 1.2562 1.0203 2.5263 1.5572 3.7887 2.2664 5.33 4.8243 11.3614 3.6273 16.8803l-2.3892 4.5859-1.1688-.4373c-.982-.3669-2.0769.132-2.4447 1.114-.3677.9819.1311 2.0769 1.1132 2.4446l40.3296 15.0887c.982.3677 2.0778-.1311 2.4447-1.1131.3677-.9833-.1312-2.0778-1.1132-2.4456l-1.1686-.4373.1741-.725 39.3019-20.619.9587 2.1008 4.1143-.1368-4.9957-10.9454-2.7985 3.0184z"/>
  <path d="M78.8739 123.8639c3.1406 0 6.1211-1.8618 7.3955-4.9448 1.6885-4.083-.2529-8.7617-4.3359-10.4502L50.1532 95.3272l.0566-32.9517c.0078-4.4185-3.5684-8.0063-7.9863-8.0137h-.0137c-4.4121 0-7.9922 3.5728-8 7.9863l-.0654 38.3105c-.0059 3.2422 1.9463 6.1675 4.9434 7.4067l36.7324 15.1895c1 .4137 2.0352.6091 3.0537.6091zM160.057 133.456l.5547 1.3945c.0117-.0049.4893-.1943 1.3682-.4844l-.4707-1.4238c-.9444.3115-1.4522.5137-1.4522.5137zM221.9252 144.9189c.7813.6377 1.5537 1.2979 2.2979 1.9629l1-1.1172c-.7607-.6807-1.5508-1.3564-2.3506-2.0078l-.9473 1.1621zM194.85 132.2665c.9795.1846 1.9736.3975 2.9541.6318l.3496-1.459c-1.0049-.2402-2.0225-.458-3.0264-.6475l-.2773 1.4747zM217.0677 141.328c.8281.5527 1.6592 1.1367 2.4697 1.7363l.8926-1.2051c-.8301-.6143-1.6816-1.2129-2.5303-1.7793l-.832 1.2481zM237.8295 163.0497c.5391.8379 1.0742 1.6963 1.6035 2.5752l1.2852-.7734c-.5371-.8926-1.0801-1.7646-1.6289-2.6143l-1.2598.8125zM170.5179 130.7304l.2578 1.4785c.9443-.165 1.9443-.3184 2.9932-.4551l-.1953-1.4883c-1.0703.1407-2.0899.2979-3.0557.4649zM230.5824 153.3485c.6523.75 1.2988 1.5244 1.9404 2.3232l1.1699-.9395c-.6533-.8145-1.3135-1.6025-1.9775-2.3682l-1.1328.9845zM243.7826 173.6239c.4404.8965.876 1.8115 1.3076 2.7441l1.3613-.6289c-.4355-.9443-.877-1.8691-1.3232-2.7773l-1.3457.6621zM176.6449 129.9306l.1309 1.4941c1.0127-.0879 2.0283-.1543 3.0195-.1973l-.0645-1.498c-1.0127.043-2.0508.1113-3.0859.2012zM226.433 148.9462c.7109.6934 1.417 1.4131 2.1191 2.1572l1.0918-1.0273c-.7158-.7617-1.4375-1.4951-2.1641-2.2041l-1.0468 1.0742zM167.8041 132.7919l-.3203-1.4648c-1.0137.2217-2.0254.4678-3.0059.7314l.3887 1.4492c.9589-.2578 1.9472-.498 2.9375-.7158zM237.3763 159.6757c-.5938-.8584-1.1934-1.6924-1.7979-2.5039l-1.2031.8965c.5947.7979 1.1846 1.6182 1.7686 2.4609l1.2324-.8535zM211.8871 138.2294c.876.4658 1.7607.9658 2.6299 1.4844l.7695-1.2871c-.8906-.5322-1.7969-1.0439-2.6943-1.5215l-.7051 1.3242zM206.4212 135.6689c.9258.3779 1.8564.7852 2.7656 1.2109l.6367-1.3574c-.9316-.4375-1.8867-.8555-2.8359-1.2422l-.5664 1.3887zM200.723 133.6767c.9551.2803 1.9229.5908 2.876.9238l.4941-1.416c-.9766-.3418-1.9688-.6602-2.9482-.9473l-.4219 1.4395zM242.266 167.5146l-1.3086.7344c.4893.8701.9727 1.7598 1.4492 2.667l1.3281-.6973c-.4843-.9209-.9736-1.8223-1.4687-2.7041zM182.8207 129.6601l.0039 1.5c1.0107 0 2.0264.0225 3.0195.0674l.0684-1.498c-1.0156-.0459-2.0547-.0693-3.0879-.0693h-.0039zM188.8636 131.4335c1.0107.0918 2.0215.208 3.0039.3457l.207-1.4863c-1.0059-.1406-2.04-.2598-3.0742-.3535l-.1367 1.4941zM248.3177 179.9882c-.1953-.4658-.3916-.9287-.5898-1.3877l-1.377.5957c.1963.4531.3906.9102.584 1.3721l1.3828-.5801zM163.4066 145.9325c.0146.0029.5176.0977 1.4082.3252l.3711-1.4531c-.9658-.2471-1.5059-.3467-1.5059-.3467l-.2734 1.4746zM203.2084 174.4862l-1.3145.7227c.4512.8184.8887 1.6592 1.3135 2.5215l1.3457-.6621c-.4297-.8741-.8828-1.7422-1.3447-2.5821zM191.6478 161.6591c.6748.665 1.3398 1.3525 1.9756 2.043l1.1035-1.0156c-.6523-.709-1.334-1.4141-2.0264-2.0957l-1.0527 1.0683zM195.4964 165.8378c.6084.7295 1.2031 1.4775 1.7666 2.2246l1.1973-.9043c-.5781-.7656-1.1875-1.5332-1.8115-2.2813l-1.1524.961zM173.4486 147.6796l-.5957 1.377c.8281.3574 1.6924.7529 2.5859 1.1885l.6582-1.3477c-.8613-.4209-1.7519-.8301-2.6484-1.2178zM187.4125 157.869c.7344.5967 1.4619 1.2168 2.1631 1.8447l1-1.1172c-.7188-.6436-1.4639-1.2803-2.2158-1.8916l-.9473 1.1641zM180.4369 152.9657l.7754-1.2832c-.8555-.5166-1.6992-1-2.5264-1.4502l-.7168 1.3164c.8076.4405 1.6318.9121 2.4678 1.417zM207.8734 185.1327l-1.4219.4785c.2988.8867.584 1.791.8545 2.7148l1.4395-.4219c-.2764-.9433-.5674-1.8671-.8721-2.7714zM167.5306 147.0478c.875.2813 1.7773.5977 2.6836.9404l.5313-1.4023c-.9297-.3525-1.8574-.6768-2.7559-.9658l-.459 1.4277zM205.7787 179.7069l-1.375.5996c.374.8564.7344 1.7334 1.0801 2.6299l1.4004-.5391c-.3536-.9179-.7237-1.8144-1.1055-2.6904zM186.056 154.9198c-.7715-.5703-1.5732-1.1338-2.3838-1.6758l-.834 1.248c.791.5283 1.5742 1.0781 2.3271 1.6348l.8907-1.207zM200.4632 172.7538l1.2793-.7852c-.5078-.8271-1.041-1.6504-1.584-2.4453l-1.2383.8457c.5284.7754 1.0479 1.5772 1.543 2.3848zM209.5062 190.7108l-1.4551.3633c.2275.9082.4404 1.834.6396 2.7773l1.4668-.3105c-.203-.9609-.4198-1.9043-.6513-2.8301zM209.2289 196.6757c.084.4844.1641.9727.2393 1.4658l1.4824-.2266c-.0771-.5029-.1572-1.001-.2432-1.4951l-1.4785.2559zM164.4847 140.0575c-.9922-.041-1.54-.0283-1.541-.0293l.0303 1.5c.0146.001.5264-.0088 1.4502.0273l.0605-1.498zM201.5765 155.7753l.9629-1.1504c-.7539-.6299-1.5332-1.249-2.3193-1.8408l-.9023 1.1973c.7656.5771 1.5253 1.1806 2.2587 1.7939zM189.4691 147.9823c.8633.418 1.7275.8623 2.5703 1.3213l.7168-1.3184c-.8633-.4697-1.749-.9248-2.6328-1.3525l-.6543 1.3496zM181.8959 143.3183c-.9648-.3154-1.9102-.6016-2.832-.8594l-.4043 1.4453c.9023.252 1.8262.5303 2.7695.8398l.4668-1.4257zM196.9711 152.3036l.8398-1.2422c-.8164-.5527-1.6543-1.0908-2.4902-1.5996l-.7793 1.2813c.8144.4961 1.6328 1.0215 2.4297 1.5605zM184.1576 145.703c.8838.333 1.7793.6924 2.6846 1.0791l.5898-1.3789c-.9268-.3965-1.8418-.7637-2.7451-1.1045l-.5293 1.4043zM218.5414 175.6376l-1.3574.6387c.4033.8584.7949 1.7383 1.1738 2.6406l1.3828-.5801c-.3867-.9219-.7861-1.8213-1.1992-2.6992zM211.3617 166.3202c.5625.7822 1.1094 1.584 1.627 2.3838l1.2598-.8164c-.5313-.8193-1.0928-1.6406-1.668-2.4424l-1.2188.875zM167.2962 141.7577c.9395.0918 1.9053.209 2.8711.3496l.2168-1.4844c-.9902-.1436-1.9795-.2646-2.9434-.3574l-.1445 1.4922zM217.2269 172.9911c-.4658-.8848-.9424-1.7461-1.4316-2.585l-1.2949.7559c.4775.8193.9443 1.6611 1.3984 2.5264l1.3281-.6973zM203.7425 157.6806c.7021.6514 1.3975 1.3281 2.0645 2.0127l1.0742-1.0469c-.6855-.7021-1.3984-1.3975-2.1191-2.0654l-1.0196 1.0996zM207.7689 161.8095c.6328.7178 1.2559 1.4619 1.8525 2.2109l1.1738-.9336c-.6123-.7695-1.252-1.5332-1.9014-2.2695l-1.1249.9922zM219.4242 181.6034c.332.8906.6523 1.8008.96 2.7295l1.4238-.4707c-.3135-.9482-.6396-1.876-.9795-2.7842l-1.4043.5254zM173.0238 142.5849c.9023.1709 1.8486.3691 2.833.5996l.3418-1.4609c-1.0059-.2344-1.9736-.4385-2.8955-.6133l-.2793 1.4746zM221.6527 188.5585l1.4473-.3926c-.1328-.4912-.2686-.9766-.4092-1.458l-1.4395.4199c.1367.4717.2705.9493.4014 1.4307zM163.6107 136.3417c-.9854.1074-1.5225.1963-1.5225.1963l.2422 1.4805c.0117-.002.5205-.085 1.4443-.1865l-.164-1.4903zM214.6283 152.5507c.709.6182 1.417 1.2686 2.1045 1.9316l1.041-1.0801c-.7041-.6797-1.4307-1.3467-2.1592-1.9824l-.9863 1.1309zM210.14 149.0204c.7773.5498 1.5479 1.125 2.2891 1.708l.9277-1.1797c-.7617-.5986-1.5527-1.1885-2.3496-1.7529l-.8672 1.2246zM189.3929 139.6689c.9131.2285 1.8359.4785 2.7656.752l.4238-1.4395c-.9512-.2793-1.8936-.5352-2.8262-.7676l-.3632 1.4551zM218.7367 156.5175c.6484.6924 1.2871 1.4102 1.8984 2.1328l1.1445-.9688c-.627-.7422-1.2832-1.4785-1.9492-2.1895l-1.0937 1.0255zM205.3168 145.9589c.8311.4717 1.6553.9658 2.4502 1.4707l.8027-1.2676c-.8154-.5166-1.6611-1.0244-2.5127-1.5078l-.7402 1.3047zM172.3509 137.4726c.9102.0156 1.8691.0469 2.8701.1006l.0801-1.498c-1.0205-.0537-1.9971-.0869-2.9248-.1025l-.0254 1.4999zM178.0863 137.7773c.9258.083 1.8789.1855 2.8535.3096l.1895-1.4883c-.9941-.126-1.9648-.2305-2.9082-.3154l-.1348 1.4941zM183.7787 138.5048c.9238.1533 1.8652.3281 2.8193.5254l.3027-1.4688c-.9736-.2012-1.9326-.3799-2.876-.5371l-.246 1.4805zM202.7953 144.6083l.6758-1.3398c-.8721-.4385-1.7617-.8623-2.6465-1.2568l-.6113 1.3691c.8632.3857 1.7314.7988 2.582 1.2275zM169.4515 135.9784c-1.0771.0225-2.0557.0664-2.9229.1182l.0898 1.498c.8496-.0518 1.8086-.0938 2.8643-.1162l-.0312-1.5zM194.8871 141.289c.8916.3047 1.7881.6328 2.6865.9863l.5508-1.3945c-.8906-.3516-1.8164-.6914-2.751-1.0117l-.4863 1.4199zM227.1595 168.0214l1.3047-.7402c-.4775-.8408-.9834-1.6865-1.5039-2.5127l-1.2695.7988c.501.7959.9912 1.6123 1.4687 2.4541zM222.4291 160.8739c.5801.7578 1.1475 1.5342 1.6846 2.3086l1.2324-.8555c-.5508-.7939-1.1318-1.5898-1.7275-2.3652l-1.1895.9121zM228.5238 170.538c.4307.8359.8506 1.6934 1.2578 2.5713l1.3613-.6309c-.417-.8975-.8447-1.7725-1.2852-2.6279l-1.3339.6875zM232.9076 176.5878c-.1865-.4736-.377-.9414-.5703-1.4043l-1.3848.5781c.1895.4531.376.9111.5586 1.375l1.3965-.5488z"/>
</svg>
