<svg xmlns="http://www.w3.org/2000/svg" viewBox="0 0 1200 1200">
  <path d="M619.13 364.63c-5.6719-41.914-12.461-69.168-17.289-84.777-4.7617 15.328-11.418 41.699-17.07 82.34l.19531 2.4453h34.164zM902.58 850.25h16.387c39.516-126.15 46.742-197.18 47.551-227.82-13.039 18.066-36.309 55.133-65.203 121.76 1.2656 31.246 1.7891 66.469 1.2656 106.06zM510.85 362.04c-5.6523-40.586-12.328-66.93-17.09-82.238-4.8555 15.59-11.664 42.863-17.363 84.824h34.238zM570.7 362.69c-6.0938-72.32-16.332-114.77-22.93-135.98-6.5625 21.195-16.742 63.562-22.836 135.64-.007813.066406-.007813.13281-.019532.19531v.007813l-.16797 2.082h46.117z"/>
  <path d="M286.99 599.64c17.867 0 34.902 7.0586 47.719 19.895 21.461 21.449 49.977 33.262 80.316 33.262h170.3c13.52 0 24.516-10.996 24.516-24.508 0-13.508-10.996-24.508-24.516-24.508h-164.1c-3.8828 0-7.0312-3.1484-7.0312-7.0312s3.1484-7.0312 7.0312-7.0312h198.66c16.809 0 30.488-13.68 30.488-30.488s-13.68-30.488-30.488-30.488l-100.58.003906h-94.559c-3.8828 0-7.0312-3.1484-7.0312-7.0312s3.1484-7.0312 7.0312-7.0312h195.14c16.809 0 30.488-13.68 30.488-30.488 0-16.801-13.68-30.477-30.488-30.477h-195.14c-3.8828 0-7.0312-3.1484-7.0312-7.0312s3.1484-7.0312 7.0312-7.0312h195.14c16.809 0 30.488-13.68 30.488-30.488 0-16.801-13.68-30.477-30.488-30.477h-195.14c-3.8828 0-7.0312-3.1484-7.0312-7.0312s3.1484-7.0312 7.0312-7.0312h37.461c2.8867-21.617 6.0469-39.508 9.1484-54.039h-28.988c-37.492 0-72.73 14.598-99.234 41.109-17.41 17.398-40.555 26.992-65.156 26.992h-84.141v217.57l93.141 3.375h.015625zM547.61 721.23c10.398-9.2617 14.297-21.711 18.402-34.82 2.0547-6.543 4.2578-13.18 7.2188-19.547l-74.391.003906c13.133 17.746 30 39.73 48.77 54.363zM888.52 850.22c2.3906-180.48-17.43-269.18-27.977-303.21-10.527 34.164-30.402 123.26-28.023 303.21zM993.11 864.31H616.68c-9.6758 0-18.629 5.2305-23.371 13.66-16.117 28.574-45.32 45.637-78.121 45.637-32.805 0-61.996-17.062-78.113-45.629-4.7539-8.418-13.715-13.66-23.383-13.66l-208.39.003906c-6.3281 0-11.477 5.1484-11.477 11.477v119.38h810.74v-119.39c0-6.3281-5.1406-11.477-11.457-11.477zM818.48 850.25c-.52344-39.59 0-74.805 1.2578-106.05-28.914-66.676-52.191-103.75-65.242-121.81.76953 30.602 7.9141 101.63 47.457 227.86zM596.37 788.68l40.246 17.805c3.5547 1.5664 7.6953-.039063 9.2734-3.5898 1.5664-3.543-.039063-7.6953-3.5898-9.2734l-39.027-17.27-45.141-45.75c-1.9297 1.8203-4.0117 3.5703-6.3359 5.2227-1.2109.86328-2.6328 1.293-4.0586 1.293s-2.8516-.42969-4.0703-1.293c-.91016-.64844-1.7812-1.4062-2.6797-2.082.074219 4.3672-.82422 14.008-8.6445 24.684-9.7969 13.398-32.773 31.039-86.539 38.961-3.8438.57031-6.4961 4.1445-5.9336 7.9883.51562 3.4961 3.5156 6.0078 6.9453 6.0078.34766 0 .68359-.019531 1.0312-.074218 12.695-1.875 24.227-4.3789 34.754-7.4141-3.9453 14.926-8.9062 39.262-4.4805 55.258.86328 3.1211 3.6953 5.1562 6.7695 5.1562.61719 0 1.2461-.085938 1.875-.25391 3.7422-1.0312 5.9336-4.9023 4.9023-8.6445-4.1914-15.168 3.0391-43.977 7.1523-57.047 6.7305-2.6523 12.945-5.5586 18.516-8.8047l19.266 19.266c1.3672 1.3672 3.168 2.0625 4.9688 2.0625 1.8008 0 3.6016-.68359 4.9688-2.0625 2.7461-2.7461 2.7461-7.1992 0-9.9453l-17.324-17.316c5.8789-4.6602 10.867-9.7695 14.867-15.355 5.1953-7.2461 7.9883-14.258 9.4414-20.223l24.309 24.629.46094 33.844c.046875 3.8516 3.1875 6.9375 7.0312 6.9375h.09375c3.8828-.054687 6.9844-3.2422 6.9375-7.125l-.25391-19.199 2.1016 2.1367c.62109.61328 1.3516 1.1172 2.168 1.4727z"/>
</svg>
