<svg xmlns="http://www.w3.org/2000/svg" fill="none" viewBox="0 0 256 256">
  <style>
    @media (prefers-color-scheme: dark) {
      #text {
        fill: #e7e7e7
      }

      #bg {
        fill: #750629
      }
    }
  </style>
  <rect id="bg" width="256" height="256" rx="16" fill="#fff" />
  <g transform="translate(6, 1)">
    <path id="text" fill="#aa1344" stroke-width="1.04"
      d="m 121.71307,32.010275 c 23.4863,-0.154909 49.60712,5.300752 64.71182,24.463197 15.00629,20.540073 15.23685,50.296418 1.7664,71.685148 -14.24488,21.45287 -41.78294,28.5439 -66.52016,28.26034 -9.08438,0 -18.16879,0 -27.25317,0 0,22.52701 0,45.05403 0,67.58104 -12.139319,0 -24.278637,0 -36.417957,0 0,-64 0,-127.999995 0,-191.999996 21.237691,0.0034 42.475387,0.0069 63.713067,0.01027 z m 0,96.534065 c 14.94039,0.45581 32.18484,-5.58283 37.27781,-20.66459 6.09101,-15.909073 1.56622,-38.08954 -16.0903,-44.658979 -13.4473,-5.412095 -28.23451,-3.0902 -42.37972,-3.602921 -2.644758,0.331879 -7.42654,-1.42937 -6.060956,2.830499 0,22.025154 0,44.050301 0,66.075451 9.077346,0.0137 18.210786,-0.0274 27.253166,0.0205 z" />
  </g>
</svg>