<?xml version="1.0" encoding="utf-8"?>
<!-- Uploaded to: SVG Repo, www.svgrepo.com, Generator: SVG Repo Mixer Tools -->
<svg fill="#000000" version="1.1" id="Layer_1" xmlns="http://www.w3.org/2000/svg" xmlns:xlink="http://www.w3.org/1999/xlink" 
	 width="800px" height="800px" viewBox="0 0 209 256" enable-background="new 0 0 209 256" xml:space="preserve">
<path d="M120.523,2l-1.877,23.625H96.625v78.681h-2.458c-14.746,0-28.129,8.628-34.214,22.06L2.125,254h78.75l5.07-16.892
	C122.588,225.945,132.216,191,132.216,191h51.034v-18.12l10.529,0.837L206.875,8.861L120.523,2z M175.375,166.606
	c-7.757,2.097-13.697,8.53-15.077,16.519h-44.767c-2.957,15.124-14.146,28.884-29.224,35.043c-0.487,0.199-0.992,0.293-1.488,0.293
	c-1.552,0-3.023-0.924-3.647-2.449c-0.822-2.013,0.143-4.311,2.156-5.134c14.782-6.038,25.106-20.689,25.106-35.628
	c0-0.007,0.002-3.938,0.002-3.938h40.032c5.948,0,11.048-4.654,11.154-10.601c0.108-6.056-4.765-10.996-10.797-11.006l-70.906-0.049
	c-2.174,0-3.938-1.763-3.938-3.938s1.763-3.938,3.938-3.938h26.58V49.236c7.999-1.632,14.288-7.837,16.1-15.736h38.987
	c1.791,7.83,7.972,13.941,15.789,15.668V166.606z M187.86,148.775c-1.608,0.301-3.149,0.796-4.61,1.446V25.625h-53.998
	c6.856-1.808,12.395-7.039,14.546-13.876l38.864,3.088c1.166,7.947,6.842,14.528,14.498,16.868L187.86,148.775z M167.696,107.404
	c0.028-15.077-12.011-27.764-27.692-27.793c-15.077-0.028-27.766,12.614-27.793,27.692c-0.028,15.077,12.011,27.764,27.692,27.793
	C154.98,135.124,167.668,122.482,167.696,107.404z M123.666,109.737l-4.825-0.009l0.01-5.428l4.222,0.008
	c0.004-2.413,1.216-5.426,1.823-7.837l6.028,1.821c-0.605,1.205-1.213,3.616-1.22,7.235c-0.005,3.015,1.197,4.827,3.007,4.831
	s3.019-1.804,4.836-6.022c2.423-6.027,4.841-9.038,9.666-9.028c4.221,0.611,7.832,4.236,9.031,9.063l4.825,0.009l-0.01,5.428
	l-4.222-0.008c-0.005,2.413-1.22,7.235-1.826,9.043l-6.028-1.821c1.21-1.807,2.422-5.423,2.428-8.439
	c0.006-3.619-1.196-5.43-3.609-5.434c-1.809-0.004-3.018,1.201-4.835,5.419c-1.819,5.424-4.842,9.641-9.667,9.632
	C128.475,118.189,124.861,115.166,123.666,109.737z"/>
</svg>