<?xml version="1.0" encoding="utf-8"?>
<!-- Uploaded to: SVG Repo, www.svgrepo.com, Generator: SVG Repo Mixer Tools -->
<svg width="800px" height="800px" viewBox="0 0 1024 1024" fill="#000000" class="icon"  version="1.1" xmlns="http://www.w3.org/2000/svg"><path d="M513.544 65.232c-2.296-1.592-6.008-1.744-8.296-0.144l-112.912 79.592c-2.288 1.608-3.504 0.56-3.504-2.232v-55.128c0-2.792-3.544-4.272-6.344-4.272h-73.352c-2.792 0-3.928 1.48-3.928 4.272v113.696c0 2.792-2.416 6.36-4.712 7.96L23.536 403.768c-2.288 1.608-2.16 3.56 0.632 3.56h123.096c2.792 0 4.992 0.952 4.992 3.744v543.816a5.2 5.2 0 0 0 5.128 5.152h703.168c2.792 0 5.536-2.352 5.536-5.152V411.072c0-2.792 1.784-3.744 4.584-3.744h129c2.8 0 3.2-1.952 0.904-3.544L513.544 65.232z m189.312 316.512a38.256 38.256 0 1 1 0 76.512 38.256 38.256 0 0 1 0-76.512zM522.08 607.928a27.8 27.8 0 1 1 0 55.6 27.8 27.8 0 0 1 0-55.6zM336.952 381.672a38.256 38.256 0 1 1 0 76.512 38.256 38.256 0 0 1 0-76.512z m449.864 294.832a19.936 19.936 0 0 1-19.936-19.92l-0.024-121.744a2.08 2.08 0 0 0-2.072-2.072h-4.224a2.08 2.08 0 0 0-2.072 2.072v341.576a25.712 25.712 0 0 1-51.424 0V675.432c0-1.464-0.68-2.08-2.128-2.08h-4.144c-1.448 0-2.128 0.608-2.128 2.08v200.984a25.712 25.712 0 0 1-51.424 0V534.84a2.08 2.08 0 0 0-2.072-2.072h-4.224a2.08 2.08 0 0 0-2.072 2.072l-16.36 98.936c-0.592 2.24-1.36 3.688-2.28 5.336-4.368 7.8-45.264 87.64-45.264 87.64-0.56 1-1.008 3.888-1.008 3.888s-0.08 147.88-0.2 149.024c-1.304 11.68-11.88 22.472-24.76 22.472-13.632 0-23.536-11.36-23.736-23.8l-0.024-63.024a2.08 2.08 0 0 0-2.072-2.072h-3.112a2.08 2.08 0 0 0-2.072 2.072l-0.008 62.696c-0.2 12.44-12.488 24.128-26.12 24.128s-24.464-11.752-24.664-24.192V728.2c0-1.144-0.464-2.88-1.04-3.872l-45.064-84.6a30.128 30.128 0 0 1-3.2-8.248c-0.08-0.216-30.032-97.776-30.032-97.776-0.176-0.408-1.064-2.12-3.144-2.12h-4.208c-1.184-0.016-1.88 0.992-1.568 2.128l59.64 195.176c0.32 1.136 0 3.128-2.08 3.128h-41.84c-1.184 0-2.048 0.96-2.048 2.144l0.008 142.248a25.712 25.712 0 0 1-51.424 0l-0.008-142.248a2.144 2.144 0 0 0-2.144-2.144h-4.176a2.144 2.144 0 0 0-2.144 2.144l-0.008 142.248a25.712 25.712 0 0 1-51.424 0l0.008-142.248c0-1.184-0.864-2.144-2.048-2.144h-41.84c-2.08 0-2.4-1.992-2.08-3.128l59.64-195.176c0.312-1.136-0.376-2.152-1.568-2.128h-0.008-4.2a3.448 3.448 0 0 0-3.144 2.12l-29.8 97.136a19.944 19.944 0 0 1-38.12-11.696L248 521.584c4.56-15.832 15.648-51.88 46.984-51.88h84.048c33.624 0 42.32 36.048 46.872 51.88 0 0 30.184 98.696 30.304 99.272 4.944 8.664 25.92 52.032 25.92 52.032a3.96 3.96 0 0 0 3.104 1.8h69.848c2.448 0 3.76-0.784 4.92-2.784l24.368-50.544c3.512-24.488 14.608-101.936 14.608-103.312 0-27.288 20.984-48.272 47.224-48.272h113.336c26.232 0 47.224 20.984 47.232 48.272l0.008 138.52a19.976 19.976 0 0 1-19.96 19.936z" /></svg>