<?xml version="1.0" encoding="iso-8859-1"?>
<!-- Uploaded to: SVG Repo, www.svgrepo.com, Generator: SVG Repo Mixer Tools -->
<!DOCTYPE svg PUBLIC "-//W3C//DTD SVG 1.1//EN" "http://www.w3.org/Graphics/SVG/1.1/DTD/svg11.dtd">
<svg fill="#000000" height="800px" width="800px" version="1.1" id="Capa_1" xmlns="http://www.w3.org/2000/svg" xmlns:xlink="http://www.w3.org/1999/xlink" 
	 viewBox="0 0 432.336 432.336" xml:space="preserve">
<path id="XMLID_5_" d="M93.331,248.276c-1.476,1.183-3.244,1.758-4.999,1.758c-2.344,0-4.667-1.024-6.247-2.996l-1.099-1.371
	c-1.182-1.475-1.757-3.239-1.758-4.993c-0.001-2.346,1.024-4.671,2.997-6.253c3.447-2.761,8.482-2.209,11.246,1.238l1.099,1.371
	c1.182,1.475,1.757,3.239,1.759,4.993C96.329,244.369,95.303,246.694,93.331,248.276z M116.076,289.455
	c1.58,1.975,3.905,3.002,6.251,3.002c1.753,0,3.519-0.573,4.994-1.754c1.974-1.579,3.001-3.904,3.002-6.25
	c0-1.753-0.573-3.519-1.754-4.994l-1.097-1.371c-2.761-3.45-7.796-4.009-11.245-1.248c-1.974,1.579-3.001,3.904-3.002,6.25
	c0,1.753,0.573,3.519,1.754,4.994L116.076,289.455z M112.882,252.141c1.757,0,3.527-0.576,5.004-1.762
	c1.972-1.583,2.995-3.909,2.992-6.255c-0.003-1.754-0.579-3.519-1.763-4.992l-1.1-1.37c-2.766-3.445-7.802-3.995-11.247-1.229
	c-1.965,1.578-2.988,3.894-2.992,6.231c-0.002,1.761,0.574,3.535,1.762,5.016l1.1,1.37
	C108.219,251.118,110.54,252.141,112.882,252.141z M92.606,273.903c1.58,1.97,3.902,2.994,6.245,2.994
	c1.756,0,3.524-0.575,5.001-1.76c1.972-1.582,2.997-3.908,2.995-6.254c-0.002-1.753-0.578-3.519-1.76-4.992l-1.099-1.37
	c-2.765-3.445-7.8-3.998-11.246-1.234c-1.972,1.582-2.997,3.908-2.995,6.254c0.002,1.753,0.578,3.519,1.76,4.992L92.606,273.903z
	 M6.904,189.391c-10.859-13.552-8.669-33.412,4.882-44.272c6.705-5.374,15.07-7.653,23.202-6.74
	c0.881-8.132,4.927-15.802,11.631-21.176c13.552-10.86,33.413-8.672,44.273,4.881c9.132,11.396,9.036,27.252,0.718,38.467
	l14.114,17.611l6.343-5.083c1.747-1.399,4-2.003,6.21-1.666c3.117,0.476,6.278,1.163,9.397,2.045c4.252,1.2,6.725,5.621,5.524,9.873
	c-1.201,4.251-5.621,6.729-9.874,5.523c-1.362-0.384-2.73-0.723-4.096-1.011l-54.316,43.528c-0.096,8.868,1.733,18.219,5.351,27.258
	c1.642,4.102-0.353,8.758-4.455,10.399c-0.975,0.391-1.981,0.575-2.97,0.575c-3.174,0-6.178-1.902-7.43-5.029
	c-4.974-12.428-7.162-25.468-6.325-37.711c0.152-2.232,1.233-4.299,2.979-5.698l6.342-5.082L44.29,198.471
	C31.531,204.147,16.036,200.784,6.904,189.391z M41.171,181.785c1.476-1.183,3.243-1.757,4.998-1.757
	c2.344,0,4.667,1.025,6.248,2.997l18.474,23.052l22.349-17.91l-18.474-23.051c-1.327-1.655-1.941-3.771-1.709-5.88
	c0.232-2.108,1.293-4.039,2.949-5.365c6.667-5.344,7.745-15.115,2.401-21.782c-5.343-6.666-15.114-7.746-21.781-2.401
	c-5.235,4.195-7.177,11.232-4.831,17.511c1.209,3.235,0.205,6.882-2.491,9.042c-2.695,2.161-6.473,2.348-9.368,0.462
	c-5.617-3.654-12.908-3.294-18.144,0.901c-6.667,5.343-7.745,15.114-2.403,21.781C24.733,186.051,34.504,187.13,41.171,181.785z
	 M172.049,195.396v13.847c0,4.418,3.582,8,8,8s8-3.582,8-8v-13.847c0-4.418-3.582-8-8-8S172.049,190.978,172.049,195.396z
	 M261.874,200.988c-5.833-4.487-11.953-6.813-18.191-6.916c-0.088-0.003-0.176-0.003-0.262,0
	c-10.593,0.174-21.133,7.024-29.678,19.29c-12.894,18.507-21.496,49.931-12.989,74.18c1.155,3.293,4.246,5.354,7.549,5.354
	c0.878,0,1.772-0.146,2.648-0.453c4.169-1.462,6.364-6.027,4.901-10.197c-6.414-18.284,0.566-44.731,11.02-59.737
	c5.401-7.753,11.473-12.276,16.682-12.435c2.687,0.081,5.568,1.29,8.565,3.597c3.501,2.694,8.525,2.038,11.219-1.463
	C266.031,208.705,265.376,203.683,261.874,200.988z M317.833,284.803c4.441,0.094,8.083-3.39,8.188-7.808
	c0.559-23.419-7.272-49.901-26.028-56.272c-0.083-0.028-0.167-0.055-0.25-0.08c-8.379-2.541-18.031-0.796-27.905,5.051
	c-18.53,10.973-35.347,34.982-39.988,57.089c-0.907,4.324,1.862,8.565,6.186,9.473c0.554,0.116,1.107,0.173,1.651,0.173
	c3.705,0,7.03-2.589,7.822-6.358c3.741-17.821,17.705-37.858,32.481-46.609c5.763-3.413,11.076-4.67,14.98-3.544
	c9.069,3.218,15.534,20.665,15.056,40.698C309.921,281.031,313.416,284.697,317.833,284.803z M79.386,98.156
	c1.125,0.546,2.314,0.805,3.486,0.805c2.968,0,5.82-1.659,7.203-4.51c0.328-0.676,4.291-10.84,4.634-11.625
	c18.757-35.931,54.69-59.748,98.609-65.353c45.783-5.839,91.697,9.912,119.827,41.116c2.958,3.281,8.018,3.543,11.298,0.586
	c3.282-2.959,3.544-8.018,0.585-11.299c-16.06-17.815-37.276-31.448-61.354-39.425c-22.933-7.598-47.961-9.964-72.382-6.85
	C142.04,7.887,101.638,34.85,80.444,75.579c-0.403,0.775-4.561,11.412-4.809,11.985C73.779,91.52,75.443,96.243,79.386,98.156z
	 M245.65,167.456c3.039,3.208,2.901,8.271-0.307,11.31c-3.208,3.038-8.271,2.9-11.31-0.308c-2.856-3.015-6.49-5.038-10.508-5.849
	c-3.733-0.753-6.417-4.033-6.417-7.842v-10.361h-35.231v10.361c0,3.809-2.685,7.089-6.417,7.842
	c-9.25,1.866-15.962,10.058-15.962,19.477v90.376c0,4.418-3.582,8-8,8s-8-3.582-8-8v-90.376c0-14.737,9.094-27.808,22.38-33.225
	v-8.751c-3.809-3.271-6.227-8.12-6.227-13.522v-10.549c0-9.824,7.993-17.817,17.818-17.817h44.049
	c9.825,0,17.817,7.993,17.817,17.817v10.549c0,5.403-2.417,10.252-6.227,13.522v8.747
	C237.818,160.774,242.078,163.684,245.65,167.456z M223.336,126.039c0-0.985-0.832-1.817-1.817-1.817h-44.049
	c-0.986,0-1.818,0.832-1.818,1.817v10.549c0,0.745,0.477,1.403,1.135,1.68c0.023,0.009,0.046,0.019,0.069,0.027
	c0.193,0.072,0.4,0.111,0.614,0.111h44.049c0.209,0,0.412-0.037,0.601-0.106c0.032-0.013,0.063-0.025,0.095-0.037
	c0.651-0.279,1.122-0.935,1.122-1.675V126.039z M395.889,287.427c-0.412,17.946-12.053,41.004-31.938,63.26
	c-19.352,21.659-44.253,40.287-70.568,52.86v20.52c0,4.418-3.582,8-8,8H139.264c-4.418,0-8-3.582-8-8v-20.52
	c-26.315-12.573-51.217-31.201-70.568-52.86c-19.886-22.256-31.527-45.313-31.939-63.26c-0.071-3.123,1.681-6.002,4.488-7.373
	c2.808-1.37,6.156-0.981,8.574,0.996c3.474,2.842,16.398,10.032,61.255,15.423c30.408,3.654,69.207,5.667,109.25,5.667
	s78.842-2.013,109.249-5.667c44.856-5.391,57.78-12.581,61.254-15.422c2.418-1.977,5.767-2.366,8.574-0.997
	C394.208,281.425,395.96,284.304,395.889,287.427z M277.382,406.434H147.264v9.633h130.118V406.434z M376.775,301.675
	c-44.46,15.568-142.67,16.465-164.452,16.465c-21.782,0-119.992-0.896-164.453-16.465c2.59,7.022,6.727,14.653,12.167,22.48
	c0.14,0.152,0.275,0.311,0.406,0.477c1.163,1.477,3.644,3.953,7.199,3.953c3.164,0,6.171-1.997,8.25-5.479
	c2.265-3.794,7.175-5.031,10.97-2.769c3.793,2.265,5.033,7.177,2.768,10.97c-3.428,5.742-8.408,9.886-14.062,11.9
	c5.831,6.223,12.354,12.363,19.453,18.223c2.499-2.843,6.744-3.59,10.108-1.579c3.793,2.266,5.031,7.178,2.765,10.971
	c-0.063,0.106-0.127,0.212-0.192,0.317c10.286,7.294,21.477,13.885,33.288,19.295h142.666c11.083-5.077,21.62-11.192,31.375-17.954
	c-0.368-0.537-0.722-1.09-1.062-1.657c-2.267-3.793-1.03-8.705,2.763-10.972c3.792-2.267,8.705-1.029,10.971,2.763
	c0.051,0.087,0.104,0.172,0.157,0.257c7.821-6.319,14.975-12.992,21.307-19.76c-5.543-2.048-10.421-6.151-13.796-11.803
	c-2.265-3.793-1.026-8.705,2.767-10.97c3.794-2.266,8.706-1.026,10.97,2.767c2.08,3.482,5.086,5.48,8.249,5.48
	c2.613,0,4.634-1.342,5.929-2.559C369.38,317.546,373.979,309.255,376.775,301.675z M385.311,114.229
	c-3.804-2.248-8.71-0.986-10.957,2.818l-1.016,1.718c-0.755,1.278-1.114,2.681-1.114,4.064c0.001,2.736,1.406,5.4,3.932,6.894
	c1.277,0.755,2.679,1.113,4.062,1.113c2.737,0,5.402-1.404,6.895-3.931l1.016-1.719c0.755-1.278,1.114-2.681,1.114-4.064
	C389.241,118.386,387.837,115.722,385.311,114.229z M363.368,129.775c-3.809-2.238-8.712-0.965-10.951,2.844l-1.011,1.72
	c-0.748,1.272-1.104,2.666-1.104,4.043c-0.001,2.744,1.411,5.417,3.948,6.908c1.273,0.748,2.669,1.104,4.046,1.104
	c2.743,0,5.415-1.412,6.905-3.947l1.011-1.72c0.748-1.272,1.104-2.666,1.104-4.043C367.317,133.939,365.904,131.266,363.368,129.775
	z M366.38,103.069c-3.805-2.248-8.71-0.983-10.957,2.821l-1.014,1.718c-0.754,1.278-1.113,2.681-1.112,4.064
	c0.002,2.736,1.408,5.4,3.934,6.892c1.277,0.754,2.677,1.112,4.06,1.112c2.737,0,5.404-1.406,6.896-3.934l1.014-1.718
	c0.754-1.278,1.113-2.681,1.112-4.064C370.312,107.225,368.906,104.561,366.38,103.069z M431.938,134.185
	c-9.695,29.553-24.625,61.808-43.175,93.276c-7.909,13.415-16.314,26.413-24.982,38.635c-1.56,2.199-4.027,3.373-6.532,3.373
	c-1.601,0-3.216-0.479-4.621-1.476c-3.604-2.556-4.454-7.55-1.897-11.153c8.41-11.857,16.568-24.476,24.25-37.504
	c15.101-25.617,27.706-51.712,36.89-76.286c-2.189,0.809-4.451,1.749-6.776,2.813c-0.255,0.135-0.518,0.256-0.787,0.363
	c-22.152,10.339-49.991,31.832-77.657,60.467c-0.799,2.314-1.617,4.635-2.457,6.97c-1.496,4.157-6.075,6.318-10.236,4.819
	c-4.157-1.495-6.315-6.078-4.82-10.235c0.992-2.758,1.954-5.501,2.887-8.23c0.039-0.122,0.081-0.244,0.125-0.365
	c13.536-39.688,20.802-76.142,20.542-101.726c-0.022-0.307-0.026-0.615-0.013-0.922c-0.009-0.511-0.021-1.018-0.036-1.52
	c-15.835,19.663-31.467,42.416-45.781,66.694c-4.294,7.283-8.466,14.702-12.399,22.051c-2.085,3.896-6.934,5.363-10.829,3.277
	c-3.896-2.085-5.363-6.933-3.278-10.828c4.037-7.542,8.318-15.154,12.723-22.626c18.304-31.047,38.756-59.726,59.144-82.934
	c1.957-2.226,4.985-3.189,7.867-2.501c2.883,0.688,5.149,2.913,5.89,5.783c0.496,1.921,0.921,3.946,1.278,6.072
	c23.355-19.767,42.517-26.052,55.894-18.165c17.211,10.146,15.885,37.751,9.917,63.566c3.618-1.036,7.073-1.751,10.346-2.13
	c2.708-0.316,5.394,0.774,7.119,2.888S432.788,131.592,431.938,134.185z M395.027,76.091c-5.957-3.512-21.601,0.973-46.374,24.666
	c-0.198,20.394-4.349,45.842-12.092,74.036c20.555-18.622,40.502-32.876,58.088-41.592
	C404.287,99.318,401.885,80.135,395.027,76.091z M387.181,89.4c-3.808-2.243-8.711-0.975-10.954,2.831l-1.013,1.719
	c-0.753,1.279-1.111,2.682-1.109,4.065c0.004,2.736,1.413,5.399,3.94,6.889c1.275,0.751,2.673,1.108,4.053,1.108
	c2.74,0,5.409-1.408,6.9-3.939l1.013-1.719c0.753-1.279,1.111-2.682,1.109-4.065C391.117,93.553,389.709,90.89,387.181,89.4z
	 M142.707,337.562c2.265-3.793,1.026-8.705-2.767-10.97c-3.792-2.266-8.705-1.027-10.97,2.767c-2.08,3.482-5.086,5.479-8.25,5.479
	c-3.163,0-6.168-1.997-8.247-5.479c-2.265-3.793-7.174-5.032-10.97-2.769c-3.793,2.265-5.033,7.177-2.768,10.97
	c4.963,8.313,13.182,13.277,21.985,13.277C129.523,350.838,137.742,345.875,142.707,337.562z M202.847,337.563
	c2.266-3.793,1.027-8.705-2.766-10.971c-3.792-2.264-8.705-1.027-10.971,2.766c-2.081,3.482-5.087,5.48-8.25,5.48
	c-3.163,0-6.169-1.997-8.249-5.479c-2.265-3.793-7.176-5.032-10.97-2.767c-3.793,2.265-5.032,7.177-2.767,10.97
	c4.965,8.313,13.184,13.276,21.986,13.276C189.662,350.838,197.881,345.875,202.847,337.563z M301.139,350.838
	c8.803,0,17.023-4.963,21.987-13.276c2.265-3.793,1.026-8.705-2.767-10.97c-3.793-2.266-8.704-1.027-10.97,2.767
	c-2.08,3.482-5.086,5.479-8.25,5.479c-3.163,0-6.169-1.997-8.249-5.479c-2.266-3.794-7.177-5.032-10.97-2.767
	c-3.793,2.265-5.032,7.177-2.767,10.97C284.118,345.875,292.337,350.838,301.139,350.838z M167.64,359.85
	c-3.793-2.265-8.704-1.027-10.97,2.766c-2.081,3.482-5.088,5.48-8.251,5.48c-3.162,0-6.168-1.998-8.25-5.48
	c-2.266-3.793-7.178-5.032-10.97-2.766c-3.793,2.266-5.031,7.178-2.766,10.971c4.966,8.313,13.185,13.275,21.985,13.275
	c8.802,0,17.021-4.963,21.987-13.275C172.672,367.027,171.433,362.115,167.64,359.85z M202.681,362.616
	c-2.265-3.793-7.176-5.032-10.97-2.767c-3.793,2.265-5.032,7.177-2.767,10.97c4.965,8.313,13.184,13.276,21.986,13.276
	c8.804,0,17.023-4.963,21.987-13.276c2.265-3.794,1.026-8.705-2.767-10.971c-3.793-2.262-8.705-1.025-10.97,2.768
	c-2.079,3.482-5.086,5.479-8.25,5.479C207.767,368.096,204.76,366.099,202.681,362.616z M240.999,350.838
	c8.803,0,17.023-4.963,21.988-13.276c2.265-3.793,1.026-8.705-2.767-10.97c-3.793-2.266-8.704-1.027-10.97,2.767
	c-2.08,3.482-5.087,5.479-8.25,5.479c-3.163,0-6.169-1.997-8.249-5.479c-2.265-3.793-7.176-5.032-10.97-2.767
	c-3.793,2.265-5.032,7.177-2.767,10.97C223.978,345.875,232.196,350.838,240.999,350.838z M254.221,359.85
	c-3.793,2.265-5.032,7.177-2.767,10.97c4.965,8.313,13.184,13.276,21.986,13.276c8.802,0,17.021-4.963,21.987-13.275
	c2.266-3.793,1.027-8.705-2.766-10.971c-3.793-2.265-8.705-1.027-10.97,2.766c-2.081,3.482-5.088,5.48-8.251,5.48
	s-6.169-1.997-8.249-5.479C262.927,358.823,258.016,357.584,254.221,359.85z"/>
</svg>