<svg viewBox="0 0 36 40">
  <path
    d="M18 24C17.4333 24 16.958 23.808 16.574 23.424C16.19 23.04 15.9987 22.5653 16 22C16 21.4333 16.192 20.958 16.576 20.574C16.96 20.19 17.4347 19.9987 18 20C18.5667 20 19.042 20.192 19.426 20.576C19.81 20.96 20.0013 21.4347 20 22C20 22.5667 19.808 23.042 19.424 23.426C19.04 23.81 18.5653 24.0013 18 24ZM10 24C9.43334 24 8.958 23.808 8.574 23.424C8.19 23.04 7.99867 22.5653 8 22C8 21.4333 8.192 20.958 8.576 20.574C8.96 20.19 9.43467 19.9987 10 20C10.5667 20 11.042 20.192 11.426 20.576C11.81 20.96 12.0013 21.4347 12 22C12 22.5667 11.808 23.042 11.424 23.426C11.04 23.81 10.5653 24.0013 10 24ZM26 24C25.4333 24 24.958 23.808 24.574 23.424C24.19 23.04 23.9987 22.5653 24 22C24 21.4333 24.192 20.958 24.576 20.574C24.96 20.19 25.4347 19.9987 26 20C26.5667 20 27.042 20.192 27.426 20.576C27.81 20.96 28.0013 21.4347 28 22C28 22.5667 27.808 23.042 27.424 23.426C27.04 23.81 26.5653 24.0013 26 24ZM18 32C17.4333 32 16.958 31.808 16.574 31.424C16.19 31.04 15.9987 30.5653 16 30C16 29.4333 16.192 28.958 16.576 28.574C16.96 28.19 17.4347 27.9987 18 28C18.5667 28 19.042 28.192 19.426 28.576C19.81 28.96 20.0013 29.4347 20 30C20 30.5667 19.808 31.042 19.424 31.426C19.04 31.81 18.5653 32.0013 18 32ZM10 32C9.43334 32 8.958 31.808 8.574 31.424C8.19 31.04 7.99867 30.5653 8 30C8 29.4333 8.192 28.958 8.576 28.574C8.96 28.19 9.43467 27.9987 10 28C10.5667 28 11.042 28.192 11.426 28.576C11.81 28.96 12.0013 29.4347 12 30C12 30.5667 11.808 31.042 11.424 31.426C11.04 31.81 10.5653 32.0013 10 32ZM26 32C25.4333 32 24.958 31.808 24.574 31.424C24.19 31.04 23.9987 30.5653 24 30C24 29.4333 24.192 28.958 24.576 28.574C24.96 28.19 25.4347 27.9987 26 28C26.5667 28 27.042 28.192 27.426 28.576C27.81 28.96 28.0013 29.4347 28 30C28 30.5667 27.808 31.042 27.424 31.426C27.04 31.81 26.5653 32.0013 26 32ZM4 40C2.9 40 1.958 39.608 1.174 38.824C0.390003 38.04 -0.00132994 37.0987 3.39559e-06 36V8C3.39559e-06 6.9 0.392003 5.958 1.176 5.174C1.96 4.39 2.90134 3.99867 4 4H6V0H10V4H26V0H30V4H32C33.1 4 34.042 4.392 34.826 5.176C35.61 5.96 36.0013 6.90133 36 8V36C36 37.1 35.608 38.042 34.824 38.826C34.04 39.61 33.0987 40.0013 32 40H4ZM4 36H32V16H4V36Z" />
</svg>