<svg viewBox="0 0 32 40">
  <path
    d="M32 35.76V40L28.4 37.66L18.82 19.66C20.14 19.24 21.34 18.56 22.38 17.66L32 35.76ZM22 10C22 11.5913 21.3679 13.1174 20.2426 14.2426C19.1174 15.3679 17.5913 16 16 16H15.12L3.6 37.66L0 40V35.76L11.58 14C9.38 11.54 9.58 7.74 12.06 5.52C13.14 4.56 14.54 4 16 4V0C16.5304 0 17.0391 0.210714 17.4142 0.585786C17.7893 0.960859 18 1.46957 18 2V4.36C20.4 5.2 22 7.46 22 10ZM18 10C18 9.46957 17.7893 8.96086 17.4142 8.58579C17.0391 8.21071 16.5304 8 16 8C15.4696 8 14.9609 8.21071 14.5858 8.58579C14.2107 8.96086 14 9.46957 14 10C14 10.5304 14.2107 11.0391 14.5858 11.4142C14.9609 11.7893 15.4696 12 16 12C16.5304 12 17.0391 11.7893 17.4142 11.4142C17.7893 11.0391 18 10.5304 18 10Z" />
</svg>