<svg width="58" height="58" viewBox="0 0 58 58" fill="none" xmlns="http://www.w3.org/2000/svg">
<path d="M51.8343 5.56095C51.6104 5.31215 51.3391 5.11189 51.0368 4.97225C50.7345 4.83261 50.4075 4.75648 50.0754 4.74845C49.7433 4.74042 49.413 4.80066 49.1045 4.92554C48.796 5.05042 48.5156 5.23734 48.2802 5.47505L46.239 7.53783L49.715 11.053L51.7217 9.02869C52.1784 8.57721 52.4452 7.96414 52.4662 7.31779C52.4871 6.67144 52.2607 6.04191 51.8343 5.56095ZM28.2432 37.9777H19.6857V29.3016L20.7337 28.2414L36.1341 12.6592H5.41577V52.4455H44.6581V21.3014L29.2889 36.9153L28.2432 37.9777ZM44.6581 16.1812L48.3137 12.467L44.8476 8.95296L41.1854 12.6592H44.6581V16.1812Z" fill="#AA1344"/>
<path d="M23.2532 34.3608H26.7638L44.6581 16.1812V12.6592H41.1854L23.2532 30.8015V34.3608Z" fill="#AA1344"/>
</svg>
