<svg viewBox="0 0 36 40">
  <path
    d="M11.1 40C10.1667 40 9.35 39.7167 8.65 39.15C7.95 38.5833 7.48334 37.85 7.25 36.95L5 28H31L28.75 36.95C28.5167 37.85 28.05 38.5833 27.35 39.15C26.65 39.7167 25.8333 40 24.9 40H11.1ZM18 12C18 8.66667 19.1667 5.83333 21.5 3.5C23.8333 1.16667 26.6667 0 30 0C30 3 29.05 5.6 27.15 7.8C25.25 10 22.8667 11.3333 20 11.8V16H36V22C36 23.1 35.608 24.042 34.824 24.826C34.04 25.61 33.0987 26.0013 32 26H4C2.9 26 1.958 25.608 1.174 24.824C0.390003 24.04 -0.00132994 23.0987 3.39559e-06 22V16H16V11.8C13.1333 11.3333 10.75 10 8.85 7.8C6.95 5.6 6 3 6 0C9.33334 0 12.1667 1.16667 14.5 3.5C16.8333 5.83333 18 8.66667 18 12Z" />
</svg>