<svg width="44" height="42" viewBox="0 0 44 42" xmlns="http://www.w3.org/2000/svg">
  <path
    d="M0.233887 41.2258V36.4032H29.1694V41.2258H0.233887ZM31.5807 24.3468C28.245 24.3468 25.4013 23.1709 23.0495 20.819C20.6977 18.4672 19.5226 15.6243 19.5242 12.2903C19.5242 8.95469 20.7001 6.11098 23.0519 3.75916C25.4037 1.40735 28.2466 0.23225 31.5807 0.233858C34.9163 0.233858 37.76 1.40976 40.1118 3.76158C42.4636 6.11339 43.6387 8.9563 43.6371 12.2903C43.6371 15.6259 42.4612 18.4696 40.1094 20.8215C37.7576 23.1733 34.9147 24.3484 31.5807 24.3468ZM0.233887 21.9355V17.1129H15.425C15.7063 17.997 16.0278 18.841 16.3895 19.6447C16.7512 20.4485 17.1933 21.2121 17.7157 21.9355H0.233887ZM0.233887 31.5806V26.7581H22.9C23.8243 27.3207 24.809 27.7933 25.8538 28.1759C26.8987 28.5585 28.0039 28.8294 29.1694 28.9885V31.5806H0.233887ZM30.375 19.5242H32.7863V9.87902H30.375V19.5242ZM31.5807 7.46773C31.9022 7.46773 32.1835 7.34716 32.4246 7.10604C32.6657 6.86491 32.7863 6.58359 32.7863 6.26208C32.7863 5.94058 32.6657 5.65926 32.4246 5.41813C32.1835 5.177 31.9022 5.05644 31.5807 5.05644C31.2592 5.05644 30.9778 5.177 30.7367 5.41813C30.4956 5.65926 30.375 5.94058 30.375 6.26208C30.375 6.58359 30.4956 6.86491 30.7367 7.10604C30.9778 7.34716 31.2592 7.46773 31.5807 7.46773Z" />
</svg>