<svg width="48" height="30" viewBox="0 0 48 30" fill="none" xmlns="http://www.w3.org/2000/svg">
<path d="M7.2 13V27.5714C7.2 28.9147 8.2725 30 9.6 30H12C13.3275 30 14.4 28.9147 14.4 27.5714V20.8777C15.1425 21.3786 15.945 21.7884 16.8 22.0996V23.9286C16.8 24.5964 17.34 25.1429 18 25.1429C18.66 25.1429 19.2 24.5964 19.2 23.9286V22.646C19.5975 22.6915 19.995 22.7143 20.4 22.7143C20.805 22.7143 21.2025 22.6915 21.6 22.646V23.9286C21.6 24.5964 22.14 25.1429 22.8 25.1429C23.46 25.1429 24 24.5964 24 23.9286V22.092C24.855 21.7884 25.6575 21.3786 26.4 20.8701V27.5714C26.4 28.9147 27.4725 30 28.8 30H31.2C32.5275 30 33.6 28.9147 33.6 27.5714V15.4286L36 17.8571V21.6138C36 22.3348 36.21 23.033 36.6075 23.6326L39.75 28.4063C40.41 29.4005 41.5125 30 42.6975 30C44.385 30 45.84 28.7933 46.17 27.1161L47.6925 19.4054C47.8875 18.4188 47.67 17.3942 47.0925 16.5746L46.8 16.1571V9.96429C46.8 8.95492 45.9975 8.14286 45 8.14286C44.0025 8.14286 43.2 8.95492 43.2 9.96429V11.0571L39.2325 5.43349C37.2 2.56474 33.93 0.857147 30.4425 0.857147H10.8C5.8275 0.857147 1.8 4.93259 1.8 9.96429V14.0625C0.705 14.958 0 16.3241 0 17.8571V19.1929C0 19.8 0.48 20.2857 1.08 20.2857C3.465 20.2857 5.4 18.3277 5.4 15.9143V9.96429C5.4 8.12009 6.3075 6.4884 7.6875 5.4942C7.3725 6.31384 7.2 7.20938 7.2 8.14286V13ZM42 21.5C42 21.178 42.1264 20.8691 42.3515 20.6414C42.5765 20.4137 42.8817 20.2857 43.2 20.2857C43.5183 20.2857 43.8235 20.4137 44.0485 20.6414C44.2736 20.8691 44.4 21.178 44.4 21.5C44.4 21.8221 44.2736 22.1309 44.0485 22.3586C43.8235 22.5864 43.5183 22.7143 43.2 22.7143C42.8817 22.7143 42.5765 22.5864 42.3515 22.3586C42.1264 22.1309 42 21.8221 42 21.5ZM12.495 8.64375C12.18 8.32501 12 7.88483 12 7.42947C12 6.48081 12.7575 5.71429 13.695 5.71429H27.105C28.0425 5.71429 28.8 6.48081 28.8 7.42947C28.8 7.88483 28.62 8.32501 28.305 8.64375L26.55 10.4196C24.915 12.0741 22.7025 13 20.4 13C18.0975 13 15.885 12.0741 14.2575 10.4272L12.5025 8.65134L12.495 8.64375Z" fill="#AA1344"/>
</svg>
