<svg width="50" height="50" viewBox="0 0 50 50" xmlns="http://www.w3.org/2000/svg">
  <path
    d="M29.8871 32.1693C30.5703 32.1693 31.1635 31.9177 31.6666 31.4146C32.1698 30.9114 32.4206 30.3191 32.4189 29.6375C32.4189 28.9543 32.1674 28.3619 31.6642 27.8603C31.1611 27.3588 30.5687 27.1072 29.8871 27.1056C29.2039 27.1056 28.6107 27.3572 28.1076 27.8603C27.6044 28.3635 27.3536 28.9559 27.3552 29.6375C27.3552 30.3207 27.6068 30.9138 28.11 31.417C28.6131 31.9202 29.2055 32.1709 29.8871 32.1693ZM28.0786 24.4532H31.6956C31.6956 23.2877 31.8161 22.4333 32.0572 21.89C32.2984 21.3466 32.861 20.6337 33.7452 19.7512C34.9508 18.5455 35.7546 17.5714 36.1564 16.8287C36.5583 16.086 36.7593 15.2115 36.7593 14.2052C36.7593 12.3967 36.1259 10.9202 34.8592 9.77567C33.5924 8.63111 31.9351 8.05802 29.8871 8.05642C28.2394 8.05642 26.8022 8.51858 25.5757 9.44291C24.3492 10.3672 23.4956 11.593 23.0149 13.1201L26.2702 14.4463C26.6318 13.4416 27.1246 12.6877 27.7483 12.1845C28.372 11.6814 29.0849 11.4306 29.8871 11.4322C30.8516 11.4322 31.6353 11.7039 32.2381 12.2472C32.8409 12.7906 33.1423 13.5236 33.1423 14.4463C33.1423 15.009 32.9816 15.5419 32.6601 16.045C32.3386 16.5482 31.7759 17.1807 30.9722 17.9427C29.646 19.1082 28.8326 20.022 28.5319 20.6843C28.2313 21.3466 28.0802 22.6029 28.0786 24.4532ZM15.4193 39.4032C14.0931 39.4032 12.9574 38.9306 12.0122 37.9854C11.067 37.0401 10.5952 35.9052 10.5968 34.5806V5.64512C10.5968 4.31892 11.0694 3.1832 12.0146 2.23797C12.9598 1.29275 14.0947 0.820937 15.4193 0.822544H44.3548C45.681 0.822544 46.8168 1.29516 47.762 2.24038C48.7072 3.18561 49.179 4.32052 49.1774 5.64512V34.5806C49.1774 35.9068 48.7048 37.0425 47.7596 37.9878C46.8144 38.933 45.6794 39.4048 44.3548 39.4032H15.4193ZM5.77418 49.0484C4.44797 49.0484 3.31226 48.5757 2.36703 47.6305C1.4218 46.6853 0.949996 45.5504 0.951603 44.2258V10.4677H5.77418V44.2258H39.5322V49.0484H5.77418Z" />
</svg>