<svg width="40" height="40" viewBox="0 0 40 40" fill="none" xmlns="http://www.w3.org/2000/svg">
<path d="M40.0001 20.3115C39.6931 21.0198 39.1556 21.3115 38.3875 21.2559C37.8861 21.2198 37.3792 21.249 36.7389 21.249C37.1041 21.6046 37.393 21.874 37.6708 22.1546C38.25 22.7421 38.275 23.5019 37.7375 24.0227C37.218 24.5255 36.4736 24.4838 35.8972 23.9102C35.1027 23.1213 34.304 22.3351 33.5262 21.5296C33.3165 21.3129 33.0943 21.2698 32.8123 21.2351C32.072 21.1448 31.5317 21.274 31.3067 22.1074C31.2178 22.4379 30.9164 22.7129 30.6984 23.0338C30.9164 23.413 31.1275 23.8171 31.3803 24.1922C31.4609 24.3116 31.6456 24.3866 31.797 24.4283C32.9373 24.7436 34.0846 25.0297 35.2221 25.3547C35.9305 25.5575 36.2847 26.2353 36.0888 26.9131C35.9013 27.5603 35.2388 27.9201 34.5443 27.7492C34.279 27.6839 34.0165 27.6103 33.7526 27.5423C33.6054 27.5048 33.4568 27.4687 33.2304 27.4131C33.5818 28.0242 33.9096 28.5645 34.2054 29.1215C34.6374 29.9326 34.1707 30.8632 33.2735 30.9757C32.7304 31.0438 32.3095 30.8104 32.0304 30.341C31.7123 29.8076 31.4053 29.2673 31.0539 28.6604C30.9248 29.1312 30.8192 29.5271 30.7067 29.9187C30.49 30.6688 29.8511 31.0688 29.1719 30.8841C28.458 30.6896 28.0969 30.0354 28.2969 29.2618C28.5747 28.1923 28.8511 27.1228 29.1608 26.0617C29.2608 25.72 29.2053 25.4616 29.0497 25.1505C28.7511 24.5533 28.4441 24.106 27.6524 24.3505C27.3871 24.4324 27.0594 24.3408 26.7649 24.2949C26.5496 24.2602 26.451 24.338 26.3274 24.5074C25.826 25.188 25.6774 25.8658 25.994 26.7047C26.3274 27.5881 26.5121 28.5284 26.7343 29.4507C26.8552 29.9549 26.6593 30.3785 26.2482 30.6827C25.8343 30.9882 25.3523 31.0493 24.9343 30.7563C24.6676 30.5688 24.4509 30.2563 24.3148 29.9535C24.144 29.5729 24.0787 29.1451 23.9467 28.6618C23.5815 29.2882 23.2689 29.8548 22.9245 30.4021C22.6439 30.8493 22.2147 31.0479 21.6883 30.9674C21.1439 30.8841 20.7605 30.5563 20.6786 30.0215C20.6313 29.7132 20.7077 29.3465 20.8425 29.059C21.0953 28.5131 21.43 28.0034 21.7703 27.4103C21.2758 27.5367 20.8647 27.6492 20.4522 27.7464C19.7355 27.9173 19.0744 27.5381 18.9035 26.8672C18.7285 26.1853 19.1063 25.5339 19.8202 25.3352C20.9091 25.0325 22.0008 24.7338 23.0981 24.4658C23.4328 24.3838 23.6467 24.231 23.7953 23.9255C23.9481 23.6116 24.1384 23.3171 24.2634 23.1004C23.9384 22.4879 23.6551 21.9379 23.3523 21.3976C23.3092 21.3212 23.1787 21.2559 23.0842 21.2518C22.7078 21.2351 22.3286 21.2268 21.9522 21.2545C21.8175 21.2643 21.6647 21.3573 21.5633 21.4559C20.7091 22.2963 19.8758 23.156 19.0146 23.9894C18.2882 24.6922 17.1701 24.3755 16.9173 23.4143C16.7979 22.9588 16.9271 22.5643 17.2521 22.2338C17.5521 21.9282 17.8618 21.6337 18.2577 21.2462C17.7243 21.2462 17.3048 21.2462 16.8854 21.2462C16.6645 21.2462 16.4423 21.2532 16.2215 21.2434C15.5256 21.2129 14.9923 20.6531 15.0034 19.9726C15.0145 19.3059 15.5409 18.767 16.2256 18.7503C16.859 18.735 17.4937 18.7475 18.1868 18.6586C17.9007 18.385 17.609 18.1183 17.3298 17.8378C16.7618 17.2655 16.727 16.5169 17.2354 15.9974C17.7535 15.4682 18.5174 15.5002 19.1035 16.0835C19.898 16.8725 20.6952 17.6586 21.4744 18.4642C21.6842 18.6808 21.9064 18.7239 22.1883 18.7586C22.9287 18.8475 23.4662 18.7156 23.694 17.885C23.7842 17.5544 24.0842 17.2794 24.3023 16.9586C24.0842 16.5808 23.8731 16.1766 23.6203 15.8002C23.5398 15.6807 23.3564 15.603 23.2037 15.5613C22.0758 15.2516 20.9425 14.9641 19.8147 14.6543C19.2244 14.4918 18.8466 13.9876 18.8535 13.4265C18.8605 12.8654 19.2369 12.3751 19.8049 12.2376C19.998 12.1903 20.2202 12.1987 20.4175 12.239C20.8466 12.3265 21.2675 12.4501 21.7717 12.5806C21.4175 11.9626 21.0883 11.4223 20.7911 10.8653C20.3661 10.0681 20.8133 9.16941 21.6925 9.01662C22.1814 8.9319 22.6814 9.17496 22.9703 9.65554C23.2898 10.1875 23.5953 10.7278 23.9454 11.3306C24.0759 10.857 24.1815 10.4611 24.2926 10.0653C24.4981 9.34025 25.1329 8.9319 25.794 9.09579C26.5135 9.27497 26.9024 9.93193 26.7079 10.6945C26.4316 11.7778 26.1496 12.8598 25.8357 13.9321C25.7357 14.2751 25.7982 14.5307 25.951 14.8418C26.2482 15.446 26.5663 15.8835 27.351 15.6349C27.5927 15.5585 27.8941 15.6363 28.1608 15.6821C28.4094 15.7252 28.5344 15.6613 28.6955 15.446C29.2039 14.7668 29.2983 14.096 29.0011 13.2793C28.6775 12.3917 28.483 11.4556 28.2622 10.532C28.1288 9.97638 28.4386 9.42081 28.9511 9.18191C29.4803 8.93607 30.1053 9.07774 30.4553 9.5472C30.5678 9.69859 30.6442 9.88749 30.7011 10.0708C30.8206 10.4542 30.9178 10.8459 31.0484 11.325C31.1706 11.1209 31.2567 10.9764 31.3428 10.8306C31.5859 10.4153 31.8137 9.99027 32.072 9.5847C32.4415 9.00551 33.1707 8.83606 33.7499 9.17219C34.3152 9.50136 34.5374 10.2 34.2346 10.7986C33.9943 11.2736 33.7096 11.7264 33.4471 12.1903C33.386 12.2987 33.3304 12.4112 33.2415 12.582C33.7082 12.4598 34.1054 12.3542 34.5054 12.2515C35.2263 12.0667 35.8958 12.4181 36.0874 13.0779C36.2875 13.7668 35.9166 14.4432 35.1832 14.6502C34.0832 14.9627 32.9776 15.2557 31.8679 15.5349C31.5665 15.6113 31.3623 15.7391 31.2262 16.0266C31.0706 16.353 30.8692 16.6572 30.7359 16.8891C31.0595 17.4975 31.3442 18.0475 31.647 18.5878C31.6901 18.6656 31.8192 18.7336 31.9123 18.7364C32.2887 18.7531 32.6679 18.7614 33.0443 18.7336C33.179 18.7239 33.3332 18.6336 33.4346 18.535C34.261 17.7225 35.0749 16.8988 35.8972 16.0821C36.4833 15.4988 37.2458 15.4668 37.7653 15.9974C38.2736 16.5155 38.2375 17.2627 37.6708 17.8392C37.3972 18.1169 37.118 18.3878 36.7583 18.7447C37.3542 18.7447 37.8528 18.7767 38.3472 18.7378C39.1278 18.6767 39.6862 18.9517 39.9987 19.6823C40.0001 19.8948 40.0001 20.1031 40.0001 20.3115ZM29.3733 19.9892C29.3692 18.9684 28.5302 18.1294 27.5094 18.1253C26.4718 18.1211 25.6218 18.9711 25.626 20.0087C25.6301 21.0295 26.4691 21.8685 27.4899 21.8726C28.5275 21.8768 29.3789 21.0254 29.3733 19.9892Z" fill="#AA1344"/>
<path d="M8.12539 0C8.73374 0.213896 9.39071 0.341679 9.94073 0.656967C11.6311 1.62922 12.4964 3.13205 12.4978 5.09046C12.5047 12.2324 12.5019 19.3757 12.495 26.5176C12.495 26.7843 12.5686 26.9676 12.7561 27.1621C14.8784 29.358 15.5576 31.9539 14.5964 34.8457C13.6311 37.7499 11.5255 39.4278 8.49762 39.9292C8.42401 39.9417 8.35456 39.9764 8.28234 40C7.76149 40 7.24064 40 6.71979 40C6.64756 39.9764 6.57811 39.9417 6.5045 39.9292C3.353 39.3917 1.28071 37.6013 0.300117 34.5609C0.16539 34.1456 0.098721 33.7081 0.00149536 33.2817C0.00149536 32.7609 0.00149536 32.24 0.00149536 31.7192C0.0251073 31.6469 0.0612197 31.5761 0.0709422 31.5025C0.294561 29.8191 1.00847 28.376 2.22102 27.1912C2.43908 26.9787 2.50714 26.769 2.50714 26.4787C2.50019 19.3368 2.49603 12.1949 2.50575 5.05156C2.50853 3.15844 3.33772 1.682 4.96417 0.722247C5.54058 0.380569 6.23505 0.23473 6.87535 0C7.29203 0 7.70871 0 8.12539 0ZM10.0005 16.2214C10.0005 14.5033 10.0005 12.7852 10.0005 11.0671C10.0005 9.03643 10.0143 7.0058 9.9949 4.97517C9.97962 3.34039 8.4629 2.19035 6.87951 2.58065C5.74336 2.86121 5.00167 3.86541 5.00028 5.13629C4.99889 12.5032 4.99611 19.8715 5.00723 27.2384C5.00861 27.8385 4.80027 28.2718 4.33359 28.6454C3.22939 29.5274 2.63214 30.7011 2.51547 32.1025C2.31685 34.4665 3.84746 36.6513 6.13643 37.3096C8.39623 37.9597 10.831 36.911 11.9325 34.8123C13.0394 32.7025 12.5061 30.1135 10.6352 28.6135C10.1907 28.2565 9.99351 27.8399 9.9949 27.2704C10.006 23.5883 10.0005 19.9049 10.0005 16.2214Z" fill="#AA1344"/>
<path d="M8.75031 27.5162C8.75031 28.1024 8.76003 28.6871 8.74614 29.2732C8.74059 29.5177 8.79753 29.6594 9.03365 29.7899C10.3865 30.5455 10.9615 32.1428 10.4268 33.5845C9.90174 34.9998 8.43363 35.8429 6.97108 35.5721C5.42242 35.2846 4.33904 33.9859 4.38349 32.4234C4.41544 31.2692 4.95573 30.383 5.95021 29.8024C6.19189 29.6608 6.26133 29.5177 6.25856 29.2566C6.24606 28.0857 6.25161 26.9148 6.25439 25.744C6.25717 24.9425 6.76691 24.3828 7.49054 24.3759C8.22807 24.3689 8.74892 24.9384 8.75309 25.7592C8.7517 26.3454 8.75031 26.9301 8.75031 27.5162Z" fill="#AA1344"/>
</svg>
