<?xml version="1.0" encoding="UTF-8" standalone="no"?>
<!-- Created with Inkscape (http://www.inkscape.org/) -->

<svg
   xmlns:dc="http://purl.org/dc/elements/1.1/"
   xmlns:cc="http://creativecommons.org/ns#"
   xmlns:rdf="http://www.w3.org/1999/02/22-rdf-syntax-ns#"
   xmlns:svg="http://www.w3.org/2000/svg"
   xmlns="http://www.w3.org/2000/svg"
   xmlns:sodipodi="http://sodipodi.sourceforge.net/DTD/sodipodi-0.dtd"
   xmlns:inkscape="http://www.inkscape.org/namespaces/inkscape"
   width="128mm"
   height="128mm"
   viewBox="0 0 128 128"
   version="1.1"
   id="svg8"
   inkscape:version="0.92.4 (5da689c313, 2019-01-14)"
   sodipodi:docname="budget_tool.svg">
  <defs
     id="defs2" />
  <sodipodi:namedview
     id="base"
     pagecolor="#ffffff"
     bordercolor="#666666"
     borderopacity="1.0"
     inkscape:pageopacity="0.0"
     inkscape:pageshadow="2"
     inkscape:zoom="0.49497475"
     inkscape:cx="197.00792"
     inkscape:cy="391.89384"
     inkscape:document-units="mm"
     inkscape:current-layer="g3719"
     showgrid="false"
     fit-margin-top="0"
     fit-margin-left="0"
     fit-margin-right="0"
     fit-margin-bottom="0"
     inkscape:window-width="1920"
     inkscape:window-height="1009"
     inkscape:window-x="-8"
     inkscape:window-y="-8"
     inkscape:window-maximized="1" />
  <metadata
     id="metadata5">
    <rdf:RDF>
      <cc:Work
         rdf:about="">
        <dc:format>image/svg+xml</dc:format>
        <dc:type
           rdf:resource="http://purl.org/dc/dcmitype/StillImage" />
        <dc:title></dc:title>
      </cc:Work>
    </rdf:RDF>
  </metadata>
  <g
     inkscape:label="Layer 1"
     inkscape:groupmode="layer"
     id="layer1"
     transform="translate(-30.165615,-77.555292)">
    <g
       id="g3719"
       transform="matrix(1.5135521,0,0,1.5135521,30.165615,54.200083)">
      <path
         id="path3699"
         d="m -2.4598535e-7,34.651016 v 57.570532 c 0,4.296696 3.44235384598535,7.778451 7.68811574598535,7.778451 H 76.881157 c 4.245762,0 7.688116,-3.481755 7.688116,-7.778451 V 34.651016 Z M 21.142318,94.233912 H 5.7660866 V 78.857681 H 21.142318 Z m 0,-19.220289 H 5.7660866 V 59.637392 H 21.142318 Z m 0,-19.220289 H 5.7660866 V 40.417103 H 21.142318 Z M 40.362607,94.233912 H 24.986376 V 78.857681 h 15.376231 z m 0,-19.220289 H 24.986376 V 59.637392 h 15.376231 z m 0,-19.220289 H 24.986376 V 40.417103 h 15.376231 z m 19.22029,38.440578 H 44.206665 V 78.857681 h 15.376232 z m 0,-19.220289 H 44.206665 V 59.637392 h 15.376232 z m 0,-19.220289 H 44.206665 V 40.417103 H 59.582897 Z M 78.803186,94.233912 H 63.426954 V 78.857681 h 15.376232 z m 0,-19.220289 H 63.426954 V 59.637392 h 15.376232 z m 0,-19.220289 H 63.426954 V 40.417103 h 15.376232 z"
         inkscape:connector-curvature="0"
         style="stroke-width:0.96101445" />
      <path
         id="path3701"
         d="M 76.881157,15.430727 H 7.6881155 c -4.2457619,0 -7.68811574598535,3.481755 -7.68811574598535,7.77749 v 6.637727 0 0.961014 H 84.569273 v -0.961014 0 -6.637727 c 0,-4.295735 -3.442354,-7.77749 -7.688116,-7.77749 z"
         inkscape:connector-curvature="0"
         sodipodi:nodetypes="ccsccccccsc"
         style="stroke-width:0.96101445" />
    </g>
  </g>
</svg>
