<svg width="78" height="78" viewBox="0 0 78 78" fill="none" xmlns="http://www.w3.org/2000/svg">
  <g clip-path="url(#clip0_1409_2360)">
    <path
      d="M2.47584 37.7678C2.28047 38.649 1.83684 39.0376 1.10627 38.9685C0.404192 38.9013 0.0236451 38.3905 0.0236451 37.4992C0.0216101 35.0897 0.015505 32.6803 0.0236451 30.2708C0.0378902 27.1003 2.77702 24.3774 5.95978 24.3591C6.92437 24.353 7.88897 24.3815 8.85153 24.3449C9.15271 24.3326 9.65739 24.5911 9.73269 24.1251C9.80799 23.6631 9.93619 23.1442 9.31348 22.7514C7.43313 21.5671 6.15921 19.8617 5.39404 17.7738C4.8222 16.2129 4.86901 14.589 4.8975 12.9691C4.90564 12.5336 4.91989 12.1836 4.35008 12.0493C3.94918 11.9537 3.71719 11.5853 3.67242 11.1315C3.17181 6.04399 7.10752 0.944246 12.1482 0.156696C18.2329 -0.793655 23.4812 2.96908 24.283 9.10261C24.6046 11.569 24.6351 14.1311 24.1731 16.6077C23.6766 19.2634 22.1687 21.3391 19.8915 22.8023C19.2647 23.2052 19.5577 23.7323 19.5394 24.2146C19.5313 24.4242 19.8284 24.3489 19.9892 24.3489C22.5248 24.355 25.0624 24.3388 27.5981 24.3652C28.2554 24.3713 28.0234 23.9297 28.0234 23.6428C28.0336 16.3635 28.0315 9.08226 28.0315 1.80302C28.0336 0.286937 28.3205 0 29.8488 0C44.916 0 59.9832 0 75.0505 0C76.416 0 76.7457 0.331707 76.7457 1.6972C76.7457 11.8173 76.7457 21.9395 76.7416 32.0596C76.7416 32.5236 76.6785 32.955 77.3317 33.0344C77.6451 33.073 77.7306 33.4597 77.9646 33.6408V38.2074C77.5719 38.8158 77.0163 38.9827 76.298 38.9827C60.3455 38.9644 44.391 38.9705 28.4385 38.9685C27.1748 38.9685 26.8187 38.6123 26.8166 37.3506C26.8166 36.3107 26.8329 35.2708 26.8105 34.2309C26.7963 33.5899 27.0547 33.1035 27.6469 32.9407C28.3347 32.7515 27.9827 32.2611 28.0152 31.9131C28.0539 31.4776 27.651 31.677 27.4515 31.6709C26.6152 31.6465 25.7767 31.6953 24.9424 31.6485C24.4438 31.62 24.3665 31.8011 24.3726 32.2468C24.397 33.9969 24.3848 35.747 24.3827 37.4971C24.3827 38.3885 24.0002 38.8972 23.2981 38.9664C22.5655 39.0376 22.1198 38.6469 21.9306 37.7658C21.7087 37.4829 21.7352 37.1451 21.7352 36.8174C21.7311 34.8394 21.725 32.8634 21.7352 30.8854C21.7433 29.5056 22.2338 29.0254 23.6339 29.0152C25.4084 29.003 27.1829 29.0152 28.9575 29.0111C32.7975 29.001 35.6933 26.5142 36.2774 22.7352C36.3323 22.3811 36.3608 22.027 36.2306 21.6851C36.0841 21.3005 35.8256 21.0298 35.3983 21.0054C34.9363 20.981 34.6392 21.2435 34.4622 21.6505C34.338 21.9354 34.3482 22.2447 34.3055 22.5459C33.9473 25.1365 31.8553 26.9883 29.2403 27.0026C26.2244 27.0189 23.2065 27.0209 20.1886 26.9944C19.5089 26.9883 19.1344 27.2122 18.8679 27.8553C18.0091 29.9411 17.1035 32.0087 16.2142 34.0824C16.1552 34.2228 16.0982 34.3632 16.0331 34.5016C15.7523 35.0938 15.3351 35.5028 14.6371 35.4988C13.9411 35.4967 13.5076 35.0938 13.2451 34.4955C12.5614 32.9407 11.902 31.3758 11.2325 29.815C10.9313 29.117 10.6159 28.423 10.3371 27.7169C10.1458 27.2305 9.84055 26.9944 9.30534 27.0046C8.26545 27.0229 7.22555 26.9802 6.1877 27.0189C4.15472 27.0942 2.72004 28.5411 2.68341 30.5862C2.64678 32.6396 2.6773 34.6929 2.6712 36.7462C2.6712 37.0983 2.71393 37.4625 2.47584 37.7698V37.7678Z"
      fill="#010101" />
    <path
      d="M54.3704 77.9409C53.7619 77.5482 53.5483 76.9967 53.6012 76.2742C53.707 74.8131 53.416 73.3296 53.7599 71.8827C54.2829 69.6849 56.1999 68.2034 58.4486 68.1973C59.1323 68.1973 59.8181 68.179 60.5019 68.2054C60.8438 68.2176 60.9659 68.0976 60.917 67.772C60.913 67.7475 60.913 67.7211 60.917 67.6967C61.0717 66.4329 60.7542 65.5497 59.6045 64.6848C57.2215 62.892 56.0635 60.3258 56.0473 57.3038C56.0371 55.1996 56.0391 53.0954 56.0473 50.9912C56.0656 46.4532 59.8853 42.6416 64.4335 42.6253C66.4625 42.6172 68.4893 42.6212 70.5182 42.6253C71.4828 42.6253 71.8715 43.0323 71.8776 44.0173C71.8776 44.1699 71.8939 44.3225 71.8756 44.4731C71.7331 45.6534 71.9204 46.4755 73.237 47.0799C74.8243 47.8105 75.5244 49.3693 75.5284 51.1561C75.5345 53.1585 75.5345 55.161 75.5284 57.1634C75.5162 60.6392 74.0225 63.3458 71.1979 65.3157C70.7624 65.6189 70.6403 65.9221 70.6485 66.4166C70.6729 68.1973 70.6566 68.1973 72.3803 68.1973C75.4979 68.1973 76.7169 69.0622 77.9664 72.1554V77.1798C77.8707 77.5909 77.6164 77.8453 77.2053 77.9409H76.2916C75.6261 77.7618 75.3555 77.2938 75.329 76.6405C75.3005 75.6312 75.3209 74.6218 75.3148 73.6124C75.3046 71.6629 74.5109 70.8692 72.5471 70.8489C72.4454 70.8489 72.3457 70.8489 72.2439 70.853C68.1149 70.8855 63.9858 70.8591 59.8568 70.8672C59.5271 70.8672 59.1975 70.8631 58.8698 70.8672C57.134 70.8957 56.3057 71.7158 56.2813 73.4374C56.267 74.4753 56.2955 75.5152 56.267 76.553C56.2304 77.2205 56.0086 77.7578 55.2841 77.9389H54.3704V77.9409Z"
      fill="#010101" />
    <path
      d="M27.5755 77.9409C26.965 77.5481 26.7533 76.9966 26.8063 76.2742C26.9121 74.813 26.6211 73.3295 26.965 71.8806C27.488 69.6848 29.407 68.2033 31.6598 68.1993C32.3191 68.1993 32.9825 68.1565 33.6378 68.2115C34.2483 68.2623 34.0936 67.8696 34.1282 67.5399C34.1689 67.1411 34.0855 66.962 33.6134 66.9701C31.8388 67.0006 30.0623 66.9823 28.2877 66.9823C27.1949 66.9823 26.8164 66.614 26.8164 65.5497C26.8164 61.4654 26.8063 57.3832 26.8185 53.2989C26.8368 47.4442 31.6537 42.2447 37.4758 41.5284C43.5971 40.7754 49.631 44.8455 50.9395 51.1845C51.088 51.9029 51.1796 52.6294 51.1776 53.3701C51.1674 57.4279 51.1735 61.4857 51.1735 65.5436C51.1735 66.6079 50.793 66.9803 49.7042 66.9803C47.9806 66.9803 46.2549 67.0006 44.5312 66.9681C44.0225 66.9579 43.8413 67.0535 43.8434 67.6132C43.8434 68.1565 44.051 68.2013 44.5007 68.2115C45.4836 68.2318 46.4726 68.0792 47.4515 68.3295C49.69 68.9034 51.1694 70.7776 51.1735 73.0792C51.1755 74.1435 51.1348 75.2119 51.1877 76.2742C51.2223 76.9966 51.0209 77.5481 50.4124 77.9409H49.4987C48.8353 77.7618 48.5626 77.2958 48.5361 76.6425C48.5097 75.6352 48.528 74.6279 48.5239 73.6185C48.5137 71.6995 47.6835 70.8651 45.7624 70.8448C45.6362 70.8448 45.5101 70.8448 45.3839 70.8529C43.5422 70.6494 41.8145 71.1073 40.1295 71.7788C39.3541 72.0882 38.6032 72.1085 37.8442 71.7727C35.9455 70.9343 33.9573 70.7288 31.904 70.8427C30.3899 70.9262 29.5047 71.7646 29.4742 73.2786C29.4497 74.3918 29.4864 75.507 29.4579 76.6222C29.4314 77.2774 29.1689 77.7618 28.4912 77.9409H27.5775H27.5755Z"
      fill="#010101" />
    <path
      d="M0.78643 77.941C0.175926 77.5483 -0.0357152 76.9968 0.0171951 76.2723C0.123016 74.8091 -0.167991 73.3256 0.175926 71.8787C0.698924 69.685 2.61998 68.2035 4.87477 68.1994C5.45882 68.1994 6.0449 68.1648 6.62488 68.2096C7.15602 68.2503 7.31475 68.1322 7.36359 67.536C7.46534 66.3068 7.10718 65.5315 6.06118 64.7338C3.68632 62.9206 2.49584 60.385 2.46532 57.3609C2.447 55.6352 2.45921 53.9095 2.46328 52.1859C2.47549 47.3365 6.4397 43.0324 11.2505 42.6437C16.4052 42.2265 21.0959 45.7084 21.7633 50.6779C22.1561 53.6084 22.2273 56.6019 21.6514 59.5303C21.1671 62.0008 19.708 63.8974 17.6424 65.3097C17.2212 65.5966 17.0136 65.8775 17.0645 66.3944C17.1215 66.9682 16.8834 67.7497 17.1785 68.0773C17.5285 68.464 18.3221 68.1953 18.9204 68.1974C21.629 68.2116 23.4646 69.3919 24.1748 71.5836C24.4719 72.5014 24.3641 73.4416 24.3804 74.3757C24.3926 75.0106 24.3417 75.6475 24.3926 76.2784C24.4516 77.0008 24.2298 77.5523 23.6213 77.9471H22.7076C22.0421 77.768 21.7694 77.2979 21.745 76.6447C21.7165 75.6353 21.7369 74.626 21.7308 73.6186C21.7206 71.6691 20.9208 70.8673 18.9652 70.8531C18.8146 70.8531 18.662 70.8571 18.5114 70.8693C14.3559 70.8754 10.2004 70.8714 6.0449 70.8734C5.79256 70.8734 5.53818 70.8714 5.28584 70.8734C3.54998 70.9039 2.72173 71.722 2.69527 73.4436C2.68103 74.4815 2.70952 75.5214 2.68103 76.5592C2.6444 77.2267 2.42258 77.764 1.69812 77.9451H0.78643V77.941Z"
      fill="#010101" />
    <path
      d="M75.5032 76.7261C75.5032 77.3 75.9 77.6174 76.2887 77.9389H55.2812C55.672 77.6174 56.0627 77.2939 56.0668 76.724C56.3049 76.4819 56.6183 76.4819 56.9194 76.4819C62.2919 76.4839 67.6643 76.4473 73.0367 76.4961C73.8589 76.5592 74.7156 76.2682 75.5011 76.724L75.5032 76.7261Z"
      fill="white" />
    <path
      d="M48.7122 76.7219C48.7122 77.2958 49.1069 77.6173 49.4977 77.9389H28.4902C28.881 77.6153 29.2717 77.2938 29.2757 76.7219C29.5138 76.4798 29.8272 76.4818 30.1284 76.4818C35.5009 76.4838 40.8733 76.4472 46.2457 76.496C47.0679 76.5591 47.9226 76.2722 48.7101 76.7219H48.7122Z"
      fill="white" />
    <path
      d="M1.69922 77.9409C2.08994 77.6194 2.48066 77.2958 2.48473 76.726C2.72283 76.4838 3.03622 76.4838 3.3374 76.4838C8.70984 76.4859 14.0823 76.4492 19.4547 76.4981C20.2768 76.5612 21.1336 76.2702 21.9191 76.726C21.9191 77.2999 22.3159 77.6173 22.7046 77.9389H1.69922V77.9409Z"
      fill="white" />
    <path
      d="M77.2031 77.941C77.4575 77.6866 77.7098 77.4343 77.9642 77.1799C78.1006 77.823 77.8462 78.0774 77.2031 77.941Z"
      fill="#F0EFEF" />
    <path
      d="M2.47609 37.7677C2.46998 35.3095 2.43742 32.8491 2.46795 30.3908C2.49237 28.4535 4.0634 26.8682 5.99666 26.8011C7.23802 26.7583 8.48141 26.8153 9.72277 26.7787C10.1705 26.7644 10.2641 27.027 10.3964 27.3363C11.3894 29.6603 12.4008 31.9781 13.3797 34.3082C13.6259 34.8943 13.9312 35.3176 14.6312 35.3196C15.3292 35.3196 15.6406 34.9045 15.8889 34.3164C16.8575 32.0087 17.8689 29.7193 18.8335 27.4095C19.0248 26.9496 19.2466 26.7705 19.7696 26.7766C22.9381 26.8072 26.1067 26.795 29.2752 26.7909C31.8902 26.7868 34.0025 24.7538 34.1226 22.1327C34.1612 21.2658 34.6842 20.6777 35.3822 20.7103C36.1209 20.7449 36.591 21.3839 36.5483 22.2935C36.3672 26.0766 33.16 29.1678 29.3281 29.2227C27.3256 29.2512 25.3232 29.2248 23.3207 29.2309C22.35 29.2329 21.9512 29.6399 21.9471 30.6208C21.9389 33.0038 21.9349 35.3868 21.9288 37.7698C17.0692 37.7698 12.2096 37.7698 7.34994 37.7698C7.04672 37.491 7.10981 37.1165 7.10778 36.7706C7.09557 35.2484 7.11185 33.7262 7.09964 32.2061C7.0915 31.1967 6.7374 30.6981 6.07602 30.7246C5.45128 30.751 5.13585 31.2272 5.12974 32.2061C5.11753 33.7282 5.13381 35.2504 5.1216 36.7706C5.11957 37.1165 5.18265 37.491 4.87944 37.7698C4.07968 37.7698 3.27992 37.7698 2.47812 37.7698L2.47609 37.7677Z"
      fill="#FEC750" />
    <path
      d="M4.87695 37.7677C4.88306 35.8222 4.88713 33.8768 4.89527 31.9313C4.89934 30.9626 5.32466 30.4478 6.11221 30.4478C6.89976 30.4478 7.32507 30.9646 7.32914 31.9313C7.33728 33.8768 7.34135 35.8222 7.34746 37.7677C7.16024 38.6183 6.76952 39.0029 6.07354 38.9663C5.32669 38.9277 4.95835 38.484 4.87695 37.7677Z"
      fill="#010101" />
    <path
      d="M30.5691 23.9175C30.4043 23.659 30.4735 23.4291 30.4735 23.2134C30.4694 16.5446 30.4796 9.87387 30.4531 3.20513C30.4511 2.57021 30.6058 2.41962 31.2387 2.42165C45.3393 2.442 59.4399 2.442 73.5384 2.42165C74.1693 2.42165 74.326 2.57021 74.3239 3.20513C74.3016 12.8409 74.3016 22.4787 74.3239 32.1145C74.3239 32.7515 74.1652 32.898 73.5364 32.896C59.4358 32.8756 45.3352 32.8817 31.2366 32.8695C30.966 32.8695 30.4633 33.1503 30.4674 32.493C30.4674 31.9985 30.3575 31.6037 31.1491 31.4633C35.6831 30.6656 39.0633 26.4531 38.9941 21.8214C38.9656 19.8882 37.3233 18.2764 35.3738 18.2663C33.4059 18.2581 31.7413 19.821 31.6925 21.7522C31.6701 22.6619 31.373 23.3965 30.5691 23.9155V23.9175Z"
      fill="#7292C7" />
    <path
      d="M15.7016 21.7603C13.4509 22.2019 11.5095 21.506 9.82654 20.0611C8.02759 18.5145 7.28888 16.4815 7.32551 14.1311C7.34993 12.499 7.32958 12.4766 8.95556 12.5051C11.7272 12.5539 14.3483 11.9129 16.8982 10.873C17.7204 10.5372 18.5506 10.0814 19.5071 10.3704C19.6577 10.525 19.7126 10.7204 19.7086 10.928C19.6699 12.6964 19.8815 14.475 19.5539 16.2332C19.1693 18.3069 18.1436 20.0061 16.5034 21.335C16.2613 21.5324 15.9662 21.6138 15.7037 21.7624L15.7016 21.7603Z"
      fill="#845A45" />
    <path
      d="M8.96474 10.0488C8.05916 10.0488 7.30213 10.0447 6.54714 9.91449C6.23985 9.86158 6.10758 9.81681 6.16252 9.45865C6.6143 6.47939 8.16498 4.28565 10.9326 3.09516C13.6717 1.91689 16.303 2.29947 18.7531 4.00685C19.1703 4.29786 19.2171 4.53188 18.9648 4.97755C18.395 5.98285 18.2057 7.38701 17.3246 7.9853C16.0873 8.82372 14.5264 9.22259 13.0287 9.58685C11.6469 9.92263 10.2468 10.1099 8.96677 10.0488H8.96474Z"
      fill="#676E79" />
    <path
      d="M52.4666 35.3156C59.8984 35.3156 67.3283 35.3237 74.7601 35.2993C75.3849 35.2993 75.6108 35.4316 75.5457 36.0787C75.509 36.441 75.4215 36.5854 75.0634 36.5346C74.9636 36.5203 74.8599 36.5346 74.7601 36.5346C59.8476 36.5346 44.935 36.5346 30.0204 36.5305C29.6582 36.5305 29.2166 36.7116 29.2267 36.0014C29.2349 35.4255 29.3855 35.3013 29.9451 35.3034C37.4523 35.3237 44.9594 35.3176 52.4666 35.3176V35.3156Z"
      fill="#FED2A7" />
    <path
      d="M15.7031 21.7604C16.8794 20.7429 18.0454 19.7295 18.6926 18.248C19.1932 17.1043 19.5045 15.9321 19.5086 14.6826C19.5127 13.2439 19.5086 11.8072 19.5086 10.3684C20.9596 10.8304 21.9058 12.1613 21.9567 13.6509C22.0422 16.1763 21.3808 18.3945 19.4211 20.0937C18.3588 21.0156 17.15 21.6607 15.7072 21.7604H15.7031Z"
      fill="#573321" />
    <path
      d="M14.6384 30.9729C14.1581 29.8638 13.747 28.9094 13.3319 27.9549C13.281 27.8369 13.2383 27.727 13.3258 27.6029C13.7348 27.0168 15.5419 27.0168 15.9509 27.6029C16.0364 27.727 15.9937 27.8349 15.9428 27.9529C15.5277 28.9073 15.1186 29.8618 14.6404 30.9708L14.6384 30.9729Z"
      fill="#E5E7EA" />
    <path
      d="M21.708 8.70788C21.5452 8.62038 21.4435 8.56543 21.3417 8.50845C20.5291 8.04447 20.4056 7.40615 20.9713 6.59351C21.3051 7.24471 21.6266 7.89184 21.708 8.70788Z"
      fill="#EFB640" />
    <path
      d="M15.0977 24.3977C15.7957 24.2797 16.3797 24.18 16.9861 24.0762C17.1673 24.243 17.0553 24.4771 17.0716 24.6826C17.1164 25.2097 16.9149 25.3786 16.4224 25.1059C16.0154 24.88 15.6044 24.6663 15.0977 24.3957V24.3977Z"
      fill="#EEEEEF" />
    <path
      d="M14.1747 24.3958C13.8226 24.5871 13.5784 24.756 13.3098 24.8578C12.9984 24.9758 12.7013 25.3828 12.3879 25.1895C11.9829 24.9412 12.3004 24.463 12.1641 24.054C12.8621 24.172 13.4624 24.2737 14.1767 24.3958H14.1747Z"
      fill="#EEEEEF" />
    <path
      d="M70.3652 59.5425C68.9061 60.5885 67.2333 60.9406 65.4914 60.8734C62.7054 60.7656 60.4344 59.6036 58.7738 57.3182C58.552 57.013 58.4726 56.6996 58.4746 56.3313C58.4848 54.6076 58.4685 52.886 58.4828 51.1623C58.5133 47.7944 61.2016 45.1021 64.5675 45.0634C65.3774 45.0532 66.1873 45.0756 66.9993 45.0837C67.2171 45.3035 67.2171 45.5864 67.2232 45.8652C67.2333 46.2702 67.2252 46.6772 67.2272 47.0821C67.2354 49.0825 68.1003 50.3015 70.003 50.8408C70.6725 51.0301 70.8923 51.3841 70.8862 52.0353C70.8699 53.8872 70.8984 55.7391 70.8699 57.5889C70.8597 58.2727 70.7966 58.9605 70.3652 59.5445V59.5425Z"
      fill="#975455" />
    <path
      d="M73.0989 76.716C67.4213 76.718 61.7456 76.7221 56.0679 76.7241C56.0598 75.4583 56.0171 74.1925 56.0537 72.9288C56.0883 71.6956 57.1261 70.6476 58.3553 70.6435C63.0134 70.6272 67.6695 70.6496 72.3277 70.6577C72.9199 71.083 73.2292 71.6976 73.2801 72.3875C73.3716 73.6411 73.3228 74.9007 73.3025 76.1584C73.2984 76.3639 73.2414 76.5552 73.0989 76.7139V76.716Z"
      fill="#E6E8EB" />
    <path
      d="M70.3637 59.5424C70.909 56.9701 70.5509 54.3613 70.6628 51.7727C70.6832 51.325 70.5244 51.1988 70.0828 51.1134C68.1516 50.7308 66.8614 49.001 66.9937 47.2062C67.0446 46.502 66.9978 45.7918 66.9978 45.0836C67.6306 45.0755 68.2656 45.0897 68.8985 45.0531C69.3502 45.0267 69.4642 45.2261 69.4459 45.6372C69.4215 46.2192 69.4337 46.8032 69.4418 47.3852C69.454 48.242 69.8162 48.6327 70.6587 48.7141C72.183 48.8606 73.0865 49.8415 73.0926 51.38C73.0987 52.9774 73.0784 54.5749 73.1028 56.1724C73.1109 56.6832 72.999 57.1106 72.6673 57.5013C71.9957 58.2929 71.3364 59.0927 70.3657 59.5465L70.3637 59.5424Z"
      fill="#854848" />
    <path
      d="M73.0993 76.7159C73.0993 75.7371 73.0383 74.7562 73.1095 73.7835C73.1929 72.6398 72.9467 71.6121 72.3301 70.6597C74.3366 70.3483 75.7143 71.6853 75.5434 73.7041C75.4579 74.7053 75.5128 75.7208 75.5047 76.7281C74.7029 76.724 73.9011 76.722 73.0993 76.7179V76.7159Z"
      fill="#CCD1D9" />
    <path
      d="M66.853 64.3858C64.8424 64.9372 61.8326 63.879 60.4102 62.0312C61.5945 62.5827 62.6873 62.9816 63.8493 63.1831C65.2616 63.4252 66.6638 63.3174 68.0679 63.1688C68.0008 63.9136 67.3821 64.107 66.851 64.3858H66.853Z"
      fill="#E8C5BA" />
    <path
      d="M68.1684 66.6895C68.2729 67.6934 67.8489 68.1954 66.8965 68.1954C65.9584 68.1954 65.0202 68.1608 64.0841 68.2076C63.5102 68.2361 63.2396 68.0997 63.3413 67.4811C63.382 67.2369 63.3474 66.9805 63.3474 66.6915C64.1838 66.8238 64.9673 66.9866 65.7752 66.9845C66.5872 66.9825 67.3747 66.836 68.1664 66.6895H68.1684Z"
      fill="#F2F3F4" />
    <path
      d="M66.8516 64.3858C67.2321 63.9564 67.7877 63.7 68.0685 63.1688C69.0616 62.8412 70.0913 62.6255 71.1068 62.0068C70.3498 63.2299 68.3147 64.3268 66.8516 64.3858Z"
      fill="#D0AEA6" />
    <path
      d="M46.2979 64.518C40.7688 64.5262 35.2397 64.5323 29.7126 64.5506C29.3402 64.5506 29.2445 64.4244 29.2445 64.0703C29.2567 60.4175 29.155 56.7626 29.2791 53.1138C29.4725 47.4158 34.9609 43.0426 40.5409 44.0173C40.6894 44.0438 40.8299 44.1109 40.9723 44.1598C44.0879 45.7125 45.6203 48.3946 46.3264 51.6649C46.477 52.3609 46.5238 53.065 46.5198 53.7793C46.5096 56.9966 46.5197 60.214 46.5116 63.4313C46.5116 63.8038 46.5849 64.2006 46.2959 64.518H46.2979Z"
      fill="#F36E54" />
    <path
      d="M46.3051 76.6977C40.6294 76.7058 34.9517 76.7139 29.2761 76.7241C29.2679 75.4848 29.2333 74.2475 29.2598 73.0082C29.2883 71.6936 30.3323 70.7127 31.6408 70.6272C33.9118 70.4827 36.1178 70.7066 38.2078 71.6712C38.745 71.9194 39.2639 71.8787 39.8093 71.663C41.6001 70.9589 43.4174 70.3667 45.3893 70.6557C46.1606 71.0078 46.36 71.7465 46.4516 72.4567C46.6144 73.7265 46.535 75.0147 46.4903 76.2947C46.4841 76.4473 46.417 76.5857 46.3051 76.6956V76.6977Z"
      fill="#5578AE" />
    <path
      d="M46.2983 64.5179C46.2983 60.8407 46.3634 57.1634 46.282 53.4882C46.2006 49.8048 44.6601 46.8276 41.6137 44.6766C41.3919 44.5199 41.1009 44.4364 40.9727 44.1597C44.6418 44.9309 46.9922 47.1939 48.2478 50.6554C48.5938 51.6098 48.7342 52.6192 48.7342 53.6388C48.7342 57.0372 48.722 60.4377 48.7484 63.8362C48.7525 64.3918 48.6345 64.6136 48.0443 64.5546C47.4664 64.4955 46.8803 64.5261 46.2962 64.5179H46.2983Z"
      fill="#E95840" />
    <path
      d="M46.3044 76.6976C46.3044 75.615 46.2678 74.5303 46.3085 73.4477C46.3492 72.3895 46.046 71.4717 45.3887 70.6577C47.4583 70.5478 48.6793 71.3924 48.7261 73.0224C48.7607 74.2536 48.718 75.4888 48.7098 76.7221C47.908 76.7139 47.1062 76.7058 46.3044 76.6976Z"
      fill="#79B1FE" />
    <path
      d="M39.0704 66.9803C39.5262 66.9803 39.98 66.9803 40.4359 66.9803C41.3883 66.9803 41.7179 67.4321 41.4249 68.3438C41.4025 68.4109 41.3679 68.5127 41.3191 68.5249C40.4155 68.7711 39.5995 69.4182 38.5942 69.1822C38.0834 69.0621 37.6011 68.8179 37.0883 68.7019C36.6487 68.6022 36.5449 68.3845 36.551 67.9632C36.5653 66.9803 36.5429 66.9783 37.5563 66.9783C38.061 66.9783 38.5677 66.9783 39.0724 66.9783L39.0704 66.9803Z"
      fill="#EAC6BB" />
    <path
      d="M16.7818 59.5446C15.2454 60.6292 13.4953 60.9874 11.6719 60.8673C8.97958 60.6882 6.77159 59.5344 5.18428 57.3C5.05201 57.1148 4.89124 56.9377 4.89938 56.6935C4.97875 54.5751 4.64908 52.4342 5.2026 50.3382C6.02678 47.2185 9.30112 44.862 12.5266 45.0716C12.7749 45.0878 13.0211 45.1692 13.2674 45.2201C14.5413 45.6719 15.3003 46.6935 15.9637 47.77C16.8429 49.1925 17.2967 50.7594 17.2885 52.4485C17.2804 54.1152 17.3089 55.7839 17.2763 57.4505C17.2621 58.173 17.2723 58.9239 16.7818 59.5446Z"
      fill="#676E79" />
    <path
      d="M19.5129 76.7179C13.8373 76.7199 8.1596 76.722 2.48395 76.7261C2.47581 75.4603 2.43307 74.1945 2.4697 72.9308C2.5043 71.6975 3.54419 70.6495 4.77334 70.6454C9.3806 70.6292 13.9879 70.6515 18.5951 70.6597C19.3461 70.9914 19.5496 71.7036 19.6472 72.3894C19.8324 73.6878 19.7388 75.0024 19.6981 76.3129C19.694 76.4656 19.6147 76.6019 19.5129 76.72V76.7179Z"
      fill="#E6E8EB" />
    <path
      d="M16.782 59.5444C17.3091 57.1899 17.0079 54.8028 17.0649 52.43C17.1097 50.6331 16.5338 49.0031 15.557 47.5053C14.9546 46.5814 14.1264 45.8854 13.2676 45.22C15.7442 45.3034 18.5138 47.7068 19.2037 50.3604C19.7491 52.4565 19.4235 54.5892 19.4947 56.7056C19.4988 56.844 19.4235 57.0047 19.3401 57.1248C18.6502 58.1016 17.8769 58.995 16.782 59.5444Z"
      fill="#555D67" />
    <path
      d="M19.5135 76.7178C19.5135 75.6311 19.4769 74.5424 19.5176 73.4577C19.5583 72.3975 19.2591 71.4736 18.5957 70.6596C20.6714 70.5517 21.8945 71.3963 21.9352 73.0222C21.9657 74.2554 21.927 75.4927 21.9189 76.728C21.1171 76.7239 20.3153 76.7219 19.5135 76.7178Z"
      fill="#CCD1D9" />
    <path
      d="M13.269 64.3858C11.2584 64.9372 8.24865 63.879 6.82617 62.0312C8.01055 62.5827 9.10335 62.9816 10.2653 63.1831C11.6776 63.4252 13.0798 63.3174 14.4839 63.1688C14.4168 63.9136 13.7981 64.107 13.267 64.3858H13.269Z"
      fill="#E8C5BA" />
    <path
      d="M14.5867 66.667C14.6803 67.6872 14.2516 68.1973 13.3005 68.1973C12.3624 68.1973 11.4242 68.1566 10.4902 68.2116C9.88781 68.2462 9.6721 68.061 9.76164 67.4708C9.79827 67.2266 9.76774 66.9702 9.76774 66.6731C11.3896 67.0638 12.9627 67.0984 14.5887 66.669L14.5867 66.667Z"
      fill="#F3F3F5" />
    <path
      d="M13.2676 64.3858C13.6481 63.9564 14.2037 63.7 14.4845 63.1688C15.4776 62.8412 16.5073 62.6255 17.5228 62.0068C16.7658 63.2299 14.7308 64.3268 13.2676 64.3858Z"
      fill="#D0AEA6" />
    <path
      d="M51.7537 20.7021C51.0536 20.6859 49.8163 20.3806 48.6971 19.6806C48.3389 19.4567 48.1008 19.3773 47.7467 19.7498C46.8798 20.6614 46.2021 20.7754 45.614 20.2219C44.9995 19.6439 45.1114 18.9337 46.0353 18.0322C46.3507 17.7249 46.3609 17.5255 46.1431 17.151C44.7023 14.6704 44.6515 12.1388 46.1248 9.67848C47.649 7.13267 49.9873 5.96661 52.9421 6.10499C54.1163 6.15994 55.2274 6.53031 56.2164 7.17948C56.5359 7.38909 56.7293 7.38095 56.9633 7.08994C57.1383 6.87423 57.3418 6.67683 57.5636 6.50996C58.0988 6.10092 58.7887 6.14569 59.2079 6.62392C59.6495 7.12657 59.7655 7.80016 59.2568 8.19088C58.2942 8.93366 58.6422 9.55434 59.0431 10.4396C61.2328 15.2605 57.6593 20.7021 51.7516 20.7001L51.7537 20.7021Z"
      fill="#010101" />
    <path
      d="M52.3948 23.1382C55.5369 23.1382 58.6769 23.1382 61.8189 23.1382C62.7978 23.1382 63.3289 23.5533 63.3493 24.3205C63.3696 25.1203 62.8181 25.5721 61.8088 25.5721C55.5267 25.5721 49.2426 25.5721 42.9605 25.5721C41.9837 25.5721 41.4525 25.1549 41.4322 24.3856C41.4118 23.5818 41.9552 23.1382 42.9727 23.1382C46.1148 23.1382 49.2548 23.1382 52.3968 23.1382H52.3948Z"
      fill="#010101" />
    <path
      d="M52.39 26.7929C53.554 26.7929 54.716 26.7868 55.88 26.7929C56.7205 26.799 57.2394 27.2488 57.2598 27.9692C57.2822 28.7242 56.749 29.2207 55.88 29.2248C53.554 29.2309 51.226 29.2309 48.9 29.2248C48.029 29.2227 47.4978 28.7262 47.5202 27.9692C47.5406 27.2467 48.0575 26.799 48.9 26.7929C50.064 26.7848 51.226 26.7929 52.39 26.7929Z"
      fill="#010101" />
    <path
      d="M54.7455 9.16764C52.5334 11.3797 50.3478 13.5653 48.1724 15.7407C47.0796 13.9438 47.3685 11.5852 48.905 9.99996C50.4394 8.41876 52.7532 8.09316 54.7434 9.16764H54.7455Z"
      fill="#5BC2A8" />
    <path
      d="M50.0215 17.6213C52.2254 15.4173 54.409 13.2358 56.5864 11.0583C57.6914 12.7474 57.431 15.104 55.9352 16.7279C54.4415 18.3498 52.0463 18.7161 50.0215 17.6213Z"
      fill="#5BC2A8" />
  </g>
  <defs>
    <clipPath id="clip0_1409_2360">
      <rect width="78" height="77.9756" fill="white" />
    </clipPath>
  </defs>
</svg>