<svg xmlns="http://www.w3.org/2000/svg" width="78" height="78" fill="none"><g clip-path="url(#a)"><path fill="#010101" d="M2.476 37.768c-.196.881-.64 1.27-1.37 1.2C.404 38.901.024 38.39.024 37.5c-.002-2.41-.008-4.819 0-7.228.014-3.17 2.753-5.894 5.936-5.912.964-.006 1.929.022 2.892-.014.3-.012.805.246.88-.22.076-.462.204-.98-.419-1.374-1.88-1.184-3.154-2.89-3.919-4.977-.572-1.561-.525-3.185-.497-4.805.009-.435.023-.785-.547-.92-.4-.095-.633-.464-.678-.917C3.172 6.044 7.108.944 12.148.157c6.085-.95 11.333 2.812 12.135 8.946.322 2.466.352 5.028-.11 7.505-.496 2.655-2.004 4.731-4.281 6.194-.627.403-.334.93-.353 1.413-.008.21.29.134.45.134 2.536.006 5.073-.01 7.61.016.656.006.424-.435.424-.722.01-7.28.009-14.56.009-21.84C28.034.287 28.32 0 29.849 0H75.05c1.365 0 1.695.332 1.695 1.697 0 10.12 0 20.242-.004 30.363 0 .464-.064.895.59.974.313.039.399.426.633.607v4.566c-.393.609-.949.776-1.667.776-15.953-.019-31.907-.012-47.86-.014-1.263 0-1.62-.357-1.621-1.618 0-1.04.016-2.08-.006-3.12-.015-.641.244-1.128.836-1.29.688-.19.336-.68.368-1.028.039-.435-.364-.236-.564-.242-.836-.024-1.674.024-2.509-.023-.498-.028-.576.153-.57.599.025 1.75.013 3.5.01 5.25 0 .892-.382 1.4-1.084 1.47-.732.07-1.178-.32-1.367-1.201-.222-.283-.196-.62-.196-.949-.004-1.978-.01-3.954 0-5.932.008-1.38.499-1.86 1.899-1.87 1.774-.012 3.549 0 5.323-.004 3.84-.01 6.736-2.497 7.32-6.276.055-.354.084-.708-.046-1.05-.147-.384-.405-.655-.833-.68-.462-.024-.759.239-.936.646-.124.284-.114.594-.157.895-.358 2.59-2.45 4.442-5.065 4.457-3.016.016-6.034.018-9.051-.009-.68-.006-1.055.218-1.321.861-.859 2.086-1.764 4.154-2.654 6.227-.059.14-.116.281-.18.42-.282.592-.699 1-1.397.997-.696-.002-1.13-.405-1.392-1.004-.684-1.554-1.343-3.12-2.012-4.68-.302-.698-.617-1.392-.896-2.098-.191-.486-.496-.723-1.032-.712-1.04.018-2.08-.025-3.117.014-2.033.075-3.468 1.522-3.505 3.567-.036 2.054-.006 4.107-.012 6.16 0 .352.043.716-.195 1.024v-.002ZM54.37 77.94c-.608-.392-.822-.943-.769-1.666.106-1.46-.185-2.944.159-4.391.523-2.198 2.44-3.68 4.689-3.686.683 0 1.37-.018 2.053.008.342.013.464-.107.415-.433a.238.238 0 0 1 0-.075c.155-1.264-.163-2.147-1.313-3.012-2.383-1.793-3.54-4.36-3.557-7.381-.01-2.104-.008-4.209 0-6.313.019-4.538 3.838-8.35 8.386-8.366 2.03-.008 4.056-.004 6.085 0 .965 0 1.353.407 1.36 1.392 0 .153.016.305-.002.456-.143 1.18.044 2.002 1.361 2.607 1.587.73 2.287 2.29 2.291 4.076.006 2.002.006 4.005 0 6.007-.012 3.476-1.506 6.183-4.33 8.153-.436.303-.558.606-.55 1.1.025 1.781.009 1.781 1.732 1.781 3.118 0 4.337.865 5.586 3.958v5.025c-.095.41-.35.665-.76.76h-.914c-.666-.178-.936-.646-.963-1.3-.028-1.009-.008-2.018-.014-3.028-.01-1.95-.804-2.743-2.768-2.763-.102 0-.201 0-.303.004-4.13.032-8.258.006-12.387.014-.33 0-.66-.004-.987 0-1.736.029-2.564.849-2.589 2.57-.014 1.038.014 2.078-.014 3.116-.037.668-.258 1.205-.983 1.386h-.914v.002ZM27.576 77.94c-.611-.392-.823-.943-.77-1.666.106-1.461-.185-2.945.159-4.393.523-2.196 2.442-3.678 4.695-3.682.66 0 1.323-.043 1.978.013.61.05.456-.342.49-.672.04-.399-.042-.578-.515-.57-1.774.03-3.55.012-5.325.012-1.093 0-1.472-.368-1.472-1.432 0-4.085-.01-8.167.003-12.251.018-5.855 4.835-11.054 10.657-11.77 6.121-.754 12.155 3.316 13.464 9.655.148.719.24 1.445.238 2.186-.01 4.058-.005 8.116-.005 12.174 0 1.064-.38 1.436-1.469 1.436-1.723 0-3.45.02-5.173-.012-.508-.01-.69.085-.688.645 0 .543.208.588.658.599.983.02 1.972-.133 2.95.117 2.239.574 3.718 2.449 3.722 4.75.002 1.065-.038 2.133.015 3.195.034.723-.167 1.274-.776 1.667H49.5c-.664-.18-.936-.645-.963-1.299-.026-1.007-.008-2.014-.012-3.023-.01-1.92-.84-2.754-2.762-2.774-.126 0-.252 0-.378.008-1.842-.204-3.57.254-5.255.926-.775.31-1.526.33-2.285-.006-1.898-.839-3.887-1.044-5.94-.93-1.514.083-2.4.922-2.43 2.436-.024 1.113.012 2.228-.016 3.343-.027.655-.29 1.14-.967 1.319h-.915ZM.786 77.941c-.61-.393-.822-.944-.769-1.669.106-1.463-.185-2.946.159-4.393.523-2.194 2.444-3.675 4.699-3.68.584 0 1.17-.034 1.75.01.531.041.69-.077.739-.673.101-1.23-.257-2.005-1.303-2.802-2.375-1.813-3.565-4.349-3.596-7.373-.018-1.726-.006-3.451-.002-5.175.012-4.85 3.977-9.154 8.788-9.542 5.154-.417 9.845 3.064 10.512 8.034.393 2.93.464 5.924-.112 8.852-.484 2.47-1.943 4.367-4.009 5.78-.42.287-.628.567-.578 1.084.058.574-.18 1.356.114 1.683.35.387 1.144.118 1.742.12 2.709.015 4.545 1.195 5.255 3.387.297.917.19 1.858.205 2.792.013.635-.038 1.271.013 1.902.059.723-.163 1.274-.772 1.67h-.913c-.666-.18-.939-.65-.963-1.303-.029-1.01-.008-2.019-.014-3.026-.01-1.95-.81-2.752-2.766-2.766-.15 0-.303.004-.454.016-4.155.006-8.31.002-12.466.004-.252 0-.507-.002-.76 0-1.735.03-2.563.849-2.59 2.57-.014 1.038.015 2.078-.014 3.116-.037.668-.258 1.205-.983 1.386H.786v-.004Z"/><path fill="#fff" d="M75.503 76.726c0 .574.397.891.786 1.213H55.28c.391-.322.782-.645.786-1.215.238-.242.551-.242.852-.242 5.373.002 10.745-.035 16.118.014.822.063 1.679-.228 2.464.228l.002.002ZM48.712 76.722c0 .574.395.895.786 1.217H28.49c.391-.324.782-.645.786-1.217.238-.242.551-.24.852-.24 5.373.002 10.745-.035 16.118.014.822.063 1.677-.224 2.464.226h.002ZM1.7 77.94c.39-.32.78-.644.785-1.214.238-.242.551-.242.852-.242 5.373.002 10.745-.035 16.118.014.822.063 1.679-.228 2.464.228 0 .574.397.891.786 1.213H1.699v.002Z"/><path fill="#F0EFEF" d="m77.203 77.941.761-.761c.137.643-.118.897-.76.761Z"/><path fill="#FEC750" d="M2.476 37.768c-.006-2.459-.039-4.919-.008-7.377.024-1.938 1.595-3.523 3.529-3.59 1.241-.043 2.484.014 3.726-.022.447-.015.541.248.673.557.993 2.324 2.005 4.642 2.984 6.972.246.586.551 1.01 1.251 1.012.698 0 1.01-.416 1.258-1.004.969-2.307 1.98-4.597 2.945-6.907.19-.46.413-.639.936-.632 3.168.03 6.337.018 9.505.014 2.615-.004 4.727-2.037 4.848-4.658.038-.867.561-1.455 1.26-1.423.738.035 1.208.674 1.165 1.584-.18 3.783-3.388 6.874-7.22 6.929-2.002.028-4.005.002-6.007.008-.971.002-1.37.409-1.374 1.39-.008 2.383-.012 4.766-.018 7.149H7.349c-.302-.279-.24-.654-.241-1-.012-1.522.004-3.044-.008-4.564-.008-1.01-.363-1.508-1.024-1.481-.625.026-.94.502-.946 1.481-.012 1.522.004 3.044-.008 4.565-.002.346.06.72-.243.999h-2.4l-.003-.002Z"/><path fill="#010101" d="M4.877 37.768c.006-1.946.01-3.891.018-5.837.004-.968.43-1.483 1.217-1.483.788 0 1.213.517 1.217 1.483.008 1.946.012 3.891.018 5.837-.187.85-.577 1.235-1.273 1.198-.747-.038-1.116-.482-1.197-1.198Z"/><path fill="#7292C7" d="M30.57 23.918c-.166-.259-.096-.489-.096-.705-.005-6.668.006-13.34-.02-20.008-.003-.635.152-.785.785-.783 14.1.02 28.2.02 42.3 0 .63 0 .787.148.785.783-.022 9.636-.022 19.274 0 28.91 0 .636-.159.783-.788.781-14.1-.02-28.2-.014-42.3-.026-.27 0-.773.28-.769-.377 0-.495-.11-.89.682-1.03 4.534-.797 7.914-5.01 7.845-9.642-.028-1.933-1.67-3.545-3.62-3.555-1.968-.008-3.633 1.555-3.682 3.486-.022.91-.319 1.645-1.123 2.164v.002Z"/><path fill="#EAC6BB" d="M15.702 21.76c-2.251.442-4.193-.254-5.875-1.699-1.8-1.546-2.538-3.58-2.501-5.93.024-1.632.004-1.654 1.63-1.626 2.771.049 5.392-.592 7.942-1.632.822-.336 1.653-.792 2.61-.503.15.155.205.35.2.558-.038 1.768.174 3.547-.154 5.305-.385 2.074-1.41 3.773-3.05 5.102-.243.197-.538.279-.8.427l-.002-.002Z"/><path fill="#FFCE54" d="M8.965 10.049c-.906 0-1.663-.004-2.418-.135-.307-.052-.44-.097-.384-.455.451-2.98 2.002-5.173 4.77-6.364 2.739-1.178 5.37-.796 7.82.912.417.29.464.525.212.97-.57 1.006-.76 2.41-1.64 3.008-1.238.839-2.799 1.238-4.296 1.602-1.382.336-2.782.523-4.062.462h-.002Z"/><path fill="#FED2A7" d="M52.467 35.316c7.431 0 14.861.008 22.293-.017.625 0 .85.133.786.78-.037.362-.125.506-.483.456-.1-.015-.203 0-.303 0-14.912 0-29.825 0-44.74-.004-.362 0-.803.18-.793-.53.008-.575.159-.7.718-.698 7.507.02 15.014.015 22.522.015v-.002Z"/><path fill="#D3B1A9" d="M15.703 21.76c1.176-1.017 2.342-2.03 2.99-3.512.5-1.144.811-2.316.816-3.565.004-1.44 0-2.876 0-4.315 1.45.462 2.397 1.793 2.448 3.283.085 2.525-.576 4.744-2.536 6.443-1.062.922-2.271 1.567-3.714 1.666h-.004Z"/><path fill="#E5E7EA" d="M14.638 30.973c-.48-1.11-.891-2.064-1.306-3.018-.051-.118-.094-.228-.006-.352.409-.586 2.216-.586 2.625 0 .085.124.043.232-.008.35-.415.954-.824 1.909-1.303 3.018l-.002.002Z"/><path fill="#EFB640" d="M21.708 8.708a24.164 24.164 0 0 1-.366-.2c-.813-.464-.936-1.102-.37-1.914.333.65.655 1.298.736 2.114Z"/><path fill="#EEEEEF" d="M15.098 24.398c.698-.118 1.282-.218 1.888-.322.181.167.07.401.086.607.044.527-.157.696-.65.423-.407-.226-.818-.44-1.324-.71v.002ZM14.175 24.396c-.352.191-.597.36-.865.462-.312.118-.609.525-.922.331-.405-.248-.088-.726-.224-1.135l2.013.342h-.002Z"/><path fill="#975455" d="M70.365 59.542c-1.459 1.047-3.132 1.399-4.874 1.331-2.786-.107-5.057-1.27-6.717-3.555-.222-.305-.301-.618-.3-.987.01-1.723-.005-3.445.009-5.169a6.133 6.133 0 0 1 6.084-6.099c.81-.01 1.62.013 2.432.02.218.22.218.503.224.782.01.405.002.812.004 1.217.008 2 .873 3.22 2.776 3.759.67.19.89.543.883 1.194-.016 1.852.012 3.704-.016 5.554-.01.684-.073 1.372-.505 1.956v-.003Z"/><path fill="#E6E8EB" d="m73.099 76.716-17.031.008c-.008-1.266-.05-2.532-.014-3.795.034-1.233 1.072-2.281 2.301-2.285 4.658-.017 9.315.006 13.973.014.592.425.901 1.04.952 1.73.092 1.253.043 2.513.022 3.77a.826.826 0 0 1-.203.556v.002Z"/><path fill="#854848" d="M70.364 59.542c.545-2.572.187-5.18.299-7.77.02-.447-.139-.573-.58-.659-1.931-.382-3.222-2.112-3.09-3.907.052-.704.005-1.414.005-2.122.633-.009 1.268.006 1.9-.03.452-.027.566.172.548.583-.025.582-.012 1.166-.004 1.748.012.857.374 1.248 1.217 1.33 1.524.146 2.427 1.127 2.434 2.665.006 1.597-.015 3.195.01 4.792.008.511-.104.939-.436 1.33-.671.79-1.33 1.59-2.301 2.044l-.002-.004Z"/><path fill="#CCD1D9" d="M73.1 76.716c0-.979-.062-1.96.01-2.932.083-1.144-.163-2.172-.78-3.124 2.007-.312 3.384 1.025 3.213 3.044-.085 1.001-.03 2.017-.038 3.024l-2.406-.01v-.002Z"/><path fill="#E8C5BA" d="M66.853 64.386c-2.01.551-5.02-.507-6.443-2.355 1.184.552 2.277.95 3.44 1.152 1.412.242 2.814.134 4.218-.014-.067.745-.686.938-1.217 1.217h.002Z"/><path fill="#F2F3F4" d="M68.168 66.69c.105 1.003-.32 1.505-1.272 1.505-.938 0-1.876-.034-2.812.013-.574.028-.844-.108-.743-.727.041-.244.006-.5.006-.79.837.133 1.62.296 2.428.293.812-.001 1.6-.148 2.391-.294h.002Z"/><path fill="#D0AEA6" d="M66.852 64.386c.38-.43.936-.686 1.216-1.217.994-.328 2.023-.543 3.039-1.162-.757 1.223-2.792 2.32-4.255 2.379Z"/><path fill="#F36E54" d="M46.298 64.518c-5.53.008-11.058.014-16.585.033-.373 0-.469-.127-.469-.48.013-3.654-.089-7.308.035-10.957.194-5.698 5.682-10.071 11.262-9.097.148.027.289.094.431.143 3.116 1.553 4.648 4.235 5.354 7.505.151.696.198 1.4.194 2.114-.01 3.218 0 6.435-.008 9.652 0 .373.073.77-.216 1.087h.002Z"/><path fill="#5578AE" d="M46.305 76.698c-5.676.008-11.353.016-17.029.026-.008-1.24-.043-2.477-.016-3.716.028-1.314 1.072-2.295 2.38-2.38 2.272-.145 4.478.079 6.568 1.043.537.248 1.056.208 1.601-.008 1.791-.704 3.608-1.296 5.58-1.007.772.352.971 1.09 1.063 1.8.162 1.27.083 2.559.038 3.839a.592.592 0 0 1-.185.4v.003Z"/><path fill="#E95840" d="M46.298 64.518c0-3.677.065-7.355-.016-11.03-.081-3.683-1.622-6.66-4.668-8.811-.222-.157-.513-.24-.641-.517 3.669.77 6.02 3.034 7.275 6.495.346.955.486 1.964.486 2.984 0 3.398-.012 6.799.014 10.197.005.556-.113.778-.704.719-.578-.06-1.164-.029-1.748-.037h.002Z"/><path fill="#79B1FE" d="M46.304 76.698c0-1.083-.036-2.168.005-3.25.04-1.058-.263-1.976-.92-2.79 2.07-.11 3.29.734 3.337 2.364.035 1.232-.008 2.467-.016 3.7l-2.406-.024Z"/><path fill="#EAC6BB" d="M39.07 66.98h1.366c.952 0 1.282.452.989 1.364-.022.067-.057.169-.106.18-.904.247-1.72.894-2.725.658-.51-.12-.993-.364-1.506-.48-.44-.1-.543-.317-.537-.739.014-.983-.008-.985 1.005-.985h1.516l-.002.002Z"/><path fill="#676E79" d="M16.782 59.545c-1.537 1.084-3.287 1.442-5.11 1.322-2.692-.179-4.9-1.333-6.488-3.567-.132-.185-.293-.362-.285-.606.08-2.119-.25-4.26.304-6.356.824-3.12 4.098-5.476 7.324-5.266.248.016.494.097.74.148 1.274.452 2.033 1.474 2.697 2.55a8.68 8.68 0 0 1 1.324 4.678c-.008 1.667.02 3.336-.012 5.002-.014.723-.004 1.474-.494 2.095Z"/><path fill="#E6E8EB" d="M19.513 76.718c-5.676.002-11.353.004-17.03.008-.007-1.266-.05-2.531-.013-3.795.034-1.233 1.074-2.281 2.303-2.286 4.608-.016 9.215.007 13.822.015.751.331.955 1.044 1.052 1.73.185 1.298.092 2.612.051 3.923-.004.153-.083.289-.185.407v-.002Z"/><path fill="#555D67" d="M16.782 59.544c.527-2.354.226-4.741.283-7.114.045-1.797-.531-3.427-1.508-4.925-.602-.924-1.43-1.62-2.29-2.285 2.477.083 5.247 2.487 5.937 5.14.545 2.096.22 4.23.29 6.346.005.138-.07.299-.154.419-.69.977-1.463 1.87-2.558 2.42Z"/><path fill="#CCD1D9" d="M19.514 76.718c0-1.087-.037-2.176.004-3.26.04-1.06-.259-1.984-.922-2.798 2.075-.108 3.299.736 3.34 2.362.03 1.233-.009 2.47-.017 3.706l-2.405-.01Z"/><path fill="#E8C5BA" d="M13.269 64.386c-2.01.551-5.02-.507-6.443-2.355 1.185.552 2.277.95 3.44 1.152 1.412.242 2.814.134 4.218-.014-.067.745-.686.938-1.217 1.217h.002Z"/><path fill="#F3F3F5" d="M14.587 66.667c.093 1.02-.335 1.53-1.287 1.53-.938 0-1.876-.04-2.81.015-.602.034-.818-.151-.728-.741.036-.244.006-.5.006-.798 1.622.39 3.195.425 4.82-.004l-.001-.002Z"/><path fill="#D0AEA6" d="M13.268 64.386c.38-.43.936-.686 1.216-1.217.994-.328 2.023-.543 3.039-1.162-.757 1.223-2.792 2.32-4.255 2.379Z"/><path fill="#010101" d="M51.754 20.702c-.7-.016-1.938-.321-3.057-1.021-.358-.224-.596-.304-.95.069-.867.911-1.545 1.025-2.133.472-.614-.578-.503-1.288.421-2.19.316-.307.326-.506.108-.881-1.44-2.48-1.492-5.012-.018-7.473 1.524-2.545 3.862-3.711 6.817-3.573a6.477 6.477 0 0 1 3.274 1.074c.32.21.513.202.747-.09.175-.215.379-.412.6-.579.536-.41 1.226-.364 1.645.114.442.503.558 1.176.049 1.567-.963.743-.615 1.363-.214 2.249 2.19 4.82-1.384 10.262-7.291 10.26l.002.002ZM52.395 23.138h9.424c.979 0 1.51.415 1.53 1.182.02.8-.53 1.252-1.54 1.252H42.96c-.977 0-1.508-.417-1.529-1.186-.02-.804.523-1.248 1.54-1.248h9.425-.002ZM52.39 26.793c1.164 0 2.326-.006 3.49 0 .84.006 1.36.456 1.38 1.176.022.755-.511 1.252-1.38 1.256-2.326.006-4.654.006-6.98 0-.871-.002-1.402-.499-1.38-1.256.02-.722.537-1.17 1.38-1.176 1.164-.008 2.326 0 3.49 0Z"/><path fill="#5BC2A8" d="m54.745 9.168-6.573 6.573c-1.092-1.797-.803-4.156.733-5.741 1.534-1.581 3.848-1.907 5.838-.832h.002ZM50.022 17.621l6.564-6.563c1.105 1.69.845 4.046-.65 5.67-1.495 1.622-3.89 1.988-5.914.893Z"/></g><defs><clipPath id="a"><path fill="#fff" d="M0 0h78v77.976H0z"/></clipPath></defs></svg>