<svg xmlns="http://www.w3.org/2000/svg" width="91" height="64" fill="none"><g clip-path="url(#a)"><path fill="#231814" d="M9.463 4.064c.085-.698.296-1.376.571-2.032.149-.339.403-.55.678-.762.783-.571 1.672-.889 2.604-1.1.169-.043.36 0 .486-.17h2.075c.508.127.995.254 1.503.36 1.122.275 1.63 1.122 1.969 2.117-.085.106.042.36-.233.296-.233-.233-.318-.53-.466-.804-.296-.55-.677-.953-1.291-1.122C16.3.55 15.242.38 14.14.508c-1.164.148-2.244.508-3.196 1.185-.593.424-.699 1.08-.89 1.715-.042.148.043.212.191.17.17-.043.339-.149.508 0-.042.296-.275.338-.487.38-.254.043-.508.17-.804.106Z"/><path fill="#231814" d="M20.724 3.366c-.254.148-.529.169-.825.211-.17.148-.402.127-.614.127a35.545 35.545 0 0 0-9.568 1.122c-.127.043-.254.043-.381.043-.148-.043-.297-.106-.275-.297.275-.042.38-.233.402-.508.38-.296.931-.106 1.27-.487.042-.127.127-.19.254-.233 1.333-.38 2.688-.592 4.064-.72 1.186-.105 2.371-.147 3.557 0 .169.022.36 0 .508.149.148-.042.084-.233.211-.296.17.783.72.931 1.397.889Z"/><path fill="#F79C1A" d="M19.136 2.752c-1.185-.042-2.35-.127-3.535-.042-1.566.084-3.112.402-4.636.74-.17-.592.106-1.079.466-1.46A5.673 5.673 0 0 1 14.119.381c1.313-.148 2.604-.042 3.79.55.72.34.973 1.123 1.227 1.821Z"/><path fill="#F8C173" d="M14.119.38c-.466.36-1.059.488-1.546.805-.825.572-1.545 1.164-1.63 2.265a.858.858 0 0 1-.19.106h-.148c-.233.042-.53.296-.678.148-.19-.17.064-.487.106-.74.212-1.228 1.143-1.736 2.16-2.139.592-.232 1.248-.423 1.926-.444Z"/><path fill="#F8C273" d="M23.708 5.165c-.466-.508-1.122-.698-1.757-.804-1.948-.36-3.938-.254-5.906-.17-1.292.043-2.583.233-3.853.466-1.736.339-3.472.72-5.101 1.44a5.4 5.4 0 0 0-1.546 1.1c-.17-.38.043-.635.297-.846.656-.593 1.481-.89 2.286-1.186.38-.148.762-.275 1.164-.402 1.122-.254 2.223-.53 3.366-.72 2.413-.402 4.826-.529 7.26-.465.805.148 1.63.148 2.435.38.402.128.825.233 1.164.509.212.169.402.38.19.698Z"/><path fill="#231814" d="M16.003 7.134c-.868-.043-1.736-.233-2.604-.022-.021 0-.063-.063-.084-.084.889-.508 1.841-.424 2.815-.381.085 0 .17.02.17.127a.514.514 0 0 1-.297.36Z"/><path fill="#824910" d="M16.85 6.604c-.084.212-.063.487-.36.572-.042.021-.126-.085-.084-.127.212-.19.064-.572.36-.677.127-.064.106.127.085.232Z"/><path fill="#B4D3B3" d="M18.247 56.35c2.032.148 4.043.38 5.948 1.185.382.148.826.339.847.805.021.486-.402.677-.783.846-1.27.614-2.625.826-4 1.016-2.795.381-5.632.572-8.447.487-3.048-.106-6.096-.212-9.081-.974-.677-.169-1.334-.38-1.905-.804-.466-.339-.487-.677-.043-1.037.657-.55 1.461-.72 2.265-.932.868-.233 1.779-.317 2.646-.486.212.634.72 1.08 1.059 1.63.508.825 1.99 1.397 2.921 1.185a.462.462 0 0 0 .36-.318 1.151 1.151 0 0 0-.021-.952c-.212-.445-.318-.932-.445-1.418-.042-.17-.148-.381.085-.53 1.037-.084 2.074-.169 3.133-.169h.677c.48 0 .776-.219.89-.656.148-.19.232-.043.253.084.085.276.064.55 0 .826a24.285 24.285 0 0 1-.38 1.693c-.149.614-.064.762.55.868.465.085.91.17 1.354-.084.106-.064.233-.022.34 0 .825.232 1.693.232 2.54.338.253.043.486-.042.74-.084.275-.064.466-.17.487-.466.042-.275-.106-.466-.339-.614-.317-.17-.656-.317-.931-.55-.296-.233-.656-.445-.72-.89Z"/><path fill="#42373A" d="M9.59 56.138c.127.635.275 1.291.571 1.884.233.445.085.847-.106 1.27-.063.148-.211.148-.338.148-1.419 0-2.689-.275-3.345-1.735a.494.494 0 0 0-.212-.255c-.338-.232-.465-.571-.444-.973.339-1.016.402-2.075.593-3.112.084-.445-.064-.593-.487-.53-.127.022-.254 0-.381-.02.254-.233.635.042.889-.19.38-.213.804-.276 1.206-.318a7.166 7.166 0 0 0 2.011-.487c.085-.148-.19-.276-.042-.445.254-.254.36-.55.402-.889.254-2.117.593-4.233.847-6.35.042-.403.19-.805.19-1.207 0-.296-.063-.423-.402-.36-2.857.572-5.715.508-8.573.085a3.413 3.413 0 0 1-.762-.212.36.36 0 0 1-.127-.127c.064-.148.17-.19.318-.212.19-.169.402-.105.613-.084 1.482.212 2.964.36 4.467.339a21.99 21.99 0 0 0 3.726-.36c.338-.064.635-.19.846-.445-.423-.444-.973-.466-1.524-.53-.127-.02-.402.15-.338-.21.02-.022.042-.022.063-.043.445-.148.868.085 1.291.17.318.063.381.02.36-.318-.084-.953-.339-1.82-.825-2.646-.149-.233-.318-.445-.572-.593-.042-.064-.19-.127 0-.19.296-.191-.17-.403 0-.593a.358.358 0 0 1-.063-.212c0-.656.592-.614.973-.847.614-.38 1.122-.889 1.419-1.587.042-.127.19-.275.084-.402-.127-.149-.317-.085-.465-.022a1.833 1.833 0 0 1-.678.127c-.38.022-.677-.084-.868-.444-.338-.275-.529-.635-.592-1.08-.509-.17-.657-.36-.614-.762.02-.275.02-.571.19-.804.064.042.106.084.106.148.085.656.53.931 1.122 1.037 1.82.233 3.662.381 5.504.318 1.185-.043 2.392-.064 3.577-.297.572-.105.699-.232.72-.804.021-.36.084-.72.127-1.08.021-.127-.021-.38.254-.296.17.677.042 1.376-.021 2.053-.212.36-.233.762-.212 1.186.042 3.535 0 7.049-.19 10.584-.022.402-.022.826-.276 1.185-.127.064-.063.487-.38.19-.107-.317.105-.613.126-.91.085-1.121.212-2.264.19-3.386-.063-2.075.149-4.128.107-6.203 0-.296-.022-.55-.36-.656-.36-.127-.678.021-.72.402a3.863 3.863 0 0 0 0 .699c.085.804-.17 1.566-.423 2.307-.148.424-.445.678-.91.699a.534.534 0 0 0-.36.127c-.466.127-.55.063-.466-.423.19-1.038.339-2.075.296-3.133 0-.233.064-.55-.275-.593-.339-.064-.677-.254-.974.148-.254.36-.868.318-1.164-.021-.339-.381-.74-.339-.868.148-.423 1.482-1.46 2.392-2.752 3.07-.275.148-.317.296-.148.529.699 1.037.847 2.244 1.058 3.45.233 1.376-.127 2.646-.275 3.959-.148 1.439-.423 2.857-.592 4.318.592-1.313 1.29-2.52 2.074-3.705a6.335 6.335 0 0 0 .868-1.926c.423-1.588.953-3.154 1.418-4.72.127-.381.339-.614.72-.72.339-.106.699-.212 1.037-.339.17-.106.36-.275.508-.042.17.254-.084.38-.254.487a2.423 2.423 0 0 1-.762.317c-.487.127-.74.424-.825.91-.36.89-.276 1.821-.276 2.731-.042.297-.02.614-.275.847-.36-.36-.233-.804-.233-1.059-.38 1.313-.635 2.858-1.608 4.15-.614.804-1.016 1.757-1.524 2.645-.106.212-.149.403 0 .593.232.297.169.614.02.932-.613 1.397-1.227 2.815-1.672 4.276-.232.444-.296.931-.338 1.44Z"/><path fill="#1A6318" d="M27.943 57.345c-.085-.614-.381-1.1-.741-1.588-.127-.17-.043-.36.127-.465.19-.149.148-.233 0-.382-.72-.72-1.1-1.545-.89-2.582.043-.212-.126-.275-.253-.381a13.618 13.618 0 0 1-1.969-2.011c-.254-.339-.423-.699-.19-1.08.232-.402.635-.338 1.016-.254 0-1.08.38-1.376 1.312-1.016.254-.952.805-1.08 1.588-.338l.063-.127c.19-.424.508-.593.953-.487.465.106.508.508.465.868-.042.635-.042 1.29-.042 1.926 0 .339.064.508.508.466 1.355-.106 2.604.296 3.79.91.232.106.401.19.677.084.36-.169.74-.063 1.1.043.445.148.868.317 1.313.444.317.106.635.276.952-.105.254-.297 1.27-.043 1.524.296.085.106.191.127.276.19.211.127.402.36.296.572-.19.36-.085.698-.085 1.058.022.508-.38.762-.825.508-.339-.19-.402-.105-.36.233.042.318-.064.593-.254.826-.127.17-.296.508-.487.021-.021-.063-.085-.148-.127-.106-.508.445-.254-.212-.423-.275-.297.212-.148.762-.572.889-.508.17-.571-.318-.762-.593-.212.148-.275.36-.423.55-.17.233-.36.466-.678.34-.148-.043-.211.02-.296.105-.614.487-1.334.72-2.096.783-.36.022-.444.17-.38.487.042.254.063.508.084.783.212-.063.402-.148.593-.148.275 0 .677-.127.55.445-.042.148.19.127.275.212.212.169.635.232.445.677-.148.042-.19.127-.17.296.022.445-.19.572-.592.36a9.576 9.576 0 0 0-1.059-.487c-.254-.105-.508-.127-.762-.127-.529 0-.72-.296-.444-.762.402-.698.106-1.503-.656-1.757l-.381-.127c-.276-.084-.868.127-.995.381-.064.127-.043.254.02.381.064.127.17.127.297.106.445-.106.783-.021.91.466.043.17.254.19.381.296.17.148.445.275.276.593-.233.063-.487.127-.699.254-.275 0-.445-.19-.677-.275-.17-.127-.233-.275-.064-.445.254-.127.466.064.677.085-.211-.106-.486-.106-.74-.212-.085-.042.127-.36-.212-.19-.423.233-.487.17-.593-.339-.042-.19-.02-.402-.106-.572-.106-.211-.169-.042-.211.064-.064.106-.064.254-.254.233Z"/><path fill="#276167" d="M20.236 31.646v-2.095c0-.021.022-.064.022-.085.105-.72 0-1.46.063-2.18.021-.064.021-.106.064-.17.063-.105.127-.211.105-.317-.105-1.207.212-2.371.212-3.578 0-.846.064-1.693 0-2.54-.042-.571.043-1.143-.148-1.693-.106-.275-.085-.614.021-.91a.217.217 0 0 1 .127-.106c.318.465.339 1.016.36 1.545.021.74.17 1.482.127 2.223-.021.296.085.423.424.317.783-.275 1.587-.571 2.37-.868.381-.148.233-.36.085-.571-.677-.91-.91-1.948-.847-3.07.113-.564-.113-.783-.677-.656-.424.106-.868.19-1.291.297-.318.063-.572.169-.487.571.02.127-.043.233-.148.296-.276 0-.297-.211-.276-.38.043-.487-.275-.551-.635-.614-.211-.022-.508.105-.635-.233 1.524.105 2.985-.276 4.403-.657.614-.169 1.228-.275 1.82-.465.382-.127.742-.19 1.144.02.338.191.656 0 .889-.19.508-.423 1.08-.698 1.672-.91.614-.212 1.016-.783 1.672-.995.995-.296 1.948-.72 2.922-1.058.211-.085.36-.148.38-.424.043-.38.276-.677.551-.91a4.58 4.58 0 0 0 1.1-1.44c.086-.19.191-.36.424-.36.233 0 .381.17.487.382.19.423.148.826-.064 1.228-.105.211-.232.38-.38.614.465.084.91.211 1.376.19a4.298 4.298 0 0 1 1.926.381c.55.254.868 1.46.508 1.926-.106.127-.106.255-.106.403-.042.465-.826 1.164-1.291 1.1-1.165-.148-2.329-.084-3.472-.38-.233-.064-.339.105-.444.211-.741.699-1.482 1.397-2.287 2.032-.19.148-.38.36-.677.17-.148-.085-.275.084-.381.148-1.037.592-2.053 1.164-3.239 1.376-.211.042-.275.169-.296.38-.085 1.06-.339 1.355-1.44 1.482-.296.043-.465.318-.762.318-1.545-.064-2.773.91-4.17 1.27-.275.064-.275.296-.275.508-.148 2.667-.38 5.313-.614 7.98-.106.149-.063.34-.212.487Z"/><path fill="#276167" d="M20.66 17.972c.085 1.228.255 2.477.212 3.704-.042 1.059.127 2.117-.169 3.176-.17.571-.021 1.185-.042 1.778 0 .211.063.444-.19.571-.234-.36-.128-.762-.085-1.143.063-.38.042-.677-.424-.783a.522.522 0 0 1-.402-.402c-.085-.318-.275-.402-.593-.402H16.11c-.318 0-.53.084-.572.444-.085.593-.318.805-.953.826-.317 0-.465.127-.592.402-.805 2.117-2.435 3.048-4.615 3.154-.106 0-.233 0-.339.042-.127.064-.148.212-.254.297-.02.148.043.296-.084.465-.212-.338-.106-.698-.106-1.037 0-.19.17-.106.254-.085.677.022 1.355.022 2.032-.19.106-.043.17-.106.17-.212.02-.233.232-.254.38-.317 1.61-.762 2.456-2.562 2.287-4.382-.17-1.757-.636-3.387-1.673-4.826-.233-.318-.508-.593-.783-.89-.148-.148-.339-.275-.339-.529-.211-.402-.614-.55-.995-.74-.254-.128-.529-.212-.402-.593.212-.043.424-.106.635-.064.029.268.205.508.53.72 1.375.889 2.243 2.159 2.815 3.64.508 1.27.74 2.583.783 3.96 0 .253.021.507.36.57a.614.614 0 0 1-.296-.55c.02-.232.127-.402.36-.486.169-.064.211-.191.19-.36-.19-1.673-.508-3.281-1.418-4.742-.381-.614-.826-1.185-1.397-1.651-.149-.106-.297-.233-.318-.424.021-.127.127-.148.233-.19.106 0 .212.042.296.085 1.334.995 2.096 2.37 2.604 3.916.275.846.423 1.714.53 2.604.042.423.232.55.634.529.445-.021.89 0 1.334 0 .529 0 .571-.064.508-.572-.043-.254-.106-.487-.106-.74.021-.149.063-.297.254-.297.19 0 .233.148.275.296.021.085.043.17.064.233.042.19.042.381.042.593v.338c0 .297.148.36.402.318.55-.085.741-.339.805-1.058.02-.297-.064-.593.127-.847.275.042.233.275.233.466.042.465-.043.91-.085 1.375-.021.17-.064.36 0 .55-.085-.274.042-.507.254-.677.148-.127.254-.275.275-.486.19-1.884.085-3.768-.36-5.61-.042-.19-.042-.402-.296-.445-.254-.063-.402.085-.53.276-.38 0-.55-.339-.36-.72h.107c.296.19.656.085.994.148.36.064.403.212.403.508.042.148-.106.424.254.466Z"/><path fill="#42373A" d="M14.796 43.099c.17-.255.17-.55.212-.826.148.042.211.17.211.296-.02.762.17 1.524-.042 2.308-.317 1.164-.275 2.35-.17 3.535.022.36.043.72.043 1.08 0 .296.042.592.275.825l.127.127c.148.17.36.127.55.127h1.8c.19 0 .402-.042.55.127-.085.339-.38.317-.614.339-.677.042-1.333.084-2.01-.085-.233 0-.466-.042-.678-.127-.36-.148-.445 0-.402.317.106.805.084 1.63.148 2.456.085 1.185.254 2.37-.064 3.556-.232.826-.19.826.636.974.105.021.19.063.296.063a16.49 16.49 0 0 1 3.535.276c.106.02.19.02.296 0 .106-.021.254-.043.297-.148.063-.17-.085-.233-.19-.297-.488-.275-.953-.571-1.356-.974-.571-.529-.762-1.164-.656-1.926.148-1.228.424-2.434.72-3.62.063-.233.148-.465.106-.72-.064-.084-.043-.148.02-.211.043-.021.15-.021.107-.106-.276-.402-.318-.508-.36-1.037 0-.064.021-.148.042-.212.148-.254.148-.53.17-.804.02-.043.02-.085.042-.127.19-.254.085-.572.148-.868.021-.043.021-.085.042-.127.19-.275.064-.593.149-.868.02-.042.02-.085.042-.127.19-.445.17-.931.38-1.355.022-.021.043-.042.064-.042.106-.106.212-.19.318-.297-.318 1.419-.677 2.816-.931 4.234-.043.254-.085.53-.127.783-.022.148-.022.254.127.318.508.212.36.593.275.952-.36 1.355-.699 2.71-.89 4.107-.063.466-.274.995.233 1.376.403.593.953.974 1.588 1.291.296.148.55.297.55.678 0 .423-.169.656-.613.72-.635.084-1.292.084-1.905-.043-.509-.106-1.059.106-1.503-.296-.022-.021-.106-.021-.127 0-.657.508-1.334.084-2.011.042-.254-.021-.212-.212-.212-.36.042-.762.317-1.482.444-2.222.064-.34.085-.678-.02-1.017-.297-.444-.191-.952-.234-1.418-.063-1.016-.19-2.032-.127-3.048.022-.212-.042-.466.106-.614.297-.36.233-.74.212-1.164 0-1.46-.17-2.921.275-4.36.064-.234.021-.467.021-.678-.063-.297-.106-.55.085-.783Z"/><path fill="#231814" d="M20.724 3.366c.89.063 1.757.211 2.582.571 1.017.466 1.101 1.25.233 1.948-.867.698-1.884 1.037-2.92 1.355-.297.084-.403.211-.382.55.064.614.064 1.228.19 1.842.255 1.333-.105 2.603-.55 3.852-.19.508-.444.995-.635 1.482a2.138 2.138 0 0 1-1.249 1.249h-.063c-.127-.085-.339-.043-.339-.275 1.207-.424 1.46-1.546 1.884-2.54.233-.572.381-1.186.508-1.8.085-.698.043-1.376.021-2.074-.19-.424-.529-.741-.846-1.038a.548.548 0 0 0-.72-.042c-.212.19-.233.445-.127.72.127.317.338.593.402.952.042.17.106.36.063.53-.169.55-.55.783-1.1.783-.402 0-.783.021-1.164-.17-.191-.084-.424-.19-.255-.465.191-.127.382-.021.55.02.255.064.509.15.763.128.53-.021.72-.296.593-.847a6.242 6.242 0 0 0-.762-1.312c-.149-.19-.254-.381-.17-.635.19-.466.275-.953.381-1.419.064-.296.212-.444.508-.232.212.148.487.084.72.105.487.064.847.318.931.678.064.296-.084.254-.275.17-.296-.234-.635-.234-.973-.234-.297-.02-.508.106-.55.424-.043.233-.191.444-.149.783.381-.55.847-.614 1.376-.466-.085-.063-.17-.063-.275-.106-.149-.042-.402-.042-.36-.254.042-.275.296-.19.487-.169.465.19.825.445.825 1.016 0-.677-.084-1.333-.275-1.969-.148-.486-.423-.804-.91-.952-.868-.275-1.757-.318-2.667-.296-.847.02-1.694.211-2.54.169a.5.5 0 0 1-.255-.296c.106-.212.318-.233.508-.255 1.355-.127 2.71-.38 4.086-.127.339.064.677.128 1.016.233.699.212 1.164.614 1.355 1.355.127.55.19.572.72.381.74-.254 1.481-.53 2.159-.974.232-.148.444-.338.571-.592.127-.445-.19-.593-.465-.741-.55-.275-1.144-.402-1.757-.487-.36-.042-.72-.106-1.08-.127-.148 0-.296 0-.339-.212.148-.19.466-.084.72-.19Z"/><path fill="#231814" d="M19.856 22.142a3.916 3.916 0 0 1-.212 1.715c-.17.465-.635.254-.973.338-.297.064-.297-.233-.297-.444 0-.106 0-.233.021-.339.149.021.19.17.254.275.127.212.318.19.53.17.211-.043.254-.212.254-.381 0-1.059.084-2.138-.043-3.197-.085-.698-.148-1.418-.317-2.095-.021-.106-.043-.233-.085-.34-.085-.21-.148-.57-.402-.486-.254.085 0 .36.042.55.043.254.106.508.106.784 0 .994.021 1.968 0 2.963-.021.402.042.868-.318 1.186-.105-.064-.105-.149-.105-.254 0-.106 0-.254-.17-.212-.148.021-.106.17-.127.275-.233.021-.254-.17-.317-.317-.974-1.82-2.265-3.387-3.853-4.742-.402-.339-.762-.72-1.207-.995-.275-.19-.55-.445-.952-.275.106.19.423.211.402.487-.042.084-.127.105-.211.127-.085.084-.191.063-.276.02-.402-.253-.868-.422-1.312-.613-.233 0-.466 0-.699-.021.424-.148.826-.339 1.313-.275.296.042.635-.149.931-.254.148-.043.127-.17.127-.297 0-.698.021-1.418-.042-2.117-.021-.338-.233-.677-.36-1.016-.042-.105-.148-.105-.254-.127-1.122-.254-1.694-1.016-2.011-2.053.148-.254.127-.53 0-.783 0-.17.063-.297.19-.402.17.042.318.105.318.317-.318 1.08.487 2.35 1.609 2.477.233.021.423.106.487.338.444 1.186 1.143 2.202 2.201 2.943.042.021.042.085.064.127-.022.127-.106.212-.233.254-.487-.127-.868-.445-1.503-1.207-.064.021-.043.085-.043.127-.126.89.085 1.567.953 2.054.55.317.995.804 1.44 1.27.74.783 1.714.847 2.71.72.507-.064.634-.424.38-.869-.127-.232-.212-.486-.402-.677-.042-.042-.042-.084-.042-.148.02-.042.063-.085.105-.085.212.021.403.043.318-.275-.021-.063.063-.148.17-.148h.02c-.105.487.085.677.593.593.127-.021.254 0 .381 0 0 .296.064.571.296.762l.064.063c.275 1.101.53 2.202.466 3.366-.021.233-.043.487.127.72-.021.169 0 .296-.106.423Z"/><path fill="#286918" d="M30.715 58.72c-.55.085-.148.445-.212.7-.148.126-.296.084-.444 0-.635-.382-1.292-.657-2.075-.636-.36.021-.529-.38-.254-.55.402-.254.276-.55.233-.868.127-.085.085-.212.106-.318.423.402.466.868.127 1.355.381.042.762.085 1.1.275.276.064.509.339.826.276.148-.191.318-.34.593-.233Z"/><path fill="#22711F" d="M33.34 35.393c-.085.127.233.445-.212.487-.254.021-.423 0-.402-.318 0-.169 0-.338-.02-.486-.043-.255.02-.382.338-.403.339-.02.275.19.296.381a.908.908 0 0 0 0 .34Z"/><path fill="#176A14" d="M36.24 39.161c-.02-.063-.02-.169-.042-.254-.042-.232.127-.232.275-.232.148 0 .318-.064.339.148l.063.635c.043.211.022.36-.254.402-.275.042-.338-.085-.36-.318 0-.127-.02-.254-.02-.38Z"/><path fill="#1D7022" d="M33.764 36.282c.084-.211-.212-.677.402-.613.17.02.233.063.212.232-.021.212-.043.424-.043.635 0 .233-.063.34-.338.318-.297-.021-.297-.17-.254-.402 0-.043 0-.085.02-.17Z"/><path fill="#156A16" d="M40.114 18.48c-.085-.402.233-.381.36-.36.487.106.233.571.338.868.106.254-.105.317-.296.296-.593-.063-.19-.614-.402-.804Z"/><path fill="#156912" d="M40.77 28.196c-.063.212.212.656-.38.593-.17-.021-.234-.085-.212-.233v-.55c-.022-.233-.022-.402.317-.402.36 0 .275.211.296.423-.02.042-.02.085-.02.17Z"/><path fill="#1E6A1C" d="M39.394 33.467v-.38c0-.234.17-.191.296-.191.127 0 .318-.043.297.19 0 .19 0 .381-.022.593 0 .212.043.423-.317.402-.318-.021-.318-.17-.297-.402.043-.085.022-.148.043-.212Z"/><path fill="#297B2B" d="M36.474 59.567c-.254.022-.508.148-.53-.275-.02-.423.297-.339.487-.339.212 0 .53-.254.593.233.063.55-.36.297-.55.381Z"/><path fill="#196E1A" d="M40.282 38.23c-.084-.381.212-.381.36-.36.487.085.212.53.318.783.127.339-.233.297-.36.254-.444-.063-.19-.486-.318-.677Z"/><path fill="#246F24" d="M41.934 33.932c.084-.19-.17-.508.296-.529.508 0 .296.36.318.593.02.212.148.508-.297.508-.487-.021-.233-.36-.317-.572Z"/><path fill="#1C6E1B" d="M39.605 21.168c.021.317-.211.317-.36.296-.465-.063-.275-.508-.38-.783-.128-.296.275-.296.38-.275.403.106.212.55.36.762Z"/><path fill="#166D16" d="M37.701 57.874c-.17.148-.042.487-.318.423-.296-.063-.677-.042-.825-.38-.042-.085-.021-.466.254-.424.317.063.635.148.889.381Z"/><path fill="#176C1B" d="M37.426 19.94c.085.318 0 .445-.275.424-.593-.021-.254-.487-.339-.741-.148-.36.212-.339.36-.318.445.064.149.487.254.635Z"/><path fill="#136D17" d="M37.51 32.917c.021-.233-.127-.508.275-.508.55 0 .275.402.339.635.063.233.042.423-.318.444-.55 0-.148-.423-.296-.571Z"/><path fill="#1C6D1B" d="M24.619 61.325c-.085.38-.508.148-.762.253-.318.128-.318-.211-.296-.338.084-.466.508-.233.783-.318.275-.127.233.127.275.403Z"/><path fill="#196F1A" d="M43.755 24.026c.276.212.318.55.381.847.064.275-.233.275-.36.275-.444-.064-.317-.508-.423-.762-.106-.275.254-.212.402-.36Z"/><path fill="#1A6C1B" d="M38.379 16.278c.296.212.423.53.508.805.084.233-.275.338-.381.317-.339-.084-.402-.465-.508-.72-.085-.211.254-.232.38-.402Z"/><path fill="#176B19" d="M34.695 21.422c-.084.17.19.614-.36.572-.423-.021-.275-.296-.232-.487.042-.212-.17-.593.338-.572.403 0 .254.254.254.487Z"/><path fill="#1B6C1A" d="M32.726 60.88c-.085-.19-.149-.53 0-.572.275-.084.614-.063.91 0 .148.022.042.254.063.403.022.148-.084.19-.211.19h-.572c-.085-.021-.127-.021-.19-.021Z"/><path fill="#156E17" d="M33.763 61.6c-.106-.509.106-.678.593-.593.127.02.254 0 .38.02.107.466-.02.72-.55.593-.127-.042-.275-.02-.423-.02Z"/><path fill="#126C15" d="M28.619 61.472c-.36.106-.466-.042-.445-.296.022-.53.466-.212.699-.317.317-.149.296.148.296.317 0 .466-.423.19-.55.296Z"/><path fill="#1F6F1D" d="M39.69 57.768c.127.17.593-.127.572.339 0 .148 0 .465-.318.338-.212-.084-.614.127-.614-.338.021-.148-.021-.445.36-.339Z"/><path fill="#0F6B12" d="M40.685 59.885c.254 0 .465-.064.465.296 0 .445-.275.275-.486.318-.276.042-.424-.022-.424-.36.021-.445.339-.149.445-.254Z"/><path fill="#231814" d="M9.76 9.293c-.085-.106-.255-.148-.297-.296.021-.106.085-.149.19-.19.19-.594.149-1.186.085-1.8-.021-.297 0-.593.233-.826.847-.635 1.863-.91 2.879-1.143a.39.39 0 0 1 .36.106c.127.021.211.063.211.212-.19.211-.254.465-.275.762a3.121 3.121 0 0 1-.72 1.841c-.211.254-.275.508-.211.826.084.423.127.847.19 1.27.043.212.064.444-.211.53-.254.063-.445-.043-.593-.255-.127-.212-.212-.444-.318-.656-.19-.318-.444-.572-.825-.656-.106-.021-.233-.043-.254.127-.043.17-.148.254-.318.233-.042-.022-.084-.064-.127-.085Z"/><path fill="#231814" d="M10.055 6.202c-.275.381-.254.847-.17 1.228.128.508.022.932-.232 1.355 0-.296-.233-.17-.36-.17-.995-.063-1.969-.169-2.9-.486-.55-.19-1.143-.402-1.228-1.059-.084-.656.445-.995.932-1.291.931-.572 1.947-.953 2.984-1.228.043.106.127.17.212.212-.063.254-.275.254-.466.296-.931.297-1.862.635-2.688 1.207-.318.212-.614.466-.445.931.34.381.805.487 1.27.614.741.212 1.525.297 2.287.36.338.021.487-.106.423-.466a3.692 3.692 0 0 1-.021-1.08c.021-.232.042-.486.402-.423ZM9.273 9.399c.275.254.275.53 0 .783-.085-.254-.064-.53 0-.783Z"/><path fill="#FB5C05" d="M1.165 42.357c1.99.403 4 .487 6.033.424 1.207-.042 2.392-.085 3.556-.445.254-.084.381-.063.339.297-.275 1.926-.53 3.831-.804 5.757-.106.784-.212 1.567-.297 2.35-.042.36-.19.614-.53.762-.168.275-.465.318-.719.381-1.122.254-2.265.402-3.408.318-.677-.064-1.333-.064-2.01-.212a2.298 2.298 0 0 1-.848-.339c-.169-.02-.317-.02-.402-.211-.254-1.059-.296-2.16-.423-3.24l-.572-5.143c-.042-.254-.106-.487.085-.699Z"/><path fill="#F79C1A" d="M10.943 17.633c1.312 1.143 2.16 2.604 2.582 4.276.403 1.63.614 3.218-.275 4.784-.508.91-1.29 1.46-2.201 1.863-.656.17-1.313.317-2.011.296-.148 0-.36.043-.318-.233.72-.232.741-.232.614-1.037-.148-.889-.296-1.778-.465-2.667-.043-.212-.106-.423 0-.614 1.502-1.418 1.905-3.154 1.46-5.144-.127-.614-.55-1.037-.952-1.46.19-.381.571-.381.91-.466.211.127.423.254.656.402Z"/><path fill="#276167" d="M9.166 29.106c.55 0 1.1.021 1.63-.211.17-.064.38-.085.254-.36-.212-.085-.424 0-.614.02-.402.064-.783.191-1.207.17-.169 0-.338.021-.38-.211-.149-.91-.255-1.842-.466-2.752-.149-.635-.022-1.08.571-1.376 1.228-1.101 1.736-2.456 1.672-4.107-.042-1.037-.296-1.947-1.121-2.625-.191-.17-.424-.275-.657-.36.466-.296.932-.338 1.376 0 .254.106.424.403.762.297.064-.339-.232-.402-.423-.53-.339-.253-.804-.338-.995-.783-.148 0-.381.021-.381.149-.042.402-.36.36-.593.444-.508.212-1.058.318-1.524.593-1.587.931-2.836 2.222-3.874 3.725-.127.17-.211.36-.402.487-.635.424-1.016 1.08-1.482 1.673-.148.169-.127.444-.063.677.063.17.021.296-.106.444-.614.741-.74 1.588-.466 2.498.318 1.016.762 1.969 1.25 2.9.126.254.19.466-.022.699-.212.233-.148.444.042.698.466.593.91 1.207 1.461 1.736.36.36.614.699.53 1.25a1.04 1.04 0 0 0 .19.655c.211.276.127.466-.085.699-.106.106-.212.19-.339.254-2.138.91-3.154 2.625-3.429 4.869-.021.254.043.55-.275.677v.487c.085.106.085.254.085.38.338 2.859.656 5.716.995 8.574.063.572.169 1.08.825 1.313 1.143.38 2.307.613 3.535.613.275-.169.656.127.91-.169-.084-.148-.254-.148-.402-.148-1.312 0-2.603-.254-3.98-.614.233.042.36.063.488.021.169-.085.148-.19.042-.317-.148-.106-.318-.17-.466-.276-.444-.211-.571-.592-.614-1.037-.19-1.672-.36-3.323-.571-4.996-.085-.72-.19-1.439-.233-2.159-.021-.338.042-.635.444-.72.149-.084.318-.126.34-.338-.107-.233-.572-.17-.509-.445.085-.275.466-.275.741-.296 3.006-.339 6.033-.444 8.996.275.128.021.255.064.382 0 .084-.38-.212-.38-.445-.465-.445-.17-.953-.149-1.397-.34-.275-.147-.339-.36-.318-.698.127-.995.36-1.99.17-3.006 0-.02.02-.063.063-.063.127.021.212.148.339.19.423-.211.063-.444.021-.656-.212-.212-.508-.38-.466-.762.085-.72.149-1.44.318-2.138.063-.233.19-.38.466-.296.084-.021.127-.064.148-.148-.148-.36-.466-.657-.55-1.059 0-.042-.085-.021-.128 0a6.515 6.515 0 0 0-.698 2.71c-.021-.657-.445-1.143-.974-1.588-.212-.17-.444-.339-.699-.445-.402-.169-.592-.465-.72-.889a28.14 28.14 0 0 1-.55-2.307 1.926 1.926 0 0 0-.296-.72c-.296-.486-.275-1.08-.339-1.63 0-.084.043-.169.127-.211.699-.487 1.313-1.101 2.054-1.546.465-.275.55-.232.635.276.275 1.693.571 3.387.656 5.08 0 .17-.064.423.254.423.148-.254.17-.571.275-.846.021-.297.106-.593-.127-.847-.063-.021-.148.085-.148.021-.064-.339.063-.508.487-.487Zm-.635 6.012v.296c0 .014.007.022.021.022.063-.022-.042.063-.085 0a.85.85 0 0 0 .064-.318Zm-2.667 1.8c.635-.212 1.29-.424 1.968-.318.064 0 .148.021.19-.021.593-.381.509.02.572.423.17 1.143-.127 2.265-.19 3.387-.021.296-.127.339-.402.317-1.8-.169-3.62-.148-5.42 0-.677.064-1.312.212-1.968.34-.148-1.885 1.376-4.213 3.09-4.827.212-.085.297 0 .381.148.403.74 1.017.804 1.779.55Z"/><path fill="#F79C1A" d="M8.595 17.718c1.143.36 1.482 1.27 1.566 2.328.191 2.223-.825 3.81-2.751 4.848-.022 0-.022.021-.043.021-.423.24-.705.134-.846-.317-.424-1.313-1.355-2.139-2.562-2.689-.02-.148.043-.254.106-.36.995-1.354 2.053-2.646 3.556-3.492.297-.212.614-.36.974-.34Z"/><path fill="#FB5B05" d="M11.03 41.553c.084.445-.276.487-.53.53-1.884.38-3.768.465-5.673.36a47.086 47.086 0 0 1-3.43-.34c-.169-.063-.338-.148-.508-.19-.169-.042-.317-.085-.338-.296 0-.212.148-.254.317-.297a9.203 9.203 0 0 1 2.286-.36c2.096-.084 4.17-.127 6.245.19.55.086 1.08.276 1.63.403Z"/><path fill="#824910" d="M3.916 29.149c-.487.148-.953.36-1.355.698-.19.17-.296.127-.38-.084-.403-.868-.826-1.715-1.144-2.625-.444-1.27-.063-2.392 1.037-3.154.19-.127.297-.043.445.042.55.339.995.804 1.312 1.355.021.084 0 .127-.084.148-.424.17-.424.487-.318.847.19.677.381 1.354.55 2.032.064.254.233.53-.063.74Z"/><path fill="#F69D1A" d="M3.451 29.699c.381-.212.804-.297 1.228-.339.338-.042.465.106.529.424.17.93.381 1.841.677 2.73.085.254.212.423.466.53.508.211.931.55 1.355.91.38.317.465.698.38 1.143-.042.275-.063.55-.126.825-.043.148-.17.275-.318.233-.148-.021-.084-.19-.084-.296v-.699c0-.106.02-.254-.149-.254-.127 0-.148.127-.148.233-.02.233-.02.466-.02.699 0 .19 0 .402-.234.402-.275 0-.127-.254-.148-.381-.021-.17 0-.318 0-.487a.206.206 0 0 0-.17-.212c-.126 0-.126.106-.147.212-.064.339.084.677-.085.995-.19-.212-.127-.466-.127-.699.021-.508-.106-.952-.53-1.27-1.439-1.08-1.799-2.71-2.307-4.276-.084-.148-.106-.296-.042-.423Z"/><path fill="#F79C19" d="M4.784 26.693c-.021-1.037-1.778-3.217-2.836-3.175-.085 0-.297.021-.233-.148.085-.233.233-.466.529-.445.445.021.868.17 1.249.424.127.084.254.317.402.084.127-.211-.127-.254-.254-.36-.233-.169-.487-.253-.74-.36-.149-.063-.509.022-.424-.253.063-.254.275-.53.656-.445.487.106.953.254 1.376.53.953.656 1.693 1.46 1.82 2.666.022.149.043.297-.042.424-.085.106-.19.254-.36.233-.148-.021-.127-.17-.148-.275-.085-.34-.233-.636-.423-.953-.064-.106-.148-.148-.233-.085-.127.064-.064.17-.021.254.084.19.19.381.275.572.275.72.19.953-.593 1.312Z"/><path fill="#F8C172" d="M3.45 29.7c.34 1.142.678 2.285 1.25 3.344.127.254.275.466.508.635.931.656 1.418 1.524 1.206 2.688-.127.085-.254.275-.423.19-.148-.105-.021-.296-.021-.444 0-.233.233-.593-.064-.635-.296-.042-.19.381-.232.593-.127.677-.297.868-.72.72-.19-.064-.275-.17-.085-.34.275-.253.275-.698.021-.973-.465-.444-.72-.974-.656-1.63.021-.275-.085-.465-.254-.656a35.09 35.09 0 0 1-1.63-1.905c-.212-.275-.212-.487 0-.741.297-.381.635-.699 1.1-.847Z"/><path fill="#FB5C05" d="M1.165 42.358c.254 2.265.487 4.53.74 6.816.064.614.149 1.249.212 1.863.022.127.064.254-.042.38-.508-.105-.72-.401-.762-.93-.254-2.477-.55-4.954-.847-7.43-.042-.318.339-.509.043-.869.275.064.444.085.592.127 0 .022.021.043.064.043Z"/><path fill="#F9F9F6" d="M8.594 17.718c-1.99.72-3.239 2.286-4.445 3.895-.064.085-.127.19-.19.275-.255-.042-.488-.19-.826-.148.275-.53.635-.91.974-1.291.931-1.08 1.926-2.054 3.238-2.668.402-.211.805-.254 1.25-.063Z"/><path fill="#FBF9F6" d="M8.87 24.301c.233 1.334.466 2.689.699 4.022.042.275-.043.402-.339.381-.17-.02-.36 0-.53-.084-.169-1.059-.317-2.096-.528-3.155-.085-.444-.064-.783.402-.994.127-.022.211-.106.296-.17Z"/><path fill="#824910" d="M3.917 29.149c.042-.784-.296-1.482-.466-2.223-.063-.233-.148-.466-.19-.699-.106-.486.084-.762.592-.825.614.698.614 1.587.762 2.434.022.106.022.233.043.339.084.564-.163.889-.741.974Z"/><path fill="#5B9572" d="M10.457 35.605c-.148.063-.296.17-.444.19-.36.043-.466.276-.53.572-.169-.106-.169-.275-.169-.423.085-.741.064-1.482.212-2.223.021-.17.085-.318.254-.402.021-.043.064-.064.085-.106.338.254.698.38 1.143.317.233-.042.38-.211.635-.211.55.02.571.063.317.55-.02.064-.063.106-.105.148-.276.064-.55.043-.826.043-.275 0-.402.105-.466.38-.084.382-.02.784-.106 1.165Z"/><path fill="#F6F7F5" d="M9.463 37.172c0 .02-.021.042-.021.084 0 0 .02.022.042.022.212.36.212.761.17 1.143-.064.677-.212 1.333-.234 2.01 0 .17-.042.318-.232.382-.36 0-.508-.127-.466-.53.148-1.185.444-2.35.127-3.683.317.212.53.318.614.572Z"/><path fill="#2F6905" d="M2.455 51.608c.931.212 1.841.381 2.794.423 1.44.064 2.837-.084 4.191-.55.106.106.19.212.297.296-.53.148-1.059.402-1.588.445-1.185.127-2.392.465-3.599.127-.55-.148-1.143-.085-1.672-.275-.19-.064-.402-.043-.444-.297.127-.02.02-.105.02-.169Z"/><path fill="#7D6F12" d="M2.434 51.799c.339.338.804.275 1.185.338.657.106 1.313.254 1.99.233 1.228-.021 2.413-.17 3.578-.55.148-.043.338-.233.529-.043-.466.381-1.08.487-1.63.55-.614.064-1.207.297-1.82.255-.932.084-1.863-.085-2.774-.233-.656-.106-1.354-.212-1.947-.699.381-.148.593.254.889.149Z"/><path fill="#F5F7F4" d="M9.78 33.319c-.233.994-.254 2.032-.297 3.048-.021.063-.021.127-.042.19-.445-.148-.635-.402-.572-.889.106-.762.149-1.524.381-2.265.043-.148.085-.275.276-.296.148 0 .254.042.254.212Z"/><path fill="#68C06A" d="M8.785 29.635c.021-.127-.021-.275.085-.38.762-.107.762-.085.847.634.063.53.063 1.08.254 1.61.042.105.063.232-.022.317-.846-.19-1.016-.381-1.1-1.27 0-.297.084-.614-.064-.91Z"/><path fill="#F2F3EB" d="M10.266 17.23c-.254.255-.635.234-.91.467-.276-.127-.53-.233-.784-.34.614-.486 1.059-.528 1.694-.126Z"/><path fill="#E36414" d="M4.72 35.944c0 .17-.042.296-.233.296a.308.308 0 0 1-.317-.296c0-.148.106-.318.296-.318.254-.02.254.149.254.318Z"/><path fill="#5B9572" d="M9.949 31.816c-.297-.593-.318-1.25-.381-1.884-.064-.656-.043-.656-.699-.677.487-.149.995-.106 1.482-.212 1.778-.36 2.963-1.397 3.535-3.112.106-.275.17-.402.53-.36.655.106.93-.148.952-.804 0-.318.17-.445.444-.445h3.408c.254 0 .381.148.381.36.022.381.254.53.572.53.318 0 .339.19.318.423-.043.529-.149 1.037-.106 1.566v.106c-.085.572-.064 1.143-.106 1.715 0 .19.042.402-.106.571-.148.466-.17.953-.19 1.44-.022.635-.212.846-.826.931-1.694.212-3.387.339-5.102.275-1.333-.042-2.667-.19-4.022-.296.022-.021-.02-.085-.084-.127ZM18.268 49.237v.19c-.127.297.042.615-.085.911-.063.17-.127.318-.317.318-.847-.021-1.694.084-2.54-.127 0-.022 0-.043-.022-.085-.127-.72-.042-1.44-.042-2.16-.021-1.29-.042-2.56.339-3.81.17-.592-.043-1.206-.064-1.82-.042-.995-.17-1.99-.127-2.985a.318.318 0 0 0-.085-.232c.106-.508.382-.826.932-.932.233-.042.466-.17.677-.275.127-.085.424-.085.318-.339-.085-.233-.296 0-.424-.02.022-.043.043-.107.085-.107 1.397-.296 1.313-1.482 1.482-2.477a2.3 2.3 0 0 0 0-.93c-.148-.615.275-.826.677-1.06.106-.063.19-.02.233.107.021.063.064.169.064.169.698-.085.423.444.423.72.042 2.434-.106 4.847-.106 7.282 0 1.121-.042 2.243-.38 3.344-.17.487-.234.995-.403 1.482-.127.317-.021.677-.19.995-.106.317 0 .677-.191.995-.148.233-.106.571-.254.846Z"/><path fill="#5B9572" d="M16.787 37.87c-.276.296-.657.402-1.017.466-.402.084-.55.338-.656.698-.508 1.715-1.037 3.408-1.524 5.123-.233.783-.698 1.418-1.1 2.074-.657 1.059-1.292 2.117-1.779 3.26-.042.106-.085.212-.254.297.085-.699.148-1.334.233-1.969.233-1.609.53-3.218.677-4.848.022-.169.085-.317.085-.486.021-1.736-.148-3.43-1.164-4.933-.233-.338-.19-.423.19-.614 1.292-.635 2.35-1.524 2.71-3.005.127-.53.444-.572.847-.53.105.022.19.022.254.127.317.53.698.53 1.058.022a.327.327 0 0 1 .339-.149c.296.022.592.064.868.106.275.043.211.275.233.487.042 1.185-.085 2.35-.318 3.514-.085.381.085.36.317.36Z"/><path fill="#606B7D" d="M7.599 52.709c.55-.148 1.1-.254 1.651-.402.74-.19.89-.72.995-1.334.056-.41.303-.649.74-.72.107.127 0 .212-.041.318a34.166 34.166 0 0 0-1.63 4.318c-.254.805 0 1.545.232 2.308.106.36.254.72.381 1.058.149.423.064.572-.36.55-.444-.02-.888-.042-1.27-.296.255-.148.149-.254-.02-.381-.466-.381-.763-.89-1.017-1.44-.275-.592-.127-1.206-.063-1.799.063-.656.19-1.291.296-1.947-.021-.064.021-.17.106-.233Z"/><path fill="#F9F8F7" d="M15.305 39.458c.106-.064.169-.064.169.084.106 1.567.19 3.112.296 4.679.022.338-.148.635-.211.952-.318 1.588-.148 3.175-.19 4.763 0 .17.105.36-.085.508-.255-.042-.34-.19-.36-.444-.064-1.863-.318-3.726.169-5.589.17-.677 0-1.44-.085-2.138 0-.952-.063-1.905.297-2.815Z"/><path fill="#8C96A5" d="M7.6 52.709c-.021.953-.254 1.884-.339 2.836-.084.847.233 1.503.72 2.117.212.276.508.508.804.784-.169.148-.338.063-.486.084-.508-.084-.89-.338-1.186-.783-.593-.91-.952-1.863-.698-2.985.084-.402.127-.804.19-1.227.07-.55.402-.826.995-.826Z"/><path fill="#5B9572" d="M9.145 40.812c.148-1.164.423-2.328.317-3.535.55.148.699.678.931 1.08.424.783.53 1.672.657 2.54.042.254-.043.318-.297.212-.529-.148-1.058-.275-1.608-.297ZM18.056 34.737c.17.699-.254 1.418-.423 2.18-.064.254-.36.34-.593.403-.19.063-.19-.127-.17-.212.276-1.1.106-2.223.276-3.323.063-.403.36-.233.571-.254.276-.043.339.127.318.36.021.232.021.486.021.846ZM9.8 36.833c-.063-.424.064-.614.403-.762 1.059-.424 1.778-1.207 2.16-2.287.063-.19.148-.444.423-.36.254.085.169.34.106.508-.55 1.482-1.588 2.414-3.091 2.9Z"/><path fill="#F7F7F3" d="M17.442 33.213c-.212 0-.424 0-.635.042-.339.064-.445-.063-.487-.402-.042-.36.17-.36.402-.36.53-.042 1.037-.063 1.566-.127.191-.02.382-.042.34.254-.043.212.169.53-.255.572-.317 0-.635 0-.931.021Z"/><path fill="#6AC06A" d="M10.457 35.605c-.275-.53 0-1.037.022-1.567 0-.084.084-.148.169-.127.402.043.804-.084 1.207.106-.254.72-.784 1.186-1.398 1.588Z"/><path fill="#FBFAF8" d="M33.955 51.841c-.403-.106-.7-.127-.974-.317-.805-.55-2.16-.106-2.752.656-.339.423-.487 1.016-.995 1.333-.212.127-.402.34-.339.614.064.297.36.381.614.424.381.042.699.063.931.486.17.318.636.17.974.149.233-.022.445-.064.699.084a.747.747 0 0 0 .783-.02c.381-.212.91.041 1.207-.424.063.148.084.275.148.317.571.36.148.55-.127.741-.339.233-.72.381-1.122.487-.233.064-.424.085-.55-.19-.043-.127-.212-.34-.36-.212-.212.19.169.212.169.36 0 .02.021.063.021.106-.127.105-.254.02-.36 0-.148-.043-.211-.043-.169.148.042.148-.106.254-.19.148-.149-.17-.255-.275-.424-.042-.063.084-.148-.022-.148-.127.021-.127.021-.233-.17-.212-.402.042-.402-.127-.148-.36.043-.063.064-.106.022-.17-.064-.084-.17-.063-.212.022-.318.635-.72.275-1.1.106-.911-.403-1.779-.868-2.35-1.736-.382-.593-.614-1.207-.36-1.905.084-.275-.106-.318-.212-.424-.783-.635-1.503-1.333-2.117-2.138-.148-.19-.254-.38-.19-.635.042-.19.19-.275.36-.317.296-.064.508.106.656.339.508.846 1.122 1.63 1.757 2.392.148.169.296.55.486.38.17-.126-.19-.36-.317-.529-.677-.846-1.397-1.672-1.757-2.73-.127-.381-.148-.72.212-.91.38-.191.635.063.825.38.466.784.593 1.694 1.037 2.498.128.212.233.445.36.657.043.084.106.211.212.148.127-.064.042-.17 0-.254-.593-.974-.953-2.054-1.27-3.154-.085-.318-.275-.678.106-.932.296-.19.656.064.91.53.296.508.275 1.079.36 1.63.106.57.211 1.142.38 1.672.043.106.043.254.213.19.148-.042.042-.17.02-.254-.36-1.08-.444-2.222-.57-3.344-.043-.381.19-.678.55-.678.423.021.465.318.444.635-.063.932-.063 1.884.064 2.816.02.127.042.254.063.38.021.085.064.17.17.128.063-.022.084-.106.063-.17-.212-.592.19-.508.55-.529 1.25-.042 2.392.381 3.493.89.424.21.19.55.424.867Z"/><path fill="#FBF9F8" d="M33.34 54.953c.233-.276.403-.487.551-.678.042-.063.127-.127.042-.211-.105-.106-.169 0-.232.063-.233.233-.445.487-.678.699-.233.211-.487.317-.889.19.402-.254.741-.465 1.08-.698.084-.064.296-.127.19-.297-.127-.169-.233.021-.317.085-.593.381-1.165.826-1.906.826-.148 0-.296 0-.444-.043-.127-.021-.254-.127-.233-.275.021-.148.148-.148.275-.148.657-.064 1.292-.19 1.905-.466.085-.042.276-.063.191-.212-.063-.127-.19-.042-.296 0-.89.382-1.842.487-2.795.466-.211 0-.444.021-.592-.19-.085-.127.042-.254.148-.339.19-.17.339-.402.677-.275.55.211 1.101.084 1.651-.021.085-.022.276-.022.212-.19-.042-.128-.17-.064-.254-.043-.381.084-.783.17-1.164.127-.233-.021-.55 0-.53-.36.022-.254.445-.508.7-.424.359.106.74.128 1.121.106.085 0 .19 0 .19-.106 0-.148-.105-.127-.211-.127-.318.022-.635 0-.931-.084-.106-.021-.254-.085-.233-.212 0-.084.084-.17.169-.233.593-.486 1.588-.529 2.244-.105.127.084.317.105.465.148.868.232 1.228.571 1.25 1.122 0 .804-.53 1.608-1.355 1.905Z"/><path fill="#FAFAF8" d="M35.542 54.487c.106.275-.254 1.037-.508 1.08h-.106c-.254-.064.17-.466-.275-.487-.381 0-.254-.297-.17-.508.106-.318.255-.635.34-.974.147-.55.084-1.058-.424-1.46-.212-.17-.402-.53-.297-.805.085-.275.445-.296.741-.275.127 0 .275.021.381.063.868.297 1.757.572 2.625.868.339.106.614.339.783.657.17.296.043.592-.127.825-.169.233-.38.021-.508-.042-.486-.254-.867-.424-1.121.296-.064.19-.34.021-.509.042-.48.057-.755.297-.825.72Z"/><path fill="#EF5E08" d="M38.843 53.301c.106-.804-.042-1.1-.72-1.481-.147-.085-.444-.085-.317-.339.085-.17.297-.085.424.042a.16.16 0 0 0 .084.043c.572-.445.72.275 1.08.402.212.085.296.317.127.487-.212.233-.212.423-.042.677.105.17.063.381-.106.53a.256.256 0 0 1-.318.02c-.148-.063-.296-.19-.212-.38Z"/><path fill="#EE9D1F" d="M32.62 58.742c.064.338.509.233.636.529-.148.063-.254.042-.381-.021-.424-.254-.89-.403-1.397-.36-.106 0-.254.042-.297-.106-.042-.127.064-.212.19-.254.297-.106.276-.296.191-.55-.084-.254-.127-.508-.19-.762-.043-.149-.021-.276.17-.276.147 0 .253.043.274.212 0 .042 0 .106.022.148.042.318-.043.72.127.91.232.255.508-.211.804-.19.042 0 .085.021.148.021 0 .19-.466.19-.212.487.064.106-.084.148-.084.212Z"/><path fill="#EA9D22" d="M29.319 58.742c-.424-.063-.826-.254-1.292-.212-.148.021-.233-.148-.084-.211.698-.276.211-.741.19-1.122 0-.064-.042-.127-.063-.17.02-.148-.021-.317.211-.275.149.021.254.042.254.212v.148c.043.275-.02.635.127.804.19.212.403-.211.678-.19h.19c.021.19-.296.19-.211.402.042.064.148.085.084.19-.148.149-.106.255.106.297.021.19-.085.17-.19.127Z"/><path fill="#F25F08" d="M36.345 53.979c.148 0 .297 0 .445.042.211.064.423.148.233.445-.043.063-.064.148-.106.212-.127.19-.085.55-.36.592-.275.043-.233-.296-.36-.444-.148-.148-.339-.233-.466-.424-.105-.19-.084-.36.106-.486.19-.17.36-.043.508.063Z"/><path fill="#F1F6EE" d="M29.065 56.435c-.275 0-.53-.487-.678.063-.063-.021-.148-.042-.169-.063-.042-.212-.106-.381-.36-.19-.021.02-.085-.022-.127-.043.402-.424-.466-.381-.254-.72.064-.106.212-.19.296-.148.445.275.974.402 1.27.868.022.063 0 .127.022.233Z"/><path fill="#E49E20" d="M38.04 54.804c-.17-.127-.191-.317-.276-.487-.063-.127.042-.402-.19-.38-.276.02.105.296-.106.402-.148-.085-.212-.254-.297-.403-.063-.127-.084-.275.064-.402.148-.127.233-.063.381.021.804.36.931.678.423 1.25Z"/><path fill="#4C6D26" d="M36.347 53.979c-.36-.106-.656-.106-.614.402-.085 0-.148.021-.19.106-.17-.254-.128-.508.105-.699.212-.19.487-.19.72-.02-.106.063-.042.126-.021.21Z"/><path fill="#A59729" d="M29.424 58.318c-.02-.063-.063-.127-.084-.19.529.042.55.042.995.381-.36-.063-.635-.127-.91-.19Z"/><path fill="#AF9723" d="M32.621 58.742c.021-.064.042-.148.064-.212.296-.021.613-.085.867.254-.338-.021-.635-.127-.93-.042Z"/><path fill="#B99A25" d="M29.318 58.742c.085-.022.17-.022.212-.106.233.02.381.233.593.296.063.127.084.254-.127.17-.233-.106-.445-.255-.678-.36Z"/><path fill="#F79D1A" d="M35.733 13.04c.254-.276.296-.635.402-.974.36.296.339.72.318 1.122-.022.275-.106.55-.149.825-.084.53.064.656.593.53.085-.022.148-.043.233-.064.36.042.72.106 1.016.339.148.042.296.063.423.106.127.063.381.042.34.275-.043.211-.276.148-.424.127-.91-.085-1.842-.148-2.752-.254-.72-.085-.89-.19-1.291-.762-.022.02-.043.063-.043.063.339.593-.063.89-.444 1.228-.593.53-1.186 1.08-1.82 1.588-.212.169-.382.19-.615.02-.529-.38-.994-.782-1.248-1.418.38-.38.889-.529 1.333-.804.635-.402 1.334-.72 1.969-1.1.275-.17.508-.36.656-.636.127-.296-.127-.614.063-.91.212.106.255.55.572.423.296-.105.296-.444.317-.72.043-.465.191-.888.572-1.206.254-.212.254-.593.55-.804.19.487-.042.868-.317 1.206-.19.233-.318.424-.212.741.106.318-.127.635-.17.953-.02.063-.063.148-.063.211.021-.02.127-.02.19-.105Z"/><path fill="#F79C19" d="M23.286 17.506c-.021 1.228.232 2.392 1.08 3.345.169.19.105.254-.107.338-.973.36-1.968.741-2.942 1.122-.19.085-.317.043-.317-.211a23.572 23.572 0 0 0-.297-4.065c.847-.338 1.672-.635 2.583-.529Z"/><path fill="#F79C1A" d="M27.053 20.47c-.74.529-1.1.423-1.566-.381-.106-.19-.106-.614-.402-.466-.212.106.063.423.148.635.063.127.17.254.233.381.063.106.296.19.127.36-.127.127-.297.148-.466.085a.887.887 0 0 1-.296-.191c-1.122-.953-1.567-2.921-.974-4.255.085-.17.148-.339.338-.402.128-.042.255-.106.382-.042.148.084.063.233.042.36a2.44 2.44 0 0 0-.042.783c.02.127 0 .296.19.275.17-.021.106-.17.106-.275v-.339c.021-.804.212-1.016 1.08-1.08-.741 1.652-.127 3.049.783 4.382.084.106.36-.084.317.17Z"/><path fill="#824910" d="M26.502 19.072c-.424-.783-.656-1.608-.424-2.497.043-.149.064-.318.233-.34 1.016-.126 1.673-.93 2.583-1.248.212-.085.423-.17.677-.254.127.656.297 1.249.656 1.778.043.127-.063.127-.127.148-.889.19-1.672.593-2.243 1.313-.212.254-.508.296-.805.338-.36.043-.571.127-.338.55.148.255.042.318-.212.212Z"/><path fill="#824910" d="M26.503 19.073c.148 0 .254.02.127-.19-.339-.53-.296-.615.339-.678.402-.043.698-.19.994-.508a3.814 3.814 0 0 1 2.308-1.186c.19.19.36.381.55.55.445.424.445.403-.106.741-1.164.699-2.413 1.165-3.746 1.355-.19 0-.36.127-.466-.084Z"/><path fill="#F9C273" d="M34.186 13.272c.19.297-.085.424-.254.53-1.207.72-2.414 1.439-3.684 2.032-.063-.106-.148-.233-.169-.339-.317-.953-.233-1.164.699-1.524.889-.339 1.778-.656 2.667-1.016.38-.19.635-.106.74.317Z"/><path fill="#F8C271" d="M37.108 14.543a.749.749 0 0 1-.593.19c-.338-.021-.508-.148-.423-.53.148-.719.38-1.417.021-2.137 1.122.106 2.307-.106 3.324.593-.233.19-.487.105-.741.063a4.926 4.926 0 0 0-1.122-.106c-.148 0-.318.043-.276.19.127.467-.127.953.022 1.398.02.17-.043.296-.212.339Z"/><path fill="#FAF8F4" d="M23.284 17.506c-.846.17-1.714.339-2.561.508-.021-.021-.042-.042-.085-.042-.106-.805-.106-.783.72-.974.699-.148 1.397-.317 2.16-.487-.085.381-.149.678-.234.995Z"/><path fill="#F7C271" d="M36.282 10.055c-.084.317-.19.656-.444.868-.445.36-.53.825-.572 1.333v.043c-.042.317-.19.677-.508.677-.275 0-.486-.296-.486-.635.02-.36.211-.635.465-.89.466-.444.868-.91 1.164-1.502.043-.085.064-.212.191-.212.127.043.17.19.19.318Z"/><path fill="#DA9D28" d="M37.257 14.246c-.022-.465.042-.91-.085-1.376-.085-.317.063-.423.402-.423.656-.042 1.249.296 1.905.212.148.233.064.317-.19.254a6.305 6.305 0 0 0-1.398-.17c-.127 0-.338-.105-.36.106-.02.17.191.19.34.212.02.021.02.042.02.085 0 .02-.02.042-.02.042-.128.127-.212.254.02.36.085.042.233.063.17.211-.127 0-.275.043-.381 0-.402-.19-.318.085-.297.297.022.106.022.19-.127.19Z"/><path fill="#E59B1F" d="M38.04 13.76c-.064-.107-.149-.107-.254-.107-.17 0-.233-.084-.233-.232 0-.191.106-.255.275-.255.614.212 1.27.318 1.926.318.17.275.064.487-.212.466-.529-.085-1.037-.043-1.502-.19Z"/><path fill="#F3C06D" d="M39.733 13.484c-.042.127-.127.17-.254.17-.487-.064-.931-.212-1.418-.212-.148 0-.19-.148-.233-.275.021-.021.021-.064.021-.085.635 0 1.313-.021 1.884.402Z"/><path fill="#DAA02C" d="M39.415 14.352c.17.339-.02.423-.296.402-.318-.02-.656-.084-.974-.127-.106-.042-.211.021-.338.021-.445-.02-.508-.127-.36-.571.296 0 .592-.064.868.063-.148.17-.276.149-.34.106.403.127.932.043 1.44.106Z"/><path fill="#F3C26F" d="M39.415 14.352c-.55.17-1.08.127-1.608-.042v-.127c.169-.021.36-.021.529-.042.36.02.74-.021 1.08.211Z"/><path fill="#0A7009" d="M20.236 29.55c0-.761.021-1.524.19-2.264v1.841c0 .17.086.381-.19.424Z"/><path fill="#566102" d="M37.467 14.056c-.063.275-.042.487.318.466.127 0 .254.063.36.084-.106.064-.043.127-.022.212-.338-.085-.698-.106-1.016-.275.043-.106.085-.212.127-.297.043-.063.064-.148.106-.211a.269.269 0 0 0 .127.02Z"/><path fill="#A79B28" d="M27.052 20.47c-.084-.064-.19-.127-.275-.212.254.042.339-.127.381-.339.021-.17-.063-.36.212-.571.021.465.021.825-.318 1.122Z"/><path fill="#526D08" d="M35.732 13.04c-.085.233-.318.275-.55.338.127-.148.254-.275.36-.423.084.021.127.064.19.085Z"/><path fill="#F79C1A" d="M12.659 16.49c1.27.89 2.328 1.99 3.344 3.154.784.91 1.419 1.927 1.969 2.985.38 1.355.38 1.376-1.037 1.397-.36 0-.72-.021-1.08.021-.317.021-.444-.063-.487-.423-.148-1.651-.529-3.239-1.355-4.678a7.206 7.206 0 0 0-1.778-2.054c-.063-.36.233-.317.424-.402Z"/><path fill="#5B9572" d="M10.245 16.32c.635-.084 1.037.424 1.588.593.38.466.889.805 1.27 1.291.783.995 1.27 2.117 1.608 3.345.191.72.255 1.482.381 2.223.022.169.127.444-.19.465-.296.022-.381.17-.381.445 0 .296.17.36.423.36.043 0 .085.042.17.084-.17.191-.34.255-.572.17-.254-.106-.317-.318-.296-.572.042-.995-.17-1.968-.424-2.9-.571-2.074-1.566-3.852-3.535-4.932-.127-.064-.233-.17-.38-.275.126-.127.232-.212.338-.297Z"/><path fill="#F79C19" d="M18.375 22.84c.233-.846.19-1.735.19-2.603 0-.762.064-1.546-.127-2.308-.02-.105-.084-.211-.105-.338 0-.149-.403-.34-.043-.466.254-.085.508-.042.635.296.276.784.402 1.588.487 2.413.148 1.207.127 2.435.127 3.641 0 .276.021.55-.402.508-.339-.02-.783.17-.74-.444 0-.042-.043-.085-.043-.127.021-.19.021-.381.021-.572Z"/><path fill="#5B9572" d="M19.856 22.142v-.402c-.17-.254-.106-.53-.085-.805 0-1.143-.19-2.243-.508-3.344-.021-.275-.042-.53.381-.508.339.02.53.02.635.466.36 1.481.402 2.963.466 4.466.021.508-.064 1.016-.085 1.524 0 .19-.106.233-.233.318-.296.19-.529.423-.19.783.063.063.148.17.021.233-.106.063-.19-.021-.254-.106-.233-.402-.148-.826-.106-1.25.043-.444.127-.91-.042-1.375Z"/><path fill="#F2F2E9" d="M12.66 16.49c-.022.254-.424.106-.424.381-.064-.042-.127-.063-.17-.106-.148-.232-.465-.275-.634-.508.486-.338.846-.084 1.227.233Z"/><path fill="#606B7D" d="M18.374 50.72c.36.042.19.296.148.444a33.962 33.962 0 0 0-.677 2.984c-.043.191-.043.403-.085.593-.424 1.694.444 2.202 1.609 3.006.127.085.275.127.402.212.148.084.36.17.296.402-.042.212-.275.233-.444.254-.487.042-.995-.064-1.461-.148-.91-.19-1.842-.042-2.752-.19.021-.488.127-.974.212-1.461.17-.805.085-1.63.042-2.456-.042-.995 0-1.99-.021-3.006 0-.17-.021-.338.063-.487.826.064 1.63.149 2.456-.042a.988.988 0 0 0 .212-.106Z"/><path fill="#8C96A5" d="M15.706 50.867c.106.148.064.318.085.487.042 1.312-.042 2.625.085 3.937.106.953-.254 1.884-.297 2.837 0 .084-.106.106-.19.127h-.043c-.663-.029-.924-.36-.783-.995.19-.826.275-1.63.19-2.477-.148-1.418-.19-2.836-.274-4.318.444.19.825.338 1.227.402Z"/><path fill="#0A7009" d="M15.305 50.529c.698-.043 1.397.127 2.095.106.424-.021.678-.064.72-.55.021-.212-.042-.466.148-.636-.084.297.275.572.043.89-.043.063.105.084.19.063.085-.021.064-.36.233-.085.085.127-.021.233-.148.297l-.19.127h-2.562c-.212-.022-.423.02-.53-.212ZM18.861 46.358a3.6 3.6 0 0 1 .402-1.481c-.127.508-.084 1.037-.402 1.481ZM18.648 47.353c0-.338.022-.677.191-.995-.064.34.19.72-.19.995ZM18.459 48.348c0-.338.042-.677.19-.995-.063.34.191.72-.19.995ZM18.268 49.237c0-.317.063-.614.19-.889-.021.297.085.635-.19.89Z"/><path fill="#824910" d="M10.16 9.124c-.084-.043-.232-.043-.232-.148 0-.106.148-.085.233-.106.338-.085.614.063.846.275.34.275.55.656.657 1.08.084.296.317.338.55.275.275-.064.085-.275.063-.403-.02-.296-.084-.592-.127-.867-.105-.614-.148-1.144.381-1.652.445-.444.509-1.121.509-1.757 0-.296.105-.423.38-.444 1.355-.148 2.71-.339 4.086-.19 1.715.169 2.117.507 2.392 2.2.064.382.064.784.042 1.186-.211-.465-.465-.868-.973-.995.063-.444.36-.232.592-.19.043.021.085.085.127.085.17 0 .064-.106.043-.127-.254-.487-.678-.55-1.165-.572-.211 0-.508.17-.571-.254-.021-.106-.212-.063-.212.085a5.002 5.002 0 0 1-.444 1.757c-.064.148.084.232.148.338.339.445.656.91.826 1.44.042.444-.022.529-.424.508-.19 0-.339-.085-.508-.148-.487-.19-.699-.127-1.037.338-.043.085-.064.17.042.254.36.275 1.482.36 1.863.149.254-.127.381-.36.466-.614.465.084.846.38 1.29.529.234.063.128.36.086.571-.212 1.27-.72 2.456-1.334 3.578-.233.466-.72.593-1.164.74-.19.212-.466.149-.699.149-.846-.042-1.65-.275-2.413-.635-.127-.064-.254-.148-.317-.296-1.144-.741-1.906-1.779-2.308-3.07-.063-.212-.148-.36-.423-.254-.085.042-.19 0-.275-.021-.741-.19-1.63-1.376-1.567-2.138.021-.17-.042-.423.233-.487.021.021.064.021.085.021.846.106 1.1.762 1.44 1.503-.128-.592-.403-.974-.763-1.312-.19-.127-.339-.212-.423-.381Z"/><path fill="#F79C1A" d="M10.056 6.202c-.233.064-.275.254-.275.466-.022.423 0 .847.063 1.27.021.17.085.381-.233.36-1.228-.042-2.434-.17-3.556-.656-.212-.085-.423-.19-.508-.424.19-.508.635-.783 1.08-1.016 1.143-.592 2.35-.931 3.577-1.249 3.345-.846 6.752-1.037 10.182-.91.931.042 1.884.127 2.73.572.255.127.572.19.593.571-.19.466-.614.678-1.016.89-.698.38-1.44.634-2.18.888-.297.106-.402.021-.424-.254-.148-1.249-1.016-1.65-2.116-1.799-1.61-.233-3.197-.127-4.784.233a7.867 7.867 0 0 0-3.133 1.058Z"/><path fill="#542A05" d="M14.12 15.22c1.08.529 2.223.847 3.43.783.148.021.338 0 .402.212-.022.36-.19.571-.572.592-.402.276-.847.149-1.27.085-.55-.064-1.037-.296-1.46-.635-.276-.233-.657-.381-.72-.804a.305.305 0 0 1 .19-.233Z"/><path fill="#824910" d="M18.585 10.076c-.148-.318-.296-.614-.423-.932a.737.737 0 0 1 .127-.804c.211-.212.529-.254.762-.085.423.276.72.699.995 1.122.063.148 0 .275-.148.297-.424.105-.805.254-1.165.508-.042.063-.127-.021-.148-.106Z"/><path fill="#824910" d="M18.586 10.076c.445-.318 1.037-.339 1.482-.699.17.762.17 1.525 0 2.308.042-.339-.043-.55-.445-.572-.402-.02-.656-.296-.952-.529-.043-.17-.064-.339-.085-.508Z"/><path fill="#542A05" d="M19.537 7.324c-.232-.02-.444-.063-.592.19-.127.022-.254-.084-.381.107.402.084.804.19.973.635-.867-.466-1.376-.339-1.65.402-.276-.148-.318-.36-.17-.635.021-.042.021-.085.063-.127.149-.233 0-.656.36-.741.466-.148.953-.148 1.397.17Z"/><path fill="#824910" d="M16.3 10.796c-.043-.445.444-.72.91-.53.211.085.402.212.635.233.317.021.465-.084.423-.402.19.572 0 .91-.593.974-.486.021-.931-.19-1.376-.275ZM13.907 15.453c.17.275.487.423.698.677.318.487.53 1.038 1.144 1.292.698.275 1.058.211 1.524-.402a.6.6 0 0 1 .211-.191c.233.36.53.677.657 1.1.042.149-.064.255-.149.34a.904.904 0 0 1-.698.317c-1.016.042-1.948-.085-2.689-.89a9.949 9.949 0 0 0-2.116-1.756c-.17-.106-.233-.212-.233-.402.021-.53 0-1.037 0-1.694.487.699 1.016 1.207 1.651 1.609Z"/><path fill="#F8F9F4" d="M18.184 21.76v.424a22.585 22.585 0 0 0-2.477-3.366c.233-.084.402.022.593.064.402.106.74.318 1.164.381.17.021.296.148.339.318.19.74.402 1.439.38 2.18Z"/><path fill="#542A05" d="M17.485 16.829c-.466 1.058-1.694 1.206-2.413.254-.212-.275-.445-.572-.445-.953.847.53 1.757.826 2.773.678 0 0 .042 0 .085.02Z"/><path fill="#AED0AE" d="M18.184 21.761c-.148-.656-.296-1.334-.465-1.99-.064-.233-.148-.402-.445-.402-.402 0-.698-.233-.995-.466.593 0 1.207.127 1.757-.254.148-.106.19 0 .19.148 0 .974.128 1.97-.042 2.964Z"/><path fill="#0A7009" d="M19.242 17.59c.339.318.318.784.381 1.186.148.995.297 1.969.212 2.985-.212-.021-.19-.19-.19-.339 0-.296-.022-.592 0-.889.042-.783-.191-1.545-.34-2.307-.042-.212-.042-.424-.063-.635Z"/><path fill="#231814" d="M11.855 9.78c-.085-.36-.19-.72-.276-1.08-.127-.508-.148-.995.191-1.44.212-.274.254-.676.487-.952.106-.106.233-.254.36-.19.17.063.106.254.084.38-.042.36-.148.763-.423.975-.656.508-.466 1.185-.423 1.841.042.127.084.297 0 .466Z"/><path fill="#542A05" d="M10.161 9.124c.72.296 1.037.889 1.27 1.566.043.106.127.275-.084.318-.19.042-.19-.127-.233-.254-.212-.678-.614-1.186-1.27-1.461.127 0 .254-.042.317-.17Z"/><path fill="#6CC16C" d="M15.094 26.376c-.085-.402.148-.487.55-.487 1.249-.021 2.498-.106 3.725-.148.212 0 .509-.106.466.296-.042.296.19.74-.402.762-1.058.021-2.096.085-3.154.127-.212 0-.424.021-.635.042-.53.064-.572.043-.55-.592Z"/><path fill="#33642F" d="M38.25 53.069c0 .148-.105.233-.232.254-.127.021-.212-.064-.233-.19 0-.149.085-.233.233-.255.127 0 .212.064.233.19Z"/><path fill="#824910" d="M14.48 10.986c-.424.022-.826-.042-1.186-.296-.423-.296-.402-.804.085-1.016.677-.317 1.355-.296 2.032.021.233.106.445.275.402.593-.042.296-.232.444-.487.55-.275.127-.571.17-.846.149Z"/><path fill="#542A05" d="M16.003 7.134c-.127.084-.339.106-.106.36.339.338.296.804.381 1.248.021.127-.042.297-.212.34-.127.02-.169-.064-.169-.17.042-.55-.381-1.143-1.1-1.397.126.063.19.063.232.084.148.064.381.064.36.254-.021.212-.254.149-.402.149-.614-.022-1.059.211-1.27.783a.338.338 0 0 1-.149.19c-.613.085-.74-.042-.465-.614.127-.275.317-.529.614-.677.106-.063.296-.063.275-.233-.042-.148-.233-.17-.36-.233-.17-.063-.339.064-.508.085-.021-.212.106-.233.233-.296.74-.17 1.503-.19 2.244-.043.105.043.275.021.402.17Z"/><path fill="#231814" d="M14.014 11.727c.148-.444.444-.571.868-.465-.043.211-.254.042-.318.17-.17.528 2.794 1.121 3.959.782.148-.042.296-.106.465-.17 0 .657-.36 1.144-1.016 1.398-1.46.55-3.048-.148-3.556-1.609-.127-.338-.275 0-.402-.106ZM13.547 8.975c.212-.931.889-1.164 1.8-1.08-.276-.317-.593-.253-.953-.274.423-.233.783-.149 1.164.19.317.275.423.656.508 1.037.063.233-.106.106-.19.064-.128-.381-.233-.762-.742-.804-.55-.043-.994.084-1.29.592-.064.127-.064.339-.297.275Z"/><path fill="#387037" d="M16.829 14.225a3.116 3.116 0 0 1-1.101-.275c-.085-.042-.254-.063-.19-.212.063-.148.169-.084.275-.042.402.19.846.275 1.29.275.107 0 .297-.085.276.148-.021.17-.17.106-.275.127-.064 0-.127-.02-.275-.02Z"/><path fill="#231814" d="M14.754 8.89c-.19-.042-.275-.147-.275-.338 0-.212.148-.275.317-.275.19 0 .296.127.275.317 0 .19-.127.297-.317.297ZM18.988 8.658c-.021.19-.148.275-.339.275-.19-.021-.296-.148-.275-.318.02-.169.148-.296.338-.275.17 0 .276.127.276.318Z"/><path fill="#824910" d="M16.406 10.647c.36-.19.53-.127.741.127-.254-.042-.444-.084-.74-.127Z"/><path fill="#F8F7F6" d="M14.71 11.981c.742.297 1.356.487 2.012.55.635.064 1.27.064 1.969-.084-.424.741-1.038.932-1.736.89-.932-.043-1.736-.318-2.244-1.356Z"/><path fill="#5B9572" d="M88.59 44.792v-.276c-.296-.486-.253-1.058-.317-1.608a23.717 23.717 0 0 1-.127-3.874c.064-.931.127-1.863.17-2.816.084-1.968-.445-3.789-1.25-5.546-.36-.762-.783-1.481-1.206-2.222-.275-.445-.614-.678-1.164-.635-.318.02-.635.02-.995-.085.402-.042.762 0 1.122-.021.465-.021.677-.212.74-.677.043-.297-.042-.509-.36-.572-.91-.233-1.63-.699-1.99-1.609-.063-.17-.21-.275-.38-.338-.402-.149-.783-.297-1.207-.403-.423-.105-.762.106-1.1.297-.19.105-.085.233.042.275.677.17.783.74.995 1.27.868 2.286 1.714 4.593 2.582 6.88.085.233.19.444.254.677.17.614.064.826-.529 1.037-1.228.424-2.455.847-3.683 1.291-1.122.403-2.223.805-3.345 1.165-.571.19-.656.402-.72 1.016-.211 1.863.106 3.725.17 5.567.042.995.042 1.969-.042 2.964a18.485 18.485 0 0 0 .084 3.746c.085.678.064 1.355.148 2.033.085.571.17.698.72.698 1.164.021 2.329.021 3.493 0 .53 0 .635-.106.762-.635.381-1.63.402-3.26.17-4.932-.233-1.651-.022-3.281.486-4.848.19-.613.19-1.143-.063-1.735-.403-.974-.805-1.948-1.016-2.985.571 1.842 1.397 3.598 1.99 5.44.465 1.46.613 2.985.867 4.488.254 1.566.741 3.09 1.25 4.593.105.275.253.508.57.508 1.292 0 2.605.106 3.896-.063.55-.085.614-.19.55-.741-.17-1.651-.677-3.239-1.122-4.827-.254-.825-.529-1.63-.444-2.497Z"/><path fill="#42373A" d="M88.59 44.792c-.36.148-.19.444-.148.656.297 1.651.91 3.239 1.25 4.869.148.635.232 1.312.338 1.947.043.275-.042.381-.36.423-1.312.149-2.625.043-3.937.106-.254 0-.381-.084-.466-.317-.677-1.948-1.249-3.938-1.481-6.012-.233-2.201-.974-4.234-1.82-6.266-.319-.783-.615-1.566-.826-2.392-.043-.148-.043-.402-.255-.338-.211.063-.127.296-.084.465a26.188 26.188 0 0 0 1.1 3.048c.212.487.233.91.064 1.44a11.632 11.632 0 0 0-.445 5.652c.233 1.524.043 3.027-.296 4.509-.042.19-.148.296-.38.275-1.292-.021-2.604-.021-3.896-.021-.233 0-.36-.085-.36-.34-.063-1.714-.36-3.407-.296-5.122.021-.91.127-1.8.106-2.71-.042-1.545-.17-3.069-.275-4.593-.064-.825.084-1.651.105-2.477 0-.296.276-.38.509-.465 1.82-.635 3.64-1.27 5.44-1.905.614-.212 1.227-.424 1.82-.657.572-.211.72-.486.508-1.058-.529-1.482-1.1-2.963-1.63-4.445-.465-1.27-.952-2.54-1.397-3.832-.17-.465-.487-.698-.952-.72.825-.698 1.587-.084 2.392.106.127.043.169.149.19.254.318.974 1.1 1.398 1.99 1.673.212.063.445.063.339.36-.085.253-.022.635-.466.635h-1.355c-.127 0-.296-.043-.317.127-.022.19.148.148.275.19.36.064.74.127 1.1.064.487-.064.784.127 1.017.529 1.058 1.778 2.01 3.62 2.35 5.694.169.995.126 1.99.063 3.006-.106 1.566-.212 3.133-.064 4.7.064.761.106 1.545.212 2.307.021.211.064.36.318.317.084-.698-.085-1.376-.127-2.053-.106-1.418-.191-2.88 0-4.276.486-3.641-.466-6.901-2.456-9.907-.233-.36-.402-.677-.233-1.143.148-.402.127-.868.106-1.312-.021-.403.064-.572.53-.508a10.76 10.76 0 0 0 1.84.105c.742 0 .953-.169 1.144-.846.063-.233 0-.572.445-.36.126.063.211-.127.232-.254.19-.699.339-1.376.318-2.117-.021-.55-.402-.826-.805-1.08-.254-.148-.338-.317-.338-.613-.043-1.525-.36-2.985-.847-4.425-.423-1.249-1.228-2.18-2.434-2.773-.868-.423-1.736-.868-2.413-1.587-.424.02-.254.254-.17.444.106.212.445.297.36.593-.063.212-.275.36-.402.55-.318.445-.593.932-1.037 1.27-.043.17-.212.212-.34.297-.084.063-.253.106-.126.254.233.063.317.19.19.423-.444.953-.783 1.948-1.08 2.964-.084.296-.253.423-.57.38-.911-.084-1.842-.19-2.753-.253-.74-.064-.783-.127-.698-.868a21.49 21.49 0 0 1 .593-3.493c.105-.381.19-.762.635-.889.063-.021.084-.085.106-.148-.106-.275-.34-.233-.55-.212-.467.127-.932.296-1.398.402-.974.254-1.694.847-2.16 1.736-.422.783-.761 1.609-1.079 2.434-.084.212-.127.381-.423.297-.19-.064-.381.063-.487.233-.381.614-.508 1.29-.233 1.968.064.17.021.276-.021.402-.233.7-.614 1.355-.762 2.075-.021.148-.148.17-.233.212-.17.105-.38.211-.466.402-.275.508-.38 1.1-.931 1.482-.254.19-.127.635-.042.973.233.805.529 1.588.846 2.371.085.233.17.381-.148.55-.317.149-.466.488-.275.869.17.084.317.042.402-.149.127-.317.402-.444.699-.529 2.773-.931 5.567-1.884 8.34-2.815.339-.106.656-.275.995-.36.487-.127.677-.042.826.402.91 2.583 1.926 5.123 2.857 7.705.254.699.233.741-.444.995-3.07 1.122-6.14 2.16-9.23 3.239-.698.233-.762.19-1.016-.508-.19-.487-.254-1.016-.635-1.397-.127-.042-.254-.021-.338.106-.127.338.105.592.169.889.063.233.233.423.19.762-.677-.212-1.333-.424-1.99-.635a66.165 66.165 0 0 1-3.45-1.186c-.19-.063-.402-.169-.614-.127-.148.064-.317.127-.211.339 2.074.804 4.233 1.397 6.308 2.18 1.058.402 1.884 0 2.773-.317.38-.127.444-.106.402.317-.148 1.694 0 3.366.106 5.06.085 1.312.106 2.624 0 3.937-.085 1.016.021 2.01.085 3.006.063.868.148 1.736.232 2.603.022.254-.042.381-.317.318-.424-.064-.487.148-.466.508.085 1.44.148 2.879.19 4.318.022.762.064 1.524-.105 2.265.211.254.38.212.487-.127.148-.465.19-.952.148-1.44-.106-1.29-.19-2.582-.19-3.873 0-.17 0-.36-.022-.53-.063-.613-.042-.655.55-.655 1.419-.022 2.816.148 4.234.105.339-.02.466.149.445.487-.106.974.169.995-.995.974-.72 0-1.419.021-2.138-.085-.254-.042-.656-.105-.678.254-.042.403.36.381.635.403.932.063 1.842.169 2.773.063.34-.042.318.17.297.402a22.089 22.089 0 0 1-.466 2.921c-.212.953-.127 1.906-.021 2.858.064.508 0 .572-.508.657-.445.063-.868-.085-1.313-.064-.232 0-.571-.085-.613.233-.043.339.296.402.592.423.508.021 1.016 0 1.546.042-.635.085-1.292.127-1.906-.105-.444-.148-.846-.148-1.29-.064-1.588.36-3.091.254-4.637-.296-.063-.021.022-.085-.02-.021 0 0 0 .02.041.02 1.123.403 2.266.53 3.43.509a.958.958 0 0 0 .339-.064c.127-.063.232-.148.211-.296-.021-.127-.106-.19-.211-.254-.149-.063-.318-.042-.487-.042a9.162 9.162 0 0 1-3.832-.741c-.148-.064-.36-.085-.36-.275.021-.212.254-.233.424-.233 1.016-.043 2.032-.276 3.027-.466.465-.085.529-.19.423-.593-1.249.254-2.498.487-3.789.614-.74.064-.974.699-.593 1.313.466.72 1.186 1.1 1.99 1.27.931.211 1.905.444 2.837.275 1.143-.19 2.222-.318 3.365.021.36.106.805 0 1.207 0 .296 0 .445-.127.53-.444.126-.572.168-1.144.063-1.694-.212-1.037-.085-2.053.127-3.07.296-1.46.592-2.963.444-4.423-.17-1.694.381-3.345.233-5.017-.106-1.186-.275-2.35-.19-3.535a11.36 11.36 0 0 1 .635-3.049c.402.953.677 1.884.825 2.837.296 1.841.487 3.683 1.08 5.461.17.487.338.974.465 1.482.085.296.424.614-.042.91-.106.064 0 .233.042.36.466 2.16.932 4.34.91 6.562 0 .276-.063.508-.211.72-.423.677-.826 1.355-1.016 2.138-.148.614.212 1.143.826 1.164.952.021 1.905 0 2.878 0 .127 0 .212-.042.254-.17.064-.38-.233-.317-.444-.338a37.38 37.38 0 0 0-2.18 0c-.763 0-.974-.275-.678-.995.296-.74.699-1.418 1.143-2.074.212-.318.424-.614.021-.974-.169-.17-.148-.466-.148-.698-.085-1.63-.423-3.218-.72-4.806-.105-.55-.084-.614.466-.592 1.291.042 2.583-.106 3.874-.106.19 0 .466-.085.572.17.127.295.105.634 0 .952-.064.148-.233.148-.382.148-1.058.042-2.137.212-3.196.021a.917.917 0 0 0-.339.021c-.148.043-.211.127-.233.275 0 .149.085.233.212.297.17.063.36.063.53.063h2.815c.614 0 .698.064.635.678-.106 1.249-.19 2.476-.466 3.704-.063.339-.063.678.042.995.191.72.34 1.46.34 2.202 0 .571-.107.656-.7.677-.232 0-.465-.021-.677.021-.211.042-.38.127-.233.402.614.19 1.228.148 1.82-.106.234-.105.34-.317.34-.592 0-.678-.022-1.376-.233-2.011-.276-.826-.19-1.61-.043-2.435.34-1.884.381-3.768.276-5.673-.022-.17.02-.38-.254-.36-.17 0-.17-.127-.17-.232-.106-2.096-.889-4.044-1.376-6.033-.084-.403-.148-.784-.233-1.186-.063-.17-.063-.338-.211-.444Z"/><path fill="#84A4B4" d="M72.608 35.647c.212.55.445 1.122.614 1.693.148.424.36.55.804.403 1.757-.636 3.535-1.228 5.314-1.863 1.46-.508 2.92-1.038 4.381-1.546.593-.211.635-.254.403-.846-.995-2.71-1.99-5.398-2.985-8.108-.148-.402-.423-.529-.847-.38-1.947.677-3.916 1.333-5.885 2.01-1.227.424-2.455.826-3.683 1.25-.318.105-.656.19-.677.634 0 .148-.17.127-.275.127.042.106.232.106.19.275.212.128.275.34.36.572.593 1.693 1.27 3.366 1.863 5.06.105.274.169.55.423.719Z"/><path fill="#606B7D" d="M75.529 60.075c.02.233-.043.381-.318.424-.974.169-1.926.444-2.9.465h-.148c-.296.085-.74 0-.783.424-.043.36.402.317.614.423 1.312.55 2.667.826 4.106.72.149 0 .339-.021.36.17.021.232-.19.21-.36.21-1.397.064-2.752-.19-4.085-.677.17.255.466.466.825.572 1.122.318 2.244.423 3.409.402.169 0 .317-.042.465-.084.635-.212 1.228-.297 1.884-.022.593.233 1.25.106 1.884.106.148 0 .254-.106.254-.233.021-.211-.17-.148-.275-.148h-1.567c-.148 0-.296-.021-.423-.063-.085-.022-.19-.106-.17-.212.022-.127.149-.106.234-.106.423-.063.825.085 1.249.085h.338c.762-.042.784-.064.656-.826-.254-1.46.043-2.879.318-4.318.106-.572.17-1.143.233-1.715.021-.254-.127-.36-.36-.317-1.058.212-2.096-.021-3.154-.021-.17 0-.36-.022-.36-.233.021-.212.233-.148.36-.148 1.016.127 2.032.063 3.048.105.36 0 .53-.084.466-.465-.021-.106 0-.233 0-.339.014-.635-.304-.953-.953-.953-1.355-.02-2.71-.063-4.085-.084-.487 0-.593.106-.487.571.042.233.063.487.063.72.022 1.291.064 2.583.19 3.874.043.465-.02.931-.105 1.397-.021.17-.085.487-.402.212.042 0 .021.042-.021.084ZM88.676 63.864c0-.17.042-.296.233-.275h.338c1.207 0 1.228 0 1.165-1.207-.022-.486-.064-.973-.233-1.418-.254-.72-.148-1.418-.022-2.117.212-1.1.276-2.244.34-3.365.02-.34-.085-.445-.424-.445a91.322 91.322 0 0 1-3.408 0c-.17 0-.466.106-.424-.212.022-.254.297-.169.445-.148 1.164.212 2.328-.021 3.493-.021.254 0 .317-.085.338-.339.064-1.227.064-1.27-1.164-1.206a81.445 81.445 0 0 1-3.937.084c-.233 0-.339.022-.275.318.317 1.418.571 2.879.762 4.318.063.487.084.995.127 1.503 0 .106-.064.275.084.296.635.064.212.36.106.53-.55.847-1.1 1.672-1.376 2.646-.17.55.127.847.699.825.825-.02 1.65-.02 2.476-.02.17 0 .34-.022.381.21.106-.084.191-.02.276.043Z"/><path fill="#824910" d="M82.346 14.225c.741-.423.974-1.27 1.567-1.82.105-.106 0-.17-.064-.233a7.785 7.785 0 0 1-.423-.403c-.127-.148-.212-.317.084-.402-.042-.063-.084-.106-.127-.17-.698-.698-.973-1.63-1.27-2.54-.063-.19.064-.296.148-.444.276-.444.255-.995-.084-1.355-.254-.296-.572-.36-.868-.105-1.228 1.08-3.768 1.1-5.144.063-.085-.063-.17-.106-.254-.17-.381-.232-.466-.211-.635.234-.212.55-.381 1.1-.74 1.566-.191.254.105 1.249.38 1.397.254.127.466-.085.805-.127-.255.19-.53.296-.509.572.022.275.212.465.403.656.72.825 1.587 1.418 2.667 1.587 1.08.17 2.032-.042 2.71-1.016-.212.635-.742.89-1.313 1.059-.19.063-.381.063-.572.106-.508.106-.55.232-.317.698.444.89 1.545 1.397 2.604 1.207.36-.021.72-.064.952-.36Z"/><path fill="#4D342D" d="M82.345 14.225c-.698.233-1.397.444-2.138.19-.635-.211-1.1-.613-1.376-1.227-.085-.212-.106-.34.212-.36.571-.021 1.122-.148 1.587-.508.276-.212.466-.487.593-.805.043-.106.043-.19-.063-.254-.106-.063-.19 0-.233.085-.254.593-.762.91-1.376 1.058-.72.17-1.418.064-2.096-.232-.804-.34-1.46-.89-1.99-1.588-.254-.339-.19-.508.17-.635.148-.064.423-.042.338-.296-.084-.233-.296-.043-.465-.043-.212 0-.424.466-.593.064-.17-.381-.635-.762-.212-1.25.445-.528.593-1.206.805-1.904.593.444 1.206.846 1.905 1.037 1.249.317 2.434.233 3.556-.424.064-.042.148-.063.212-.127.296-.338.571-.486.91-.063.297.381.297 1.037-.042 1.27-.275.19-.17.296-.106.53.233.761.572 1.481.953 2.18.084.169.169.36.444.275.063-.212-.085-.339-.148-.487-.339-.635-.699-1.27-.847-2.032.868.19 1.609.042 1.99-.847.402-.953.063-1.736-.699-2.392.19-.127.381-.212.55-.339.509-.338.572-.846.191-1.312-.444-.53-1.037-.635-1.672-.593-.466.021-.931.064-1.397.148-.275.043-.381-.042-.466-.275-.148-.36-.402-.656-.614-.995-.232-.36-.55-.444-.952-.402-2.371.233-4.467 1.122-6.224 2.773-.296.275-.38.53-.275.89.127.444.402.888.424 1.333.02.444-.593.677-.741 1.122a.662.662 0 0 1-.106.211c-.233.53-.318 1.101.042 1.567.381.487.974.444 1.482.317.466-.105.72-.063.974.403.614 1.121 1.545 1.883 2.751 2.328.106.212.403.042.509.233.169.254.232.572.38.825.55.932 1.884 1.503 2.922 1.228.127-.02.275-.02.296-.19.19-.212.699-.043.635-.487Z"/><path fill="#433832" d="M62.193 62.044c.17-.254-.063-.36-.19-.487-1.016-1.058-2.244-1.545-3.705-1.524-.19 0-.338.042-.275-.233.19-.825.212-1.651.19-2.582 1.017.72 2.075 1.016 3.24.91.507-.042.973-.19 1.439-.381.317-.127.296-.297.148-.572-.487-.868-1.651-1.397-2.815-1.27-.635.064-1.292.148-1.863.487-.212.127-.233.042-.275-.148-.085-.487-.17-.953-.254-1.46.36.063.698.211 1.058.275 1.186.19 2.202-.127 3.133-.847.402-.318.402-.466-.064-.678-1.376-.656-2.73-.571-4.022.254-.127.064-.211.212-.402.19.043-.444.297-.74.635-.973.106-.063.276-.127.17-.296-.106-.19-.254-.085-.381 0-.297.17-.487.423-.699.74-.233-.232-.444-.465-.74-.592-.107-.042-.234-.085-.297.042-.064.127.021.212.127.276.254.148.508.296.656.635-.593-.212-1.122-.424-1.715-.466a4.135 4.135 0 0 0-2.392.614c-.317.19-.338.338 0 .55 1.292.72 2.625.847 4.022.36.36-.127.508-.106.572.296.063.424.17.847.254 1.313-1.291-.614-2.561-.614-3.831-.17-.445.149-1.017.381-1.059.826-.021.423.572.614.953.783 1.354.593 2.667.55 3.958-.338a9.7 9.7 0 0 1-.212 2.37c-.042.212-.211.212-.36.254a4.918 4.918 0 0 0-2.455 1.482c-.127.127-.339.254-.106.487.318.106.466-.17.635-.339.91-.846 1.969-1.354 3.239-1.312a4.42 4.42 0 0 1 3.006 1.291c.212.148.339.508.677.233Z"/><path fill="#C27D46" d="M42.824 62.446c0 .487.36.635.741.762.53.17 1.08.212 1.63.233 1.566.106 3.133.19 4.7-.17.57-.126 1.164-.296 1.227-1.037-.402-.973-1.164-1.566-2.117-1.926-2.01-.783-3.725-.17-5.292 1.122-.338.275-.698.572-.889 1.016Z"/><path fill="#433733" d="M42.825 62.446c.529-.402.91-.952 1.46-1.333 1.503-.995 3.049-1.376 4.784-.657.678.297 1.25.72 1.694 1.334.106.148.17.36.36.444.36-.169.127-.38 0-.55-.805-1.143-1.927-1.778-3.302-1.884-.509-.042-.636-.211-.636-.677 0-.699-.084-1.418-.02-2.202.782.657 1.65.868 2.56.995.551.064 1.101 0 1.652-.106.127-.02.317 0 .36-.19.02-.17-.127-.254-.233-.36-1.101-1.037-2.392-1.44-3.895-1.1-.402.084-.466-.022-.381-.36.106-.466.042-.953.211-1.44.932.55 1.927.762 2.985.572.17-.022.36 0 .423-.17.064-.19-.127-.317-.254-.444-.762-.72-1.65-.974-2.688-.847-.021-.254.508-.233.275-.445-.275-.254-.508.106-.762.233-.17-.233-.296-.529-.571-.698-.106-.064-.233-.148-.339-.022-.127.149.021.233.127.297.106.084.212.148.275.296a4.313 4.313 0 0 0-2.053-.36c-.572.043-1.1.19-1.609.508-.275.17-.275.34-.063.572.423.445.973.614 1.566.677.762.085 1.524 0 2.286-.254-.063.572-.127 1.101-.19 1.694-1.291-.868-2.562-.72-3.832-.064-.465.254-.487.402-.042.72 1.058.74 2.223.762 3.45.508.127-.021.233-.085.381-.127.043.847-.042 1.672.106 2.498.043.296-.17.254-.338.275-1.546.254-2.774 1.037-3.747 2.244-.106.148-.275.296 0 .423Z"/><path fill="#C47D44" d="M62.193 62.044c-.233.085-.317-.106-.423-.212-1.905-1.947-4.763-1.926-6.626.043-.127.127-.212.296-.423.296.127.783.211.889 1.122 1.08 1.82.38 3.64.55 5.461 0 .635-.255.89-.55.89-1.207Z"/><path fill="#4B4447" d="M66.385 35.732c-.02-.148.127-.17.19-.254-.19-.297-.422-.572-.486-.932-.064-.275.021-.36.275-.317.466.084.932.106 1.376.084.106-.148.318-.19.424-.338-.403-.064-.805-.17-1.186-.17-.974.022-1.778-.36-2.54-.91-.424-.296-.868-.55-1.313-.825a.844.844 0 0 0-.508-.149c-.402 0-.508.127-.338.508.487 1.186.995 2.371 1.503 3.557.254.571.614.677 1.164.36.275-.17.55-.34.826-.53.19-.127.402-.169.613-.084Z"/><path fill="#494248" d="M68.184 33.975c-.17.042-.444-.064-.423.275.106.19.296.148.466.19.931.127 1.862.19 2.794.254.508.043.868.17.995.699.042.148.084.318.275.36.063-.127.17-.127.275-.127-.74-2.032-1.482-4.043-2.201-6.075-.064-.191-.106-.403-.403-.276-.02.445.212.826.36 1.228.445 1.228.89 2.456 1.355 3.705a64.578 64.578 0 0 1-3.493-.233Z"/><path fill="#433C3C" d="M58.828 39.584c0 .106.042.191.127.212.148.043.19-.063.254-.17.254-.423.53-.804.847-1.185a7.102 7.102 0 0 1 2.392-1.714c.148-.064.38-.085.296-.297-.106-.254-.296-.084-.444-.02a7.329 7.329 0 0 0-3.324 2.878c-.063.127-.105.233-.148.297Z"/><path fill="#494142" d="M58.088 36.621c.042.063.063.127.127.148.127.085.212-.021.296-.084a7.56 7.56 0 0 1 1.82-1.207c.34-.148.678-.275 1.038-.423.106-.043.233-.106.19-.233-.042-.17-.19-.149-.317-.106-1.1.38-2.096.931-2.964 1.715-.084.042-.127.105-.19.19Z"/><path fill="#463B3D" d="M52.18 48.39c0 .085-.02.17-.02.233 0 .106-.022.254.126.275.19.022.212-.127.212-.254.063-.783.17-1.566.445-2.307.042-.127.105-.275.148-.402.042-.148.19-.318-.022-.424-.232-.105-.254.149-.317.276a9.689 9.689 0 0 0-.572 2.603Z"/><path fill="#413D3D" d="M54.912 40.876c0 .127.021.19.127.211.106.021.19-.042.233-.127.127-.254.254-.529.402-.783a6.89 6.89 0 0 1 .932-1.291c.084-.106.232-.212.063-.36-.19-.148-.254.042-.339.127a8.856 8.856 0 0 0-1.354 2.053.464.464 0 0 1-.064.17Z"/><path fill="#493D3E" d="M57.05 43.5c-.021.149 0 .254.127.297.148.042.212-.085.233-.19.148-.742.445-1.419.783-2.075.043-.106.106-.233-.021-.297-.106-.063-.212-.02-.275.085-.402.699-.656 1.44-.847 2.18Z"/><path fill="#463C3E" d="M47.608 48.221c0 .233-.02.36.128.381.148.021.19-.084.211-.212.17-.677.318-1.333.487-2.01.042-.128.021-.233-.106-.276-.148-.042-.212.043-.233.17-.169.677-.36 1.376-.486 1.947Z"/><path fill="#453C3D" d="M48.794 44.41c-.02.128.022.191.106.213.148.042.212-.064.254-.17.233-.508.445-.995.678-1.503.063-.148.148-.296.19-.444.043-.085.043-.19-.063-.254-.085-.043-.17-.022-.212.063-.402.678-.677 1.397-.953 2.096Z"/><path fill="#484546" d="M56.562 34.25c-.127.063-.275.106-.423.19a4.45 4.45 0 0 0-1.207.953c-.063.085-.19.148-.063.275.106.106.19.085.296-.02a5.145 5.145 0 0 1 1.482-1.06c.106-.042.148-.105.127-.232-.021-.064-.085-.106-.212-.106Z"/><path fill="#4F4747" d="M60.14 32.895c-.508.064-1.016.212-1.524.36-.106.043-.275.085-.212.254.043.148.17.148.318.106.487-.127.995-.275 1.482-.38.148-.043.254-.086.233-.234-.043-.127-.17-.17-.297-.106Z"/><path fill="#413E3F" d="M53.451 43.945c0 .085.021.148.106.19.106.043.212 0 .233-.105.127-.445.317-.847.508-1.249.042-.064.021-.17-.064-.212-.105-.042-.19-.02-.254.085a5.34 5.34 0 0 0-.529 1.291Z"/><path fill="#484443" d="M50.87 40.791c.042-.042.126-.084.169-.127.211-.296.402-.593.592-.889.064-.085.085-.17 0-.254-.084-.085-.19-.085-.254.021-.233.339-.465.656-.677.995-.064.127 0 .212.17.254Z"/><path fill="#454240" d="M53.515 36.938a.644.644 0 0 0-.148.106c-.254.276-.508.572-.762.868-.085.085-.106.212 0 .297.127.105.212 0 .275-.085.233-.254.466-.53.699-.783.148-.17.148-.276-.064-.403Z"/><path fill="#4E4447" d="M56.267 48.813c.02-.127.02-.275-.149-.296-.169-.021-.211.127-.233.254-.042.254-.063.508-.084.762-.021.127.042.233.19.233.127 0 .17-.085.19-.19.022-.233.043-.508.086-.763Z"/><path fill="#4F4649" d="M56.776 45.935c.02-.106.042-.233-.106-.275-.19-.043-.212.106-.233.233-.042.232-.106.465-.148.72-.021.126-.043.296.148.317.17.021.212-.127.233-.254a7.79 7.79 0 0 1 .106-.741Z"/><path fill="#F79C1A" d="M88.908 20.385c-.19-1.948-.423-3.832-1.376-5.546-.36-.657-.953-1.08-1.588-1.46-.254-.15-.402-.086-.571.126-.572.677-.953 1.46-1.27 2.286-.656 1.736-1.164 3.493-1.376 5.335-.043.296.021.296.296.275.699-.064 1.418-.212 2.138-.085.212.043.212-.084.254-.254.127-.72-.148-1.355-.487-1.969-.084-.169-.38-.38-.148-.529.275-.169.36.19.445.36.148.275.254.572.656.318.085-.064.233-.064.275.084.064.17-.042.212-.19.276a.83.83 0 0 0-.297.169c-.042.021-.021.106-.021.17 0 .02.085.042.127.02 1.016-.296 1.926.106 2.879.382.042.02.106.02.254.042Z"/><path fill="#824910" d="M78.811 21.422c.17.19.424.021.424.296 0 .233-.212.19-.36.254l-.19.064c-.868.296-.89.339-.487 1.164.02.043.042.085.063.127.55 1.122.847 1.313 2.011.826.804-.339 1.46-.318 2.286-.021 1.842.656 3.79.931 5.758.931.381 0 .55-.17.635-.508.085-.339.233-.656-.19-.931-.784-.55-1.567-1.101-2.392-1.588-.847-.508-1.778-.445-2.689-.381-.698.063-1.376.148-2.074.254-.424.063-.741-.148-1.08-.339-.508-.275-1.016-.635-1.63-.254.021.064-.021.064-.085.106Z"/><path fill="#5B9572" d="M78.112 21.02c.338.127.614 0 .931-.106.444-.148.89-.106 1.312.127.487.297.974.593 1.588.487.212-.042.402-.042.423-.339.106-1.08.34-2.138.614-3.175.043-.19.254-.423.021-.614-.296-.254-.677-.402-1.058-.465-.106-.022-.148.105-.17.19-.147.466-.296.931-.444 1.376a.393.393 0 0 0-.042.148c.38.805-.318.445-.508.424-1.27-.085-2.54-.233-3.81-.36-.657-.064-.678-.085-.593-.762.042-.381.042-.784.063-1.165 0-.084.022-.148-.063-.211-.339-.212-.89.063-.953.465-.254 1.461-.233 2.922-.38 4.382-.043.424.105.445.444.318a59.17 59.17 0 0 1 2.074-.656c.19-.022.381-.022.55-.064Z"/><path fill="#F79C1A" d="M81.775 14.754c-1.482.445-2.816-.211-3.324-1.63-.063-.17-.105-.254-.296-.233-.53.085-.677.445-.804.91a24.753 24.753 0 0 0-.656 4.107c-.022.318.063.402.38.445 1.165.106 2.329.233 3.472.36.17.02.318.042.381-.19.36-1.313.826-2.605 1.44-3.896-.212.064-.403.085-.593.127Z"/><path fill="#85A3B2" d="M72.313 35.774a.291.291 0 0 1-.064-.085c-.317-1.058-.317-1.037-1.397-1.121-1.037-.085-2.075-.212-3.112-.318-.529-.064-1.08-.106-1.608-.148-.085 0-.233-.085-.255.106-.063.338.36 1.08.72 1.27 1.736.571 3.472 1.164 5.208 1.736.148.042.296.105.465.148.19.042.424.254.572.084.106-.148-.064-.38-.148-.571a65.53 65.53 0 0 0-.381-1.101Z"/><path fill="#FEFEFD" d="M70.725 25.169c.275.783.55 1.503.804 2.223.064.211.19.169.339.127 1.016-.34 2.053-.699 3.07-1.038.253-.084.232-.233.19-.444a9.028 9.028 0 0 1-.36-2.244c0-.106.106-.36-.148-.318-.212.043-.508-.042-.55.318-.107.74-.17.783-.911.762-.064 0-.148 0-.19.021-.636.593-1.398.656-2.244.593Z"/><path fill="#5B9572" d="M75.149 23.92c-.022.74.169 1.376.296 1.99.063.275.19.338.445.254l2.794-.953c.338-.127.36-.317.02-.656-.444-.444-.825-.953-.952-1.545-.127-.593-.38-.572-.825-.339-.36.17-.762.297-1.143.381-.508.127-.868.339-.635.868Z"/><path fill="#F79C1A" d="M86.558 20.194c-.424-.02-.699.022-.741.381-.043.34-.17.636.254.868 1.143.614 2.201 1.355 3.239 2.138.317.254.486.233.529-.211.042-.318.063-.635.148-.953.148-.677-.148-1.058-.699-1.397-.889-.508-1.884-.699-2.73-.826Z"/><path fill="#824910" d="M73.56 22.396c-.21-.19-.465-.19-.698-.127-.423.127-.846.17-1.27.254-.931.17-1.46 1.037-1.185 1.926.042.17.148.339.36.36.614.085 1.227.064 1.757-.339.063-.042.148-.105.169-.169.042-.36.212-.296.423-.148.148.085.318.19.487.042.148-.127.127-.317.085-.508-.064-.275-.212-.487-.36-.72-.106-.148-.36-.232-.254-.465.085-.233.296.085.487-.106Z"/><path fill="#F79C1A" d="M75.656 13.717c-.55.211-.847.614-1.122 1.037-.508.847-.847 1.778-1.228 2.688-.084.19-.042.276.17.34.444.105.974.444 1.334.317.338-.127.211-.784.275-1.228.169-1.037.36-2.075.571-3.154ZM74.873 18.924c.084-.296-.085-.423-.424-.508-.55-.127-1.08-.317-1.63-.465-.106-.021-.211-.127-.317-.043-.36.297-.36.741-.423 1.143-.043.318.042.53.36.657.677.296 1.418.338 2.116.465.17.043.233-.042.254-.211 0-.318.021-.635.064-1.038Z"/><path fill="#824910" d="M71.783 22.078c.403.064.699-.148 1.059-.17.233-.02.487-.063.656.043.423.275.55-.021.698-.317.41-.734.205-1.165-.613-1.292-.36-.042-.72-.148-1.08-.254-.17-.042-.254-.084-.339.106-.211.55-.465 1.1-.656 1.651-.148.466.212.19.275.233Z"/><path fill="#5B9572" d="M84.421 12.595c-.148-.021-.212.042-.296.127-.72.804-1.25 1.736-1.694 2.688-.084.17-.063.254.106.339.275.106.53.254.783.381.17.085.233-.021.275-.148.382-.974.805-1.948 1.503-2.752.064-.064.149-.17.022-.254-.212-.127-.487-.254-.699-.381Z"/><path fill="#86A2AE" d="M78.007 21.358c-.571.17-1.185.36-1.799.572-.74.254-1.503.508-2.244.762-.148.042-.338.085-.211.317.084.149.127.318.38.233 1.377-.486 2.774-.952 4.17-1.44.085-.02.255-.041.191-.21-.063-.212-.275-.212-.487-.234Z"/><path fill="#88A2AE" d="M69.963 24.28c-.254.106-.339.275-.296.508.19 1.016.592 1.99.995 2.942.105.233.254.106.402.064.17-.043.17-.149.127-.297-.402-1.058-.762-2.159-1.228-3.217Z"/><path fill="#5B9572" d="M76.228 15.389c.338.064.465-.085.508-.466.063-.444.211-.868.317-1.312.085-.275.021-.381-.296-.339-.53.064-.783.339-.826.868-.02.254-.084.508-.148.762-.106.466-.085.487.445.487Z"/><path fill="#DAE5E9" d="M83.51 24.83c.127.783 1.206 1.313 1.8 1.418.147.021.168-.042.168-.148v-.106c.057-.494-.162-.79-.656-.889-.423-.063-.847-.17-1.312-.275Z"/><path fill="#5B9572" d="M82.008 16.426c0 .106.063.127.148.17.296.127.593.254.868.38.085.043.19.107.254-.02.042-.128.19-.276.042-.403a2.064 2.064 0 0 0-.995-.465c-.233-.043-.233.19-.317.338ZM76.144 15.706c-.148.022-.296-.02-.423.064-.106.063-.17.17-.149.275.022.17.149.127.254.127h.34c.21 0 .444.021.422-.296-.02-.297-.296-.127-.444-.17Z"/><path fill="#CFC5C6" d="M74.661 21.507c-.106.19-.19.38-.317.571.268-.014.374-.204.317-.571Z"/><path fill="#888188" d="M79.847 24.703c-.19.021-.36.064-.572.085.17.113.36.084.572-.085Z"/><path fill="#3F3639" d="M76.44 54.952c.063.148.169.19.317.17.106-.022.212-.043.17-.17-.043-.148-.17-.127-.276-.127-.084 0-.19 0-.212.127Z"/><path fill="#44383D" d="M87.913 63.208h1.65c.128 0 .276 0 .276-.19 0-.191-.127-.212-.275-.191-.995.148-1.99-.106-2.985 0-.106.021-.233 0-.339 0-.127 0-.233.042-.254.17 0 .169.127.21.275.21.55-.02 1.101-.02 1.652 0 0-.013 0-.013 0 0Z"/><path fill="#523830" d="M78.556 8.382c-.064.021-.148.021-.233.043-.233.105-.614.19-.508.465.127.318.36-.063.55-.105.085-.022.149-.043.233-.064.127-.042.276-.042.233-.233-.021-.127-.148-.085-.275-.106Z"/><path fill="#50362D" d="M78.494 11.812c.232-.106.55-.127.677-.424.042-.084-.042-.19-.127-.169-.318.064-.593.19-.868.36-.021.021-.021.127 0 .17.064.084.19.063.318.063Z"/><path fill="#57392B" d="M78.176 10.499c-.254.127-.487.233-.72.36-.042.021-.042.106-.042.17.021.084.106.126.19.105.255-.042.487-.17.7-.339.084-.063.084-.148.02-.211-.042-.043-.106-.064-.148-.085Z"/><path fill="#604134" d="M81.67 7.24c-.191.02-.234.169-.255.296-.021.148.021.275.19.275.191.021.149-.17.191-.275.042-.127.042-.233-.127-.297Z"/><path fill="#F49847" d="M79.298 2.074c-2.308.212-4.319 1.1-6.012 2.73-.212.191-.106.403-.064.572.106.36.149.847.403 1.016.275.19.571-.275.867-.423 1.842-.931 3.705-1.842 5.716-2.37.444-.107.53-.276.254-.636l-.445-.635c-.169-.275-.423-.275-.72-.254Z"/><path fill="#231814" d="M78.832 7.43c.825-.085 1.735-.212 2.413-.89.19-.169.614-.105.529-.55-.127-.571-.275-1.143-.699-1.566-.148-.148-.402.021-.592.063-.953.276-1.863.657-2.773 1.038-.466.211-.932.444-1.419.656-.317.148-.275.275-.02.444.761.53 1.587.762 2.56.805ZM83.043 8.404c.805-.022 1.334-.826 1.122-1.694-.19-.762-1.164-1.46-1.926-1.418-.085 0-.212 0-.212.063.064.403.085.868.297 1.207.296.466.55.91.38 1.418-.169.466.064.424.34.424Z"/><path fill="#DE975A" d="M83.193 3.556c-1.545 0-3.027.318-4.466.868-1.44.55-2.88 1.164-4.213 1.948-.762.444-1.44.973-1.8 1.862 3.007-2.646 6.563-4.064 10.48-4.678Z"/><path fill="#F3964A" d="M81.498 4.254c.127.466.36.72.847.72.148 0 .338.021.466.085.486.275.846.021 1.227-.233.17-.106.318-.254.275-.466-.063-.233-.275-.296-.486-.317-.784-.064-1.546-.021-2.329.211Z"/><path fill="#F19645" d="M73.9 7.705c-.488.36-.848.783-1.144 1.27-.17.275-.042.466.233.572.106.042.212.02.339.042 1.08.021 1.1 0 .783-.995-.064-.275-.127-.571-.212-.889Z"/><path fill="#231814" d="M74.45 8.276c.34-.38.424-.825.594-1.27-.784.149-.89.36-.593 1.27Z"/><path fill="#CBE34B" d="M55.78 57.937c.55-.021 1.206-.148 1.757-.635.233-.212.296-.402-.042-.55-1.313-.572-2.604-.55-3.874.127-.297.17-.297.317 0 .487.635.338 1.27.571 2.159.571Z"/><path fill="#CAE24A" d="M60.438 56.286c-.572.021-1.228.127-1.821.423-.212.106-.233.191-.021.34 1.228.846 2.561.994 3.958.486.276-.106.19-.233.064-.381-.55-.656-1.27-.868-2.18-.868Z"/><path fill="#CCE14C" d="M61.791 53.894c-1.122-.72-2.752-.55-3.916.402.699.656 2.858.656 3.916-.402Z"/><path fill="#C9E04B" d="M53.219 54.233c1.333.677 2.625.74 3.98.169-1.017-.89-2.604-.974-3.98-.17Z"/><path fill="#60372B" d="M47.29 61.388c.149-.064.212-.17.212-.339 0-.148-.085-.19-.212-.17-.169.022-.169.17-.169.297 0 .106.021.212.17.212Z"/><path fill="#573525" d="M46.424 62.912c0 .105 0 .254.148.275.233 0 .148-.212.19-.318.043-.106 0-.211-.127-.211-.148-.022-.19.105-.211.254Z"/><path fill="#653721" d="M45.28 61.557c-.148.042-.211.148-.19.296.021.085.063.17.17.127.126-.042.21-.148.19-.296 0-.106-.085-.148-.17-.127Z"/><path fill="#5D3626" d="M48.879 62.15c0 .105.063.19.19.169.127-.021.19-.127.19-.254 0-.085-.084-.127-.168-.127-.17 0-.212.085-.212.212Z"/><path fill="#CAE24D" d="M45.302 56.963c.444 0 .846-.105 1.249-.254.296-.106.296-.233.063-.423-.846-.678-1.778-.656-2.752-.36-.233.085-.656.127-.635.402.022.233.403.339.657.402.465.149.952.212 1.418.233Z"/><path fill="#CAE04E" d="M45.302 53.153c-.55 0-.974.022-1.376.212-.148.064-.36.085-.36.275 0 .17.212.233.36.297a3.669 3.669 0 0 0 1.842.275c.339-.043.656-.127.995-.212.275-.063.317-.17.084-.38-.486-.403-1.058-.488-1.545-.467Z"/><path fill="#C9E14A" d="M51.228 57.45c-1.08-.93-2.202-1.27-3.514-.973-.064.021-.17.042-.19.106-.043.105.063.169.148.211.656.508 1.418.678 2.222.741.381.043.826.064 1.334-.084Z"/><path fill="#CBDC54" d="M50.318 54.572c-.783-.762-1.672-.826-2.625-.678.254.53 1.461.847 2.625.678Z"/><path fill="#5D3B27" d="M59.082 62.806c0-.127-.042-.254-.19-.233-.19.021-.19.19-.19.339 0 .127.02.275.147.254.212-.021.149-.254.233-.36Z"/><path fill="#663B2A" d="M60.161 61.642c-.148 0-.19.084-.19.211s.042.233.17.233c.126 0 .19-.106.19-.233.02-.106-.022-.211-.17-.211Z"/><path fill="#62342D" d="M57.643 61.493c.02.127.042.233.19.212.106 0 .17-.085.17-.19 0-.127-.043-.233-.17-.233-.127-.021-.17.106-.19.211Z"/><path fill="#553323" d="M56.372 62.425c-.127.021-.19.106-.19.233 0 .105.02.211.148.19.127-.021.19-.106.212-.233 0-.105-.064-.169-.17-.19Z"/><path fill="#88A3B3" d="M62.701 32.408c.148.424.297.826.466 1.25.317.72.656 1.439.952 2.159.149.338.34.402.635.211.297-.19.593-.38.91-.55.128-.064.17-.17.128-.275-.212-.614-.254-1.313-.953-1.651-.444-.233-.868-.508-1.355-.805.19.784.635 1.397.805 2.096.042.127.254.296.021.402-.233.106-.296-.127-.36-.296-.317-.89-.72-1.736-1.143-2.583a.162.162 0 0 1-.106.042Z"/><path fill="#43383C" d="M76.778 19.602h-.19c-.128 0-.34-.064-.382.127-.02.212.212.233.36.233.784.084 1.567.148 2.371.233.572.063 1.122.127 1.672.19.127.021.34.085.36-.106.043-.233-.211-.212-.36-.233a68.448 68.448 0 0 0-2.92-.317c-.318-.064-.636-.19-.911-.127Z"/></g><defs><clipPath id="a"><path fill="#fff" d="M0 0h90.884v64H0z"/></clipPath></defs></svg>