<svg width="90" height="86" viewBox="0 0 90 86" fill="none" xmlns="http://www.w3.org/2000/svg">
  <g clip-path="url(#clip0_1846_7637)">
    <path
      d="M79.0523 63.0619C79.005 62.8749 78.8879 62.7577 78.6783 62.805C78.5387 62.8275 78.3967 62.8523 78.2818 62.8523C77.8605 62.805 77.5812 62.8996 77.6037 63.4133C77.464 62.9447 77.09 62.9447 76.6913 62.9222C75.4995 62.8276 74.3302 62.7825 73.1834 62.4085C72.7869 62.2914 72.7869 61.9174 72.7148 61.6132C72.8793 60.6084 72.7622 59.6014 72.8095 58.5966V57.9184C72.9492 56.6095 73.0911 55.323 73.3704 54.0366C73.5574 53.1715 73.8616 52.3289 74.0013 51.4638C74.0013 51.3939 74.0486 51.3466 74.1184 51.2993C74.3753 51.6958 74.774 51.8603 75.1931 51.8378C75.8014 51.8152 76.3849 52.0248 76.9932 52.0022C78.0678 51.9549 79.1672 52.0721 80.2441 51.8152C80.4311 51.7679 80.6181 51.7454 80.8051 51.8152C80.9921 52.0022 80.8051 52.0721 80.7105 52.1667C80.5235 52.3064 80.314 52.4235 80.1968 52.6353C80.314 52.7299 80.4311 52.6353 80.5235 52.7051C80.546 52.7277 80.5708 52.7525 80.5708 52.7998C80.5708 52.9642 80.4311 53.0093 80.3365 53.1039C80.2892 53.1738 80.172 53.2436 80.3365 53.3134C80.501 53.3607 80.5708 53.4779 80.5708 53.6401C80.5708 53.7347 80.5708 53.8046 80.688 53.7798C80.8524 53.71 81.0146 53.5703 81.2016 53.5928C81.2715 53.6153 81.2963 53.6626 81.3188 53.7099C81.3188 53.8046 81.2715 53.8744 81.2489 53.9668C81.4585 53.9668 81.6004 53.8023 81.7626 53.7325C81.9248 53.6626 82.0893 53.5455 82.2064 53.8023C82.3011 55.1586 82.3709 56.5374 82.2763 57.8959C82.1817 59.1125 82.0893 60.3291 81.9248 61.5209C81.855 62.1291 81.5734 62.4333 80.9899 62.573C80.6159 62.6428 80.2644 62.76 79.8904 62.7825C79.6088 62.8523 79.3294 62.9222 79.0478 63.0641L79.0523 63.0619Z"
      fill="#5B9572" />
    <path
      d="M73.2284 30.6017C72.0118 30.1804 70.9372 29.5271 70.1419 28.4727C69.4165 27.4904 69.6508 26.4158 70.7029 25.7827C71.4283 25.3614 72.2461 25.197 73.064 25.1046C73.4154 25.0573 73.7894 25.0347 74.1386 25.01C75.9635 24.8455 77.741 24.9626 79.5164 25.3839C80.8028 25.6881 82.0419 26.0846 83.281 26.5059C83.3508 26.5284 83.4207 26.5532 83.468 26.6231C84.029 26.997 84.6846 27.2088 85.2681 27.558C86.2729 28.1663 87.2101 28.8444 87.7463 29.9439C88.2847 31.0433 88.0031 31.7913 86.8812 32.2126C85.7817 32.6339 84.6598 32.7262 83.4905 32.7037C83.2562 32.4221 83.3508 32.118 83.4207 31.8386C83.5153 31.4646 83.655 31.0906 83.7248 30.7166C84.0064 29.5474 83.5851 28.5876 82.5082 28.0514C80.9875 27.2787 79.3969 26.8596 77.6915 26.6952C76.7317 26.6005 75.8215 26.6478 74.8843 26.8348C73.5506 27.0917 72.9896 28.1438 73.1293 29.455C73.1991 29.829 73.3861 30.203 73.2239 30.6017H73.2284Z"
      fill="#B99460" />
    <path
      d="M73.8355 32.4244C73.8828 32.3073 73.8828 32.1901 73.8355 32.073C73.7656 31.512 73.7656 30.951 73.7656 30.39C73.7656 30.2031 73.7656 30.0386 73.8828 29.8764C74.0698 29.7367 74.2568 29.5948 74.3266 29.3627C74.4438 29.036 74.7006 28.9662 75.0047 28.8941C75.8473 28.7544 76.6426 28.4503 77.4604 28.1461C77.6249 28.0763 77.7173 27.9591 77.8569 27.842C78.1836 27.655 78.5576 27.5153 78.9091 27.3508C79.1434 27.2337 79.3056 27.281 79.3529 27.5604C79.4475 28.0515 79.5872 28.5201 79.7742 28.9865C79.8688 29.2433 79.7967 29.383 79.4926 29.3605C79.2583 29.3379 79.0014 29.2906 78.7671 29.4551C79.3056 29.3605 79.7719 29.4551 80.1009 29.8989C80.966 30.6469 81.4346 31.5818 81.3647 32.7511C81.2949 33.7559 80.8736 34.5985 80.0558 35.2293C79.2605 35.8602 78.3481 36.1891 77.3433 36.2589C76.2438 36.1643 75.426 35.6281 74.7704 34.763C74.2095 34.0848 73.9977 33.267 73.8355 32.4244Z"
      fill="#824910" />
    <path
      d="M79.9866 29.9933C79.705 29.6193 79.331 29.4548 78.8647 29.5968C78.725 29.6441 78.5605 29.6666 78.5132 29.5022C78.4659 29.2926 78.6777 29.2679 78.8174 29.2453C79.1215 29.198 79.4256 29.198 79.7771 29.3625C79.5203 28.7069 79.3085 28.1234 79.2161 27.4925C79.1936 27.3281 79.0764 27.4227 79.0066 27.4452C78.6326 27.6097 78.2812 27.7719 77.9072 27.9364C77.1344 28.3329 76.2941 28.45 75.4515 28.5447C75.3118 28.5672 75.1473 28.5447 75.0076 28.5447C74.3768 28.5447 74.352 28.5672 74.1898 29.2228C74.1425 29.4323 74.1898 29.6666 74.0028 29.8536C73.8632 30.2749 73.9555 30.7187 73.933 31.1626C73.9105 31.4667 74.0028 31.7934 73.8632 32.0975C73.6063 31.6289 73.4666 31.1153 73.2549 30.6241C73.1602 29.9685 72.9507 29.3152 73.0679 28.6123C73.2549 27.63 73.7685 27.0217 74.7508 26.7874C76.4585 26.3436 78.1189 26.5531 79.8019 26.9271C80.8315 27.1614 81.8363 27.5354 82.7712 28.049C83.6589 28.5402 84.1275 29.5224 83.918 30.5272C83.8481 30.8787 83.7535 31.2279 83.6364 31.5568C83.4967 31.9308 83.4494 32.3048 83.5192 32.7036C83.6364 33.1249 83.9878 33.3817 84.2199 33.7332C84.6412 34.3888 84.6412 34.6929 84.1027 35.2764C83.5643 35.8374 83.5643 36.1641 84.0802 36.7498C84.2199 36.9368 84.4069 37.1013 84.5488 37.2883C84.9453 37.802 84.9453 38.1534 84.5488 38.6671C84.3145 38.9938 83.963 39.2281 83.6837 39.5097C83.3097 39.5322 83.1227 39.2055 82.8411 39.0884C82.6766 39.0185 82.5369 38.9014 82.3973 38.8068C82.3026 38.7369 82.2328 38.6423 82.1877 38.5499C82.1404 38.0588 82.0481 37.5676 81.8836 37.099C81.7439 36.7724 81.789 36.3736 81.9309 36.0469C82.1652 35.5333 82.1877 34.9948 82.0954 34.4564C82.0481 34.1297 82.0481 33.8255 82.19 33.5214C82.3071 33.3344 82.5167 33.2172 82.6586 33.0528C83.1024 32.5616 83.197 31.906 82.9154 31.3225C82.751 31.0184 82.5189 30.8787 82.19 30.8787C81.3474 30.8787 80.7864 30.3403 80.1781 29.8964C80.1083 29.8739 80.1781 30.0361 79.9911 29.991L79.9866 29.9933Z"
      fill="#743224" />
    <path
      d="M79.0508 63.0619C79.0508 62.8974 79.1206 62.805 79.3324 62.7802C80.0105 62.6856 80.6661 62.6406 81.3195 62.4063C81.5763 62.3116 81.7408 62.172 81.7881 61.8926C81.8827 61.2145 82.0224 60.5363 82.0697 59.8582C82.1643 58.4546 82.304 57.051 82.2342 55.6249C82.2116 54.9941 82.1869 54.3611 82.1395 53.7302C82.3964 53.3788 82.7478 53.3562 83.052 53.6604C83.3561 55.0865 83.6603 56.4901 83.8247 57.941C84.0816 60.1398 84.1762 62.3364 84.246 64.5353C84.3857 68.2999 84.5029 72.0646 84.5502 75.8315C84.5502 75.9711 84.5727 76.1131 84.5727 76.2528C84.5502 76.4398 84.4082 76.4871 84.246 76.5096C83.5679 76.6267 82.8672 76.6267 82.1891 76.6042C82.0246 76.6042 81.885 76.5817 81.8151 76.3947C81.8151 76.2775 81.7926 76.1852 81.7926 76.068C81.9097 75.9283 82.0967 75.9509 82.2612 75.9283C82.9393 75.8112 83.3133 75.4597 83.3358 74.7816C83.3832 74.1508 83.3584 73.5425 83.3358 72.9117C83.3133 71.4608 83.1263 70.0122 82.9844 68.5613C82.8672 67.4393 82.7501 66.27 82.4459 65.1706C82.2815 64.515 82.2364 63.8369 82.0246 63.1835C81.9315 62.9027 81.7445 62.817 81.4637 62.9267C80.9252 63.1362 80.389 63.348 79.8033 63.4877C79.5937 63.535 79.3594 63.5823 79.1477 63.4877C79.1003 63.348 79.053 63.2061 79.053 63.0664L79.0508 63.0619Z"
      fill="#1D4C53" />
    <path
      d="M73.4151 76.3679C73.2056 73.5382 73.0637 70.7085 73.0637 67.8788C73.0637 67.809 73.0862 67.7144 72.9938 67.6445C72.8992 67.5274 72.924 67.4102 72.924 67.2931C72.9465 66.0765 72.9713 64.8599 72.8767 63.6456C72.8542 63.3189 72.8294 63.0148 73.0164 62.7332C73.2259 62.5687 73.4377 62.616 73.6472 62.7106C74.2329 62.9675 74.839 63.0148 75.4721 63.0373C75.659 63.0373 75.8235 63.0846 76.0105 63.1071C76.549 63.177 76.6188 63.2243 76.5963 63.7853C76.549 64.745 76.4791 65.68 76.3394 66.6375C76.2223 67.5251 76.2448 68.4376 76.1051 69.3275C75.9181 70.6139 75.7785 71.9003 75.6365 73.1867C75.5667 73.7252 75.4968 74.2614 75.3549 74.7773C75.1206 75.5951 74.7939 76.2507 73.8116 76.2733C73.717 76.2733 73.6247 76.2958 73.5548 76.3679C73.5075 76.3904 73.4602 76.3904 73.4151 76.3679Z"
      fill="#276167" />
    <path
      d="M79.1699 63.4582C80.0125 63.3185 80.8078 63.0842 81.5558 62.7102C81.9298 62.5232 82.0469 62.5232 82.1415 63.0144C82.2587 63.6226 82.3511 64.2782 82.5155 64.8618C82.867 65.9612 82.7498 67.1305 83.1463 68.2299C83.1937 68.347 83.1689 68.5115 83.1689 68.6512C83.1914 70.0548 83.4955 71.4335 83.473 72.8596C83.473 73.6549 83.6375 74.4727 83.3559 75.2928C83.1463 75.8786 82.725 76.0408 82.1866 76.0656H81.8126C81.3913 74.6395 81.1345 73.1886 80.8078 71.7399C80.2468 69.1198 79.6858 66.5244 79.2172 63.9065C79.1699 63.742 79.1699 63.6024 79.1699 63.4627V63.4582Z"
      fill="#276167" />
    <path
      d="M71.0753 67.6219C70.093 67.7864 69.0882 67.6918 68.1059 67.6918C67.8243 67.6918 67.5923 67.6219 67.6148 67.2479C67.6846 65.2135 67.5202 63.1544 67.7094 61.12C67.7094 61.0974 67.7319 61.0727 67.7567 61.0501C67.8739 61.1447 67.8514 61.2596 67.8964 61.3768C67.9189 61.4714 67.9437 61.5863 68.0609 61.5638C68.2006 61.5638 68.2253 61.4466 68.2253 61.3295C68.2479 61.12 68.2028 60.9082 68.32 60.7212C68.6241 60.7212 68.507 60.978 68.5295 61.1177C68.552 61.3047 68.507 61.539 68.7863 61.5863C69.7213 61.6336 70.6563 61.6088 71.5687 61.5863C71.8255 61.6088 72.0598 61.6809 72.3167 61.6562C72.5983 61.6336 72.6906 61.7958 72.6906 62.0301V65.1865C72.6906 65.9119 72.409 66.5428 71.9427 67.0812C71.7331 67.3854 71.4515 67.5949 71.0775 67.6197L71.0753 67.6219Z"
      fill="#6A7D93" />
    <path
      d="M82.4191 38.7166C82.8629 38.9036 83.2369 39.2303 83.6582 39.4646C85.1789 40.6564 86.6051 41.9676 87.914 43.3937C87.9613 43.441 88.0086 43.5108 88.0537 43.5334C88.1708 43.5807 88.2632 43.3464 88.4051 43.5334C88.7318 43.9299 89.1058 44.2813 89.3874 44.7026C89.5271 44.8896 89.1779 44.9843 89.0607 45.1465C88.8264 45.5903 88.5471 45.9643 88.0559 46.1287C87.5873 46.1287 87.1908 45.9418 86.8168 45.7074C86.4428 45.4731 86.4203 45.3808 86.747 45.0518L86.9565 44.8423C86.2558 45.543 86.3955 45.4506 85.7174 44.9369C85.3659 44.6801 84.9446 44.5156 84.6653 44.1642C84.618 44.047 84.5481 43.9299 84.431 43.8826C83.8002 43.6257 83.3563 43.1098 82.8652 42.6908C82.6782 42.5263 82.4687 42.4339 82.2344 42.3866C81.8829 42.06 81.8604 41.5913 81.7207 41.17C81.7905 40.3748 81.9775 39.6043 82.2344 38.854C82.2569 38.8067 82.329 38.7594 82.4214 38.7144L82.4191 38.7166Z"
      fill="#D1781B" />
    <path
      d="M88.0794 46.0838C88.5233 45.8968 88.7103 45.453 89.0842 45.1714C89.2239 45.5228 89.5754 45.7324 89.7398 46.0838C90.1611 46.9264 90.0913 47.6045 89.4132 48.2827C88.6877 48.9833 87.9623 49.6863 87.2391 50.3869C86.2343 51.3467 85.2745 52.3289 84.2224 53.2391C83.8957 53.5433 83.5443 53.7528 83.0757 53.683C82.749 53.496 82.4449 53.5658 82.1632 53.7528C81.9537 53.7753 81.7893 53.9398 81.6248 54.0344C81.4851 54.129 81.2981 54.2687 81.181 54.129C81.0165 53.9646 81.3206 53.8722 81.3454 53.7325C81.5324 53.4058 81.9064 53.3585 82.1632 53.1715C81.8366 53.2662 81.6023 53.5455 81.2756 53.6401C81.1111 53.7348 80.9489 53.8271 80.7619 53.897C80.4578 53.9443 80.5524 53.7573 80.5975 53.6154C80.7146 53.3585 80.9241 53.2188 81.1584 53.0769C81.368 52.9124 81.627 52.8899 81.8366 52.7255C81.627 52.8426 81.368 52.9124 81.1584 53.0769C80.9241 53.2639 80.6448 53.3585 80.3406 53.4036C80.1536 53.4036 80.0139 53.3563 80.2235 53.1693C80.3406 53.0521 80.4803 52.935 80.62 52.8178C80.807 52.5137 81.2058 52.5362 81.4378 52.3042C81.1562 52.4438 80.8994 52.6083 80.62 52.7007C80.433 52.748 80.1987 52.9575 80.0815 52.748C79.9869 52.5835 80.2685 52.4438 80.4082 52.3267C80.5727 52.187 80.7822 52.0451 80.9467 51.9054C81.2283 51.5787 81.6248 51.6238 81.9988 51.5089C82.4426 51.5089 82.8414 51.6733 83.1906 51.9302C83.5173 52.187 83.5871 52.187 83.8214 51.8355C84.7338 50.4568 85.7386 49.1703 86.6511 47.7893C86.7682 47.6023 86.8854 47.4153 86.9552 47.2035C87.2121 46.7822 87.586 46.3609 88.0772 46.0816L88.0794 46.0838Z"
      fill="#824910" />
    <path
      d="M73.4841 76.3676C73.4616 76.1581 73.6012 76.1333 73.7882 76.1333C74.6759 76.086 75.0273 75.6422 75.2617 74.777C75.5433 73.8421 75.5185 72.8823 75.6829 71.9248C75.8226 71.107 75.8699 70.2419 75.9871 69.3993C76.1516 68.1129 76.1268 66.8265 76.3611 65.54C76.4782 64.8844 76.4309 64.1838 76.4782 63.5056C76.5008 63.2488 76.3611 63.224 76.1516 63.2015C75.3788 63.1069 74.561 63.179 73.813 62.8748C73.5787 62.7802 73.3444 62.6405 73.065 62.7104C72.9479 62.5459 72.9006 62.3837 73.1597 62.2891C74.5385 62.663 75.9668 62.7802 77.3929 62.8275C77.5101 62.8275 77.5574 62.8748 77.5799 62.992C77.5799 63.1317 77.6024 63.2736 77.6024 63.4133C77.3929 65.495 77.1811 67.5992 76.9468 69.6809C76.7373 71.7153 76.5255 73.7272 76.316 75.7616C76.2935 75.9711 76.2687 76.1829 76.2214 76.3699C76.1989 76.4397 76.1516 76.487 76.0817 76.5343C76.0119 76.5569 75.942 76.5816 75.8722 76.5816H73.8603C73.7206 76.5591 73.5562 76.5343 73.4863 76.3721L73.4841 76.3676Z"
      fill="#1C4D53" />
    <path
      d="M71.4986 48.749C70.3992 48.5147 70.5637 48.749 70.7507 47.7194C70.798 47.4851 70.8678 47.2283 70.9151 46.994C70.9624 46.7844 71.0097 46.5974 71.3116 46.6673C71.5212 46.7146 71.4986 46.5028 71.5212 46.3857C71.7082 45.1218 71.9425 43.8827 72.3165 42.6683C72.5981 41.7807 72.9473 40.9133 73.3686 40.0955C73.4384 39.9783 73.5082 39.8612 73.5082 39.699C73.8349 39.2552 74.2562 38.9262 74.7248 38.6469C74.842 38.577 75.0064 38.4824 75.1213 38.6469C75.1912 39.0208 75.0042 39.3475 74.9344 39.699C74.7699 40.3996 74.6527 41.1026 74.4207 41.7807C74.3035 42.0623 74.0692 42.2944 73.8597 42.5061C72.9247 43.4411 72.9 44.5631 73.533 45.6873C73.5556 45.7346 73.5803 45.7571 73.5803 45.8044C73.7448 46.1559 73.862 46.5051 73.6975 46.8791C73.5578 47.0661 73.346 47.0661 73.1365 47.0187C72.8324 46.9714 72.5282 46.9489 72.2939 46.9241C73.0667 46.994 73.2762 47.3206 73.0194 48.1159C72.9247 48.4201 72.9968 48.7715 72.7851 49.0284C72.2939 49.168 71.8974 48.9337 71.4986 48.7467V48.749Z"
      fill="#D0781B" />
    <path
      d="M76.3398 23.8429C76.6665 23.1423 76.9008 22.392 77.4393 21.786C78.0476 21.0605 78.7955 20.7564 79.708 20.8736C80.4334 20.9682 81.1589 21.1304 81.8595 21.4345C81.882 22.2298 81.9294 23.0476 81.8122 23.8429C81.7649 24.1696 81.7649 24.4985 81.5554 24.8027C81.3909 24.9198 81.2039 24.8725 81.0417 24.8252C79.7328 24.4512 78.399 24.1944 77.0428 24.0524C76.7611 24.0051 76.5291 24.0051 76.3421 23.8429H76.3398Z"
      fill="#F3D4A8" />
    <path
      d="M76.1743 78.7063C75.9873 79.9454 75.7778 81.2093 75.5886 82.4484C75.494 82.4957 75.379 82.4957 75.2619 82.4957C73.4618 82.4732 71.6842 82.4957 69.8842 82.4732C69.6972 82.4732 69.393 82.5903 69.3457 82.2163C69.6724 81.795 70.1635 81.6779 70.6321 81.5157C71.263 81.3061 71.896 81.1417 72.5494 80.9547C72.9459 80.8375 73.1802 80.628 73.1351 80.1594C73.0878 79.6209 73.1126 79.06 73.1126 78.499C73.2072 78.312 73.3942 78.312 73.5812 78.312C74.025 78.312 74.4463 78.2895 74.8902 78.3818C75.1943 78.4291 75.521 78.3818 75.8251 78.3593C76.0121 78.3818 76.2216 78.4066 76.1766 78.7108L76.1743 78.7063Z"
      fill="#91420D" />
    <path
      d="M82.6515 82.3539C82.4172 81.1621 82.2077 79.968 81.9734 78.7762C81.9035 78.5419 82.0207 78.4248 82.2302 78.4248C83.048 78.4248 83.8433 78.2851 84.6634 78.3076C84.8729 78.3076 84.945 78.4023 84.945 78.6118C84.945 78.9632 84.8977 79.3372 84.9675 79.6864C85.0373 80.7611 84.7805 80.5741 85.9723 81.0202C86.8847 81.3716 87.867 81.5113 88.6375 82.1894L88.7321 82.2841C88.6375 82.5184 88.428 82.4936 88.241 82.4936C86.8149 82.4936 85.3888 82.5161 83.9604 82.471C83.7036 82.471 83.4468 82.5184 83.1652 82.4936C82.9782 82.4936 82.7912 82.4936 82.6515 82.3539Z"
      fill="#90430D" />
    <path
      d="M69.1816 57.6348C69.2515 57.1211 69.6029 56.862 70.0693 56.7471C70.4658 56.6525 70.5604 56.4205 70.6077 56.0465C70.8173 54.0594 71.0989 52.0475 71.403 50.0605C71.4503 49.8262 71.3805 49.5918 71.5202 49.3823C71.6373 49.5693 71.8018 49.709 71.9888 49.8262C72.7142 50.2948 73.2279 50.9008 73.2527 51.8132C73.2527 52.0002 73.3225 52.1872 73.3473 52.3742C73.3473 52.9352 73.0657 53.4038 72.9035 53.9175C72.5993 54.7826 72.3425 55.6477 71.8987 56.4655C71.804 56.6525 71.804 56.817 71.8987 57.004C72.0631 57.2856 72.0631 57.5897 71.8761 57.8691C71.8288 57.8916 71.8063 57.9164 71.759 57.8916C70.8939 57.6821 70.0513 57.5875 69.1861 57.6348H69.1816Z"
      fill="#824910" />
    <path
      d="M75.0759 38.5748C74.6321 38.7393 74.2581 39.0434 73.9292 39.3476C73.812 39.4647 73.7196 39.6517 73.5079 39.6742C73.2037 39.3003 72.8771 38.9263 72.6653 38.505C72.4084 37.9913 72.4558 37.5227 72.8523 37.1014C72.9694 36.9842 73.0866 36.8671 73.1789 36.7274C73.6228 36.1664 73.6228 35.815 73.1564 35.2765C72.6427 34.6908 72.5954 34.3416 72.992 33.6634C73.2488 33.2421 73.5529 32.8456 73.8346 32.4243C74.0689 32.4716 74.0215 32.6811 74.0441 32.8208C74.1387 33.5463 74.4654 34.1546 74.8168 34.7629C74.9114 35.0895 75.1435 35.3486 75.308 35.6055C75.6121 36.0966 75.7518 36.5877 75.5423 37.1262C75.4026 37.5227 75.3553 37.9688 75.308 38.3901C75.2607 38.4847 75.1908 38.5545 75.0737 38.5771L75.0759 38.5748Z"
      fill="#743324" />
    <path
      d="M84.969 79.6883C84.8744 79.3617 84.9217 79.0102 84.9217 78.6588C84.9217 78.4718 84.8744 78.4244 84.6649 78.4244C83.8696 78.4718 83.0518 78.5191 82.2565 78.5416C82.0695 78.5416 81.9749 78.6114 81.9749 78.7984C81.7653 78.1676 81.6482 77.5345 81.5536 76.9037C81.531 76.6694 81.5536 76.4824 81.8104 76.3901C82.698 76.577 83.588 76.4599 84.4531 76.3427C84.5004 76.3427 84.5229 76.2729 84.5702 76.2256C84.5928 76.2481 84.6401 76.3202 84.6649 76.3202C85.2506 76.2977 85.156 76.7167 85.156 77.0682C85.156 77.9333 84.9217 78.7984 84.969 79.6883Z"
      fill="#F3A96D" />
    <path
      d="M67.6634 59.5069C66.9853 59.7412 66.4716 59.4371 66.003 59.0158C65.2302 58.3151 64.9036 57.3554 64.694 56.3731C64.5769 55.8121 64.5769 55.8346 65.1626 55.9518C66.3319 56.2086 67.3142 56.7944 68.0396 57.7767C68.0622 58.0808 67.945 58.3624 67.758 58.5719C67.3367 58.6666 67.1272 58.2903 66.8456 58.0808C66.6113 57.9163 66.377 57.7068 66.1674 57.4725C66.1201 57.4252 66.1201 57.5198 66.1449 57.4725C66.6834 57.9411 67.1745 58.4548 67.8279 58.7815C68.0847 59.2253 68.0374 59.3672 67.6634 59.5069Z"
      fill="#7D5A13" />
    <path
      d="M81.482 24.7777C81.6465 23.9599 81.7637 23.1173 81.7389 22.2747C81.7389 22.0877 81.7614 21.9007 81.669 21.7137C81.6217 21.5741 81.6465 21.4569 81.8087 21.4321C83.0478 21.9007 83.6088 22.696 83.6336 24.005C83.6336 24.5434 83.7034 25.0796 83.539 25.6181C83.4443 25.6879 83.352 25.6654 83.2573 25.6181C82.6716 25.3365 82.0408 25.1742 81.4798 24.8926C81.4573 24.8453 81.4573 24.8228 81.4798 24.7755L81.482 24.7777Z"
      fill="#F3A96E" />
    <path
      d="M75.8232 78.4494C75.4492 78.6138 75.0752 78.544 74.6764 78.4967C74.138 78.4494 73.6018 78.3795 73.0633 78.5192C72.8764 77.9109 72.8538 77.2801 72.829 76.6493C72.8065 76.2753 73.203 76.4623 73.4148 76.3677H73.4846C73.5793 76.4623 73.6942 76.4375 73.8113 76.4848C74.5368 76.5321 75.2622 76.5321 75.9854 76.4848C76.0327 76.4848 76.1025 76.4623 76.1499 76.4623C76.3369 77.163 76.2197 77.8186 75.8232 78.4494Z"
      fill="#F3A96E" />
    <path
      d="M73.1576 62.2893C73.0179 62.4064 73.0877 62.5709 73.0629 62.7106C72.9232 63.2964 73.0404 63.8799 73.0629 64.4656C73.0855 65.2834 73.0629 66.1035 73.0629 66.8988C73.0629 67.1556 73.0404 67.3899 72.9683 67.6242C72.3375 67.7639 71.6819 67.7414 71.0511 67.6017C71.8238 67.1804 72.3375 66.5496 72.502 65.6597C72.5493 65.4254 72.5493 65.1685 72.5493 64.9117V62.0122C72.5493 61.8252 72.5267 61.708 72.2924 61.7553C72.0356 61.8252 71.8013 61.708 71.567 61.6855C71.3102 61.334 71.0984 60.9375 70.7492 60.6334C70.5149 60.4239 70.3054 60.2594 69.9764 60.2819C69.9066 60.2819 69.8367 60.2594 69.7894 60.2346C69.5551 59.953 69.7421 59.8133 69.9764 59.766C70.3977 59.6962 70.8415 59.7187 71.2628 59.766C71.4724 59.7885 71.6368 59.9305 71.5895 60.1625C71.5197 60.4441 71.6594 60.6064 71.8937 60.7235C72.1505 60.8407 72.3623 61.0051 72.5493 61.2146C72.6439 61.3318 72.7836 61.4242 72.7363 61.6112C72.8061 61.7058 72.9232 61.7756 72.9007 61.9153C72.8534 62.1496 73.0404 62.2195 73.1576 62.2893Z"
      fill="#4B5468" />
    <path
      d="M81.4834 24.7777V24.8476C81.5308 25.1743 81.6231 25.5257 81.319 25.8073C80.7332 25.7848 80.197 25.5505 79.6586 25.4108C78.5366 25.1292 77.3899 24.967 76.2431 24.9422C76.1034 24.9422 75.9615 24.9895 75.8691 24.8476C76.0088 24.4961 76.1508 24.1694 76.3603 23.8428C77.9734 23.9825 79.5865 24.2393 81.1545 24.7079C81.2244 24.7304 81.364 24.7552 81.4812 24.7777H81.4834Z"
      fill="#5C946E" />
    <path
      d="M73.2531 52.3964C73.1134 52.2094 73.0886 51.9751 73.0886 51.7881C73.0886 50.8531 72.5029 50.2922 71.8022 49.8709C71.5679 49.7312 71.498 49.614 71.498 49.3797V48.7241C71.9419 48.7241 72.3159 49.0057 72.7619 48.981C73.2305 48.9336 73.6744 49.0981 74.0957 49.2626C74.1903 49.3324 74.2354 49.427 74.2128 49.5667C73.9087 50.362 73.7915 51.2046 73.5122 52.0224C73.4423 52.1621 73.4649 52.3491 73.2553 52.3964H73.2531Z"
      fill="#6D3609" />
    <path
      d="M69.3231 82.2388C69.4177 82.4483 69.6047 82.3559 69.7669 82.3559H75.0996C75.264 82.3559 75.4263 82.3334 75.5682 82.4505C75.6155 82.8245 75.4285 82.9417 75.077 82.9417C74.7954 82.9417 74.4913 82.9642 74.2592 82.7547C74.1894 82.6849 74.0948 82.6849 74.0249 82.7547C73.8154 82.9417 73.5563 82.9192 73.3243 82.9192C72.0604 82.9665 70.8213 82.9665 69.5596 82.8966C69.3952 82.8966 69.1158 82.9665 69.0685 82.8268C69.046 82.6398 69.1158 82.383 69.3253 82.241L69.3231 82.2388Z"
      fill="#541B0A" />
    <path
      d="M82.651 82.3539H88.1459C88.3329 82.3539 88.5424 82.3764 88.7069 82.2593C88.8939 82.3764 88.9885 82.6107 88.9164 82.7977C88.8691 82.9374 88.6123 82.9149 88.4726 82.9149H84.5435C84.2618 82.9149 84.0996 82.6806 83.8879 82.6107C83.6783 82.5634 83.6062 82.9149 83.3269 82.9374C82.7659 82.9847 82.6262 82.8676 82.6488 82.3516L82.651 82.3539Z"
      fill="#571E09" />
    <path
      d="M69.1827 57.6348C69.5793 57.4704 69.9555 57.3532 70.352 57.5875C70.4692 57.6573 70.6088 57.5875 70.7485 57.5875C71.1225 57.5875 71.474 57.61 71.7533 57.9142C71.893 58.1485 71.7533 58.358 71.7308 58.5923C71.5663 58.9438 71.287 59.0835 70.8882 59.0361C70.5142 59.0136 70.1402 59.0361 69.7663 59.0136C69.345 58.9911 69.0881 58.8491 68.9935 58.4278C68.9462 58.1935 68.9237 57.984 69.0881 57.7722C69.1107 57.7249 69.1354 57.6776 69.1827 57.6326V57.6348Z"
      fill="#6D3609" />
    <path
      d="M81.3203 25.7376C81.4848 25.456 81.2978 25.1068 81.4848 24.8252C82.2102 24.9897 82.8636 25.3389 83.5417 25.5979C83.5642 25.9246 83.6363 26.2761 83.4719 26.5802H83.3322C82.7239 26.3459 82.1156 26.1116 81.4848 25.9021C81.4149 25.9021 81.3451 25.8548 81.3203 25.7376Z"
      fill="#376A46" />
    <path
      d="M67.6622 59.5066C68.0362 59.3196 67.8718 59.0627 67.7321 58.8284C67.6848 58.7586 67.6149 58.6887 67.6622 58.5716C67.8492 58.3373 67.8492 58.0331 68.0137 57.7988C68.0362 57.7988 68.061 57.7988 68.0835 57.8461C68.1309 58.1503 68.248 58.4071 68.5972 58.4544C68.6918 58.4544 68.7144 58.5491 68.7144 58.6414C68.5274 59.1551 68.4575 59.6935 68.4575 60.232C68.4575 60.419 68.4801 60.5835 68.3404 60.7457C68.3404 60.9552 68.3178 61.1895 68.3178 61.4013C68.3178 61.5883 68.3178 61.7527 68.061 61.7527C67.7794 61.7527 67.7343 61.6356 67.7569 61.4013C67.7569 61.2841 67.7569 61.1917 67.7343 61.0746C67.7343 60.5361 67.829 59.9999 67.6645 59.5088L67.6622 59.5066Z"
      fill="#515266" />
    <path
      d="M81.3197 25.7377C81.9978 26.0419 82.7232 26.2063 83.3541 26.5803C82.7232 26.3933 82.0902 26.2063 81.4593 25.9945C79.1208 25.2218 76.735 24.9199 74.2793 24.9897H74.1621C74.7231 24.8726 75.2841 24.8501 75.845 24.8253C77.6226 24.7307 79.3303 25.1767 81.0133 25.6679C81.1079 25.7152 81.2003 25.7152 81.3174 25.7377H81.3197Z"
      fill="#E9D6AB" />
    <path
      d="M75.8242 78.4494C76.0337 77.7938 76.1509 77.1404 76.1509 76.4375C76.1734 76.415 76.1982 76.3902 76.2455 76.3677C76.6893 76.415 76.6893 76.6718 76.6195 77.0458C76.5024 77.6068 76.4325 78.1925 76.1982 78.7062C76.1509 78.5192 75.9887 78.4967 75.8242 78.4494Z"
      fill="#B69463" />
    <path
      d="M68.6906 58.5945C68.6433 58.5719 68.6208 58.4999 68.5735 58.4999C68.1995 58.4067 68.0433 58.1807 68.1049 57.8217C68.4315 57.8443 68.783 57.8443 69.1097 57.7744V58.4751C68.9925 58.6395 68.828 58.5922 68.6884 58.5922L68.6906 58.5945Z"
      fill="#666A82" />
    <path
      d="M81.9733 51.5787C81.6219 51.6958 81.2479 51.813 80.8987 51.9301C80.3377 51.8828 79.7767 52.0946 79.2157 52.1171C78.8417 52.1396 78.443 52.2568 78.0938 52.0698C77.9541 52 77.8843 52.187 77.7423 52.187C76.6677 52.1644 75.6133 52.0698 74.5612 51.8603C74.257 51.7904 74.1174 51.6508 74.1399 51.3218C73.9529 51.0177 74.07 50.7135 74.2097 50.4342C74.7234 50.2945 75.2145 50.4815 75.7305 50.504C76.9943 50.5513 78.256 50.7609 79.5424 50.5739H79.7992C80.1958 50.5964 80.2431 50.6437 80.1034 51.0425C80.2431 50.691 80.4548 50.4815 80.8514 50.6685C80.8739 50.6685 80.9212 50.7383 80.9212 50.691C81.0384 50.2224 81.4123 50.4567 81.694 50.4094C81.9283 50.7135 82.0679 51.1101 81.9756 51.5787H81.9733Z"
      fill="#296167" />
    <path
      d="M71.8485 57.8936C72.2 57.9162 72.5492 58.0108 72.9006 57.8711V58.5965C72.4793 58.6912 72.058 58.7137 71.6367 58.574C71.684 58.3645 71.7066 58.1527 71.7539 57.9432C71.7764 57.9207 71.8012 57.8959 71.8485 57.8959V57.8936Z"
      fill="#555567" />
    <path
      d="M81.157 53.0745C81.0624 53.3088 80.8304 53.4012 80.6884 53.5882C80.5938 53.7053 80.4541 53.845 80.7357 53.9149C80.4541 54.1019 80.4789 53.8675 80.5014 53.7279C80.524 53.5634 80.5488 53.4237 80.3145 53.4237C80.5713 53.2367 80.8281 53.097 81.157 53.0723V53.0745Z"
      fill="#8D926A" />
    <path
      d="M81.2266 53.6356C81.5307 53.3314 81.8822 53.0971 82.3733 52.98C82.0692 53.4013 81.6253 53.4711 81.2987 53.728C81.2987 53.6806 81.2761 53.6581 81.2288 53.6333L81.2266 53.6356Z"
      fill="#B36C32" />
    <path
      d="M80.5723 52.7005C80.8539 52.4189 81.1806 52.2319 81.6469 52.1147C81.3653 52.5834 80.8989 52.5834 80.5723 52.8154V52.6983V52.7005Z"
      fill="#B86F37" />
    <path
      d="M79.988 29.9935C80.1277 29.9462 80.0353 29.784 80.1277 29.7119C80.5016 30.0161 80.8756 30.2729 81.2969 30.4847C81.5785 30.6243 81.8354 30.7663 82.1846 30.6942C82.6532 30.6244 83.0722 31.138 83.1443 31.7463C83.2142 32.447 82.8627 33.08 82.2319 33.4067C81.9278 33.5712 81.7881 33.8032 81.6236 34.1074C81.3195 34.763 80.8058 35.2541 80.22 35.6506C79.846 35.9075 79.6816 36.1643 79.7987 36.6104C79.846 36.7974 79.846 36.9844 79.7514 37.1714C79.5171 37.4057 79.213 37.3358 78.9336 37.311C78.3479 37.2637 77.8117 37.0542 77.3205 36.7501C77.2034 36.5631 77.2259 36.3535 77.298 36.1418C78.0707 36.0719 78.8187 35.8849 79.4721 35.4636C80.2899 34.95 80.8982 34.2718 81.1099 33.3346C81.4614 32.0257 81.0401 30.9015 79.988 29.9913V29.9935Z"
      fill="#6D3609" />
    <path
      d="M77.2966 36.1913C77.4137 36.3783 77.3191 36.5653 77.3191 36.7523C77.5286 37.338 77.3664 37.899 76.8978 38.1085C76.7806 38.1311 76.6883 38.1784 76.5711 38.2032C76.267 38.2257 75.9854 38.3428 75.706 38.4375C75.5415 38.4848 75.4019 38.5771 75.2374 38.4375C75.2149 37.9689 75.3072 37.5025 75.4717 37.0812C75.6362 36.5675 75.4942 36.1462 75.2374 35.7249C75.0729 35.4433 74.7237 35.2113 74.8161 34.8125C75.4717 35.5132 76.2422 36.1215 77.2943 36.1913H77.2966Z"
      fill="#571D08" />
    <path
      d="M79.9173 33.7581C79.4735 33.7581 79.1445 33.4314 79.1445 32.9853C79.1445 32.4942 79.5185 32.0977 79.9871 32.0977C80.4084 32.0977 80.8049 32.4716 80.8049 32.8456C80.8275 33.3593 80.431 33.7581 79.9173 33.7581Z"
      fill="#6D3609" />
    <path
      d="M73.9771 29.8288C73.9298 29.4075 74.0942 29.011 74.2114 28.6122C74.2587 28.4951 74.2812 28.4027 74.4209 28.4252C75.6127 28.5424 76.7369 28.1909 77.8814 27.9341C77.5773 28.4027 77.0636 28.4478 76.595 28.5897C76.0092 28.7541 75.473 29.0335 74.8647 29.0583C74.6777 29.0583 74.5133 29.1754 74.4209 29.4097C74.3736 29.5742 74.3511 29.9234 73.9771 29.831V29.8288Z"
      fill="#6D3609" />
    <path
      d="M75.4053 32.2619C75.4526 32.3566 75.5449 32.4016 75.6148 32.4489C75.9415 32.7058 76.0586 33.0572 75.8964 33.3366C75.7094 33.688 75.2183 33.875 74.8668 33.7106C74.5852 33.5934 74.3531 33.1248 74.3982 32.8229C74.468 32.3318 74.9119 32.3318 75.216 32.1673C75.3332 32.12 75.3805 32.1898 75.403 32.2619H75.4053Z"
      fill="#6D3609" />
    <path
      d="M75.4047 32.2621C75.3574 32.2396 75.2875 32.2148 75.2402 32.1923C74.8662 31.6786 74.8437 31.3745 75.1704 31.0005C75.2177 31.0478 75.2402 31.0951 75.265 31.1402C75.2425 31.0929 75.1952 31.0455 75.1478 31.023C75.4993 30.8135 75.7336 30.9059 75.8034 31.2798C75.8981 31.6764 75.826 32.0278 75.4069 32.2621H75.4047Z"
      fill="#1B150B" />
    <path
      d="M78.9124 30.9984C79.0071 30.7641 79.1467 30.7889 79.2864 30.9286C79.3563 30.9984 79.4261 31.0931 79.4509 31.2102C79.5455 31.5144 79.5455 31.841 79.2864 32.0979C79.1918 32.1925 79.0994 32.2375 79.0048 32.1452C78.748 31.9109 78.6781 31.6067 78.7953 31.28C78.9597 31.2102 79.0521 31.1404 78.9124 30.9984Z"
      fill="#20180F" />
    <path
      d="M77.2963 34.2492C77.0395 34.2717 76.8277 34.1545 76.6182 34.0149C76.5236 33.945 76.4312 33.8504 76.501 33.7333C76.5709 33.6161 76.6655 33.7333 76.7579 33.7558C76.875 33.8031 76.9922 33.8955 77.1319 33.9428C77.5757 34.1298 77.8573 33.8955 78.1614 33.6161C78.2313 33.5463 78.2786 33.3818 78.4183 33.4989C78.5354 33.6161 78.3958 33.6859 78.3237 33.7806C78.0668 34.0847 77.7154 34.2492 77.2941 34.2492H77.2963Z"
      fill="#6D3609" />
    <path
      d="M75.9658 29.5494C75.8262 29.7139 75.6392 29.644 75.4747 29.644C75.2179 29.6666 74.9362 29.6215 74.7493 29.8536C74.6794 29.9234 74.5623 29.9707 74.4924 29.8761C74.3978 29.7589 74.5149 29.6666 74.587 29.5945C74.9385 29.198 75.4995 29.1732 75.9658 29.5472V29.5494Z"
      fill="#6D3609" />
    <path
      d="M77.1345 32.0977C77.2742 32.1675 77.2292 32.2621 77.1571 32.3545C77.085 32.4469 76.9476 32.519 77.0872 32.6586C77.1571 32.7285 77.2968 32.8231 77.1819 32.9155C77.1345 32.9628 76.9723 32.9155 76.8777 32.8929C76.7132 32.8231 76.5961 32.6834 76.6682 32.4964C76.738 32.2869 76.925 32.1923 77.1368 32.0999L77.1345 32.0977Z"
      fill="#6D3609" />
    <path
      d="M78.9121 30.9984C79.0991 30.9759 79.2162 31.0683 79.1216 31.2553C79.027 31.4423 78.9121 31.3499 78.7949 31.2553C78.8422 31.1607 78.8895 31.0683 78.9121 30.9984Z"
      fill="#F2EDE3" />
    <path
      d="M75.2406 38.4126C75.7092 38.3901 76.1057 38.0859 76.5743 38.0859C76.714 38.2504 76.6442 38.4374 76.5969 38.5996C76.34 39.699 76.0359 40.7737 75.7543 41.8506C75.52 42.763 75.52 42.7382 76.4324 42.8103C77.3674 42.8802 78.3023 42.763 79.2395 42.7878C79.7532 42.8103 79.8005 42.7653 79.9177 42.2493C80.1993 40.9855 80.5733 39.7238 80.8526 38.4599C80.8752 38.3428 80.9225 38.2504 80.9923 38.1558C81.4835 38.0386 81.8575 38.2256 82.2089 38.5523C82.2788 38.5996 82.3261 38.6694 82.3959 38.7168C82.1143 39.5346 81.9048 40.3772 81.8101 41.2423C81.8101 41.7109 81.6231 42.1547 81.5758 42.6211C81.5533 42.7855 81.5285 42.9252 81.5758 43.0649C81.88 44.0472 81.7854 45.052 81.693 46.0816C81.6705 47.0639 81.5758 48.0461 81.6232 49.0284C81.6232 49.31 81.6457 49.5894 81.7876 49.8237C81.8349 50.0332 81.8101 50.2202 81.6479 50.3847C81.4384 50.5244 81.1793 50.432 80.9698 50.5018C80.9225 50.6888 81.2266 50.6888 81.1343 50.8983C81.0644 50.9457 81.0171 50.851 80.9698 50.8285C80.4787 50.5018 80.2218 50.6415 80.152 51.225C80.152 51.3196 80.1993 51.4593 80.0348 51.4345C79.9177 51.412 79.8952 51.2949 79.9177 51.2002C79.965 51.0358 80.0348 50.8736 80.1047 50.6618C79.3792 50.6393 78.7011 50.8015 78.023 50.7316C76.7591 50.6145 75.4974 50.6618 74.2335 50.4049C74.1862 50.1233 74.1637 49.844 74.1164 49.5624C74.0939 49.4925 74.0465 49.3979 74.0218 49.328C73.7649 48.8369 73.7649 48.2985 73.6951 47.7623C73.6478 47.4581 73.5554 47.154 73.6253 46.8273C73.6726 46.4533 73.5779 46.1019 73.4608 45.7527C73.2265 44.9348 73.3211 44.1396 73.6703 43.3668C73.9046 42.8284 74.0916 42.2922 74.2786 41.7537C74.5354 40.7016 74.7923 39.6247 75.0266 38.5726C75.1212 38.5027 75.191 38.4554 75.2361 38.4081L75.2406 38.4126Z"
      fill="#5B9571" />
    <path
      d="M82.233 38.5749C81.859 38.4352 81.4602 38.3181 81.0862 38.1784C80.9691 38.273 80.8519 38.2009 80.7122 38.1784C80.5726 38.1311 80.4306 38.1085 80.2684 38.0612C79.7074 37.8968 79.5903 37.6872 79.73 37.1736C79.73 37.0564 79.7525 36.9167 79.73 36.7996C79.4957 36.1688 79.7773 35.8173 80.2909 35.4906C80.8992 35.0941 81.3904 34.5557 81.6472 33.8528C81.7418 33.5959 81.904 33.3841 82.233 33.4315C82.0685 33.9924 82.2555 34.5534 82.233 35.1144C82.233 35.4185 82.1631 35.7002 82.046 35.957C81.8365 36.4008 81.8365 36.8446 82.046 37.2659C82.233 37.6872 82.2555 38.1085 82.233 38.5749Z"
      fill="#551B06" />
    <path
      d="M68.7383 61.611C68.9027 61.2844 69.1821 61.05 69.4863 60.8856C69.7431 60.7459 69.9549 60.5814 69.8377 60.23C70.6555 60.23 71.2886 60.7684 71.5927 61.7259C70.7051 61.7259 69.7926 61.7259 68.9027 61.7485C68.7631 61.7485 68.7631 61.6786 68.7383 61.6088V61.611Z"
      fill="#626981" />
    <path
      d="M81.7173 49.9183C81.5529 49.7786 81.5078 49.5917 81.5078 49.3573C81.5078 48.2579 81.5078 47.1585 81.6024 46.0591C82.1882 45.4035 82.5374 44.633 82.632 43.7678C82.6793 43.4164 82.6546 43.0897 82.4225 42.7856C82.3279 42.6909 82.258 42.5513 82.3279 42.4116C82.6095 42.3169 82.7717 42.5062 82.9587 42.6684C83.2854 42.95 83.6143 43.2542 83.941 43.5335C84.0807 43.6507 84.2451 43.698 84.4096 43.7904C84.574 43.8602 84.7363 43.9548 84.7363 44.1643C84.4546 44.2117 84.2451 44.0247 83.9883 43.9548C83.9184 44.0494 83.9883 44.2815 83.754 44.2815C83.6143 44.259 83.5197 44.1418 83.38 44.0472C83.3102 44.7726 83.193 45.4733 82.9835 46.1514C82.6095 47.2982 82.1882 48.4201 81.9314 49.5894C81.8841 49.7066 81.8615 49.871 81.7218 49.9161L81.7173 49.9183Z"
      fill="#C7721C" />
    <path
      d="M83.7991 44.2588C83.9163 44.0943 83.9163 43.9321 83.8217 43.7451C84.1258 43.8848 84.4299 44.0267 84.7341 44.1664C85.0157 44.4931 85.4122 44.6576 85.7637 44.8919C86.1842 45.1877 86.5815 45.1562 86.9555 44.7972C87.0028 44.7499 87.0501 44.7274 87.165 44.6102C87.0479 44.9369 86.8383 45.0541 86.6964 45.2185C86.5567 45.3582 86.5567 45.4754 86.7437 45.57C87.165 45.8043 87.5863 46.0386 88.0774 46.0611C87.7508 46.4824 87.2822 46.7866 86.978 47.2304C86.8609 47.4647 86.6964 47.4872 86.5094 47.325C86.2278 47.0907 85.9484 46.8812 85.6916 46.6244C85.6217 46.577 85.5519 46.5072 85.5519 46.4148C85.5294 45.7367 84.9436 45.5272 84.5696 45.1284C84.288 44.8468 83.8915 44.6846 83.7969 44.2633L83.7991 44.2588Z"
      fill="#AA5713" />
    <path
      d="M82.3263 42.4116C83.1689 43.6034 82.5831 44.6577 82.0222 45.7324C81.9275 45.8969 81.8126 46.0591 81.5783 46.0839C81.6009 45.5702 81.6257 45.0317 81.6482 44.5181C81.6707 44.0968 81.6009 43.7003 81.5085 43.3015C81.3215 42.6008 81.6031 41.9227 81.8126 41.2671C81.9996 41.6185 81.9996 42.0849 82.3263 42.4138V42.4116Z"
      fill="#E98E41" />
    <path
      d="M81.1562 53.0522C81.3432 52.7256 81.6947 52.7008 82.0687 52.5386C81.8118 52.9351 81.5077 53.0072 81.1562 53.0522Z"
      fill="#BA733A" />
    <path d="M75.9885 76.4624C75.2631 76.6021 74.5376 76.6021 73.8145 76.4624H75.9885Z" fill="#B69463" />
    <path
      d="M73.6492 46.832C73.9308 47.4178 73.8362 48.0711 73.9758 48.6794C74.0231 48.889 74.1155 49.1007 74.0457 49.335C73.6019 49.2404 73.158 49.1706 72.7367 49.0084C72.8539 48.6569 72.8066 48.2604 72.971 47.8864C73.158 47.4651 72.9936 47.2556 72.5497 47.0686C72.3853 46.9987 72.1757 47.0461 72.0586 46.8591C72.4101 46.8591 72.7593 46.8118 73.0882 46.9064C73.2752 46.9289 73.4622 46.9289 73.6492 46.8365V46.832Z"
      fill="#B76015" />
    <path
      d="M74.3054 41.7559C74.2828 42.247 74.1882 42.7156 73.9314 43.1347C73.5574 43.7655 73.4876 44.4909 73.5101 45.2164C73.5101 45.4034 73.5101 45.5678 73.4876 45.7548C72.7869 44.7951 72.7621 43.3937 73.6746 42.5038C73.9314 42.2695 74.1184 41.9902 74.3054 41.7559Z"
      fill="#E78E3B" />
    <path
      d="M67.6622 58.5721C67.7095 58.6419 67.7569 58.7365 67.7321 58.8289C67.3108 58.7816 67.0539 58.4549 66.7723 58.1981C66.4682 57.9164 66.2113 57.5672 66.0469 57.3555C66.538 57.6371 66.9593 58.2904 67.66 58.5721H67.6622Z"
      fill="#532904" />
    <path
      d="M80.7342 51.626C80.5472 51.7432 80.3602 51.7657 80.1484 51.626C80.3827 51.5089 80.5697 51.6733 80.7342 51.626Z"
      fill="#5B9571" />
    <path
      d="M79.7296 37.1737C79.7769 37.5702 79.8242 37.9464 80.3379 37.9915C80.4775 38.3655 80.2905 38.6696 80.1035 38.9512C79.5426 39.724 78.7946 40.0732 77.8349 39.911C77.204 39.7938 76.7827 39.35 76.7129 38.7192C76.7354 38.4849 76.6656 38.228 76.83 38.0185C77.1567 37.9712 77.3212 37.7842 77.2987 37.4328C77.2761 37.1984 77.346 36.9641 77.346 36.7321C77.6028 36.6623 77.7425 36.8966 77.9317 36.9664C78.5175 37.2007 79.101 37.3629 79.7318 37.1759L79.7296 37.1737Z"
      fill="#824910" />
    <path
      d="M82.4648 32.1452C82.5121 32.402 82.4175 32.6138 82.1832 32.7309C82.1133 32.7782 82.0187 32.7782 81.9489 32.7309C81.9263 32.7084 81.9016 32.6138 81.9016 32.5913C82.1584 32.3096 81.9714 32.0303 81.9016 31.7487C81.879 31.654 81.8542 31.5391 81.9489 31.4918C82.0435 31.422 82.1359 31.4918 82.2057 31.5617C82.4152 31.7013 82.5324 31.8658 82.4625 32.1474L82.4648 32.1452Z"
      fill="#824910" />
    <path
      d="M76.8297 38.0137C76.8297 38.248 76.8297 38.5048 76.8072 38.7391C76.7373 38.7616 76.7373 38.6693 76.69 38.6693C76.8297 38.9261 76.8072 39.255 76.9942 39.5119C77.1586 39.7214 77.3208 39.8859 77.5799 39.9557C78.7492 40.3072 79.941 39.9332 80.4569 38.6918C80.5515 38.4823 80.5741 38.2232 80.761 38.061C80.8782 38.0835 80.9954 38.1308 81.0877 38.1556C80.7363 39.6065 80.3623 41.0326 80.0356 42.4812C79.9658 42.7854 79.8486 42.9025 79.5445 42.9025C78.3279 42.9025 77.1113 42.9498 75.897 42.9025C75.523 42.88 75.4757 42.7155 75.523 42.4339C75.6401 41.8729 75.7798 41.312 75.9443 40.751C76.1786 39.8633 76.458 38.9734 76.5999 38.061C76.6697 38.061 76.7396 38.0385 76.8342 38.0137H76.8297Z"
      fill="#E98D41" />
    <path
      d="M75.1445 31.0232C75.2144 31.0457 75.2842 31.0457 75.3315 31.0705C75.4261 31.1178 75.4261 31.235 75.4014 31.3273C75.3788 31.3972 75.3315 31.422 75.2842 31.3972C75.1671 31.3747 75.1445 31.28 75.1445 31.1629C75.1445 31.1156 75.1445 31.0683 75.1445 31.0232Z"
      fill="#E7E1DE" />
    <path
      d="M77.5791 44.9842H79.1449C79.4018 44.9842 79.4964 45.054 79.4716 45.3108C79.4491 45.9417 79.4716 46.5499 79.4716 47.1808C79.4716 47.5773 79.3071 47.9062 79.003 48.1856C78.7214 48.4199 78.3722 48.6069 78.068 48.7713C77.7639 48.9358 77.4124 48.9358 77.0632 48.7713C76.6667 48.5843 76.3378 48.35 75.9886 48.0932C75.6394 47.8364 75.6146 47.4376 75.592 47.0411C75.5695 46.4553 75.592 45.8718 75.592 45.2861C75.592 45.0292 75.6867 44.9346 75.9187 44.9594C76.4572 45.0067 77.0181 44.9819 77.5791 44.9819V44.9842Z"
      fill="#276166" />
    <path
      d="M74.6548 42.9727C74.8643 43.02 75.0986 43.0898 75.0513 43.394C75.0287 43.6283 74.9567 43.8378 74.6548 43.8152C74.3979 43.7927 74.2109 43.6981 74.2109 43.394C74.2335 43.1371 74.3754 42.9974 74.6548 42.9727Z"
      fill="#21504C" />
    <path
      d="M80.1504 43.394C80.1729 43.207 80.2675 43.02 80.5018 43.02C80.7362 43.02 80.9705 43.1372 80.9705 43.4413C80.9479 43.6756 80.806 43.8851 80.5492 43.8626C80.3149 43.8626 80.1279 43.7229 80.1526 43.394H80.1504Z"
      fill="#1F5050" />
    <path
      d="M80.7342 38.0835C80.5697 38.9711 80.1259 39.674 79.2833 40.048C78.6525 40.3296 77.4359 40.235 76.9921 39.7213C76.6654 39.3474 76.7826 38.9035 76.6406 38.5048C76.8051 38.5521 76.7105 38.7143 76.8051 38.7391C76.8997 39.3474 77.3661 39.7439 77.9744 39.8137C79.1211 39.9309 80.1958 39.1356 80.3129 37.9663C80.4774 37.9663 80.617 38.0136 80.7342 38.0835Z"
      fill="#B56018" />
    <path
      d="M74.8183 43.3936C74.8183 43.4882 74.7958 43.558 74.7011 43.558C74.6313 43.558 74.584 43.4882 74.584 43.4184C74.584 43.3237 74.6065 43.2539 74.7011 43.2539C74.771 43.2539 74.8183 43.3237 74.8183 43.3936Z"
      fill="#588494" />
    <path
      d="M80.4085 43.4413C80.4085 43.3467 80.431 43.2769 80.5257 43.2769C80.6428 43.2994 80.7352 43.3467 80.7352 43.4864C80.7126 43.581 80.6653 43.6508 80.5707 43.6261C80.431 43.6035 80.4062 43.5089 80.4062 43.4391L80.4085 43.4413Z"
      fill="#4D7C83" />
    <path
      d="M7.45232 33.0595C6.47455 32.9693 5.56437 32.6494 4.65419 32.2642C3.24385 31.6491 2.03854 30.7863 1.21847 29.4435C0.21817 27.7606 0.445716 25.6451 1.76368 24.1874C3.03658 22.7771 4.65193 21.9818 6.4723 21.5019C6.67732 21.4569 6.8598 21.4118 7.04004 21.2744C8.11018 21.0468 9.17807 20.9094 10.2707 21.0243C10.7258 21.0694 11.2035 21.0468 11.6585 21.1843C11.796 21.2744 11.9311 21.3217 12.1136 21.3668C13.8664 21.7317 15.5268 22.3445 16.8673 23.5724C18.3227 24.9151 19.0053 26.5305 18.4151 28.486C18.0276 29.7837 17.1422 30.6916 16.027 31.4441C14.8667 32.2169 13.6163 32.717 12.2511 32.9693C12.046 33.0595 11.9109 32.9919 11.796 32.8094C11.6585 32.5818 11.5684 32.3092 11.5459 32.0366C11.5008 31.194 11.591 30.3762 11.841 29.5562C11.9086 29.3737 11.9537 29.1686 12.0911 29.056C12.4313 28.7383 12.5462 28.2832 12.6836 27.8507C12.7287 27.6682 12.7287 27.5105 12.5935 27.3956C12.1609 27.0779 12.0934 26.6454 12.1159 26.1452C12.0258 25.3252 11.5481 24.8723 10.7957 24.62C9.8179 24.2798 8.84013 24.0973 7.81505 24.415C6.67732 24.7552 6.28981 25.2801 6.33712 26.4404C6.44977 26.8729 6.38218 27.2829 6.15464 27.6457C5.90456 28.0332 6.10958 28.691 6.51961 29.0785C7.51991 30.0788 8.0899 31.2391 7.8173 32.6967C7.77224 32.9243 7.77224 33.1518 7.45232 33.0617V33.0595Z"
      fill="#B99460" />
    <path
      d="M15.8459 53.5115C16.3235 55.672 16.6412 57.8574 16.8462 60.063C17.0062 61.8834 17.1413 63.7037 17.3238 65.5218C17.3914 66.1369 17.3689 66.7272 17.3013 67.3197C17.0062 69.9353 17.0963 72.551 17.3238 75.1689C17.3463 75.3964 17.3463 75.624 17.3689 75.874C17.2788 75.9867 17.1188 76.0115 16.9814 76.0115C16.0487 76.0115 15.1159 76.034 14.1832 76.0115C14.0931 76.0115 14.0233 75.9889 13.9332 75.9664C13.7957 75.9214 13.7507 75.7839 13.6831 75.6713C12.7954 73.2607 12.1579 70.8027 12.3629 68.1871C12.3854 68.0046 12.3178 67.8469 12.2728 67.6644C11.8402 65.8891 11.2499 64.1611 11.0674 62.3407C10.9998 61.7031 10.9548 61.0903 10.9075 60.4527C10.9075 60.2928 10.6799 60.2928 10.7025 60.1126C10.93 59.9999 11.2026 59.9075 11.3626 59.68C11.4076 59.6124 11.5 59.5673 11.4302 59.475C11.3851 59.4074 11.3175 59.4299 11.2477 59.4074C11.0201 59.3849 10.7475 59.4975 10.6101 59.1798C10.52 58.2471 10.565 57.2919 10.565 56.3592C10.565 55.7914 10.4974 55.2214 10.6101 54.6537C10.7227 54.4712 10.9052 54.4712 11.0877 54.4712C12.5656 54.3338 13.9985 53.9936 15.3863 53.516C15.5913 53.4484 15.7265 53.4259 15.8414 53.516L15.8459 53.5115Z"
      fill="#28546F" />
    <path
      d="M4.44832 75.874C4.3582 73.0984 3.99323 70.3453 3.49308 67.6171C3.47055 67.5044 3.44802 67.367 3.44802 67.2521C3.38043 62.9535 3.47055 58.6752 4.22077 54.4442C4.2433 54.2617 4.26583 54.104 4.31089 53.9215C4.5159 53.7841 4.72092 53.8764 4.90341 53.9215C6.31374 54.309 7.76913 54.4667 9.22678 54.5591C9.38674 54.5591 9.56697 54.5591 9.68187 54.6965C9.74946 54.8091 9.74946 54.924 9.74946 55.0615C9.74946 56.3592 9.77199 57.6771 9.74946 58.9748C9.74946 59.0424 9.72693 59.1122 9.72693 59.1798C9.63681 59.4299 9.40927 59.4074 9.22678 59.4074C8.93165 59.4074 8.95418 59.52 9.06682 59.725C9.17947 59.9976 9.45432 59.9976 9.65934 60.1125C9.65934 60.3401 9.22678 60.3176 9.36421 60.6127C9.36421 61.9329 9.0916 63.2058 8.72663 64.4562C8.47655 65.3438 8.24901 66.2315 7.99893 67.1169C7.90882 67.412 7.90882 67.7094 7.9764 68.0046C8.3166 69.665 8.49908 71.3704 8.4315 73.0781C8.38644 73.8982 8.36391 74.716 8.27154 75.5361C8.24901 75.6487 8.24901 75.7636 8.18142 75.8538C8.02146 76.0137 7.84123 76.0137 7.65874 76.0137H4.95072C4.7457 75.9912 4.56322 76.0137 4.45057 75.8763L4.44832 75.874Z"
      fill="#28546F" />
    <path
      d="M9.58889 54.6714C7.88342 54.6714 6.19823 54.4213 4.56035 53.9663C4.47024 53.9437 4.37787 53.9212 4.28775 53.9212C3.92277 53.8311 3.87772 53.6261 3.94756 53.2611C4.35759 51.1681 4.88027 49.0751 4.74284 46.8921C4.67525 45.9819 4.56035 45.0717 4.33281 44.1615C4.19538 44.0016 4.31028 43.8438 4.37787 43.7064C5.31058 42.2961 6.22076 40.8407 7.22106 39.4754C7.63109 38.9077 8.1763 38.4526 8.69898 37.975C8.85894 37.815 9.06396 37.7249 9.26672 37.6348C9.5168 37.5447 9.67675 37.5897 9.72181 37.8849C9.74434 38.0448 9.74434 38.225 9.74434 38.385V53.9235C9.72181 54.1961 9.7894 54.4687 9.58438 54.6737L9.58889 54.6714Z"
      fill="#5B9572" />
    <path
      d="M14.9587 84.8587C14.8685 84.9263 14.7987 85.0862 14.7086 84.8587C14.481 84.6086 14.5036 84.291 14.436 83.9936C14.3909 83.7886 14.3233 83.6061 14.276 83.4011C14.1161 82.9234 14.0935 82.4458 14.0935 81.9457V78.4424C14.0935 78.2599 14.1386 78.0549 13.9809 77.8972C13.8209 78.0571 13.8682 78.2373 13.8682 78.4198V82.1507C13.8682 82.3782 13.9133 82.6283 13.6858 82.7883C13.5033 83.516 13.3208 84.2437 13.1405 85.0187C12.9806 84.8362 12.9806 84.6537 12.9355 84.496C12.5255 83.1758 12.3903 81.8105 12.4579 80.4249C12.503 79.6049 12.4579 78.8096 12.4579 77.9918C12.4579 77.8318 12.4579 77.6966 12.2304 77.6966C12.0028 77.6966 12.0253 77.8566 12.0253 78.0143C12.0253 79.152 11.9803 80.2672 12.0479 81.405C12.1155 82.6553 11.6604 83.7931 11.4328 85.0232C11.2503 84.8857 11.2729 84.7055 11.2278 84.5681C10.8178 83.2253 10.6353 81.8601 10.7277 80.4722C10.7727 79.677 10.7277 78.8794 10.7277 78.0841C10.7277 77.9242 10.7727 77.7439 10.5001 77.7439C10.2275 77.7439 10.2951 77.949 10.2951 78.1089V81.9772C10.2951 83.0473 9.88506 84.0026 9.61246 85.0254C9.52234 84.6604 9.4525 84.2977 9.33985 83.9553C9.02219 82.955 8.97488 81.9074 9.02219 80.862C9.04472 79.9518 9.02219 79.0416 9.02219 78.1315C9.02219 77.9715 9.11231 77.7439 8.81717 77.7439C8.49951 77.7214 8.54457 77.949 8.54457 78.1315V82.385C8.54457 82.59 8.52204 82.795 8.49951 83C8.43192 83.6376 8.27196 84.2504 8.112 84.8655C8.02189 84.8204 8.02189 85.253 7.8394 84.9105C7.63438 84.7055 7.61186 84.4329 7.5668 84.1603C7.49921 83.9102 7.45415 83.6601 7.36178 83.4326C7.1117 82.6373 7.15676 81.8398 7.15676 81.022V78.4739C7.15676 78.3139 7.20182 78.1562 7.06665 77.9738C6.97653 78.1562 6.99906 78.3139 6.99906 78.4739V81.7722C6.99906 82.3647 6.90894 82.9099 6.74898 83.4777C6.63634 83.7503 6.68139 84.0927 6.45385 84.3202C6.29389 84.5478 6.36373 84.8655 6.18124 85.0705C5.99876 84.8655 6.15872 84.5027 5.84105 84.3653C5.79599 84.0251 5.75094 83.6827 5.61351 83.3425C5.43102 82.75 5.40849 82.1597 5.43102 81.5446C5.45355 79.9969 5.43102 78.4739 5.45355 76.9261V76.631C5.47608 76.1984 5.5662 76.1083 5.99876 76.1083C6.88641 76.0858 7.77407 76.1083 8.68425 76.1083C8.66172 76.0182 8.50176 76.0182 8.54682 75.8808C8.77437 75.7208 9.00191 75.7681 9.22946 75.8808C9.22946 75.8132 9.1844 75.7433 9.1844 75.6532C9.16187 74.4704 9.16187 73.3102 9.1844 72.1274C9.1844 71.7872 9.38942 71.6272 9.70708 71.6272C10.0946 71.6047 10.4798 71.6047 10.8673 71.6272C11.2774 71.6272 11.3224 71.8999 11.3224 72.2198V75.678C11.3224 75.9281 11.4351 76.0655 11.6874 76.0655C12.2551 76.0655 12.8477 76.1331 13.3929 75.9529C13.5303 76.0655 13.688 76.0903 13.848 76.0903C14.1882 76.0678 14.5306 76.0903 14.8708 76.0903C15.621 76.0903 15.6661 76.1579 15.6661 76.8856C15.6886 78.706 15.6661 80.5263 15.6661 82.3444C15.6661 82.7094 15.5534 83.0721 15.416 83.4146C15.2335 83.9147 15.1885 84.4149 14.9609 84.87L14.9587 84.8587Z"
      fill="#789A9E" />
    <path
      d="M9.6144 37.7453C9.27421 37.6552 9.02188 37.8579 8.79433 38.0629C8.04411 38.7456 7.31641 39.4507 6.76895 40.3159C6.04125 41.4536 5.2685 42.5913 4.51602 43.7065C4.42591 43.844 4.33353 43.9791 4.33353 44.1616C4.17358 44.1841 4.12852 44.3216 4.0384 44.4342C3.24312 45.3895 2.19551 45.8446 0.990189 45.9121C0.35261 45.9572 -0.0799525 45.4345 0.0124176 44.7969C0.149846 43.9543 0.307551 43.114 0.604938 42.2939C0.877542 42.1565 0.969912 41.8388 1.19746 41.6338C1.63002 41.2689 2.08511 40.9737 2.56273 40.7236C3.08541 40.3835 3.6554 40.0861 4.20061 39.7684C5.31581 39.1534 6.226 38.313 6.99875 37.3352C7.24882 37.0176 7.52143 36.7675 7.45384 36.2899C7.40878 36.0623 7.56649 35.8348 7.79403 35.7672C8.81686 35.4721 9.84195 35.222 10.9098 35.3121C11.5699 35.3572 12.0025 35.8123 12.3652 36.2899C13.138 37.2451 13.913 38.2229 14.9809 38.883C15.6185 39.2705 16.2538 39.6332 16.9139 39.9982C17.6866 40.4533 18.4842 40.9084 19.0294 41.6586C19.0519 41.6811 19.097 41.7037 19.142 41.6811C19.507 42.5913 19.7098 43.5691 19.8021 44.5469C19.8472 45.047 19.462 45.3895 18.937 45.3895C17.5042 45.3669 16.3664 44.7969 15.5464 43.6142C15.4089 43.4317 15.2738 43.2267 15.1363 43.0216C15.0913 43.1816 15.0687 43.2942 15.0462 43.4091C14.4785 41.7713 13.3407 40.5209 12.3855 39.1106C12.0904 38.678 11.6803 38.3829 11.3627 38.0179C11.3176 37.9954 11.2951 37.9954 11.2951 38.0404C11.3176 38.2229 11.4077 38.473 11.1824 38.5406C10.9324 38.6307 10.8422 38.3355 10.6598 38.2004C10.4097 37.8602 9.99965 37.8354 9.6144 37.7453Z"
      fill="#824910" />
    <path
      d="M10.7724 38.1104C10.9098 38.2231 10.9774 38.4281 11.1824 38.4979C11.3424 38.2478 11.1599 37.9978 11.2049 37.7026C11.82 38.2478 12.3877 38.7953 12.8203 39.4554C13.5255 40.5008 14.2081 41.5484 14.9358 42.5937C15.1183 42.8438 15.0034 43.139 15.0732 43.389C14.9831 46.1872 15.5508 48.9177 16.0735 51.646C16.1411 51.9862 16.1636 52.3286 16.256 52.6463C16.3934 53.0789 16.3461 53.374 15.846 53.5114C14.8907 53.8066 13.958 54.104 12.9802 54.3067C12.2525 54.4667 11.5023 54.5343 10.7498 54.5793C10.5899 54.4194 10.6124 54.2143 10.6124 54.0341V38.6331C10.6349 38.4506 10.6124 38.2456 10.7724 38.1104Z"
      fill="#5B9572" />
    <path
      d="M16.9393 40.0659C15.2789 39.2706 13.801 38.2906 12.6858 36.7901C12.5033 36.54 12.2758 36.3125 12.0933 36.0624C11.6832 35.5397 11.1155 35.3573 10.5005 35.3798C9.65786 35.4248 8.81752 35.6073 7.99745 35.8124C7.63247 35.9025 7.54236 36.1773 7.58742 36.5175C7.60994 36.6549 7.67753 36.7676 7.56489 36.905C6.72229 37.8828 5.90448 38.9304 4.76675 39.5905C4.06158 40.0005 3.33389 40.4106 2.62872 40.8409C2.06098 40.8409 1.69601 40.4534 1.3085 40.1357C1.24092 40.0681 1.24092 39.9532 1.3085 39.8631C2.01367 37.9301 2.96891 36.1548 4.69916 34.927C5.47192 34.3817 6.26945 33.9492 7.17964 33.654C7.45224 33.5414 7.6122 33.6766 7.79469 33.8591C8.79499 34.9292 10.1828 35.1094 11.4129 34.3367C11.6179 34.1993 11.8004 34.0415 11.9581 33.8365C12.0482 33.6991 12.1406 33.5639 12.3456 33.5865C12.9607 33.6766 13.5734 33.814 14.166 34.0416C16.3964 34.9743 17.7369 36.6797 18.4195 38.9552C18.4195 38.9777 18.442 39.0002 18.4646 39.0228C18.4871 39.1354 18.442 39.2278 18.3519 39.2729C17.8518 39.5455 17.4417 39.9104 16.9416 40.0681L16.9393 40.0659Z"
      fill="#5B9572" />
    <path
      d="M12.2969 33.5597C11.9792 33.8323 11.7517 34.1972 11.3867 34.4248C10.1363 35.1975 8.58857 34.97 7.63333 33.857C7.4959 33.6971 7.36072 33.5844 7.1557 33.6295C7.33819 33.4921 7.67838 33.4245 7.45084 33.0618C7.58827 33.0392 7.67838 32.9942 7.70091 32.8342C7.81356 32.1741 7.83834 31.4915 7.54096 30.8561C7.22329 30.196 6.94844 29.5134 6.29058 29.0583C5.88055 28.7857 5.81296 27.898 6.08556 27.488C6.31311 27.1703 6.31311 26.8054 6.19821 26.4427C6.76595 26.17 7.24357 25.76 7.79103 25.4424C8.20106 25.1923 8.58631 25.2148 8.95129 25.555C9.47397 26.0326 10.089 26.1227 10.7942 26.0326C11.2718 25.9876 11.7494 25.92 12.2045 26.0777C12.2045 26.5778 12.227 27.0554 12.7497 27.3506C12.8398 27.3956 12.9322 27.5781 12.8624 27.6682C12.6799 28.0332 12.7249 28.5108 12.4073 28.7834C11.9297 29.216 11.8621 29.7837 11.7246 30.3312C11.5872 30.8989 11.612 31.4689 11.6345 32.0367C11.6571 32.5143 11.8846 32.8567 12.227 32.9469C11.8869 33.2195 12.2721 33.3794 12.2946 33.5619L12.2969 33.5597Z"
      fill="#824910" />
    <path
      d="M15.2324 83.4481C15.6199 82.2202 15.4149 80.9451 15.4374 79.6947C15.46 78.7394 15.46 77.8067 15.46 76.8515C15.8475 76.6465 17.7129 76.669 18.0756 76.8515C18.0531 76.9416 18.008 77.034 18.008 77.1241C17.963 78.3069 17.9179 79.5122 17.9179 80.695C17.9179 81.6277 18.4631 82.1053 19.3958 81.9679C19.8735 81.9003 20.3736 81.8552 20.8738 81.8079C21.6465 81.7178 22.194 82.1954 22.194 83.0133C22.194 83.2183 22.194 83.4233 22.0813 83.6058C20.0334 83.5382 17.963 83.6058 15.9173 83.5832C15.6898 83.5832 15.4397 83.6283 15.2347 83.4458L15.2324 83.4481Z"
      fill="#F7A752" />
    <path
      d="M5.47336 76.8515C5.47336 78.3767 5.49589 79.8997 5.49589 81.4249C5.49589 82.1076 5.586 82.7902 5.7009 83.4503C5.51841 83.6103 5.29087 83.563 5.06332 83.563C3.42544 83.5855 1.78756 83.5404 0.149685 83.5855C-0.0102726 83.1304 -0.0102726 82.6753 0.262332 82.2427C0.489878 81.9026 0.807541 81.7426 1.21757 81.7877C1.78531 81.8552 2.33277 81.9003 2.90051 81.9927C3.74311 82.1053 4.31084 81.6277 4.31084 80.7648C4.28832 79.4671 4.24326 78.1492 4.1982 76.8515C4.5857 76.6465 5.01826 76.669 5.4711 76.8515H5.47336Z"
      fill="#F7A752" />
    <path
      d="M15.2336 83.4484H21.6026C21.7626 83.4484 21.9676 83.3583 22.0577 83.6084C22.0352 83.6309 22.0352 83.6534 22.0127 83.676C21.8752 84.0635 21.8752 84.6087 21.5801 84.7912C21.2624 84.9737 20.7848 84.8588 20.3748 84.8588H17.3716C17.2117 84.8588 17.054 84.8588 16.9165 84.7213C16.2114 84.0838 15.8013 84.0838 15.1187 84.7439C15.0736 84.7889 15.0061 84.8114 14.9587 84.8565C14.9362 84.3564 15.1412 83.9238 15.2314 83.4462L15.2336 83.4484Z"
      fill="#AA6931" />
    <path
      d="M0.126953 83.6082C0.21707 83.3806 0.399558 83.4707 0.559515 83.4707H5.67817C5.79082 83.7433 5.9733 84.0385 5.76829 84.3359C5.72323 84.3584 5.67817 84.3584 5.65564 84.3809C5.22308 84.9487 4.61028 84.8585 4.01776 84.8585H0.899708C0.627103 84.8585 0.512204 84.7909 0.444616 84.5183C0.354499 84.2232 0.2396 83.9258 0.126953 83.6082Z"
      fill="#AA6931" />
    <path
      d="M11.6604 21.1841C11.1828 21.344 10.7277 21.2066 10.2726 21.139C9.5224 21.0489 8.7947 21.2066 8.04222 21.2066C7.70203 21.2066 7.38212 21.4116 7.06445 21.2742C7.97464 19.6814 9.93018 19.4088 11.2504 20.6817C11.3878 20.8416 11.523 21.0219 11.6604 21.1818V21.1841Z"
      fill="#5C946E" />
    <path
      d="M18.0995 76.8741H15.4839C15.4689 76.419 15.2263 76.199 14.7562 76.214H13.6184C13.4585 76.214 13.3233 76.1915 13.3008 75.9864C13.3233 75.9414 13.3458 75.9189 13.3909 75.8963C13.5734 75.8287 13.7559 75.8513 13.9361 75.8513C15.0964 75.8513 16.2341 75.8513 17.3944 75.8738C17.5994 75.8738 17.8044 75.8963 18.0094 75.8963C18.5771 75.8963 18.7822 76.1464 18.6019 76.7389C18.4893 76.989 18.2617 76.8065 18.1018 76.8763L18.0995 76.8741Z"
      fill="#A96933" />
    <path
      d="M13.6621 82.7881C13.7748 82.4704 13.7297 82.128 13.7297 81.8103V78.102C13.7297 77.942 13.6171 77.6694 13.9572 77.6694C14.2974 77.6694 14.2073 77.9195 14.2073 78.1245V80.7627C14.2073 81.6729 14.1397 82.5605 14.3673 83.4482C14.1623 83.6082 13.9347 83.5856 13.7297 83.4482C13.6621 83.2432 13.7748 83.0156 13.6621 82.7881Z"
      fill="#F0A759" />
    <path
      d="M5.47386 76.8515C5.0413 76.8515 4.60874 76.8515 4.15365 76.874C3.56113 76.9191 3.81345 76.464 3.76614 76.2139C3.69855 75.8264 3.97116 75.8737 4.1987 75.8737H7.74707C7.85971 75.8737 7.99714 75.8737 8.11204 75.8061C8.24947 75.7611 8.38465 75.7386 8.49955 75.8963L8.52208 75.9188C8.68203 76.0089 9.02222 75.8287 8.9997 76.0562C8.9997 76.3063 8.6595 76.1689 8.47702 76.1936C7.65695 76.2162 6.83914 76.2162 5.99654 76.1936C5.58651 76.1711 5.40402 76.2838 5.47386 76.7163C5.49639 76.7614 5.47386 76.8064 5.47386 76.8538V76.8515Z"
      fill="#A86A35" />
    <path
      d="M16.9395 40.0659C17.3044 39.8383 17.6671 39.6108 18.0321 39.3607C18.1696 39.2706 18.3498 39.2007 18.4422 39.0205C18.7148 39.8158 18.9423 40.6359 19.1248 41.4785C19.1473 41.546 19.1699 41.5911 19.1924 41.6609C19.1248 41.866 19.055 41.706 19.0099 41.6609C18.4174 40.9783 17.6671 40.5232 16.9395 40.0681V40.0659Z"
      fill="#6D3609" />
    <path
      d="M1.28736 39.8382C1.30989 39.9283 1.26483 40.0432 1.37748 40.0883C1.78751 40.3383 2.15023 40.656 2.60532 40.816C1.92269 41.2035 1.24005 41.5887 0.830017 42.2939C0.784958 42.3615 0.692588 42.5214 0.625 42.2939C0.807487 41.4738 0.989974 40.6335 1.28511 39.8359L1.28736 39.8382Z"
      fill="#6D3609" />
    <path
      d="M6.38477 84.2685C6.42982 83.9959 6.45235 83.7232 6.56725 83.4484C6.83986 83.2659 7.11246 83.2659 7.40985 83.4484C7.63739 83.881 7.65992 84.3811 7.79735 84.8587C7.43238 84.8813 7.09219 84.8813 6.86464 84.5185C6.75199 84.3586 6.54698 84.3586 6.38702 84.2685H6.38477Z"
      fill="#A96A33" />
    <path
      d="M13.7305 83.4707H14.3681C14.5731 83.9033 14.6182 84.4034 14.7083 84.8585C13.8207 84.8585 13.6382 84.5859 13.7305 83.4707Z"
      fill="#A96B34" />
    <path
      d="M8.04373 84.8137C7.95361 84.7235 7.97614 84.6312 7.99867 84.5185C8.15862 83.9959 8.22621 83.4732 8.43123 82.9482C8.45376 83.3357 8.47629 83.6985 8.47629 84.086C8.47629 84.4036 8.38617 84.6785 8.04373 84.8137Z"
      fill="#A96E3B" />
    <path
      d="M12.2296 26.1201C11.6619 26.1201 11.0919 26.1426 10.5016 26.1877C9.88658 26.2327 9.29632 26.0976 8.84123 25.6199C8.56862 25.3473 8.27349 25.3248 7.95357 25.5073C7.61338 25.6898 7.31599 25.9173 6.99833 26.1449C6.77078 26.3274 6.52071 26.44 6.22557 26.4625C6.11293 25.0071 6.88568 24.3696 8.61368 24.1645C9.59145 24.0519 10.5242 24.3696 11.3893 24.7796C11.9345 25.0297 12.162 25.5298 12.2319 26.1223L12.2296 26.1201Z"
      fill="#332832" />
    <path
      d="M10.7732 38.1102C10.7732 38.2229 10.7506 38.3603 10.7506 38.4752V59.3125C10.9331 59.5851 10.9331 59.8577 10.7506 60.1326C10.8182 60.27 11.0232 60.1326 11.0683 60.2926C10.8182 60.5201 10.8858 60.8152 10.8858 61.1126V71.0548C10.8858 71.3049 10.9309 71.555 10.7484 71.76H9.58812C9.40563 71.555 9.47547 71.2824 9.47547 71.0548V61.0676C9.47547 60.8626 9.58812 60.5674 9.20287 60.5449C9.06544 60.1349 9.45294 60.2723 9.59037 60.1574C9.45294 59.8848 9.43041 59.6122 9.59037 59.3373V37.8173C10.0905 37.5898 10.433 37.8399 10.7732 38.1125V38.1102Z"
      fill="#B6A18E" />
    <path
      d="M14.2786 55.7869C14.8238 57.2648 15.3488 58.6526 15.8715 60.0405C15.4164 59.8805 15.2339 59.4479 14.9162 59.1753C14.3485 58.6752 14.2786 57.9925 14.3012 57.3099C14.3462 56.8323 14.1412 56.3772 14.2786 55.7847V55.7869Z"
      fill="#233F48" />
    <path
      d="M10.75 60.1306V59.3105H11.5228C11.7503 59.3105 11.7503 59.4232 11.6602 59.5606C11.4326 59.8332 11.2276 60.1982 10.75 60.1284V60.1306Z"
      fill="#253F48" />
    <path
      d="M13.3206 75.9192C13.458 75.7817 13.8433 76.0318 13.8208 75.624C13.9109 75.6691 13.8884 75.784 13.9109 75.8516C13.7284 76.0115 13.5234 75.9192 13.3184 75.9192H13.3206Z"
      fill="#789A9E" />
    <path
      d="M4.17578 60.9282C4.58581 59.3354 4.99585 57.72 5.44869 56.0371C5.6537 56.4021 5.58611 56.6972 5.6537 56.9698C5.76635 57.4925 5.79113 58.0625 5.83619 58.5852C5.85872 58.7451 5.81366 58.8803 5.72354 59.0177C5.31351 59.5855 4.92826 60.1555 4.51823 60.7232C4.45064 60.8133 4.33574 60.8832 4.26815 60.9733C4.22309 60.9733 4.20056 60.9507 4.17803 60.9282H4.17578Z"
      fill="#243E48" />
    <path
      d="M9.58894 59.29V60.1101C9.17891 60.1101 8.88377 59.86 8.74635 59.45C8.70129 59.29 8.7914 59.29 8.88377 59.29H9.58894Z"
      fill="#254048" />
    <path
      d="M7.40705 83.4708H6.56445C6.97449 81.8104 6.72441 80.1275 6.792 78.4671V78.012C6.792 77.852 6.76947 77.6943 6.99702 77.6943C7.24709 77.6943 7.20203 77.8543 7.20203 78.012C7.20203 79.1497 7.22456 80.2875 7.20203 81.4252C7.1795 82.1078 7.29215 82.7905 7.40705 83.4731V83.4708Z"
      fill="#F5A753" />
    <path
      d="M10.5331 26.9492C10.8508 27.0033 11.1707 27.0551 11.4343 27.2151C11.5402 27.2691 11.6731 27.348 11.5942 27.5079C11.5154 27.6409 11.4095 27.5868 11.3014 27.535C11.0355 27.4021 10.7719 27.3232 10.479 27.2962C10.3732 27.2962 10.2402 27.2421 10.2402 27.1114C10.2673 26.9515 10.4002 26.9515 10.5331 26.9515V26.9492Z"
      fill="#4F3537" />
    <path
      d="M8.49145 27.0823C8.49145 27.2153 8.35853 27.2671 8.25264 27.2671C7.88091 27.2941 7.6421 27.7177 7.24558 27.6388C7.16673 27.6118 7.19151 27.5059 7.24558 27.427C7.35147 27.2423 8.14676 26.8706 8.33375 26.9224C8.4126 26.9494 8.46667 26.9765 8.49371 27.0823H8.49145Z"
      fill="#493134" />
    <path
      d="M8.09263 29.0987C7.93268 29.0447 7.88086 28.914 7.88086 28.7811C7.88086 28.6211 7.93493 28.4882 8.11967 28.5152C8.27963 28.5423 8.35848 28.6752 8.33145 28.8329C8.33145 28.9658 8.25259 29.0717 8.09263 29.0987Z"
      fill="#623A37" />
    <path
      d="M10.5868 28.3013C10.7715 28.3283 10.8256 28.4612 10.8256 28.6189C10.8256 28.7766 10.7467 28.9118 10.5868 28.9118C10.4268 28.9118 10.375 28.7789 10.375 28.6189C10.375 28.486 10.4291 28.3531 10.5868 28.3013Z"
      fill="#633A35" />
    <path
      d="M56.2323 18.3839H55.6781C55.1712 18.4064 55.009 18.2465 55.1013 17.7373C55.3559 16.1693 55.2162 14.6463 54.617 13.1706C53.2089 9.75744 49.611 7.61265 45.968 8.07225C42.8544 8.46426 40.6398 10.1247 39.279 12.9386C39.0943 13.3081 38.8022 13.4387 38.4026 13.3306C35.5437 12.524 32.6599 14.6688 32.5202 17.7351C32.4977 18.1744 32.358 18.3816 31.921 18.4492C30.1682 18.7489 28.8525 19.6951 27.8612 21.1708C27.7913 21.2631 27.7463 21.3555 27.6764 21.4254C27.5142 21.5628 27.307 21.5876 27.1222 21.4479C26.9375 21.3105 26.96 21.1482 27.0772 20.9635C28.091 19.3482 29.4991 18.242 31.3442 17.7801C31.6439 17.7103 31.7588 17.5954 31.7835 17.2732C31.9683 14.8513 34.1356 12.6592 36.5575 12.4294C37.1793 12.3596 37.8034 12.3596 38.4252 12.4993C38.7023 12.5691 38.7248 12.3844 38.8172 12.2221C40.063 9.89261 41.9533 8.34711 44.5148 7.60814C45.7832 7.23866 47.0742 7.14629 48.3899 7.37835C48.6445 7.4234 48.7368 7.33329 48.8044 7.10124C49.843 4.42476 52.3573 2.83419 55.2162 2.97162C57.9378 3.10905 60.3146 5.04656 61.0513 7.70051C61.9976 11.161 59.9204 14.7589 56.4148 15.6579C56.1377 15.7277 56.0453 15.8201 56.0679 16.0972C56.0904 16.4193 56.1129 16.7663 56.0453 17.0885C55.953 17.4805 56.1152 17.503 56.4599 17.503C57.8679 17.503 59.1363 17.895 60.2876 18.7016C62.3873 20.1547 63.4237 22.1846 63.4237 24.7439C63.4237 25.2734 63.3088 25.805 63.1691 26.312C63.0767 26.6341 62.8221 26.8189 62.5473 26.704C62.2476 26.5891 62.2927 26.357 62.34 26.1047C63.2164 22.4369 60.9792 19.0237 57.2664 18.4019C56.9442 18.3569 56.5973 18.3569 56.2751 18.3321C56.2301 18.3546 56.2301 18.3771 56.2301 18.3771L56.2323 18.3839Z"
      fill="#5B9572" />
    <path
      d="M48.6452 41.6949H52.3355C51.806 41.0731 51.5965 40.4039 51.7137 39.6424C51.7587 39.273 51.9435 38.9283 52.153 38.6286C52.8221 37.6373 53.6985 36.8285 54.5974 36.0693C54.8272 35.862 55.0818 35.9071 55.244 36.1617C55.8906 37.2926 56.4426 38.4687 56.6746 39.7821C56.7895 40.4738 56.5822 41.1204 56.0979 41.7196H61.7482C62.0479 41.7196 62.2776 41.7895 62.2776 42.159C62.2776 42.5059 62.0231 42.551 61.7482 42.551H27.8394C27.5623 42.551 27.2852 42.5284 27.2852 42.159C27.2852 41.7895 27.5397 41.7444 27.8394 41.7444H29.8467C29.8693 41.5822 29.7318 41.5146 29.6845 41.3975C29.2001 40.5436 29.1078 39.6898 29.662 38.8382C30.3311 37.7545 31.2773 36.9006 32.2461 36.0693C32.4759 35.8846 32.7305 35.9319 32.8679 36.1842C33.537 37.4075 34.1588 38.6286 34.3211 40.0367C34.3909 40.6585 34.1363 41.2127 33.7443 41.7196H37.3648C37.3873 41.5822 37.2499 41.4898 37.2025 41.3975C36.7182 40.5661 36.6483 39.7145 37.1575 38.8607C37.8266 37.7545 38.7954 36.9006 39.7641 36.0693C39.9939 35.8846 40.226 35.9544 40.3634 36.2067C40.9852 37.3377 41.562 38.4912 41.794 39.7821C41.9089 40.4963 41.7242 41.1429 41.2398 41.7422H44.9076C44.653 41.3502 44.4232 40.9356 44.3308 40.4738C44.2384 39.9443 44.3083 39.4352 44.5854 38.9756C45.2545 37.8221 46.2458 36.9457 47.2371 36.0693C47.4669 35.8846 47.7215 35.9544 47.8364 36.1842C48.483 37.3377 49.0597 38.5137 49.267 39.8294C49.3368 40.4986 49.1048 41.0978 48.6452 41.6971V41.6949Z"
      fill="#2483B2" />
    <path
      d="M59.5536 29.7295C60.2925 29.3149 60.8693 28.7382 61.3537 28.0691C61.3987 27.9992 61.4686 27.9069 61.5159 27.8393C61.6781 27.5847 61.8854 27.5396 62.1377 27.7018C62.3675 27.864 62.2999 28.0938 62.1602 28.3011C61.3762 29.4771 60.3376 30.3761 59.0242 30.9303C58.1252 31.3223 57.2015 31.4845 56.2328 31.4845H32.9825C29.4297 31.4845 26.5234 28.9477 26.0165 25.4647C25.9016 24.7032 25.9466 23.9192 26.0863 23.1577C26.1314 22.8806 26.2936 22.6733 26.5932 22.7431C26.8929 22.813 26.9402 23.0428 26.8929 23.3424C26.5009 25.8792 27.3322 27.9091 29.3373 29.4771C29.4747 29.592 29.6369 29.6619 29.7766 29.7543C30.1912 29.8466 30.5606 30.0539 30.9752 30.1936C31.6894 30.4482 32.4509 30.5631 33.2123 30.5631H56.1156C57.0844 30.5631 58.0531 30.4008 58.9295 29.9412C59.1368 29.8263 59.3689 29.8263 59.5513 29.734L59.5536 29.7295Z"
      fill="#5B9572" />
    <path
      d="M59.5533 29.7296C58.607 30.3762 57.5234 30.6533 56.3924 30.6533C48.5725 30.6758 40.7548 30.6758 32.9349 30.6533C31.8039 30.6533 30.7428 30.3762 29.7988 29.7296C29.8687 29.7296 29.961 29.707 30.0286 29.707C39.8784 29.7296 49.726 29.7296 59.551 29.7296H59.5533Z"
      fill="#E8F0FD" />
    <path
      d="M58.6096 15.5225C58.7245 15.5225 58.8394 15.5924 58.9093 15.7073C59.1391 16.0993 59.3711 16.4913 59.5784 16.8833C59.6933 17.0906 59.6482 17.2978 59.4409 17.4375C59.2112 17.5749 59.0016 17.4826 58.8642 17.2753C58.6344 16.9058 58.4249 16.5611 58.2424 16.1691C58.0577 15.8469 58.2424 15.5 58.6119 15.5225H58.6096Z"
      fill="#FD9E5D" />
    <path
      d="M46.9364 4.24441C47.3509 4.49899 47.8826 4.70626 48.2972 5.07574C48.4346 5.19064 48.4121 5.37538 48.3197 5.51506C48.2273 5.67728 48.0651 5.76964 47.8804 5.6998C47.396 5.49253 46.9567 5.23795 46.5196 4.93831C46.3574 4.84594 46.3349 4.63868 46.4272 4.47646C46.5196 4.31425 46.657 4.22188 46.9341 4.24667L46.9364 4.24441Z"
      fill="#FD9E5D" />
    <path
      d="M61.076 5.76542C60.8214 5.78795 60.7065 5.69558 60.6367 5.53562C60.5443 5.35088 60.5916 5.14361 60.7516 5.02871C61.1436 4.77413 61.5581 4.54433 61.9974 4.31453C62.1822 4.22216 62.3669 4.26947 62.5044 4.45196C62.6193 4.61417 62.6193 4.82144 62.5044 4.93634C62.0425 5.30582 61.5131 5.53562 61.0737 5.76767L61.076 5.76542Z"
      fill="#FD9E5D" />
    <path
      d="M62.2993 14.0919C61.86 13.8621 61.3531 13.6301 60.9386 13.2606C60.8011 13.1457 60.8237 12.9384 60.9386 12.7762C61.076 12.5915 61.2607 12.5464 61.4229 12.6388C61.8375 12.8686 62.2543 13.1006 62.6688 13.3529C62.831 13.4453 62.8761 13.6301 62.8062 13.8148C62.7139 14.0221 62.5764 14.1144 62.2993 14.0919Z"
      fill="#FD9E5D" />
    <path
      d="M57.6855 2.60677C57.7081 2.56171 57.7306 2.46934 57.7779 2.37697C57.9627 2.03002 58.1699 1.68532 58.3772 1.33837C58.5146 1.1311 58.6994 1.0162 58.9539 1.15363C59.1837 1.29106 59.2311 1.50058 59.1162 1.73038C58.9089 2.12239 58.6768 2.49187 58.4696 2.86135C58.3547 3.04609 58.1925 3.09115 57.9852 3.04609C57.7779 3.00103 57.6855 2.86135 57.6855 2.60677Z"
      fill="#FD9E5D" />
    <path
      d="M51.2734 2.58409C51.2509 2.79136 51.1585 2.93104 50.9963 2.99863C50.8116 3.091 50.6494 2.99863 50.5345 2.83642C50.2799 2.44441 50.0501 2.0524 49.8203 1.63786C49.7279 1.45312 49.7752 1.26838 49.9352 1.13095C50.0726 1.01605 50.2821 0.968742 50.4196 1.10842C50.8341 1.54774 51.0188 2.07718 51.2734 2.58409Z"
      fill="#FD9E5D" />
    <path
      d="M62.9912 10.1721C62.6218 10.1495 62.3221 10.127 62.0225 10.1022C61.7454 10.0797 61.5832 9.91747 61.608 9.66289C61.6305 9.40831 61.7927 9.27088 62.0698 9.29341C62.4843 9.31594 62.9237 9.33847 63.3382 9.38578C63.5928 9.40831 63.7302 9.54799 63.7302 9.80032C63.7302 10.0526 63.568 10.1923 63.3157 10.1923C63.1782 10.1698 63.0611 10.1698 62.9935 10.1698L62.9912 10.1721Z"
      fill="#FD9E5D" />
    <path
      d="M55.1486 1.08366V1.73025C55.1486 1.98483 55.0111 2.14479 54.7791 2.14479C54.547 2.14479 54.3646 2.00736 54.3646 1.75278C54.342 1.2684 54.342 0.806549 54.3646 0.322169C54.3646 0.0923701 54.5268 0 54.734 0C54.9638 0 55.126 0.0923701 55.1486 0.322169C55.1711 0.57675 55.1486 0.829078 55.1486 1.08366Z"
      fill="#FD9E5D" />
    <path
      d="M64.0038 42.5017H63.4496C63.195 42.4791 63.0801 42.3395 63.0801 42.1097C63.0801 41.8799 63.195 41.7176 63.427 41.6951C63.819 41.6726 64.1885 41.6726 64.5805 41.6951C64.8103 41.7176 64.9725 41.8799 64.95 42.1344C64.9275 42.3642 64.7878 42.4814 64.558 42.5039C64.3958 42.5264 64.1885 42.5039 64.0038 42.5039V42.5017Z"
      fill="#2483B2" />
    <path
      d="M25.6012 42.5239H25.439C25.1393 42.5464 24.8848 42.4788 24.8848 42.1094C24.8848 41.7624 25.1393 41.6948 25.439 41.6948H25.9234C26.2005 41.6948 26.3627 41.8323 26.3379 42.1094C26.3379 42.3865 26.1757 42.5014 25.8986 42.5014C25.8062 42.5014 25.6913 42.5239 25.5989 42.5239H25.6012Z"
      fill="#2483B2" />
    <path
      d="M60.3836 9.45534C60.3385 12.0147 58.6308 14.2293 56.2314 14.8534C55.9543 14.9232 55.8619 14.8759 55.8169 14.5988C55.31 12.0394 53.9267 10.0771 51.7346 8.64879C51.5724 8.53389 51.5498 8.46405 51.5971 8.25678C51.9666 6.98838 53.0953 5.99709 54.4336 5.85741C54.571 5.83488 54.7332 5.81235 54.8729 5.81235C55.1275 5.78982 55.2874 5.67492 55.2874 5.42034C55.2874 5.1207 55.0802 5.00581 54.8031 5.00581C53.8568 5.02833 53.003 5.32797 52.2663 5.90472C51.6445 6.41163 51.1601 7.01091 50.9055 7.79493C50.8357 8.02473 50.7681 8.1171 50.491 7.97967C50.2138 7.84224 49.9367 7.72509 49.6371 7.6575C49.4073 7.58766 49.3825 7.52007 49.4524 7.31055C50.1665 5.37303 52.3113 3.87484 54.411 3.78247C57.27 3.64504 59.8091 5.67267 60.2934 8.51136C60.3633 8.811 60.3633 9.13317 60.3858 9.45759L60.3836 9.45534Z"
      fill="#FD9E5D" />
    <path
      d="M47.3058 36.9658C47.7677 37.8647 48.1822 38.7659 48.367 39.7347C48.5517 40.6584 47.9975 41.4649 47.076 41.6722C46.1996 41.8569 45.3007 41.3027 45.0687 40.4263C44.9538 39.9645 44.9988 39.5274 45.2759 39.1354C45.8302 38.3041 46.5443 37.6372 47.3058 36.9681V36.9658Z"
      fill="white" />
    <path
      d="M31.8305 41.7398C31.1389 41.6947 30.6072 41.3928 30.285 40.771C29.9854 40.1943 30.0304 39.6175 30.4224 39.0881C30.9294 38.3739 31.5534 37.7499 32.1977 37.1506C32.3352 37.0357 32.405 37.0357 32.4749 37.1956C32.8669 38.027 33.2589 38.8786 33.4436 39.8023C33.6284 40.7936 32.8218 41.7623 31.8283 41.7398H31.8305Z"
      fill="white" />
    <path
      d="M55.8628 40.1496C55.8628 40.9336 55.1486 41.6725 54.2948 41.7401C53.4882 41.81 52.6794 41.1408 52.5195 40.332C52.4271 39.9175 52.4969 39.5255 52.7493 39.156C53.2562 38.3945 53.9028 37.7727 54.5719 37.1487C54.6643 37.0563 54.7566 36.9639 54.849 37.1487C55.2883 38.0724 55.7254 38.9938 55.8876 40.0076C55.8651 40.0775 55.8651 40.1225 55.8651 40.145L55.8628 40.1496Z"
      fill="white" />
    <path
      d="M40.9383 40.1022C40.9383 40.956 40.2241 41.6927 39.3477 41.74C38.5412 41.7851 37.7098 41.1182 37.5724 40.2644C37.5026 39.8498 37.5724 39.4804 37.827 39.1334C38.3339 38.3944 38.958 37.7726 39.6271 37.1734C39.7194 37.081 39.8118 36.9661 39.9267 37.1734C40.366 38.0498 40.758 38.9487 40.9405 39.9174C40.9405 40.0098 40.9405 40.0796 40.9405 40.1022H40.9383Z"
      fill="white" />
    <path
      d="M9.22878 30.6352C8.97645 30.6172 8.80072 30.437 8.6295 30.2319C8.55515 30.1306 8.48756 30.0022 8.57993 29.876C8.6723 29.7498 8.73764 29.9053 8.821 29.9503C8.92238 30.0269 9.01475 30.1599 9.13866 30.2432C9.52391 30.5474 9.84608 30.3198 10.202 30.0404C10.2854 29.9684 10.3665 29.7814 10.4769 29.9481C10.5625 30.1103 10.4116 30.1666 10.3237 30.2657C10.0083 30.5812 9.63205 30.7141 9.22878 30.6375V30.6352Z"
      fill="#4F3537" />
  </g>
  <defs>
    <clipPath id="clip0_1846_7637">
      <rect width="90" height="85.0638" fill="white" />
    </clipPath>
  </defs>
</svg>