<svg xmlns="http://www.w3.org/2000/svg" xml:space="preserve" id="Layer_1" width="512" height="512" x="0" y="0" version="1.1"><style id="style2" type="text/css">.st0{stroke:#242424;stroke-width:4;stroke-miterlimit:10}</style><g id="g88" transform="matrix(.58543 0 0 .58543 -306.24 -49.32)"><path id="path4" d="M1079.5 595.9c1.2-.1 2.7-.2 2.6 1.5-.1 1.9-1.9 1.6-3.2 1.8-1.3.2-2.7-.1-2.6-1.6.1-2 2-1.5 3.2-1.7z"/><path id="path6" d="M1039.9 580.4c-1.3.1-2.9.3-2.7-1.5.2-1.8 2.1-1.5 3.4-1.8 1.3-.2 2.7-.1 2.5 1.6-.2 2.2-2.1 1.3-3.2 1.7z"/><path id="path8" d="M1062.3 576.7c1 .3 2.7-.4 2.8 1.4.1 2-1.4 2.1-2.9 1.8-1.3-.2-3.1 0-2.9-2 .3-1.8 1.9-1 3-1.2z"/><path id="path10" d="M983.2 603.9c-1 1.6-2.1 2.9-3.8 3.4-.9.3-1.9-.8-1.7-1.5.6-1.7 2.1-2.8 3.7-3.4.9-.3 1.2 1 1.8 1.5z"/><path id="path12" d="M1022.4 600.6c-.1 2.1-2.2 1.8-3.3 2.6-.8.6-1.8.1-2-.9-.4-2.2 1.7-2.2 2.9-2.9 1.1-.6 1.9 0 2.4 1.2z"/><path id="path14" d="M1053.7 621c-.6 2-2.5 2.3-3.8 3.1-.2.1-1.3-.7-1.4-1.1-.2-2.3 1.9-2.6 3.3-3.3 1.1-.5 1.3.8 1.9 1.3z"/><path id="path16" d="M1072.9 578.1c1 .2 2.8-.4 3 1.6.2 1.4-1 1.6-2.1 1.5-1.3-.2-3.1.1-3.3-1.7-.2-1.5 1-1.6 2.4-1.4z"/><path id="path18" d="M1060.5 613.9c1.3.3 1.9.9 1.8 1.9-.3 1.9-2.1 2.1-3.4 2.7-.9.4-1.7-.5-1.7-1.4 0-2.4 2.7-1.7 3.3-3.2z"/><path id="path20" d="M1017.6 585.4c-1.3.2-1.9-.6-1.8-1.5.2-2.1 2.3-1.8 3.6-2.4 1.4-.6 2 .6 1.8 1.7-.4 2-2.5 1.4-3.6 2.2z"/><path id="path22" d="M1011.1 586.8c-.6 2-2.7 1.9-4.1 2.7-.7.4-1.7-.7-1.5-1.6.4-2.1 2.4-2 3.9-2.5 1.1-.4 1.5.5 1.7 1.4z"/><path id="path24" d="M1072.9 589.3c.1 1.6-1 1.6-2.1 1.5-1.2-.1-3.1 1-3.3-1.2-.2-1.8 1.4-1.6 2.6-1.7 1.2-.1 2.5-.4 2.8 1.4z"/><path id="path26" d="M974.9 611.4c-.7 1.7-1.9 2.9-3.5 3.6-.8.4-1.8-.8-1.6-1.5.4-1.8 1.9-2.9 3.4-3.7.8-.4 1.2.9 1.7 1.6z"/><path id="path28" d="M1062.3 590.1c-.3 2-1.9 1.5-3.2 1.7-1.1.1-2.2-.1-2.1-1.5.2-1.9 1.9-1.6 3.2-1.8 1.2-.1 2.2.1 2.1 1.6z"/><path id="path30" d="M995.7 592.8c.7-1.7 2.4-2.3 3.9-2.7.7-.2 1.8.7 1.5 1.6-.5 1.8-2.5 2.2-3.9 2.8-1 .5-1.3-.7-1.5-1.7z"/><path id="path32" d="M1077.6 609.6c-1.2 0-1.8-.6-1.7-1.5.2-2.2 2.3-1.7 3.6-2.2 1.3-.5 2 .6 1.8 1.7-.5 1.9-2.6 1.1-3.7 2z"/><path id="path34" d="M1051.4 605.2c-.9 1.7-2.8 1.7-4.3 2.2-.7.2-1.5-1-1.3-1.8.6-2 2.6-1.9 4.2-2.2.8-.2 1.2.8 1.4 1.8z"/><path id="path36" d="M1041.9 594.1c-.8 1.5-2.5 1.4-3.9 1.8-1.1.3-1.7-.7-1.5-1.5.3-2.2 2.4-1.5 3.7-1.9 1.1-.4 1.4.6 1.7 1.6z"/><path id="path38" d="M989.8 595.9c1.2-.1 2 .7 1.9 1.4-.2 1.7-1.9 2.3-3.3 3-.9.5-1.9-.1-1.9-1-.1-2.2 2.2-2.3 3.3-3.4z"/><path id="path40" d="M1028.5 599.2c-1.2.1-2-.5-1.9-1.4.3-2 2.3-1.8 3.6-2.4 1.2-.5 1.6.6 1.6 1.4-.1 2-2.2 1.6-3.3 2.4z"/><path id="path42" d="M1013 605.4c-.4 1.8-2 2.3-3.3 2.9-1 .5-1.9-.5-1.8-1.2.1-1.9 1.9-2.3 3.2-2.9.9-.4 1.5.2 1.9 1.2z"/><path id="path44" d="M1050 590.1c1.6-.5 2.2.4 2 1.6-.2 2-2.2 1.1-3.3 1.7-1.2.6-2.2-.2-2.1-1.4 0-2.5 2.4-1.1 3.4-1.9z"/><path id="path46" d="M1080.4 587.9c1 .3 2.9-.4 2.9 1.7 0 1.5-1.3 1.4-2.2 1.3-1.2-.2-3.1.7-3-1.6-.1-1.3 1-1.5 2.3-1.4z"/><path id="path48" d="M1004.4 611c-.4 2.1-2.2 2.7-3.7 3.4-.6.3-1.6-.7-1.5-1.6.3-1.8 2-2.2 3.2-2.9 1.1-.7 1.3.8 2 1.1z"/><path id="path50" d="M1070 609.4c1 .2 1.8.8 1.6 1.7-.5 1.8-2.3 2-3.7 2.4-1 .3-1.6-.8-1.4-1.7.4-1.7 2.3-1.6 3.5-2.4z"/><path id="path52" d="M1030.4 612.9c1.4-.2 2.2.8 2.1 1.4-.4 1.9-2.2 2.4-3.7 2.9-1 .3-1.6-.8-1.5-1.6.4-1.7 2.1-2 3.1-2.7z"/><path id="path54" d="M1086.8 581.8c-.1.9-.4 1.8-1.5 1.6-1.5-.3-3.6.1-4.1-2.1-.1-.6.3-1.4 1.2-1.3 1.6.2 3.5-.1 4.4 1.8z"/><path id="path56" d="M1032 580c-.1 1.9-1.7 1.9-2.9 2.2-1.2.3-2.6.5-2.6-1.3 0-1.6 1.4-1.7 2.5-1.8 1.1-.1 2.4-.9 3 .9z"/><path id="path58" d="M992.5 621.2c-.7-.5-1.8-.9-1.3-1.8.8-1.4 1.9-2.8 3.7-3 .3 0 1.2 1 1.1 1.5-.4 1.8-1.8 2.7-3.5 3.3z"/><path id="path60" d="M965.5 618.1c1.2-.1 2.1 1 1.9 1.4-.7 1.5-1.6 3.1-3.3 3.7-.9.3-1.9-.8-1.7-1.4.5-1.6 1.7-2.9 3.1-3.7z"/><path id="path62" d="M985.7 628.6c-1.2-.1-2-1-1.6-1.6.7-1.3 1.7-2.5 2.9-3.4.7-.5 1.7.7 1.6 1.4-.2 1.9-1.6 2.8-2.9 3.6z"/><path id="path64" d="M1045.3 627.9c-1.2 1-2 2.7-3.9 2.5-.4 0-1.2-1.1-1-1.5.6-1.7 2.1-2.7 3.7-3.1.3-.1 1.3.9 1.2 2.1z"/><path id="path66" d="M960.5 628.6c-1.1 1.1-1.3 3.3-3.4 3.4-1 .1-1.6-1-1.2-1.9.7-1.3 1.3-3 3-3.3.7-.1 1.7.5 1.6 1.8z"/><path id="path68" d="M1061.3 601.5c-.5 1.8-2.2 1.7-3.7 2.1-1.1.3-1.8-.3-1.7-1.3.3-1.9 2.1-1.9 3.6-2.3 1-.2 1.6.3 1.8 1.5z"/><path id="path70" d="M1068.8 597.7c1.6-.5 2.6 0 2.6 1.2 0 2-2.1 1.3-3.2 1.9-1.2.7-2-.1-2.1-1.3-.1-2.3 2.2-1 2.7-1.8z"/><path id="path72" d="M1041.6 609.3c-.5 1.8-2.3 1.9-3.7 2.4-.9.3-1.8-.8-1.6-1.6.5-1.7 2.3-2 3.7-2.5 1.1-.3 1.4.8 1.6 1.7z"/><path id="path74" d="M1023.7 620.6c-.8 1.4-1.9 2.5-3.5 2.7-1 .2-1.9-1.3-1.7-1.5 1-1.1 2.2-2.2 3.6-2.8 1-.5 1.4.7 1.6 1.6z"/><path id="path76" d="M1015.8 627.3c-1 1.4-1.9 3-3.7 3.2-.6.1-1.7-1-1.1-1.9.9-1.2 2-2.4 3.3-3.1.5-.2 1.3.9 1.5 1.8z"/><path id="path78" d="M1051.4 579.4c-1.3-.2-3.1.5-2.9-1.5.2-1.7 1.9-1.1 2.9-1.1 1-.1 2.3-.3 2.4 1.2.1 2-1.7.9-2.4 1.4z"/><path id="path80" d="M1091.4 590c-.1.9-.4 1.7-1.4 1.8-1 .1-1.6-.3-1.6-1.4 0-.9.1-1.8 1.3-1.8.9 0 1.6.4 1.7 1.4z"/><path id="path82" d="M1093.1 585.8c-.9-.2-1.6-.7-1.3-1.7.1-.7.5-1.3 1.3-1.2.9.1 1.8.4 1.7 1.5-.1.8-.8 1.3-1.7 1.4z"/><path id="path84" d="M1088.1 598.1c-1-.2-1.5-.7-1.2-1.8.3-1 1-1.4 2-1.2.8.2 1 .9 1 1.6 0 1.2-.6 1.6-1.8 1.4z"/><path id="path86" d="M1088.9 604.8c.1 1-.3 1.6-1.3 1.7-1.1.1-1.6-.6-1.8-1.5-.2-1 .6-1.5 1.5-1.7 1.1-.1 1.5.6 1.6 1.5z"/></g><path id="path90" d="m460.385 386.535-7.26-67.793 24.705-31.613-6.556-15.222 2.049-5.152-2.4-43.907s-2.167-6.323-10.89-5.62c-8.723.702-6.85 11.708-6.85 11.708l1.347 17.74s-1.288 1.931-6.322 0c-5.035-1.933-6.85-12.06-2.225-16.744 4.625-4.625.117-16.627.117-16.627s7.786-10.654 21.661-4.859c13.933 5.855 13.933 25.057 13.933 25.057s5.855 16.977 21.369 28.979c0 0 14.577 9.718 6.498 21.017-8.079 11.357-34.014 41.449-34.014 41.449l6.499 63.46z" style="stroke-width:.585434"/><path id="path92" d="m418.936 263.126 39.165-3.806-2.107-34.482s.468-4.04 6.264-4.332c5.854-.351 6.85 5.152 6.85 5.152l1.873 39.575s.995 6.089-7.552 6.791c-8.547.703-40.22 3.337-40.22 3.337s-6.38-.76-6.849-5.737c-.468-4.976 2.576-6.498 2.576-6.498z" style="stroke-width:.585434"/><path id="path94" d="m342.947 289.646-5.328 11.709s3.688 1.639 5.328-1.64l41.858 21.252v1.288l-3.454 1.697 1.815 3.337 46.483-18.324-1.639-2.459s-6.967-1.17-5.913-7.727c1.054-6.557 7.025-20.959 7.025-20.959l-4.449-1.288-6.732 17.388-8.372-17.388s1.288-3.278 4.098-6.03c0 0 0-4.332 1.405-5.971 0 0-5.854 2.751-8.255 7.669l-.995-2.693 1.522-1.58s.761-2.577-1.756-2.986l-34.014 12.645s-.702.585-.117 2.049c.586 1.464 3.22 1.288 3.22 1.288l6.967 28.862-36.531-14.636c-.059 0 1.99-3.044-2.166-5.503z" style="stroke-width:.585434"/><circle id="circle96" cx="429.649" cy="185.79" r="23.417" style="stroke-width:.585434"/><path id="path98" d="M453.067 172.032s3.337 8.372 3.337 13.758c0 0 2.517-3.688 14.635 11.416 12.119 15.104 33.312-2.342 33.312-2.342s-24.881 8.372-26.696-10.42c.059 0-7.845-19.144-24.588-12.412z" style="stroke-width:.585434"/><circle id="circle100" cx="139.274" cy="252.178" r="2.869" style="stroke-width:.585434"/><circle id="circle102" cx="124.521" cy="266.814" r="2.869" style="stroke-width:.585434"/><circle id="circle104" cx="132.132" cy="274.015" r="2.869" style="stroke-width:.585434"/><circle id="circle106" cx="127.39" cy="281.86" r="2.869" style="stroke-width:.585434"/><circle id="circle108" cx="139.274" cy="277.937" r="2.869" style="stroke-width:.585434"/><circle id="circle110" cx="150.339" cy="263.126" r="2.869" style="stroke-width:.585434"/><circle id="circle112" cx="176.684" cy="243.104" r="2.869" style="stroke-width:.585434"/><circle id="circle114" cx="167.375" cy="264.882" r="2.869" style="stroke-width:.585434"/><circle id="circle116" cx="152.212" cy="277.937" r="2.869" style="stroke-width:.585434"/><circle id="circle118" cx="145.714" cy="294.915" r="2.869" style="stroke-width:.585434"/><circle id="circle120" cx="160.994" cy="281.86" r="2.869" style="stroke-width:.585434"/><circle id="circle122" cx="163.043" cy="304.457" r="2.869" style="stroke-width:.585434"/><circle id="circle124" cx="182.831" cy="282.796" r="2.869" style="stroke-width:.585434"/><circle id="circle126" cx="182.831" cy="266.814" r="2.869" style="stroke-width:.585434"/><circle id="circle128" cx="202.384" cy="263.653" r="2.869" style="stroke-width:.585434"/><circle id="circle130" cx="194.715" cy="287.538" r="2.869" style="stroke-width:.585434"/><circle id="circle132" cx="150.339" cy="308.029" r="2.869" style="stroke-width:.585434"/><path id="path134" d="M30.325 259.379v134.474h28.218V282.796h4.8v111.057h29.038v-147.47s12.704 10.303 32.14 5.795c0 0 6.089-15.924-5.269-16.158-11.357-.234-13.465 0-13.465 0s.41-38.697-22.129-46.073H37.233s-13.465-.879-18.675 16.04c-5.21 16.92-6.498 39.049-6.498 39.049s.468 13.933 18.265 14.343z" style="stroke-width:.585434"/><path id="path136" d="M39.634 176.306s29.213-3.103 48.122-11.24c0 0 2.869 13.172-8.137 22.305H47.303c0-.059-6.674-5.562-7.67-11.065z" style="stroke-width:.585434"/><path id="path138" d="M2.283 170.51s14.109 8.84 53.684 0c39.517-8.84 60.592-17.504 67.09-31.613 0 0 .47-11.24-43.614-5.503 0 0-8.372-20.608-26.579-17.505 0 0-20.373 5.035-17.036 28.043 0 0-46.483 14.167-33.545 26.578z" style="stroke-width:.585434"/><g id="g160" transform="matrix(.58543 0 0 .58543 -306.24 -49.32)"><path id="path140" d="M1015.6 670.6s-9.8 24.6 5.3 25c0-.1 17.2-3.4-5.3-25z"/><path id="path142" d="M1051.2 687.7s-33.3 5.3-24 18.8c0 .1 13.3 20.1 24-18.8z"/><path id="path144" d="M991.8 691.8s9.8 32.4 24.6 19.9c0 0 15.5-16.2-24.6-19.9z"/><path id="path146" d="M1023.8 711.7s-6.5 16.1 0 25.5" class="st0"/><path id="path148" d="M1055.7 748.7s-2.7-5.7-17.3-8.6c0 0-15.8-10.6-31 0 0 0-19.6 3.7-15.5 10.6z"/><path id="path150" d="M935.3 670.6s-9.8 24.6 5.3 25c0-.1 17.2-3.4-5.3-25z"/><path id="path152" d="M970.9 687.7s-33.3 5.3-24 18.8c0 .1 13.3 20.1 24-18.8z"/><path id="path154" d="M911.6 691.8s9.8 32.4 24.6 19.9c-.1 0 15.5-16.2-24.6-19.9z"/><path id="path156" d="M943.5 711.7s-6.5 16.1 0 25.5" class="st0"/><path id="path158" d="M975.4 748.7s-2.7-5.7-17.3-8.6c0 0-15.8-10.6-31 0 0 0-19.6 3.7-15.5 10.6z"/></g><g id="g164" transform="matrix(.58543 0 0 .58543 -306.24 -49.32)"><path id="path162" d="M793.6 669.4v.2c0 .1 0 .3.2.1h.1c.1 0 .2 0 .3-.1 1 0 1.7-.6 2.6-.9.2-.1.6 0 .7-.2v-.1.1h.4c0 .1.1.2.2.2-.3.7-.6 1.4-.5 2.2 0 .2 0 .4.1.5.5 1.1.7 2.3 1.3 3.3l.6.6c.4.5.7 1 1.3 1.3.2.1.4.3.7.3l.1.1c-.2.5-.4.9-.6 1.4-.1.3-.1.5-.2.8-.1 0-.1.1-.1.2v.2c-.2.2-.1.4-.1.6h.2-.2v.2c-.1 0-.1.1-.1.2s-.2.3 0 .4v.2c-.3.2-.3.5-.3.8-.2.2-.1.4-.1.6 0 .3-.1.6-.1.9-.2.1-.1.3-.1.5 0 .4 0 .8.1 1.2h.1-.1c.1.6.2 1.2.2 1.8 0 .2-.1.4.1.6-.1.4.3.8.2 1.2 0 .1 0 .2.1.3.1 1.4.5 2.7 1 4.1 0 .1.1.2.1.3.3 1.5 1.1 2.9 1.6 4.4.3 1 .6 1.9.9 2.9.5 1.2 1.1 2.4 1.8 3.5.6 1.1 1.2 2.3 1.8 3.4.8 1.5 1.6 3.1 2.6 4.5.9 1.4 2.1 2.6 3.4 3.6.4.3.7.8 1.2 1 .7.4 1.5.9 2.3 1.1.6.2 1.2.5 1.8.9.3.2.7.3 1 .5 1.1.8 2.3 1.4 3.4 2.1.8.5 1.7 1 2.3 1.7.1.5.5 1 .5 1.5 0 .2.1.5 0 .6-.4.5-.2 1 0 1.5.2.6.4 1.2.7 1.8.1.3.4.5.8.6.3.1.5.2.6.5.1.4.3.7.4 1.1.4 1.3 1.3 2 2.4 2.6h.1l.1.1c.2.6.7.8 1.2 1.1.1.1.3.1.4.1v-.1.5c-.5.6-.9 1.2-1.2 1.9l-.1.1c-.3.3-.5.6-.7 1-.1.1-.1.3-.2.4l-.1.1c-.4.1-.4.5-.6.8-.7.9-1.3 1.8-1.8 2.8-.3.1-.3.3-.5.5s-.4.3-.4.6c-.1 0-.1.1-.2.1-.7.3-1.2.7-1.4 1.4v.2c0 .1-.1.1-.1.2-.3.4-.5.8-.7 1.2-.2 0-.5-.1-.7.2-.8 0-1.6.1-2.4.4-.5.2-1 .2-1.6.2-.6 0-1.1.1-1.6.2-.8.2-1.7 0-2.5.1-.3 0-.6 0-.8.2h-.2c-1.2-.1-2.3.5-2.8 1.6-.1.3-.1.6 0 .8 0 .3.2 0 .3-.1.3-.2.4-.6.7-.8.5-.4.6-.4.9.1.1.1.2.3.3.3.4.3.8.2 1.3.1.7-.3 1.5-.3 2.2-.3.6 0 1.3.1 1.9-.1.4 0 .8 0 1.2-.1 1.2.1 2.4.3 3.6 0 0 .2 0 .4-.1.6-.2.3 0 .5.4.6h.7c.3.2.6.1.9.1h.4c.1.1.1.1.2 0 .5 0 .8-.3 1.1-.6.2-.3.4-.4.7-.5.7-.2.8-.4.6-1.2.6-.1 1.1-.1 1.6.3.1.1.3.3.5.3.1.1.2.2.3.2.5.6 1.1.7 1.7.4.2-.1.4-.1.7-.2 0 .1.2.2.3.2.1-.1.1-.2.1-.2 0 .1 0 .1-.1.2.1.2.2.2.3.1.1-.1.1-.3 0-.4-.2-.5-.7-.8-1.1-1.1-.8-.4-1.5-.9-2.3-1.3-.3-.2-.5-.4-.5-.7 0-.1 0-.1.1-.2.2-.1.3-.3.2-.5-.1-.7.1-1.2.4-1.8v-.1c.4-.3.5-.8.7-1.2.8-1.6 1.9-3.1 2.8-4.6l.3-.6c.2-.1.3-.2.3-.4.7-.9 1.4-1.7 1.9-2.7.1-.2.2-.3.4-.5.4-.3.8-.5 1.1-.8.2 0 .4 0 .5-.3.1 0 .1-.1.2-.1.4-.1.6-.3.6-.7.4.2.8.2 1-.3.1 0 .2-.1.3-.1.4-.1.9 0 1.3-.4.1-.1.1-.1.2 0 .5.3.9-.1 1.3-.1.1.4.3.6.7.4.2-.1.4.1.5.2.3.2.6.2.9 0 .2-.1.5-.2.7.1.2.3.4.3.7.4.3.1.6.1.9.2.1 0 .1.1.2.1.1.1 0 .1.2.1s.1.2.1.1c.2.3.5.5.8.7 0 .1.1.2.2.2.2.1.4.1.6.2.1.2.3.1.4.1h.3c.2.1.4.1.6 0 .2 0 .4.1.5-.1h.4c.2 0 .3.1.5.1.2.3.5.2.7.1l.3.9c.1.9.3 1.7.4 2.5.3 1.6.6 3.3.7 4.9 0 .5 0 1 .2 1.4v.3c-.2.5 0 .9.1 1.4.1.5.1.9.1 1.4 0 .4-.2.7-.6.7-.5.1-1 .3-1.5.3 0 0-.1.1-.1.2h-.3c-.1-.1-.2 0-.2.1-.3 0-.5.2-.8.2-1 0-1.9 0-2.8.3-.6.1-1.2.2-1.8.1-.5-.1-1-.1-1.5.1h-.3c-.3 0-.6 0-.9.1-1.2.1-1.7.8-1.9 1.9 0 .2-.1.5.1.5.2.1.3-.2.4-.4.1-.1.1-.2.1-.3.2-.1.2-.4.4-.5.3-.2.6-.3.8.2.1.2.2.4.5.4.3.2.7.3 1 .1 1-.3 2.1-.2 3.2-.2.4.1.8.1 1.1 0 .4 0 .7 0 1.1-.1.8.1 1.6.1 2.4 0h1.1c.1.2 0 .3-.1.4-.2.3 0 .6.4.6.2.1.5 0 .7-.1.1.1.2.1.3 0 .4 0 .9.1 1.3 0 .1.1.2 0 .2-.1.2-.1.4-.2.5-.4.3-.4.6-.9 1.2-.9.2 0 .3-.2.3-.4.1-.5.2-1.1.1-1.6 0-.2-.1-.5.1-.7.2-.1.4 0 .6.1.1 0 .2.1.3.1.1.1.2.1.3.2.7.6 1.2.6 1.9.1.3-.2.6-.3.9-.4.3-.2.2-.3-.1-.5l-1.5-.6c-.7-.2-1.3-.5-2-.7-.1 0-.2-.1-.3-.1-.1-.1-.1-.2-.2-.3-1.2-.6-1.5-1.9-1.7-3.1 0-.3-.1-.5-.2-.8 0-.3-.2-.4-.2-.7-.2-1-.3-2.1-.5-3.1-.1-.9-.3-1.8-.4-2.6 0-.2 0-.4-.2-.5 0-1-.1-2-.2-3 0-.3-.1-.5-.3-.8 0-.3 0-.5.2-.7.3 0 .6-.2.8-.4.5-.6 1.2-.9 1.9-1.2.3-.1.5-.4.7-.6.8-.7 1.8-1.1 2.4-2 .4-.6 1.1-.6 1.8-.2.1.1.3.2.4 0 .1-.1-.1-.2-.2-.3 0-.1 0-.2-.1-.3-.1-.3.1-.5.4-.7.2 0 .3 0 .4-.2.1-.2.2-.2.4-.2.4 0 .9-.5.9-.8 0-.4.3-.6.6-.8.1-.1.2-.1.3-.2.2-.4.5-.7.9-.9.2-.1.1-.2 0-.4v-.3c.3-.1.2-.6.6-.6.1 0 .2-.2.4-.1.1.1.2 0 .3-.1.1-.2 0-.3-.2-.3-.1-.1-.2-.2-.3-.2-.1-.2-.1-.3-.2-.5 0-.2-.4-.6.3-.4.1 0 .2-.1.2-.2-.1-.6.1-1.2-.1-1.8-.1-.3.1-.7.4-.9.4-.3.7-.6.4-1.1v-.3c.3-.8.1-1.5-.4-2.1-.2-.3-.2-.4.1-.6.5-.2 1-.6 1.2-1.2.4-.4.8-.7.9-1.3.3-.2.2-.4.1-.6-.3-.3-.3-.6-.5-.9h-.3.3v-.3h.1c.5-.5 1.1-1 1.8-1.3h.2c.5 0 .5-.5.6-.8 0-.6.1-1.2-.1-1.7-.5-1.1-.6-2.3-1.3-3.2-.2-.2-.2-.4.1-.5 1.1 0 2.5-1 2.8-2.2.2-.2.1-.3-.1-.4v-.2c0-.1-.1-.3-.1-.4v-.5h-.1.1c0-.1.1-.1.1-.2.2 0 .5-.1.3-.4v-.2c.2-.1.3-.5.6-.2.1.1.3.1.4 0 .1-.2-.1-.3-.2-.4-.7-.8 0-1.3.4-1.9h.5c.3.1.4 0 .4-.3.9-.3 1-.6 1-1.6v-.2c.1-.1.2-.1.3-.2.4 0 .4-.3.4-.6v-.2c-.2 0-.3 0-.3-.1 0 .1.1.1.3.1v.1h.2c.3 0 .5-.2.6-.4.5-.2.9-.5 1.1-1 .1-.5.3-.9.4-1.4.1-.6-.2-1-.6-1.3-.2-.1-.2-.3-.2-.5.4-.4.8-.9 1-1.4.1 0 .2-.1.1-.2l.3-.3c.2 0 .3-.1.2-.3 0-.1 0-.3-.2-.3s-.4-.2-.6 0c-.3.2-.4-.2-.7-.1-.1 0-.2-.1-.2-.1-.1-.1-.1-.2-.3-.1-.2 0-.3.1-.5.1 0-.1-.1-.2-.3-.1 0 0 0 .1.1.1 0 0 0-.1-.1-.1-.2-.1-.2-.2-.2-.4.4-.3.7-.7 1-1.1h-.1.1c.1 0 .1-.1.2-.1l-.1-.1.1.1c.4-.2.7-.4.8-.9 0-.3.3-.5.5-.7.4-.7.6-1.4.2-2.2-.1-.3 0-.5.2-.8.2-.4 1-.7.7-1.4 0 0 .1-.1.1-.2.1-.1.2-.4.2-.5-.2-.6-.4-1.2-.9-1.6 0-.2-.1-.4-.3-.5-.4-.3-.7-.6-.7-1.2 0-1.2-.7-1.9-1.7-2.4s-2-.5-3-.5c-.7-.2-1.5-.2-2.2 0-1.4.5-2.9.9-4.1 1.8-1.3.9-2.5 2-3.3 3.3-.1.1-.2.2-.3.4-.4.1-.6.5-.8.8-.6.8-1.4 1.3-2.2 1.9-.7.5-1.3 1.1-1.8 1.8-.7.5-1.4 1-2.1 1.6-1.2 1-2.6 1.5-4.1 2-.9.2-1.8.6-2.7.8h-1c-.2-.2-.3-.1-.5 0h-.6c-.1-.1-.1-.1-.2 0h-.4c-2.8 0-5.6.2-8.3.9-1.4.3-2.8.5-4.2.6-.1 0-.2.1-.3.1h-.5c-.3-.1-.5-.1-.8-.1-2.1 0-4.1-.2-6.2-.4-.5-.1-1-.3-1.6-.4-.5-.3-1-.5-1.5-.6-.2-.2-.5-.3-.8-.4-.5-.5-1.1-.9-1.6-1.3-.7-.6-1.4-1.3-1.9-2.1-.8-1.2-1.6-2.4-2.3-3.7-.2-.3-.4-.7-.5-1-.2-.7-.6-1.4-.9-2-.9-1.6-1.8-3.1-2.7-4.6-.3-.5-.6-.9-1-1.3-1.4-1.6-2.9-3.2-4.8-4.2-.5-.2-.9-.5-1.5-.5-.1-.2-.4-.2-.6-.3-.4-.1-.8 0-1.1-.3-.2.1-.4.1-.6.1.2 0 .4 0 .6-.1.1-.2.3-.2.4-.3.1-.1.3-.1.3-.2.4-.7 1.1-1.1 1.7-1.5.5-.4.4-.6 0-1.1-.1-.2-.2-.3-.4-.5h-.1c.1-.1 0-.3 0-.4.1-.9-.1-1.1-.9-1.4-.2-.1-.2-.2-.3-.4-.1-.2-.2-.5-.4-.7-.3-.4-.5-.4-.8 0-.2.3-.5.4-.6.7-.2.3-.5.3-.8.2-.2-.6-.3-1.2-.4-1.9-.1-.3-.1-.5-.4-.6-.4-.1-.4.3-.5.5-.2.4-.4.9-.5 1.4 0 .1 0 .1-.1.2s-.1.1-.1.2c-.1.1-.1.1-.1.2v.1c-.1.1-.1.4-.3.3-.2 0-.2-.3-.2-.4-.2-.8-.4-1.5-.6-2.3-.1-.2-.2-.4-.4-.4-.3 0-.3.2-.4.4-.3.9-.6 1.7-.6 2.6v.2c-.1.2-.1.5-.4.5-.2 0-.3-.3-.4-.5l-.9-2.1c-.1-.2-.1-.4-.4-.4-.2 0-.3.2-.3.4-.5 1-.6 2-.6 3.1 0 .4-.1.6-.5.5-.1-.3-.3-.4-.5-.6-.1-.2-.2-.4-.4-.4-.1-.3-.3-.4-.4-.6-.1-.1-.2-.2-.4-.1s-.2.2-.2.4v1c-.1.1-.1.2-.1.3-.1.3-.2.6 0 .9 0 .3.2.5.3.8.1.2.1.3.1.5.1-.1.1-.2.2-.3-.1.1-.1.2-.2.3-.2.1-.4 0-.5-.1-.2-.4-.6-.6-1-.8-.5-.3-.6-.2-.6.4v.4c-.1.1-.1.3-.1.4 0 .4.1.8-.5.9-.2 0-.2.2-.2.4.2.7 0 1.4-.2 2-.6 1.5-.2 2.8.8 3.9l.4.4c.1 0 .1.1.2.1-.1 0-.1-.1-.2-.1.1.3-.2.4-.3.6-.7.7-1.1 1.5-1.2 2.5 0-.3-.1-.1.1.1h.3-.3z"/></g><path id="path166" d="M415.775 386.477h89.161a4.972 4.972 0 0 1 4.976 4.976 4.972 4.972 0 0 1-4.976 4.976h-89.161a4.972 4.972 0 0 1-4.977-4.976 4.972 4.972 0 0 1 4.977-4.976z" style="stroke-width:.585434"/><path id="path168" d="M399.09 386.477h4.8a4.972 4.972 0 0 1 4.976 4.976 4.972 4.972 0 0 1-4.976 4.976h-4.8a4.972 4.972 0 0 1-4.976-4.976 4.972 4.972 0 0 1 4.976-4.976z" style="stroke-width:.585434"/><path id="path170" d="M21.66 386.477h89.162a4.972 4.972 0 0 1 4.976 4.976 4.972 4.972 0 0 1-4.976 4.976H21.661a4.972 4.972 0 0 1-4.976-4.976 4.972 4.972 0 0 1 4.976-4.976z" style="stroke-width:.585434"/><path id="path172" d="M4.976 386.477h4.8a4.972 4.972 0 0 1 4.977 4.976 4.972 4.972 0 0 1-4.977 4.976h-4.8A4.972 4.972 0 0 1 0 391.453a4.972 4.972 0 0 1 4.976-4.976z" style="stroke-width:.585434"/></svg>