<svg xmlns="http://www.w3.org/2000/svg" xml:space="preserve" width="512" height="512"><path d="M272.272 199.523c-.804 0-1.607.247-2.163 1.05-1.607 1.854-9.392 11.246-9.392 16.87 0 6.179 5.067 11.245 11.246 11.245s11.246-5.066 11.246-11.246c0-5.375-7.786-15.015-9.084-16.868-.247-.804-1.05-1.05-1.853-1.05zm0 23.604c-3.214 0-5.87-2.657-5.87-5.87 0-1.854 2.656-6.673 5.87-10.69 3.213 4.264 5.87 8.836 5.87 10.69 0 3.151-2.657 5.87-5.87 5.87zM299.583 221.212c-.803 0-1.606.247-2.162 1.05-1.607 1.854-9.393 11.246-9.393 16.87 0 6.178 5.067 11.245 11.246 11.245 6.18 0 11.246-5.067 11.246-11.246 0-5.376-7.785-15.015-9.083-16.869-.494-.494-1.05-1.05-1.854-1.05zm0 23.851c-3.213 0-5.87-2.657-5.87-5.87 0-1.854 2.657-6.674 5.87-10.69 3.213 4.264 5.87 8.836 5.87 10.69 0 3.213-2.657 5.87-5.87 5.87zM218.452 214.785c-.804 0-1.607 0-2.163.557-1.854 1.606-10.999 9.639-11.802 15.015-.556 2.966.247 5.87 2.163 8.28 1.853 2.41 4.263 4.016 7.476 4.572h1.607c5.376 0 10.195-4.016 11.246-9.392.803-5.376-5.376-16.066-6.426-17.92-.742-.555-1.298-.803-2.101-1.112zm2.966 18.476c-.556 3.213-3.46 5.376-6.674 4.82-1.606-.248-2.966-1.05-4.016-2.41-.803-1.36-1.36-2.966-1.05-4.264.247-1.854 3.769-6.179 7.476-9.64 2.657 4.573 4.51 9.64 4.264 11.494zM304.959 186.67c-.803 0-1.607.248-2.163 1.051-1.606 1.854-9.392 11.246-9.392 16.869 0 6.179 5.067 11.246 11.246 11.246 6.18 0 11.246-5.067 11.246-11.246 0-5.376-7.786-15.015-9.083-16.869-.495-.803-1.05-1.05-1.854-1.05zm0 23.543c-3.213 0-5.87-2.657-5.87-5.87 0-1.854 2.657-6.674 5.87-10.69 3.213 4.263 5.87 8.836 5.87 10.69 0 3.213-2.657 5.87-5.87 5.87zM255.65 205.393c0-5.376-7.786-15.015-9.083-16.869-.557-.556-1.36-1.05-2.163-1.05-.803 0-1.607.247-2.163 1.05-1.606 1.854-9.392 11.246-9.392 16.87 0 6.178 5.067 11.245 11.246 11.245 6.488 0 11.555-5.067 11.555-11.246zm-17.116 0c0-1.854 2.657-6.673 5.87-10.69 3.213 4.264 5.87 8.836 5.87 10.69 0 3.213-2.657 5.87-5.87 5.87-3.213.062-5.87-2.657-5.87-5.87zM287.101 27.435a4.55 4.55 0 0 0 2.287-.618c2.162-1.236 2.904-4.016 1.668-6.179l-5.067-8.774c-1.236-2.163-4.016-2.904-6.24-1.668-2.163 1.235-2.905 4.016-1.669 6.179l5.067 8.774c.803 1.483 2.348 2.286 3.954 2.286zM352.909 45.046a4.55 4.55 0 0 0 2.286-.618l8.774-5.067c2.163-1.236 2.905-4.017 1.669-6.18-1.236-2.162-4.017-2.903-6.241-1.668l-8.774 5.067c-2.163 1.236-2.905 4.017-1.669 6.18a4.585 4.585 0 0 0 3.955 2.286zM335.237 27.435c1.544 0 3.09-.803 3.954-2.286l5.067-8.774c1.236-2.163.494-4.944-1.668-6.18-2.163-1.235-4.944-.494-6.241 1.669l-5.067 8.774c-1.236 2.163-.494 4.943 1.668 6.18a4.55 4.55 0 0 0 2.287.617zM350.623 92.501l8.774 5.067a4.391 4.391 0 0 0 2.286.618c1.545 0 3.09-.803 3.955-2.286 1.236-2.163.494-4.944-1.669-6.18l-8.774-5.066c-2.163-1.236-4.943-.495-6.24 1.668-1.298 2.163-.495 4.943 1.668 6.18zM267.143 44.428a4.391 4.391 0 0 0 2.286.618c1.545 0 3.09-.804 3.955-2.287 1.236-2.162.494-4.943-1.669-6.179l-8.774-5.067c-2.162-1.235-4.943-.494-6.24 1.669-1.237 2.162-.495 4.943 1.668 6.179z" style="stroke-width:.61791"/><path d="M236.742 390.148c-4.264 4.758-11.555 5.129-16.251.865l-34.48-31.019c-4.757-4.263-5.128-11.555-.865-16.25 4.264-4.759 11.555-5.13 16.251-.866l34.48 31.02c4.696 4.201 5.128 11.492.865 16.25zM287.534 383.66c3.707 5.129 10.937 6.303 16.066 2.595l37.63-27.188c5.129-3.707 6.303-10.937 2.596-16.065-3.708-5.129-10.937-6.303-16.066-2.596l-37.63 27.188c-5.191 3.708-6.303 10.937-2.596 16.066zM167.227 391.755l-11.431 21.318-16.87-24.284s-3.274-4.943 5.87-13.841c5.006-4.882 12.483-12.606 18.23-18.6 4.51-4.696 11.987-4.88 16.621-.308l32.75 31.698-1.484 4.017 31.884 64.695c1.483 2.966-.68 6.488-4.016 6.488h-21.194v28.671c0 6.488-5.253 11.74-11.74 11.74-6.489 0-11.741-5.252-11.741-11.74v-28.424h-3.893v28.424c0 6.488-5.252 11.74-11.74 11.74h-.494c-6.488 0-11.74-5.252-11.74-11.74v-28.177h-21.133c-3.831 0-6.303-4.016-4.635-7.476l31.761-64.201-4.696-9.454-4.943 3.151z"/><path d="M222.715 316.74c0 10.938-5.5 20.577-13.903 26.385-1.977-6.302-7.909-10.813-14.83-10.813-8.094 0-14.706 6.179-15.51 14.026-11.616-4.82-19.772-16.189-19.772-29.536 0-17.672 14.335-32.007 32.008-32.007 17.672 0 32.007 14.335 32.007 31.946zM363.846 351.096h-13.532v21.01h-19.897l-.803-10.505-8.033 9.392 1.668 5.252-14.644 10.196v116.908h29.598v-66.178h2.78v66.178h29.29v-81.811s7.476 2.472 11.616-4.449c2.904-4.881 10.628-20.823 14.953-29.845a9.028 9.028 0 0 0-2.41-10.875zm4.943 44.49v-16.87l6.056 4.697zM371.384 315.566c0 14.274-8.96 26.447-21.565 31.267a17.37 17.37 0 0 0-16.93-13.285 17.323 17.323 0 0 0-15.077 8.712c-8.095-6.117-13.285-15.818-13.285-26.694 0-4.572.926-8.897 2.533-12.852h61.79c1.607 3.955 2.534 8.28 2.534 12.852zM384.608 299.5h-89.35a4.958 4.958 0 0 1-4.943-4.942 4.958 4.958 0 0 1 4.943-4.944h89.35a4.958 4.958 0 0 1 4.943 4.944 4.958 4.958 0 0 1-4.943 4.943z"/><path d="M369.84 290.232h-61.05c1.05-15.942 14.336-28.547 30.525-28.547 16.19 0 29.474 12.605 30.525 28.547zM294.949 501.496h94.108a5.248 5.248 0 0 1 5.252 5.252 5.248 5.248 0 0 1-5.252 5.252h-94.108a5.248 5.248 0 0 1-5.252-5.252 5.248 5.248 0 0 1 5.252-5.252zM141.151 501.496h94.108a5.248 5.248 0 0 1 5.252 5.252A5.248 5.248 0 0 1 235.26 512H141.15a5.248 5.248 0 0 1-5.252-5.252 5.248 5.248 0 0 1 5.252-5.252zM119.524 501.496h5.067a5.248 5.248 0 0 1 5.252 5.252 5.248 5.248 0 0 1-5.252 5.252h-5.067a5.248 5.248 0 0 1-5.252-5.252c.062-2.904 2.41-5.252 5.252-5.252zM277.277 501.496h5.067a5.248 5.248 0 0 1 5.252 5.252 5.248 5.248 0 0 1-5.252 5.252h-5.067a5.248 5.248 0 0 1-5.253-5.252c.062-2.904 2.41-5.252 5.253-5.252zM334.495 100.843a62.533 62.533 0 0 0-1.545-3.584c9.084-6.92 14.645-17.858 14.645-29.35 0-20.392-16.622-37.014-37.075-37.014-19.279 0-35.159 14.769-36.889 33.615-8.96-8.713-21.256-13.841-34.418-13.841-26.57 0-48.258 20.514-48.258 45.725 0 1.545.061 3.09.247 4.634-20.33 2.04-36.21 18.414-36.21 38.187 0 21.194 18.167 38.372 40.473 38.372H332.95c22.307 0 40.473-17.24 40.473-38.372-.061-20.7-17.363-37.569-38.928-38.372zm-24.037-60.864c15.448 0 27.992 12.543 27.992 27.93 0 8.403-3.893 16.374-10.32 21.626-.308-.37-.617-.68-.926-1.05a61.35 61.35 0 0 0-1.916-2.225 22.853 22.853 0 0 0-1.73-1.73l-1.668-1.483a50.405 50.405 0 0 0-7.848-5.623l-1.668-.927a32.068 32.068 0 0 0-2.533-1.236c-.68-.309-1.36-.556-2.04-.865-.803-.309-1.606-.68-2.41-.927-1.42-.494-2.842-.865-4.263-1.235-.68-.186-1.421-.31-2.1-.433-.99-.185-1.978-.37-2.967-.494a25.739 25.739 0 0 0-2.163-.247 29.09 29.09 0 0 0-3.274-.186c-.495 0-.927-.062-1.422-.062h-.37c-2.04 0-4.079.186-6.118.433h-.061a30.193 30.193 0 0 1-.186-3.337c0-15.386 12.544-27.93 27.991-27.93zm22.43 128.525H195.405c-17.302 0-31.39-13.161-31.39-29.289 0-16.127 14.026-29.289 31.637-29.289.062 0 .556 0 .618.062a4.368 4.368 0 0 0 3.645-1.668c.865-1.113 1.236-2.534.927-3.893a35.493 35.493 0 0 1-.927-7.971c0-20.206 17.549-36.642 39.114-36.642 14.397 0 27.62 7.415 34.48 19.34 1.05 1.792 3.089 2.657 5.128 2.163.433-.124.865-.185 1.298-.247h.123a62.047 62.047 0 0 1 4.264-.742c.37-.062.68-.062 1.05-.123.865-.062 1.669-.124 2.472-.124.741 0 1.421-.062 2.1-.062 1.051 0 2.102.124 3.09.186.804.061 1.607.185 2.41.309 1.05.185 2.101.37 3.09.618.68.185 1.297.37 1.977.556.803.247 1.545.494 2.348.741.68.247 1.298.494 1.977.742.866.37 1.669.741 2.472 1.112.927.432 1.792.927 2.719 1.483.741.432 1.483.865 2.163 1.36.556.37 1.112.803 1.668 1.235.68.494 1.298 1.05 1.915 1.545.495.432.927.803 1.36 1.236.989.988 1.977 1.977 2.842 3.027l.556.742c.742.989 1.483 1.977 2.163 3.028 1.73 2.78 3.213 5.746 4.14 8.96a4.655 4.655 0 0 0 4.573 3.274l.741-.061c.247 0 .494-.062.742-.062 17.301 0 31.39 13.161 31.39 29.289-.062 16.004-14.089 29.165-31.39 29.165zM250.583 231.902c-.803 0-1.607.247-2.163 1.05-1.606 1.854-9.392 11.246-9.392 16.869 0 6.179 5.067 11.246 11.246 11.246 6.18 0 11.246-5.067 11.246-11.246 0-5.376-7.786-15.015-9.083-16.869-.247-.803-1.05-1.05-1.854-1.05zm0 23.542c-3.213 0-5.87-2.657-5.87-5.87 0-1.854 2.966-6.674 5.87-10.69 3.213 4.263 5.87 8.836 5.87 10.69 0 3.213-2.657 5.87-5.87 5.87zM315.402 14.644V4.511c0-2.534-2.04-4.511-4.573-4.511-2.533 0-4.572 2.04-4.572 4.51v10.134c0 2.534 2.039 4.511 4.572 4.511 2.534.062 4.573-1.977 4.573-4.51zM369.345 59.999h-10.133c-2.534 0-4.573 2.04-4.573 4.51 0 2.534 2.04 4.512 4.573 4.512h10.133c2.534 0 4.573-2.04 4.573-4.511-.062-2.472-2.101-4.511-4.573-4.511z"/></svg>