<svg xmlns="http://www.w3.org/2000/svg" width="90" height="86" fill="none"><g clip-path="url(#a)"><path fill="#5B9572" d="M79.052 63.062c-.047-.187-.164-.304-.374-.257-.14.023-.281.047-.396.047-.421-.047-.7.048-.678.561-.14-.468-.514-.468-.913-.49-1.192-.095-2.36-.14-3.508-.515-.396-.117-.396-.49-.468-.795.164-1.005.047-2.012.094-3.016v-.679c.14-1.309.282-2.595.561-3.881.187-.865.492-1.708.631-2.573 0-.07.048-.117.117-.165a1.16 1.16 0 0 0 1.075.539c.608-.023 1.192.187 1.8.164 1.075-.047 2.174.07 3.251-.187.187-.047.374-.07.561 0 .187.187 0 .257-.095.352-.186.14-.396.256-.513.468.117.095.234 0 .326.07.023.023.048.047.048.095 0 .164-.14.21-.234.304-.048.07-.165.14 0 .21.164.047.234.164.234.326 0 .095 0 .165.117.14.164-.07.327-.21.514-.187.07.022.094.07.117.117 0 .095-.047.164-.07.257.21 0 .351-.165.514-.234.162-.07.326-.188.443.07.095 1.356.165 2.734.07 4.093-.094 1.216-.187 2.433-.351 3.625-.07.608-.352.912-.935 1.052-.374.07-.726.187-1.1.21-.281.07-.56.14-.842.281l.004-.002Z"/><path fill="#B99460" d="M73.228 30.602c-1.216-.422-2.29-1.075-3.086-2.13-.725-.982-.491-2.056.56-2.69.726-.42 1.544-.585 2.362-.677.351-.048.725-.07 1.075-.095a16.59 16.59 0 0 1 5.377.374c1.287.304 2.526.7 3.765 1.122.07.022.14.047.187.117.561.374 1.217.586 1.8.935 1.005.608 1.942 1.286 2.478 2.386.539 1.1.257 1.847-.865 2.269-1.1.42-2.221.513-3.39.49-.235-.28-.14-.585-.07-.864.094-.374.234-.748.304-1.122.281-1.17-.14-2.13-1.217-2.666-1.52-.772-3.111-1.191-4.816-1.356a9.375 9.375 0 0 0-2.808.14c-1.333.257-1.894 1.309-1.755 2.62.07.374.257.748.095 1.147h.004Z"/><path fill="#824910" d="M73.835 32.424a.453.453 0 0 0 0-.351c-.07-.561-.07-1.122-.07-1.683 0-.187 0-.351.118-.514.187-.14.374-.281.444-.513.117-.327.374-.397.678-.469.842-.14 1.638-.444 2.455-.748.165-.07.257-.187.397-.304.327-.187.7-.327 1.052-.491.234-.117.397-.07.444.21.095.49.234.96.421 1.425.095.257.023.397-.281.374-.235-.022-.492-.07-.726.095.539-.095 1.005 0 1.334.444.865.748 1.334 1.683 1.264 2.852-.07 1.005-.491 1.848-1.31 2.478-.795.631-1.707.96-2.712 1.03-1.1-.095-1.917-.63-2.573-1.496-.56-.678-.772-1.496-.934-2.339Z"/><path fill="#743224" d="M79.987 29.993c-.282-.374-.656-.538-1.122-.396-.14.047-.304.07-.352-.095-.047-.21.165-.234.304-.257.305-.047.609-.047.96.117-.257-.655-.469-1.239-.56-1.87-.023-.164-.14-.07-.21-.047-.374.165-.726.327-1.1.491-.773.397-1.613.514-2.456.609-.14.022-.304 0-.443 0-.631 0-.656.022-.818.678-.047.21 0 .444-.187.63-.14.422-.047.866-.07 1.31-.023.304.07.63-.07.934-.257-.468-.396-.982-.608-1.473-.095-.655-.304-1.309-.187-2.012.187-.982.7-1.59 1.683-1.825 1.707-.443 3.368-.234 5.05.14a11.45 11.45 0 0 1 2.97 1.122 2.279 2.279 0 0 1 1.147 2.478c-.07.352-.165.7-.282 1.03a2.14 2.14 0 0 0-.117 1.147c.117.42.469.678.7 1.03.422.655.422.959-.116 1.542-.539.561-.539.888-.023 1.474.14.187.327.351.469.538.396.514.396.865 0 1.38-.235.326-.586.56-.865.842-.374.022-.561-.304-.843-.422-.164-.07-.304-.187-.444-.281a.705.705 0 0 1-.21-.257 6.161 6.161 0 0 0-.303-1.451c-.14-.327-.095-.725.047-1.052.234-.514.257-1.052.164-1.59-.047-.327-.047-.632.095-.936.117-.187.327-.304.469-.468a1.532 1.532 0 0 0 .256-1.73c-.164-.305-.396-.444-.725-.444-.843 0-1.404-.539-2.012-.983-.07-.022 0 .14-.187.095l-.004.002Z"/><path fill="#1D4C53" d="M79.05 63.062c0-.165.07-.257.282-.282.678-.094 1.334-.14 1.988-.374.256-.094.42-.234.468-.513.095-.678.234-1.357.282-2.035.094-1.403.234-2.807.164-4.233a48.446 48.446 0 0 0-.094-1.895c.256-.351.608-.374.912-.07.304 1.427.608 2.83.773 4.281.257 2.199.351 4.395.421 6.594.14 3.765.257 7.53.304 11.297 0 .14.023.281.023.42-.023.188-.165.235-.327.258-.678.117-1.379.117-2.057.094-.164 0-.304-.022-.374-.21 0-.117-.022-.209-.022-.326.117-.14.304-.117.468-.14.678-.117 1.052-.468 1.075-1.146.047-.631.022-1.24 0-1.87-.023-1.451-.21-2.9-.352-4.35-.117-1.123-.234-2.292-.538-3.391-.165-.656-.21-1.334-.421-1.988-.094-.28-.28-.366-.561-.256-.539.21-1.075.421-1.66.56-.21.048-.445.095-.656 0a1.352 1.352 0 0 1-.095-.42l-.002-.005Z"/><path fill="#276167" d="M73.415 76.368c-.21-2.83-.351-5.66-.351-8.49 0-.069.022-.164-.07-.234-.095-.117-.07-.234-.07-.35.022-1.218.047-2.434-.047-3.648-.023-.327-.048-.631.14-.913.209-.164.42-.117.63-.022.586.257 1.192.304 1.825.326.187 0 .352.048.538.07.539.07.609.117.586.678-.047.96-.117 1.895-.257 2.853-.117.887-.094 1.8-.234 2.69-.187 1.286-.327 2.572-.469 3.859-.07.538-.14 1.074-.281 1.59-.234.818-.561 1.474-1.543 1.496a.342.342 0 0 0-.257.095.153.153 0 0 1-.14 0ZM79.17 63.458c.843-.14 1.638-.374 2.386-.748.374-.187.49-.187.585.304.118.609.21 1.264.374 1.848.352 1.1.235 2.269.631 3.368.048.117.023.281.023.421.022 1.404.327 2.782.304 4.209 0 .795.165 1.613-.117 2.433-.21.586-.631.748-1.17.773h-.373c-.422-1.427-.678-2.877-1.005-4.326-.561-2.62-1.122-5.216-1.59-7.833-.048-.165-.048-.305-.048-.444v-.005Z"/><path fill="#6A7D93" d="M71.075 67.622c-.982.164-1.987.07-2.97.07-.28 0-.513-.07-.49-.444.07-2.035-.095-4.094.094-6.128 0-.023.023-.047.048-.07.117.095.094.21.14.327.022.094.047.21.164.187.14 0 .164-.117.164-.234.023-.21-.022-.422.095-.609.304 0 .187.257.21.397.022.187-.023.421.256.468.935.048 1.87.023 2.783 0 .257.023.49.095.748.07.281-.022.374.14.374.374v3.156c0 .726-.282 1.357-.748 1.895-.21.304-.492.514-.865.539l-.003.002Z"/><path fill="#D1781B" d="M82.42 38.717c.443.187.817.513 1.238.748a35.469 35.469 0 0 1 4.256 3.929c.047.047.095.117.14.14.117.047.21-.188.351 0 .327.396.7.747.982 1.169.14.187-.21.281-.326.444-.235.443-.514.817-1.005.982-.469 0-.865-.187-1.24-.422-.373-.234-.396-.326-.069-.655l.21-.21c-.701.701-.561.609-1.24.095-.351-.257-.772-.421-1.052-.773-.047-.117-.117-.234-.234-.281-.63-.257-1.075-.773-1.566-1.192a1.32 1.32 0 0 0-.63-.304c-.352-.327-.375-.796-.514-1.217.07-.795.257-1.566.513-2.316.023-.047.095-.095.187-.14l-.002.003Z"/><path fill="#824910" d="M88.08 46.084c.443-.187.63-.631 1.004-.913.14.352.491.561.656.913.421.842.351 1.52-.327 2.199-.725.7-1.45 1.403-2.174 2.104-1.005.96-1.965 1.942-3.017 2.852-.326.304-.678.514-1.146.444-.327-.187-.631-.117-.913.07-.21.022-.374.187-.538.281-.14.095-.327.235-.444.095-.165-.164.14-.257.164-.396.187-.327.561-.374.818-.561-.326.094-.56.373-.887.468a3.416 3.416 0 0 1-.514.257c-.304.047-.21-.14-.165-.282.118-.257.327-.396.561-.538.21-.165.469-.187.679-.352-.21.118-.469.187-.679.352-.234.187-.513.282-.817.327-.187 0-.327-.048-.117-.235.117-.117.256-.234.396-.351.187-.304.586-.282.818-.514-.282.14-.539.304-.818.397-.187.047-.421.257-.538.047-.095-.164.187-.304.326-.421.165-.14.374-.282.539-.422.281-.326.678-.281 1.052-.396.444 0 .842.164 1.192.421.326.257.396.257.63-.094.913-1.38 1.918-2.666 2.83-4.047.117-.187.234-.374.304-.586.257-.42.631-.842 1.122-1.121l.002.002Z"/><path fill="#1C4D53" d="M73.484 76.368c-.022-.21.117-.235.304-.235.888-.047 1.24-.49 1.474-1.356.281-.935.257-1.895.42-2.852.14-.818.188-1.683.305-2.526.165-1.286.14-2.573.374-3.859.117-.656.07-1.356.117-2.034.023-.257-.117-.282-.326-.304-.773-.095-1.591-.023-2.339-.327-.234-.095-.469-.234-.748-.165-.117-.164-.164-.326.095-.42 1.379.373 2.807.49 4.233.538.117 0 .164.047.187.164 0 .14.022.282.022.421-.21 2.082-.42 4.186-.655 6.268-.21 2.034-.422 4.046-.631 6.08a4.52 4.52 0 0 1-.095.609c-.022.07-.07.117-.14.164-.07.023-.139.048-.209.048H73.86c-.14-.023-.304-.048-.374-.21l-.002-.004Z"/><path fill="#D0781B" d="M71.499 48.749c-1.1-.234-.935 0-.748-1.03.047-.234.117-.49.164-.725.047-.21.095-.397.397-.327.21.048.187-.164.21-.281.186-1.264.42-2.503.794-3.718.282-.887.631-1.755 1.053-2.572.07-.118.14-.235.14-.397.326-.444.747-.773 1.216-1.052.117-.07.281-.165.396 0 .07.374-.117.7-.187 1.052-.164.7-.281 1.404-.513 2.082-.118.281-.352.513-.561.725-.935.935-.96 2.057-.327 3.181.023.048.047.07.047.117.165.352.282.701.118 1.075-.14.187-.352.187-.561.14-.305-.048-.609-.07-.843-.095.773.07.982.397.725 1.192-.094.304-.022.656-.234.912-.491.14-.888-.094-1.286-.281v.002Z"/><path fill="#F3D4A8" d="M76.34 23.843c.326-.7.56-1.451 1.1-2.057.608-.726 1.356-1.03 2.268-.912.725.094 1.45.256 2.151.56.023.796.07 1.614-.047 2.409-.047.327-.047.655-.257.96-.164.117-.351.07-.513.022a23.4 23.4 0 0 0-4-.773c-.28-.047-.513-.047-.7-.21h-.002Z"/><path fill="#91420D" d="M76.174 78.706c-.187 1.24-.396 2.503-.585 3.742-.095.048-.21.048-.327.048-1.8-.023-3.578 0-5.378-.023-.187 0-.491.117-.538-.257.326-.421.817-.538 1.286-.7.631-.21 1.264-.374 1.917-.561.397-.117.631-.327.586-.796-.047-.538-.022-1.099-.022-1.66.094-.187.281-.187.468-.187.444 0 .865-.022 1.31.07.303.047.63 0 .934-.023.187.023.397.048.352.352l-.003-.005Z"/><path fill="#90430D" d="M82.651 82.354c-.234-1.192-.443-2.386-.678-3.578-.07-.234.048-.351.257-.351.818 0 1.613-.14 2.433-.117.21 0 .282.094.282.304 0 .351-.047.725.023 1.074.07 1.075-.188.888 1.004 1.334.913.352 1.895.491 2.666 1.17l.094.094c-.094.234-.304.21-.491.21-1.426 0-2.852.022-4.28-.023-.257 0-.514.047-.796.023-.187 0-.374 0-.514-.14Z"/><path fill="#824910" d="M69.182 57.635c.07-.514.42-.773.887-.888.397-.094.491-.327.539-.7.21-1.988.49-4 .795-5.986.047-.235-.023-.47.117-.679.117.187.282.327.469.444.725.469 1.239 1.075 1.264 1.987 0 .187.07.374.094.561 0 .561-.281 1.03-.444 1.543-.304.866-.56 1.73-1.004 2.548a.546.546 0 0 0 0 .539.776.776 0 0 1-.023.865c-.047.023-.07.047-.117.023a8.769 8.769 0 0 0-2.573-.257h-.004Z"/><path fill="#743324" d="M75.076 38.575c-.444.164-.818.468-1.147.773-.117.117-.21.304-.421.326-.304-.374-.63-.748-.843-1.169-.257-.514-.21-.982.187-1.404.117-.117.235-.234.327-.374.444-.56.444-.912-.023-1.45-.513-.586-.56-.935-.164-1.614.257-.42.56-.817.843-1.239.234.048.187.257.21.397.094.725.42 1.334.772 1.942.094.327.327.586.491.843.304.49.444.982.234 1.52-.14.397-.187.843-.234 1.264a.319.319 0 0 1-.234.187l.002-.002Z"/><path fill="#F3A96D" d="M84.969 79.688c-.095-.326-.047-.678-.047-1.03 0-.186-.048-.234-.257-.234a77.93 77.93 0 0 1-2.409.118c-.186 0-.281.07-.281.256-.21-.63-.327-1.264-.421-1.894-.023-.235 0-.422.256-.514.888.187 1.778.07 2.643-.047.047 0 .07-.07.117-.117.023.022.07.094.095.094.586-.022.491.397.491.748 0 .865-.234 1.73-.187 2.62Z"/><path fill="#7D5A13" d="M67.663 59.507c-.678.234-1.191-.07-1.66-.491-.773-.7-1.1-1.66-1.309-2.643-.117-.56-.117-.538.469-.421 1.169.257 2.151.842 2.877 1.825.022.304-.095.585-.282.795-.421.095-.63-.282-.912-.491a4.052 4.052 0 0 1-.679-.609c-.047-.047-.047.048-.022 0 .538.47 1.03.983 1.683 1.31.257.443.21.585-.165.725Z"/><path fill="#F3A96E" d="M81.482 24.778c.165-.818.282-1.66.257-2.503 0-.187.022-.374-.07-.561-.047-.14-.022-.257.14-.282 1.239.469 1.8 1.264 1.825 2.573 0 .538.07 1.075-.095 1.613-.095.07-.187.047-.282 0-.585-.281-1.216-.444-1.777-.725-.023-.048-.023-.07 0-.117l.002.002ZM75.823 78.45c-.374.164-.748.094-1.147.047-.538-.048-1.074-.118-1.613.022-.187-.608-.21-1.239-.234-1.87-.022-.374.374-.187.586-.281h.07c.094.094.21.07.326.117.726.047 1.451.047 2.174 0 .048 0 .118-.023.165-.023.187.701.07 1.357-.327 1.987Z"/><path fill="#4B5468" d="M73.158 62.29c-.14.116-.07.28-.095.42-.14.586-.023 1.17 0 1.756.022.817 0 1.638 0 2.433 0 .257-.023.49-.095.725-.63.14-1.286.117-1.917-.022.773-.422 1.287-1.052 1.451-1.942.047-.235.047-.492.047-.748v-2.9c0-.187-.022-.304-.257-.257-.256.07-.49-.047-.725-.07-.257-.351-.469-.748-.818-1.052-.234-.21-.444-.374-.773-.351a.424.424 0 0 1-.187-.047c-.234-.282-.047-.422.187-.469.422-.07.865-.047 1.287 0 .21.023.374.165.326.397-.07.281.07.443.305.56.256.118.468.282.655.492.095.117.235.21.187.396.07.095.187.165.165.304-.048.235.14.304.257.374Z"/><path fill="#5C946E" d="M81.483 24.778v.07c.048.326.14.678-.164.96-.586-.023-1.122-.258-1.66-.397a15.416 15.416 0 0 0-3.416-.469c-.14 0-.281.047-.374-.094.14-.352.282-.679.491-1.005 1.613.14 3.227.396 4.794.865.07.022.21.047.327.07h.002Z"/><path fill="#6D3609" d="M73.253 52.396c-.14-.187-.164-.42-.164-.608 0-.935-.586-1.496-1.287-1.917-.234-.14-.304-.257-.304-.491v-.656c.444 0 .818.282 1.264.257.469-.047.912.117 1.334.282.094.07.14.164.117.304-.304.795-.421 1.638-.7 2.455-.07.14-.048.327-.258.374h-.002Z"/><path fill="#541B0A" d="M69.323 82.239c.095.21.282.117.444.117H75.1c.164 0 .326-.023.468.095.047.374-.14.49-.491.49-.282 0-.586.023-.818-.186a.157.157 0 0 0-.234 0c-.21.187-.469.164-.7.164a40.33 40.33 0 0 1-3.765-.022c-.165 0-.444.07-.492-.07a.633.633 0 0 1 .257-.586l-.002-.002Z"/><path fill="#571E09" d="M82.651 82.354h5.495c.187 0 .396.022.56-.095.188.117.282.352.21.539-.047.14-.304.117-.443.117h-3.93c-.281 0-.443-.234-.655-.304-.21-.048-.282.304-.561.326-.561.048-.7-.07-.678-.585l.002.002Z"/><path fill="#6D3609" d="M69.183 57.635c.396-.165.772-.282 1.169-.047.117.07.257 0 .397 0 .374 0 .725.022 1.004.326.14.234 0 .444-.022.678-.165.352-.444.492-.843.444-.374-.022-.748 0-1.122-.022-.421-.023-.678-.165-.773-.586-.047-.234-.07-.444.095-.656a.439.439 0 0 1 .095-.14v.003Z"/><path fill="#376A46" d="M81.32 25.738c.165-.282-.022-.631.165-.913.725.165 1.379.514 2.057.773.022.327.094.678-.07.982h-.14a41.601 41.601 0 0 0-1.847-.678c-.07 0-.14-.047-.165-.164Z"/><path fill="#515266" d="M67.662 59.507c.374-.187.21-.444.07-.679-.047-.07-.117-.14-.07-.256.187-.235.187-.539.352-.773.022 0 .047 0 .07.047.047.304.164.561.513.608.095 0 .117.095.117.187a4.624 4.624 0 0 0-.257 1.591c0 .187.023.352-.117.514 0 .21-.022.444-.022.655 0 .187 0 .352-.257.352-.282 0-.327-.117-.304-.352 0-.117 0-.21-.023-.326 0-.539.095-1.075-.07-1.566l-.002-.002Z"/><path fill="#E9D6AB" d="M81.32 25.738c.678.304 1.403.468 2.034.842-.63-.187-1.264-.374-1.895-.585-2.338-.773-4.724-1.075-7.18-1.005h-.117c.561-.117 1.122-.14 1.683-.165 1.778-.094 3.485.352 5.168.843.095.047.187.047.304.07h.003Z"/><path fill="#B69463" d="M75.824 78.45a6.5 6.5 0 0 0 .327-2.013c.022-.022.047-.047.095-.07.443.048.443.305.374.679-.118.56-.188 1.146-.422 1.66-.047-.187-.21-.21-.374-.257Z"/><path fill="#666A82" d="M68.69 58.594c-.047-.022-.07-.094-.117-.094-.373-.093-.53-.32-.468-.678.326.022.678.022 1.005-.048v.701c-.117.164-.282.117-.422.117l.003.002Z"/><path fill="#296167" d="M81.973 51.579c-.351.117-.725.234-1.074.351-.561-.047-1.122.165-1.683.187-.374.023-.773.14-1.122-.047-.14-.07-.21.117-.352.117a18.145 18.145 0 0 1-3.18-.327c-.305-.07-.445-.21-.422-.538-.187-.304-.07-.608.07-.888.513-.14 1.005.047 1.52.07 1.264.047 2.526.257 3.812.07h.257c.397.022.444.07.304.468.14-.351.352-.56.748-.373.023 0 .07.07.07.022.117-.469.491-.234.773-.282.234.305.374.701.282 1.17h-.003Z"/><path fill="#555567" d="M71.849 57.894c.351.022.7.117 1.052-.023v.725c-.422.095-.843.118-1.264-.022.047-.21.07-.421.117-.63.022-.023.047-.048.094-.048v-.002Z"/><path fill="#8D926A" d="M81.157 53.075c-.095.234-.327.326-.469.513-.094.117-.234.257.048.327-.282.187-.257-.047-.235-.187.023-.165.048-.304-.187-.304.257-.187.514-.327.843-.352v.002Z"/><path fill="#B36C32" d="M81.227 53.636a2.323 2.323 0 0 1 1.146-.656c-.304.421-.748.491-1.074.748 0-.047-.023-.07-.07-.095l-.002.003Z"/><path fill="#B86F37" d="M80.572 52.7c.282-.281.609-.468 1.075-.585-.282.468-.748.468-1.075.7v-.117.002Z"/><path fill="#6D3609" d="M79.988 29.994c.14-.048.047-.21.14-.282.374.304.748.56 1.169.773.282.14.538.281.888.21.468-.07.887.443.96 1.051.07.701-.282 1.334-.913 1.66-.304.165-.444.397-.608.701-.304.656-.818 1.147-1.404 1.544-.374.256-.538.513-.421.96a.774.774 0 0 1-.048.56c-.234.235-.538.165-.817.14-.586-.047-1.122-.257-1.614-.56-.117-.188-.094-.398-.022-.61.773-.07 1.52-.256 2.174-.677.818-.514 1.426-1.192 1.638-2.13.351-1.308-.07-2.433-1.122-3.343v.003Z"/><path fill="#571D08" d="M77.297 36.191c.117.187.022.374.022.561.21.586.047 1.147-.421 1.356-.117.023-.21.07-.327.095-.304.023-.586.14-.865.234-.165.048-.304.14-.469 0a3.32 3.32 0 0 1 .235-1.356c.164-.514.022-.935-.235-1.356-.164-.282-.513-.514-.42-.913.655.701 1.425 1.31 2.477 1.38h.003Z"/><path fill="#6D3609" d="M79.917 33.758a.75.75 0 0 1-.773-.773c0-.49.374-.887.843-.887.421 0 .818.374.818.748a.867.867 0 0 1-.888.912ZM73.977 29.829c-.047-.422.117-.818.234-1.217.048-.117.07-.21.21-.187 1.192.117 2.316-.234 3.46-.49-.304.468-.817.513-1.286.655-.586.164-1.122.444-1.73.468-.187 0-.352.117-.444.352-.047.164-.07.513-.444.421v-.002ZM75.405 32.262c.048.095.14.14.21.187.327.257.444.608.281.888-.187.351-.678.538-1.03.374-.28-.118-.513-.586-.468-.888.07-.491.514-.491.818-.656.117-.047.165.023.187.095h.002Z"/><path fill="#1B150B" d="M75.405 32.262c-.048-.022-.118-.047-.165-.07-.374-.513-.396-.817-.07-1.192.048.048.07.095.095.14a.267.267 0 0 0-.117-.117c.351-.21.586-.117.655.257.095.396.023.748-.396.982h-.002Z"/><path fill="#20180F" d="M78.912 30.998c.095-.234.235-.21.374-.07.07.07.14.165.165.282.095.304.095.631-.165.888-.094.095-.187.14-.281.047-.257-.234-.327-.538-.21-.865.165-.07.257-.14.117-.282Z"/><path fill="#6D3609" d="M77.296 34.25c-.257.022-.468-.096-.678-.235-.094-.07-.187-.165-.117-.282.07-.117.164 0 .257.023.117.047.234.14.374.187.444.187.725-.047 1.03-.327.07-.07.117-.234.256-.117.117.117-.022.187-.094.282a1.301 1.301 0 0 1-1.03.468h.002ZM75.966 29.55c-.14.164-.327.094-.491.094-.257.023-.539-.022-.726.21-.07.07-.187.117-.257.022-.094-.117.023-.21.095-.282.352-.396.912-.42 1.379-.047v.002ZM77.135 32.098c.14.07.094.164.022.257-.072.092-.21.164-.07.304.07.07.21.164.095.257-.047.047-.21 0-.304-.023-.165-.07-.282-.21-.21-.397.07-.21.257-.304.469-.396l-.002-.002Z"/><path fill="#F2EDE3" d="M78.912 30.998c.187-.022.304.07.21.257-.095.187-.21.095-.327 0 .047-.094.094-.187.117-.257Z"/><path fill="#5B9571" d="M75.24 38.413c.47-.023.866-.327 1.334-.327.14.164.07.351.023.514-.257 1.099-.561 2.174-.843 3.25-.234.913-.234.888.678.96.935.07 1.87-.047 2.808-.022.513.022.56-.023.678-.539.281-1.264.655-2.525.935-3.79a.724.724 0 0 1 .14-.303c.49-.117.865.07 1.216.396.07.048.117.117.187.165a11.66 11.66 0 0 0-.586 2.525c0 .469-.187.913-.234 1.38-.023.163-.047.303 0 .443.304.982.21 1.987.117 3.017-.022.982-.117 1.964-.07 2.946 0 .282.023.561.165.796.047.21.022.396-.14.56-.21.14-.469.048-.678.118-.047.187.257.187.164.396-.07.048-.117-.047-.164-.07-.491-.326-.748-.187-.818.397 0 .095.047.234-.117.21-.117-.023-.14-.14-.117-.235.047-.164.117-.326.187-.538-.726-.023-1.404.14-2.082.07-1.264-.117-2.526-.07-3.79-.327-.047-.282-.07-.561-.117-.843-.022-.07-.07-.164-.094-.234-.257-.491-.257-1.03-.327-1.566-.047-.304-.14-.608-.07-.935.048-.374-.047-.725-.164-1.074-.234-.818-.14-1.613.21-2.386.234-.539.42-1.075.608-1.613.256-1.052.513-2.13.748-3.181.094-.07.164-.118.21-.165l.004.005Z"/><path fill="#551B06" d="M82.233 38.575c-.374-.14-.773-.257-1.147-.397-.117.095-.234.023-.374 0-.14-.047-.281-.07-.444-.117-.56-.164-.678-.374-.538-.887 0-.118.022-.257 0-.374-.234-.631.047-.983.56-1.31.61-.396 1.1-.934 1.357-1.637.095-.257.257-.469.586-.422-.165.561.022 1.122 0 1.683 0 .305-.07.586-.187.843-.21.444-.21.888 0 1.309.187.421.21.843.187 1.309Z"/><path fill="#626981" d="M68.738 61.611c.165-.327.444-.561.748-.725.257-.14.469-.305.352-.656.818 0 1.45.538 1.755 1.496-.888 0-1.8 0-2.69.023-.14 0-.14-.07-.165-.14v.002Z"/><path fill="#C7721C" d="M81.717 49.918c-.164-.14-.21-.326-.21-.56 0-1.1 0-2.2.095-3.299a4.04 4.04 0 0 0 1.03-2.291c.047-.352.023-.678-.21-.982-.094-.095-.164-.235-.094-.374.281-.095.444.094.63.256.327.282.656.586.983.865.14.118.304.165.469.257.164.07.326.165.326.374-.281.048-.49-.14-.748-.21-.07.095 0 .328-.234.328-.14-.023-.234-.14-.374-.235-.07.726-.187 1.426-.396 2.104-.374 1.147-.796 2.27-1.053 3.438-.047.118-.07.282-.21.327l-.004.002Z"/><path fill="#AA5713" d="M83.8 44.259c.116-.165.116-.327.022-.514.304.14.608.282.912.421.282.327.678.492 1.03.726.42.296.818.264 1.192-.095.047-.047.094-.07.209-.187-.117.327-.327.444-.469.608-.14.14-.14.257.048.352.421.234.842.469 1.333.491-.326.421-.795.726-1.099 1.17-.117.234-.282.256-.469.094-.281-.234-.56-.444-.817-.7-.07-.048-.14-.118-.14-.21-.023-.678-.608-.888-.982-1.287-.282-.281-.678-.443-.773-.865l.002-.004Z"/><path fill="#E98E41" d="M82.326 42.412c.843 1.191.257 2.246-.304 3.32-.095.165-.21.327-.444.352l.07-1.566c.023-.421-.047-.818-.14-1.217-.186-.7.095-1.378.305-2.034.187.351.187.818.513 1.147v-.002Z"/><path fill="#BA733A" d="M81.156 53.052c.187-.326.539-.351.913-.513-.257.396-.561.468-.913.513Z"/><path fill="#B69463" d="M75.989 76.462c-.726.14-1.451.14-2.175 0h2.175Z"/><path fill="#B76015" d="M73.65 46.832c.28.586.186 1.24.326 1.847.047.21.14.422.07.656-.444-.095-.888-.164-1.31-.327.118-.351.07-.748.235-1.122.187-.42.023-.63-.421-.817-.165-.07-.374-.023-.491-.21.351 0 .7-.047 1.03.047.186.023.373.023.56-.07v-.004Z"/><path fill="#E78E3B" d="M74.305 41.756c-.022.491-.117.96-.374 1.379-.374.63-.443 1.356-.42 2.081 0 .187 0 .352-.023.539-.701-.96-.726-2.361.187-3.251.256-.234.443-.514.63-.748Z"/><path fill="#532904" d="M67.662 58.572c.047.07.095.164.07.257-.421-.047-.678-.374-.96-.63-.304-.283-.56-.632-.725-.843.491.281.912.934 1.613 1.216h.002Z"/><path fill="#5B9571" d="M80.734 51.626c-.187.117-.374.14-.586 0 .235-.117.422.047.586 0Z"/><path fill="#824910" d="M79.73 37.174c.047.396.094.772.608.818.14.373-.047.678-.234.96-.561.772-1.31 1.121-2.27.959-.63-.117-1.051-.561-1.121-1.192.022-.234-.047-.491.117-.7.327-.048.491-.235.469-.586-.023-.235.047-.469.047-.7.257-.07.397.164.586.233.585.235 1.169.397 1.8.21l-.002-.002ZM82.465 32.145c.047.257-.047.469-.282.586a.211.211 0 0 1-.234 0 .342.342 0 0 1-.047-.14c.256-.281.07-.56 0-.842-.023-.095-.048-.21.047-.257.094-.07.187 0 .257.07.21.14.326.304.257.585l.002-.002Z"/><path fill="#E98D41" d="M76.83 38.014c0 .234 0 .49-.023.725-.07.023-.07-.07-.117-.07.14.257.117.586.304.843.165.21.327.374.586.444 1.17.351 2.361-.023 2.877-1.264.095-.21.117-.469.304-.631.117.023.234.07.327.095-.352 1.45-.726 2.877-1.052 4.325-.07.304-.187.422-.492.422-1.216 0-2.433.047-3.647 0-.374-.023-.421-.188-.374-.47.117-.56.257-1.121.421-1.682.235-.888.514-1.778.656-2.69.07 0 .14-.023.234-.047h-.004Z"/><path fill="#E7E1DE" d="M75.144 31.023c.07.023.14.023.188.047.094.048.094.165.07.257-.023.07-.07.095-.118.07-.117-.022-.14-.117-.14-.234v-.14Z"/><path fill="#276166" d="M77.58 44.984h1.565c.257 0 .351.07.327.327-.023.63 0 1.239 0 1.87 0 .396-.165.725-.469 1.005-.282.234-.63.42-.935.585-.304.165-.656.165-1.005 0-.396-.187-.725-.421-1.074-.678-.35-.257-.374-.655-.397-1.052-.022-.586 0-1.17 0-1.755 0-.257.095-.351.327-.327.538.048 1.1.023 1.66.023v.002Z"/><path fill="#21504C" d="M74.655 42.973c.21.047.444.117.396.421-.022.234-.094.444-.396.421-.257-.022-.444-.117-.444-.421.023-.257.164-.397.444-.421Z"/><path fill="#1F5050" d="M80.15 43.394c.023-.187.117-.374.352-.374.234 0 .469.117.469.421-.023.235-.165.444-.422.422-.234 0-.421-.14-.396-.469h-.003Z"/><path fill="#B56018" d="M80.734 38.084c-.164.887-.608 1.59-1.45 1.964-.632.282-1.848.187-2.292-.327-.327-.374-.21-.817-.351-1.216.164.047.07.21.164.234.095.608.561 1.005 1.17 1.075 1.146.117 2.22-.678 2.338-1.848a.81.81 0 0 1 .421.117Z"/><path fill="#588494" d="M74.818 43.394c0 .094-.022.164-.117.164-.07 0-.117-.07-.117-.14 0-.094.022-.164.117-.164.07 0 .117.07.117.14Z"/><path fill="#4D7C83" d="M80.409 43.441c0-.094.022-.164.117-.164.117.022.21.07.21.21-.023.094-.07.164-.165.14-.14-.024-.165-.118-.165-.188l.002.002Z"/><path fill="#B99460" d="M7.452 33.06c-.977-.09-1.888-.41-2.798-.796-1.41-.615-2.615-1.478-3.436-2.82-1-1.683-.772-3.799.546-5.257 1.273-1.41 2.888-2.205 4.708-2.685.205-.045.388-.09.568-.228 1.07-.227 2.138-.365 3.23-.25.456.045.934.023 1.389.16.137.09.272.138.455.183 1.752.365 3.413.977 4.753 2.205 1.456 1.343 2.138 2.959 1.548 4.914-.387 1.298-1.273 2.206-2.388 2.958a9.987 9.987 0 0 1-3.776 1.525c-.205.09-.34.023-.455-.16a1.807 1.807 0 0 1-.25-.772 7.089 7.089 0 0 1 .295-2.48c.068-.183.113-.388.25-.501.34-.318.455-.773.593-1.205.045-.183.045-.34-.09-.455-.433-.318-.5-.75-.478-1.25-.09-.82-.568-1.274-1.32-1.526-.978-.34-1.956-.523-2.98-.205-1.139.34-1.526.865-1.479 2.025.113.433.045.843-.182 1.206-.25.387-.045 1.045.365 1.432 1 1 1.57 2.161 1.297 3.619-.045.227-.045.455-.365.365v-.002Z"/><path fill="#28546F" d="M15.846 53.511c.477 2.161.795 4.346 1 6.552.16 1.82.295 3.64.478 5.459a7.98 7.98 0 0 1-.023 1.798c-.295 2.615-.205 5.231.023 7.849.022.227.022.455.045.705-.09.113-.25.138-.388.138-.932 0-1.865.022-2.798 0-.09 0-.16-.023-.25-.046-.137-.045-.182-.182-.25-.295-.888-2.41-1.525-4.868-1.32-7.484.022-.182-.045-.34-.09-.523-.433-1.775-1.023-3.503-1.206-5.323-.067-.638-.112-1.25-.16-1.888 0-.16-.227-.16-.204-.34.227-.113.5-.206.66-.433.045-.068.137-.113.067-.205-.045-.068-.112-.045-.182-.068-.228-.022-.5.09-.638-.227-.09-.933-.045-1.888-.045-2.82 0-.569-.068-1.139.045-1.706.113-.183.295-.183.478-.183 1.478-.137 2.91-.477 4.298-.955.205-.068.34-.09.455 0l.005-.005ZM4.448 75.874c-.09-2.776-.455-5.529-.955-8.257a1.997 1.997 0 0 1-.045-.365c-.068-4.298.023-8.577.773-12.808.022-.182.045-.34.09-.523.205-.137.41-.045.592 0 1.41.388 2.866.546 4.324.638.16 0 .34 0 .455.138.067.112.067.227.067.364 0 1.298.023 2.616 0 3.914 0 .067-.022.137-.022.205-.09.25-.318.227-.5.227-.295 0-.273.113-.16.318.112.273.387.273.592.387 0 .228-.432.206-.295.5 0 1.32-.272 2.594-.637 3.844-.25.888-.478 1.775-.728 2.66-.09.296-.09.593-.023.889.34 1.66.523 3.365.455 5.073-.045.82-.067 1.638-.16 2.458-.022.113-.022.228-.09.318-.16.16-.34.16-.522.16H4.95c-.205-.023-.388 0-.5-.138l-.003-.002Z"/><path fill="#5B9572" d="M9.589 54.671c-1.706 0-3.39-.25-5.029-.705a1.145 1.145 0 0 0-.272-.045c-.365-.09-.41-.295-.34-.66.41-2.093.932-4.186.795-6.369-.068-.91-.183-1.82-.41-2.73-.138-.16-.023-.318.045-.456.933-1.41 1.843-2.865 2.843-4.23.41-.568.955-1.023 1.478-1.501.16-.16.365-.25.568-.34.25-.09.41-.045.455.25.022.16.022.34.022.5v15.538c-.022.273.045.546-.16.75l.005-.002Z"/><path fill="#789A9E" d="M14.959 84.859c-.09.067-.16.227-.25 0-.228-.25-.205-.568-.273-.865-.045-.205-.113-.388-.16-.593-.16-.478-.182-.955-.182-1.455v-3.504c0-.182.045-.387-.113-.545-.16.16-.113.34-.113.523v3.73c0 .228.045.478-.182.638a131.41 131.41 0 0 0-.546 2.23c-.16-.182-.16-.364-.205-.522-.41-1.32-.545-2.685-.477-4.071.045-.82 0-1.615 0-2.433 0-.16 0-.295-.228-.295-.227 0-.205.16-.205.317 0 1.138-.045 2.253.023 3.391.068 1.25-.388 2.388-.615 3.618-.183-.137-.16-.317-.205-.455-.41-1.343-.593-2.708-.5-4.096.045-.795 0-1.593 0-2.388 0-.16.045-.34-.228-.34s-.205.205-.205.365v3.868c0 1.07-.41 2.026-.683 3.048-.09-.365-.16-.727-.272-1.07-.318-1-.365-2.048-.318-3.093.023-.91 0-1.82 0-2.73 0-.16.09-.388-.205-.388-.317-.023-.272.205-.272.388v4.253c0 .205-.023.41-.045.615-.068.638-.228 1.25-.388 1.865-.09-.045-.09.388-.273.046-.205-.206-.227-.478-.272-.75-.068-.25-.113-.5-.205-.728-.25-.796-.205-1.593-.205-2.411v-2.548c0-.16.045-.318-.09-.5-.09.182-.068.34-.068.5v3.298a6.15 6.15 0 0 1-.25 1.706c-.113.272-.068.615-.295.842-.16.228-.09.546-.273.75-.182-.204-.022-.567-.34-.705-.045-.34-.09-.682-.227-1.022-.183-.593-.206-1.183-.183-1.798.023-1.548 0-3.071.023-4.619v-.295c.022-.433.112-.523.545-.523.887-.022 1.775 0 2.685 0-.022-.09-.182-.09-.137-.227.227-.16.455-.113.682 0 0-.068-.045-.138-.045-.228a91.97 91.97 0 0 1 0-3.526c0-.34.205-.5.523-.5a9.98 9.98 0 0 1 1.16 0c.41 0 .455.273.455.593v3.458c0 .25.113.388.365.388.568 0 1.16.067 1.706-.113.137.112.295.137.455.137.34-.022.683 0 1.023 0 .75 0 .795.068.795.796.023 1.82 0 3.64 0 5.458 0 .365-.113.728-.25 1.07-.183.5-.228 1-.455 1.456l-.002-.011Z"/><path fill="#824910" d="M9.614 37.745c-.34-.09-.592.113-.82.318-.75.683-1.478 1.388-2.025 2.253-.728 1.138-1.5 2.275-2.253 3.39-.09.138-.182.273-.182.456-.16.022-.205.16-.296.272-.795.956-1.842 1.41-3.048 1.478-.637.045-1.07-.477-.978-1.115.138-.843.296-1.683.593-2.503.273-.137.365-.455.592-.66.433-.365.888-.66 1.366-.91.522-.34 1.092-.638 1.638-.956 1.115-.615 2.025-1.455 2.798-2.433.25-.317.522-.568.455-1.045-.045-.228.112-.455.34-.523 1.023-.295 2.048-.545 3.116-.455.66.045 1.092.5 1.455.978.773.955 1.548 1.933 2.616 2.593.637.387 1.273.75 1.933 1.115.773.455 1.57.91 2.115 1.66.023.023.068.046.113.023.365.91.568 1.888.66 2.866.045.5-.34.843-.865.843-1.433-.023-2.57-.593-3.39-1.776-.138-.182-.273-.387-.41-.592-.046.16-.068.272-.09.387-.569-1.638-1.706-2.888-2.662-4.298-.295-.433-.705-.728-1.022-1.093-.045-.023-.068-.023-.068.022.023.183.113.433-.113.5-.25.09-.34-.204-.522-.34-.25-.34-.66-.365-1.046-.455Z"/><path fill="#5B9572" d="M10.772 38.11c.138.113.205.318.41.388.16-.25-.022-.5.023-.795.615.545 1.183 1.092 1.615 1.752.705 1.046 1.388 2.093 2.116 3.139.182.25.067.545.137.795-.09 2.798.478 5.529 1 8.257.068.34.09.683.183 1 .137.433.09.728-.41.865-.955.296-1.888.593-2.866.796-.728.16-1.478.227-2.23.272-.16-.16-.138-.365-.138-.545v-15.4c.023-.183 0-.388.16-.524Z"/><path fill="#5B9572" d="M16.94 40.066c-1.661-.795-3.139-1.775-4.254-3.276-.183-.25-.41-.477-.593-.728-.41-.522-.977-.705-1.592-.682-.843.045-1.683.227-2.504.432-.365.09-.455.365-.41.706.023.137.09.25-.022.387-.843.978-1.66 2.025-2.798 2.685-.705.41-1.433.82-2.138 1.25-.568 0-.933-.387-1.32-.704-.068-.068-.068-.183 0-.273.705-1.933 1.66-3.708 3.39-4.936.773-.545 1.57-.978 2.48-1.273.273-.113.433.023.616.205 1 1.07 2.388 1.25 3.618.478.205-.138.387-.296.545-.5.09-.138.183-.273.388-.25.615.09 1.227.227 1.82.455 2.23.932 3.57 2.638 4.253 4.913 0 .023.023.045.046.068.022.112-.023.205-.113.25-.5.272-.91.637-1.41.795l-.003-.002Z"/><path fill="#824910" d="M12.297 33.56c-.318.272-.545.637-.91.865-1.25.773-2.798.545-3.754-.568-.137-.16-.272-.273-.477-.227.182-.138.522-.206.295-.568.137-.023.227-.068.25-.228.113-.66.137-1.343-.16-1.978-.318-.66-.593-1.343-1.25-1.798-.41-.272-.478-1.16-.205-1.57.227-.318.227-.683.112-1.045.568-.273 1.046-.683 1.593-1 .41-.25.795-.228 1.16.112.523.478 1.138.568 1.843.478.478-.045.955-.113 1.41.045 0 .5.023.977.546 1.273.09.045.182.227.112.317-.182.365-.137.843-.455 1.115-.477.433-.545 1-.682 1.548-.138.568-.113 1.138-.09 1.706.022.477.25.82.592.91-.34.272.045.432.068.615l.002-.002Z"/><path fill="#F7A752" d="M15.232 83.448c.388-1.228.183-2.503.205-3.753.023-.956.023-1.888.023-2.843.387-.206 2.253-.183 2.616 0-.023.09-.068.182-.068.272a94.553 94.553 0 0 0-.09 3.571c0 .933.545 1.41 1.478 1.273.477-.068.978-.113 1.478-.16.773-.09 1.32.387 1.32 1.205 0 .205 0 .41-.113.593-2.048-.068-4.118 0-6.164-.023-.227 0-.477.045-.682-.137l-.003.002ZM5.473 76.852c0 1.525.023 3.048.023 4.573 0 .683.09 1.365.205 2.025-.183.16-.41.113-.638.113-1.638.022-3.275-.023-4.913.022-.16-.455-.16-.91.112-1.342.228-.34.546-.5.956-.455.567.067 1.115.112 1.683.205.842.112 1.41-.365 1.41-1.228a226.756 226.756 0 0 0-.113-3.913c.388-.206.82-.183 1.273 0h.002Z"/><path fill="#AA6931" d="M15.234 83.448h6.369c.16 0 .365-.09.455.16-.023.023-.023.045-.045.068-.138.388-.138.933-.433 1.115-.318.183-.795.068-1.205.068h-3.003c-.16 0-.318 0-.456-.138-.705-.637-1.115-.637-1.797.023-.045.045-.113.067-.16.112-.023-.5.182-.932.272-1.41l.003.002ZM.127 83.608c.09-.227.273-.137.433-.137h5.118c.113.272.295.567.09.865-.045.022-.09.022-.112.045-.433.568-1.046.478-1.638.478H.9c-.273 0-.388-.068-.455-.34-.09-.296-.205-.593-.318-.91Z"/><path fill="#5C946E" d="M11.66 21.184c-.477.16-.932.023-1.387-.045-.75-.09-1.478.068-2.23.068-.341 0-.66.205-.979.067.91-1.593 2.866-1.865 4.186-.592.138.16.273.34.41.5v.002Z"/><path fill="#A96933" d="M18.1 76.874h-2.616c-.015-.455-.258-.675-.728-.66h-1.138c-.16 0-.295-.022-.317-.228a.176.176 0 0 1 .09-.09c.182-.067.365-.045.545-.045 1.16 0 2.298 0 3.458.023.205 0 .41.022.615.022.568 0 .773.25.593.843-.113.25-.34.067-.5.137l-.003-.002Z"/><path fill="#F0A759" d="M13.662 82.788c.113-.318.068-.66.068-.978v-3.708c0-.16-.113-.433.227-.433s.25.25.25.456v2.638c0 .91-.067 1.797.16 2.685-.205.16-.432.138-.637 0-.068-.205.045-.432-.068-.66Z"/><path fill="#A86A35" d="M5.474 76.852c-.433 0-.865 0-1.32.022-.593.045-.34-.41-.388-.66-.067-.388.205-.34.433-.34h3.548c.113 0 .25 0 .365-.068.137-.045.273-.067.388.09l.022.023c.16.09.5-.09.478.137 0 .25-.34.113-.523.138a45.38 45.38 0 0 1-2.48 0c-.41-.023-.593.09-.523.522.022.045 0 .09 0 .138v-.002Z"/><path fill="#6D3609" d="M16.94 40.066c.364-.228.727-.455 1.092-.705.138-.09.318-.16.41-.34.273.795.5 1.615.683 2.457.022.068.045.113.067.183-.067.205-.137.045-.182 0-.593-.683-1.343-1.138-2.07-1.593v-.002ZM1.287 39.838c.023.09-.022.205.09.25.41.25.773.568 1.228.728-.682.387-1.365.773-1.775 1.478-.045.068-.137.227-.205 0 .182-.82.365-1.66.66-2.458l.002.002Z"/><path fill="#A96A33" d="M6.385 84.269c.045-.273.067-.546.182-.82.273-.183.545-.183.843 0 .227.432.25.932.387 1.41-.365.022-.705.022-.932-.34-.113-.16-.318-.16-.478-.25h-.002Z"/><path fill="#A96B34" d="M13.73 83.47h.638c.205.433.25.933.34 1.389-.887 0-1.07-.273-.978-1.388Z"/><path fill="#A96E3B" d="M8.044 84.814c-.09-.09-.068-.183-.045-.295.16-.523.227-1.046.432-1.57.023.387.045.75.045 1.137 0 .318-.09.593-.432.728Z"/><path fill="#332832" d="M12.23 26.12c-.568 0-1.138.023-1.728.068-.615.045-1.206-.09-1.66-.568-.273-.273-.569-.295-.888-.113-.34.183-.638.41-.956.638a1.372 1.372 0 0 1-.772.317c-.113-1.455.66-2.092 2.388-2.297.977-.113 1.91.205 2.775.615.546.25.773.75.843 1.342l-.002-.002Z"/><path fill="#B6A18E" d="M10.773 38.11c0 .113-.022.25-.022.365v20.837c.182.273.182.546 0 .82.067.138.272 0 .317.16-.25.228-.182.523-.182.82v9.943c0 .25.045.5-.138.705h-1.16c-.182-.205-.113-.478-.113-.705v-9.987c0-.205.113-.5-.272-.523-.138-.41.25-.273.387-.388-.137-.272-.16-.545 0-.82v-21.52c.5-.227.843.023 1.183.295v-.002Z"/><path fill="#233F48" d="M14.279 55.787c.545 1.478 1.07 2.866 1.592 4.254-.455-.16-.637-.593-.955-.866-.568-.5-.637-1.182-.615-1.865.045-.478-.16-.933-.022-1.525v.002Z"/><path fill="#253F48" d="M10.75 60.13v-.82h.773c.227 0 .227.113.137.25-.227.273-.432.638-.91.568v.003Z"/><path fill="#789A9E" d="M13.32 75.92c.138-.138.523.112.5-.296.09.045.068.16.09.228-.182.16-.387.067-.592.067h.003Z"/><path fill="#243E48" d="M4.176 60.928c.41-1.593.82-3.208 1.273-4.89.205.364.137.66.205.932.112.523.137 1.093.182 1.615a.602.602 0 0 1-.112.433c-.41.568-.796 1.138-1.206 1.705-.067.09-.182.16-.25.25-.045 0-.067-.022-.09-.045h-.002Z"/><path fill="#254048" d="M9.589 59.29v.82c-.41 0-.705-.25-.843-.66-.045-.16.045-.16.138-.16h.705Z"/><path fill="#F5A753" d="M7.407 83.47h-.843c.41-1.66.16-3.343.228-5.003v-.455c0-.16-.023-.318.205-.318.25 0 .205.16.205.318 0 1.138.023 2.275 0 3.413-.022.683.09 1.365.205 2.048v-.002Z"/><path fill="#4F3537" d="M10.533 26.95c.318.053.638.105.901.265.106.054.24.133.16.293-.079.133-.184.079-.293.027a2.258 2.258 0 0 0-.822-.239c-.106 0-.239-.054-.239-.185.027-.16.16-.16.293-.16v-.002Z"/><path fill="#493134" d="M8.491 27.082c0 .133-.132.185-.238.185-.372.027-.61.45-1.007.372-.08-.027-.054-.133 0-.212.105-.185.9-.556 1.088-.505.079.027.133.055.16.16H8.49Z"/><path fill="#623A37" d="M8.093 29.099c-.16-.054-.212-.185-.212-.318 0-.16.054-.293.239-.266.16.027.238.16.211.318 0 .133-.078.239-.238.266Z"/><path fill="#633A35" d="M10.587 28.301c.184.027.239.16.239.318s-.08.293-.24.293c-.16 0-.211-.133-.211-.293 0-.133.054-.266.212-.318Z"/><path fill="#5B9572" d="M56.232 18.384h-.554c-.507.022-.669-.137-.577-.647.255-1.568.115-3.09-.484-4.566-1.408-3.414-5.006-5.558-8.649-5.099-3.114.392-5.328 2.053-6.689 4.867-.185.37-.477.5-.876.392-2.86-.807-5.743 1.338-5.883 4.404-.022.44-.162.647-.599.714-1.753.3-3.069 1.246-4.06 2.722-.07.092-.115.184-.185.254-.162.138-.369.163-.554.023-.184-.137-.162-.3-.045-.485 1.014-1.615 2.422-2.721 4.267-3.183.3-.07.415-.185.44-.507.184-2.422 2.352-4.614 4.773-4.844.622-.07 1.246-.07 1.868.07.277.07.3-.115.392-.277 1.246-2.33 3.136-3.875 5.698-4.614a8.44 8.44 0 0 1 3.875-.23c.255.045.347-.045.414-.277 1.039-2.676 3.553-4.267 6.412-4.13 2.722.138 5.099 2.076 5.835 4.73.947 3.46-1.13 7.058-4.636 7.957-.277.07-.37.162-.347.44.022.321.045.668-.023.99-.092.392.07.415.415.415 1.408 0 2.676.392 3.828 1.199 2.1 1.453 3.136 3.483 3.136 6.042 0 .53-.115 1.061-.255 1.568-.092.322-.347.507-.622.392-.3-.115-.254-.347-.207-.6.876-3.667-1.36-7.08-5.074-7.702-.322-.045-.669-.045-.99-.07-.046.023-.046.045-.046.045l.002.007Z"/><path fill="#2483B2" d="M48.645 41.695h3.69c-.529-.622-.739-1.291-.621-2.053.045-.369.23-.714.439-1.013.67-.992 1.546-1.8 2.444-2.56.23-.207.485-.162.647.093.647 1.13 1.199 2.307 1.43 3.62.115.692-.092 1.338-.576 1.938h5.65c.3 0 .53.07.53.439 0 .347-.255.392-.53.392H27.84c-.277 0-.554-.023-.554-.392 0-.37.255-.415.554-.415h2.008c.022-.162-.115-.23-.163-.346-.484-.854-.576-1.708-.022-2.56.67-1.084 1.615-1.937 2.584-2.769.23-.184.484-.137.622.115.669 1.224 1.29 2.445 1.453 3.853.07.621-.185 1.176-.577 1.683h3.62c.023-.138-.114-.23-.161-.322-.485-.832-.555-1.684-.046-2.537.67-1.106 1.638-1.96 2.607-2.792.23-.184.462-.115.6.138.621 1.13 1.198 2.284 1.43 3.575.115.714-.07 1.36-.554 1.96h3.668c-.255-.392-.485-.806-.577-1.268-.093-.53-.023-1.039.254-1.498.67-1.154 1.66-2.03 2.652-2.907.23-.184.484-.115.6.115.646 1.154 1.223 2.33 1.43 3.645.07.67-.162 1.269-.622 1.868v-.002Z"/><path fill="#5B9572" d="M59.554 29.73c.738-.415 1.315-.992 1.8-1.66.045-.07.115-.163.162-.23.162-.255.37-.3.622-.138.23.162.162.392.022.6-.784 1.175-1.822 2.074-3.136 2.628-.899.392-1.822.555-2.791.555h-23.25c-3.553 0-6.46-2.537-6.966-6.02-.115-.762-.07-1.546.07-2.307.044-.277.207-.485.506-.415.3.07.347.3.3.6-.392 2.536.44 4.566 2.444 6.134.138.115.3.185.44.277.414.093.784.3 1.198.44.714.254 1.476.37 2.237.37h22.904c.968 0 1.937-.163 2.813-.623.208-.115.44-.115.622-.207l.003-.005Z"/><path fill="#E8F0FD" d="M59.553 29.73c-.946.646-2.03.923-3.16.923-7.82.023-15.638.023-23.458 0-1.131 0-2.192-.277-3.136-.923.07 0 .162-.023.23-.023 9.85.023 19.697.023 29.522.023h.002Z"/><path fill="#FD9E5D" d="M58.61 15.523c.114 0 .23.07.3.184.23.392.461.784.668 1.176.115.208.07.415-.137.555-.23.137-.44.045-.577-.163-.23-.37-.44-.714-.622-1.106-.184-.322 0-.669.37-.646h-.002ZM46.936 4.244c.415.255.947.462 1.361.832.138.115.115.3.023.44-.093.161-.255.254-.44.184a7.835 7.835 0 0 1-1.36-.762c-.163-.092-.185-.3-.093-.462.093-.162.23-.254.507-.23l.002-.002ZM61.076 5.765c-.255.023-.37-.07-.44-.23a.393.393 0 0 1 .116-.506c.392-.255.806-.485 1.245-.714.185-.093.37-.046.507.137.115.162.115.37 0 .484-.462.37-.99.6-1.43.832l.002-.003ZM62.3 14.092c-.44-.23-.947-.462-1.361-.831-.138-.115-.115-.323 0-.485.137-.184.322-.23.484-.137.414.23.831.462 1.246.714.162.092.207.277.137.462-.092.207-.23.3-.507.277ZM57.685 2.607c.023-.045.046-.138.093-.23.185-.347.392-.692.6-1.039.137-.207.321-.322.576-.184.23.137.277.347.162.576-.207.392-.44.762-.646 1.131-.115.185-.277.23-.485.185-.207-.045-.3-.185-.3-.44ZM51.273 2.584c-.022.207-.115.347-.277.415-.184.092-.347 0-.462-.163a19.766 19.766 0 0 1-.714-1.198c-.092-.185-.045-.37.115-.507.138-.115.347-.162.485-.023.414.44.599.97.853 1.476ZM62.991 10.172c-.37-.023-.669-.045-.968-.07-.278-.022-.44-.185-.415-.44.023-.254.185-.391.462-.369.414.023.854.045 1.268.093.255.022.392.162.392.414 0 .253-.162.392-.414.392-.138-.022-.255-.022-.323-.022l-.002.002ZM55.149 1.084v.646c0 .255-.138.415-.37.415-.232 0-.414-.138-.414-.392a15.102 15.102 0 0 1 0-1.43c0-.23.162-.323.369-.323.23 0 .392.092.415.322.022.255 0 .507 0 .762Z"/><path fill="#2483B2" d="M64.004 42.502h-.554c-.255-.023-.37-.163-.37-.392 0-.23.115-.392.347-.415a9.864 9.864 0 0 1 1.154 0c.23.023.391.185.369.44-.023.23-.162.346-.392.369-.162.022-.37 0-.554 0v-.002ZM25.601 42.524h-.162c-.3.022-.554-.045-.554-.415 0-.347.254-.414.554-.414h.484c.278 0 .44.137.415.414 0 .277-.162.392-.44.392-.092 0-.207.023-.3.023h.003Z"/><path fill="#FD9E5D" d="M60.384 9.455c-.045 2.56-1.753 4.774-4.153 5.398-.277.07-.37.023-.414-.254-.507-2.56-1.89-4.522-4.082-5.95-.163-.115-.185-.185-.138-.392.37-1.269 1.498-2.26 2.837-2.4.137-.022.3-.045.439-.045.255-.022.414-.137.414-.392 0-.3-.207-.414-.484-.414-.946.022-1.8.322-2.537.899-.621.507-1.106 1.106-1.36 1.89-.07.23-.138.322-.415.185a3.804 3.804 0 0 0-.854-.323c-.23-.07-.255-.137-.185-.346.715-1.938 2.86-3.436 4.959-3.529a5.701 5.701 0 0 1 5.882 4.73c.07.299.07.621.093.946l-.002-.003Z"/><path fill="#fff" d="M47.306 36.966c.462.899.876 1.8 1.061 2.769.185.923-.37 1.73-1.291 1.937a1.731 1.731 0 0 1-2.007-1.246c-.115-.462-.07-.899.207-1.29.554-.832 1.268-1.499 2.03-2.168v-.002ZM31.83 41.74c-.691-.045-1.223-.347-1.545-.969-.3-.577-.255-1.154.137-1.683.507-.714 1.131-1.338 1.776-1.937.137-.115.207-.115.277.045.392.831.784 1.683.969 2.606.184.992-.622 1.96-1.616 1.938h.003ZM55.863 40.15c0 .784-.714 1.523-1.568 1.59-.807.07-1.616-.6-1.776-1.408a1.444 1.444 0 0 1 .23-1.176c.507-.761 1.154-1.383 1.823-2.007.092-.093.185-.185.277 0 .44.923.876 1.845 1.039 2.859-.023.07-.023.114-.023.137l-.002.005ZM40.938 40.102c0 .854-.714 1.59-1.59 1.638-.807.045-1.638-.622-1.776-1.476-.07-.414 0-.784.255-1.13.507-.74 1.131-1.361 1.8-1.96.092-.093.185-.208.3 0 .439.876.831 1.775 1.014 2.743v.185h-.003Z"/><path fill="#4F3537" d="M9.229 30.635c-.253-.018-.428-.198-.6-.403-.074-.101-.141-.23-.05-.356.093-.126.159.03.242.074.101.077.194.21.318.293.385.304.707.077 1.063-.203.083-.072.165-.259.275-.092.085.162-.065.219-.153.318-.316.315-.692.448-1.095.372v-.003Z"/></g><defs><clipPath id="a"><path fill="#fff" d="M0 0h90v85.064H0z"/></clipPath></defs></svg>