<svg xmlns="http://www.w3.org/2000/svg" xmlns:xlink="http://www.w3.org/1999/xlink" xml:space="preserve" id="Layer_1" width="512" height="512" x="0" y="0" version="1.1"><style id="style2" type="text/css">.st2{fill:none;stroke:#fff;stroke-width:2.7906;stroke-miterlimit:11.1623}.st5{fill:#121212}</style><path id="path4" d="M198.501 122.221c0 .867-.072 1.734-.144 2.6-.073.867-.217 1.734-.362 2.529a16.26 16.26 0 0 1-.65 2.528c-.216.795-.578 1.662-.866 2.456a70.83 70.83 0 0 1-1.084 2.312 23.165 23.165 0 0 1-1.372 2.239c-.506.722-1.012 1.445-1.59 2.095l-1.733 1.95c-.65.578-1.228 1.156-1.95 1.734a14.02 14.02 0 0 1-2.095 1.517c-.723.505-1.445.939-2.24 1.3-.794.433-1.589.794-2.383 1.083-.795.362-1.59.65-2.456.867-.867.217-1.662.434-2.529.65-.866.145-1.733.29-2.6.361-.867.073-1.734.145-2.6.145-.867 0-1.734-.072-2.601-.145-.867-.072-1.734-.216-2.6-.36a16.26 16.26 0 0 1-2.529-.65c-.866-.218-1.661-.579-2.456-.868-.794-.289-1.589-.722-2.383-1.083-.795-.434-1.517-.867-2.24-1.3-.722-.506-1.444-1.012-2.094-1.517l-1.95-1.734c-.579-.578-1.229-1.228-1.734-1.95-.578-.65-1.084-1.373-1.59-2.095a23.163 23.163 0 0 1-1.372-2.24c-.433-.794-.795-1.516-1.084-2.31-.36-.795-.65-1.59-.866-2.457-.29-.794-.434-1.661-.65-2.528-.145-.867-.29-1.662-.362-2.528-.072-.867-.144-1.734-.144-2.6 0-.868.072-1.734.144-2.601.073-.867.217-1.734.362-2.528.144-.795.36-1.662.65-2.529.216-.794.577-1.661.866-2.456a70.82 70.82 0 0 1 1.084-2.311c.433-.795.867-1.517 1.372-2.24a40.047 40.047 0 0 1 1.59-2.094l1.733-1.95c.65-.578 1.3-1.229 1.95-1.734a14.02 14.02 0 0 1 2.095-1.517 13.895 13.895 0 0 1 2.24-1.3c.794-.434 1.589-.795 2.383-1.084.795-.361 1.59-.65 2.456-.867.867-.216 1.662-.433 2.529-.65.866-.144 1.733-.289 2.6-.361.867-.072 1.734-.144 2.6-.144.867 0 1.734.072 2.6.144.868.072 1.735.217 2.601.361.867.145 1.734.361 2.529.65.794.29 1.661.578 2.456.867l2.383 1.084c.795.433 1.517.866 2.24 1.3a52.62 52.62 0 0 1 2.094 1.517l1.95 1.733c.65.578 1.229 1.228 1.734 1.95.578.65 1.084 1.373 1.59 2.096.505.722.939 1.444 1.372 2.239.433.794.795 1.517 1.084 2.311.36.795.65 1.59.866 2.456.217.795.434 1.662.65 2.529.217.866.29 1.733.362 2.528.144.867.144 1.733.144 2.6z" style="stroke-width:.722348"/><path id="path6" d="M210.13 152.704H133.13c-6.43 0-10.836 4.912-10.836 11.341v94.339c0 5.2 3.612 9.535 9.03 9.535 4.117 0 7.007-1.806 8.523-4.912v133.128c0 7.73 6.43 14.23 14.23 14.23 7.802 0 14.231-6.428 14.231-14.23V288.94h8.018v107.269c0 7.729 6.429 14.23 14.23 14.23 7.802 0 14.23-6.429 14.23-14.23V263.079c1.517 2.817 4.624 4.912 8.019 4.912 5.2 0 9.318-4.117 9.318-9.535v-94.339c-.072-7.006-5.49-11.413-11.991-11.413z" style="stroke-width:.722348"/><path id="path8" d="M345.354 121.932c0 .867-.072 1.734-.144 2.528-.072.867-.217 1.662-.361 2.529a13.633 13.633 0 0 1-.65 2.456c-.217.794-.578 1.589-.867 2.383-.361.795-.723 1.59-1.084 2.312-.433.722-.867 1.517-1.3 2.167-.506.722-1.011 1.372-1.517 2.023-.578.65-1.156 1.3-1.734 1.878a23.644 23.644 0 0 1-1.95 1.733 14.02 14.02 0 0 1-2.095 1.517c-.722.506-1.444.94-2.239 1.3-.795.434-1.517.795-2.311 1.084-.795.361-1.59.578-2.456.867-.795.217-1.662.433-2.529.65-.866.144-1.733.289-2.528.361-.794.072-1.733.145-2.6.145s-1.734-.073-2.6-.145c-.868-.072-1.734-.217-2.529-.361a16.259 16.259 0 0 1-2.528-.65 16.618 16.618 0 0 1-2.456-.867 70.84 70.84 0 0 1-2.312-1.084c-.794-.433-1.517-.866-2.239-1.3-.722-.433-1.445-1.011-2.095-1.517-.65-.578-1.3-1.083-1.95-1.733-.578-.578-1.156-1.228-1.734-1.878-.578-.65-1.083-1.373-1.517-2.023a17.199 17.199 0 0 1-1.3-2.167 13.484 13.484 0 0 1-1.083-2.312c-.362-.794-.65-1.589-.867-2.383-.217-.795-.434-1.662-.65-2.456-.145-.867-.29-1.662-.362-2.528-.072-.867-.144-1.734-.144-2.529 0-.867.072-1.733.144-2.528.073-.867.217-1.661.362-2.528.144-.867.36-1.662.65-2.456.216-.795.505-1.59.867-2.384a70.81 70.81 0 0 1 1.083-2.311c.361-.723.867-1.517 1.3-2.167.506-.723 1.012-1.373 1.517-2.023.578-.65 1.156-1.3 1.734-1.878a23.645 23.645 0 0 1 1.95-1.734 14.02 14.02 0 0 1 2.095-1.517 13.895 13.895 0 0 1 2.24-1.3c.794-.433 1.516-.794 2.31-1.083.795-.29 1.59-.578 2.457-.867.794-.217 1.661-.434 2.528-.65.867-.145 1.734-.29 2.528-.362.867-.072 1.734-.144 2.6-.144.867 0 1.734.072 2.601.144.867.073 1.734.217 2.528.362.867.144 1.662.36 2.529.65a16.62 16.62 0 0 1 2.456.867c.794.36 1.589.722 2.311 1.083.795.434 1.517.867 2.24 1.3a52.626 52.626 0 0 1 2.094 1.517c.65.578 1.3 1.084 1.95 1.734.578.578 1.156 1.228 1.734 1.878.578.65 1.084 1.372 1.517 2.023a17.2 17.2 0 0 1 1.3 2.167c.361.722.795 1.517 1.084 2.311.361.795.65 1.59.867 2.384.216.794.433 1.661.65 2.456.144.867.289 1.661.36 2.528.073.867.145 1.661.145 2.528z" style="stroke-width:.722348"/><path id="path10" d="M350.483 174.447s24.777 46.23 32.795 62.05c1.805 3.611 5.706 7.729 9.318 7.729 2.311 0 4.912-1.012 6.718-2.817 3.611-3.612 2.6-8.813 0-13.436-10.619-18.059-31.278-54.826-41.607-73.174-1.012-2.095-3.107-3.612-7.007-3.612h-64.361c-2.6 0-4.912 1.012-5.924 3.106-10.33 18.348-31.566 55.838-41.896 73.68-2.6 4.406-3.612 9.535 0 13.436 1.806 1.805 4.118 2.817 6.718 2.817 3.106 0 6.429-2.312 8.524-6.212 9.029-17.554 33.372-63.35 33.372-63.35v31.566l-40.596 68.479a7.722 7.722 0 0 0 0 7.512c1.3 2.312 3.9 3.9 6.43 3.9h34.094v110.376c0 7.729 6.212 14.23 14.23 14.23 7.73 0 14.447-6.212 14.447-14.23V286.05h6.429v110.374c0 7.73 6.718 14.23 14.447 14.23 7.73 0 14.23-6.212 14.23-14.23V286.05h34.384c2.6 0 5.2-1.517 6.429-3.901 1.3-2.312 1.3-5.2 0-7.512l-40.596-67.973h-.289z" style="stroke-width:.722348"/><path id="path12" d="M38.284 143.17h445.328v11.34H38.284Z" style="stroke-width:.722348"/><g id="g24" transform="matrix(.72235 0 0 .72235 -437.598 -152.632)"><defs id="defs15"><path id="SVGID_1_" d="M605.8 394.7h159.5v206.7H605.8z"/></defs><clipPath id="SVGID_2_"><use xlink:href="#SVGID_1_" id="use17" style="overflow:visible"/></clipPath><g id="g22" clip-path="url(#SVGID_2_)" style="clip-path:url(#SVGID_2_)"><path id="path20" d="m757.6 559-74.8-164.2-63 164.2h-14s14.7 40.4 79.4 41.1c64.4.7 79.4-41.1 79.4-41.1zM637 559l42.2-113 3.6 113.1H637Zm57.6 0V446l45.1 113z"/></g></g><g id="g36" transform="matrix(.72235 0 0 .72235 -437.598 -152.632)"><defs id="defs27"><path id="SVGID_3_" d="M1157.3 394.7h157.3v206.7h-157.3z"/></defs><clipPath id="SVGID_4_"><use xlink:href="#SVGID_3_" id="use29" style="overflow:visible"/></clipPath><g id="g34" clip-path="url(#SVGID_4_)" style="clip-path:url(#SVGID_4_)"><path id="path32" d="m1310 559-74.8-163.9-63 163.9h-14s14.7 40.4 79.4 41.1c64.4.7 79.4-41.1 79.4-41.1zm-120.6 0 42.2-113.1 3.6 113.1zm57.6 0V446l45.1 113.1H1247Z"/></g></g><path id="path38" d="M100.912 155.594h60.605" class="st2"/><path id="path40" d="M184.776 155.594h60.605" class="st2"/><path id="path42" d="M247.404 155.594h60.605" class="st2"/><path id="path44" d="M331.269 155.594h60.605" class="st2"/><path id="path46" d="M139.269 222.266v60.605" class="st2"/><path id="path48" d="M205.797 222.266v60.605" class="st2"/><g id="g70" transform="matrix(.72235 0 0 .72235 -437.598 -152.632)"><defs id="defs51"><path id="SVGID_5_" d="M719.1 773.7h458.5v13.7H719.1z"/></defs><clipPath id="SVGID_6_"><use xlink:href="#SVGID_5_" id="use53" style="overflow:visible"/></clipPath><g id="g68" clip-path="url(#SVGID_6_)" style="clip-path:url(#SVGID_6_)"><g id="g66"><defs id="defs57"><path id="SVGID_7_" d="M726 773.7h444.7c3.8 0 6.9 3.1 6.9 6.9 0 3.8-3.1 6.9-6.9 6.9H726c-3.8 0-6.9-3.1-6.9-6.9 0-3.8 3.1-6.9 6.9-6.9z"/></defs><clipPath id="SVGID_8_"><use xlink:href="#SVGID_7_" id="use59" style="overflow:visible"/></clipPath><g id="g64" clip-path="url(#SVGID_8_)" style="clip-path:url(#SVGID_8_)"><path id="path62" d="M719.1 773.7h458.5v13.7H719.1Z" class="st5"/></g></g></g></g><g id="g92" transform="matrix(.72235 0 0 .72235 -437.598 -152.632)"><defs id="defs73"><path id="SVGID_9_" d="M1195.5 775.1h26v12.3h-26z"/></defs><clipPath id="SVGID_10_"><use xlink:href="#SVGID_9_" id="use75" style="overflow:visible"/></clipPath><g id="g90" clip-path="url(#SVGID_10_)" style="clip-path:url(#SVGID_10_)"><g id="g88"><defs id="defs79"><path id="SVGID_11_" d="M1201.6 775.1h13.7c1.6 0 3.2.7 4.4 1.8 1.2 1.2 1.8 2.7 1.8 4.4 0 1.6-.7 3.2-1.8 4.4-1.2 1.2-2.7 1.8-4.4 1.8h-13.7c-1.6 0-3.2-.7-4.4-1.8-1.2-1.2-1.8-2.7-1.8-4.4 0-1.6.7-3.2 1.8-4.4 1.2-1.1 2.8-1.8 4.4-1.8z"/></defs><clipPath id="SVGID_12_"><use xlink:href="#SVGID_11_" id="use81" style="overflow:visible"/></clipPath><g id="g86" clip-path="url(#SVGID_12_)" style="clip-path:url(#SVGID_12_)"><path id="path84" d="M1195.5 775.1h26v12.3h-26z" class="st5"/></g></g></g></g><g id="g114" transform="matrix(.72235 0 0 .72235 -437.598 -152.632)"><defs id="defs95"><path id="SVGID_13_" d="M675.8 775.1h26v12.3h-26z"/></defs><clipPath id="SVGID_14_"><use xlink:href="#SVGID_13_" id="use97" style="overflow:visible"/></clipPath><g id="g112" clip-path="url(#SVGID_14_)" style="clip-path:url(#SVGID_14_)"><g id="g110"><defs id="defs101"><path id="SVGID_15_" d="M682 775.1h13.7c1.6 0 3.2.7 4.4 1.8 1.2 1.2 1.8 2.7 1.8 4.4 0 1.6-.6 3.2-1.8 4.4-1.2 1.2-2.7 1.8-4.4 1.8H682c-1.6 0-3.2-.7-4.4-1.8-1.2-1.2-1.8-2.7-1.8-4.4 0-1.6.6-3.2 1.8-4.4 1.2-1.1 2.8-1.8 4.4-1.8z"/></defs><clipPath id="SVGID_16_"><use xlink:href="#SVGID_15_" id="use103" style="overflow:visible"/></clipPath><g id="g108" clip-path="url(#SVGID_16_)" style="clip-path:url(#SVGID_16_)"><path id="path106" d="M675.8 775.1h26v12.3h-26z" class="st5"/></g></g></g></g></svg>