<svg width="90" height="70" viewBox="0 0 90 70" fill="none" xmlns="http://www.w3.org/2000/svg">
  <g clip-path="url(#clip0_1846_7872)">
    <path d="M12.5508 67.354H77.3592V69.2912H12.5508V67.354Z" fill="#606B7D" />
    <path d="M79.8906 67.5518H83.5655V69.2894H79.8906V67.5518Z" fill="#606B7D" />
    <path d="M6.43359 67.5518H10.1084V69.2894H6.43359V67.5518Z" fill="#606B7D" />
    <path
      d="M88.7829 33.6074H81.4606V18.2409C81.5174 18.2311 81.5702 18.2154 81.623 18.1959L88.7809 33.6055L88.7829 33.6074ZM8.0404 18.1959C8.09323 18.2154 8.14802 18.2291 8.20281 18.2409V33.6055H0.88251L8.0404 18.1959ZM15.9203 33.6055H8.59025V18.2428C8.64896 18.233 8.70766 18.2174 8.76245 18.1978L15.9203 33.6074V33.6055ZM80.9029 18.1959C80.9577 18.2154 81.0164 18.2311 81.0751 18.2409V33.6055H73.7451L80.9029 18.1959ZM89.3738 33.0008L82.1259 17.3975C82.3568 17.1999 82.5055 16.9063 82.5055 16.5796C82.5055 16.3408 82.4273 16.1217 82.2942 15.9436C82.9126 16.1119 82.9615 16.3154 83.3802 16.3154C83.4194 16.3154 83.4526 16.3134 83.4859 16.3095C83.4918 16.3095 83.4996 16.3095 83.5055 16.3076C83.5348 16.3036 83.5622 16.2978 83.5857 16.2919C83.5916 16.2919 83.5955 16.288 83.6013 16.288C83.6209 16.2821 83.6405 16.2743 83.6561 16.2665C83.66 16.2645 83.6659 16.2626 83.6679 16.2606C83.6855 16.2508 83.6992 16.241 83.7129 16.2293C83.7168 16.2254 83.7227 16.2215 83.7266 16.2175C83.7383 16.2058 83.7481 16.196 83.7579 16.1823C83.7814 16.1471 83.7931 16.108 83.797 16.0669V16.0591C83.797 16.0395 83.797 16.0219 83.797 16.0023C83.797 15.9984 83.797 15.9925 83.797 15.9886C83.7951 15.969 83.7912 15.9514 83.7872 15.9338C83.7872 15.9299 83.7872 15.9279 83.7853 15.924C83.7735 15.881 83.7598 15.8438 83.7442 15.8105C83.7442 15.8086 83.7422 15.8066 83.7403 15.8027C83.7344 15.789 83.7285 15.7773 83.7227 15.7675C83.7227 15.7636 83.7188 15.7616 83.7188 15.7577C83.7129 15.7479 83.709 15.7421 83.707 15.7362C83.707 15.7342 83.707 15.7323 83.7051 15.7323C83.7011 15.7264 83.6992 15.7244 83.6992 15.7244C83.2178 14.6228 80.5214 14.5954 80.5214 14.5954L45.1292 13.4702L45.1252 13.4096C45.4364 13.3156 45.6555 13.0789 45.6555 12.803C45.6555 12.4429 45.2857 12.1514 44.8278 12.1514C44.3699 12.1514 44.0001 12.4429 44.0001 12.803C44.0001 13.0808 44.2212 13.3156 44.5304 13.4096L44.5265 13.4741L9.52168 14.5954C9.52168 14.5954 6.82329 14.6228 6.34387 15.7244C6.34387 15.7244 6.34192 15.7284 6.338 15.7323C6.338 15.7323 6.338 15.7342 6.33605 15.7362C6.33213 15.7421 6.32822 15.7479 6.32431 15.7577C6.32431 15.7616 6.32039 15.7636 6.32039 15.7675C6.31452 15.7773 6.31061 15.789 6.30278 15.8027C6.30278 15.8047 6.30083 15.8066 6.29887 15.8105C6.28517 15.8438 6.26952 15.8829 6.25778 15.924C6.25778 15.9279 6.25778 15.9319 6.25582 15.9338C6.25191 15.9514 6.24799 15.969 6.24604 15.9886C6.24604 15.9925 6.24604 15.9984 6.24604 16.0023C6.24604 16.0219 6.24408 16.0414 6.24604 16.0591C6.24604 16.063 6.24604 16.0649 6.24604 16.0669C6.24995 16.108 6.26169 16.1471 6.28517 16.1823C6.293 16.1941 6.30474 16.2058 6.31648 16.2175C6.32039 16.2215 6.32431 16.2254 6.33018 16.2293C6.34387 16.241 6.35757 16.2508 6.37518 16.2606C6.3791 16.2626 6.38301 16.2645 6.38692 16.2665C6.40258 16.2743 6.42215 16.2821 6.44171 16.288C6.44758 16.288 6.4515 16.2919 6.45737 16.2919C6.48085 16.2978 6.50824 16.3036 6.5376 16.3076C6.54347 16.3076 6.55129 16.3076 6.55716 16.3095C6.59043 16.3134 6.62369 16.3154 6.66283 16.3154C6.79393 16.3154 6.88786 16.2958 6.97396 16.2626C7.03266 16.241 7.08549 16.2136 7.14615 16.1843C7.19116 16.1608 7.23812 16.1373 7.29291 16.1119C7.39271 16.0649 7.51598 16.0121 7.68231 15.9632C7.55903 16.1373 7.48663 16.3506 7.48663 16.5796C7.48663 16.9063 7.63339 17.1999 7.86625 17.3975L0.620302 33.0008H-0.00195312L0.0117443 33.0595C0.0939289 33.4196 0.209379 33.7581 0.356137 34.079C0.481371 34.3549 0.630086 34.6132 0.802282 34.8578C0.802282 34.8598 0.806196 34.8637 0.808152 34.8656C0.847288 34.9204 0.88838 34.9752 0.929473 35.028C0.939257 35.0398 0.94904 35.0535 0.958824 35.0652C0.999917 35.1161 1.04101 35.1689 1.08406 35.2179C1.08797 35.2237 1.09384 35.2276 1.09776 35.2335C1.17994 35.3294 1.268 35.4214 1.35801 35.5114C1.37366 35.527 1.38932 35.5427 1.40497 35.5583C1.44215 35.5955 1.48128 35.6307 1.52042 35.666C1.54781 35.6914 1.57717 35.7168 1.60652 35.7423C1.64174 35.7736 1.67892 35.8049 1.7161 35.8362C1.75328 35.8675 1.79045 35.8969 1.82959 35.9262C1.86286 35.9516 1.89416 35.9771 1.92743 36.0025C1.99592 36.0534 2.06832 36.1043 2.14072 36.1532C2.16616 36.1708 2.19355 36.1884 2.22095 36.206C2.27574 36.2412 2.33052 36.2765 2.38531 36.3097C2.41662 36.3293 2.44597 36.3469 2.47728 36.3645C2.53403 36.3978 2.59273 36.4311 2.65144 36.4643C2.67883 36.48 2.70623 36.4956 2.73558 36.5093C2.82363 36.5563 2.91169 36.6013 3.00366 36.6443C3.08388 36.6815 3.16607 36.7187 3.25021 36.7539C3.3187 36.7833 3.38718 36.8107 3.45763 36.84C3.47915 36.8479 3.49872 36.8576 3.52025 36.8655C3.58286 36.8909 3.64744 36.9124 3.71397 36.9379C3.74332 36.9476 3.77267 36.9594 3.80202 36.9692C3.86464 36.9907 3.92725 37.0103 3.98987 37.0318C4.02314 37.0435 4.05836 37.0553 4.09358 37.0651C4.15424 37.0846 4.21686 37.1022 4.27947 37.1198C4.31861 37.1316 4.35775 37.1433 4.39688 37.1531C4.45754 37.1707 4.5182 37.1864 4.58082 37.202C4.62387 37.2138 4.66496 37.2236 4.70801 37.2353C4.76867 37.2509 4.83129 37.2646 4.89195 37.2783C4.93695 37.2881 4.98391 37.2999 5.02892 37.3097C5.08958 37.3233 5.1522 37.3351 5.21286 37.3488C5.26178 37.3586 5.3107 37.3684 5.36157 37.3781C5.42223 37.3899 5.48485 37.3997 5.54551 37.4114C5.59834 37.4212 5.65118 37.429 5.70401 37.4368C5.76467 37.4466 5.82729 37.4564 5.8899 37.4662C5.94665 37.474 6.00144 37.4818 6.05819 37.4897C6.11884 37.4975 6.17951 37.5053 6.24212 37.5132C6.30083 37.521 6.36149 37.5269 6.42215 37.5347C6.48281 37.5405 6.54347 37.5484 6.60413 37.5542C6.6687 37.5601 6.73132 37.566 6.79785 37.5719C6.85851 37.5777 6.91721 37.5816 6.97787 37.5875C7.04636 37.5934 7.1168 37.5973 7.18529 37.6012C7.24399 37.6051 7.30074 37.609 7.35944 37.6129C7.43576 37.6169 7.51207 37.6208 7.58839 37.6247C7.64317 37.6266 7.69796 37.6306 7.75275 37.6325C7.84081 37.6364 7.92691 37.6384 8.01692 37.6403C8.06388 37.6403 8.10889 37.6443 8.15585 37.6443C8.29282 37.6462 8.4298 37.6482 8.56873 37.6482C8.70766 37.6482 8.84464 37.6482 8.98161 37.6443C9.02857 37.6443 9.07553 37.6423 9.12054 37.6403C9.2086 37.6384 9.29665 37.6364 9.38275 37.6325C9.43754 37.6325 9.49233 37.6286 9.54712 37.6247C9.62343 37.6208 9.69975 37.6188 9.77606 37.6129C9.83477 37.609 9.89347 37.6051 9.95021 37.6012C10.0207 37.5973 10.0891 37.5914 10.1576 37.5875C10.2183 37.5816 10.279 37.5777 10.3377 37.5719C10.4022 37.566 10.4668 37.5601 10.5314 37.5542C10.592 37.5484 10.6527 37.5405 10.7153 37.5347C10.776 37.5288 10.8366 37.521 10.8953 37.5132C10.958 37.5053 11.0186 37.4975 11.0793 37.4897C11.136 37.4818 11.1928 37.474 11.2476 37.4662C11.3102 37.4564 11.3708 37.4466 11.4335 37.4368C11.4863 37.429 11.5391 37.4192 11.592 37.4114C11.6546 37.3997 11.7152 37.3899 11.7778 37.3781C11.8268 37.3684 11.8776 37.3586 11.9266 37.3488C11.9892 37.337 12.0498 37.3233 12.1105 37.3097C12.1575 37.2999 12.2025 37.2901 12.2475 37.2783C12.3101 37.2646 12.3707 37.249 12.4314 37.2353C12.4745 37.2255 12.5175 37.2138 12.5586 37.202C12.6212 37.1864 12.6819 37.1707 12.7425 37.1531C12.7817 37.1433 12.8208 37.1316 12.858 37.1198C12.9206 37.1022 12.9832 37.0827 13.0439 37.0651C13.0771 37.0533 13.1124 37.0435 13.1456 37.0318C13.2082 37.0103 13.2728 36.9907 13.3335 36.9692C13.3628 36.9594 13.3922 36.9476 13.4215 36.9379C13.4861 36.9144 13.5526 36.8909 13.6153 36.8655C13.6368 36.8576 13.6564 36.8479 13.6779 36.84C13.7483 36.8126 13.8188 36.7833 13.8853 36.7559C13.9694 36.7207 14.0497 36.6835 14.1318 36.6463C14.2238 36.6033 14.3119 36.5582 14.3999 36.5113C14.4273 36.4956 14.4567 36.4819 14.4841 36.4663C14.5428 36.435 14.6015 36.4017 14.6582 36.3665C14.6895 36.3489 14.7189 36.3313 14.7502 36.3117C14.8069 36.2784 14.8598 36.2432 14.9146 36.208C14.942 36.1904 14.9674 36.1747 14.9948 36.1552C15.0672 36.1062 15.1376 36.0554 15.2081 36.0045C15.2413 35.979 15.2726 35.9536 15.3059 35.9282C15.3431 35.8988 15.3822 35.8695 15.4174 35.8382C15.4546 35.8068 15.4918 35.7755 15.527 35.7442C15.5564 35.7188 15.5838 35.6934 15.6131 35.6679C15.6523 35.6327 15.6914 35.5975 15.7286 35.5603C15.7442 35.5446 15.7599 35.529 15.7755 35.5133C15.8675 35.4233 15.9536 35.3294 16.0377 35.2335C16.0417 35.2276 16.0456 35.2237 16.0514 35.2179C16.0945 35.1689 16.1356 35.1161 16.1767 35.0652C16.1865 35.0535 16.1962 35.0417 16.2041 35.028C16.2452 34.9752 16.2863 34.9204 16.3254 34.8637C16.3254 34.8617 16.3293 34.8598 16.3313 34.8559C16.7031 34.3275 16.9692 33.7287 17.1218 33.0576L17.1355 32.9989H16.5132L9.26339 17.3975C9.49429 17.1999 9.643 16.9063 9.643 16.5796C9.643 16.2528 9.48646 15.9416 9.24382 15.744C9.46298 15.7323 9.70562 15.7244 9.97761 15.7225C10.9403 15.7107 12.995 15.7068 15.3196 15.7068C16.206 15.7068 17.1316 15.7068 18.0493 15.7068C18.2802 15.7068 37.3666 15.7068 37.5956 15.7068C37.938 15.7068 38.2785 15.7068 38.6131 15.7068C38.8362 15.7068 39.0573 15.7068 39.2764 15.7068C39.4956 15.7068 39.7108 15.7068 39.9222 15.7068C40.4525 15.7068 40.9612 15.7068 41.4348 15.7088C41.6246 15.7088 41.8085 15.7088 41.9885 15.7088C42.194 15.7088 42.3916 15.7088 42.5795 15.7088H47.2973C51.2186 15.701 77.9326 15.6892 80.0713 15.7147C80.3237 15.7186 80.5488 15.7244 80.7542 15.7342C80.5096 15.9319 80.3531 16.2332 80.3531 16.5717C80.3531 16.9102 80.4998 17.192 80.7327 17.3897L73.4848 32.993H72.8606L72.8743 33.0517C72.9565 33.4118 73.0719 33.7503 73.2187 34.0712C73.3439 34.3451 73.4926 34.6054 73.6648 34.85C73.6668 34.8539 73.6687 34.8559 73.6707 34.8578C73.7098 34.9126 73.7509 34.9674 73.792 35.0202C73.8018 35.032 73.8116 35.0457 73.8214 35.0574C73.8625 35.1083 73.9036 35.1611 73.9466 35.21C73.9505 35.2159 73.9564 35.2198 73.9603 35.2257C74.0425 35.3216 74.1305 35.4135 74.2206 35.5035C74.2362 35.5192 74.2519 35.5349 74.2675 35.5505C74.3047 35.5877 74.3438 35.6229 74.383 35.6581C74.4104 35.6836 74.4397 35.709 74.4691 35.7344C74.5043 35.7658 74.5415 35.7971 74.5786 35.8284C74.6158 35.8577 74.653 35.889 74.6921 35.9184C74.7254 35.9438 74.7567 35.9693 74.79 35.9947C74.8585 36.0456 74.9309 36.0964 75.0033 36.1454C75.0287 36.163 75.0561 36.1806 75.0835 36.1982C75.1383 36.2334 75.1931 36.2686 75.2479 36.3019C75.2792 36.3215 75.3085 36.3391 75.3398 36.3567C75.3966 36.39 75.4553 36.4232 75.514 36.4565C75.5414 36.4721 75.5688 36.4878 75.5981 36.5015C75.6862 36.5485 75.7742 36.5935 75.8662 36.6365C76.013 36.705 76.1656 36.7696 76.3202 36.8322C76.3397 36.84 76.3613 36.8498 76.3808 36.8576C76.4454 36.8831 76.51 36.9066 76.5746 36.93C76.6039 36.9398 76.6333 36.9516 76.6626 36.9613C76.7252 36.9829 76.7878 37.0024 76.8505 37.024C76.8857 37.0357 76.9189 37.0455 76.9522 37.0572C77.0129 37.0768 77.0755 37.0944 77.1381 37.112C77.1772 37.1238 77.2144 37.1355 77.2536 37.1453C77.3142 37.1629 77.3768 37.1785 77.4375 37.1942C77.4805 37.2059 77.5216 37.2157 77.5647 37.2275C77.6253 37.2431 77.688 37.2568 77.7486 37.2705C77.7936 37.2803 77.8406 37.292 77.8856 37.3018C77.9463 37.3155 78.0089 37.3273 78.0715 37.341C78.1204 37.3507 78.1693 37.3605 78.2182 37.3703C78.2789 37.382 78.3415 37.3918 78.4041 37.4036C78.457 37.4134 78.5098 37.4212 78.5626 37.429C78.5979 37.4349 78.6331 37.4408 78.6683 37.4466C78.6937 37.4505 78.7211 37.4544 78.7485 37.4584C78.8053 37.4662 78.8601 37.474 78.9168 37.4818C78.9775 37.4897 79.0401 37.4975 79.1027 37.5073C79.1614 37.5151 79.2221 37.521 79.2827 37.5288C79.3434 37.5347 79.4041 37.5425 79.4667 37.5484C79.5293 37.5542 79.5939 37.5601 79.6584 37.566C79.7191 37.5719 79.7798 37.5758 79.8404 37.5816C79.9089 37.5875 79.9774 37.5914 80.0478 37.5953C80.1065 37.5993 80.1633 37.6032 80.2239 37.6071C80.3003 37.611 80.3766 37.6149 80.4529 37.6188C80.5077 37.6208 80.5625 37.6247 80.6173 37.6266C80.7034 37.6306 80.7914 37.6325 80.8795 37.6345C80.9264 37.6345 80.9734 37.6384 81.0204 37.6384C81.1554 37.6403 81.2924 37.6423 81.4313 37.6423C81.5702 37.6423 81.7072 37.6423 81.8442 37.6384C81.8911 37.6384 81.9381 37.6364 81.985 37.6345C82.0731 37.6325 82.1612 37.6306 82.2473 37.6266C82.302 37.6266 82.3568 37.6227 82.4116 37.6188C82.4879 37.6149 82.5642 37.6129 82.6406 37.6071C82.6993 37.6032 82.758 37.5993 82.8167 37.5953C82.8852 37.5914 82.9556 37.5856 83.0241 37.5816C83.0848 37.5758 83.1454 37.5719 83.2061 37.566C83.2707 37.5601 83.3352 37.5542 83.3978 37.5484C83.4585 37.5425 83.5192 37.5347 83.5818 37.5288C83.6424 37.5229 83.7031 37.5151 83.7618 37.5073C83.8244 37.4995 83.8851 37.4916 83.9457 37.4838C84.0025 37.476 84.0592 37.4681 84.114 37.4603C84.1414 37.4564 84.1669 37.4525 84.1942 37.4486C84.2295 37.4427 84.2647 37.4368 84.2999 37.431C84.3527 37.4231 84.4056 37.4134 84.4584 37.4055C84.521 37.3938 84.5817 37.384 84.6423 37.3723C84.6913 37.3625 84.7421 37.3527 84.7911 37.3429C84.8537 37.3312 84.9143 37.3175 84.975 37.3038C85.022 37.294 85.067 37.2842 85.112 37.2725C85.1746 37.2588 85.2353 37.2431 85.2959 37.2294C85.339 37.2196 85.3801 37.2079 85.4231 37.1962C85.4857 37.1805 85.5464 37.1648 85.607 37.1472C85.6462 37.1375 85.6853 37.1257 85.7225 37.114C85.7851 37.0964 85.8477 37.0768 85.9084 37.0592C85.9436 37.0474 85.9769 37.0377 86.0101 37.0259C86.0728 37.0044 86.1373 36.9848 86.198 36.9633C86.2273 36.9535 86.2567 36.9418 86.2841 36.932C86.3487 36.9085 86.4152 36.885 86.4778 36.8596C86.4993 36.8518 86.5189 36.8439 86.5385 36.8342C86.695 36.7715 86.8476 36.707 86.9924 36.6385C87.0844 36.5954 87.1725 36.5504 87.2605 36.5035C87.2879 36.4878 87.3173 36.4741 87.3447 36.4585C87.4034 36.4271 87.4621 36.3939 87.5188 36.3587C87.5501 36.341 87.5814 36.3234 87.6108 36.3039C87.6675 36.2706 87.7204 36.2354 87.7751 36.2002C87.8025 36.1825 87.8299 36.1669 87.8554 36.1473C87.9278 36.0984 87.9982 36.0475 88.0687 35.9967C88.1019 35.9712 88.1332 35.9458 88.1665 35.9203C88.2037 35.891 88.2428 35.8616 88.278 35.8303C88.3152 35.799 88.3524 35.7677 88.3876 35.7364C88.417 35.711 88.4444 35.6855 88.4737 35.6601C88.5129 35.6249 88.552 35.5896 88.5892 35.5525C88.6048 35.5368 88.6205 35.5212 88.6361 35.5055C88.7281 35.4155 88.8162 35.3216 88.8983 35.2257C88.9023 35.2198 88.9081 35.2159 88.912 35.21C88.9551 35.1611 88.9962 35.1083 89.0373 35.0574C89.0471 35.0457 89.0568 35.0339 89.0647 35.0202C89.1058 34.9674 89.1469 34.9126 89.186 34.8578C89.186 34.8559 89.1899 34.8519 89.1919 34.85C89.3641 34.6054 89.5128 34.3471 89.638 34.0712C89.7848 33.7522 89.9002 33.4137 89.9824 33.0517L89.9961 32.993H89.3738V33.0008Z"
      fill="#BE821B" />
    <path
      d="M65.1569 10.0537C65.5952 10.5938 65.8378 10.9773 65.5932 12.1807C65.3897 13.1806 64.5718 13.4155 63.7382 13.5974C63.6697 14.5934 63.4447 15.155 62.4937 15.6286C61.3744 16.1843 60.2571 16.2802 59.267 15.4896C58.7836 15.1042 58.8502 15.2901 58.3003 15.4251C57.907 15.5229 57.1771 15.4603 56.8014 15.3644C55.7135 15.0885 54.7781 14.249 55.1323 13.075C55.1323 13.075 53.6647 13.3391 53.246 11.9166C53.246 11.9166 52.5494 9.91283 54.3965 9.41385C53.0914 8.9227 53.3555 5.67836 55.1949 5.84469C54.6705 4.65497 55.3847 3.35176 56.2555 2.5123C58.0029 0.823601 61.5349 0.958618 63.1257 2.83321C63.2373 2.96431 63.3429 3.12477 63.4388 3.30088C63.7402 3.85856 63.9417 4.58648 63.9065 5.13438C63.8771 5.59227 63.9554 5.88187 63.8536 6.28692C63.8536 6.28692 65.3702 6.05994 65.7733 7.76233C65.7733 7.76233 66.1431 9.34928 65.1608 10.0518L65.1569 10.0537Z"
      fill="#312725" />
    <path
      d="M63.1139 4.27935C63.1648 4.86051 63.1139 5.4495 62.9867 5.96609C62.8556 6.49638 62.6306 7.10298 62.3371 7.56478C61.887 8.27313 61.2863 8.88951 60.5682 9.32588C60.1807 9.56069 59.7287 8.85625 59.3334 8.77993C58.8129 8.68014 58.4724 8.4375 58.1026 8.07158C56.9657 6.94643 55.4942 5.46711 55.8817 3.71188C56.1067 2.69632 56.4589 1.89404 57.4901 1.58878C59.0751 1.1172 61.4311 1.08002 62.5406 2.55543C62.8889 3.01918 63.065 3.70797 63.1139 4.27935Z"
      fill="#312725" />
    <path
      d="M57.6592 14.9948L54.1116 23.45C54.1116 23.45 53.1371 25.3911 51.7517 24.5047C51.7517 24.5047 51.5893 24.0331 52.4874 21.1215L54.0646 14.1769C54.0646 14.1769 55.4089 10.3553 57.8334 12.3884C57.8334 12.3884 58.4302 13.3863 57.6592 14.9948Z"
      fill="#824910" />
    <path
      d="M43.4194 31.2321C43.9967 31.3417 46.8262 30.0913 46.789 29.5277C46.7244 28.5435 44.5837 28.0367 43.8753 28.0151C44.1415 28.4182 44.8205 28.4965 45.2353 28.7626C44.3841 29.1481 43.4155 29.2596 42.6484 29.6706C42.7678 30.013 43.8284 29.7077 44.2021 29.6764C43.7247 30.0013 43.1005 29.786 42.6582 30.0717C42.7737 30.3476 43.9086 30.3417 44.2608 30.0345C44.0104 30.3163 42.9263 30.5726 42.9263 30.5726C42.9048 31.0149 44.0945 30.6196 44.3234 30.5042C44.1826 30.7037 43.1102 31.0286 43.4194 31.2321Z"
      fill="#F6B5A0" />
    <path
      d="M46.6339 29.8132L46.0371 28.9953C50.387 25.0034 52.0346 22.7179 52.0346 22.7179C52.0346 22.7179 53.2439 21.7787 54.1069 23.121C54.1069 23.121 54.1147 24.7354 52.5982 25.7959C52.5982 25.7959 49.8352 28.3965 46.632 29.8132H46.6339Z"
      fill="#824910" />
    <path
      d="M42.351 29.5978C42.1553 29.7524 42.4488 29.8972 42.6993 29.8522C42.3373 29.9794 42.2179 30.4921 42.7443 30.4294C42.6327 30.7132 42.7678 30.9558 43.0808 31.0106C43.0358 31.5272 43.5172 31.4 43.8322 31.2846C44.6032 30.9989 45.3683 30.6936 46.1236 30.3707C47.284 29.8737 48.8514 28.7192 49.5773 28.1596C49.7456 27.733 48.5344 26.6059 48.4385 26.7037C47.8984 27.2438 46.9103 28.0383 46.1608 28.4414C46.1608 28.4414 44.8791 28.007 43.8146 27.8367C43.8146 27.8367 43.4526 28.0383 44.5641 28.7486C44.5641 28.7486 42.846 29.2104 42.351 29.5998V29.5978Z"
      fill="#276166" />
    <path
      d="M55.6959 21.1075C53.8918 21.1075 52.6825 20.2602 52.2402 19.5812L53.9857 14.2705C54.5903 11.9419 56.2692 11.6562 56.2692 11.6562C58.6506 12.8988 57.6116 15.9905 57.6116 15.9905C57.187 17.8768 56.4434 19.6477 55.6959 21.1075Z"
      fill="#D1781B" />
    <path
      d="M57.0519 22.726C54.8994 17.4036 55.8857 11.7876 55.8857 11.7876C57.4863 11.2554 58.1849 10.9775 58.1849 10.9775H60.6935C60.6935 10.9775 63.3958 11.7622 65.2762 12.6721L62.5876 22.7299L57.0499 22.7241L57.0519 22.726Z"
      fill="#824910" />
    <path d="M60.8752 7.05829L58.0508 7.13916L58.1707 11.3269L60.9951 11.246L60.8752 7.05829Z" fill="#824910" />
    <path
      d="M60.1719 9.36513C60.53 8.66069 60.6239 7.90146 60.6455 7.06592L58.0527 7.14028L58.1564 10.7799C58.8961 10.6233 59.808 10.0754 60.1719 9.36317V9.36513Z"
      fill="#6D3B0D" />
    <path
      d="M53.3379 64.5439C53.7743 43.1739 53.7449 35.1707 53.7449 35.1707L59.5311 35.0083C58.3609 42.7787 55.7506 59.2352 54.9053 64.5439H53.3379Z"
      fill="#F6B5A0" />
    <path
      d="M65.2787 36.7521C65.0321 30.645 65.8012 28.2636 63.77 24.2443C59.0777 25.0192 55.6044 24.1328 55.6044 24.1328C54.309 26.5944 53.2445 30.3495 53.5889 35.3295L65.2807 36.754L65.2787 36.7521Z"
      fill="#5B9572" />
    <path
      d="M59.5231 38.5564C59.5231 38.5564 60.2804 44.6635 62.4954 60.2766C62.4954 60.2766 63.4719 61.1239 65.6674 60.5917C65.5617 52.8624 65.4541 43.4836 65.4541 43.4836L65.276 36.7542C65.276 36.7542 57.6387 30.7293 59.5211 38.5564H59.5231Z"
      fill="#5B9572" />
    <path
      d="M52.6017 65.407C52.6056 66.7337 55.2198 65.5499 55.2198 65.5499C56.4996 57.5897 57.7558 48.0211 57.7558 48.0211L60.3975 34.6504C59.7263 31.1517 53.537 31.8953 53.537 31.8953C53.537 31.8953 52.5469 39.3251 52.5997 65.407H52.6017Z"
      fill="#5B9572" />
    <path
      d="M59.2601 30.6428C59.2934 31.7405 59.313 31.9558 59.3443 32.3843C59.3756 32.8128 59.4186 33.4507 59.5008 35.3762C59.5654 36.8927 59.9254 38.7771 60.264 43.4459C60.2679 43.4988 60.2268 43.5457 60.1739 43.5497C60.1211 43.5536 60.0741 43.5125 60.0702 43.4596C59.7337 38.7947 59.3717 36.924 59.3071 35.384C59.2249 33.4586 59.1819 32.8246 59.1506 32.398C59.1192 31.9695 59.0997 31.7464 59.0664 30.6486C59.0664 30.5958 59.1075 30.5508 59.1603 30.5488C59.2132 30.5488 59.2582 30.5899 59.2601 30.6428Z"
      fill="#15182C" />
    <path
      d="M62.1031 6.04844C62.1247 6.56698 61.8507 7.16184 61.3889 7.38883C60.7628 7.698 60.5045 7.12271 60.4908 6.55328C60.479 6.0954 60.661 5.30095 61.1756 5.12484C61.6609 4.95851 62.0875 5.62186 62.1031 6.04648V6.04844Z"
      fill="#824910" />
    <path
      d="M60.8388 7.49027C60.5609 8.24559 60.1696 8.8698 59.4749 9.31986C58.7959 9.76013 58.0895 9.99495 57.4105 9.4627C56.8704 9.04004 56.5104 8.40996 56.303 7.77205C55.8216 6.30447 56.1092 4.24985 57.0191 3.03469C58.0191 1.70017 60.0189 1.94085 60.827 3.38104C61.4845 4.55315 61.2888 6.26924 60.8388 7.48832V7.49027Z"
      fill="#824910" />
    <path
      d="M61.6258 5.7429C61.5554 5.78204 61.4947 5.85444 61.4497 5.96011C61.4067 6.06382 61.3812 6.19688 61.3812 6.34755C61.3812 6.49822 61.4047 6.65085 61.4536 6.81522C61.4693 6.86609 61.4399 6.92088 61.3891 6.93654C61.3382 6.95219 61.2834 6.92284 61.2677 6.87196C61.2129 6.69194 61.1855 6.51387 61.1855 6.34755C61.1855 6.17731 61.2129 6.01881 61.2697 5.88379C61.3264 5.75073 61.4125 5.6392 61.5299 5.57266C61.5769 5.54723 61.6356 5.56288 61.663 5.60984C61.6884 5.65681 61.6728 5.71551 61.6258 5.7429Z"
      fill="#6D3B0D" />
    <path
      d="M61.7808 6.1948C61.7084 6.16545 61.6047 6.13806 61.5186 6.13806C61.4599 6.13806 61.4109 6.1498 61.3816 6.17132C61.3366 6.20067 61.2759 6.18893 61.2466 6.14393C61.2172 6.09892 61.229 6.03826 61.274 6.00891C61.3503 5.95999 61.4364 5.94434 61.5186 5.94434C61.6418 5.94434 61.7612 5.9776 61.8551 6.01478C61.904 6.03435 61.9295 6.09109 61.908 6.14001C61.8884 6.18893 61.8316 6.21437 61.7808 6.19285V6.1948Z"
      fill="#6D3B0D" />
    <path
      d="M60.5141 6.19515C60.8487 6.09731 60.9759 5.94859 61.0405 5.77248C61.06 5.50636 61.2322 5.2735 61.5473 5.25394C61.7723 5.24024 61.9973 5.57485 62.0678 5.79988C62.0756 5.56115 62.0619 5.21676 62.058 4.96238C62.0541 4.71974 62.0325 4.46144 61.9954 4.21293C61.9112 3.63568 61.8564 3.32064 61.5649 2.78448C61.2518 2.20919 60.7763 1.76892 60.1149 1.6202C59.3165 1.44213 58.0153 1.31494 57.3539 1.82175C57.0154 2.082 57.305 2.13679 57.3852 3.22476C57.3852 3.22476 60.4749 2.39117 60.5121 6.1971L60.5141 6.19515Z"
      fill="#312725" />
    <path
      d="M56.1793 5.07781C55.7332 4.11312 55.5336 2.46356 57.3221 1.75912C57.7604 1.58496 58.8405 1.4519 59.2104 1.83739C60.0303 2.68858 58.2535 3.08777 57.7761 3.15038C57.0149 3.25018 56.5022 3.47325 56.1774 5.07977L56.1793 5.07781Z"
      fill="#78532A" />
    <path
      d="M57.2373 5.83708C57.2314 6.00145 57.1473 6.13255 57.0475 6.12864C56.9497 6.12472 56.8734 5.98971 56.8792 5.82534C56.8851 5.66097 56.9692 5.52986 57.0671 5.53378C57.1669 5.53769 57.2412 5.67271 57.2354 5.83708H57.2373Z"
      fill="#21263D" />
    <path
      d="M59.3779 5.90739C59.3721 6.07176 59.2879 6.20286 59.1901 6.19895C59.0903 6.19504 59.0159 6.06002 59.0218 5.89565C59.0257 5.73128 59.1099 5.60018 59.2097 5.60409C59.3095 5.608 59.3838 5.74302 59.3799 5.90739H59.3779Z"
      fill="#21263D" />
    <path
      d="M58.1461 5.70583C58.107 5.98956 58.0776 6.16372 58.0424 6.28895C58.0092 6.41223 57.9622 6.49441 57.9015 6.55899C57.882 6.58051 57.8644 6.58834 57.8467 6.60008C57.7822 6.63726 57.6863 6.67444 57.6021 6.71553C57.5611 6.7351 57.5219 6.75466 57.4984 6.77032L57.475 6.78793L57.4397 6.75858L57.4847 6.77032L57.475 6.78989L57.4397 6.75858L57.4847 6.77032V6.78597C57.4808 6.81532 57.5063 6.87403 57.5787 6.92882C57.6511 6.98361 57.7665 7.03448 57.925 7.05209C57.9778 7.05796 58.017 7.10493 58.0111 7.15972C58.0052 7.21255 57.9563 7.25169 57.9035 7.24581C57.7137 7.22429 57.565 7.16559 57.4593 7.0834C57.3556 7.00318 57.2891 6.89947 57.2871 6.78793C57.2871 6.76445 57.291 6.74097 57.2969 6.71944C57.3106 6.67835 57.3302 6.65878 57.3497 6.64313C57.383 6.61378 57.4221 6.59225 57.4652 6.57073C57.5298 6.53746 57.6021 6.50615 57.6628 6.47876C57.6922 6.46506 57.7196 6.45332 57.7391 6.44158L57.7606 6.42984H57.7646L57.7822 6.44941L57.7626 6.42984L57.7665 6.42593L57.7841 6.44745L57.7646 6.42788C57.8057 6.38288 57.8291 6.3457 57.8604 6.23807C57.8898 6.13241 57.9211 5.96021 57.9583 5.68039C57.9661 5.62756 58.015 5.59038 58.0679 5.59821C58.1207 5.60604 58.1579 5.65496 58.15 5.70779L58.1461 5.70583Z"
      fill="#312725" />
    <path
      d="M59.7011 6.61982C59.6971 6.73723 59.4799 6.82528 59.2138 6.8155C58.9497 6.80767 58.7383 6.70396 58.7422 6.58851C58.7462 6.4711 58.9634 6.38305 59.2295 6.39283C59.4936 6.40066 59.7069 6.50241 59.703 6.61982H59.7011Z"
      fill="#6D3B0D" />
    <path
      d="M57.3378 6.54365C57.3339 6.66106 57.1167 6.74911 56.8525 6.73933C56.5883 6.72954 56.375 6.62779 56.379 6.51039C56.3829 6.39298 56.6001 6.30492 56.8662 6.31471C57.1304 6.32253 57.3437 6.42429 57.3397 6.54169L57.3378 6.54365Z"
      fill="#6D3B0D" />
    <path
      d="M59.5337 5.38113C59.5122 5.35374 59.4652 5.32047 59.4026 5.29699C59.34 5.27351 59.2617 5.25981 59.1854 5.25981C59.066 5.25981 58.9506 5.29308 58.8782 5.34983C58.8155 5.39875 58.7236 5.387 58.6747 5.32439C58.6257 5.25981 58.6375 5.1698 58.702 5.12088C58.8429 5.01326 59.0171 4.97217 59.1873 4.97217C59.2989 4.97217 59.4065 4.98978 59.5063 5.02696C59.6061 5.06414 59.6961 5.11893 59.7626 5.20307C59.8115 5.26568 59.8018 5.35765 59.7391 5.40657C59.6765 5.45549 59.5846 5.44571 59.5356 5.38309L59.5337 5.38113Z"
      fill="#312725" />
    <path
      d="M57.3805 5.35766C57.359 5.33418 57.3198 5.30874 57.265 5.28917C57.2103 5.27156 57.1437 5.25982 57.0772 5.25982C56.9402 5.25982 56.8013 5.30287 56.725 5.37527C56.6663 5.4281 56.5743 5.42419 56.5195 5.36548C56.4667 5.30678 56.4706 5.21481 56.5293 5.16002C56.6819 5.025 56.8835 4.97217 57.0752 4.97021C57.1731 4.97021 57.269 4.98391 57.357 5.01522C57.4451 5.04457 57.5273 5.09153 57.5918 5.16198C57.6466 5.22068 57.6427 5.31265 57.584 5.36744C57.5253 5.42223 57.4333 5.41832 57.3785 5.35961L57.3805 5.35766Z"
      fill="#312725" />
    <path
      d="M59.1584 7.30462C59.0488 7.61184 58.7631 7.86035 58.3972 7.86035C58.3228 7.86035 58.2465 7.85056 58.1663 7.82708C58.1154 7.81338 58.0841 7.75859 58.0998 7.70772C58.1135 7.65684 58.1682 7.62553 58.2191 7.64119C58.2817 7.6588 58.3404 7.66663 58.3972 7.66663C58.6711 7.66663 58.8903 7.47878 58.9764 7.24005C58.994 7.18917 59.0507 7.16373 59.0997 7.18135C59.1505 7.19896 59.176 7.2557 59.1584 7.30462Z"
      fill="#312725" />
    <path
      d="M57.7152 11.13L55.8875 11.7875C55.8875 11.7875 55.6312 13.9614 54.4493 16.11C54.0384 17.9963 55.2888 18.2742 55.5705 23.8099C55.6547 25.4418 62.0475 24.9174 63.0904 24.0917C63.4427 23.8138 64.2078 18.824 64.3173 18.4385C64.5482 17.6206 63.7636 17.4817 63.3213 15.8869C63.0493 14.9105 62.9946 13.3372 64.2997 12.0536L61.3274 11.0771C61.3274 11.0771 60.9986 12.4723 59.0673 12.4723C59.0673 12.4723 57.0323 12.4723 57.7171 11.128L57.7152 11.13Z"
      fill="#D1781B" />
    <path
      d="M66.642 14.7577L68.4422 22.4929C68.4422 22.4929 68.7886 24.297 68.1507 24.434C68.1507 24.434 66.4444 25.2891 65.4562 22.0506L63.3174 15.8848C63.3174 15.8848 62.0534 11.6778 65.1548 12.6072C65.1548 12.6072 66.2428 13.0162 66.64 14.7558L66.642 14.7577Z"
      fill="#824910" />
    <path
      d="M64.9704 36.5718C65.7981 35.7343 65.8549 33.0085 65.3344 32.7854C64.9743 32.6309 63.6202 33.2825 63.0352 33.709C63.0449 33.9536 63.0508 34.071 64.1368 33.8421C64.1172 34.7755 63.3013 35.5445 63.3424 36.4133C63.7024 36.4524 64.217 35.5308 64.3501 35.1805C64.311 35.4917 63.5478 36.2646 63.6163 36.789C63.9137 36.8047 64.8237 35.7323 64.6984 35.2823C64.8452 35.6306 64.0742 36.8418 64.0742 36.8418C64.4636 37.0532 65.1543 35.6854 65.1485 35.4271C65.2678 35.6404 64.6514 36.7597 64.9684 36.5679L64.9704 36.5718Z"
      fill="#F6B5A0" />
    <path
      d="M64.8106 32.8309L65.6109 33.3024C68.0608 28.5396 68.7554 24.4363 68.7554 24.4363C68.7398 23.1115 68.2799 21.7927 68.2799 21.7927C66.6362 21.1646 65.8007 22.4012 65.8007 22.4012C65.8007 22.4012 66.5462 26.7727 64.8086 32.8328L64.8106 32.8309Z"
      fill="#824910" />
    <path
      d="M63.1056 11.6564L62.1038 11.3296L61.2506 15.2118H56.6248L56.8557 11.4587L55.8871 11.7875C55.8871 11.7875 55.6307 13.9615 54.4489 16.11C54.0458 17.9572 55.2883 18.2742 55.5701 23.8099C55.6542 25.4419 63.0058 25.2305 63.5342 24.0095C63.769 23.4655 64.7024 19.1293 64.81 18.7438C64.81 18.7438 62.5969 17.5247 62.7143 13.938L63.1056 11.6564Z"
      fill="#5B9572" />
    <path d="M54.8984 19.0571H64.8114V23.5518L65.2008 29.8135H53.8926L54.8984 23.8004V19.0571Z" fill="#5B9572" />
    <path
      d="M64.8099 21.1075L62.7729 15.1158C62.7729 15.1158 62.3287 12.5896 63.7141 11.9185C63.7141 11.9185 66.0427 12.2061 66.708 14.1942L68.5356 18.9315C68.5356 18.9315 68.0914 20.9822 64.8079 21.1075H64.8099Z"
      fill="#D1781B" />
    <path
      d="M64.4324 27.9406C64.1878 28.0932 63.8591 28.2028 63.4795 28.285C62.3387 28.5316 60.7302 28.5355 59.7049 28.5355H59.5914C58.9437 28.5355 58.0025 28.4983 57.0691 28.377C56.1357 28.2557 55.2141 28.0561 54.5977 27.7175C54.5507 27.6921 54.5331 27.6334 54.5585 27.5864C54.584 27.5395 54.6427 27.5219 54.6896 27.5473C55.2649 27.8643 56.1729 28.0678 57.0926 28.1852C58.0142 28.3046 58.9495 28.3418 59.5894 28.3418H59.7029C60.3858 28.3418 61.3251 28.3398 62.2056 28.2674C62.6459 28.2302 63.0705 28.1774 63.4384 28.0972C63.8063 28.0169 64.1193 27.9113 64.3307 27.7782C64.3757 27.7488 64.4363 27.7625 64.4637 27.8076C64.4911 27.8526 64.4794 27.9132 64.4344 27.9406H64.4324Z"
      fill="#15182C" />
    <path
      d="M56.4592 21.6554V21.5595H61.5507V16.5541H56.555V21.6554H56.4592H56.3633V16.4582C56.3633 16.4327 56.3731 16.4073 56.3907 16.3897C56.4083 16.3721 56.4337 16.3623 56.4592 16.3623H61.6466C61.672 16.3623 61.6975 16.3721 61.7151 16.3897C61.7327 16.4073 61.7425 16.4327 61.7425 16.4582V21.6554C61.7425 21.6808 61.7327 21.7063 61.7151 21.7239C61.6975 21.7415 61.672 21.7532 61.6466 21.7532H56.4592C56.4337 21.7532 56.4083 21.7434 56.3907 21.7239C56.3731 21.7063 56.3633 21.6808 56.3633 21.6554H56.4592Z"
      fill="#E4C12D" />
    <path
      d="M60.9131 17.2196H57.3185C57.2657 17.2196 57.2227 17.1765 57.2227 17.1237C57.2227 17.0709 57.2657 17.0278 57.3185 17.0278H60.9131C60.966 17.0278 61.009 17.0709 61.009 17.1237C61.009 17.1765 60.966 17.2196 60.9131 17.2196Z"
      fill="#171A2E" />
    <path
      d="M62.4652 36.0103C62.4104 36.2549 62.7294 36.1806 62.8957 35.9888C62.6942 36.3156 62.927 36.7891 63.2949 36.4076C63.3869 36.6972 63.7978 37.0005 64.0757 36.8459C64.3653 37.2744 65.0306 36.8302 65.2008 36.5406C65.7702 35.574 65.7722 35.1689 65.9796 34.3158C66.2809 33.0908 66.9521 31.226 67.1615 30.3337C67.0245 29.8974 65.373 29.7858 65.3593 29.9228C65.281 30.684 65.0169 31.9207 64.6881 32.7073C64.6881 32.7073 63.4201 33.1789 62.4868 33.7189C62.4868 33.7189 62.3322 34.1044 63.6432 33.9538C63.6432 33.9538 62.6022 35.3959 62.4633 36.0103H62.4652Z"
      fill="#276166" />
    <path
      d="M56.8907 67.5262L56.6148 64.7065L58.5931 54.2534L51.7972 54.2456L52.171 64.1997L48.4766 66.0587C48.4766 66.0587 47.551 66.3209 47.4277 67.4186L56.8927 67.4225"
      fill="#606B7D" />
    <path d="M47.6958 66.665H56.8066L56.8809 67.4223L47.4277 67.4184C47.4649 67.1014 47.5667 66.8548 47.6958 66.665Z"
      fill="#434E5E" />
    <path
      d="M67.2085 67.268C67.2085 67.268 64.6608 68.3951 61.6023 67.268C61.6023 67.268 61.3636 66.8844 62.2363 65.2838C63.0151 63.8573 62.7764 62.5404 62.7764 62.5404L61.1816 54.2437H66.9072L66.1205 62.5404L67.2046 67.268H67.2085Z"
      fill="#606B7D" />
    <path
      d="M61.6363 66.6709C61.5169 67.1268 61.6011 67.2677 61.6011 67.2677C64.6576 68.3948 67.2072 67.2677 67.2072 67.2677L67.0703 66.6709C67.0703 66.6709 65.1233 67.6121 61.6363 66.6709Z"
      fill="#434E5E" />
    <path
      d="M67.5781 4.17765C67.5272 4.80773 63.8015 5.01906 59.2559 4.64728C54.7104 4.27549 51.0688 3.46343 51.1197 2.83334C51.1705 2.20131 54.8982 1.99193 59.4418 2.36176C63.9855 2.73355 67.629 3.54561 67.5762 4.17765H67.5781Z"
      fill="#F6AC60" />
    <path
      d="M62.9565 2.86652C62.7002 1.36371 61.3657 0.152468 59.6594 0.0115804C57.9022 -0.131264 56.3485 0.913655 55.9004 2.42624C55.9004 2.42624 56.4072 3.0935 59.3893 3.27157C59.3893 3.27157 61.892 3.45942 62.9565 2.86652Z"
      fill="#E79157" />
    <path
      d="M34.3344 3.43798C34.6475 6.15399 33.2523 8.56474 30.2995 8.90717C27.3467 9.24765 25.6717 7.27131 25.3567 4.5553C25.0436 1.83929 26.4779 0.696536 29.4307 0.356057C32.3835 0.0155779 34.0193 0.723931 34.3344 3.43798Z"
      fill="#A45F2B" />
    <path
      d="M30.4932 10.3375C25.7109 10.8796 21.6192 9.4159 21.3551 7.06777C21.1555 5.28319 23.2257 3.50056 26.3351 2.51239C27.3135 2.20126 28.3936 1.96841 29.5383 1.83926C31.8121 1.58097 33.9293 1.77664 35.5515 2.30497C37.3439 2.88809 38.5356 3.87627 38.6745 5.10708C38.9387 7.45325 35.2736 9.79552 30.4913 10.3375H30.4932Z"
      fill="#C07332" />
    <path
      d="M33.9653 5.52582C33.9653 5.52582 34.0632 7.63522 33.392 8.09311C32.7208 8.551 32.6562 5.03467 32.6562 5.03467L33.9653 5.52582Z"
      fill="#312725" />
    <path
      d="M30.0437 49.1463C30.0535 49.2911 30.0515 49.432 30.0359 49.571L29.7521 64.0785L26.0441 64.2214L25.4727 49.5162C25.4727 49.5044 25.4707 49.4927 25.4688 49.479C25.4648 49.4144 25.4629 49.3479 25.4629 49.2853C25.4766 48.1053 26.3924 47.1133 27.5899 47.0252C28.854 46.9332 29.9517 47.8823 30.0437 49.1463Z"
      fill="#276166" />
    <path
      d="M39.4458 49.3536L37.6358 63.7496C37.6358 63.7496 37.6358 63.7535 37.6358 63.7555C37.6339 63.7535 37.6319 63.7516 37.6319 63.7516L33.9375 63.5089H33.9336C33.9336 63.5089 33.9336 63.507 33.9336 63.505L34.9139 48.8175C34.9139 48.8057 34.9139 48.792 34.9139 48.7803C34.9139 48.7509 34.9159 48.7235 34.9179 48.6942C34.9198 48.657 34.9237 48.6218 34.9276 48.5866C35.0646 47.4145 36.0802 46.5241 37.2797 46.5633C38.5457 46.6043 39.5378 47.6649 39.4967 48.931C39.4928 49.0758 39.4732 49.2166 39.4439 49.3536H39.4458Z"
      fill="#276166" />
    <path
      d="M50.534 23.5636C50.2248 22.9902 46.9727 23.9314 46.9727 23.9314L47.1175 26.1074C47.1175 26.1074 51.4419 27.6278 52.1249 26.2894L50.534 23.5636Z"
      fill="#824910" />
    <path
      d="M47.6738 26.4537C47.6738 26.4537 39.5982 27.2384 37.704 26.7785C35.8099 26.3187 36.2423 23.5459 39.4514 23.3326C42.6625 23.1193 47.6269 23.5029 47.6269 23.5029C47.6269 23.5029 47.7697 25.988 47.6738 26.4537Z"
      fill="#D1781B" />
    <path
      d="M34.7019 13.1962C34.7019 13.1962 32.7431 15.6344 33.9798 19.5832C35.2165 23.5319 36.3279 26.7626 37.9188 26.8135C39.5097 26.8624 40.0399 25.4672 38.8815 21.8824C37.7231 18.2976 36.4688 12.9223 34.7019 13.1982V13.1962Z"
      fill="#D1781B" />
    <path
      d="M30.5308 32.1518C28.0202 32.095 25.4608 31.1382 24.9735 30.1911C24.9735 30.1911 24.9853 27.5729 24.9735 24.5204C24.9598 20.8201 24.9129 16.4839 24.772 15.4018C24.5156 13.4274 24.3591 13.1808 25.1359 12.8775C25.3844 12.7797 25.7895 12.6643 26.2689 12.5449C26.4705 12.494 26.6857 12.4451 26.9088 12.3942C27.0692 12.359 27.2316 12.3218 27.396 12.2886C28.5446 12.0459 29.7735 11.8365 30.3507 11.7974C30.791 11.7681 31.6559 11.9598 32.5365 12.2201C32.6167 12.2435 32.6969 12.267 32.7752 12.2925C33.1665 12.4118 33.552 12.5429 33.8984 12.6682C34.5598 12.9108 35.0725 13.1398 35.1899 13.2611C35.3718 13.4528 35.7965 17.2607 36.1956 21.2232C36.6203 25.4361 37.0136 29.8252 37.0547 30.2283C37.0997 30.6725 33.779 32.2222 30.5288 32.1498L30.5308 32.1518Z"
      fill="#E98D41" />
    <path
      d="M31.4819 9.85995V12.5133C31.4819 12.8401 31.2941 13.1317 30.9966 13.3332C30.7442 13.5035 30.4135 13.6052 30.0495 13.6052C29.7521 13.6052 29.4782 13.5367 29.2492 13.4193C28.8677 13.2236 28.6172 12.891 28.6172 12.5133V9.85995C28.6172 9.57426 28.76 9.31401 28.9948 9.12029C29.2571 8.90308 29.6308 8.76807 30.0476 8.76807C30.2217 8.76807 30.3861 8.79155 30.5407 8.8346C30.6953 8.87765 30.8362 8.94026 30.9594 9.01853C31.2764 9.21812 31.48 9.52143 31.48 9.85995H31.4819Z"
      fill="#824910" />
    <path
      d="M31.4819 10.9479V12.4742C30.0124 12.6797 29.0731 11.9987 28.6191 11.533V10.7386L29.3882 9.80908C29.3882 9.80908 30.5916 10.3492 31.4839 10.946L31.4819 10.9479Z"
      fill="#6D3B0D" />
    <path
      d="M30.5708 11.5978C28.702 11.5978 27.1855 10.0832 27.1855 8.21256V3.4165H33.4922V8.67632C33.4922 9.58818 33.0735 10.4022 32.4199 10.9384C31.917 11.3512 31.2733 11.5978 30.5708 11.5978Z"
      fill="#824910" />
    <path
      d="M27.2245 8.49026C27.2245 8.49026 28.9778 9.07533 27.9133 5.38289C27.1306 2.66493 24.4909 3.76464 27.2245 8.49026Z"
      fill="#312725" />
    <path
      d="M27.4769 9.1228C27.9553 8.90329 28.1267 8.25397 27.8599 7.6725C27.5931 7.09103 26.989 6.79759 26.5106 7.0171C26.0323 7.23661 25.8608 7.88593 26.1277 8.4674C26.3945 9.04887 26.9986 9.3423 27.4769 9.1228Z"
      fill="#824910" />
    <path
      d="M24.9879 12.9341C24.9879 12.9341 26.6883 15.5738 25.4497 19.5225C24.213 23.4713 23.1015 26.702 21.5107 26.7528C19.9198 26.8018 19.3895 25.4066 20.5479 21.8218C21.7064 18.2369 23.2033 13.2119 24.9859 12.9341H24.9879Z"
      fill="#D1781B" />
    <path
      d="M30.5319 32.1519C28.0213 32.0951 25.4618 31.1383 24.9746 30.1912C24.9746 30.1912 24.9864 27.573 24.9746 24.5204C25.5206 24.0567 27.7395 21.8827 27.6123 17.2804L34.6959 16.9731C34.6959 16.9731 35.7114 19.3115 36.1987 21.2233C36.6233 25.4362 37.0166 29.8253 37.0577 30.2284C37.1027 30.6725 33.7821 32.2223 30.5319 32.1499V32.1519Z"
      fill="#5B9572" />
    <path
      d="M34.7228 17.8694L34.4508 18.0416C34.4117 18.0671 33.4607 18.6639 32.3062 19.1746C31.2163 19.656 30.3279 19.8966 29.6234 19.8966C29.238 19.8966 28.9073 19.8242 28.6294 19.6814C28.2498 19.4857 27.786 19.0611 27.7312 18.1453C27.5825 15.6485 26.5533 13.1829 26.2715 12.547C26.473 12.4961 26.6883 12.4472 26.9113 12.3963C27.0718 12.3611 27.2342 12.3239 27.3986 12.2907C27.7919 13.2064 28.7175 15.5937 28.8642 18.0788C28.8916 18.5426 29.0775 18.6365 29.1479 18.6737C29.3554 18.7793 30.0324 18.9417 31.8463 18.1395C32.5664 17.8205 33.2141 17.4585 33.5644 17.253C33.5135 16.3314 33.3257 13.5508 32.539 12.2241C32.6193 12.2476 32.6995 12.2711 32.7778 12.2965C33.1691 12.4159 33.5546 12.547 33.901 12.6722C34.1651 13.3786 34.3725 14.269 34.5193 15.3295C34.6856 16.5329 34.713 17.5094 34.713 17.5505L34.7208 17.8733L34.7228 17.8694Z"
      fill="#5B9572" />
    <path
      d="M31.3586 67.3873C31.1336 67.8374 25.9638 67.9626 25.3142 67.3619C25.1361 67.1975 25.0989 66.812 25.1361 66.3404C25.232 65.1174 25.8386 63.3152 25.8386 63.3152L30.0456 63.1528C30.0456 63.1528 30.9184 65.2975 31.253 66.5498C31.3626 66.9607 31.4154 67.2738 31.3586 67.3853V67.3873Z"
      fill="#606B7D" />
    <path
      d="M42.049 67.0312C42.0197 67.2778 41.9277 67.4637 41.8279 67.5185C41.4894 67.7063 33.6466 66.9647 33.3707 66.679C33.3081 66.6145 33.2905 66.3522 33.3022 65.9883C33.3414 64.7516 33.7092 62.3232 33.7092 62.3232L38.0826 62.65C38.0826 62.65 38.8223 64.777 40.3779 65.1332C41.8279 65.4639 42.1195 66.4305 42.0471 67.0312H42.049Z"
      fill="#606B7D" />
    <path
      d="M25.8476 63.3174C25.8476 63.3174 24.8555 55.5666 24.8555 54.4121C24.8555 53.2576 30.3344 53.4024 30.6593 53.7821C30.9841 54.1597 30.0468 63.155 30.0468 63.155L28.2974 65.7145L25.8456 63.3174H25.8476Z"
      fill="#606B7D" />
    <path
      d="M33.7051 62.3273C33.7051 62.3273 33.5799 54.4493 33.8304 53.8017C34.0828 53.152 39.4894 53.9993 40.049 54.3789C40.6086 54.7566 38.0844 62.6522 38.0844 62.6522C38.0844 62.6522 36.4446 64.3095 36.2646 64.3643C36.0846 64.4191 33.7051 62.3273 33.7051 62.3273Z"
      fill="#606B7D" />
    <path
      d="M42.049 67.0312C42.0197 67.2778 41.9277 67.4637 41.8279 67.5185C41.4894 67.7063 33.6466 66.9647 33.3707 66.679C33.3081 66.6144 33.2905 66.3522 33.3022 65.9883L42.0471 67.0312H42.049Z"
      fill="#434E5E" />
    <path
      d="M31.3586 67.3872C31.1336 67.8373 25.9638 67.9625 25.3142 67.3618C25.1361 67.1974 25.0989 66.8119 25.1361 66.3403C25.4942 66.5419 26.3767 66.9156 27.9362 66.9019C29.6093 66.8882 30.8147 66.6495 31.253 66.5497C31.3626 66.9606 31.4154 67.2737 31.3586 67.3853V67.3872Z"
      fill="#434E5E" />
    <path
      d="M26.6749 4.26749C26.6749 4.26749 26.7513 4.75473 27.1446 4.71755C27.5144 4.68233 28.1367 4.53752 28.712 4.98758C30.3087 6.23601 32.8036 6.19491 33.9581 5.52765C33.9581 5.52765 35.0206 3.23822 33.0932 2.57096C31.1638 1.9037 26.1525 2.39094 26.6769 4.26553L26.6749 4.26749Z"
      fill="#312725" />
    <path
      d="M34.011 5.61972C33.287 4.69025 31.698 4.08952 30.027 4.3165C28.1641 4.56893 26.72 5.66668 26.4539 6.92097L26.4421 7.02664L25 5.69212C25 5.69212 25.5577 4.05429 26.3345 2.94872C27.3129 2.63954 28.3931 2.40669 29.5378 2.27754C31.8115 2.0212 33.9288 2.21688 35.5509 2.7413C35.5549 2.75695 35.5568 2.77261 35.5607 2.79022C35.8132 4.30476 34.011 5.61972 34.011 5.61972Z"
      fill="#C07332" />
    <path
      d="M27.4511 7.86019C27.592 8.1674 27.502 8.50984 27.2495 8.62529C26.9971 8.74074 26.6782 8.58615 26.5373 8.27894C26.3964 7.97173 26.4864 7.62929 26.7388 7.51384C26.9912 7.39839 27.3102 7.55298 27.4511 7.86019Z"
      fill="#6D3B0D" />
    <path
      d="M36.9465 29.9858C36.4358 28.2482 34.6101 27.2541 32.8725 27.7648C31.1349 28.2756 30.1408 30.1012 30.6516 31.8389L35.0034 49.3383C35.0171 49.4009 35.0328 49.4635 35.0504 49.5281C35.4085 50.7433 36.6824 51.4379 37.8975 51.0798C39.1127 50.7218 39.8073 49.4479 39.4492 48.2327L37.0796 30.9622C37.0835 30.6394 37.0404 30.3106 36.9465 29.9858Z"
      fill="#5B9572" />
    <path
      d="M31.4646 30.7837C31.3335 28.9756 29.7622 27.6176 27.9541 27.7507C26.1461 27.8818 24.788 29.4531 24.9211 31.2612L25.4631 49.287C25.4631 49.3516 25.4631 49.4161 25.469 49.4807C25.561 50.7448 26.6607 51.6938 27.9228 51.6019C29.1869 51.5099 30.1359 50.4102 30.044 49.1481L31.3883 31.768C31.4607 31.4549 31.4881 31.1242 31.4646 30.7857V30.7837Z"
      fill="#5B9572" />
    <path
      d="M30.8797 16.0218C30.8444 16.0218 30.8112 16.0198 30.776 16.014C30.3337 15.9435 29.7839 15.4406 29.099 14.4779C28.5765 13.7441 27.9758 12.7442 27.3105 11.5055C26.1834 9.40006 25.252 7.30239 25.2422 7.28087L25.5729 7.13411C25.5827 7.15563 26.5082 9.24351 27.6295 11.3373C29.5706 14.9612 30.4707 15.6011 30.8327 15.6578C31.001 15.6852 31.3669 15.5639 31.9226 14.4485C32.2885 13.7147 32.674 12.6679 33.0732 11.3392C33.7542 9.06545 34.2336 6.72514 34.2395 6.70166L34.5936 6.77406C34.5897 6.79754 34.1064 9.15155 33.4215 11.441C33.0184 12.7912 32.6232 13.8576 32.2494 14.609C31.7778 15.558 31.3297 16.0218 30.8816 16.0218H30.8797Z"
      fill="#C07332" />
    <path
      d="M32.1853 24.6379L32.154 24.6418C30.5749 24.8277 29.1641 23.8043 29.1641 22.4697V19.7283L34.3084 19.3213L34.4395 22.3876C34.4885 23.5088 33.514 24.4813 32.1853 24.6379Z"
      fill="#276166" />
    <path
      d="M23.2818 33.9404C23.2818 33.9404 23.0568 38.5192 24.5341 38.7912C26.0115 39.0632 25.8706 36.1163 25.8706 36.1163C25.8706 36.1163 26.2326 36.9499 26.6944 36.4901C27.1562 36.0302 25.3286 33.1812 25.3286 33.1812L23.2838 33.9404H23.2818Z"
      fill="#824910" />
    <path
      d="M23.1101 34.5725C23.1101 34.5725 20.0594 27.0545 19.9596 25.1075C19.8599 23.1605 22.6424 22.7848 23.7597 25.8022C24.877 28.8195 25.9259 33.688 25.9259 33.688C25.9259 33.688 23.5836 34.5333 23.1101 34.5725Z"
      fill="#D1781B" />
    <path
      d="M30.9966 10.5118C30.7051 10.5118 30.4351 10.4198 30.2159 10.2613C29.8754 10.0167 29.6523 9.61754 29.6523 9.16748H32.3233V9.18705C32.3233 9.91888 31.7285 10.5137 30.9966 10.5137V10.5118Z"
      fill="#312725" />
    <path
      d="M31.6906 9.57452H30.2739C30.2054 9.57452 30.1448 9.54712 30.0997 9.50212C30.0547 9.45711 30.0254 9.39449 30.0254 9.32601V9.15381H31.9939V9.27122C31.9939 9.34949 31.9646 9.42189 31.9156 9.47472C31.8608 9.53538 31.7806 9.57452 31.6906 9.57452Z"
      fill="white" />
    <path
      d="M31.9902 7.35368C31.9961 7.51805 32.0802 7.64915 32.18 7.64524C32.2779 7.64133 32.3542 7.50631 32.3483 7.34194C32.3425 7.17757 32.2583 7.04646 32.1605 7.05038C32.0607 7.05429 31.9863 7.18931 31.9922 7.35368H31.9902Z"
      fill="#21263D" />
    <path
      d="M29.8498 7.42204C29.8556 7.58641 29.9398 7.71751 30.0376 7.7136C30.1374 7.70968 30.2118 7.57467 30.2059 7.4103C30.202 7.24593 30.1178 7.11482 30.018 7.11874C29.9182 7.12265 29.8439 7.25767 29.8478 7.42204H29.8498Z"
      fill="#21263D" />
    <path
      d="M30.9053 7.22048C30.9445 7.50421 30.9738 7.67837 31.0091 7.8036C31.0423 7.92688 31.0893 8.00906 31.1499 8.07363C31.1695 8.09516 31.1871 8.10299 31.2047 8.11473C31.2693 8.15191 31.3652 8.18909 31.4493 8.23018C31.4904 8.24975 31.5296 8.26931 31.553 8.28497L31.5765 8.30258L31.6117 8.27323L31.5667 8.28497L31.5765 8.30453L31.6117 8.27323L31.5667 8.28497V8.30062C31.5707 8.32997 31.5452 8.38868 31.4728 8.44347C31.4004 8.49826 31.285 8.54913 31.1265 8.56674C31.0736 8.57261 31.0345 8.61958 31.0404 8.67437C31.0462 8.7272 31.0952 8.76633 31.148 8.76046C31.3378 8.73894 31.4865 8.68024 31.5922 8.59805C31.6959 8.51782 31.7624 8.41411 31.7644 8.30258C31.7644 8.2791 31.7605 8.25562 31.7546 8.23409C31.7409 8.193 31.7213 8.17343 31.7018 8.15778C31.6685 8.12842 31.6294 8.1069 31.5863 8.08538C31.5217 8.05211 31.4493 8.0208 31.3887 7.99341C31.3593 7.97971 31.3319 7.96797 31.3124 7.95623L31.2908 7.94449H31.2869L31.2693 7.96406L31.2889 7.94449L31.285 7.94057L31.2674 7.9621L31.2869 7.94253C31.2458 7.89753 31.2223 7.86035 31.191 7.75272C31.1617 7.64706 31.1304 7.47486 31.0932 7.19504C31.0854 7.14221 31.0365 7.10503 30.9836 7.11286C30.9308 7.12068 30.8936 7.1696 30.9014 7.22244L30.9053 7.22048Z"
      fill="#312725" />
    <path
      d="M29.5254 8.13642C29.5294 8.25383 29.7466 8.34188 30.0127 8.3321C30.2768 8.32427 30.4882 8.22056 30.4843 8.10511C30.4804 7.98771 30.2632 7.89965 29.997 7.90943C29.7329 7.91726 29.5196 8.01901 29.5235 8.13642H29.5254Z"
      fill="#6D3B0D" />
    <path
      d="M31.8907 8.06025C31.8946 8.17766 32.1118 8.26571 32.376 8.25593C32.6401 8.24615 32.8534 8.14439 32.8495 8.02699C32.8456 7.90958 32.6284 7.82153 32.3623 7.83131C32.0981 7.83914 31.8848 7.94089 31.8887 8.0583L31.8907 8.06025Z"
      fill="#6D3B0D" />
    <path
      d="M29.6955 6.89774C29.717 6.87034 29.764 6.83708 29.8266 6.81359C29.8892 6.79011 29.9675 6.77642 30.0438 6.77642C30.1632 6.77642 30.2786 6.80968 30.351 6.86643C30.4136 6.91535 30.5056 6.90361 30.5545 6.84099C30.6034 6.77642 30.5917 6.6864 30.5271 6.63748C30.3862 6.52986 30.2121 6.48877 30.0419 6.48877C29.9303 6.48877 29.8227 6.50638 29.7229 6.54356C29.6231 6.58074 29.5331 6.63553 29.4666 6.71967C29.4176 6.78229 29.4274 6.87425 29.49 6.92317C29.5527 6.97209 29.6446 6.96231 29.6935 6.89969L29.6955 6.89774Z"
      fill="#312725" />
    <path
      d="M31.8458 6.87426C31.8673 6.85078 31.9065 6.82534 31.9612 6.80577C32.016 6.78816 32.0826 6.77642 32.1491 6.77642C32.2861 6.77642 32.425 6.81947 32.5013 6.89187C32.56 6.9447 32.652 6.94079 32.7068 6.88208C32.7596 6.82338 32.7557 6.73141 32.697 6.67662C32.5444 6.54161 32.3428 6.48877 32.1511 6.48682C32.0532 6.48682 31.9573 6.50051 31.8693 6.53182C31.7812 6.56117 31.699 6.60814 31.6345 6.67858C31.5797 6.73728 31.5836 6.82925 31.6423 6.88404C31.701 6.93883 31.793 6.93492 31.8478 6.87621L31.8458 6.87426Z"
      fill="#312725" />
  </g>
  <defs>
    <clipPath id="clip0_1846_7872">
      <rect width="90" height="69.2895" fill="white" />
    </clipPath>
  </defs>
</svg>