<svg xmlns="http://www.w3.org/2000/svg" xmlns:xlink="http://www.w3.org/1999/xlink" xml:space="preserve" id="Layer_1" width="512" height="512" x="0" y="0" version="1.1"><style id="style2" type="text/css">.st3{fill:#333}</style><path id="path4" d="M338.902 320.806c0-1.147 0-2.233.06-3.561.122-2.716 0-5.07-.24-7.243-1.932-3.2-3.863-5.734-5.916-7.364a24.688 24.688 0 0 1-6.94 8.028c.12 1.931.12 4.044.18 6.096 4.89 1.026 8.933 2.293 11.951 3.621.302.181.604.302.906.423z" style="stroke-width:.603586"/><path id="path6" d="M312.647 499.769c0 5.794 4.707 10.502 10.502 10.502 5.794 0 10.502-4.708 10.502-10.502v-51.727c-5.553.483-12.434.905-21.004.965z" style="stroke-width:.603586"/><path id="path8" d="M288.08 499.769c0 5.794 4.709 10.502 10.503 10.502 5.794 0 10.502-4.708 10.502-10.502v-50.822c-8.57-.06-15.512-.362-21.004-.966z" style="stroke-width:.603586"/><path id="path10" d="M310.896 268.233c-12.494 0-22.574 10.08-22.574 22.575 0 12.494 10.08 22.574 22.574 22.574 9.537 0 17.685-5.976 21.005-14.366-.06-1.388.422-2.837 1.207-4.285.12-.724.241-1.51.302-2.233a17.159 17.159 0 0 0-4.527-1.147c-2.777-.242-4.829-2.716-4.587-5.432.18-2.596 2.474-4.648 5.01-4.648h.362c.603.06 1.267.12 1.81.241-3.56-7.846-11.468-13.279-20.582-13.279zm-11.83 34.224-2.716-1.69c2.655-4.225 17.685-3.32 24.022-2.777l-.241 3.139c-10.2-.905-20.04-.302-21.065 1.328z" style="stroke-width:.603586"/><path id="path12" d="M268.585 440.316s6.277 5.553 42.311 5.553 42.311-5.553 42.311-5.553l-16.477-52.331c-.423-1.932-1.087-3.682-1.69-5.312l-.483-1.69h-.121c-1.75-4.346-3.682-8.45-4.225-14.788-.604-7.544 3.621-19.133 7.545-27.885l20.039 7.726c.845.301 1.63.422 2.474.422 1.57 0 3.14-.543 4.407-1.63 1.87-1.63 2.776-4.164 2.293-6.579-.724-3.621-7.605-35.672-23.177-48.588a.457.457 0 0 0-.242-.121c-2.052-1.75-7.122-5.251-13.882-5.855-1.449-.12-2.717.966-2.837 2.354-.12 1.449.966 2.716 2.354 2.837 3.742.302 6.88 1.81 8.933 3.2-2.656 2.776-4.769 6.699-3.078 8.087 6.7 5.553 11.95 17.927 15.15 28.188l-12.133-4.708a3.97 3.97 0 0 0-.905-.242c-5.372-2.293-14.184-4.95-26.135-4.95-19.617 0-30.843 7.244-32.171 8.15-.483.301-1.026.663-1.449 1.206l-1.086 1.147-17.021 18.047c-2.053 2.234-2.475 5.614-.906 8.21l19.979 32.955c.603 1.026 1.448 1.75 2.414 2.294 1.026.543 2.052.905 3.26.965zm4.165-87.822 9.597-10.321 2.414-2.535c3.621 8.45 7.484 19.254 6.88 26.376-.422 5.07-1.75 8.752-3.198 12.253l-2.173-3.5z" style="stroke-width:.603586"/><path id="path14" d="m192.654 498.2-8.813-107.56v-2.414L146.42 393.9c-.543.06-1.086.12-1.57.12-5.19 0-9.657-3.862-10.502-9.053a10.735 10.735 0 0 1 1.932-7.907 11.094 11.094 0 0 1 6.88-4.225l36.155-5.372c-1.026-10.684-2.474-17.564-3.742-21.97l2.294-.544c1.448 5.01 3.018 12.736 4.044 24.566l-38.388 5.674c-4.467.603-7.605 4.829-6.881 9.416.604 4.104 4.165 6.941 8.148 6.941.423 0 .845 0 1.268-.12l45.933-6.882c4.285-.603 7.243-4.406 6.941-8.63-.966-15.936-2.777-27.041-4.95-34.888-3.198-11.65-7.242-15.995-10.623-18.35-3.199-2.232-6.216-2.595-8.148-2.474h-11.65c.665.604 1.329 1.207 1.812 1.871.845 1.268 1.086 2.656.603 3.863-8.57 26.98-28.006 41.467-37.905 47.382v17.323L119.258 498.2c-.604 6.94 4.647 13.158 11.649 13.701 6.941.604 13.158-4.648 13.701-11.65l7.666-93.676h7.243l7.726 93.737c.603 6.941 6.7 12.193 13.701 11.65 7.002-.544 12.193-6.7 11.71-13.762z" style="stroke-width:.603586"/><path id="path16" d="M153.481 305.294c.422 0 .845.06 1.268.18 2.293.665 3.621 3.14 3.017 5.554l-1.026 3.44c12.495-.362 22.454-10.623 22.454-23.178 0-12.796-10.382-23.177-23.178-23.177-12.796 0-23.178 10.381-23.178 23.177 0 9.9 6.278 18.41 15.03 21.73l1.388-4.527c.543-1.871 2.294-3.2 4.225-3.2zm17.806-7.606-.302 3.079c-10.02-.906-19.617-.302-20.643 1.267l-2.655-1.63c2.655-4.104 17.383-3.259 23.6-2.716z" style="stroke-width:.603586"/><path id="path18" d="M163.742 325.333c.966-2.958-5.915-6.157-10.865-6.64l2.535-8.39c.302-1.086-.301-2.173-1.388-2.595-1.086-.362-2.173.302-2.595 1.388l-3.32 11.106c0 .06-.06.06-.06.12-4.829 15.15-14.124 25.291-21.73 31.387v-3.138c6.881-5.915 14.788-15.15 19.255-28.308h-9.476c-.423 0-.845.06-1.268.12v-.12c-2.293.362-22.695 4.889-25.17 45.812v1.328c0 .18 0 .301.061.483 0 .12.06.24.06.362 0 .12.06.241.06.422.061.12.061.302.122.423.06.12.06.241.12.301.06.182.121.302.181.483 0 .06.06.121.06.181 0 0 0 .06.061.06.12.363.302.604.543.967.06.06.06.12.121.18.181.242.362.483.543.665.06.06.12.12.181.241l.664.664c.06.06.12.12.242.181.241.181.483.362.664.543.06.06.12.06.18.121.302.181.604.362.966.543.06 0 .121.06.181.06.302.121.604.242.906.302.06 0 .12.06.18.06.363.122.605.182 1.027.242h.241c.182 0 .363.06.544.06h.482c.363 0 .665-.06 1.147-.06.181 0 .363-.06.483-.06.06 0 .121 0 .121-.06.241-.061.423-.121.604-.182.06 0 .12-.06.12-.06.242-.06.423-.12.604-.241h.06c.302-.121 2.294-1.027 5.312-2.777 9.355-5.251 28.73-19.254 37.241-46.174z" style="stroke-width:.603586"/><g id="g30" transform="matrix(.60359 0 0 .60359 -314.419 -64.1)"><defs id="defs21"><path id="SVGID_1_" d="M1062.1 275h108.5v118.9h-108.5z"/></defs><clipPath id="SVGID_2_"><use xlink:href="#SVGID_1_" id="use23" style="overflow:visible"/></clipPath><g id="g28" clip-path="url(#SVGID_2_)" style="clip-path:url(#SVGID_2_)"><path id="path26" d="M1169.9 296.7h.3c.2-.2.1-.5.1-.7-.1-1.2-.7-2.1-1.5-3-.2-.2-.4-.3-.4-.7-.1 0-.2.1-.2.1.1 0 .2-.1.2-.1l.5-.5c1.2-1.4 1.6-2.9 1-4.7-.3-.8-.5-1.6-.3-2.4.1-.2 0-.4-.2-.4-.7-.1-.6-.6-.6-1.1 0-.2 0-.4-.1-.5v-.4c0-.7-.2-.8-.8-.5-.4.3-.9.5-1.2 1-.1.2-.3.3-.6.2-.1-.1-.2-.3-.2-.4.1.1.2.2.2.4 0-.2 0-.4.1-.6.2-.3.3-.6.3-.9.2-.3.1-.7 0-1.1 0-.1 0-.3-.1-.4v-1.1c0-.2-.1-.4-.3-.4-.2-.1-.3 0-.5.2s-.4.5-.5.8c-.3 0-.4.2-.5.5-.3.2-.5.4-.6.7-.5.2-.7-.1-.6-.6.1-1.3-.1-2.5-.7-3.6 0-.3-.1-.5-.4-.5-.3 0-.4.2-.5.4-.3.8-.7 1.7-1 2.5-.1.2-.1.6-.4.6-.3 0-.4-.4-.5-.6v-.3c-.1-1.1-.5-2.1-.8-3.1-.1-.2-.2-.5-.5-.5s-.4.2-.5.4c-.2.9-.4 1.8-.7 2.7 0 .2-.1.5-.3.5-.2.1-.2-.3-.4-.4v-.1c0-.1 0-.2-.1-.3 0-.1 0-.2-.1-.3 0-.1-.1-.1-.1-.2-.1-.6-.4-1.1-.6-1.6-.1-.3-.1-.6-.6-.6-.4.1-.4.4-.4.7-.1.7-.2 1.5-.5 2.2-.4.1-.7.1-1-.2-.1-.4-.5-.5-.7-.8-.3-.5-.6-.5-.9 0-.2.3-.3.6-.4.8-.1.2-.1.4-.3.4-1 .4-1.1.6-1 1.7 0 .2-.1.3 0 .5h-.1c-.2.2-.4.3-.5.6-.6.5-.6.8 0 1.3.7.6 1.5 1 2 1.8.1.1.3.1.4.2.2.1.4.1.5.3.3.1.5.2.8.2-.2 0-.5 0-.8-.2-.3.4-.8.3-1.3.4-.3.1-.5.1-.7.3-.6 0-1.2.3-1.8.6-2.3 1.2-4 3-5.7 4.9-.4.5-.8 1-1.2 1.6-1.1 1.8-2.2 3.6-3.2 5.5-.4.8-.8 1.5-1.1 2.4l-.6 1.2c-.8 1.5-1.7 3-2.7 4.4-.7 1-1.4 1.8-2.3 2.5-.6.6-1.4.9-1.9 1.6-.3.1-.7.2-.9.5-.6.2-1.2.4-1.8.7-.6.2-1.2.4-1.9.5-2.4.3-4.9.5-7.3.5-.3 0-.7 0-1 .1h-.6c-.1 0-.3-.1-.4-.1-1.7-.2-3.4-.4-5-.8-3.3-.8-6.6-1-9.9-1h-.5c-.1-.1-.2-.1-.2 0h-.7c-.2-.1-.4-.2-.6 0-.4 0-.8 0-1.2-.1-1.1-.1-2.1-.6-3.2-.9-1.8-.5-3.4-1.2-4.9-2.3-.8-.7-1.7-1.3-2.5-1.9-.6-.8-1.3-1.5-2.2-2.1-.9-.6-1.9-1.3-2.6-2.2-.3-.4-.5-.8-1-1-.1-.1-.2-.3-.3-.4-1-1.6-2.4-2.9-4-4-1.5-1-3.2-1.6-4.9-2.1-.8-.3-1.7-.3-2.6-.1-1.2-.1-2.4 0-3.6.6-1.2.6-2 1.4-2 2.8 0 .6-.4 1-.8 1.4-.2.2-.3.4-.4.6-.6.5-.8 1.2-1.1 1.9-.1.2.1.4.2.6l.2.2c-.3.8.5 1.1.8 1.6.2.4.4.6.2 1-.5.9-.3 1.7.2 2.6.2.3.5.5.6.9.1.5.4.8.9 1 0 0 .1 0 .1-.1 0 0-.1 0-.1.1.1 0 .1.1.2.1h.1-.1c.3.5.7 1 1.2 1.3 0 .2 0 .3-.2.4 0 .1 0 .1-.1.2 0-.1 0-.1.1-.2-.2-.1-.2 0-.3.2-.2 0-.4-.1-.6-.1-.1-.1-.2 0-.3.1-.1 0-.2.1-.3.1-.3 0-.5.4-.8.2-.3-.2-.5 0-.7 0-.2 0-.2.2-.3.3-.1.2.1.3.3.4l.3.3c-.1.2 0 .2.2.3.3.6.7 1.2 1.2 1.7 0 .2 0 .4-.2.6-.5.4-.9.8-.7 1.5.1.6.3 1.1.5 1.6h.1c.3.6.8.9 1.4 1.2.2.3.4.5.7.5h.2v-.1c.2 0 .3 0 .3-.1 0 .1-.1.1-.3.1v.2c0 .3 0 .7.5.7.1.1.3.1.4.2v.2c-.1 1.3.1 1.6 1.2 1.9 0 .4.2.5.5.4.2-.1.4-.1.6 0 .5.7 1.3 1.3.5 2.3-.2.1-.4.3-.3.5.1.2.4.1.5.1.4-.3.5.2.7.3v.2c-.2.4.1.5.4.5 0 .1.1.2.1.2h.1-.1v.6c0 .2-.1.3-.1.5v.2c-.2.1-.3.3-.1.5.5 1.4 2 2.7 3.4 2.6.3.2.3.4.1.6-.8 1.1-1 2.5-1.5 3.8-.3.6-.2 1.3-.1 2 0 .4 0 .9.7.9h.2c.8.3 1.5.9 2.1 1.5h.1v.4h.3-.3c-.2.4-.3.7-.6 1-.2.2-.3.5.1.7.1.7.6 1.1 1.1 1.6.2.7.8 1.1 1.4 1.4.4.2.4.3.1.7-.6.7-.9 1.5-.5 2.5 0 .1.1.3 0 .4-.4.7 0 1 .5 1.3.3.2.5.7.4 1-.3.7-.1 1.5-.2 2.2 0 .2.1.3.2.3.7-.2.4.3.3.5 0 .2-.1.4-.2.6-.2 0-.3.1-.4.2-.2 0-.2.2-.2.4.1.1.2.2.3.2.2-.1.3.1.5.1.5 0 .3.7.7.8v.4c-.1.2-.2.4 0 .5.5.2.8.6 1.1 1.1.1.1.2.2.4.3.3.2.6.5.7.9.1.5.6 1 1.1 1 .2 0 .4 0 .4.3.1.2.3.2.4.2.3.2.5.4.5.8-.1.1-.1.2-.1.4-.1.1-.4.2-.3.4.1.2.3.1.5 0 .8-.4 1.7-.4 2.1.3.7 1.1 1.9 1.6 2.8 2.4.3.2.5.5.9.7.8.4 1.6.8 2.2 1.5.3.3.6.4 1 .5.2.2.2.5.2.8-.2.3-.3.6-.3.9-.2 1.2-.2 2.4-.3 3.6-.1.2-.2.4-.2.6-.2 1-.3 2.1-.5 3.1-.2 1.2-.4 2.5-.6 3.7 0 .3-.3.5-.2.8-.2.3-.2.6-.3.9-.3 1.4-.5 2.9-2 3.7-.1.1-.2.2-.2.3-.1.1-.2.1-.3.2-.8.3-1.6.6-2.3.8-.6.2-1.2.4-1.7.7-.4.2-.4.3-.1.6.4.1.7.3 1.1.5.9.7 1.4.7 2.3-.1.1-.1.3-.2.4-.2.1 0 .3 0 .4-.1.2-.1.5-.3.8-.1.3.2.2.5.1.8-.1.6 0 1.3.1 1.9 0 .2.2.5.4.5.7 0 1 .6 1.4 1.1.2.2.4.4.6.4.1.1.1.2.3.1.5.1 1 0 1.5.1.1.1.2.1.3 0 .3 0 .5.1.8.1.5-.1.7-.4.5-.8-.1-.2-.2-.3-.1-.5h1c.1 0 .1.1.2 0 0 0 .1 0 .1.1 1 .1 1.9.1 2.9 0 .4 0 .8.1 1.3.1.4.2.9.2 1.4 0 1.3.1 2.5-.1 3.8.3.4.2.8.2 1.2-.1.3-.1.5-.2.5-.5.2-.6.5-.4.9-.2.2.1.3.4.5.6 0 .1.1.3.1.4.1.2.3.5.5.5.3-.1.2-.4.2-.6-.2-1.3-.8-2.2-2.2-2.3-.3 0-.7 0-1-.1-.1-.1-.2-.1-.3 0-.6-.3-1.2-.2-1.8-.1-.7.1-1.4.1-2.1-.1-1.1-.3-2.2-.3-3.4-.3-.3-.1-.6-.3-.9-.3 0-.1-.1-.3-.2-.1h-.3c0-.1-.1-.2-.1-.2-.6 0-1.2-.3-1.8-.4-.6-.1-.7-.4-.7-.9s0-1.1.1-1.6.3-1.1.1-1.6v-.3c.3-.5.2-1.1.3-1.7.2-2 .6-3.9.9-5.8.2-1 .4-2 .5-3 .1-.4.2-.7.4-1.1h.1c.3 0 .6.2.8-.2.2 0 .4-.1.6-.1.2 0 .3 0 .5.1.2.2.4.1.6.1.2.1.5.1.7 0h.3s.1 0 0 0c.2 0 .3.1.5-.1.2-.1.5-.2.7-.2.2 0 .2-.1.3-.2.4-.2.7-.4 1-.8.1.1 0-.1.2-.1.2-.1.1 0 .2-.1s.2-.1.3-.2c.4-.1.7-.2 1.1-.2.3-.1.6-.2.8-.5.2-.3.5-.3.8-.1.3.2.7.2 1-.1.2-.1.4-.3.6-.3.5.2.7-.1.9-.5.5-.1 1 .4 1.5.1.1-.1.2 0 .3.1.4.5 1 .4 1.5.5.1 0 .2.1.3.1.2.6.7.6 1.1.4.1.4.3.7.7.8.1 0 .1.1.2.1.1.3.4.3.6.3.4.3.9.6 1.3.9.2.2.3.4.4.6.6 1.2 1.5 2.1 2.3 3.2 0 .2.2.4.3.5.1.2.2.5.4.7 1.1 1.8 2.4 3.5 3.4 5.4.2.5.4 1 .9 1.4v.1c.3.7.6 1.4.5 2.2 0 .2.1.5.3.6 0 .1 0 .1.1.2 0 .4-.3.7-.6.8l-2.7 1.5c-.5.3-1.1.7-1.3 1.3-.1.2-.1.4 0 .5.2.1.3 0 .4-.2-.1-.1-.1-.2-.1-.3 0 .1 0 .2.1.3.1-.1.3-.1.4-.3.3.1.5.2.8.3.7.4 1.4.2 2-.5.1 0 .3-.1.4-.2.2 0 .4-.2.5-.3.6-.4 1.2-.4 1.9-.3-.2.9 0 1.1.8 1.4.3.1.6.3.8.6.3.4.7.8 1.3.8.1.1.1.1.2 0h.5c.4 0 .7.1 1.1-.1h.8c.5-.1.7-.3.5-.7-.2-.2-.1-.5-.1-.7 1.4.3 2.8.1 4.3 0 .5 0 .9 0 1.4.1.7.2 1.5.1 2.2.1.9 0 1.8 0 2.6.3.5.2 1 .3 1.5-.1.2 0 .3-.2.4-.3.4-.6.6-.6 1.1-.1.3.3.5.7.8 1 .1.1.2.4.3.1 0-.3.1-.6 0-1-.6-1.3-1.8-2-3.3-1.9h-.2c-.3-.2-.6-.2-1-.2-1-.1-2 .2-3-.1-.6-.2-1.3-.2-2-.3-.6 0-1.3 0-1.8-.2-.9-.3-1.9-.4-2.9-.4-.2-.3-.5-.2-.8-.2-.2-.5-.5-1-.8-1.5 0-.1-.1-.1-.1-.2s0-.1-.1-.2c-.3-.8-.9-1.4-1.7-1.7-.1-.1-.2-.1-.2-.2-.1-.3-.3-.5-.5-.7-.2-.2-.2-.6-.6-.6-.7-1.1-1.4-2.2-2.2-3.3-.2-.3-.3-.8-.8-.9l-.1-.1c-.1-.2-.2-.3-.3-.5-.2-.4-.4-.9-.8-1.2l-.1-.1c-.3-.9-.8-1.6-1.4-2.3v-.6.1c.2 0 .3-.1.4-.1.6-.3 1.2-.6 1.4-1.3l.1-.1h.1c1.3-.7 2.4-1.6 2.9-3.1.1-.4.3-.9.4-1.3.1-.4.3-.5.7-.6.4-.1.7-.3.9-.7.3-.7.6-1.4.8-2.1.2-.6.4-1.2 0-1.8-.2-.2 0-.5 0-.8 0-.7.5-1.2.6-1.8.8-.9 1.7-1.4 2.7-2 1.4-.8 2.8-1.6 4.1-2.5.3-.2.8-.3 1.1-.6.6-.5 1.3-.8 2.1-1.1 1-.3 1.8-.8 2.7-1.3.6-.2.9-.8 1.4-1.2 1.6-1.2 2.9-2.6 4-4.2 1.1-1.7 2.1-3.6 3-5.4.7-1.3 1.4-2.7 2.1-4 .7-1.4 1.5-2.7 2.1-4.2.4-1.1.8-2.3 1.1-3.4.6-1.8 1.5-3.4 1.8-5.2 0-.1.1-.2.1-.4.6-1.6 1-3.1 1.2-4.8.1-.1.1-.2.1-.4-.1-.5.3-.9.2-1.4.2-.2.1-.5.1-.7 0-.7.1-1.4.2-2.2h-.1.1c.1-.5.1-1 .1-1.4 0-.2.1-.4-.1-.6 0-.4-.1-.7-.1-1.1 0-.2.1-.5-.1-.7 0-.4 0-.7-.3-1v-.2c.2-.2 0-.3 0-.5 0-.1 0-.2-.1-.2v-.2h-.2.2c0-.2.1-.5-.1-.7v-.2c0-.1 0-.2-.1-.2-.1-.3-.2-.6-.3-1-.2-.6-.4-1.1-.7-1.7l.1-.1h-.1.1c.3 0 .6-.2.8-.3.7-.3 1-1 1.5-1.6.3-.2.5-.4.7-.7.8-1.2 1.1-2.6 1.6-4 .1-.2.1-.4.1-.6.2-1-.3-1.7-.6-2.6.1 0 .2-.1.3-.2h.4v-.1.1c.2.3.6.2.9.3 1 .4 2 1.1 3.1 1.1.1 0 .2 0 .3.1h.1c.2.1.2 0 .2-.2v-.2c.3-.4.2-.4.1-.4z"/></g></g><g id="g52" transform="matrix(.60359 0 0 .60359 -314.419 -64.1)"><defs id="defs33"><path id="SVGID_3_" d="M794.2 514.5h13.6v13.6h-13.6z"/></defs><clipPath id="SVGID_4_"><use xlink:href="#SVGID_3_" id="use35" style="overflow:visible"/></clipPath><g id="g50" clip-path="url(#SVGID_4_)" style="clip-path:url(#SVGID_4_)"><g id="g48"><defs id="defs39"><path id="SVGID_5_" d="M801 514.5c-3.8 0-6.8 3-6.8 6.8s3 6.8 6.8 6.8 6.8-3 6.8-6.8-3-6.8-6.8-6.8z"/></defs><clipPath id="SVGID_6_"><use xlink:href="#SVGID_5_" id="use41" style="overflow:visible"/></clipPath><g id="g46" clip-path="url(#SVGID_6_)" style="clip-path:url(#SVGID_6_)"><path id="path44" d="M794.2 514.5h13.6v13.6h-13.6z" class="st3"/></g></g></g></g><g id="g74" transform="matrix(.60359 0 0 .60359 -314.419 -64.1)"><defs id="defs55"><path id="SVGID_7_" d="M1009.7 476.8h13.6v13.6h-13.6z"/></defs><clipPath id="SVGID_8_"><use xlink:href="#SVGID_7_" id="use57" style="overflow:visible"/></clipPath><g id="g72" clip-path="url(#SVGID_8_)" style="clip-path:url(#SVGID_8_)"><g id="g70"><defs id="defs61"><path id="SVGID_9_" d="M1016.5 476.8c-3.8 0-6.8 3-6.8 6.8s3 6.8 6.8 6.8 6.8-3 6.8-6.8-3.1-6.8-6.8-6.8z"/></defs><clipPath id="SVGID_10_"><use xlink:href="#SVGID_9_" id="use63" style="overflow:visible"/></clipPath><g id="g68" clip-path="url(#SVGID_10_)" style="clip-path:url(#SVGID_10_)"><path id="path66" d="M1009.7 476.8h13.6v13.6h-13.6z" class="st3"/></g></g></g></g><g id="g96" transform="matrix(.60359 0 0 .60359 -314.419 -64.1)"><defs id="defs77"><path id="SVGID_11_" d="M1023.3 514.5h13.6v13.6h-13.6z"/></defs><clipPath id="SVGID_12_"><use xlink:href="#SVGID_11_" id="use79" style="overflow:visible"/></clipPath><g id="g94" clip-path="url(#SVGID_12_)" style="clip-path:url(#SVGID_12_)"><g id="g92"><defs id="defs83"><path id="SVGID_13_" d="M1030.1 514.5c-3.8 0-6.8 3-6.8 6.8s3 6.8 6.8 6.8 6.8-3 6.8-6.8-3.1-6.8-6.8-6.8z"/></defs><clipPath id="SVGID_14_"><use xlink:href="#SVGID_13_" id="use85" style="overflow:visible"/></clipPath><g id="g90" clip-path="url(#SVGID_14_)" style="clip-path:url(#SVGID_14_)"><path id="path88" d="M1023.3 514.5h13.6v13.6h-13.6z" class="st3"/></g></g></g></g><g id="g118" transform="matrix(.60359 0 0 .60359 -314.419 -64.1)"><defs id="defs99"><path id="SVGID_15_" d="M818.3 470h13.6v13.6h-13.6z"/></defs><clipPath id="SVGID_16_"><use xlink:href="#SVGID_15_" id="use101" style="overflow:visible"/></clipPath><g id="g116" clip-path="url(#SVGID_16_)" style="clip-path:url(#SVGID_16_)"><g id="g114"><defs id="defs105"><path id="SVGID_17_" d="M825.1 470c-3.8 0-6.8 3-6.8 6.8s3 6.8 6.8 6.8 6.8-3 6.8-6.8-3-6.8-6.8-6.8z"/></defs><clipPath id="SVGID_18_"><use xlink:href="#SVGID_17_" id="use107" style="overflow:visible"/></clipPath><g id="g112" clip-path="url(#SVGID_18_)" style="clip-path:url(#SVGID_18_)"><path id="path110" d="M818.3 470h13.6v13.6h-13.6z" class="st3"/></g></g></g></g><g id="g122" transform="matrix(.60359 0 0 .60359 -314.419 -64.1)"><path id="path120" d="M942.8 461.8c-4 0-7.9-.2-11.9-.6-4-.4-7.9-1-11.8-1.8-3.9-.8-7.7-1.8-11.5-3.1-3.8-1.2-7.5-2.6-11.1-4.2-3.6-1.6-7.2-3.4-10.6-5.4-3.4-2-6.8-4.1-10-6.5-3.2-2.3-6.3-4.8-9.3-7.5-3-2.7-5.8-5.5-8.4-8.4-3.4 3.1-7.1 5.9-11.1 8.3-3.9 2.4-8.1 4.5-12.4 6.2-4.3 1.7-8.8 2.9-13.3 3.8-4.5.9-9.2 1.2-13.8 1.2-5.1 0-10.2-.5-15.3-1.6-5-1-9.9-2.6-14.6-4.6-4.7-2-9.2-4.5-13.4-7.5-4.2-2.9-8.1-6.3-11.6-10-2.7.2-5.4.3-8 .3-52.8 0-95.8-43-95.8-95.8 0-2.6.1-5.1.3-7.7.2-2.5.5-5.1.9-7.6s.9-5 1.5-7.5 1.3-4.9 2.1-7.4c.8-2.4 1.7-4.8 2.7-7.2 1-2.4 2.1-4.7 3.3-6.9 1.2-2.3 2.5-4.5 3.8-6.7 1.3-2.2 2.8-4.3 4.3-6.3 1.5-2.1 3.1-4 4.8-6 1.7-1.9 3.4-3.8 5.3-5.6 1.8-1.8 3.7-3.5 5.7-5.1 2-1.6 4-3.2 6.1-4.6 2.1-1.5 4.2-2.8 6.5-4.1 2.2-1.3 4.5-2.5 6.8-3.6s4.6-2.1 7-3.1c2.4-.9 4.8-1.8 7.3-2.5.1-1.9.3-3.7.5-5.6.2-1.8.5-3.7.9-5.5.3-1.8.7-3.7 1.2-5.5l1.5-5.4c.6-1.8 1.2-3.5 1.9-5.3.7-1.7 1.4-3.5 2.2-5.2.8-1.7 1.6-3.4 2.5-5 .9-1.6 1.8-3.3 2.8-4.8 1-1.6 2-3.1 3.1-4.7 1.1-1.5 2.2-3 3.4-4.5 1.2-1.5 2.4-2.9 3.6-4.2 1.3-1.4 2.6-2.7 3.9-4 1.3-1.3 2.7-2.5 4.1-3.8 1.4-1.2 2.9-2.4 4.4-3.5 1.5-1.1 3-2.2 4.6-3.2 1.6-1 3.1-2 4.8-2.9 1.6-.9 3.3-1.8 4.9-2.6 1.7-.8 3.4-1.6 5.1-2.3 1.7-.7 3.5-1.4 5.2-2 1.8-.6 3.5-1.2 5.3-1.7 1.8-.5 3.6-1 5.4-1.3 1.8-.4 3.7-.7 5.5-1 1.8-.3 3.7-.5 5.6-.7 1.9-.2 3.7-.3 5.6-.3 1.9-.1 3.7 0 5.6 0 1.9.1 3.7.2 5.6.4 1.9.2 3.7.4 5.5.7 1.8.3 3.7.6 5.5 1.1 1.8.4 3.6.9 5.4 1.4 1.8.5 3.6 1.1 5.3 1.7 1.8.6 3.5 1.3 5.2 2 1.7.7 3.4 1.5 5.1 2.4 20.7-31.7 56.5-51.2 94.5-51.2 4.8 0 9.5.3 14.3.9 4.7.6 9.4 1.5 14.1 2.7 4.7 1.2 9.2 2.7 13.6 4.5 4.4 1.8 8.8 3.8 12.9 6.2 4.2 2.3 8.2 4.9 12 7.7 3.9 2.8 7.5 5.9 11 9.2 3.5 3.3 6.7 6.8 9.7 10.5 3 3.7 5.8 7.6 8.3 11.7 6.6-3.9 13.6-6.8 21-8.8 7.4-2 14.9-3 22.6-3 45.8 0 83.3 35.8 86.1 81h.2c39.9 0 72.4 32.5 72.4 72.4 0 2-.1 4-.3 6.1-.2 2-.4 4-.8 6-.3 2-.8 4-1.3 5.9-.5 2-1.1 3.9-1.8 5.8s-1.4 3.8-2.2 5.6c-.8 1.8-1.7 3.7-2.7 5.4-1 1.8-2 3.5-3.1 5.2-1.1 1.7-2.3 3.3-3.6 4.9-1.3 1.6-2.6 3.1-4 4.6-1.4 1.5-2.8 2.9-4.3 4.2-1.5 1.4-3.1 2.6-4.7 3.9-1.6 1.2-3.3 2.4-5 3.5-1.7 1.1-3.5 2.1-5.2 3-1.8.9-3.6 1.8-5.5 2.6s-3.8 1.5-5.7 2.1c-1.9.6-3.9 1.2-5.8 1.6-18.4 47.6-64.6 79.3-115.8 79.3-9.8 0-19.4-1.1-28.9-3.4s-18.6-5.6-27.3-10c-5 3.9-10.3 7.4-15.8 10.4-5.6 3-11.3 5.6-17.3 7.6-6 2.1-12.1 3.6-18.4 4.7-6.2 1-12.5 1.6-18.9 1.6zm-84.3-50.5h.2c.8 0 1.5.2 2.2.5.7.3 1.3.8 1.7 1.4l3.3 3.9c1.1 1.3 2.3 2.5 3.5 3.7 1.2 1.2 2.4 2.4 3.7 3.5 1.3 1.1 2.6 2.3 3.9 3.3 1.3 1.1 2.7 2.1 4 3.1 1.4 1 2.8 2 4.2 2.9 1.4.9 2.9 1.9 4.3 2.7 1.5.9 2.9 1.7 4.5 2.5 1.5.8 3 1.6 4.6 2.3 1.5.7 3.1 1.4 4.7 2.1 1.6.7 3.2 1.3 4.8 1.8 1.6.6 3.2 1.1 4.9 1.6 1.6.5 3.3.9 4.9 1.4 1.7.4 3.3.8 5 1.1 1.7.3 3.4.6 5 .9l5.1.6c1.7.2 3.4.3 5.1.4 1.7.1 3.4.1 5.1.1 1.7 0 3.4-.1 5.1-.1 1.7-.1 3.4-.2 5.1-.4 1.7-.2 3.4-.4 5.1-.7 1.7-.3 3.4-.6 5-.9 1.7-.3 3.3-.7 5-1.1 1.7-.4 3.3-.9 4.9-1.4 1.6-.5 3.2-1 4.9-1.6 1.6-.6 3.2-1.2 4.8-1.9 1.6-.7 3.1-1.4 4.7-2.1 1.5-.7 3.1-1.5 4.6-2.3 1.5-.8 3-1.7 4.4-2.5 1.5-.9 2.9-1.8 4.3-2.8 1.4-1 2.8-1.9 4.2-3 1.4-1 2.7-2.1 4-3.2.4-.3.9-.6 1.3-.8.5-.2 1-.3 1.5-.4.5-.1 1.1 0 1.6.1s1 .3 1.5.5c8.3 4.5 17.1 8 26.3 10.3 9.2 2.3 18.5 3.5 28 3.5 47.8 0 90.7-30.2 106.9-75.1.3-.9.8-1.6 1.5-2.2.7-.6 1.5-1 2.4-1.2 1.8-.3 3.5-.7 5.2-1.2 1.7-.5 3.4-1 5.1-1.7 1.7-.6 3.3-1.3 4.9-2.1 1.6-.8 3.2-1.6 4.7-2.5 1.5-.9 3-1.9 4.5-2.9 1.4-1 2.8-2.1 4.2-3.3 1.3-1.2 2.7-2.4 3.9-3.6 1.2-1.3 2.4-2.6 3.6-4 1.1-1.4 2.2-2.8 3.2-4.2 1-1.5 2-3 2.8-4.5.9-1.5 1.7-3.1 2.4-4.7s1.4-3.3 2-4.9c.6-1.7 1.1-3.4 1.6-5.1.5-1.7.8-3.5 1.1-5.2.3-1.8.5-3.5.7-5.3.2-1.8.2-3.5.2-5.3 0-34.1-27.7-61.8-61.8-61.8-1.7 0-3.4.1-4.9.3h-1.1c-.4 0-.7-.1-1.1-.2-.3-.1-.7-.3-1-.5-.3-.2-.6-.4-.9-.7-.3-.2-.5-.5-.7-.8-.2-.3-.4-.6-.5-.9-.1-.3-.3-.7-.3-1 0-.3-.1-.7-.1-1.1v-.3c0-41.7-33.9-75.7-75.7-75.7-7.6 0-15 1.1-22.2 3.3-7.2 2.2-14 5.5-20.2 9.7-.3.2-.6.4-1 .5-.3.1-.7.2-1.1.3-.4.1-.7.1-1.1.1-.4 0-.7-.1-1.1-.1-.4-.1-.7-.2-1-.4-.3-.2-.6-.3-.9-.6-.3-.2-.6-.5-.8-.7-.2-.3-.5-.6-.6-.9-2.2-4-4.7-7.8-7.4-11.4-2.7-3.7-5.7-7.1-8.8-10.4-3.2-3.3-6.5-6.3-10.1-9.1-3.6-2.8-7.3-5.4-11.2-7.7-3.9-2.3-8-4.3-12.2-6.1-4.2-1.8-8.5-3.3-12.9-4.5-4.4-1.2-8.8-2.1-13.3-2.7-4.5-.6-9-.9-13.6-.9-36 0-69.8 19.3-88.1 50.4-.4.6-.8 1.1-1.4 1.5-.6.4-1.2.7-1.8.9-.7.2-1.4.2-2.1.1-.7-.1-1.3-.3-1.9-.7-6.1-3.5-12.5-6.2-19.3-8-6.8-1.8-13.7-2.7-20.7-2.7-43.3 0-79.2 35.2-79.9 78.5 0 .6-.1 1.1-.3 1.7-.2.5-.5 1-.8 1.5-.4.5-.8.8-1.3 1.2-.5.3-1 .5-1.6.7-2.3.6-4.5 1.2-6.7 2s-4.4 1.6-6.6 2.6c-2.2.9-4.3 2-6.3 3.1-2.1 1.1-4.1 2.3-6 3.6-2 1.3-3.9 2.7-5.7 4.1-1.9 1.4-3.6 3-5.4 4.6-1.7 1.6-3.4 3.3-5 5-1.6 1.7-3.1 3.5-4.5 5.4-1.4 1.9-2.8 3.8-4.1 5.7-1.3 2-2.5 4-3.6 6.1-1.1 2.1-2.1 4.2-3.1 6.3-.9 2.2-1.8 4.3-2.6 6.6-.8 2.2-1.4 4.5-2 6.8-.6 2.3-1.1 4.6-1.4 6.9-.4 2.3-.7 4.6-.9 7-.2 2.3-.3 4.7-.3 7 0 47 38.2 85.3 85.3 85.3 3.2 0 6.3-.2 9.5-.5.9-.1 1.7 0 2.5.3s1.5.8 2.1 1.4c.7.8 1.5 1.7 2.3 2.5l2.4 2.4c.8.8 1.7 1.5 2.5 2.2.8.7 1.7 1.4 2.6 2.1.9.7 1.8 1.3 2.8 2 .9.6 1.9 1.2 2.8 1.8 1 .6 1.9 1.1 2.9 1.7l3 1.5c1 .5 2.1.9 3.1 1.3s2.1.8 3.2 1.2c1.1.4 2.1.7 3.2 1 1.1.3 2.2.6 3.3.8 1.1.2 2.2.5 3.3.7 1.1.2 2.2.4 3.3.5 1.1.1 2.2.2 3.4.3 1.1.1 2.2.1 3.4.2h3.4c1.1 0 2.2-.1 3.4-.2 1.2-.1 2.2-.2 3.4-.4 1.1-.2 2.2-.3 3.3-.5 1.1-.2 2.2-.4 3.3-.7l3.3-.9c1.1-.3 2.1-.7 3.2-1.1 1.1-.4 2.1-.8 3.1-1.2 1-.4 2.1-.9 3.1-1.4l3-1.5c1-.5 2-1.1 2.9-1.7 1-.6 1.9-1.2 2.8-1.8.9-.6 1.8-1.3 2.7-2 .9-.7 1.8-1.4 2.6-2.1.9-.7 1.7-1.5 2.5-2.3l2.4-2.4c1-1.6 2.3-2.1 3.8-2.1z"/></g><g id="g126" transform="matrix(.60359 0 0 .60359 -314.419 -64.1)"><path id="path124" d="M841.7 343.4s-18.6 5.2-31.6-2.9l-14-2.3s-3.3 5.3-2.1 8.9c1.2 3.6 1.1 9.9-1 13.4-2 3.4 3.8 15.7 1.9 21.7-.1.2-.3.4-.6.3l-.6-.1c-.3-.1-.5.1-.6.4l-.7 2.3c-.1.2-.2.3-.4.4l-4.9.8c-1 .2-1.8-.8-1.4-1.8l4.4-10v-.3l-1.3-12.9c-.1-.7-.4-1.4-.9-1.9l-1.5-1.4c-.5-.5-1.4-.5-1.9.1l-.3.4c-.4.4-.6 1-.7 1.5l-1.9 14.8v.2l1 4.5c.1.4-.2.7-.6.6-.2-.1-.5.1-.6.3l-1.6 3.3c-.1.2-.2.3-.4.3l-5 .5c-1.1.1-1.9-1.1-1.3-2.1l4.6-7.7c0-.1.1-.2.1-.3l.1-12.8c0-1.6-.2-3.1-.6-4.6l-5.2-18c-.4-1.5-1.3-2.9-2.4-3.9l-5-4.6c-1.8-1.7-3.2-3.9-3.8-6.3l-1.8-6.6c-.4-1.5-1.1-2.9-2-4.2l-4.6-6.8c-.5-.7-.8-1.5-1-2.3l-3.4-14.3s-2.3-14-15.1-5.9c-1.8 1.1-4 1.3-5.8.3-2.5-1.3-5.6-3.6-5.9-7.7-.1-1 .3-1.9 1.1-2.5 2.2-1.8 7.3-6.3 8.8-10.2 1.8-5.1 3.7-8.9 10.5-11.7 6.8-2.8 7.4-15.6 23.2-14.2 0 0-14.9 8.4-14.5 12.3.4 3.9 13.4-10.2 22.2-7.7l-15 9.4s-5.5 4 1.7 4.1c0 0 2.2-.3 4.2 2.6 1.5 2.2 5.1 2.3 6.7 2.2.7 0 1.3.4 1.4 1 .2.9-.6 2.1-6 2.3l-5.5.5c-.8.1-1.2.9-.9 1.6 1.4 3 5.2 10 13.3 15.1 0 0 17.9.7 22 3.1 4.1 2.4 18.3 7.1 29.5 1.5s30.3-5.7 39.4 2.2c7.5 6.6 13-5.7 14.7-10.2.2-.5.9-.5 1.1 0l.2.6c.1.3.5.5.8.3l.3-.2c.5-.2 1 .2.8.7l-2.2 7.9c-.1.5.3.9.7.7.5-.1.9.4.7.9l-1.5 2.8c-.1.1-.1.3 0 .5l.4 1.3c.1.3 0 .6-.3.7l-4.4 2.2c-.6.3-1 1-1 1.7.4 5 1.5 24.3-7.2 34.5-1.8 2.1-2.6 4.9-2 7.6.5 2.4 1.6 5.4 4 8.3l3.2 3.5c.6.6.8 1.5.6 2.4l-3.1 11.1c-.3 1.1-.5 2.2-.5 3.3l-.6 10.4c0 .8-.6 1.4-1.3 1.7-.8.3-1.4.9-1.6 1.8v.1c-.3 1.2-1.4 2.1-2.6 2.2l-3.4.2c-1.1.1-1.9-.8-1.9-1.8v-.2c0-1 .4-2 1.1-2.8l1.8-2c.8-.9 1.4-2 1.7-3.2l3.2-14.1c.2-1.1 0-2.2-.7-3.1l-.8-1.1c-.6-.8-1.8-.8-2.4.1-2.4 3.5-7.7 12.4-7.6 22.2 0 .6-.5 1.2-1.1 1.2-.4 0-.8.3-1 .6l-2.1 4c-.2.4-.6.6-1.1.6h-3.8c-.8 0-1.4-.7-1.2-1.5l.9-3.6c0-.2.1-.3.2-.4l5.9-8c.1-.1.1-.2.2-.3.6-1.7 6.2-16.6 1-20.3-5.8-4.3-6.7-3-9.8-8.2z"/></g><g id="g130" transform="matrix(.60359 0 0 .60359 -314.419 -64.1)"><path id="path128" d="M1010.8 285c-.9-1.1-2.3-1.5-3.6-1.1-.5.2-4.1 1.4-9.2 4 2.2-10 4.1-22.2 4.2-22.8.2-1.3-.3-2.6-1.4-3.3-1-.7-2.4-.8-3.5-.2-4.9 2.8-8.3 7.5-10.6 11.7-5.7-27.2-15.8-45.1-26.6-45.1s-20.8 17.9-26.6 45.1c-2.3-4.2-5.7-8.9-10.6-11.7-1.1-.6-2.5-.6-3.5.2-1 .7-1.6 2-1.4 3.3.1.7 2 13.2 4.3 23.3-5.2-2.9-8.7-4.3-9.3-4.4-1.3-.5-2.8-.1-3.7 1-.9 1.1-1 2.7-.3 3.9.1.2 8.7 15.1 11.7 28.4l.9 4c4.8 21.9 10 46.2 26.4 54.1 1.1 4 2.3 9.3 1.9 11.8-.2 1 .1 2 .7 2.8.6.8 1.6 1.2 2.5 1.2h13.8c1 0 1.9-.4 2.5-1.2.6-.8.9-1.8.7-2.8-.4-2.4.8-7.8 1.9-11.8 16.4-7.9 21.6-32.2 26.4-54.1l.9-4c2.9-13.3 11.6-28.2 11.7-28.4.7-1.3.6-2.8-.2-3.9zm-35.1 10.9c0-2.4-.1-4.8-.2-7.1 3.7-.6 7-1.3 9-1.7.3 2.3.6 4.6.9 7-1.2.2-5.1 1-9.7 1.8zm-3.4 11.2c-.1 0-.1.1 0 0-3.4.7-7.8 1.4-10.6 1.7v-7.5c2.8-.2 6.8-.8 10.8-1.4-.1 2.4-.1 4.8-.2 7.2zm-37.7-13c.3-2.4.6-4.7.9-7 2 .4 5.3 1 9 1.7-.1 2.3-.1 4.7-.2 7.1-4.6-.8-8.5-1.6-9.7-1.8zm13.1-4.8c3.9.7 7.9 1.2 10.6 1.4v7.2c-2.8-.2-6.8-.8-10.8-1.5.1-2.4.1-4.7.2-7.1zm14-9.7c2.6-.2 6.3-.7 10-1.3.2 2.5.4 5 .5 7.6-3.9.7-7.8 1.2-10.5 1.4zm0-3.4v-7.1c2.3-.2 5.6-.6 8.8-1.2.3 2.2.6 4.5.8 7-3.6.6-7.1 1.1-9.6 1.3zm0-10.5V258c1.9-.2 4.4-.5 7-.9.5 2.3.9 4.8 1.3 7.5-3.1.5-6.1 1-8.3 1.1zm-3.4 0c-2.2-.2-5.2-.6-8.4-1.1.4-2.7.9-5.2 1.3-7.5 2.6.4 5.1.8 7 .9zm0 3.4v7.1c-2.5-.2-6.1-.7-9.7-1.3.2-2.4.5-4.7.8-7 3.4.6 6.6 1.1 8.9 1.2zm0 10.5v7.7c-2.7-.2-6.6-.8-10.5-1.4.1-2.6.3-5.2.5-7.6 3.8.6 7.4 1.1 10 1.3zm0 21.7v7.5c-2.8-.3-7.2-1-10.6-1.6-.1-2.5-.1-4.9-.2-7.3 4.1.7 8.1 1.3 10.8 1.4zm3.4-3.4v-7.2c2.8-.2 6.7-.8 10.6-1.4.1 2.3.1 4.7.1 7.2-4 .7-8 1.3-10.7 1.4zm22.3-14.2c-1.9.4-5.1 1-8.6 1.6-.1-2.6-.3-5.2-.5-7.6 3.1-.5 5.9-1.1 7.8-1.5.5 2.5.9 4.9 1.3 7.5zm-9.5-9.3c-.2-2.4-.5-4.7-.8-6.9 2.5-.5 4.9-.9 6.7-1.2.6 2.2 1.1 4.4 1.6 6.8-1.8.2-4.5.7-7.5 1.3zm-1.3-10.3c-.4-2.6-.8-5.1-1.3-7.5 2-.4 3.8-.7 5.2-1 .8 2.3 1.6 4.7 2.3 7.3-1.6.3-3.8.7-6.2 1.2zm-2-10.8c-.5-2.3-1-4.4-1.6-6.4 1.8-.3 3.2-.6 3.5-.7.9 1.9 1.9 3.9 2.8 6.2-1.3.3-3 .6-4.7.9zm-3.2.5c-2.4.4-4.6.7-6.3.8v-6.5c1.4-.1 3.1-.4 4.8-.7.4 2 1 4.1 1.5 6.4zm-6.3-9.1v-10.1c1.1 2.1 2.4 5.3 3.8 9.6-1.5.2-2.8.4-3.8.5zm-3.4 0c-1.1-.1-2.4-.3-3.8-.5 1.3-4.3 2.7-7.5 3.8-9.6zm0 3.4v6.5c-1.7-.1-4-.5-6.3-.8.5-2.3 1-4.4 1.6-6.3 1.7.2 3.4.5 4.7.6zm-9.5 5.2c-1.7-.3-3.3-.6-4.7-.9.9-2.3 1.8-4.3 2.8-6.2.3.1 1.7.3 3.5.7-.6 2-1.1 4.1-1.6 6.4zm-.7 3.3c-.5 2.4-.9 4.9-1.3 7.5-2.3-.4-4.5-.8-6.2-1.2.8-2.6 1.5-5 2.3-7.3 1.4.3 3.2.6 5.2 1zm-1.8 10.8c-.3 2.2-.6 4.5-.8 6.9-3-.5-5.6-1-7.5-1.4.5-2.4 1.1-4.6 1.6-6.8 1.8.4 4.2.9 6.7 1.3zm-1.2 10.3c-.2 2.5-.4 5-.5 7.6-3.5-.6-6.7-1.2-8.6-1.6.4-2.6.8-5.1 1.3-7.5 1.9.4 4.7 1 7.8 1.5zm-.8 21.7c0 1.7 0 3.5.1 5.3-2.7-2.5-5.3-4.8-7.9-6.8 2 .4 4.7.9 7.8 1.5zm14 12.8v8.1c-2.5-3.3-5-6.4-7.6-9.2 2.8.5 5.6.9 7.6 1.1zm3.4 0c1.9-.2 4.6-.5 7.1-1-2.6 3.3-5.1 7-7.1 11.1zm14-8.6c0-1.4.1-2.8.1-4.2 2.2-.4 4.3-.8 6-1.1-2.1 1.6-4.1 3.3-6.1 5.3zm18.1-29.6c-1.1 6-2.5 13.3-3.9 18.4-.1.1-.2.1-.3.2-.3-2.5-.6-4.9-1-7.3 1-2.9 2.8-7.9 5.2-11.3zm-22.3-30.9c-.8.2-1.8.3-2.8.5-1-3.2-2-6-3-8.2 1.9 1.8 3.8 4.3 5.8 7.7zm-17.2-7.6c-1 2.2-2 4.9-3 8.2-1-.2-2-.4-2.8-.5 2-3.5 3.9-6 5.8-7.7zm-23 49.7c-.4 2.6-.7 5.2-1 7.9-1.5-5.1-3-12.9-4.1-19.1 2.4 3.4 4.2 8.4 5.1 11.2zm-3.3 34.6-.9-4c-1.6-7.5-4.8-15.2-7.6-21 12.9 7.5 36.8 25.3 49.6 59.8-10.9-18.9-32-40.4-33.1-41.5-.4-.4-1.1-.4-1.6 0-.4.4-.4 1.2 0 1.6.3.3 32.1 32.8 38 52.5-3.5 2.6-7.6 4.1-12.5 4.1-1.4 0-2.7-.1-4-.3-12.1-9.9-19.6-37.3-19.6-37.6-.2-.6-.8-1-1.4-.8-.6.2-.9.8-.8 1.4.3 1.2 6.4 23.6 17.1 35.5-13.8-6.5-18.6-28.4-23.2-49.7Zm35.6 64.5h-7.1c-.2-2.2-.6-4.5-1.1-6.7 1.5.2 3 .3 4.6.3 1.6 0 3.2-.1 4.6-.3-.5 2.2-.9 4.5-1 6.7zm29.3-68.6-.9 4c-3.3 15.4-6.8 31.1-13.6 41.1-.6-2-1.3-4-1.9-6 9.2-12.4 12.6-34.6 12.8-35.6.1-.6-.3-1.2-.9-1.3-.6-.1-1.2.3-1.3.9 0 .2-3.2 21.1-11.5 33.3-3-8.1-6.5-15.3-10.4-21.7 8-19.7 25.2-31.1 35.6-36.5-2.8 6-6.2 14-7.9 21.8z"/></g></svg>