<svg xmlns="http://www.w3.org/2000/svg" xml:space="preserve" id="Layer_1" width="512" height="512" x="0" y="0" version="1.1"><style id="style2" type="text/css">.st1{fill:none;stroke:#000;stroke-width:16;stroke-miterlimit:10}.st2{fill:#fff}</style><path id="path4" d="M47.356 146.133s39.385-4.183 71.43 0c0 0 7.34-34.175-35.755-34.175-43.094 0-35.675 34.175-35.675 34.175z" style="stroke-width:.789271"/><path id="path6" d="M15.864 163.971s63.537-16.811 133.94 0c0 0 4.735 7.893-4.736 8.919-9.471 1.026-20.995 0-20.995 0s-7.34 19.416 8.92 24.704c0 0-5.289 13.102-19.97 6.314 0 0-11.917 13.102-29.597 13.102s-30.782-14.207-30.782-14.207-12.628 9.945-20.994-5.288c0 0 16.811-4.736 9.471-25.73 0 0-16.259 2.13-20.995 1.578-4.814-.473-5.288-4.104-4.262-9.392z" style="stroke-width:.789271"/><path id="path8" d="M62.116 222.772S72.613 239.03 83.11 239.03c10.498 0 21.547-16.26 21.547-16.26l4.973 1.421-2.763 36.701H58.88l-1.658-37.016z" style="stroke-width:.789271"/><path id="path10" d="M224.942 222.772s-6.55-.474-23.283 0c-16.733.473-22.495 22.415-22.495 22.415-4.656 8.287-20.836 18.785-20.836 18.785-13.97-36.465-38.359-38.122-38.359-38.122l-2.21 43.568s-4.656 25.73-3.552 41.91c1.105 16.18 19.732 72.06 19.732 72.06-14.522 4.657-50.592 4.105-50.592 4.105l-50.829-3.789c18.39-43.883 22.652-81.768 19.1-96.291-3.551-14.523-5.998-60.853-5.998-60.853s-7.814 2.842-17.364 9.945-19.81 54.854-19.81 54.854-1.737 22.258-2.448 32.597c-.71 10.26 2.131 16.654 9.235 17.364 7.103.71 9.234-6.709 9.234-6.709l3.157-38.2 7.814-20.916c4.578 9.55 3.868 35.754 3.868 35.754s-11.997 48.856-18.785 65.115c-6.709 16.259 6.709 22.257 6.709 22.257h17.68v77.901s-.08 2.29 1.104 4.815H6.946c-1.895 0-3.631.79-4.894 2.052-1.263 1.263-2.052 3-2.052 4.893 0 3.789 3.078 6.946 6.946 6.946h145.936c1.894 0 3.63-.79 4.893-2.052 1.263-1.263 2.052-3 2.052-4.894a6.906 6.906 0 0 0-6.945-6.945h-25.415c.632-1.184.868-1.973.868-1.973v-81.927c22.653 2.447 19.259-11.76 19.259-11.76s-16.733-53.67-20.837-72.613c-4.104-18.942 4.34-40.568 4.34-40.568l10.42 10.418s7.655 12.865 15.074 13.18c7.42.238 15.628-11.76 15.628-11.76 12.313-10.654 18.942-23.283 18.942-23.283s12.866 1.895 16.97-8.76c4.104-10.656-7.104-17.286-7.104-17.286h23.836c9.708-4.972.08-12.233.08-12.233zM72.85 481.337c.947-1.342 1.184-2.368 1.184-2.368V398.7h25.335v80.664s.237.868 1.026 1.973z" style="stroke-width:.789271"/><path id="polygon12" d="M1229.8 606.6h29.3v11.1l-14.7 7.9-14.6-9.5z" transform="translate(-558.41 -181.02) scale(.78927)"/><path id="polygon14" d="m1244.8 627-15.5-13v-7.1h30.1v10z" style="opacity:.37" transform="translate(-558.41 -181.02) scale(.78927)"/><path id="path16" d="M505.054 481.337h-38.042l-.316-43.568 1.263-161.406c5.84-4.893 7.813 4.262 7.813 4.262l4.578 48.54s1.658 12.708 11.76 12.708c10.103 0 9.472-13.023 9.472-13.023s-3.947-59.353-11.366-80.506c-7.498-21.152-25.414-22.81-25.414-22.81l-5.841 33.228s5.84 6.157 0 13.023c-5.84 6.867-13.339 0-13.339 0h-43.489s-7.498 9.156-12.707 2.605c-5.209-6.55 0-14.996 0-14.996l-7.814-33.939c-21.547 3.552-34.57 37.49-34.57 37.49-16.259-9.47-23.125-21.152-23.125-21.152-4.262-13.97-16.338-19.1-16.338-19.1h-15.312s-17.6-.868-17.6 5.367 5.524 7.182 5.524 7.182h22.81s-8.13 0-6.867 13.339c1.263 13.339 17.364 12.234 17.364 12.234 7.498 15.706 22.495 25.493 29.993 32.36 7.498 6.866 15.627-.632 15.627-.632l15.628-19.337 4.972 6.867v201.106h-20.6c-1.894 0-3.63.79-4.893 2.052-1.263 1.263-2.052 3-2.052 4.894 0 3.788 3.078 6.945 6.945 6.945h145.936c1.895 0 3.631-.79 4.894-2.052 1.263-1.263 2.052-3 2.052-4.893 0-3.631-3.078-6.788-6.946-6.788zm-106.63-196.765h50.592v28.334l-25.651 17.838-24.941-20.837zm19.653 78.532s1.657-3.946 5.683-3.946c4.025 0 6.077 3.551 6.077 3.551v118.549h-11.76z" style="stroke-width:.789271"/><path id="path18" d="m394.004 222.772 8.13 36.464h43.173l8.13-36.464-7.025-1.973S437.73 233.9 423.917 233.9c-13.812 0-23.283-13.101-23.283-13.101z" style="stroke-width:.789271"/><path id="path20" d="M395.267 132.637v-18.074s1.578-5.21 6.314-5.21h43.41s6.314 1.027 6.314 4.184v19.1s38.674 5.21 43.173 27.703c0 0 2.605 11.524-21.468 13.339 0 0 3.157-12.55-10.182-12.786 0 0 1.263 29.045-13.733 42.62-14.996 13.576-25.257 11.208-25.257 11.208s-19.573-.552-28.413-13.891-10.971-29.913-11.208-38.753c0 0-10.97-2.052-10.734 11.286 0 0-22.731-.552-20.916-15.706 1.658-15.075 31.966-23.994 42.7-25.02z" style="stroke-width:.789271"/><path id="rect22" d="M245.7 34.688h14.444v167.168H245.7z" style="stroke-width:.789271"/><path id="path24" d="M252.882 146.133s6.393-50.355-63.852-54.617" class="st1"/><path id="path26" d="M252.33 145.581s-6.393-50.355 63.852-54.618" class="st1"/><circle id="circle28" cx="174.823" cy="90.963" r="24.467" style="stroke-width:.789271"/><circle id="circle30" cx="333.94" cy="90.963" r="24.467" style="stroke-width:.789271"/><path id="polygon32" d="m1015 273.3 13.1-22.7 13.2 22.7 13.1 22.7h-52.5z" transform="translate(-558.41 -181.02) scale(.78927)"/><path id="path34" d="M171.824 481.337h7.577a6.906 6.906 0 0 1 6.946 6.945 6.906 6.906 0 0 1-6.946 6.946h-7.577a6.906 6.906 0 0 1-6.945-6.946c0-3.788 3.078-6.945 6.945-6.945z" style="stroke-width:.789271"/><path id="path36" d="M335.914 481.337h7.577a6.906 6.906 0 0 1 6.945 6.945 6.906 6.906 0 0 1-6.945 6.946h-7.577a6.906 6.906 0 0 1-6.946-6.946c.079-3.788 3.157-6.945 6.946-6.945z" style="stroke-width:.789271"/><g id="g40" transform="translate(-558.41 -181.02) scale(.78927)"><path id="path38" d="M925.1 352.5v-1.1c0-1.3.3-2.4.8-3.4.6-.9 1.2-1.8 2.1-2.5.8-.7 1.7-1.5 2.5-2.1 1-.8 1.9-1.7 2.6-2.5.7-.8 1.1-1.8 1.1-3 0-1.7-.5-2.9-1.5-3.7-1-.7-2.8-1.1-5.3-1.1-1.4 0-2.7.2-4.1.5-1.4.3-2.6.8-3.6 1.2v-4.5c1.1-.6 2.4-1 4-1.3 1.6-.3 3.2-.5 5-.5 3.6 0 6.3.8 8.1 2.4 1.8 1.6 2.7 3.8 2.7 6.5 0 1.8-.4 3.3-1.3 4.4-.9 1.1-2 2.3-3.4 3.4-.9.7-1.6 1.4-2.3 2-.7.6-1.2 1.2-1.6 1.9-.4.7-.6 1.5-.6 2.5v.8h-5.2zm-.2 7.9v-4h5.6v4z" class="st2"/></g><g id="g44" transform="translate(-558.41 -181.02) scale(.78927)"><path id="path42" d="M1126.1 352.5v-1.1c0-1.3.3-2.4.8-3.4.6-.9 1.2-1.8 2.1-2.5.8-.7 1.7-1.5 2.5-2.1 1-.8 1.9-1.7 2.6-2.5.7-.8 1.1-1.8 1.1-3 0-1.7-.5-2.9-1.5-3.7-1-.7-2.8-1.1-5.3-1.1-1.4 0-2.7.2-4.1.5-1.4.3-2.6.8-3.6 1.2v-4.5c1.1-.6 2.4-1 4-1.3 1.6-.3 3.2-.5 5-.5 3.6 0 6.3.8 8.1 2.4 1.8 1.6 2.7 3.8 2.7 6.5 0 1.8-.4 3.3-1.3 4.4-.9 1.1-2 2.3-3.4 3.4-.9.7-1.6 1.4-2.3 2-.7.6-1.2 1.2-1.6 1.9-.4.7-.6 1.5-.6 2.5v.8h-5.2zm-.2 7.9v-4h5.6v4z" class="st2"/></g></svg>