<svg width="90" height="91" viewBox="0 0 90 91" fill="none" xmlns="http://www.w3.org/2000/svg">
  <g clip-path="url(#clip0_1846_8813)">
    <path d="M43.3242 4.00342H46.55V41.3456H43.3242V4.00342Z" fill="black" />
    <path d="M44.9296 28.8979C44.9296 28.8979 46.357 17.6502 30.666 16.6963" stroke="black" stroke-width="3.57427"
      stroke-miterlimit="10" />
    <path d="M44.8053 28.7749C44.8053 28.7749 43.3778 17.5271 59.0689 16.5732" stroke="black" stroke-width="3.57427"
      stroke-miterlimit="10" />
    <path
      d="M27.4918 22.0397C30.5108 22.0397 32.9582 19.5923 32.9582 16.5733C32.9582 13.5543 30.5108 11.1069 27.4918 11.1069C24.4728 11.1069 22.0254 13.5543 22.0254 16.5733C22.0254 19.5923 24.4728 22.0397 27.4918 22.0397Z"
      fill="black" />
    <path
      d="M63.0367 22.0397C66.0557 22.0397 68.5031 19.5923 68.5031 16.5733C68.5031 13.5543 66.0557 11.1069 63.0367 11.1069C60.0177 11.1069 57.5703 13.5543 57.5703 16.5733C57.5703 19.5923 60.0177 22.0397 63.0367 22.0397Z"
      fill="black" />
    <path d="M42.6556 4.00318L44.9654 0L47.2932 4.00318L49.603 8.00635H40.3457L42.6556 4.00318Z" fill="black" />
    <path
      d="M26.8032 17.9674V17.773C26.8032 17.5429 26.8568 17.3508 26.9439 17.1743C27.0489 17.0157 27.1562 16.8571 27.3148 16.7342C27.4555 16.6114 27.6141 16.4706 27.7549 16.3634C27.9313 16.2227 28.0899 16.0641 28.2128 15.9233C28.3357 15.7826 28.4072 15.6061 28.4072 15.3939C28.4072 15.0945 28.32 14.8823 28.1436 14.7416C27.9671 14.6187 27.6499 14.5472 27.2098 14.5472C26.9641 14.5472 26.734 14.583 26.486 14.6344C26.2403 14.688 26.028 14.7751 25.8516 14.8466V14.0535C26.0459 13.9485 26.2738 13.8771 26.5575 13.8235C26.8412 13.7698 27.1227 13.7363 27.4399 13.7363C28.0743 13.7363 28.5501 13.8771 28.8673 14.1585C29.1846 14.44 29.3432 14.8287 29.3432 15.3045C29.3432 15.6218 29.2717 15.8854 29.1131 16.0797C28.9545 16.2741 28.7601 16.4863 28.5144 16.6784C28.3558 16.8013 28.2329 16.9241 28.1078 17.0314C27.9827 17.1386 27.8956 17.2436 27.8263 17.3664C27.7549 17.4893 27.7213 17.63 27.7213 17.8065V17.9473H26.8054V17.9651L26.8032 17.9674ZM26.7675 19.3613V18.6554H27.7549V19.3613H26.7675Z"
      fill="white" />
    <path
      d="M62.2407 17.9674V17.773C62.2407 17.5429 62.2943 17.3508 62.3815 17.1743C62.4864 17.0157 62.5937 16.8571 62.7523 16.7342C62.893 16.6114 63.0516 16.4706 63.1924 16.3634C63.3688 16.2227 63.5274 16.0641 63.6503 15.9233C63.7732 15.7826 63.8447 15.6061 63.8447 15.3939C63.8447 15.0945 63.7575 14.8823 63.5811 14.7416C63.4046 14.6187 63.0874 14.5472 62.6473 14.5472C62.4016 14.5472 62.1715 14.583 61.9235 14.6344C61.6755 14.6857 61.4655 14.7751 61.2891 14.8466V14.0535C61.4834 13.9485 61.7113 13.8771 61.995 13.8235C62.2787 13.7698 62.5602 13.7363 62.8774 13.7363C63.5118 13.7363 63.9876 13.8771 64.3048 14.1585C64.6221 14.44 64.7807 14.8287 64.7807 15.3045C64.7807 15.6218 64.7092 15.8854 64.5506 16.0797C64.392 16.2741 64.1976 16.4863 63.9519 16.6784C63.7933 16.8013 63.6704 16.9241 63.5453 17.0314C63.4225 17.1363 63.3331 17.2436 63.2639 17.3664C63.1924 17.4893 63.1589 17.63 63.1589 17.8065V17.9473H62.2429V17.9651L62.2407 17.9674ZM62.205 19.3613V18.6554H63.1924V19.3613H62.205Z"
      fill="white" />
    <path
      d="M11.4033 35.3873C11.4033 35.3873 13.9366 35.2599 15.5182 35.9569C17.102 36.6539 20.2675 43.2708 20.2675 43.2708C20.2675 43.2708 20.9645 43.1747 22.736 43.2708C24.5097 43.3668 26.2812 43.6193 26.2812 43.6193C26.2812 43.6193 26.7235 45.0132 26.2812 46.1525C26.2812 46.1525 23.8127 46.5323 21.4693 46.6596C19.126 46.7869 18.7484 46.4072 17.7342 45.3304C16.72 44.2537 16.3403 43.6215 16.3403 43.6215C16.3403 43.6215 16.4676 46.5345 16.4028 49.8273C16.4028 49.8273 10.0071 50.6494 5.25781 49.8273C5.25781 49.8273 5.4477 45.9023 5.51024 42.2298C5.57279 38.5572 8.10605 34.5049 8.10605 34.5049L11.3988 35.3917L11.4033 35.3873Z"
      fill="#34384E" />
    <path
      d="M15.5192 25.4463C15.5192 25.4463 15.3294 30.9551 15.0121 32.0944C14.6949 33.2337 11.1497 33.1712 11.1497 33.1712C11.1497 33.1712 11.0872 34.755 11.4021 35.3872C11.7194 36.0194 10.5801 36.8437 9.43852 36.0194C8.29699 35.1951 8.10934 34.5003 8.10934 34.5003L8.36177 30.6379C8.36177 30.6379 7.09514 28.4219 8.36177 27.535C9.62841 26.6481 10.1355 28.6117 10.0707 29.6885H10.7029V27.22C10.7029 27.22 12.6017 26.9028 13.1714 25.701C13.1714 25.701 14.3755 26.0182 15.5148 25.4485L15.5192 25.4463Z"
      fill="#C07363" />
    <path
      d="M17.1009 23.2929C17.1009 23.2929 16.0241 22.406 14.1879 22.8506C14.1879 22.8506 12.4789 21.2667 10.8951 21.5214C9.31123 21.7738 8.4266 23.7374 8.4266 23.7374C8.4266 23.7374 6.33789 24.2445 6.33789 26.4606C6.33789 28.0355 7.61346 29.8606 8.35512 30.7899L8.36405 30.6402C8.36405 30.6402 7.09742 28.4242 8.36405 27.5373C9.63068 26.6504 10.1378 28.6141 10.073 29.6908H10.7052V27.2223C10.7052 27.2223 12.604 26.9051 13.1737 25.7033C13.1737 25.7033 14.3778 26.0205 15.517 25.4508C15.517 25.4508 15.4657 26.9587 15.3696 28.5604C15.3696 28.5604 17.7956 26.9073 17.7331 25.4508C17.6705 23.9943 17.1009 23.2973 17.1009 23.2973V23.2929Z"
      fill="#1E0E08" />
    <path
      d="M8.11012 34.5005C8.11012 34.5005 4.81733 36.1469 3.93047 37.1588C3.04584 38.173 0.195358 44.5687 0.00547551 45.9627C-0.184407 47.3567 4.62745 52.0412 4.62745 52.0412C4.62745 52.0412 5.76674 50.5847 6.90604 50.0776C6.90604 50.0776 6.14651 49.0634 5.44953 47.4818C4.75255 45.8979 4.05333 45.2032 4.05333 45.2032C4.05333 45.2032 6.77871 41.2134 7.53824 40.2014C8.29777 39.1872 8.01406 35.9436 8.10789 34.5027L8.11012 34.5005Z"
      fill="#34384E" />
    <path
      d="M17.4196 62.5695C16.9973 60.0117 16.7874 53.6249 16.7874 53.6249C16.7874 53.6249 16.4188 49.1281 16.345 43.6215C16.2713 38.1149 14.2541 35.5861 14.2541 35.5861L13.2555 35.4453C15.3599 37.7172 14.8885 41.7852 14.8885 41.7852H9.12726C8.7475 38.24 6.71463 35.251 6.71463 35.251L5.93053 35.7045C5.93053 35.7045 8.30295 41.3205 7.80478 44.6982C7.46299 47.0125 6.42869 47.819 5.81213 48.0982L6.91122 50.0797L5.04143 51.3352C4.67954 53.8528 4.01606 58.9104 4.06074 61.7497C4.12106 65.6322 4.42264 73.1471 4.42264 73.1471C6.70123 74.5813 10.4162 73.8754 10.4162 73.8754L11.665 62.5695L12.5764 73.6542C16.0033 74.4137 18.436 72.9796 18.436 72.9796C18.436 72.9796 17.844 65.1274 17.4218 62.5718L17.4196 62.5695Z"
      fill="#5B9572" />
    <path d="M10.0742 43.271H14.8034V47.292L12.4377 49.5081L10.0742 47.989V43.271Z" fill="#484E67" />
    <path
      d="M31.5201 42.9269C31.5201 42.9269 30.8544 42.8956 30.1909 42.6409C29.5252 42.3885 29.1142 42.6097 28.3546 42.9269C27.5951 43.2441 27.4052 43.3066 27.4052 43.3066L24.4922 42.5315L24.7446 47.1691L28.4172 45.9337C28.4172 45.9337 29.4627 46.3448 30.8857 46.2822C32.3109 46.2197 34.4957 45.65 34.4309 44.3834C34.4309 44.3834 34.9357 43.9724 34.8263 43.4653C34.7168 42.9582 34.241 43.148 34.241 43.148C34.241 43.148 34.5582 42.6745 33.83 42.5315C33.1017 42.3885 31.5179 42.9269 31.5179 42.9269H31.5201Z"
      fill="#606B7D" />
    <path
      d="M29.668 43.7176C30.4476 43.7667 31.2831 43.9946 32.0449 43.7801C32.3933 43.6237 32.2414 43.2529 31.9644 43.1032C31.8326 43.0183 31.6785 42.967 31.5199 42.9268C31.6807 42.9424 31.8416 42.9826 31.9912 43.0563C32.2079 43.1569 32.4447 43.4428 32.2884 43.6952C31.8862 44.2582 30.2711 43.8404 29.668 43.7176Z"
      fill="#515151" />
    <path
      d="M34.2416 43.1479C33.8038 43.4719 33.328 43.731 32.8164 43.9209C33.2543 43.5947 33.7301 43.3401 34.2416 43.1479Z"
      fill="#515151" />
    <path
      d="M34.4328 44.3833C33.8051 44.7742 33.041 45.0401 32.2949 44.953C33.0388 44.8815 33.7336 44.638 34.4328 44.3833Z"
      fill="#515151" />
    <path
      d="M4.05469 52.526C4.05469 52.526 5.57598 50.2474 7.28716 49.7827C7.28716 49.7827 9.35577 53.8551 9.65065 54.3622C9.94552 54.8693 10.714 55.3586 10.4102 56.6207C10.2091 57.4584 9.99914 57.6014 9.66182 57.6439C9.66182 57.6439 9.02962 57.7913 8.56496 57.6439C8.56496 57.6439 7.6781 57.8963 7.34078 57.4339C7.34078 57.4339 6.68847 57.0608 6.58348 56.4688C6.58348 56.4688 6.62369 56.7436 7.06601 56.4688C7.06601 56.4688 7.28046 56.3728 7.24695 56.0511C7.13973 55.649 6.8024 55.7562 6.8024 55.7562C6.8024 55.7562 6.52763 55.5864 6.48519 55.1866C6.44274 54.7844 6.86495 54.8269 6.02053 54.2997C5.17611 53.7725 4.05469 52.526 4.05469 52.526Z"
      fill="#606B7D" />
    <path
      d="M11.6604 62.5698C11.6604 62.0113 11.7006 61.4528 11.7565 60.8966C11.8123 60.3404 11.8995 59.7863 11.9888 59.2346C12.1988 58.1377 12.4646 57.0409 12.9003 56.0088C12.7595 56.5494 12.621 57.0878 12.5026 57.6328C12.3865 58.1779 12.2681 58.7208 12.1787 59.2681C11.971 60.3605 11.8213 61.464 11.6582 62.5698H11.6604Z"
      fill="#34384E" />
    <path
      d="M4.3955 72.555C4.3955 72.555 3.70075 72.5036 3.78564 74.0495C3.87053 75.5953 4.96738 82.3909 5.05227 83.5726C5.13716 84.7544 5.42757 85.5139 4.71271 86.6532C3.99786 87.7925 2.94122 89.2289 2.98366 90.0309C3.02611 90.8329 8.63994 90.7055 9.14704 90.0309C9.65413 89.3562 8.63994 85.8088 8.76727 85.0068C8.8946 84.2048 10.0339 78.591 10.541 76.5224C11.0481 74.4538 11.4703 73.3145 10.541 73.2721C9.61169 73.2296 4.39773 72.5527 4.39773 72.5527L4.3955 72.555Z"
      fill="#606B7D" />
    <path
      d="M12.5145 72.9709C12.5145 72.9709 11.8041 72.9351 12.099 74.6664C12.3939 76.3977 13.6181 82.6437 13.9152 84.2477C14.2101 85.8516 14.1676 89.694 14.1676 89.694C14.1676 89.694 16.8684 89.9889 18.8946 90.0313C20.9207 90.0737 24.9731 90.0313 25.5651 90.0313C26.157 90.0313 26.5368 88.2151 24.9329 87.4556C23.3289 86.6961 20.5008 86.1041 19.7412 85.3021C18.9817 84.5001 18.6019 84.1315 18.8544 81.5089C19.1068 78.8863 20.2483 72.5531 18.4322 72.2583C16.616 71.9634 12.5168 72.9687 12.5168 72.9687L12.5145 72.9709Z"
      fill="#606B7D" />
    <path
      d="M11.1495 33.1712C11.1495 33.1712 10.2627 32.9813 9.78906 32.6328C9.78906 32.6328 10.2314 33.6805 11.1495 33.8369V33.1712Z"
      fill="#945248" />
    <path
      d="M13.0028 31.1471C12.7616 31.1471 12.5404 31.0711 12.3572 30.9416C12.0758 30.7405 11.8926 30.4099 11.8926 30.0391H14.0975V30.0547C14.0975 30.6601 13.6082 31.1493 13.0028 31.1493V31.1471Z"
      fill="#312725" />
    <path
      d="M13.575 30.3744H12.4067C12.3508 30.3744 12.2995 30.352 12.2615 30.3141C12.2235 30.2761 12.2012 30.2247 12.2012 30.1688V30.0259H13.8252V30.1242C13.8252 30.189 13.8007 30.247 13.7604 30.2917C13.7135 30.3431 13.6487 30.3744 13.575 30.3744Z"
      fill="white" />
    <path
      d="M13.8245 28.5403C13.8289 28.6765 13.8982 28.7838 13.9808 28.7815C14.0612 28.7793 14.1238 28.6676 14.1193 28.5313C14.1149 28.3951 14.0456 28.2878 13.963 28.2901C13.8803 28.2923 13.82 28.404 13.8245 28.5403Z"
      fill="#21263D" />
    <path
      d="M12.0571 28.5984C12.0616 28.7346 12.1309 28.8419 12.2113 28.8396C12.2939 28.8374 12.3565 28.7257 12.3498 28.5894C12.3453 28.4532 12.2761 28.3459 12.1956 28.3482C12.113 28.3504 12.0504 28.4621 12.0549 28.5984H12.0571Z"
      fill="#21263D" />
    <path
      d="M12.9258 28.4331C12.9593 28.6655 12.9816 28.8107 13.0107 28.9134C13.0397 29.0162 13.0777 29.0832 13.1268 29.1346C13.1425 29.1525 13.1559 29.1592 13.1715 29.1681C13.2251 29.1994 13.3033 29.2307 13.3726 29.2619C13.4061 29.2776 13.4373 29.2932 13.4575 29.3066L13.4776 29.32L13.5066 29.2954L13.4709 29.3066L13.4776 29.3222L13.5066 29.2954L13.4709 29.3066V29.32C13.4731 29.3446 13.453 29.3915 13.3949 29.4384C13.3346 29.4831 13.2408 29.5255 13.109 29.5389C13.0643 29.5434 13.033 29.5836 13.0375 29.6283C13.0419 29.673 13.0822 29.7042 13.1268 29.6998C13.2832 29.6819 13.4061 29.6328 13.4932 29.5657C13.5803 29.4987 13.6339 29.4138 13.6339 29.3222C13.6339 29.3044 13.6317 29.2843 13.6272 29.2664C13.6161 29.2329 13.5982 29.2172 13.5848 29.2038C13.558 29.1793 13.5245 29.1636 13.491 29.1435C13.4373 29.1167 13.377 29.0899 13.3279 29.0676C13.3033 29.0564 13.281 29.0452 13.2653 29.0363L13.2475 29.0251H13.2452L13.2318 29.0408L13.2475 29.0251H13.2452L13.2318 29.0408L13.2475 29.0251C13.214 28.9872 13.1939 28.9581 13.167 28.8688C13.1425 28.7816 13.1179 28.6409 13.0866 28.4086C13.0799 28.3639 13.0397 28.3349 12.9973 28.3393C12.9526 28.346 12.9235 28.3862 12.928 28.4287L12.9258 28.4331Z"
      fill="#312725" />
    <path
      d="M11.7894 29.1861C11.7916 29.2822 11.9725 29.3559 12.1915 29.3492C12.4104 29.3425 12.5846 29.2576 12.5802 29.1615C12.5779 29.0655 12.397 28.9918 12.1781 28.9985C11.9591 29.0052 11.7849 29.0901 11.7871 29.1861H11.7894Z"
      fill="#6D3B0D" />
    <path
      d="M13.7422 29.1232C13.7444 29.2192 13.9254 29.2929 14.1443 29.2862C14.3632 29.2795 14.5375 29.1946 14.5352 29.0986C14.533 29.0025 14.3521 28.9288 14.1331 28.9377C13.9142 28.9444 13.74 29.0293 13.7422 29.1254V29.1232Z"
      fill="#6D3B0D" />
    <path
      d="M11.9299 28.1652C11.9478 28.1429 11.9857 28.1139 12.0371 28.096C12.0885 28.0759 12.1533 28.0647 12.2158 28.0647C12.3141 28.0647 12.4102 28.0915 12.4705 28.1384C12.5219 28.1786 12.5978 28.1697 12.638 28.1161C12.6782 28.0647 12.6693 27.9888 12.6157 27.9485C12.4995 27.8592 12.3543 27.8257 12.2158 27.8257C12.1242 27.8257 12.0349 27.8413 11.9522 27.8704C11.8696 27.9016 11.7958 27.9463 11.74 28.0156C11.6998 28.0669 11.7087 28.1429 11.7601 28.1831C11.8115 28.2233 11.8874 28.2144 11.9276 28.163L11.9299 28.1652Z"
      fill="#312725" />
    <path
      d="M13.7042 28.1449C13.7221 28.1248 13.7556 28.1047 13.8003 28.0891C13.8449 28.0734 13.8986 28.0645 13.9566 28.0645C14.0683 28.0645 14.1845 28.1002 14.247 28.1583C14.2962 28.203 14.3721 28.1985 14.4168 28.1494C14.4615 28.1002 14.457 28.0243 14.4079 27.9796C14.2828 27.8679 14.1152 27.8255 13.9566 27.8232C13.8762 27.8232 13.798 27.8344 13.7243 27.859C13.6506 27.8836 13.5836 27.9215 13.53 27.9796C13.4853 28.0288 13.4875 28.1047 13.5367 28.1494C13.5858 28.1941 13.6618 28.1918 13.7064 28.1427L13.7042 28.1449Z"
      fill="#312725" />
    <path
      d="M78.5979 35.3878C78.5979 35.3878 76.0646 35.2604 74.483 35.9574C72.8992 36.6544 69.7337 43.2713 69.7337 43.2713C69.7337 43.2713 69.0367 43.1752 67.2652 43.2713C65.4915 43.3673 63.72 43.6197 63.72 43.6197C63.72 43.6197 63.2777 45.0137 63.72 46.153C63.72 46.153 66.1885 46.5328 68.5319 46.6601C70.8753 46.7874 71.2528 46.4077 72.267 45.3309C73.2812 44.2542 73.6609 43.622 73.6609 43.622C73.6609 43.622 73.5336 46.535 73.5984 49.8278C73.5984 49.8278 79.9941 50.6499 84.7434 49.8278C84.7434 49.8278 84.5535 45.9028 84.491 42.2302C84.4284 38.5577 81.8952 34.5054 81.8952 34.5054L78.6024 35.3922L78.5979 35.3878Z"
      fill="#34384E" />
    <path
      d="M81.8906 34.5005C81.8906 34.5005 85.1834 36.1469 86.0703 37.1588C86.9572 38.173 89.8054 44.5665 89.9953 45.9605C90.1852 47.3544 85.3733 52.039 85.3733 52.039C85.3733 52.039 84.234 50.5824 83.0947 50.0753C83.0947 50.0753 83.8542 49.0611 84.5512 47.4795C85.2482 45.8957 85.9474 45.2009 85.9474 45.2009C85.9474 45.2009 83.222 41.2112 82.4625 40.1992C81.703 39.185 81.9867 35.9414 81.8929 34.5005H81.8906Z"
      fill="#34384E" />
    <path
      d="M72.5828 62.57C73.0051 60.0122 73.215 53.6254 73.215 53.6254C73.215 53.6254 73.5836 49.1285 73.6574 43.6219C73.7311 38.1153 75.7483 35.5866 75.7483 35.5866L76.7469 35.4458C74.6425 37.7177 75.1139 41.7857 75.1139 41.7857H80.8751C81.2549 38.2404 83.2878 35.2515 83.2878 35.2515L84.0719 35.7049C84.0719 35.7049 81.6995 41.321 82.1976 44.6987C82.5394 47.013 83.5737 47.8195 84.1903 48.0987L83.0912 50.0802L84.961 51.3357C85.3229 53.8533 85.9863 58.9109 85.9417 61.7502C85.8813 65.6327 85.5798 73.1476 85.5798 73.1476C83.3012 74.5818 79.5862 73.8759 79.5862 73.8759L78.3374 62.57L77.426 73.6547C73.9991 74.4142 71.5664 72.9801 71.5664 72.9801C71.5664 72.9801 72.1584 65.1279 72.5806 62.5723L72.5828 62.57Z"
      fill="#5B9572" />
    <path d="M79.9281 43.271H75.2012V47.292L77.5647 49.5081L79.9281 47.989V43.271Z" fill="#484E67" />
    <path
      d="M58.4819 42.9269C58.4819 42.9269 59.1476 42.8956 59.8111 42.6409C60.4768 42.3885 60.8878 42.6097 61.6473 42.9269C62.4069 43.2441 62.5968 43.3066 62.5968 43.3066L65.5098 42.5315L65.2574 47.1691L61.5848 45.9337C61.5848 45.9337 60.5393 46.3448 59.1163 46.2822C57.6911 46.2197 55.5063 45.65 55.5711 44.3834C55.5711 44.3834 55.0662 43.9724 55.1757 43.4653C55.2852 42.9582 55.761 43.148 55.761 43.148C55.761 43.148 55.4438 42.6745 56.172 42.5315C56.9003 42.3885 58.4841 42.9269 58.4841 42.9269H58.4819Z"
      fill="#606B7D" />
    <path
      d="M60.333 43.7181C59.7321 43.8409 58.1148 44.2587 57.7127 43.6957C57.5563 43.4433 57.7931 43.1573 58.0098 43.0568C58.1594 42.9831 58.3203 42.9429 58.4811 42.9272C58.3248 42.9675 58.1706 43.0188 58.0366 43.1037C57.7618 43.2512 57.6077 43.622 57.9562 43.7806C58.7157 43.9973 59.5534 43.7694 60.333 43.7181Z"
      fill="#5E5E5E" />
    <path
      d="M55.7578 43.1479C56.2694 43.3378 56.743 43.5947 57.183 43.9209C56.6737 43.731 56.1957 43.4719 55.7578 43.1479Z"
      fill="#5E5E5E" />
    <path
      d="M55.5684 44.3833C56.2676 44.638 56.9623 44.8815 57.7062 44.953C56.9579 45.0401 56.1961 44.7742 55.5684 44.3833Z"
      fill="#5E5E5E" />
    <path
      d="M85.9448 52.526C85.9448 52.526 84.4235 50.2474 82.7124 49.7827C82.7124 49.7827 80.6437 53.8551 80.3489 54.3622C80.054 54.8693 79.2855 55.3586 79.5893 56.6207C79.7904 57.4584 80.0004 57.6014 80.3377 57.6439C80.3377 57.6439 80.9699 57.7913 81.4346 57.6439C81.4346 57.6439 82.3214 57.8963 82.6587 57.4339C82.6587 57.4339 83.311 57.0608 83.416 56.4688C83.416 56.4688 83.3758 56.7436 82.9335 56.4688C82.9335 56.4688 82.7191 56.3728 82.7526 56.0511C82.8598 55.649 83.1971 55.7562 83.1971 55.7562C83.1971 55.7562 83.4719 55.5864 83.5143 55.1866C83.5568 54.7844 83.1346 54.8269 83.979 54.2997C84.8234 53.7725 85.9448 52.526 85.9448 52.526Z"
      fill="#606B7D" />
    <path
      d="M78.3414 62.5698C78.3414 62.0113 78.3012 61.4528 78.2453 60.8966C78.1895 60.3404 78.1024 59.7863 78.013 59.2346C77.803 58.1377 77.5372 57.0409 77.1016 56.0088C77.2423 56.5494 77.3808 57.0878 77.4992 57.6328C77.6154 58.1779 77.7338 58.7208 77.8231 59.2681C78.0309 60.3605 78.1805 61.464 78.3436 62.5698H78.3414Z"
      fill="#34384E" />
    <path
      d="M85.6055 72.5555C85.6055 72.5555 86.3002 72.5041 86.2153 74.0499C86.1305 75.5958 85.0336 82.3914 84.9487 83.5731C84.8638 84.7549 84.5734 85.5144 85.2883 86.6537C86.0031 87.793 87.0598 89.2294 87.0173 90.0314C86.9749 90.8334 81.361 90.706 80.8539 90.0314C80.3468 89.3567 81.361 85.8093 81.2337 85.0073C81.1064 84.2053 79.9671 78.5915 79.46 76.5229C78.9529 74.4543 78.5307 73.315 79.46 73.2725C80.3893 73.2301 85.6033 72.5532 85.6033 72.5532L85.6055 72.5555Z"
      fill="#606B7D" />
    <path
      d="M77.4865 72.9709C77.4865 72.9709 78.1968 72.9351 77.902 74.6664C77.6071 76.3977 76.3829 82.6437 76.0858 84.2477C75.7909 85.8516 75.8334 89.694 75.8334 89.694C75.8334 89.694 73.1326 89.9889 71.1064 90.0313C69.0802 90.0737 65.0279 90.0313 64.4359 90.0313C63.8439 90.0313 63.4642 88.2151 65.0681 87.4556C66.6721 86.6961 69.5002 86.1041 70.2597 85.3021C71.0193 84.5001 71.399 84.1315 71.1466 81.5089C70.8942 78.8863 69.7526 72.5531 71.5688 72.2583C73.385 71.9634 77.4842 72.9687 77.4842 72.9687L77.4865 72.9709Z"
      fill="#606B7D" />
    <path
      d="M87.1474 26.6104C86.9598 27.5464 83.1175 27.5665 78.5647 26.6528C74.012 25.7392 70.4757 24.238 70.6634 23.302C70.851 22.366 74.6934 22.3458 79.2461 23.2595C83.7988 24.1732 87.3351 25.6744 87.1474 26.6104Z"
      fill="#E89B06" />
    <path
      d="M74.1126 23.9631C74.1126 23.9631 74.0702 29.1034 74.1126 30.9374C74.1551 32.7692 76.1097 33.1959 78.185 32.7089V34.7239C78.185 34.7239 77.6958 36.3122 78.5514 36.5557C79.407 36.7992 80.7496 35.7627 81.0556 34.114V31C81.0556 31 82.5211 29.2285 82.5211 27.4592C82.5211 25.6899 80.3832 25.8709 80.2626 27.8256H79.5299C79.5299 27.8256 79.713 25.0533 79.1032 23.9676C78.4933 22.8797 74.6219 21.4522 74.1148 23.9676L74.1126 23.9631Z"
      fill="#C07363" />
    <path
      d="M74.2114 23.6281C74.2114 23.6281 74.0751 22.2431 75.8645 21.3071C77.6561 20.3711 80.301 20.4515 81.8491 21.6735C83.3972 22.8954 83.8842 25.2567 83.6809 26.4764C83.4776 27.6961 82.7449 28.7148 82.7449 28.7148C82.7449 28.7148 83.1917 29.4475 83.0711 30.5868C83.0711 30.5868 83.8842 31.563 83.5179 32.4588C83.5179 32.4588 84.1277 33.3144 83.5179 34.4135C83.5179 34.4135 83.6407 36.2855 82.5215 36.3682C82.5215 36.3682 83.0711 37.0607 82.1351 37.9967C81.1991 38.9327 80.6294 39.9514 80.6294 39.9514C80.6294 39.9514 79.5303 37.8336 81.5252 36.1247C81.5252 36.1247 81.1186 35.7985 81.5654 35.2691C81.5654 35.2691 80.7925 34.4559 81.485 33.721C81.485 33.721 80.3859 33.3144 80.6294 32.4588C80.6294 32.4588 80.2228 31.6859 81.0561 30.9934C81.0561 30.9934 82.3786 29.7714 82.5215 27.4526C82.5215 26.0274 80.7098 25.7012 80.263 27.819H79.5303C79.5303 27.819 79.8565 24.9864 79.1036 23.961C78.3508 22.9356 75.1228 21.5528 74.2136 23.6281H74.2114Z"
      fill="#8D4900" />
    <path
      d="M70.6638 23.3022C70.6504 23.3402 70.6526 23.376 70.6616 23.4139C70.6571 23.376 70.6571 23.338 70.6638 23.3022Z"
      fill="#FFD432" />
    <path
      d="M85.7667 24.3051L84.0577 22.8776C84.0577 22.8776 84.3794 20.0852 81.2251 18.6734C81.2251 18.6734 79.2526 18.1104 77.8251 18.5438C76.3954 18.975 75.0126 20.4047 74.6038 21.1642C74.6038 21.1642 71.4517 21.7763 70.748 23.1345C71.3534 22.3683 74.9903 22.4063 79.2503 23.2619C83.8031 24.1755 87.3393 25.6767 87.1517 26.6127C87.1517 26.6127 87.4801 25.7326 85.7711 24.3051H85.7667Z"
      fill="#FFD432" />
    <path d="M78.1855 32.7067C78.1855 32.7067 79.1082 32.3247 79.7068 32.1147L78.1855 33.5556V32.7067Z"
      fill="#945248" />
    <path
      d="M76.7066 29.2154C76.9859 29.2154 77.245 29.1707 77.455 29.0948C77.7812 28.9786 77.9956 28.7865 77.9956 28.5698C77.6092 28.6123 77.1758 28.6413 76.7044 28.6413C76.242 28.6413 75.8153 28.6123 75.4355 28.5698V28.5788C75.4355 28.9317 76.0052 29.2154 76.7066 29.2154Z"
      fill="#312725" />
    <path
      d="M76.135 28.9564H77.3033C77.3592 28.9564 77.4105 28.9341 77.4485 28.8961C77.4865 28.8581 77.5088 28.8067 77.5088 28.7509V28.6079C77.2586 28.628 76.9906 28.6392 76.7046 28.6392C76.4142 28.6392 76.1394 28.628 75.8848 28.6079V28.7062C75.8848 28.771 75.9093 28.8291 75.9496 28.8737C75.9965 28.9251 76.0612 28.9564 76.135 28.9564Z"
      fill="white" />
    <path
      d="M75.8908 27.073C75.8863 27.2093 75.8171 27.3165 75.7344 27.3142C75.654 27.312 75.5915 27.2003 75.5959 27.0641C75.6004 26.9278 75.6696 26.8206 75.7523 26.8228C75.835 26.825 75.8953 26.9367 75.8908 27.073Z"
      fill="#21263D" />
    <path
      d="M77.6564 27.1311C77.6519 27.2674 77.5827 27.3746 77.5023 27.3724C77.4196 27.3701 77.3571 27.2584 77.3638 27.1222C77.3682 26.9859 77.4375 26.8787 77.5179 26.8809C77.6006 26.8831 77.6631 26.9948 77.6587 27.1311H77.6564Z"
      fill="#21263D" />
    <path
      d="M76.7863 26.9659C76.7528 27.1982 76.7304 27.3434 76.7014 27.4462C76.6723 27.5489 76.6344 27.6159 76.5852 27.6673C76.5696 27.6852 76.5562 27.6919 76.5405 27.7008C76.4869 27.7321 76.4087 27.7634 76.3395 27.7946C76.306 27.8103 76.2747 27.8259 76.2546 27.8393L76.2345 27.8527L76.2055 27.8281L76.2412 27.8393L76.2345 27.855L76.2055 27.8281L76.2412 27.8393V27.8527C76.239 27.8773 76.2591 27.9242 76.3172 27.9711C76.3775 28.0158 76.4713 28.0582 76.6031 28.0716C76.6478 28.0761 76.6791 28.1163 76.6746 28.161C76.6701 28.2057 76.6299 28.237 76.5852 28.2325C76.4289 28.2146 76.306 28.1655 76.2189 28.0985C76.1317 28.0314 76.0781 27.9465 76.0781 27.855C76.0781 27.8371 76.0804 27.817 76.0848 27.7991C76.096 27.7656 76.1139 27.75 76.1273 27.7366C76.1541 27.712 76.1876 27.6963 76.2211 27.6762C76.2747 27.6494 76.335 27.6226 76.3842 27.6003C76.4088 27.5891 76.4311 27.578 76.4467 27.569L76.4646 27.5578H76.4668L76.4802 27.5735L76.4646 27.5578H76.4668L76.4802 27.5735L76.4646 27.5578C76.4981 27.5199 76.5182 27.4908 76.545 27.4015C76.5696 27.3144 76.5942 27.1736 76.6254 26.9413C76.6321 26.8966 76.6723 26.8676 76.7148 26.872C76.7595 26.8787 76.7885 26.9189 76.784 26.9614L76.7863 26.9659Z"
      fill="#312725" />
    <path
      d="M77.9237 27.7188C77.9215 27.8149 77.7405 27.8886 77.5216 27.8819C77.3027 27.8752 77.1284 27.7903 77.1329 27.6943C77.1351 27.5982 77.3161 27.5245 77.535 27.5312C77.7539 27.5379 77.9282 27.6228 77.9259 27.7188H77.9237Z"
      fill="#6D3B0D" />
    <path
      d="M75.9727 27.6559C75.9705 27.7519 75.7896 27.8257 75.5706 27.819C75.3517 27.8122 75.1775 27.7274 75.1797 27.6313C75.1819 27.5352 75.3629 27.4615 75.5818 27.4705C75.8007 27.4772 75.975 27.5621 75.9727 27.6581V27.6559Z"
      fill="#6D3B0D" />
    <path
      d="M77.7839 26.698C77.7661 26.6756 77.7281 26.6466 77.6767 26.6287C77.6253 26.6086 77.5605 26.5974 77.498 26.5974C77.3997 26.5974 77.3036 26.6242 77.2433 26.6711C77.1919 26.7114 77.116 26.7024 77.0758 26.6488C77.0356 26.5974 77.0445 26.5215 77.0981 26.4813C77.2143 26.3919 77.3595 26.3584 77.498 26.3584C77.5896 26.3584 77.6789 26.374 77.7616 26.4031C77.8442 26.4344 77.918 26.479 77.9738 26.5483C78.014 26.5997 78.0051 26.6756 77.9537 26.7158C77.9023 26.756 77.8264 26.7471 77.7862 26.6957L77.7839 26.698Z"
      fill="#312725" />
    <path
      d="M76.0091 26.6776C75.9913 26.6575 75.9578 26.6374 75.9131 26.6218C75.8684 26.6062 75.8148 26.5972 75.7567 26.5972C75.645 26.5972 75.5288 26.633 75.4663 26.691C75.4172 26.7357 75.3412 26.7313 75.2965 26.6821C75.2518 26.633 75.2563 26.557 75.3055 26.5123C75.4306 26.4006 75.5981 26.3582 75.7567 26.356C75.8371 26.356 75.9153 26.3671 75.989 26.3917C76.0628 26.4163 76.1298 26.4542 76.1834 26.5123C76.2281 26.5615 76.2258 26.6374 76.1767 26.6821C76.1275 26.7268 76.0516 26.7246 76.0069 26.6754L76.0091 26.6776Z"
      fill="#312725" />
  </g>
  <defs>
    <clipPath id="clip0_1846_8813">
      <rect width="90" height="90.5875" fill="white" />
    </clipPath>
  </defs>
</svg>