<svg xmlns="http://www.w3.org/2000/svg" xml:space="preserve" id="Layer_1" width="512" height="512" x="0" y="0" version="1.1"><style id="style2" type="text/css">.st0{enable-background:new}.st1{fill:none;stroke:#000;stroke-width:17;stroke-miterlimit:10}</style><path id="path4" d="M512 426.178h-83.668c0-10.806 18.759-19.642 41.868-19.642s41.8 8.836 41.8 19.642z" class="st0" style="stroke-width:.679676"/><path id="path6" d="M249.441 426.178h-83.668c0-10.806 18.76-19.642 41.868-19.642 23.109 0 41.8 8.836 41.8 19.642z" class="st0" style="stroke-width:.679676"/><path id="path8" d="M409.777 426.178h-101.68c0-10.806 22.77-19.642 50.84-19.642 28.07 0 50.84 8.836 50.84 19.642z" class="st0" style="stroke-width:.679676"/><path id="path10" d="m288.93 128.208 50.228-17.331s-7.204-17.332-36.498-5.981c0 0-19.71 8.36-13.73 23.312z" style="stroke-width:.679676"/><path id="path12" d="M370.9 146.152s-12.575-4.758-16.177-11.962c0 0 22.157-8.02 20.322-19.575-1.835-11.555-32.76-1.291-32.76-1.291s-30.518 14.68-51.316 20.186c0 0-33.576 14.68-28.07 21.953 5.505 7.273 33.304 0 33.304 0s4.554 21.682 29.634 21.682c0 0 13.73 1.224 20.798-14.341l3.942 3.059s17.06-7.613 20.322-19.711z" style="stroke-width:.679676"/><path id="path14" d="M375.181 222.072s-15.564-18.148-9.923-47.034c0 0 11.283 3.942 48.529 45.47l15.292 63.55s.272 9.176-6.117 10.4c-6.388 1.223-12.845-1.496-15.564-18.012-2.719-16.516-12.234-46.082-12.234-46.082L372.87 208.41c0-.068-1.223 9.38 2.311 13.662z" style="stroke-width:.679676"/><path id="path16" d="m412.291 349.987-22.565-.612v64.161h-24.128v-62.938h-8.836v62.938h-23.857v-63.55l-17.127-1.223 2.786-26.575c2.719-26.575 18.283-72.997 18.283-72.997-3.058-3.67-2.718-9.584-2.718-9.584s-2.719.068-10.06-4.825c-7.34-4.894-15.904-43.636-15.904-43.636l6.729-3.67 9.176 30.79 26.031-7.613v-4.826l-20.458 2.38-6.525-23.79c19.235.612 22.905-9.447 22.905-9.447h11.283s-1.224 24.74 3.942 38.47c5.165 13.73 13.865 15.293 13.865 15.293s18.76 34.187 23.653 51.587c4.894 17.4 13.525 69.667 13.525 69.667z" style="stroke-width:.679676"/><path id="path18" d="M303.543 199.778s1.496 34.188 23.517 44.587l-11.758 55.258v10.399l-8.7 10.059h-4.554l-29.294 32.08 13.73 11.011s-6.73 4.894-8.225 12.235l-5.505-2.447 1.835-7.613-5.777-3.058-7 13.118-5.166-1.835 7.952-13.73-4.554-3.942-9.72 10.06-6.184-3.331 11.622-11.623-2.447-3.67s-10.059 4.282-15.292 11.01l-8.836-3.058 22.905-20.458 14.341 10.67 29.022-31.128s-.612-11.283 1.495-19.983c2.107-8.7 11.147-46.693 11.147-46.693s-12.234-37.655-4.554-47.918z" style="stroke-width:.679676"/><path id="polygon20" d="M1000.8 742.5v19.4h-9.2v-23.6z" transform="matrix(.67968 0 0 .67968 -402.164 -127.486)"/><path id="polygon22" d="m977 741.6-3.9 20.7-9.2-1 2.2-19.2z" transform="matrix(.67968 0 0 .67968 -402.164 -127.486)"/><path id="polygon24" d="m959.8 727.6-9.4 17-9.6-4.1 7.7-17.8z" transform="matrix(.67968 0 0 .67968 -402.164 -127.486)"/><path id="rect26" d="M252.228 392.467h6.253v9.04h-6.253z" style="stroke-width:.679676"/><path id="rect28" d="M290.524 338.426h6.932v9.039h-6.932z" style="stroke-width:.679653" transform="rotate(8.76)"/><path id="polygon30" d="m972 782.7 1.9 13.3h-12.8l1.7-13.3z" transform="matrix(.67968 0 0 .67968 -402.164 -127.486)"/><path id="rect32" d="M232.925 394.166h7.069v11.079h-7.069z" style="stroke-width:.679676"/><path id="polygon34" d="m938.2 716.3-13.3 23.8-9.6-4.1 9.8-22.9z" transform="matrix(.67968 0 0 .67968 -402.164 -127.486)"/><path id="rect36" d="M272.931 338.043h6.932v9.039h-6.932z" style="stroke-width:.679653" transform="rotate(8.76)"/><path id="rect38" d="M215.593 391.107h7.069v11.079h-7.069z" style="stroke-width:.679676"/><path id="polygon40" d="m1000.8 766.8 2 19.3h-11.2v-19.3z" transform="matrix(.67968 0 0 .67968 -402.164 -127.486)"/><circle id="circle42" cx="182.629" cy="326.878" r="4.01" style="stroke-width:.679676"/><circle id="circle44" cx="200.233" cy="337.685" r="4.01" style="stroke-width:.679676"/><circle id="circle46" cx="203.563" cy="361.881" r="4.01" style="stroke-width:.679676"/><circle id="circle48" cx="186.639" cy="377.242" r="4.01" style="stroke-width:.679676"/><circle id="circle50" cx="180.25" cy="352.026" r="4.01" style="stroke-width:.679676"/><path id="path52" d="M284.376 424.615c0 .544-.068 1.088-.135 1.563h-17.332a11.15 11.15 0 0 1-.136-1.563c0-4.825 3.942-8.768 8.768-8.768 4.893 0 8.835 3.943 8.835 8.768z" style="stroke-width:.679676"/><path id="path54" d="M301.98 423.8a9.14 9.14 0 0 1-.34 2.378h-15.224c-.272-.747-.34-1.563-.34-2.378a7.92 7.92 0 0 1 7.952-7.953 7.92 7.92 0 0 1 7.952 7.953z" style="stroke-width:.679676"/><path id="path56" d="M261.88 423.8c0 .883-.273 1.699-.68 2.378h-7.477c-.476-.68-.68-1.495-.68-2.378a4.41 4.41 0 0 1 4.418-4.418 4.41 4.41 0 0 1 4.418 4.418z" style="stroke-width:.679676"/><path id="path58" d="M159.792 169.465s-55.666-15.225-68.92-34.052c-13.185-18.827-4.01-26.032 29.635-17.604 33.644 8.428 83.736 32.421 83.736 32.421s34.051 36.295-8.02 26.915c-42.004-9.311-36.431-7.68-36.431-7.68z" class="st1"/><path id="polyline60" d="m778.5 363.4 35.7-39.6 66.3 24.4v54.9" class="st1" transform="matrix(.67968 0 0 .67968 -402.164 -127.486)"/><path id="path62" d="m115.885 153.22-4.146 21.818s33.236 18.487 39.421 30.857h14.545s28.139-25.012 16.924-31.74" style="stroke-width:.679676"/><path id="path64" d="M173.861 411.022c-11.622-.408-8.088-.408-8.088-.408l-5.505-44.723-11.69-65.317 5.3-5.913s10.4 15.36 24.809 3.33c0 0 8.02-12.438-2.379-19.642-10.4-7.205-22.43-17.604-22.43-17.604s4.826-24.468 3.195-39.625c-1.631-15.225-5.777-15.225-5.777-15.225s-12.642-24.944-39.421-30.857c0 0-32.829 1.631-40.849 30.857-8.02 29.227-12.438 78.095-12.438 78.095H70.89l6.797-54.51s3.194-.951 4.826 5.302l4.418 17.128s2.786 6.388 11.622 11.622c8.836 5.233 39.625 23.993 39.625 23.993v9.65H60.083L48.87 344.89 0 396.613l26.847 29.498h14.817s6.797-14.206-4.826-21.682l36.431-31.265 28.818-39.49 16.856 28.207 7.205 64.297h52.47s6.798-14.748-4.757-15.156zM26.031 397.02l-6.796-6.66 19.235-23.993 9.99 14.273zm106.574-149.46c-8.428-8.02-18.827-30.858-24.808-41.665-5.982-10.806-13.594-14.816-13.594-14.816s4.826-4.01 13.254 0 24.468 35.682 24.468 35.682l8.836-4.825 4.418 1.97v32.83c-.204.067-4.214-1.156-12.574-9.176zm4.01 164.277-5.981-28.206 17.943-2.38 4.894 30.586z" style="stroke-width:.679676"/><path id="path66" d="M467.617 343.802v-12.37s-13.05 2.107-19.507-14.681c0 0 15.361-3.33 19.507 8.835l1.7-2.922s-8.836-9.448 0-20.594c0 0 8.835 6.525 3.602 19.778l1.699 2.719s1.087-9.652 17.671-7.545c0 0-1.495 10.264-14.069 14.478l-3.806-.204-1.02 12.574h-5.777z" style="stroke-width:.679676"/><g id="g70" transform="matrix(.67968 0 0 .67968 -402.164 -127.486)"><path id="path68" d="M1229.6 695.9v.2c0 .2 0 .3.2.2h.1c.1 0 .2 0 .3-.1 1.1-.1 2.1-.8 3.1-1.1.3-.1.7.1.9-.3v-.1.1h.4c0 .1.1.2.3.2-.3.8-.8 1.6-.6 2.6 0 .2 0 .5.1.6.5 1.3.8 2.8 1.6 4 .2.3.4.5.7.7.5.6.8 1.2 1.5 1.6.3.1.5.3.8.3h.1-.1l.1.1c-.2.6-.4 1.1-.7 1.7-.1.3-.2.6-.3 1-.1.1-.1.1-.1.2v.2c-.2.2-.1.5-.1.7h.2-.2v.2c-.1.1-.1.1-.1.2 0 .2-.2.3 0 .5v.2c-.3.2-.4.6-.3 1-.2.2-.1.5-.1.7 0 .4-.1.7-.1 1.1-.2.2-.1.4-.1.6 0 .5 0 1 .1 1.4h.1-.1c.1.7.3 1.4.2 2.2 0 .2-.1.5.1.7-.1.5.3.9.2 1.4 0 .1 0 .3.1.4.2 1.7.6 3.3 1.2 4.8 0 .1.1.2.1.4.4 1.8 1.3 3.5 1.8 5.2.4 1.1.7 2.3 1.1 3.4.6 1.4 1.3 2.8 2.1 4.2.7 1.3 1.4 2.7 2.1 4 1 1.8 1.9 3.7 3 5.4 1.1 1.7 2.5 3.1 4 4.2.5.4.8 1 1.4 1.2.9.5 1.7 1 2.7 1.3.8.2 1.5.6 2.1 1.1.3.3.8.3 1.1.6 1.3 1 2.7 1.7 4.1 2.5 1 .6 2 1.1 2.7 2 .1.6.6 1.1.6 1.8 0 .3.1.5 0 .8-.4.6-.2 1.2 0 1.8.2.7.5 1.4.8 2.1.2.4.5.6.9.7.3.1.6.2.7.6.1.4.3.9.4 1.3.5 1.5 1.6 2.4 2.9 3.1h.1l.1.1c.2.7.8 1 1.4 1.3.1.1.3.1.4.1v-.1.6c-.5.7-1.1 1.4-1.4 2.3l-.1.1c-.4.3-.6.8-.8 1.2-.1.2-.2.3-.3.5l-.1.1c-.4.2-.5.6-.8.9-.8 1-1.5 2.1-2.2 3.3-.3.1-.4.4-.6.6-.2.2-.5.3-.5.7-.1.1-.2.1-.2.2-.8.3-1.4.9-1.7 1.7 0 .1 0 .1-.1.2 0 .1-.1.1-.1.2-.3.5-.5 1-.8 1.5-.3 0-.6-.1-.8.2-1 0-1.9.1-2.9.4-.6.2-1.2.2-1.8.2-.7 0-1.3.1-2 .3-1 .3-2 .1-3 .1-.3 0-.7 0-1 .2h-.2c-1.5-.2-2.7.5-3.3 1.9-.1.3-.1.7 0 1 .1.3.2 0 .3-.1.4-.2.5-.7.8-1 .5-.5.7-.5 1.1.1.1.1.2.3.4.3.5.4 1 .2 1.5.1.9-.3 1.7-.3 2.6-.3.7 0 1.5.1 2.2-.1.5 0 .9 0 1.4-.1 1.4.1 2.8.3 4.3 0 0 .2 0 .5-.1.7-.2.4 0 .6.5.7h.8c.3.2.7.1 1.1.1h.5c.1.1.2.1.2 0 .6 0 1-.4 1.3-.8.2-.3.5-.5.8-.6.8-.3 1-.5.8-1.4.7-.1 1.3-.1 1.9.3.2.1.3.3.5.3.1.1.2.2.4.2.6.7 1.3.8 2 .5.3-.1.5-.2.8-.3.1.2.2.2.4.3.1-.1.1-.2.1-.3 0 .1 0 .2-.1.3.1.2.2.2.4.2.2-.1.1-.3 0-.5-.3-.6-.8-1-1.3-1.3l-2.7-1.5c-.3-.2-.5-.5-.6-.8 0-.1 0-.1.1-.2.2-.2.3-.4.3-.6-.1-.8.2-1.5.5-2.2v-.1c.5-.4.6-.9.9-1.4 1-1.9 2.2-3.6 3.4-5.4.1-.2.3-.4.4-.7.2-.1.3-.2.3-.5.8-1 1.7-2 2.3-3.2.1-.2.3-.4.4-.6.5-.3.9-.6 1.3-.9.2 0 .5 0 .6-.3.1 0 .1-.1.2-.1.4-.1.7-.4.7-.8.5.2.9.3 1.1-.4.1 0 .2-.1.3-.1.5-.1 1.1 0 1.5-.5.1-.1.2-.1.3-.1.5.4 1-.1 1.5-.1.1.4.3.7.9.5.2-.1.4.1.6.3.3.3.7.3 1 .1.3-.2.6-.2.8.1.2.3.5.4.8.5.4.1.7.2 1.1.2.1.1.2.1.3.2.2.1 0 .1.2.1s.1.2.2.1c.3.3.6.6 1 .8 0 .1.1.2.3.2.2.1.5.2.7.2.1.2.3.1.5.1h.3c.2.1.5.1.7 0 .2 0 .4.1.6-.1.2 0 .3 0 .5-.1.2 0 .4.1.6.1.2.4.5.2.8.2h.1c.1.4.2.7.4 1.1.1 1 .3 2 .5 3 .3 1.9.7 3.9.9 5.8.1.6 0 1.2.3 1.7v.3c-.2.6 0 1.1.1 1.6s.1 1.1.1 1.6-.2.8-.7.9c-.6.1-1.2.3-1.8.4 0 0-.1.1-.1.2h-.3c-.2-.2-.2 0-.2.1-.3 0-.6.2-.9.3-1.1 0-2.3 0-3.4.3-.7.2-1.4.2-2.1.1-.6-.1-1.2-.2-1.8.1h-.3c-.3 0-.7 0-1 .1-1.4.1-2 1-2.2 2.3 0 .2-.1.6.2.6.3.1.4-.2.5-.5.1-.1.1-.3.1-.4.2-.1.3-.4.5-.6.4-.2.7-.4.9.2.1.2.3.4.5.5.4.3.8.3 1.2.1 1.2-.4 2.5-.2 3.8-.3.5.2.9.1 1.4 0 .4 0 .8-.1 1.3-.1 1 .1 1.9.1 2.9 0 0 0 .1 0 .1-.1.1.1.1 0 .2 0h1c.1.2 0 .3-.1.5-.2.4 0 .7.5.8.3.1.5 0 .8-.1.1.1.2.1.3 0 .5 0 1 .1 1.5-.1.1.1.2 0 .3-.1.2-.1.4-.2.6-.4.4-.4.7-1 1.4-1.1.2 0 .4-.2.4-.5.1-.6.2-1.3.1-1.9 0-.3-.2-.6.1-.8.2-.2.5 0 .8.1.1.1.3.1.4.1.1.1.3.1.4.2.9.7 1.4.8 2.3.1.3-.3.7-.4 1.1-.5.3-.3.3-.4-.1-.6-.6-.3-1.1-.5-1.7-.7-.8-.3-1.6-.6-2.3-.8-.1-.1-.2-.1-.3-.2-.1-.1-.1-.3-.2-.3-1.5-.8-1.7-2.2-2-3.7-.1-.3-.1-.6-.3-.9.1-.3-.3-.5-.2-.8-.2-1.2-.4-2.5-.6-3.7-.2-1-.3-2.1-.5-3.1 0-.2-.1-.4-.2-.6 0-1.2-.1-2.4-.3-3.6 0-.3-.1-.6-.3-.9 0-.3 0-.6.2-.8.4 0 .7-.2 1-.5.6-.7 1.4-1.1 2.2-1.5.3-.2.6-.5.9-.7 1-.8 2.1-1.3 2.8-2.4.4-.7 1.3-.7 2.1-.3.2.1.4.3.5 0 .1-.2-.1-.3-.3-.4 0-.1 0-.3-.1-.4-.1-.4.2-.6.5-.8.2 0 .4 0 .4-.2.1-.2.2-.3.4-.3.5 0 1-.5 1.1-1 0-.5.3-.7.7-.9.1-.1.3-.1.4-.3.3-.5.6-.8 1.1-1.1.2-.1.2-.3 0-.5v-.4c.4-.1.2-.7.7-.8.1 0 .3-.2.5-.1.1.1.3 0 .3-.2.1-.2.1-.4-.2-.4-.1-.2-.2-.2-.4-.2-.1-.2-.2-.4-.2-.6-.1-.2-.4-.7.3-.5.2 0 .2-.1.2-.3-.1-.7.1-1.4-.2-2.2-.1-.3.1-.8.4-1 .5-.3.9-.7.5-1.3-.1-.1 0-.2 0-.4.4-1 .1-1.8-.5-2.5-.3-.3-.2-.5.1-.7.6-.3 1.2-.7 1.4-1.4.4-.5.9-.9 1.1-1.6.4-.2.3-.5.1-.7-.3-.3-.4-.7-.6-1h-.3.3v-.4h.1c.6-.6 1.3-1.2 2.1-1.5h.2c.6 0 .7-.5.7-.9 0-.7.1-1.4-.1-2-.6-1.2-.7-2.7-1.5-3.8-.2-.3-.2-.5.1-.6 1.3.1 2.9-1.2 3.4-2.6.2-.2.1-.4-.1-.5v-.2c0-.2-.1-.3-.1-.5v-.6h-.1.1c0-.1.1-.2.1-.2.3 0 .6-.1.4-.5v-.2c.2-.1.3-.6.7-.3.1.1.4.1.5-.1.1-.2-.1-.4-.3-.5-.8-1 0-1.6.5-2.3h.6c.3.1.5 0 .5-.4 1-.4 1.2-.7 1.2-1.9v-.2c.1-.1.3-.1.4-.2.5 0 .5-.3.5-.7v-.2c-.2 0-.3 0-.3-.1 0 .1.1.1.3.1v.1h.2c.3 0 .6-.2.7-.5.5-.3 1.1-.6 1.4-1.2h.1c.2-.5.3-1.1.5-1.6.2-.7-.2-1.1-.7-1.5-.2-.2-.2-.4-.2-.6.5-.5.9-1 1.2-1.7.1 0 .2-.1.2-.3l.3-.3c.2 0 .3-.1.3-.4 0-.1 0-.3-.3-.3-.2 0-.5-.2-.7 0-.3.2-.5-.2-.8-.2-.1 0-.2-.1-.3-.1-.1-.1-.2-.2-.3-.1-.2 0-.4.1-.6.1-.1-.1-.1-.2-.3-.2 0 .1 0 .1.1.2 0-.1 0-.1-.1-.2-.2-.1-.2-.3-.2-.4.5-.3.9-.8 1.2-1.3h-.1.1c.1 0 .1-.1.2-.1 0 0-.1 0-.1-.1 0 0 .1 0 .1.1.5-.2.8-.5.9-1 .1-.4.4-.6.6-.9.5-.8.7-1.6.2-2.6-.2-.4 0-.6.2-1 .3-.5 1.1-.8.8-1.6 0 0 .1-.2.2-.2.1-.2.3-.4.2-.6-.3-.7-.5-1.4-1.1-1.9 0-.3-.1-.5-.4-.6-.4-.3-.8-.7-.8-1.4 0-1.4-.8-2.2-2-2.8-1.1-.6-2.3-.6-3.6-.6-.9-.3-1.8-.2-2.6.1-1.7.6-3.4 1.1-4.9 2.1-1.6 1.1-2.9 2.3-4 4-.1.2-.2.3-.3.4-.5.1-.7.6-1 1-.7 1-1.6 1.6-2.6 2.2-.9.6-1.5 1.3-2.2 2.1-.8.6-1.7 1.2-2.5 1.9-1.5 1.1-3.1 1.8-4.9 2.3-1.1.3-2.1.8-3.2.9-.4.1-.8 0-1.2.1-.2-.2-.4-.1-.6 0h-.7c-.1-.1-.2-.1-.2 0h-.5c-3.3 0-6.6.3-9.9 1-1.7.4-3.3.5-5 .8-.1 0-.3.1-.4.1h-.6c-.3-.1-.6-.1-1-.1-2.5 0-4.9-.2-7.3-.5-.6-.1-1.2-.3-1.9-.5-.6-.3-1.1-.6-1.8-.7-.2-.3-.6-.4-.9-.5-.5-.6-1.3-1-1.9-1.6-.8-.8-1.6-1.6-2.3-2.5-1-1.4-1.9-2.9-2.7-4.4l-.6-1.2c-.3-.8-.7-1.6-1.1-2.4-1-1.9-2.1-3.7-3.2-5.5-.3-.6-.8-1.1-1.2-1.6-1.7-1.9-3.4-3.8-5.7-4.9-.5-.3-1.1-.6-1.8-.6-.2-.3-.4-.3-.7-.3-.4-.1-1 0-1.3-.4-.3.1-.5.2-.8.2.2 0 .5 0 .8-.2.1-.2.3-.2.5-.3.1-.1.3-.1.4-.2.5-.8 1.3-1.3 2-1.8.6-.5.5-.7 0-1.3-.1-.2-.3-.4-.5-.6h-.1c.1-.2 0-.3 0-.5.1-1.1-.1-1.3-1-1.7-.2-.1-.3-.3-.3-.4-.1-.3-.3-.6-.4-.8-.3-.5-.6-.5-.9 0-.2.3-.6.4-.7.8-.3.3-.6.3-1 .2-.3-.7-.3-1.5-.5-2.2-.1-.3-.1-.6-.4-.7-.4-.1-.4.3-.6.6-.2.5-.5 1-.6 1.6 0 .1-.1.1-.1.2-.1.1-.1.2-.1.3-.1.1-.1.2-.1.3v.1c-.2.1-.2.4-.4.4-.2-.1-.2-.3-.3-.5-.2-.9-.4-1.8-.7-2.7-.1-.3-.2-.4-.5-.4s-.4.2-.5.5c-.3 1-.7 2-.8 3.1v.3c-.1.3-.1.6-.5.6-.3 0-.3-.3-.4-.6-.3-.9-.7-1.7-1-2.5-.1-.2-.2-.5-.5-.4-.3 0-.4.2-.4.5-.6 1.1-.8 2.4-.7 3.6 0 .5-.1.8-.6.6-.1-.3-.3-.5-.6-.7-.1-.3-.2-.5-.5-.5-.1-.3-.3-.5-.5-.8-.1-.1-.3-.2-.5-.2-.2.1-.3.2-.3.4v1.1c-.1.1-.1.2-.1.4-.1.4-.2.7 0 1.1 0 .4.2.6.3.9.1.2.1.4.1.6.1-.1.2-.3.2-.4-.1.1-.2.2-.2.4-.2.1-.4 0-.6-.2-.3-.5-.7-.7-1.2-1-.6-.4-.7-.2-.8.5v.4c-.1.2-.1.3-.1.5 0 .5.1 1-.6 1.1-.2 0-.3.2-.2.4.3.8 0 1.6-.3 2.4-.7 1.8-.2 3.3 1 4.7l.5.5c.1 0 .2.1.2.1-.1 0-.2-.1-.2-.1.1.3-.2.5-.4.7-.8.8-1.3 1.8-1.5 3 .4.7.3.9.5 1.1h.3-.3z"/></g></svg>