<svg xmlns="http://www.w3.org/2000/svg" xml:space="preserve" width="512" height="512"><path d="M177.26 112.262v6.54h4.167v-6.54zm0 0v6.54h4.167v-6.54zm41.673 8.783v2.18c0-.705.064-1.475.128-2.18zm0 4.36h.128c-.128-.706-.128-1.475-.128-2.18zm-41.673-6.54h4.167v-6.54h-4.167zm77.062-30.517h-87.448c-3.462 0-6.22 2.95-6.22 6.54v48.02c0 3.59 2.758 6.539 6.22 6.539h87.513c3.462 0 6.218-2.95 6.218-6.54v-48.02c0-3.654-2.82-6.539-6.283-6.539zm-3.27 41.416h-30.901c-.513-1.41-.898-2.885-1.09-4.36h33.082c-.193 1.54-.577 2.95-1.09 4.36zm1.09-8.719h-33.081c.192-1.474.577-2.95 1.09-4.36h30.902c.513 1.41.897 2.886 1.09 4.36zm-16.54-15.323c5.065 0 9.809 2.372 13.014 6.54h-25.965c3.077-4.103 7.886-6.54 12.95-6.54zm-66.677 8.72v-2.18c0-2.437 1.86-4.36 4.168-4.36h33.338c2.308 0 4.167 1.988 4.167 4.36v2.18c0 2.436-1.86 4.36-4.167 4.36h-25.004v-6.54h-4.167v6.54h-4.167c-2.309.063-4.168-1.924-4.168-4.36zm8.335 24.042c-3.462 0-6.22-2.95-6.22-6.54s2.758-6.54 6.22-6.54c3.462 0 6.219 2.95 6.219 6.54s-2.757 6.54-6.22 6.54zm27.055 0c-3.462 0-6.219-2.95-6.219-6.54s2.757-6.54 6.219-6.54 6.219 2.95 6.219 6.54-2.757 6.54-6.219 6.54zm31.287 2.18c-5.065 0-9.81-2.373-13.015-6.54h26.03c-3.206 4.167-8.015 6.54-13.015 6.54zm-58.342-28.402v6.54h4.167v-6.54zm41.673 10.963v2.18h.128c-.064-.706-.128-1.41-.128-2.18zm-41.673-10.963v6.54h4.167v-6.54zm0 0v6.54h4.167v-6.54zM209.765 59.754l-29.748 24.234H172.9l34.364-27.952z" style="stroke-width:.64112"/><path d="M214.701 57.767c0 .448-.064.833-.128 1.282a3.868 3.868 0 0 1-.385 1.218c-.128.385-.32.77-.577 1.154a6.303 6.303 0 0 1-.77.962c-.32.32-.576.577-.96.833-.321.257-.706.449-1.09.577-.385.192-.77.32-1.155.385-.384.064-.833.128-1.218.128-.384 0-.833-.064-1.218-.128a4.075 4.075 0 0 1-1.154-.385c-.385-.192-.705-.385-1.09-.577-.32-.256-.641-.513-.962-.833a5.056 5.056 0 0 1-.769-.962c-.256-.385-.449-.705-.577-1.154-.128-.385-.256-.834-.385-1.218-.064-.449-.128-.834-.128-1.282 0-.45.064-.834.128-1.283.065-.448.193-.833.385-1.218.128-.384.32-.77.577-1.154.257-.384.513-.705.77-.962.256-.32.576-.577.961-.833.32-.256.705-.449 1.09-.577.385-.192.77-.256 1.154-.385.385-.064.834-.128 1.218-.128.385 0 .834.064 1.218.128.385.064.77.193 1.154.385.385.192.77.385 1.09.577.32.256.641.513.962.833.256.321.577.642.77.962.256.385.448.705.576 1.154.129.385.257.834.385 1.218.128.45.128.834.128 1.283zM224.574 83.988h-28.08c.769-1.346 2.115-2.18 3.59-2.18h20.836c1.603 0 2.95.77 3.654 2.18zM220.087 129.764h30.966a15.269 15.269 0 0 1-2.437 4.36h-25.965c-1.09-1.346-1.923-2.821-2.564-4.36zM252.27 123.225c0 .705-.063 1.474-.127 2.18H219.06a16.542 16.542 0 0 1 0-4.36h33.082c.064.77.128 1.475.128 2.18zM251.053 116.621H220.15a15.269 15.269 0 0 1 2.436-4.36h26.03c.961 1.411 1.795 2.886 2.436 4.36zM177.26 112.262h4.167v6.54h-4.167z" style="stroke-width:.64112"/><path d="M177.26 112.262h4.167v6.54h-4.167zM218.933 112.262h33.338v4.36h-33.338zM218.933 121.045h33.338v4.36h-33.338zM218.933 129.764h33.338v4.36h-33.338zM282.788 149.126h46.353c2.436 0 4.36-1.987 4.36-4.36V57.96c0-2.372-1.988-4.36-4.36-4.36-2.372 0-4.36 1.988-4.36 4.36v4.295h-41.993c-2.436 0-4.36 1.988-4.36 4.36v78.153c0 2.372 1.924 4.36 4.36 4.36zm28.915-17.374h-11.54c-2.373 0-4.36-1.988-4.36-4.36 0-2.372 1.987-4.36 4.36-4.36h11.54c2.436 0 4.36 1.988 4.36 4.36 0 2.436-1.988 4.36-4.36 4.36zm-24.555-43.404h37.633v17.374h-37.633zM304.33 206.442a9.982 9.982 0 0 1 7.116 2.95c1.86 1.859 2.95 4.359 2.95 7.18a9.982 9.982 0 0 1-2.95 7.116 9.982 9.982 0 0 1-7.116 2.95c-2.821 0-5.322-1.09-7.18-2.95a9.982 9.982 0 0 1-2.95-7.116c0-2.821 1.09-5.321 2.95-7.18 1.858-1.86 4.359-2.95 7.18-2.95zM322.153 217.598c2.436 0 4.616.897 6.219 2.436 1.603 1.539 2.628 3.654 2.628 6.027 0 2.372-1.025 4.487-2.628 6.026-1.603 1.475-3.783 2.372-6.22 2.372-2.435 0-4.615-.897-6.154-2.372-1.667-1.603-2.628-3.718-2.628-6.026 0-2.373.961-4.552 2.628-6.027 1.603-1.475 3.783-2.436 6.155-2.436zM244.45 212.918c1.858 1.859 2.948 4.36 2.948 7.18a9.982 9.982 0 0 1-2.949 7.117c-1.86 1.859-4.36 2.949-7.18 2.949a9.982 9.982 0 0 1-7.117-2.95 9.982 9.982 0 0 1-2.949-7.116c0-2.82 1.09-5.321 2.95-7.18a9.982 9.982 0 0 1 7.116-2.95c2.885 0 5.385 1.09 7.18 2.95zM225.6 223.624c1.667 1.539 2.629 3.655 2.629 6.027 0 2.372-.962 4.488-2.629 6.09a9.082 9.082 0 0 1-6.155 2.373c-2.436 0-4.616-.898-6.218-2.373-1.603-1.602-2.629-3.718-2.629-6.09a8.222 8.222 0 0 1 2.629-6.027c1.602-1.538 3.782-2.436 6.218-2.436 2.437 0 4.617.898 6.155 2.436zM235.986 385.571c-4.423 4.937-11.989 5.321-16.861.898l-35.775-32.184c-4.936-4.424-5.32-11.99-.897-16.862 4.424-4.937 11.989-5.321 16.861-.898l35.775 32.185c4.936 4.36 5.321 11.925.897 16.861zM288.686 378.84c3.847 5.32 11.348 6.539 16.67 2.692l39.044-28.21c5.321-3.846 6.54-11.347 2.692-16.668-3.846-5.322-11.347-6.54-16.669-2.693l-39.044 28.21c-5.321 3.846-6.54 11.347-2.693 16.668zM163.86 387.238 152 409.357l-17.503-25.196s-3.398-5.13 6.09-14.361c5.194-5.065 12.951-13.08 18.914-19.298 4.68-4.873 12.437-5.065 17.246-.32l33.98 32.889-1.54 4.167 33.082 67.125c1.539 3.078-.705 6.732-4.167 6.732h-22.054v29.748c0 6.732-5.45 12.181-12.182 12.181s-12.181-5.45-12.181-12.181v-29.491h-3.975v29.491c0 6.732-5.45 12.181-12.181 12.181h-.513c-6.732 0-12.181-5.45-12.181-12.181v-29.235h-21.927c-3.975 0-6.54-4.167-4.808-7.758l32.953-66.612-4.872-9.81-5.129 3.27z" style="stroke-width:.64112"/><path d="M221.497 309.406c0 11.348-5.706 21.35-14.425 27.376-2.052-6.54-8.206-11.22-15.387-11.22-8.399 0-15.259 6.412-16.092 14.554-12.053-5.001-20.516-16.798-20.516-30.646 0-18.336 14.874-33.21 33.21-33.21s33.21 14.874 33.21 33.146zM367.865 345.052h-14.04v21.798H333.18l-.833-10.899-8.335 9.745 1.731 5.45-15.194 10.578v121.3h30.71V434.36h2.884v68.664h30.39V418.14s7.757 2.565 12.052-4.616c3.014-5.065 11.028-21.606 15.516-30.966a9.367 9.367 0 0 0-2.5-11.284zm5.193 46.161V373.71l6.283 4.873zM375.686 308.188c0 14.81-9.296 27.44-22.375 32.44a18.023 18.023 0 0 0-17.566-13.783 17.974 17.974 0 0 0-15.644 9.04c-8.398-6.348-13.784-16.413-13.784-27.697 0-4.744.962-9.232 2.629-13.335h64.112c1.667 4.103 2.628 8.59 2.628 13.335zM389.406 291.519H296.7c-2.82 0-5.129-2.308-5.129-5.13 0-2.82 2.308-5.128 5.13-5.128h92.705c2.821 0 5.13 2.308 5.13 5.129 0 2.82-2.309 5.129-5.13 5.129z" style="stroke-width:.64112"/><path d="M374.084 281.966H310.74c1.09-16.54 14.874-29.62 31.671-29.62 16.862-.064 30.646 13.015 31.672 29.62zM296.38 501.101h97.642a5.445 5.445 0 0 1 5.45 5.45 5.445 5.445 0 0 1-5.45 5.449H296.38a5.445 5.445 0 0 1-5.45-5.45 5.445 5.445 0 0 1 5.45-5.449zM136.805 501.101h97.643a5.445 5.445 0 0 1 5.45 5.45 5.445 5.445 0 0 1-5.45 5.449h-97.643a5.445 5.445 0 0 1-5.45-5.45c.065-3.013 2.501-5.449 5.45-5.449zM114.43 501.101h5.257a5.445 5.445 0 0 1 5.45 5.45 5.445 5.445 0 0 1-5.45 5.449h-5.257a5.445 5.445 0 0 1-5.45-5.45 5.445 5.445 0 0 1 5.45-5.449zM278.108 501.101h5.257a5.445 5.445 0 0 1 5.45 5.45 5.445 5.445 0 0 1-5.45 5.449h-5.257a5.445 5.445 0 0 1-5.45-5.45 5.445 5.445 0 0 1 5.45-5.449z" style="stroke-width:.64112"/><path d="M980.3 162.1c23 0 44.2 8.8 60.3 22.7 14.5 12.9 25 30.4 28.9 50.1 20.3 3.7 38 14 51.1 28.8 14.2 16.1 23.2 37.5 23.2 60.7 0 25.3-10.4 48.1-26.9 64.6-16.3 16.3-39.3 26.6-64.4 26.6-9.5 0-18.6-1.4-27.2-4.2-4.2-1.4-8.1-2.7-11.9-4.6-3.2 13.1-11.2 25-22.7 34.2-14.5 11.5-34.2 18.6-56.1 18.6-19.6 0-37.7-5.8-51.8-15.4-9.6-6.6-17.4-15.4-22.6-25.3-3.7 3.2-7.8 6.2-12.4 8.5-8.9 4.6-19.3 7.2-30.1 7.2-18.4 0-35-7.3-46.9-19.6-12.2-11.9-19.6-28.5-19.6-46.9 0-13.5 4.2-26.2 11.1-36.8 6-8.8 13.8-16.1 23-21.1-.3-1.2-.4-2.3-.4-3.5-.4-3.7-.7-7.3-.7-11.1 0-25 10.1-47.8 26.6-64.4 16.5-16.5 39.3-26.6 64.4-26.6 5.8 0 11.5.4 17.3 1.6 2.7.4 5.8 1.2 8.5 2 7.2-12.9 17.4-23.7 29.9-31.8 14.3-8.8 31.2-14.3 49.4-14.3z" style="fill:none;stroke:#000;stroke-width:3.4052;stroke-miterlimit:8.5129" transform="matrix(.64112 0 0 .64112 -355.318 -102.834)"/></svg>