<svg xmlns="http://www.w3.org/2000/svg" width="2048" height="2048"><g style="display:inline"><path fill="#1f2235" d="M1360.894 25.597c2.059.92 4.12 1.836 6.242 2.782 33.535 16.826 53.78 44.108 67.109 78.428 1.561 6.987 2.869 13.74 3.93 20.795l.966 6.078c3.07 19.839 5.47 39.767 7.875 59.695 1.962 16.127 4.22 32.157 6.877 48.184 3.79 22.87 6.552 45.834 9.164 68.866.306 2.665.61 5.332.927 8.077.264 2.37.53 4.744.804 7.186.807 5.795 2.078 11.23 3.513 16.892.173 4.581.225 9.168.163 13.753l-.071 7.081-.091 5.362c1.684-.825 3.369-1.647 5.105-2.496 36.626-17.345 76.776-30.878 117.038-17.151 14.958 7.172 25.738 19.003 32.848 33.893 8.514 26.095-1.187 51.574-12.147 75.324-24.324 47.789-63.654 93.68-108.788 122.626 2.439 23.724 5.993 47.267 9.501 70.854l1.397 9.578c.421 2.855.846 5.708 1.28 8.65.831 7.079 1.098 13.827.92 20.945 1.74-1.106 3.479-2.209 5.27-3.346l7.011-4.351c2.28-1.428 4.558-2.855 6.906-4.328 25.927-13.664 58.896-5.773 85.6 1.546 35.754 11.254 62.795 29.065 81.049 62.545 9.73 23.1 9.813 53.746 1.635 77.446-17.762 36.086-46.065 53.864-82.683 66.965-10.214 3.405-19.97 3.206-30.62 3.274-3.054.082-3.054.082-6.174.163-14.793.1-25.605-2.782-39.177-8.677-.645 19.37-.985 42.568 7.859 60.253l4.032-2.68c1.802-1.168 3.607-2.337 5.464-3.542l5.342-3.5c23.451-12.94 53.195-12.155 78.816-6.415 27.384 9.59 46.42 25.956 60.334 51.348 13.704 28.77 15.296 58.603 5.721 89.091-11.663 30.836-33.61 56.554-62.78 72.175-6.948 3.128-13.675 5.514-20.958 7.86l-4.574 1.492c-8.71 1.661-17.38 1.4-26.208 1.29-1.825 0-3.654-.027-5.535-.035-4.487-.03-8.972-.078-13.457-.128l2.62 31.436 10.806-5.24c21.547-8.545 44.744-8.9 66.474-.654 23.78 11.191 43.32 27.564 55.014 51.576 7.993 22.802 8.01 53.277.162 76.134-13.407 27.095-34.236 42.52-61.725 53.704-9.326 3.11-16.865 2.873-26.69 2.782-3.332-.026-6.664-.047-10.098-.071-3.835-.044-3.835-.044-7.747-.091l.962 5.106c10.316 55.631 19.152 104.986-14.06 154.695-14.623 18.128-31.402 29.54-52.394 39.295-2.806 1.355-5.611 2.71-8.503 4.103-11.194 4.728-22.574 6.264-34.56 7.848l-6.255.896c-30.255 4.263-60.607 7.828-90.959 11.304l-7.246.83c-9.858 1.13-19.716 2.256-29.573 3.372-36.935 4.134-36.935 4.134-73.627 9.994-8.241 1.302-16.025 1.326-24.345.949-.54 1.999-1.082 3.997-1.637 6.056-34.559 92.685-127.707 158.123-210.065 205.322-6.227 3.604-12.45 7.214-18.668 10.824-4.509 2.58-9.072 5.059-13.649 7.513-37.307 22.04-50.45 82.696-62.485 121.324-.938 4.354-1.834 8.715-2.62 13.098l5.937 1.166c20.84 4.747 20.84 4.747 29.922 13.405 8.53 22.348 2.35 44.464-4.422 66.64l-2.62 5.239H328.735c38.269-114.806 38.269-114.806 46.662-138.76 1.252-3.581 2.489-7.167 3.715-10.756 1.876-5.48 3.785-10.948 5.7-16.415l3.22-9.282c3.744-8.55 7.503-14.615 14.055-21.264 13.473-1.325 25.99.4 39.295 2.62l1.31-4.695c5.038-17.463 11.31-34.158 18.175-50.974 1.124-2.792 2.25-5.582 3.409-8.459a9495.118 9495.118 0 0 1 15.202-37.459c24.08-58.346 24.08-58.346 43.114-118.467.692-2.476 1.384-4.952 2.099-7.503 5.842-22.582 7.133-44.237 6.908-67.486l-.037-5.596c-.256-30.197-2.7-58.12-11.59-87.076-.955-3.12-1.912-6.24-2.897-9.452-7.437-24.03-15.314-47.906-23.3-71.758-.947-2.877-1.896-5.756-2.876-8.721-4.23-12.818-8.603-25.527-13.425-38.135-5.515-15-10.275-30.284-15.237-45.473-5.428-16.58-5.428-16.58-11.982-32.73-25.367-59.661-13.72-119.453 1.797-179.826 3.43-13.384 6.66-26.805 9.795-40.26.61-2.596 1.218-5.192 1.844-7.867 8.546-37.312 15.703-74.933 23.038-112.497 5.153-26.28 10.5-52.49 16.596-78.57.516-2.248 1.032-4.498 1.566-6.816 9.248-38.678 35.183-60.657 66.779-83.173 20.305-17.573 29.815-36.437 39.5-61.298 1.349-3.356 2.7-6.712 4.055-10.065 6.612-16.423 13.025-32.924 19.451-49.42 1.147-2.922 2.295-5.842 3.476-8.853a1571.79 1571.79 0 0 0 6.327-16.417c7.801-20.038 16.64-40.875 35.295-52.942 6.18-.767 6.18-.767 12.444-.492 2.093.073 4.186.144 6.344.217l4.79.275-1.536-7.214c-4.91-23.7-8.684-47.335-11.563-71.376-.296-2.47-.595-4.938-.901-7.482-1.36-11.315-2.714-22.629-4.064-33.943-2.114-17.733-4.34-35.437-6.753-53.13a4111.256 4111.256 0 0 1-3.173-24.068c-3.298-25.591-6.675-51.165-10.324-76.707l-.977-6.842c-1.231-8.554-2.468-17.06-4.097-25.548-4.681-32.893-5.517-68.01 11.95-97.122 1.17-2.072 2.338-4.147 3.543-6.282 19.933-32.634 49.855-55.682 86.908-65.233 17.932-3.62 36.123-5.276 54.306-7.128 13.122-1.339 26.237-2.762 39.348-4.174l8.284-.888c29.945-3.23 59.83-6.897 89.721-10.604l16.159-1.996 24.027-2.968c74.735-9.232 149.514-18.082 224.403-25.98l10.188-1.08c6.466-.683 12.931-1.359 19.4-2.03 4.348-.455 4.348-.455 8.786-.924 2.554-.265 5.108-.53 7.74-.805 7.085-.804 7.085-.804 13.953-2.27 27.782-5.531 56.557-2.335 82.214 9.236zm-76.626 169.787c-5.819.694-11.64 1.386-17.458 2.075a17318.374 17318.374 0 0 0-34.85 4.165 5025.898 5025.898 0 0 1-37.053 4.294c-4.691.532-4.691.532-9.475 1.071a8404.77 8404.77 0 0 1-18.008 2.007c-2.688.301-5.373.605-8.142.917-2.365.262-4.734.524-7.17.796-6.434.765-6.434.765-13.892 3.506-3.639.529-7.29.964-10.948 1.333-2.213.228-4.427.458-6.709.692l-7.283.728-15.537 1.6c-2.72.278-5.439.556-8.242.841-41.794 4.278-83.502 8.8-125.119 14.574-28.162 3.903-56.37 7.32-84.605 10.636-16.01 1.899-31.948 3.945-47.867 6.507-12.895 2.04-25.474 3.138-38.507 3.531-24.5 1.182-46.547 3.422-65.328 20.61-13.965 16.467-13.237 30.925-11.626 51.594 2.568 26.745 5.52 53.542 10.51 79.953 2.866 15.244 4.64 30.543 6.356 45.955 2.504 21.717 5.333 43.283 9.21 64.798 1.604 8.983 2.974 17.859 3.755 26.954 1.87 20.156 5.06 31.877 17.64 47.686 35.356 51.011 30.2 126.639 23.26 185.242-.672 3.17-.672 3.17-1.361 6.405-4.559 24.24-1.213 49.224 2.908 73.257 3.756 22.113 6.695 44.312 9.588 66.548.55 4.207 1.1 8.412 1.647 12.616 3.01 23.064 5.976 46.136 8.93 69.205 1.588 12.396 3.184 24.79 4.78 37.184a22561.62 22561.62 0 0 1 3.407 26.726c4.098 32.004 8.564 63.918 13.657 95.784 2.952 18.615 5.318 37.246 7.367 55.985.34 3.086.683 6.172 1.037 9.35.278 2.52.558 5.04.843 7.636 2.484 21.68 5.544 43.275 8.598 64.88 4.27 30.265 8.362 60.538 12.114 90.869.424 3.382.846 6.764 1.28 10.248 1.97 15.854 3.907 31.711 5.748 47.581a4864.6 4864.6 0 0 0 2.654 22.163 2023.31 2023.31 0 0 1 1.76 15.406c4.263 34.845 14.736 61.754 42.028 84.8 44.768 33.697 108.1 15.411 159.825 8.99 10.015-1.236 20.033-2.444 30.05-3.651l6.02-.726c3.988-.482 7.972-.961 11.96-1.44 5.904-.713 11.81-1.431 17.714-2.146 29.54-3.581 59.105-6.88 88.703-9.96 24.955-2.615 49.81-5.52 74.622-9.292 21.995-3.272 44.084-5.646 66.186-8.066l12.14-1.34c18.636-2.053 37.273-4.08 55.92-6.037 8.079-.857 16.153-1.743 24.227-2.636 3.801-.414 7.607-.812 11.411-1.197 33.417-3.393 62.873-10.172 86.322-35.8 14.686-18.404 20.467-36.323 20.046-59.743l-.053-6.384c-.584-27.32-2.725-57.453-11.41-83.503-.198-4.31-.358-8.621-.492-12.936-1.21-15.472-6.722-26.757-14.243-40.173-6.518-12.925-6.58-24.74-6.55-39.073-.01-3.224-.012-6.45-.021-9.771.348-8.074.348-8.074 2.968-13.313.652-20.8-1.847-41.048-4.446-61.65a841.744 841.744 0 0 1-1.474-12.812c-3.092-28.7-9.347-51.422-23.572-76.642-10.702-20.397-9.924-46.445-4.402-68.458 6.125-27.255-.078-56.92-4.43-84.157-2.567-16.26-4.77-32.553-6.834-48.887l-.865-6.816c-1.158-9.185-2.31-18.37-3.445-27.557-3.8-31.074-3.8-31.074-9.446-61.85-3.406-17.79-5.397-35.867-7.726-53.825-.288-2.216-.579-4.43-.877-6.711-3.537-26.986-6.764-53.963-9.436-81.048-3.304-32.954-8.08-65.647-12.934-98.404-6.266-42.263-12.375-84.537-18.013-126.89-.484-3.647-.484-3.647-.98-7.364-4.87-36.676-9.396-73.385-13.48-110.158-1.936-17.16-4.3-34.053-7.561-51.01-1.255-7.08-1.76-14.053-2.046-21.23-1.328-16.065-6.903-24.718-18.993-35.367-27.543-19.571-82.897-3.489-114.284.325z" style="stroke-width:2.6197"/><path fill="#fdc096" d="M716.45 573.113c18.45 6.012 28.014 21.882 37.167 38.313 12.279 26.62 17.089 55.739 17.846 84.812.068 1.852.136 3.704.204 5.611 2.133 62.962-3.073 122.615-41.75 173.738-21.942 29.587-25.885 64.78-28.358 100.6-.325 4.476-.65 8.953-.977 13.43-.5 6.966-.996 13.932-1.48 20.9-3.212 45.866-3.212 45.866-7.757 65.825-4.98 22.76-1.234 44.76 9.386 65.244 9.565 14.874 21.736 27.08 34.331 39.363 55.624 54.251 76.765 115.487 86.175 191.17l.637 5.108 2.085 16.79.712 5.737a7476.16 7476.16 0 0 1 3.49 28.486c.427 3.513.854 7.027 1.283 10.537l1.137 9.457c.925 7.849.925 7.849 3.754 15.574a411.69 411.69 0 0 1 1.515 13.898c4.786 47.476 11.343 91.27 50.358 123.298 27.46 20.34 51.652 29.285 85.824 28.827 2.855-.026 5.71-.042 8.653-.063 27.464-.469 54.295-3.757 81.448-7.67 13.71-1.905 27.463-3.445 41.213-5.038a1847.061 1847.061 0 0 0 60.908-8.187c24.463-3.675 48.805-5.347 73.514-6.222-25.38 86.65-131.01 150.575-204.174 192.333-2.593 1.488-5.187 2.979-7.859 4.511a943.523 943.523 0 0 1-15.008 8.373c-44.718 25.361-59.587 83.864-72.751 130.597a1692.873 1692.873 0 0 0-4.092 15.225c-10.042 2.6-17.039 2.408-27.109.082l-8.425-1.886-9.163-2.125a8664.302 8664.302 0 0 0-19.905-4.421c-1.75-.386-3.5-.773-5.302-1.174-21.154-4.647-42.426-8.677-63.7-12.742-27.963-5.36-55.852-10.93-83.668-17.028-28.613-6.267-57.327-11.823-86.12-17.19-33.875-6.32-67.588-13.086-101.215-20.63-13.76-3.037-27.57-5.856-41.378-8.667-14.513-3.002-14.513-3.002-20.32-5.907 3.714-20.512 10.973-38.515 19.155-57.633a8085.337 8085.337 0 0 0 8.506-20.293c.733-1.75 1.464-3.502 2.221-5.304 71.562-171.135 64.995-286.254 2.253-460.66-3.17-8.818-6.316-17.644-9.462-26.47-1.588-4.44-3.188-8.878-4.8-13.313-20.056-55.296-28.803-102.92-14.384-160.81 2.787-11.223 5.436-22.48 8.105-33.728.558-2.345 1.119-4.69 1.692-7.105 6.167-25.974 11.724-52.069 17.167-78.2l1.478-7.066a4349.426 4349.426 0 0 0 22.312-114.823c12.855-70.588 51.7-97.322 108.547-137.15 12.388-8.73 23.967-18.159 35.507-27.983 6.038-4.747 6.038-4.747 11.75-7.366 6.14-3.374 7.193-6.798 10.007-13.099l7.041-7.531c7.954-8.994 13.35-18.943 18.663-29.637l2.397-4.812c12.823-26.522 9.363-48.362.715-75.906z" style="stroke-width:2.6197;fill:#a05a2c"/><path fill="#3770c3" d="M1381.524 492.884c13.557 16.748 17.97 30.727 20.711 51.75.548 3.83.548 3.83 1.105 7.738 1.171 8.273 2.285 16.552 3.398 24.835.791 5.708 1.588 11.42 2.384 17.13a9284.547 9284.547 0 0 1 4.658 33.936 3843.923 3843.923 0 0 0 5.637 39.782c13.68 94.283 13.68 94.283.173 115.749-12.88 14.421-28.871 24.871-48.165 27.077-2.588.307-5.177.61-7.844.927-2.776.31-5.556.616-8.417.936l-8.692 1.014a8753.387 8753.387 0 0 1-27.494 3.151 16083.8 16083.8 0 0 0-27.493 3.175c-5.703.663-11.406 1.315-17.11 1.96-2.588.298-5.176.594-7.843.9-3.405.388-3.405.388-6.884.781-6.08.757-6.08.757-11.6 2.24-20.436 5.098-46.46 4.91-64.803-5.781-19.164-13.976-28.71-32.029-33.386-55.2-1.04-7.57-1.88-15.134-2.635-22.736-.626-5.627-1.26-11.252-1.902-16.876-.31-2.746-.616-5.491-.935-8.32-1.25-10.382-2.937-20.66-4.692-30.965-3.618-21.906-6.434-43.909-9.104-65.946-.474-3.887-.953-7.775-1.44-11.663-8.659-69.306-8.659-69.306 3.01-88.087 16.883-21.35 35.302-28.892 61.77-32.175l9.577-1.092c3.287-.396 6.575-.791 9.962-1.2 6.95-.83 13.898-1.65 20.85-2.45a4512.534 4512.534 0 0 0 26.51-3.143c8.505-1.03 17.014-2.03 25.526-3.031l9.512-1.142c33.833-3.867 58.225-5.934 85.656 16.726z" style="stroke-width:2.6197"/><path fill="#fd8848" d="M1057.01 525.958c11.872 10.966 20.506 23.02 23.026 39.206l.985 6.162 1.009 6.667c.364 2.326.728 4.653 1.105 7.05 1.19 7.647 2.353 15.293 3.508 22.943a5083.5 5083.5 0 0 1 1.213 7.911c5.771 37.698 11.189 75.437 16.145 113.25.28 2.103.561 4.204.852 6.368 9.103 68.455 9.103 68.455-6.696 91.545-15.464 18.684-37.784 21.469-60.528 24.314l-6.298.82c-6.612.859-13.224 1.697-19.839 2.535-4.336.561-8.671 1.124-13.007 1.69a6278.999 6278.999 0 0 1-62.974 7.828c-1.803.215-3.608.432-5.465.655-29.432 3.458-45.32 2.027-70.006-14.43-24.321-22.259-24.872-57.35-28.652-87.924-.665-5.096-1.333-10.19-2.01-15.284a6908.238 6908.238 0 0 1-4.712-36.764c-1.433-11.325-2.937-22.642-4.432-33.962a4608.715 4608.715 0 0 1-2.69-20.926 826.088 826.088 0 0 0-3.173-22.39c-8.493-54.467-8.493-54.467 5.24-75.898 28.62-34.83 80.277-32.48 121.64-36.768 6.514-.683 13.03-1.367 19.542-2.056 4.019-.425 8.037-.846 12.053-1.26 61.786-6.479 61.786-6.479 84.163 8.718z" style="stroke-width:2.6197"/><path fill="#84c2e3" d="M1067.017 918.104c18.472-.72 30.724.392 45.447 12.055 21.11 19.669 26.694 39.26 29.686 67.18l1.965 16.876c.322 2.868.647 5.74.982 8.697 1.556 13.699 3.22 27.384 4.912 41.066.322 2.61.645 5.221.975 7.912 2.722 21.602 6.222 43.02 9.92 64.47 11.373 66.551 11.373 66.551-2.894 89.036-14.705 18.99-30.826 25.597-54.28 28.74-2.997.378-2.997.378-6.054.76l-6.403.841c-4.459.582-8.92 1.156-13.381 1.724-6.728.857-13.452 1.734-20.177 2.62-20.96 2.727-41.855 5.263-62.957 6.646-6.303.435-6.303.435-13.719 3.225-22.933 2.25-41.252.566-60.253-13.099-17.552-15.655-24.062-34.886-27.672-57.633l-.987-5.926c-3.93-23.988-6.987-48.074-9.808-72.217-.658-5.606-1.316-11.215-1.976-16.82-.327-2.827-.657-5.651-.995-8.562-1.792-15.09-3.864-30.066-6.455-45.04-10.872-62.97-10.872-62.97.739-83.443 3.662-4.616 3.662-4.616 7.859-9.004 1.49-1.692 2.984-3.384 4.521-5.126 8.734-8.823 16.185-13.984 28.531-15.925l7.679-1.226c4.477-.645 4.477-.645 9.043-1.3l5.289-.77c12.229-1.766 24.468-3.44 36.712-5.08 6.45-.861 12.9-1.74 19.347-2.62 24.774-3.35 49.483-6.046 74.404-8.058z" style="stroke-width:2.6197"/><path fill="#4cbf93" d="M1429.006 895.335c12.634 13.347 20.84 27.2 23.393 45.464.401 2.832.805 5.664 1.219 8.583.62 4.61.62 4.61 1.257 9.318.448 3.212.893 6.426 1.354 9.735 3.988 29.06 7.49 58.175 10.922 87.303 2.402 20.282 5.132 40.467 8.354 60.633 7.542 48.918 7.542 48.918-5.792 69.74-19.59 25.504-45.721 28.965-76.288 32.978l-10.101 1.25-10.524 1.344a5614.356 5614.356 0 0 1-30.244 3.733l-7.86.977c-78.831 9.693-78.831 9.693-98.044-5.1-1.36-1.234-2.722-2.465-4.123-3.736-3.647-3.24-3.647-3.24-7.367-6.55-10.528-12.029-14.736-22.047-17.358-37.822l-.94-5.61c-3.828-23.621-6.812-47.382-9.843-71.116-2.16-16.784-4.631-33.404-7.77-50.03-17.4-97.058-17.4-97.058 1.638-124.478 21.583-24.607 50.235-26.449 81.037-29.993 2.423-.283 4.844-.566 7.34-.86 5.093-.589 10.189-1.176 15.281-1.755 7.66-.877 15.315-1.791 22.967-2.706 87.632-10.22 87.632-10.22 111.492 8.698z" style="stroke-width:2.6197"/><path fill="#95c4be" d="M412.565 1877.72c16.564 1.841 32.746 4.754 49.077 8.052l8.121 1.625c8.661 1.731 17.319 3.476 25.977 5.223l17.94 3.597c33.314 6.699 66.571 13.596 99.77 20.855 22.771 4.941 45.641 9.177 68.569 13.322 24.392 4.45 48.613 9.564 72.84 14.835 22.498 4.888 45.038 9.496 67.622 13.966 24.809 4.92 49.575 10.036 74.337 15.194 13.24 2.756 26.477 5.509 39.756 8.058l5.572 1.071c4.532.865 9.07 1.708 13.607 2.55 6.502 1.571 11.626 3.635 17.426 6.918 0 18.338 0 18.338-10.479 55.013H354.932c1.936-9.685 4.07-17.944 7.295-27.158l2.874-8.255c1.533-4.354 1.533-4.354 3.092-8.794l3.175-9.09c2.174-6.227 4.35-12.454 6.53-18.679 3.076-8.789 6.13-17.586 9.177-26.385.93-2.685 1.86-5.37 2.816-8.137 1.75-5.05 3.5-10.101 5.248-15.152 4.747-13.667 9.698-27.235 14.806-40.77l2.62-7.86z" style="stroke-width:2.6197"/><path fill="#fdc096" d="M1570.797 697.875c1.962.027 3.924.053 5.946.082 30.567.843 62.152 9.085 85.855 29.33 14.477 15.493 23.504 32.392 24.447 53.764-1.095 24.494-9.635 44.223-26.616 61.869-23.865 20.48-50.358 27.936-81.263 27.363-18.694-2.463-34.352-11.87-46.517-26.197-20.14-30.148-25.008-74.74-18.176-109.862 5.63-14.33 13.306-23.766 26.38-31.898 10.194-4.084 19.135-4.663 29.944-4.45zM1654.003 955.086c21.143 11.92 33.052 29.744 39.59 52.895 2.985 26.409-1.094 54.594-15.717 77.28l-5.24 6.55c-1.404 2.16-2.808 4.322-4.257 6.549-17.352 18.267-39.95 27.386-64.837 28.489-19.36-.45-33.852-6.625-48.137-19.648-19.055-20.517-25.437-44.021-25.102-71.334 2.709-29.72 15.294-52.87 37.546-72.421 25.715-19.252 56.685-22.202 86.154-8.36zM1588.807 379.255c9.253 9.64 11.97 15.802 11.951 29.144-.613 18.197-5.782 31.112-14.57 46.827l-3.85 7.584c-11.277 21.089-25.992 37.255-42.483 54.273-4.228 4.464-8.105 9.16-11.956 13.952-7.99 9.51-17.586 17.238-28.162 23.74h-5.239l-1.119-8.682a26877.232 26877.232 0 0 0-4.188-32.267c-.603-4.631-1.203-9.263-1.8-13.895-3.88-30.718-3.88-30.718-9.02-61.24-1.933-10.057-2.78-19.525-2.538-29.802l.144-8.053.183-5.863c33.307-17.413 76.474-39.03 112.647-15.718zM1658.229 1199.383c19.186 11.228 32.112 28.106 37.985 49.612 3.741 25.117-1.44 44.592-15.718 65.492-5.58 6.316-11.299 11.115-18.338 15.718-3.565 2.431-3.565 2.431-7.204 4.91-15.893 5.503-32.882 5.839-48.464-.98-19.8-11.524-33.532-31.811-40.176-53.471-4.301-21.71-2.07-44.333 10.152-63.035 20.745-26.126 50.992-32.306 81.763-18.246z" style="stroke-width:2.6197;fill:#a05a2c"/><path fill="#c8c8c8" d="m928.644 630.746 7.86 34.056c18.96.45 36.217-.265 54.798-4.092 10.589-1.504 20.976-1.36 31.651-1.148.226 1.798.448 3.597.681 5.45 1.017 8.118 2.052 16.234 3.086 24.35.351 2.829.705 5.658 1.07 8.574.345 2.703.69 5.404 1.047 8.186.317 2.5.631 4.996.956 7.568.716 6.162.716 6.162 3.64 11.365.53 5.394.53 5.394.654 11.626.068 2.049.136 4.097.204 6.211-1.11 7.42-2.771 9.064-8.718 13.599-7.65 1.855-7.65 1.855-16.947 3.06l-10.274 1.357-5.365.652c-5.313.65-10.615 1.355-15.92 2.07-15.412 1.97-30.85 3.725-46.377 4.456-2.185.107-4.372.217-6.625.33-9.054-2.219-11.597-6.73-16.378-14.545-2.109-8.535-2.109-8.535-3.222-18.102-.213-1.7-.425-3.403-.642-5.155a1406.038 1406.038 0 0 1-1.868-16.2c-.64-5.413-1.292-10.822-1.95-16.232-.589-4.899-1.147-9.803-1.705-14.704-.861-6.46-2.017-12.41-3.712-18.676-.896-8.965-1.734-17.707 2.62-25.87 9.434-5.307 20.596-8.186 31.436-8.186z" style="stroke-width:2.6197"/><path fill="#1f2235" d="M983.463 591.133c13.164 6.052 22.226 13.334 30.711 25.07 3.39 4.412 3.39 4.412 8.88 6.736 5.138 2.567 5.138 2.567 10.378 10.426a302.495 302.495 0 0 1 3.376 19.24c.283 1.896.569 3.795.86 5.75.594 4.023 1.181 8.047 1.755 12.076.872 6.067 1.786 12.132 2.709 18.194 8.107 54.725 8.107 54.725 2.04 67.65-8.886 11.934-20.18 14.912-34.286 17.21-2.688.285-5.376.568-8.145.864l-8.98.985-9.266.97c-6.09.652-12.18 1.31-18.267 1.975-2.685.28-5.37.563-8.137.854-6.963.87-13.711 2.164-20.588 3.555-20.007 1.904-20.007 1.904-29.8-5.73-11.337-12.147-13.247-24.819-15.492-40.883-.424-2.93-.424-2.93-.86-5.923-.591-4.126-1.178-8.254-1.754-12.383a2796.31 2796.31 0 0 0-2.707-18.712c-8-55.517-8-55.517 1.331-68.311 13.324-9.476 22.42-11.121 38.803-10.48l-.461-4.88-.356-6.415-.461-6.356c1.278-5.925 1.278-5.925 6.785-10.541 16.166-6.906 35.258-5.95 51.932-.94zm-71.847 43.215-6.303 2.027c-5.931 1.996-5.931 1.996-10.725 7.469-1.339 18.207 2.001 35.633 5.077 53.541.956 5.672 1.907 11.344 2.855 17.018.448 2.698.899 5.394 1.362 8.176 1.077 7.015 1.908 13.997 2.607 21.06.665 10.122.665 10.122 4.8 18.256 17.748 13.099 50.557 3.78 71.014 1.03 5.344-.71 10.696-1.365 16.05-2.017l10.273-1.357c3.07-.399 6.138-.797 9.297-1.205 7.867-1.908 10.832-3.236 15.508-9.714 2.515-13.466-.455-26.876-3.725-39.95-3.398-16.164-4.862-32.723-6.753-49.12-13.437-.448-25.579.147-38.803 2.62-16.088 2.94-31.313 3.01-47.647 2.62l-7.86-34.056c-6.313 0-11.026 1.634-17.027 3.602z" style="stroke-width:2.6197"/><path fill="#fdc096" d="M682.393 580.972c7.715.833 11.915 1.388 17.387 7.08 6.91 11.648 5.185 24.393 3.57 37.454-10.714 39.382-41.18 68.314-73.35 91.69l-5.24-2.62 2.271-5.098c14.73-33.12 29.202-66.302 42.738-99.93l2.73-6.77 2.352-5.887c2.3-5.433 4.847-10.672 7.542-15.92z" style="stroke-width:2.6197;fill:#deaa87"/><path fill="#1f2235" d="M1575.708 738.153c9.274.91 10.639 2.806 17.07 10.254a1134.55 1134.55 0 0 1 7.163 9.721c17.643 25.317 17.643 25.317 43.717 39.317 7.097.704 13.992 1.053 21.12.961.676 12.341.676 12.341-5.402 19.155-9.879 5.675-14.764 6.14-26.034 4.422-29.946-13.35-48.818-42.957-68.112-68.112 3.018-6.465 5.365-10.604 10.478-15.718z" style="stroke-width:2.6197"/><path fill="#fd8848" d="M941.743 604.549c38.046-1.525 38.046-1.525 49.774 7.859 3.531 5.347 6.717 10.811 9.866 16.394 3.107 5.315 3.107 5.315 10.599 7.183h5.732v7.86c-14.51 5.812-28.788 6.913-44.207 8.186-2.555.225-5.106.453-7.736.686-6.261.553-12.525 1.087-18.789 1.606-3.453-12.611-5.897-23.514-5.567-36.676l.144-7.531c.06-1.837.12-3.673.184-5.567z" style="stroke-width:2.6197"/><path fill="#1f2235" d="M1592.338 992.08c10.263 4.141 13.58 12.144 18.573 21.468 12.7 24.26 12.7 24.26 32.909 41.587a316.81 316.81 0 0 0 13.426 1.475c2.383.22 4.767.437 7.225.665l5.545.48c.493 7.531.493 7.531 0 15.718-11.186 7.458-20.928 6.845-34.055 5.24-21.199-9.976-34.172-30.64-45.68-50.265-.927-1.556-1.857-3.112-2.814-4.715-5.098-9.025-8.163-15.83-6.52-26.231 5.24-5.24 5.24-5.24 11.39-5.423z" style="stroke-width:2.6197"/><path fill="#f2f5fb" d="m1140.512 119.578 9.313.144c3.332.09 3.332.09 6.733.184v10.478c-42.714 6.526-85.423 13.005-128.365 17.848l-8.496.98c-16.449 1.784-32.597 2.52-49.138 2.13l-2.62-13.098c28.571-4.336 57.128-7.401 85.898-10.1 16.368-1.576 32.612-3.4 48.873-5.844 12.802-1.894 24.874-2.986 37.802-2.722z" style="stroke-width:2.6197"/><path fill="#f4b58c" d="M753.125 934.63c5.315 9.046 6.654 17.41 8.042 27.753.456 3.346.912 6.693 1.384 10.14a2484.664 2484.664 0 0 0 2.824 21.14c3.468 25.85 3.468 25.85 3.468 37.896-15.718-1.748-31.436-3.492-47.154-5.24 1.485-13.677 4.786-25.652 9.823-38.478l2.099-5.467c6.2-16.043 12.747-31.934 19.514-47.744z" style="stroke-width:2.6197;fill:#fff"/><path fill="#292d41" d="M902.447 717.196h2.62l.87 7.654 1.257 10.029 1.2 9.947c1.886 8.917 3.13 13.37 9.772 19.524 19.708 4.985 44.322-1.923 64.114-5.061 12.876-2.012 25.023-3.225 38.054-2.798l2.62 5.24c-.865 1.728-1.73 3.457-2.62 5.239l7.859 2.62c-20.675 3.811-41.36 6.499-62.263 8.65-9.957 1.04-19.621 2.386-29.427 4.448-20.009 1.904-20.009 1.904-29.799-5.732-8.113-8.692-12.25-13.874-12.003-25.98 1.056-11.888 3.445-22.594 7.746-33.78z" style="stroke-width:2.6197"/><path fill="#1f2235" d="M1613.448 1222.582c10.225 4.264 13.623 12.621 18.584 21.992 6.81 12.642 12.368 22.741 24.888 30.616 5.645 1.674 5.645 1.674 11.133 1.802 9.824.818 9.824.818 12.444 3.438.49 6.386.49 6.386 0 13.098-6.214 6.214-7.875 6.078-16.373 6.222-14.56-.42-22.147-5.63-32.553-15.718-13.35-14.21-32.285-35.893-32.285-55.996 7.86-5.24 7.86-5.24 14.162-5.454z" style="stroke-width:2.6197"/><path fill="#292d41" d="M1004.615 683.14v10.478c-24.976 9.133-52.131 11.407-78.59 10.48l-2.62-13.1a5968.651 5968.651 0 0 1 27.344-3.929c2.55-.374 5.1-.75 7.731-1.137 15.556-2.185 30.428-3.183 46.135-2.792z" style="stroke-width:2.6197"/><path fill="#1f2235" d="M1004.615 714.576c-.864 4.322-1.728 8.645-2.62 13.098a6397.27 6397.27 0 0 1-23.414 2.62l-6.594.757c-14.542 1.585-28.714 2.099-43.343 1.863v-10.479c20.926-10.463 53.209-8.621 75.971-7.86z" style="stroke-width:2.6197"/><path fill="#292d41" d="M989.716 714.412c4.2.037 4.2.037 8.482.071 2.12.032 4.237.063 6.419.092-.865 4.322-1.732 8.645-2.62 13.098a570.28 570.28 0 0 1-12.609 1.803l-7.091 1.013c-6.497-.196-6.497-.196-10.785-3.746-1.18-1.422-2.358-2.842-3.571-4.31-2.596-1.726-5.19-3.457-7.859-5.239 10.052-2.368 19.32-2.894 29.634-2.782z" style="stroke-width:2.6197"/><path fill="#294466" d="M926.025 143.483c9.672 1.813 9.672 1.813 13.098 5.24.108 4.364.113 8.733 0 13.098-6.222 1.637-6.222 1.637-13.098 2.62l-5.24-5.24c1.457-11.935 1.457-11.935 5.24-15.718z" style="stroke-width:2.6197"/><path fill="#1f2235" d="M897.208 696.238c6.541 9.813 6.017 14.545 5.24 26.197-1.415 6.282-3.236 12.203-5.24 18.338-5.596-8.394-5.845-10.529-5.567-20.14.047-2.117.094-4.234.144-6.416.06-1.611.12-3.22.184-4.88h2.62l2.619-13.099z" style="stroke-width:2.6197"/><path fill="#30354d" d="M406.926 1851.266c5.373.087 10.746.17 16.117.257v2.62c-2.864.755-5.727 1.512-8.677 2.292-9.766 2.473-9.766 2.473-17.52 8.187 2.931-12.978 2.931-12.978 10.08-13.355z" style="stroke-width:2.6197"/><path fill="#c99b88" d="m632.62 698.858 2.619 5.24h5.24v5.239c-5.24 4.257-5.24 4.257-10.48 7.859l-5.239-2.62 7.86-15.718z" style="stroke-width:2.6197"/><path fill="#dba185" d="m716.45 573.113 13.098 5.239-5.24 13.098c-4.574-6.86-6.253-10.578-7.859-18.337z" style="stroke-width:2.6197"/></g><path fill="#ffbf61" d="M-349.68 620.828c1.344 0 2.648.173 3.9.49-.415-1.807-.58-3.659-.441-5.477.843-11.045 10.16-17.771 20.662-17.771 9.603 0 17.131 9.033 17.767 18.127a18.752 18.752 0 0 1 6.019-.661c.575-2.665.895-5.424.895-8.26 0-21.56-17.477-39.037-39.037-39.037s-39.037 17.477-39.037 39.037c0 9.73 3.582 18.606 9.469 25.44 3.339-7.507 11.177-11.888 19.804-11.888z" style="stroke-width:2.16271" transform="scale(1.9717) rotate(-7 -580.772 -7616.27)"/><path fill="#fff" d="M-279.515 635.811c-1.388-.175-2.835-.201-4.301-.156a11.3 11.3 0 0 0-.329-4.734 19.024 19.024 0 0 0-4.401-9.027c-3.24-3.677-7.874-5.969-12.754-6.343-.157-.011-.31-.006-.467-.013-2.067-.1-4.074.114-6.018.662-.636-9.095-8.165-18.128-17.767-18.128-10.502 0-19.821 6.726-20.663 17.77-.138 1.817.024 3.669.442 5.479a15.92 15.92 0 0 0-3.9-.491c-8.627 0-16.465 4.382-19.802 11.888a19.754 19.754 0 0 0-1.648 6.558 18.23 18.23 0 0 0 .026 2.995c-2.852.761-5.625 1.352-8.244 2.827-6.983 3.936-8.536 13.962-3.707 18.288h112.267c3.417-2.163 5.72-6.032 6.081-10.788.686-9.062-6.146-15.7-14.815-16.787z" style="stroke-width:2.16271" transform="scale(1.9717) rotate(-7 -580.772 -7616.27)"/><g fill="#fff"><path d="m-358.668 272.855-12.3 17.235 6.021 5.96s-.052 6.752-6.214 14.512c-6.163 7.763-13.04 9.745-13.04 9.745l-8.896-6.24-11.235 14.926s19.535 18.056 41.299-8.387c25.415-30.878 4.365-47.75 4.365-47.75z" style="stroke-width:1.81031" transform="scale(1.95523) rotate(-40 176.462 -1093.298)"/><path d="M-353.418 257.583c-25.901-11.533-56.354.157-67.886 26.059-11.532 25.902.157 56.354 26.06 67.886 25.901 11.533 56.355-.156 67.887-26.058 11.533-25.902-.159-56.355-26.06-67.887zm-39.355 88.393c-22.839-10.168-33.147-37.021-22.978-59.862 10.17-22.84 37.023-33.148 59.862-22.98 22.839 10.169 33.148 37.023 22.979 59.863-10.17 22.84-37.024 33.148-59.863 22.98z" style="stroke-width:1.81031" transform="scale(1.95523) rotate(-40 176.462 -1093.298)"/></g><path fill="#2ba52e" d="m161.235 260.121-.027-.124c-.019-.082-.043-.205-.082-.361a10.21 10.21 0 0 0-.304-.73c-.063-.132-.131-.276-.209-.428-.077-.152-.174-.301-.273-.467-.098-.169-.215-.33-.339-.505a7.78 7.78 0 0 0-.41-.532c-.295-.369-.655-.719-1.054-1.082-.1-.092-.204-.174-.31-.264-.107-.087-.216-.18-.327-.265-.224-.166-.46-.351-.704-.51-.122-.083-.247-.168-.376-.25l-.39-.231c-.267-.162-.538-.3-.822-.452a21.043 21.043 0 0 0-3.702-1.427c-.165-.047-.331-.095-.5-.14l-.503-.126a15.829 15.829 0 0 0-.51-.119l-.517-.114c-.342-.068-.695-.142-1.043-.196l-.53-.087-.53-.078c-.18-.027-.357-.05-.536-.073a21.315 21.315 0 0 0-.539-.065c-.356-.034-.721-.074-1.082-.102l-.545-.044-.546-.036c-.366-.023-.728-.033-1.096-.048a51.458 51.458 0 0 0-3.602.007l.002-.042c.015-.376.013-.753.019-1.13l.004-.566-.013-.566c-.01-.377-.018-.755-.032-1.13-.014-.376-.035-.751-.047-1.125-.013-.373-.042-.746-.063-1.117a24.949 24.949 0 0 0-.626-4.364l-.124-.527c-.046-.175-.096-.348-.145-.52-.095-.346-.2-.687-.307-1.024l-.341-.995c-.116-.327-.248-.648-.375-.965-.5-1.268-1.059-2.45-1.596-3.542-.286-.543-.532-1.072-.81-1.569-.274-.497-.526-.976-.797-1.423-.265-.45-.513-.877-.771-1.272-.255-.397-.482-.775-.732-1.114-.243-.343-.463-.659-.677-.952-.221-.296-.42-.566-.606-.805-.092-.119-.18-.234-.263-.336l-.232-.27-.367-.427-.31-.353a1.613 1.613 0 0 0-1.047-.537 1.61 1.61 0 0 0-1.763 1.44l-.03.285-.012.129-.029.371-.03.593c-.006.117-.006.24-.01.372-.007.128-.02.258-.031.398-.022.277-.034.576-.055.899l-.018.252-.014.263c-.01.178-.02.361-.027.548-.012.374-.042.773-.06 1.185-.01.206-.014.415-.032.631l-.037.655c-.038.883-.106 1.83-.247 2.816-.038.248-.083.497-.125.748-.044.251-.083.503-.14.757l-.161.765c-.025.128-.06.257-.09.385l-.09.384c-.062.257-.109.513-.179.77-.059.256-.12.512-.172.767-.122.51-.215 1.02-.31 1.527a31.808 31.808 0 0 0-.375 3.02c-.067 1.005-.153 1.999-.201 2.988a88.137 88.137 0 0 0-.089 2.952c-.005.243 0 .49-.007.731l-.015.723c.004.245-.009.48-.016.717l-.013.355a5.785 5.785 0 0 1-.018.35c-.031.46-.05.923-.103 1.36-.01.08-.017.159-.025.238-.285.236-.558.482-.813.743a12.552 12.552 0 0 0-1.098 1.266 13.24 13.24 0 0 0-.883 1.344c-.522.903-.902 1.82-1.17 2.643-.068.202-.125.41-.178.603l-.078.279-.064.274a9.356 9.356 0 0 0-.107.5c-.03.158-.058.295-.077.433a10.899 10.899 0 0 0-.081.627l-.019.23-.062.762a1.828 1.828 0 0 0 1.472 1.942l.145.028.411.066c.358.055.87.118 1.501.173.63.053 1.381.102 2.213.115.832.014 1.75.002 2.726-.049l.742-.046.76-.066 1.586-.135c1.086-.088 2.235-.137 3.393-.223 1.158-.093 2.327-.213 3.46-.468a25.366 25.366 0 0 0 3.347-.993c1.093-.406 2.179-.795 3.24-1.171 1.06-.368 2.096-.73 3.083-1.047.496-.163.975-.306 1.446-.453l.348-.1.173-.053.17-.048.669-.189a8.58 8.58 0 0 1 .325-.088l.32-.083.617-.145c.41-.106.783-.166 1.155-.241.177-.03.365-.069.532-.09l.257-.035c.081-.007.164-.02.247-.03l.124-.018.119-.01.235-.022.449-.025c.579-.02 1.09.021 1.531.103.222.039.415.095.596.143.05.014.08.02.117.03l.105.024.101.024.049.012a.11.11 0 0 1 .05.02c.143.087.26.15.336.194l.116.066.166.094a1.62 1.62 0 0 0 1.147.172 1.624 1.624 0 0 0 1.239-1.935z" style="stroke-width:.104095" transform="matrix(3.43561 0 0 3.43561 544.365 251.51)"/><path fill="#f8a106" d="M162.83 227.373s-.013.321-.076.886c-.059.568-.166 1.38-.352 2.365a40.537 40.537 0 0 1-.806 3.417c-.092.316-.181.648-.286.976-.103.33-.205.673-.323 1.013a43.92 43.92 0 0 1-.757 2.123 51.053 51.053 0 0 1-4.615 9.099 54.554 54.554 0 0 1-3.217 4.517 57.935 57.935 0 0 1-3.723 4.263c-.657.68-1.326 1.35-2.014 1.994a52.344 52.344 0 0 1-2.109 1.869 47.953 47.953 0 0 1-4.433 3.302 45.665 45.665 0 0 1-4.58 2.653 44.395 44.395 0 0 1-4.51 1.971 41.627 41.627 0 0 1-4.168 1.309 38.009 38.009 0 0 1-3.495.728c-1.011.159-1.842.248-2.433.284-.288.026-.524.03-.678.038-.077.004-.138.004-.179.005l-.06.001a3.692 3.692 0 0 1-3.75-3.633 5.363 5.363 0 0 1 0-.116v-.061c.002-.04.002-.102.006-.179.008-.154.013-.39.038-.678.036-.59.125-1.421.284-2.433.16-1.01.395-2.197.729-3.495a41.644 41.644 0 0 1 1.308-4.168 44.428 44.428 0 0 1 1.97-4.51 45.665 45.665 0 0 1 2.654-4.58 47.938 47.938 0 0 1 3.302-4.433 52.273 52.273 0 0 1 1.869-2.108 56.047 56.047 0 0 1 1.994-2.015 57.933 57.933 0 0 1 4.263-3.723 54.537 54.537 0 0 1 4.517-3.217c3.06-1.958 6.2-3.5 9.1-4.615a43.92 43.92 0 0 1 2.122-.757c.34-.117.683-.22 1.013-.323.328-.105.66-.194.976-.285a40.547 40.547 0 0 1 3.417-.806 29.07 29.07 0 0 1 2.365-.353c.565-.062.886-.075.886-.075a3.61 3.61 0 0 1 3.75 3.75z" style="stroke-width:.104095" transform="matrix(3.43561 0 0 3.43561 544.365 251.51)"/><path fill="#55b755" d="M150.97 265.99a9.642 9.642 0 0 0-.097-.912l-.085-.475a21.717 21.717 0 0 0-.104-.487 13.14 13.14 0 0 0-.667-2.007l-.11-.255-.116-.252-.122-.254-.128-.25c-.086-.167-.174-.339-.268-.503a13.243 13.243 0 0 0-.288-.498 20.123 20.123 0 0 0-2.892-3.688c-.14-.143-.277-.275-.418-.414-.142-.14-.282-.273-.428-.402l-.11-.098-.055-.049-.027-.024-.014-.012c.018.005-.206-.092-.115-.055l-.158-.163-.04-.041-.019-.02-.01-.011-.024-.016-.19-.122-.379-.238a14.37 14.37 0 0 0-2.685-1.365 14.87 14.87 0 0 0-2.887-.777c-.488-.074-.98-.139-1.467-.163a14.875 14.875 0 0 0-.733-.03c-.244-.003-.484.003-.728.007a15.982 15.982 0 0 0-5.491 1.195 15.94 15.94 0 0 0-2.714 1.435c.585-1.211.999-2.519 1.286-3.865a17.38 17.38 0 0 0 .36-4.276 17.395 17.395 0 0 0-.228-2.168c-.015-.09-.028-.18-.045-.27l-.054-.27c-.038-.179-.072-.358-.114-.535-.089-.36-.173-.711-.283-1.066a20.474 20.474 0 0 0-1.714-4.057 21.536 21.536 0 0 0-1.166-1.858 19.573 19.573 0 0 0-1.352-1.697c-.117-.133-.247-.266-.368-.394l-.185-.19-.195-.189c-.13-.125-.25-.246-.384-.365a27.214 27.214 0 0 0-.4-.348c-.13-.112-.277-.221-.413-.327l-.206-.157-.213-.152c-.143-.1-.28-.197-.423-.29a21.815 21.815 0 0 0-.435-.264c-.14-.086-.296-.162-.44-.238-.149-.075-.29-.149-.442-.213a20.618 20.618 0 0 0-.44-.19c-.145-.06-.296-.11-.44-.16-.286-.105-.58-.176-.855-.248-.139-.034-.28-.057-.415-.081-.137-.022-.269-.05-.401-.06a7.333 7.333 0 0 0-.389-.03l-.187-.01c-.062-.003-.123 0-.184 0-.12.003-.24.01-.354.015a2.644 2.644 0 0 0-.334.033l-.315.05a2.37 2.37 0 0 0-.294.061 8.863 8.863 0 0 0-.529.152c-.16.058-.309.124-.447.182-.069.03-.133.06-.198.091-.068.034-.133.065-.195.1a13.263 13.263 0 0 0-.333.188l-.072.043-.035.02-.024.022-.088.082-.148.137-.106.106-.064.067-.022.023-.331.357a1.387 1.387 0 0 0-.356.73c-.12.76.398 1.474 1.158 1.595l.105.017a5.857 5.857 0 0 0 .303.042c.154.01.243.055.377.091.032.01.064.018.097.027l.116.035c.08.023.163.051.25.072l.259.094c.045.014.088.036.132.054l.133.056.068.028.065.035c.044.024.087.049.132.07.022.011.045.02.067.032l.064.04.13.076c.045.024.085.06.127.09.041.031.086.055.126.09.08.073.165.13.24.214.16.145.303.335.439.54.137.206.258.454.365.721.107.27.196.577.275.898.078.325.127.683.166 1.051.036.374.049.766.052 1.168 0 .81-.078 1.669-.192 2.542-.112.871-.261 1.76-.429 2.64l-.035.187c-2.12 6.79-8.977 15.956-4.76 23.182l-.248.247a2.823 2.823 0 0 0 3.992 3.992l.23-.23c4.964 2.95 9.726-.567 14.512-3.454l.036-.024a50.142 50.142 0 0 1 3.025-1.384 62.822 62.822 0 0 1 1.842-.739c.302-.12.604-.224.9-.337l.888-.317c.293-.099.585-.208.875-.303.291-.1.583-.2.875-.288.148-.048.294-.088.444-.135.15-.045.296-.074.449-.112.03-.013.042-.03.065-.045l.033-.024.004-.003h.013l.027.003.054.005.217.02c.07.028-.081-.038-.062-.031h.01l.021.001.042.002.083.002c.226.007.448.01.667.02.877.034 1.694.115 2.422.28.73.16 1.363.414 1.89.761l.194.134.178.144c.112.1.226.202.326.31.21.215.381.45.523.691.078.119.135.243.201.363.056.123.116.244.163.364.048.121.1.238.145.356.046.116.095.23.13.34.037.11.087.218.119.32l.05.151.055.144c.035.092.058.173.09.252.03.08.06.15.081.222.09.293.156.453.156.453a.565.565 0 0 0 .828.26l.122-.078s.176-.113.45-.337a4.705 4.705 0 0 0 .454-.506 4.874 4.874 0 0 0 .482-.746 5.1 5.1 0 0 0 .402-1.03c.052-.195.093-.405.135-.625.03-.221.072-.454.089-.7.054-.492.06-1.034.03-1.624z" style="stroke-width:.104095" transform="matrix(3.43561 0 0 3.43561 544.365 251.51)"/><path fill="#fac33a" d="M146.95 248.551a1.96 1.96 0 0 1-1.39-.576l-1.104-1.104a1.966 1.966 0 1 1 2.78-2.78l1.105 1.104a1.966 1.966 0 0 1 0 2.78 1.96 1.96 0 0 1-1.39.576zm8.243-13.668a1.966 1.966 0 0 0 0-2.781l-1.104-1.104a1.966 1.966 0 0 0-2.78 2.78l1.103 1.105a1.96 1.96 0 0 0 1.39.575 1.96 1.96 0 0 0 1.391-.575zm-10.607.114a1.966 1.966 0 0 0 0-2.78l-1.104-1.105a1.966 1.966 0 0 0-2.781 2.78l1.104 1.105a1.96 1.96 0 0 0 1.39.576 1.96 1.96 0 0 0 1.391-.576zm5.585 5.207a1.966 1.966 0 0 0 0-2.78l-1.104-1.105a1.966 1.966 0 0 0-2.78 2.78l1.104 1.105a1.96 1.96 0 0 0 1.39.576 1.96 1.96 0 0 0 1.39-.576zm-8.303 1.864a1.966 1.966 0 0 0 0-2.78l-1.104-1.105a1.966 1.966 0 0 0-2.78 2.78l1.104 1.105a1.96 1.96 0 0 0 1.39.576 1.96 1.96 0 0 0 1.39-.576zm-8.12 3.304a1.967 1.967 0 0 0 0-2.78l-1.104-1.105a1.966 1.966 0 1 0-2.781 2.78l1.104 1.105a1.96 1.96 0 0 0 1.39.576 1.96 1.96 0 0 0 1.391-.576zm5.586 5.207a1.966 1.966 0 0 0 0-2.78l-1.105-1.105a1.966 1.966 0 0 0-2.78 2.78l1.104 1.105a1.96 1.96 0 0 0 1.39.576 1.96 1.96 0 0 0 1.39-.576zm-3.051-16.499-.713-.713a54.065 54.065 0 0 0-.887.687 55.495 55.495 0 0 0-2.178 1.81l.997.997a1.96 1.96 0 0 0 1.39.576 1.966 1.966 0 0 0 1.39-3.357zm9.061-6.606a1.954 1.954 0 0 0 .524.952l1.105 1.104a1.96 1.96 0 0 0 1.39.576 1.966 1.966 0 0 0 1.39-3.357l-.778-.778a53.275 53.275 0 0 0-.675.252 48.616 48.616 0 0 0-2.956 1.251zm11.095-2.44-.693-.693a1.97 1.97 0 0 0-.268-.222c-.847.169-1.81.392-2.852.679a1.966 1.966 0 0 0 .34 2.324l.692.693a1.96 1.96 0 0 0 1.39.576 1.966 1.966 0 0 0 1.39-3.357z" style="stroke-width:.104095" transform="matrix(3.43561 0 0 3.43561 544.365 251.51)"/></svg>