<svg xmlns="http://www.w3.org/2000/svg" xml:space="preserve" id="Layer_1" x="0" y="0" version="1.1" viewBox="0 0 512 512">
  <style id="style2" type="text/css">
    .st0{fill:#02070b}.st1{fill:#01080a}.st2{fill:#01080b}.st9{fill:#04070c}.st29{fill:#fefefb}
  </style>
  <path id="path6" fill="#02070b" stroke-width="1.00945711" d="M214.10585 405.40052c7.0662 24.22697 12.61822 48.25205 19.07874 71.87335.50473 1.71608.30284 2.32175-1.71607 2.72553-25.74116 5.14823-51.48232 9.99363-77.02158 16.05037-1.51419.40378-3.23027.30284-4.8454.30284-12.41632.10094-24.7317 0-37.14802.20189-2.32175 0-3.02837-.70662-3.63405-2.92743-7.0662-26.44777-14.233344-52.89555-21.299544-79.34333-.50473-2.01891-1.51419-3.23026-3.43216-4.23972-4.84539-2.52364-9.4889-5.24917-14.1324-7.97471-1.51418-.90851-2.62459-1.00945-4.13877 0-4.34067 2.82648-8.78228 5.55202-13.62767 8.47944 4.94634 2.92743 9.69078 5.75391 14.53618 8.47944 1.81702 1.00946 2.82648 2.32175 3.43215 4.34067 6.46053 23.11656 13.022 46.33408 19.17969 69.55159.80756 2.92743.20189 3.5331-2.82648 3.5331-27.65913-.10094-55.4192-.20189-83.0783303-.10094-3.02837004 0-3.43215004-.90851-3.43215004-3.63405.10095-20.29009.10095-40.58018 0-60.87026 0-2.22081.70662-3.5331 2.42270004-4.8454 12.9210503-9.58984 26.9525003-17.26171 40.5801803-25.8421 1.51418-.90851 2.92742-1.81702 4.34066-2.82648 6.76336-4.94634 14.33429-7.97471 22.61184-9.08511 2.4227-.30284 4.13878-1.51419 5.75391-3.33121 7.77282-8.88323 15.64658-17.76645 23.4194-26.64967.80757-.90851 1.211354-1.61513 1.009464-2.82648-1.211354-7.16715-2.523644-14.23335-3.533104-21.50144-.20189-1.61513-1.1104-2.2208-2.32175-3.12932-5.45107-3.93688-9.4889-2.72553-14.43524 1.71608-9.38795 8.47944-19.28063 16.5551-30.99033 21.90522-5.24918 2.4227-10.5993 4.34067-16.5551 4.44161-6.05674 0-8.88322-3.02837-8.07566-8.98417 2.22081-16.55509 4.54256-33.11019 6.76336-49.66529 1.11041-7.97471 2.11986-15.94942 3.23027-23.82319.20189-1.31229-.40379-2.32175-.80757-3.33121-4.34066-9.79173-9.287-19.38157-11.20497-30.08182-3.93689-21.1986 1.51418-40.1764 14.63713-57.03433 9.18606-11.9116 20.08819-21.90522 33.81681-28.36575 18.67496-8.78227 37.652754-8.68133 56.832444-1.71607 5.55201 2.01891 11.30592 3.73499 16.85793 5.95579 3.63405 1.51419 7.0662 1.41324 10.70025.50473 23.82319-5.85485 47.74732-11.7097 71.57051-17.56455 2.11986-.50473 4.23972-1.11041 6.35958-1.11041 6.05675-.10094 8.58039 2.32176 8.58039 8.3785-.10095 6.96525-1.81702 13.52672-5.04729 19.68441-6.76336 13.022-15.94942 24.22697-26.9525 34.01871-1.51419 1.31229-2.52365 1.61513-3.735-.30284-1.41324-2.2208-3.5331-3.83594-5.7539-5.14823-2.32175-1.31229-4.74445-2.01891-7.67188-.70662 5.65296 4.54256 10.19552 9.69079 13.82957 15.64659 2.92742 4.6435 5.04728 9.58984 5.04728 15.2428 0 1.71608.70662 2.52365 1.91797 3.33121 5.14823 3.83594 10.5993 7.16715 16.35321 9.99363 6.66242 3.33121 8.1766 8.58038 4.44161 15.14185-1.31229 2.32176-3.23026 4.03783-4.94634 5.9558-1.41324 1.51419-1.61513 2.72554.80757 3.5331 1.71607.50473 3.5331 1.21135 5.14823 2.01892 5.35012 2.72553 6.25863 7.87376 2.11986 12.21443-1.00946 1.00945-1.11041 1.51418 0 2.42269 1.41324 1.21135 2.72553 2.4227 3.93688 3.83594 4.03783 4.94634 3.63405 9.58984-1.41324 13.42578-1.21135 1.00946-1.71608 1.51419-1.00946 3.23027 6.05675 13.42578 0 25.64021-14.53618 29.07236-9.4889 2.22081-19.07874 4.13878-28.66858 6.05674-2.01892.40379-2.72554 1.21135-2.72554 3.33121.20189 8.58039.20189 17.16077.10095 25.74116 0 1.91797.60567 3.02837 2.2208 3.83594 1.81703 1.00945 3.43216 2.32175 5.24918 3.23026 3.43215 1.81702 5.85485 4.34067 7.0662 8.07566.60567 2.01891 1.91797 3.12931 3.93688 3.83593 13.32484 4.94635 26.14494 11.00309 39.36883 16.05037 6.46053 2.52365 10.39741 8.3785 15.04091 13.22389 9.18608 9.69079 13.12298 21.60238 15.64658 34.42249 2.6246 13.42578 5.9558 26.64967 9.0851 39.9745.5048 2.01892.4038 2.82648-2.1198 2.72554-9.8927-.20189-19.7854-.20189-29.67808-.10095-2.2208 0-2.82648-.80756-3.3312-2.82648-6.66242-25.8421-13.82957-51.68421-21.50144-77.22347-.50473-1.81702-1.41324-2.92743-3.23026-3.63405-5.14824-1.81702-10.49836-4.34066-16.45416-6.96525z" class="st0"/>
  <path id="path8" fill="#01080a" stroke-width="1.00945711" d="M390.65989 157.57879c-30.2837 0-60.5674-.30284-90.8511.10094-14.1324.20189-22.5109-11.00308-23.2175-22.20806-1.1104-16.25226 10.0945-31.19222 27.0534-36.542347 4.3407-1.31229 8.8832-2.32175 13.4258-2.01891 1.918.10095 2.6246-.50473 3.0284-2.32175 5.451-23.72224 20.6938-37.55181 44.0123-42.80098 2.3217-.50473 3.735-1.61514 4.9463-3.5331 18.4731-29.98088 63.0911-39.8735604 93.7786-11.50782 10.8012 9.99363 16.8579 22.5109 18.1702 37.14803.3029 3.33121 1.5142 5.04728 4.4416 6.56147 17.7665 8.98417 26.7507 23.722237 26.5488 43.406657-.101 12.11348-4.9464 22.61184-15.3438 29.77898-4.2397 2.92743-8.9841 4.03783-14.1324 4.03783-30.6875-.10094-61.274-.10094-91.8606-.10094z" class="st1"/>
  <path id="path10" fill="#01080a" stroke-width="1.00945711" d="M254.08036 366.53642c3.73499-8.37849 9.58984-13.93051 18.06933-16.85793 4.3406-1.51419 8.6813-1.51419 13.2238-1.3123 1.1104.10095 2.019.10095 2.7256-1.00946 3.4321-4.94634 8.3785-8.1766 13.7286-10.49835 1.6151-.70662 2.5236-1.71608 3.3312-3.33121 17.0598-35.73478 65.009-41.08491 90.4474-8.37849 3.0283 3.83593 4.9463 7.26809 1.4132 11.91159-1.7161 2.32175-2.0189 5.45107-2.2208 8.3785-.2019 2.82648-2.4227 1.81702-3.8359 2.32175-1.6152.60567-1.918-.70662-2.3218-1.91797-4.9463-14.23335-18.3721-21.90522-32.5045-18.57401-14.0315 3.23026-23.8232 17.46361-22.0062 31.7979.2019 1.81702.5047 3.63404 1.0095 5.45107.4038 1.41324.3028 2.2208-1.5142 2.2208-26.4478-.20189-52.7946-.20189-79.54523-.20189z" class="st1"/>
  <path id="path12" fill="#02070b" stroke-width="1.00945711" d="M224.8061 73.087223c-11.91159 0-23.82319-.10094-35.83573.10095-2.82648 0-3.02837-.80757-2.11986-3.12932 2.82648-7.87377 12.11349-15.74753 23.21752-11.40687 1.51418.60568 2.32175.2019 3.3312-.80756 7.46999-7.46998 16.5551-11.20498 27.1544-11.00308 1.71608 0 2.11986-.90852 2.52364-2.11986 5.65296-16.05037 19.58347-24.73171 36.44142-22.61185 1.817.2019 3.634.80757 5.2492 1.51419 3.5331 1.51419 5.7539 3.73499 5.3501 8.1766-.4038 3.73499-.3028 7.57093 0 11.40687.2019 2.72553-1.2114 2.52364-3.1293 2.52364-11.4069-.40378-20.79485 6.86431-23.41944 17.96834-.50472 2.32175-.60567 4.74445-.20189 7.0662.40379 2.11986-.30283 2.52364-2.32175 2.4227-11.91159-.20189-24.12602-.20189-36.23951-.10095 0-.10094 0-.10094 0 0z" class="st0"/>
  <path id="path14" fill="#01080b" stroke-width="1.00945711" d="M427.70699 218.44905c-12.2144 0-24.5298-.10094-36.7442.10095-2.7256 0-3.2303-.90851-3.1294-3.33121.2019-2.72553.4038-5.45107 1.4133-7.97471 1.6151-3.93688 5.3501-6.35958 9.4889-5.85485 2.1198.30283 2.1198-.40379 2.2208-2.11986.5047-9.69079 7.2681-16.15132 16.2522-15.64659 6.0568.30284 11.205 4.54256 13.4258 11.50781.5048 1.71608 1.0095 2.01892 2.8265 1.71608 6.9653-1.21135 13.1229.60567 17.7665 6.25863 1.0094 1.3123 2.0189 1.41324 3.634 1.11041 7.6719-1.71608 14.6371 5.85485 12.6182 13.42578-.4038 1.61513-1.7161 1.00946-2.6246 1.00946-11.205.10094-22.309 0-33.514 0h-3.5331c-.1009-.10095-.1009-.2019-.1009-.2019z" class="st2"/>
  <path id="path16" fill="#01080b" stroke-width="1.00945711" d="M67.027946 79.547753c.90851-3.83594 2.52364-7.0662 5.04728-9.79174 9.08512-9.48889 24.02508-6.35958 28.264804 6.05675.60568 1.91796 1.00946 2.52364 3.23026 1.81702 4.8454-1.41324 9.58985 1.00946 11.9116 5.65296.50473.90851.80756 2.01891 1.1104 3.02837 1.91797 8.1766 1.61513 8.68133-6.66242 8.68133-20.088194 0-40.176394-.10094-60.163644.10095-2.62459 0-3.23026-.80757-3.12932-3.23027.20189-9.99362 6.15769-15.84847 14.93997-14.43523 1.91797.20189 3.5331 1.31229 5.45107 2.11986z" class="st2"/>
  <path id="path18" fill="#010609" stroke-width="1.00945711" d="M267.2033 397.22392h119.72159c2.3218 0 3.3312.40378 3.0284 2.92742-.3028 2.62459.8076 6.15769-.5047 7.87377-1.4133 1.81702-5.0473.60567-7.7728.60567-32.9084.2019-65.8167.30284-98.624.50473-2.2208 0-3.9369-.50473-5.4511-2.2208-3.0284-3.5331-6.8643-6.25864-10.39739-9.69079z"/>
  <path id="path20" fill="#02060a" stroke-width="1.00945711" d="M363.40459 431.24262c-16.858 0-33.6149-.10094-50.4729.10095-2.6246 0-3.5331-.40379-3.4321-3.23027.3028-5.85485.1009-5.85485 6.0567-5.85485 32.9083 0 65.7157 0 98.624-.10094 2.6246 0 3.5331.60567 3.4321 3.33121-.2019 5.85485 0 5.85485-5.7539 5.85485-16.1513-.10095-32.3026-.10095-48.4539-.10095z"/>
  <path id="path22" fill="#02060b" stroke-width="1.00945711" d="M460.81719 284.5685h-18.574c-2.4227 0-2.9274-.70662-1.6151-2.82648 4.7444-7.36904 11.104-12.31538 20.1891-12.21443 8.8832.10094 15.0409 5.24917 19.6844 12.51727 1.2114 1.81702 1.0095 2.62458-1.4132 2.52364-6.1577 0-12.2145.10094-18.2712 0 0 .10094 0 0 0 0z"/>
  <path id="path24" fill="#020709" stroke-width="1.00945711" d="M319.49319 261.85571h-16.8579c-1.918 0-2.7256-.30283-1.4133-2.2208 10.8012-15.94943 27.4573-13.72862 36.7443.10094 1.2113 1.71608.6056 2.22081-1.3123 2.11986-5.653-.10094-11.4069 0-17.1608 0z"/>
  <path id="path26" fill="#03070a" stroke-width="1.00945711" d="M326.15559 487.97411c5.2492 0 10.3974.10095 15.6466 0 2.1199-.10094 2.8265.50473 2.7255 2.72554-.1009 5.65296.101 5.65296-5.552 5.65296-9.287 0-18.6749-.10095-27.9619 0-2.019 0-2.7256-.40378-2.8265-2.62459-.101-5.75391-.3029-5.75391 5.552-5.75391h12.4163z"/>
  <path id="path28" fill="#02070c" stroke-width="1.00945711" d="M146.67412 27.964493c-3.63405 0-7.36904-.10095-11.00309 0-1.51418 0-2.11986-.30284-1.91797-1.91797.50473-5.85485 6.25864-10.49836 13.22389-10.5993 6.76337-.10095 12.31538 4.23972 13.12295 10.09457.30283 2.01891-.2019 2.62459-2.32176 2.52364-3.73499-.20189-7.46998-.10094-11.10402-.10094z"/>
  <path id="path30" fill="#04070c" stroke-width="1.00945711" d="M371.88399 454.05635c-2.7255 0-5.4511-.10094-8.0756 0-2.1199.10095-2.5237-.70662-2.5237-2.62459 0-6.46052-.1009-6.46052 6.3596-6.46052 3.5331 0 7.1671.20189 10.7002-.10095 2.5237-.20189 3.3313.80757 3.0284 3.12932-.1009.50473 0 1.1104 0 1.61513.3029 4.44161.3029 4.44161-4.3407 4.44161h-5.1482z" class="st9"/>
  <path id="path32" fill="#080c0f" stroke-width="1.00945711" d="M411.35379 454.05635h-4.5426c-5.451 0-5.2491 0-5.451-5.55201-.101-3.02837.8075-3.83594 3.735-3.63405 4.7444.30284 9.4889.10095 14.3343 0 1.716 0 2.2208.50473 2.2208 2.22081.3028 6.96525.3028 6.96525-6.6625 6.96525h-3.634z"/>
  <path id="path34" fill="#040609" stroke-width="1.00945711" d="M353.30999 474.2455c-3.2303 0-6.4605-.10095-9.6908 0-1.817.10094-2.1198-.60568-2.1198-2.22081-.2019-5.65296-.3029-5.65296 5.2491-5.65296 5.1483 0 10.3974.10095 15.5457 0 1.9179 0 2.8265.30284 2.8265 2.62459-.101 5.14823 0 5.14823-5.2492 5.14823-2.2208.20189-4.4416.20189-6.5615.10095 0 .10094 0 0 0 0z"/>
  <path id="path36" fill="#04070c" stroke-width="1.00945711" d="M335.94729 453.95541c-2.4227 0-4.7444-.10095-7.1671 0-2.0189.10094-2.6246-.70662-2.8265-2.62459-.7066-6.56147-.7066-6.56147 5.9558-6.56147 3.4322 0 6.9653.10094 10.3974 0 1.6152-.10095 2.2208.50473 2.4227 2.11986 1.1104 7.0662 1.2114 7.0662-5.8548 6.96525-.9085.20189-1.918.20189-2.9275.10095 0 .10094 0 .10094 0 0z" class="st9"/>
  <path id="path38" fill="#08070d" stroke-width="1.00945711" d="M313.13359 466.57362c2.8265 0 5.653.10095 8.4795 0 2.1198-.10094 2.8264.50473 2.8264 2.72554 0 5.24917.101 5.24917-5.0473 5.24917-4.0378 0-8.0756-.20189-12.0125.10095-3.1293.20189-4.3407-.70662-4.7444-3.83594-.5048-4.13877-.7067-4.13877 3.3312-4.13877 2.4227-.10095 4.8454-.10095 7.1671-.10095z"/>
  <path id="path40" fill="#080b0d" stroke-width="1.00945711" d="M371.48019 496.04977c-2.1198 0-4.3406-.20189-6.4605 0-2.4227.20189-2.8265-.80756-2.8265-2.92742 0-5.24918 0-5.24918 5.2492-5.24918 3.8359 0 7.5709.10094 11.4069 0 1.716 0 2.4227.40378 2.5236 2.32175.101 5.9558.2019 5.9558-5.6529 5.85485-1.4133.10095-2.8265.10095-4.2398 0 0 .10095 0 .10095 0 0z"/>
  <path id="path42" fill="#04060b" stroke-width="1.00945711" d="M449.81409 454.05635h-1.3123c-7.6719 0-7.5709 0-6.7633-7.67187.2018-1.51419.9085-1.41324 1.9179-1.41324h13.022c.7066 0 1.7161-.30284 1.817.80756.2019 2.52365.2019 4.94634.2019 7.46999 0 1.21135-1.1104.80756-1.716.80756h-7.1672z"/>
  <path id="path44" fill="#050809" stroke-width="1.00945711" d="M411.15189 408.227c-5.7539 0-5.7539 0-5.7539-5.7539 0-5.14824 0-5.14824 5.552-5.14824 6.0568 0 6.0568 0 6.0568 6.05675 0 4.84539 0 4.84539-5.8549 4.84539z"/>
  <path id="path46" fill="#05050a" stroke-width="1.00945711" d="M391.16459 474.2455c-1.5141 0-3.0283-.20189-4.5425 0-2.6246.30283-3.6341-.40379-3.4322-3.33121.2019-4.44161.101-4.44161 4.5426-4.44161 2.4227 0 4.7444-.10095 7.1671 0 1.2114.10094 3.1294-.70662 3.5331.70662.6057 2.11986.5048 4.54255 0 6.76336-.2019.70662-1.1104.50473-1.716.50473h-5.5521v-.20189z"/>
  <path id="path48" fill="#060809" stroke-width="1.00945711" d="M483.22709 454.05635c-5.7539-.10094-5.552-.10094-5.7539-5.7539-.1009-2.92743.8076-3.93689 3.6341-3.5331 1.6151.20189 3.2302 0 4.8454 0 3.4321 0 5.3501 1.81702 5.3501 5.04728 0 2.92743-1.6151 4.23972-5.1482 4.13878-.9085.10094-1.918.10094-2.9275.10094z"/>
  <path id="path50" fill="#06070d" stroke-width="1.00945711" d="M405.80179 496.15072c-1.2114 0-2.4227-.10095-3.5331 0-2.7256.40378-3.5331-.60568-3.3312-3.33121.2019-4.8454.1009-4.8454 5.0473-4.8454 2.0189 0 4.1387.10095 6.1576 0 2.1199-.20189 2.7256.50473 2.7256 2.72554-.3029 5.55201-.101 5.55201-7.0662 5.45107z"/>
  <path id="path52" fill="#050706" stroke-width="1.00945711" d="M465.25879 402.77593c.101-5.24917.101-5.24917 5.552-5.35012 3.9369 0 5.8549 1.91797 5.8549 5.85485 0 3.43216-1.7161 4.94634-5.653 4.94634h-.3028c-5.552 0-5.552 0-5.4511-5.45107z"/>
  <path id="path54" fill="#060908" stroke-width="1.00945711" d="M302.93809 444.87029c1.5142.20189 4.2397-.90851 4.9463.60568 1.0095 2.2208.7067 5.04728 1.0095 7.57093 0 .20189-.101.50472-.2019.60567-2.6246.80757-5.3501.30284-7.9747.40378-1.5142.10095-1.3123-1.41324-1.6151-2.32175-.101-.50473-.3029-1.00946-.5048-1.51418-1.5142-5.35013-1.4132-5.35013 4.3407-5.35013z"/>
  <path id="path56" fill="#040504" stroke-width="1.00945711" d="M458.29359 431.24262c-4.8454 0-4.6436 0-4.8454-5.04728-.2019-3.33121.8075-4.74445 4.2397-4.23972.7066.10094 1.5142.10094 2.2208 0 3.0284-.40379 4.0378 1.00945 4.1388 3.83593 0 5.24918-.101 5.45107-5.7539 5.45107z"/>
  <path id="path58" fill="#070707" stroke-width="1.00945711" d="M457.58689 466.47268c4.2398 0 5.2492.80756 5.2492 4.13877 0 2.82648-1.3123 4.03783-4.6435 4.03783-3.9369 0-4.6435-1.00946-4.9463-5.04729-.3029-3.83593 2.2208-3.12931 4.3406-3.12931z"/>
  <path id="path60" fill="#030305" stroke-width="1.00945711" d="M423.77009 474.2455c-1.1104-.50473-3.2302 1.00945-3.8359-.70662-.6057-1.81703-.2019-4.03783-.101-6.05675.101-.80756 1.0095-.60567 1.6152-.60567 1.4132 0 2.8264.10095 4.2397 0 2.4227-.30284 3.1293.60567 3.0284 3.02837-.2019 4.34067-.101 4.34067-4.9464 4.34067z"/>
  <path id="path62" fill="#070709" stroke-width="1.00945711" d="M461.52379 491.60816c-.4038-2.4227-.1009-3.93688 3.1293-3.73499 4.0379.30284 5.3502 1.00946 5.3502 3.93688 0 2.92743-1.5142 3.83594-5.1483 4.23972-3.8359.30284-3.5331-1.91797-3.3312-4.44161z"/>
  <path id="path64" fill="#0d0d0d" stroke-width="1.00945711" d="M432.85519 403.07877c0-1.1104.101-2.11986 0-3.23026-.2019-1.81703.5048-2.32175 2.4227-2.32175 1.918 0 2.4227.60567 2.2208 2.42269-.1009 1.81703-.1009 3.63405 0 5.45107 0 1.71608.2019 3.02837-2.3217 3.02837-2.6246 0-2.3218-1.41324-2.3218-3.02837v-2.32175z"/>
  <path id="path66" fill="#171919" stroke-width="1.00945711" d="M437.59969 426.39723c0 1.00945-.101 1.81702 0 2.52364.4038 2.11986-.7066 2.4227-2.5237 2.4227-1.9179 0-3.1293-.30284-2.8264-2.62459.2018-1.3123.1009-2.62459 0-3.93688-.2019-2.11986.5047-2.72554 2.7255-2.82648 4.3407-.2019 1.918 3.02837 2.6246 4.44161z"/>
  <path id="path68" fill="#0b0b0b" stroke-width="1.00945711" d="M433.46089 492.21383c.3028-1.21134-.6057-2.92742.6057-3.83593.8075-.60568 2.3217-.40379 3.4321-.20189 1.0095.20189.7067 1.41324.7067 2.2208 0 .90851-.101 1.71608 0 2.62459.2018 1.91797-.101 3.12932-2.6246 3.12932-2.7256 0-2.1199-1.71608-2.1199-3.23027v-.70662z"/>
  <path id="path70" fill="#fdfefa" stroke-width="1.00945711" d="M36.542336 334.23379c.60567-4.44161 1.21135-8.98417 1.81702-13.42578.10095-.80756.60568-1.31229 1.1104-1.91797 28.06291-30.38466 56.52961-60.26459 85.904814-89.4379 8.58039-8.58039 17.05983-17.26172 25.64021-25.94305 1.71608-1.71608 2.22081-2.82648-.60567-4.03783-2.72554-1.11041-5.14823-2.72554-7.77282-4.03783-3.73499-1.91797-7.16715-1.41324-10.29647 1.31229-5.35012 4.54256-9.69079 9.89268-14.53618 14.93997-24.933594 26.34683-49.766244 52.69367-74.598884 79.0405-.30284.30283-.60568.50473-1.11041.90851.40379-3.93688.90852-7.67188 1.11041-11.40687.30283-3.73499 2.62459-6.35958 4.94634-8.88322 22.40995-24.7317 45.62746-48.75678 68.945924-72.78186 7.0662-7.2681 13.52673-14.93997 21.70333-20.99671 2.62459-1.91797 5.45107-3.33121 8.68133-4.03783 23.21752-5.45107 46.33408-11.10403 69.34971-17.16077.20189-.10095.40378 0 1.31229.10094C155.2545 213.70461 95.999366 273.9692 37.248956 334.63757c-.20189-.20189-.50473-.30283-.70662-.40378z"/>
  <path id="path72" fill="#fefefb" stroke-width="1.00945711" d="M155.65828 450.72514c-.80756-.70662-1.61513-1.41324-2.42269-2.11986-19.48253-16.95888-39.066-33.71586-59.154194-50.06907-1.81703-1.51418-3.73499-3.02837-5.65296-4.34066-1.21135-.90851-1.11041-1.61513-.20189-2.62459 4.23972-4.64351 8.47944-9.28701 12.618214-14.03146 1.31229-1.51418 2.32175-.30283 3.23026.30284 11.00309 7.0662 22.00617 14.33429 33.00925 21.40049 10.80119 6.86431 21.60239 13.72862 32.40358 20.49198 1.61513 1.00946 2.11986 1.71608 1.00945 3.63405-4.6435 8.47944-8.98416 17.05982-13.52672 25.53926-.20189.70662-.10095 1.81702-1.3123 1.81702z" class="st29"/>
  <path id="path74" fill="#fcfdf9" stroke-width="1.00945711" d="M76.920626 224.70769c-2.52365.10095-4.34067-.90851-5.65296-3.02837-1.3123-2.22081-.60568-4.13878.70662-6.05675.60567-.80756 1.21134-1.51418 1.91796-2.2208 14.93997-13.82957 28.870484-28.76953 43.608554-42.90193 2.52365-2.4227 4.8454-3.63405 8.07566-1.81703.50473.30284 1.00946.40379 1.51419.60568 5.95579 1.81702 5.95579 1.91797 1.61513 6.05674-15.84848 15.2428-31.394124 30.88939-46.435034 46.93976-1.91797 2.11986-2.72554 2.4227-5.35012 2.4227z"/>
  <path id="path76" fill="#fdfef8" stroke-width="1.00945711" d="M196.33941 390.86434c2.11986 11.40686 4.23972 22.91467 6.46052 34.32154.20189.90851.20189 1.71608-.20189 2.52364-2.11986 4.94634-4.13877 9.89268-6.46052 15.34375-5.04729-5.85485-9.58985-11.60876-14.63713-16.95888-2.92743-3.02837-3.23027-5.55201-1.00946-9.08511 5.24918-8.58039 10.09457-17.36266 15.04091-26.044.30284-.10094.60568-.10094.80757-.10094z"/>
  <path id="path78" fill="#fcfdfa" stroke-width="1.00945711" d="M112.75635 163.43364c-2.2208 3.33121-4.94634 5.65296-7.36903 8.1766-8.580394 8.78228-17.261724 17.46361-25.842114 26.14494-4.23972 4.34067-6.05674 4.44161-11.40686 1.21135-2.52364-1.51419-2.22081-3.12932-.50473-4.94634 4.54256-4.74445 9.18606-9.4889 13.82956-14.23335 5.45107-5.55201 11.00309-11.00308 16.45415-16.65604 1.11041-1.1104 2.01892-1.61513 3.634054-1.31229 3.5331.70662 7.16715 1.1104 11.20497 1.61513z"/>
  <path id="path80" fill="#fdfdfa" stroke-width="1.00945711" d="M60.870256 447.29299c-13.32484-8.27755-26.34684-16.35321-43.00288-14.03145 4.54256-2.92743 9.4889-5.55202 13.72862-8.98417 5.14823-4.23972 9.89268-4.8454 14.93997-.20189.10094.10094.20189.10094.30283.20189 7.16715 2.32175 10.49836 7.57093 11.60876 14.63713.40378 2.82648 1.51419 5.45106 2.4227 8.37849z"/>
  <path id="path82" fill="#fdfdf9" stroke-width="1.00945711" d="M136.57954 453.65257c-7.36903 1.41324-14.23334 2.82648-20.99671 4.13878-1.1104.20189-2.42269.90851-3.02837-1.21135-2.72553-10.09458-5.65296-20.18915-8.27755-30.38466 10.5993 9.18606 20.89577 18.57401 32.30263 27.45723z"/>
  <path id="path84" fill="#fafbfa" stroke-width="1.00945711" d="M88.226546 160.7081c-3.735 3.93689-7.57093 8.17661-11.50782 12.21443-4.44161 4.54256-8.98416 9.08512-13.52672 13.62768-1.51419 1.51418-3.23026 2.52364-5.55202 1.81702-2.01891-.60568-4.03782-1.21135-4.74444-3.43216-.80757-2.42269.80756-3.93688 2.42269-5.24917 9.38795-8.07566 19.58347-14.93997 31.59601-18.67496.50473-.10095 1.1104-.20189 1.3123-.30284z"/>
  <path id="path86" fill="#f8faf8" stroke-width="1.00945711" d="M200.47818 247.52142c4.23972-1.91797 7.97471-2.92742 11.60876-.60567 3.63405 2.32175 5.04729 6.05674 4.94634 10.29646 0 1.41324-.70662 2.32175-2.11986 2.4227-2.01891.20189-4.23972.90851-5.65296-1.21135-.60568-.90851-1.00946-1.91797-1.41324-2.92743-1.3123-3.33121-3.5331-5.95579-7.36904-7.97471z"/>
  <path id="path88" fill="#f0f3f5" stroke-width="1.00945711" d="M254.48414 424.88304c-1.31229 1.00946-2.4227 1.91797-3.73499 3.02837-.80757-2.32175-1.51419-4.6435-2.4227-7.36903 2.52364 1.1104 4.44161 2.42269 6.15769 4.34066z"/>
  <path id="path90" fill="#fefefb" stroke-width="1.00945711" d="M388.23719 141.73031h-86.9142c-4.6435 0-4.9464-.30284-5.1483-4.94634-.5047-9.69079 6.3596-18.17023 15.6466-19.28063 2.8265-.30284 5.4511 0 7.6719 1.91797.9085.70662 1.3123 1.21134 2.1199-.2019 3.634-6.05674 8.6813-9.287 16.0503-7.46998 2.1199.50473 1.4133-1.1104 1.3123-1.91797-.5047-7.16714.7066-13.930507 4.1388-20.391027 6.7634-12.71916 21.4005-20.29009 35.6338-18.06929 2.1199.30284 2.9275-.30283 3.836-2.2208 12.0125-25.43832 43.5076-33.31209 64.8071-16.15132 11.3059 9.18606 15.2428 21.4005 13.9305 35.63384-.2019 2.01892-1.2113 4.54256-.4038 5.9558.8076 1.41324 3.6341.30284 5.5521.40378 22.5108 1.91797 29.678 24.327917 23.3184 37.349917-2.9274 6.05674-7.6719 9.08511-14.4352 9.08511-27.2554 0-54.5107.10095-81.7661.10095-1.817.20189-3.634.20189-5.3501.20189z" class="st29"/>
</svg>
