<svg xmlns="http://www.w3.org/2000/svg" xml:space="preserve" id="Layer_1" x="0" y="0" version="1.1" viewBox="0 0 512 512">
  <style id="style2" type="text/css">
    .st0{fill:#fbfbfb}.st1{fill:#fafafa}.st2{fill:#fcfcfc}.st3{fill:#f4f4f4}.st5{fill:#f5f5f5}.st6{fill:#f6f6f6}.st7{fill:#fefefe}.st8{fill:#fdfdfd}.st10{fill:#f8f8f8}.st11{fill:#f2f2f2}
  </style>
  <path id="path4" stroke-width=".8403064" d="M211.04355 355.63353c.92434-51.09063.33613-98.31585.42016-145.45704v-1.51255c-.16806-3.27719-2.01674-5.37796-4.95781-5.37796-2.85704 0-5.37796 2.35286-5.63005 5.29393-.084.92434 0 1.84867 0 2.68898 0 42.09935-.084 84.28273 0 126.38208 0 2.01674-.50419 2.94108-2.52092 3.69735-12.01638 4.3696-22.43618-2.43689-22.94037-15.37761-.33612-9.91561-.16806-19.83123-.16806-29.74684 0-27.98221.67225-55.96441-.084-83.94661-.75627-26.13353 18.31868-45.37655 37.89782-51.51078 2.43689-.75628 4.87378-1.34449 7.22663-2.10077 1.00837-.33612 1.42853-.16806 1.51256 1.00837.92433 10.92398 8.15097 16.38597 17.5624 19.57914 2.35286.75627 2.85704 1.76464 2.77301 3.94944-.084 16.13388-.084 32.35179-.084 48.48568 0 10.33576 8.57112 17.47837 18.31868 15.29357 6.47036-1.42852 11.09204-7.31066 11.09204-14.36924.084-16.63806.084-33.36016 0-49.99823 0-2.10076.42016-2.85704 2.60495-3.36122 9.91562-2.26883 16.13388-9.15934 17.64644-19.07496.16806-1.09239.16806-2.01673 1.68061-1.59658 12.3525 3.86541 23.94873 8.99128 32.77195 19.07496 7.73082 8.82321 11.76429 18.99092 11.76429 30.67118 0 38.99021-.084 77.98043-.084 117.05468 0 13.4449-10.33577 20.50348-23.0244 16.04985-2.10076-.75627-2.35286-1.84867-2.35286-3.78138.084-24.62098.084-49.32598 0-73.94696 0-17.98256-.084-35.96511-.084-53.94767 0-2.1848-.16806-4.28556-2.26882-5.63005-3.19317-2.01674-7.31067-.084-7.81485 3.69734-.2521 2.01674-.16807 4.03348-.16807 6.05021.084 90.66906.16807 181.25409.2521 271.92315v7.89888c-.2521 9.99964-7.3947 17.5624-17.14225 18.23465-10.4198.67224-19.15899-6.13424-20.41945-16.13389-.33612-2.60495-.33612-5.2099-.33612-7.89888V379.66629c0-5.12587 0-5.12587-5.2099-5.04184-2.52092.084-5.04184.16807-7.56276 0-2.26882-.16806-3.10913.58822-3.0251 3.02511.084 17.81449.084 35.54496.084 53.35945 0 20.58751-.084 41.25904-.084 61.84655 0 8.235-3.69735 14.20118-11.17608 17.39434-7.47872 3.19317-14.70536 2.01674-20.83959-3.52928-4.03347-3.61332-5.71409-8.40307-5.71409-13.86506V399.1614c.084-15.71373.084-31.59552.084-43.52787z"/>
  <path id="path6" stroke-width=".8403064" d="M73.06525 72.534305h45.7967c9.57949 0 17.22628 7.47873 17.31031 17.39435.084 30.335065.084 60.670115-.084 90.921145-.084 10.50383-7.64679 17.47837-18.06659 17.5624-12.43654 0-24.87307 0-37.3096-.084-2.26883 0-3.02511.50419-2.85705 2.85705.2521 3.19316.2521 6.47035 0 9.66352-.16806 2.52092.75628 2.94107 3.10914 2.94107 26.55368 0 53.19139.084 79.74507 0 3.10914 0 3.94944.92434 3.44526 3.69735-.16806.75627-.16806 1.59658 0 2.43689.25209 1.9327-.67225 2.26882-2.43689 2.26882-28.15026-.084-56.38456-.084-84.53482-.084-6.05021 0-7.56276-1.68061-7.56276-7.81485 0-4.28556-.084-8.48709.16806-12.68862.16806-2.43689-.42015-3.19317-3.0251-3.19317-12.68863.16807-25.46128.084-38.23394 0-11.17607 0-18.40271-7.22663-18.40271-18.40271-.084-29.0746 0-58.23322-.084-87.307825 0-2.52092.25209-5.04184 1.00837-7.47873 2.43689-8.06694 7.98291-12.52057 16.47-12.6046 15.04149-.084 30.25103 0 45.54461-.084 0 .084 0 .084 0 0z"/>
  <path id="path8" stroke-width=".8403064" d="M501.70557 135.55729v42.09935c0 2.94107 0 5.88214-.8403 8.73918-2.1848 7.14261-8.6552 12.01638-16.0499 12.01638-13.5289 0-27.0579 0-40.5868-.16806-2.6049 0-3.5293.42016-3.3612 3.19317.2521 4.62168.168 9.3274.084 13.94908-.084 4.95781-1.8487 6.80648-6.7224 6.80648h-82.4341c-1.9327 0-2.5209-.42015-2.5209-2.43688.084-5.88215 0-5.88215 5.9662-5.88215 24.9571-.084 49.9142-.084 74.8713-.084 1.6806 0 2.5209-.16806 2.5209-2.26883-.084-3.52928 0-7.05857.2521-10.58786.168-2.18479-.5882-2.68898-2.689-2.68898-11.008.084-22.016-.33612-33.0241.16806-11.3441.50419-19.1589-9.49546-19.0749-18.99092.3361-28.57042.084-57.22486 0-85.795285 0-3.10913 0-6.30229 1.0924-9.3274 2.3528-6.89051 7.0586-10.83995 14.3692-11.68026 1.0924-.16806 2.1848-.16806 3.3613-.16806 28.5704 0 57.2248 0 85.7952-.084 6.8065 0 12.4366 2.35286 16.302 8.15097 2.4369 3.61332 2.9411 7.64679 2.9411 11.84832-.2521 14.453275-.2521 28.822515-.2521 43.191755z"/>
  <path id="path10" stroke-width=".8403064" d="M346.24885 419.41278v-42.77159c0-10.92398 6.97452-18.48674 17.98252-18.57077 27.31-.16806 54.5359-.16806 81.8459 0 10.6719.084 17.5624 7.22663 17.5624 17.89852.084 29.41073.084 58.82145 0 88.23217 0 9.24337-7.7308 16.80613-16.7221 16.80613-27.1419 0-54.3678-.084-81.5097.084-7.6468 0-13.529-2.60495-17.2263-9.49546-1.34451-2.52092-1.84869-5.29393-1.84869-8.15097 0-14.70536 0-29.32669-.084-44.03206z"/>
  <path id="path12" stroke-width=".8403064" d="M165.66701 419.49681v43.94803c0 10.58786-7.22663 17.64643-17.73046 17.64643-28.15027 0-56.38456 0-84.53483-.084-7.56275 0-12.77265-3.86541-15.96582-10.58786-1.09239-2.26883-1.26046-4.62168-1.26046-7.05857 0-29.3267-.084-58.56936 0-87.89605 0-9.57949 7.14261-17.05822 16.7221-17.14225 28.40236-.25209 56.80471-.33612 85.12304-.25209 10.25173 0 17.64643 7.81485 17.64643 18.06659.084 14.45327.084 28.90653 0 43.3598z"/>
  <path id="path14" stroke-width=".8403064" d="M255.15964 147.06948c-13.78103-.42015-24.11679-8.15097-31.84761-20.08331-2.77301-4.28557-5.2099-8.90725-6.89051-13.78103-.50419-1.59658-1.26046-2.43689-3.10914-2.52092-3.94944-.084-6.38633-2.77301-8.31903-5.79811-2.43689-3.78138-2.94107-7.898885-2.26883-12.268475.67225-4.28557 3.0251-6.21827 7.31067-5.88215 5.79811.50418 11.59622 1.34449 17.47837 1.84868 21.00766 1.9327 41.93129 1.84867 62.85492-.33613 4.28556-.42015 8.65515-1.00837 12.94071-1.42852 4.70572-.42015 6.47036 1.00837 7.3947 5.54602.84031 3.94944.33612 7.814855-1.26046 11.512205-1.51255 3.69735-4.28556 6.13424-8.31903 6.63842-2.26883.25209-3.19317 1.34449-3.94944 3.36123-3.44526 9.66352-8.73919 18.15061-16.89016 24.62097-7.05857 5.88214-15.12552 8.65515-25.12516 8.57112z"/>
  <path id="path16" stroke-width=".8403064" d="M263.05852 80.601245c-29.0746.084-51.76287-1.84867-74.19905-6.63842-6.21827-1.34449-12.35251-3.0251-17.98256-6.21826-2.35286-1.34449-5.46199-2.52092-5.37796-5.88215.084-3.19316 2.85704-4.70571 5.37796-5.96617 7.98291-4.1175 16.80613-5.63006 25.54531-7.14261 3.2772-.58821 6.55439-1.00836 9.83159-1.51255 1.59658-.25209 2.10076.25209 1.42852 1.76464 0 .084-.084.16807-.084.2521-.58822 2.18479-2.26883 5.04184-1.51255 6.55439 1.00836 2.01673 4.45362 1.76464 6.80648 2.43689 21.17572 5.54602 42.77159 5.71408 64.36747 4.03347 9.83158-.75628 19.41107-2.68898 28.90654-5.2099 1.59658-.42016 2.18479-1.00837 1.51255-2.60495-.58822-1.51256-.92434-3.10914-1.51255-4.62169-.75628-1.9327-.58822-2.68898 1.76464-2.35286 9.74755 1.34449 19.32705 3.02511 28.73848 5.96618 3.27719 1.00837 6.47036 2.35286 9.15934 4.62168 3.61324 2.94108 3.52924 5.54603-.33613 8.15098-3.27719 2.26882-6.89051 3.69734-10.67189 4.9578-11.76429 3.86541-24.03276 5.54603-36.2172 7.14261-13.78103 1.68061-27.73011 2.26882-35.54496 2.26882z"/>
  <path id="path18" stroke-width=".8403064" d="M257.00831 43.627765c-14.45327.16807-28.82251-1.09239-42.77159-5.2099-2.26883-.67224-2.52092-1.42852-1.84868-3.52928 2.68898-8.57113 5.462-17.05822 7.73082-25.7133795 2.52092-9.49546004 7.89888-10.83995 16.21792-7.56275 3.52928 1.34449 6.72245 3.27719 9.83158 5.29393 6.89051 4.3695895 13.69699 4.6216795 20.75557.33612 4.45362-2.68898 8.82321-5.63005 14.11715-6.80648004 6.0502-1.34449 9.57949.33612 11.51219 6.21826004 3.2772 9.4954695 6.21827 19.1589895 9.41143 28.7384795.75628 2.26883-.67224 2.60495-2.10076 3.0251-11.68026 3.2772-23.69664 4.95781-35.79705 5.29393-2.43689 0-4.78975-.084-7.05858-.084z"/>
  <path id="path20" stroke-width=".8403064" d="M252.89081 204.04226c0-9.07531-.084-18.15062 0-27.30996 0-3.19317-1.00837-4.87378-4.36959-5.29393-4.36959-.58822-8.73919-1.68061-12.18444-4.87378-3.10914-2.94107-5.462-6.3023-5.04184-10.83995.33612-4.03347 2.26883-5.04184 5.79811-3.36123 12.94072 6.38633 25.96547 5.37797 38.99022.16807 3.69735-1.51256 5.96617.084 5.96617 4.20153 0 5.63005-4.36959 11.09204-10.50383 13.10878-1.9327.58821-3.94944 1.00836-5.88214 1.26046-3.86541.58821-4.62169 1.26046-4.62169 5.2099 0 18.31867.084 36.55332.084 54.872 0 .84031.084 1.59658 0 2.43689-.16806 2.10077-1.34449 3.36123-3.36122 3.69735-1.93271.33612-3.2772-.67225-4.20153-2.26883-.67225-1.17643-.67225-2.52092-.67225-3.86541.084-8.99128.084-18.06659 0-27.14189.084 0 0 0 0 0z"/>
  <path id="path22" fill="#fbfbfb" stroke-width=".8403064" d="M118.69388 176.39618c0 4.62168 0 4.45362-3.94944 4.70571-4.45362.25209-2.43688-3.0251-2.60495-4.78974-.25209-2.43689-1.00836-4.28557-3.36122-5.2099-2.60495-1.0924-4.95781-.67225-6.89051 1.42852-1.26046 1.26046-1.34449 2.85704-1.26046 4.53765.084 2.1848.67224 4.28556-3.10914 4.28556s-3.19316-2.01673-3.36122-4.36959c-.58822-7.22663 4.62168-12.43653 11.76429-13.02475 5.79811-.75627 13.86505 3.94944 12.77265 12.43654z" class="st0"/>
  <path id="path24" fill="#fbfbfb" stroke-width=".8403064" d="M85.66984 175.47184c0 1.34449-.084 2.01673 0 2.60495.33613 2.60495-.8403 3.19316-3.27719 3.27719-2.60495.084-3.19317-.92433-3.19317-3.36122.084-5.71408-2.26882-8.15097-6.72245-7.3947-3.10913.58822-4.53765 2.43689-4.53765 6.05021 0 4.53765-.42015 4.95781-4.95781 4.36959-.75627-.084-1.26046-.16806-1.51255-1.0924-1.59658-5.63005 1.17643-12.52056 6.05021-14.87342 5.88214-2.85704 13.19281-.92434 16.72209 4.20153 1.51255 2.1848 1.51255 4.53766 1.42852 6.21827z" class="st0"/>
  <path id="path26" fill="#fbfbfb" stroke-width=".8403064" d="M52.72983 176.39618c0 .50418-.084 1.00836 0 1.51255.50419 2.94107-1.09239 3.19316-3.52928 3.27719-2.52092.084-3.02511-.92433-2.94108-3.19316.084-5.12587-1.84867-7.56276-5.63005-7.56276-3.27719 0-5.29393 1.93271-5.46199 5.12587v1.51255c0 3.78138-1.9327 5.12587-5.63005 3.94944-.67225-.16806-1.00837-.50418-1.0924-1.26046-.84031-8.82321 1.84867-16.13388 13.27684-15.96582 6.63842.084 11.00801 5.37796 11.00801 12.6046z" class="st0"/>
  <path id="path28" fill="#fafafa" stroke-width=".8403064" d="M106.76153 98.667835h-8.73918c-2.10077 0-3.69735-.75627-3.78138-2.94107-.084-2.1848 1.34449-3.86541 3.36122-3.94944 6.13424-.25209 12.26848-.25209 18.40271-.084 2.1848.084 3.19317 1.9327 3.02511 4.1175-.16806 2.01674-1.34449 2.94107-3.44526 2.85704h-8.82322z" class="st1"/>
  <path id="path30" fill="#fbfbfb" stroke-width=".8403064" d="M85.66984 155.55658c0 2.77301-2.43688 4.28556-4.87377 3.0251-4.70572-2.35286-9.5795-2.52092-14.20118-.084-2.1848 1.0924-3.61332.58822-4.78975-1.26046-1.26046-2.01673-.25209-3.44525 1.26046-4.70571 4.95781-4.1175 16.97419-3.78138 21.59588.67224.58821.58822 1.09239 1.34449 1.00836 2.35286z" class="st0"/>
  <path id="path32" fill="#fcfcfc" stroke-width=".8403064" d="M106.6775 149.5904c3.86541-.084 7.3947.84031 10.50383 3.10914 1.51255 1.0924 2.52092 2.52092 1.34449 4.36959-1.0924 1.59658-2.35286 2.52092-4.53765 1.42852-4.87378-2.43689-9.91562-2.60495-14.78939.084-2.10077 1.17643-3.52929.33612-4.62169-1.26046-1.17643-1.76464-.50418-3.19316 1.00837-4.45362 3.27719-2.52092 7.05857-3.19317 11.09204-3.2772z" class="st2"/>
  <path id="path34" fill="#fcfcfc" stroke-width=".8403064" d="M106.6775 104.97014c3.52929.16806 6.97455.67224 10.16771 2.43689 1.84867 1.00837 2.77301 2.35286 1.68061 4.45362-1.00836 1.84868-2.52092 2.94107-4.70571 1.93271-4.95781-2.35286-9.91562-2.01674-14.87343 0-2.26882.92433-3.44525-.50419-4.45362-2.01674-1.17643-1.84867.084-3.0251 1.51255-3.94944 3.19317-2.01673 6.89051-2.60495 10.67189-2.85704z" class="st2"/>
  <path id="path36" fill="#fbfbfb" stroke-width=".8403064" d="M106.42541 134.80102c3.69735.16806 7.56276.67224 10.75592 3.10912 1.51255 1.17643 2.68898 2.60495 1.26046 4.62169-1.34449 1.84867-2.60495 2.10077-4.78974.92434-4.28557-2.35286-8.90725-2.10077-13.44491-.33613-1.00836.42016-2.01673 1.17643-3.10913 1.00837-1.26046-.16806-2.1848-1.00837-2.68898-2.18479-.58821-1.42853 0-2.60495 1.00837-3.52929 2.94107-2.77301 6.89051-3.36122 11.00801-3.61331z" class="st0"/>
  <path id="path38" fill="#fafafa" stroke-width=".8403064" d="M73.56943 134.80102c3.61332 0 6.97454 1.00836 10.08368 2.85703 1.76464 1.0924 2.94107 2.60495 1.68061 4.78975-1.26046 2.10077-2.85704 2.26883-5.04184 1.0924-4.70571-2.52092-9.57949-2.35286-14.20117.16806-1.93271 1.0924-3.02511.33612-4.11751-.92434-1.26046-1.51255-1.00836-3.0251.42016-4.28556 3.10913-2.85704 7.05857-3.61331 11.17607-3.69734z" class="st1"/>
  <path id="path40" fill="#fafafa" stroke-width=".8403064" d="M73.65346 98.751865h-8.73918c-1.84868 0-3.19317-.75627-3.52929-2.60495-.33612-1.9327.58821-3.27719 2.43689-4.03347.8403-.33612 1.68061-.50418 2.60495-.50418h14.78939c2.43689 0 3.86541 1.26046 4.1175 3.52928.16806 2.10077-.58821 3.78138-3.19316 3.69735-2.77301-.084-5.63006-.084-8.4871-.084z" class="st1"/>
  <path id="path42" fill="#fbfbfb" stroke-width=".8403064" d="M52.81386 109.50779c.16807 2.85705-2.85704 5.12587-5.29393 4.11751-4.62168-1.93271-9.24337-1.93271-13.78102.084-2.1848.92433-3.69735.50418-4.70572-1.59659-.92433-2.01673-.16806-3.44525 1.68062-4.53765 6.55439-3.52929 13.10878-3.44526 19.7472-.33612 1.00836.42015 2.10076 1.09239 2.35285 2.26882z" class="st0"/>
  <path id="path44" fill="#fbfbfb" stroke-width=".8403064" d="M72.81316 104.97014c3.94944.084 7.31066.67224 10.4198 2.26883 1.76464.92433 3.19316 2.10076 2.10076 4.28556-1.00837 2.01673-2.52092 3.36122-5.12587 2.10077-4.53765-2.1848-9.24337-1.93271-13.78102-.084-2.10077.84031-3.78138.67225-4.87378-1.34449-1.26046-2.26882.16806-3.52928 1.93271-4.62168 3.0251-1.93271 6.38632-2.35286 9.3274-2.60495z" class="st0"/>
  <path id="path46" fill="#fbfbfb" stroke-width=".8403064" d="M40.37733 149.5904c3.69735 0 7.22663.58822 10.33577 2.68898 1.76464 1.26046 2.94107 2.77301 1.42852 5.04184-1.42852 2.1848-2.85704 2.10077-5.04184.92434-4.36959-2.35286-8.90725-2.26883-13.27684.084-2.01673 1.0924-3.61332 1.0924-4.87378-.92434-1.26046-2.10076-.33612-3.69735 1.42852-4.87378 2.94108-2.18479 6.3023-2.94107 9.99965-2.94107z" class="st0"/>
  <path id="path48" fill="#fafafa" stroke-width=".8403064" d="M40.20927 134.88505c4.20153 0 7.31066.8403 10.08368 2.43688 2.35285 1.42852 3.0251 3.61332 1.68061 5.63005-1.0924 1.59659-2.35286 2.10077-4.1175.84031-4.70572-3.19316-9.5795-2.60495-14.28521-.33612-1.93271.92433-3.2772 1.42852-4.62169-.58822-1.51255-2.18479-.33612-3.61332 1.26046-4.87377 3.19317-2.43689 6.97455-3.0251 9.99965-3.10913z" class="st1"/>
  <path id="path50" fill="#fcfcfc" stroke-width=".8403064" d="M40.54539 98.583805h-7.89888c-2.01673 0-3.94944-.16806-4.36959-2.68898-.33612-2.01673 1.68061-4.20153 4.1175-4.28556 3.27719-.16806 6.63842-.084 9.99965-.084 2.01673 0 4.03347-.084 6.0502 0 2.43689.16806 4.03347 1.59658 4.03347 3.94944 0 2.52092-1.76464 3.27719-4.1175 3.10913-2.52092-.084-5.2099.084-7.81485 0 0 .084 0 .084 0 0z" class="st2"/>
  <path id="path52" fill="#f4f4f4" stroke-width=".8403064" d="M73.73749 123.70897c-2.35285 0-4.03347-1.59658-4.03347-3.94944 0-2.43689 1.34449-3.69735 3.69735-3.78138 2.35286-.084 4.36959 1.84868 4.28556 4.03347 0 2.10077-1.76464 3.61332-3.94944 3.69735z" class="st3"/>
  <path id="path54" fill="#f7f7f7" stroke-width=".8403064" d="M81.46831 122.11239c2.85704 0 4.53766 1.59658 4.36959 4.03347-.084 2.10077-.92433 3.69735-3.44525 3.78138-2.52092.084-4.28556-1.59658-4.28556-4.03347.16806-2.43689 1.51255-3.61332 3.36122-3.78138z"/>
  <path id="path56" fill="#f5f5f5" stroke-width=".8403064" d="M118.69388 126.22989c-.33612 2.52092-1.68061 3.78138-4.1175 3.69735-2.43689-.084-3.69735-1.51255-3.61331-3.94944.084-2.35286 1.51255-3.69735 3.78137-3.86541 2.10077-.084 4.03347 2.10077 3.94944 4.1175z" class="st5"/>
  <path id="path58" fill="#f6f6f6" stroke-width=".8403064" d="M110.45888 119.92759c.084 2.01674-1.68061 3.86541-3.78138 3.78138-2.26882-.084-3.78138-1.34449-3.94944-3.69735-.25209-2.10076 1.76465-4.1175 3.86541-4.1175 1.93271-.084 3.78138 1.76465 3.86541 4.03347z" class="st6"/>
  <path id="path60" fill="#f6f6f6" stroke-width=".8403064" d="M40.88151 116.06218c2.26883 0 3.78138 1.68062 3.78138 4.20154-.084 2.43688-1.68061 3.44525-3.78138 3.44525-2.26882 0-3.86541-1.00837-3.94944-3.61332 0-2.43688 1.59659-4.03347 3.94944-4.03347z" class="st6"/>
  <path id="path62" fill="#f5f5f5" stroke-width=".8403064" d="M69.11581 126.73407c-.25209 2.01674-1.51255 3.2772-3.94944 3.2772-2.26883 0-3.94944-1.84867-3.78138-4.1175.084-2.52092 1.76464-3.44526 3.94944-3.69735 2.01673-.084 3.86541 2.01674 3.78138 4.53765z" class="st5"/>
  <path id="path64" fill="#f5f5f5" stroke-width=".8403064" d="M36.00774 126.22989c-.16806 2.01674-1.0924 3.61332-3.61332 3.69735-2.26883.084-3.61332-1.17643-3.78138-3.44526-.25209-2.01673 1.84867-4.36959 3.69735-4.45362 1.9327-.084 3.69735 1.76464 3.69735 4.20153z" class="st5"/>
  <path id="path66" fill="#f4f4f4" stroke-width=".8403064" d="M52.72983 126.14586c-.33612 2.1848-1.17643 3.94944-3.78137 3.78138-2.43689-.084-3.52929-1.68061-3.61332-3.94944-.084-2.1848 1.68061-4.1175 3.69735-3.86541 2.35285.25209 3.44525 1.76464 3.69734 4.03347z" class="st3"/>
  <path id="path68" fill="#f5f5f5" stroke-width=".8403064" d="M97.3501 129.84321c-1.9327-.25209-3.10913-1.51255-3.10913-3.78138 0-2.35286 1.34449-3.94944 3.69735-3.86541 2.18479.084 3.69734 1.51255 3.52928 3.94944-.084 2.52092-1.34449 3.69735-4.1175 3.69735z" class="st5"/>
  <path id="path70" fill="#fefefe" stroke-width=".8403064" d="M471.70657 131.77591c5.9662 0 11.008 4.87378 10.924 10.67189 0 6.0502-4.8738 10.83995-11.008 10.83995-6.6384 0-11.1761-4.20153-11.0921-10.16771 0-6.63842 4.6217-11.34413 11.1761-11.34413z" class="st7"/>
  <path id="path72" fill="#fdfdfd" stroke-width=".8403064" d="M440.19507 131.69188c5.8822.084 11.008 5.2099 10.924 11.00801-.084 6.05021-4.7057 10.4198-10.924 10.50383-6.7224 0-11.2601-4.20153-11.176-10.4198.084-6.21827 5.0418-11.09204 11.176-11.09204z" class="st8"/>
  <path id="path74" fill="#fdfdfd" stroke-width=".8403064" d="M419.18747 171.5224c-.084 5.88214-5.462 10.92398-11.5963 10.67189-6.0502-.16806-10.7559-4.95781-10.6718-10.83995.084-6.21827 4.9578-10.83995 11.3441-10.75592 6.0502.084 11.092 5.04183 10.924 10.92398z" class="st8"/>
  <path id="path76" fill="#fefefe" stroke-width=".8403064" d="M396.91937 142.78392c0-6.13423 4.8737-11.00801 10.9239-11.09204 5.9662-.084 11.3442 5.04184 11.3442 10.75592 0 6.21827-5.0419 11.00801-11.6803 10.92398-5.8821 0-10.5878-4.70571-10.5878-10.58786z" class="st7"/>
  <path id="path78" fill="#fefefe" stroke-width=".8403064" d="M440.02707 160.68245c5.9661 0 11.008 4.70571 11.092 10.4198.084 6.0502-4.9578 11.00801-11.2601 10.92398-6.1342 0-10.7559-4.36959-10.7559-10.25174-.1681-6.3023 4.5376-11.00801 10.924-11.09204z" class="st7"/>
  <path id="path80" fill="#fefefe" stroke-width=".8403064" d="M460.69857 171.60643c0-6.55439 4.6217-11.00801 11.1761-10.92398 5.7981.084 10.7559 4.87377 10.7559 10.50383.084 5.96617-5.2099 11.00801-11.4282 10.92398-5.9661-.084-10.5038-4.62169-10.5038-10.50383z" class="st7"/>
  <path id="path82" fill="#fdfdfd" stroke-width=".8403064" d="M471.62257 124.46525c-4.9578 0-8.319-2.94108-8.319-7.56276-.084-4.70572 3.5292-8.31903 8.403-8.40306 4.6217 0 8.3191 3.61331 8.3191 8.15097-.084 4.45362-3.7814 7.81485-8.4031 7.81485z" class="st8"/>
  <path id="path84" fill="#fdfdfd" stroke-width=".8403064" d="M440.11107 124.46525c-4.7057 0-7.9829-3.10914-7.9829-7.56276 0-4.78975 3.4452-8.31903 8.0669-8.31903 4.6217 0 8.235 3.52928 8.235 8.235.084 4.28556-3.5293 7.73082-8.319 7.64679z" class="st8"/>
  <path id="path86" fill="#fdfdfd" stroke-width=".8403064" d="M416.07827 116.73443c0 4.53765-3.4452 7.81485-8.1509 7.81485s-7.9829-3.19317-7.8989-7.73082c.084-4.78975 3.5293-8.31903 8.235-8.235 4.5376 0 7.8148 3.44525 7.8148 8.15097z" class="st8"/>
  <path id="path88" fill="#fafafa" stroke-width=".8403064" d="M408.17947 100.85264c-3.5293 0-6.3023-2.604955-6.3864-5.966185-.084-3.27719 3.1092-6.38633 6.4704-6.30229 3.3612.084 5.9662 2.85704 5.8821 6.38632 0 3.36123-2.6049 5.882155-5.9661 5.882155z" class="st1"/>
  <path id="path90" fill="#fbfbfb" stroke-width=".8403064" d="M439.85897 100.76861c-3.5293 0-5.8821-2.688985-5.7981-6.302305.084-3.19316 2.857-5.88214 6.0502-5.96618 3.1932 0 6.1342 2.94108 6.0502 6.21827 0 3.36123-2.9411 6.050215-6.3023 6.050215z" class="st0"/>
  <path id="path92" fill="#fbfbfb" stroke-width=".8403064" d="M472.29477 88.668195c3.0251.084 5.8822 2.94107 5.8822 6.0502 0 3.44526-2.689 6.134245-6.1343 6.134245-3.3612 0-6.0502-2.604955-5.9661-5.798125.084-3.69734 2.773-6.47035 6.2182-6.38632z" class="st0"/>
  <path id="path94" fill="#fafafa" stroke-width=".8403064" d="M405.23837 449.74784c-1.9327.2521-3.2772-.67224-4.5377-1.9327-7.3106-7.05857-14.7053-14.11715-22.1-21.17572-1.0084-1.00837-1.9327-1.76464-3.6133-1.59658-2.521.25209-4.2856-1.17643-4.9579-3.61332-.6722-2.35286.1681-4.45362 2.1848-5.88215 1.9328-1.34449 4.1175-1.26046 5.8822.33613 4.9578 4.53765 9.9156 9.24337 14.7894 13.86505 3.6133 3.44526 7.3106 6.97455 10.8399 10.58786 1.0924 1.0924 1.6806 1.0924 2.8571 0 8.1509-7.81485 16.386-15.6297 24.621-23.36051 3.4452-3.2772 6.8064-2.94108 8.5711.8403 1.5125 3.2772-.1681 6.72245-3.7814 6.80648-2.1008 0-3.3612 1.00837-4.6217 2.1848-6.9745 6.72245-13.9491 13.4449-20.8396 20.25138-1.5966 1.68062-3.1091 2.94108-5.2939 2.68898z" class="st1"/>
  <path id="path96" fill="#fdfdfd" stroke-width=".8403064" d="M434.22897 404.20324c-1.0924-.50419-1.6807.16806-2.3529.8403-7.1426 6.89052-14.2852 13.697-21.4278 20.50348-3.2772 3.19316-6.9746 3.2772-10.3358 0-7.1426-6.72245-14.2852-13.4449-21.3438-20.16735-.9243-.84031-1.5965-1.51255-3.1091-1.17643-2.5209.50418-4.6217-.58822-5.546-3.19317-.9244-2.60495.084-4.87377 2.2688-6.30229 2.1848-1.42852 4.3696-1.34449 6.3023.50418 7.2266 6.89051 14.4533 13.78102 21.6799 20.67154 4.6217 4.36959 4.7057 4.45362 9.2434.16806 7.1426-6.72245 14.1171-13.52893 21.2597-20.25139 2.773-2.60494 4.9578-2.85704 7.2267-.8403 1.7646 1.51255 2.5209 3.36122 1.7646 5.71408-.8403 2.68898-2.9411 3.52929-5.63 3.52929z" class="st8"/>
  <path id="path98" fill="#fbfbfb" stroke-width=".8403064" d="M405.23837 406.38804c-2.4369.50418-3.9495-1.0924-5.546-2.52092-6.9746-6.55439-13.9491-13.19281-20.9237-19.7472-.7562-.67225-1.2604-1.42852-2.773-.92434-2.1848.75627-4.4536.33612-5.63-2.1848-1.1765-2.52092-.4202-4.78974 1.5966-6.55439 1.9327-1.68061 4.2855-2.26882 6.3023-.50418 4.1175 3.52929 8.1509 7.22663 12.1844 10.92398 4.2856 3.94944 8.5711 7.89888 12.8567 11.93235 1.2604 1.17643 1.9327 1.59658 3.5293.084 7.7308-7.39469 15.6297-14.5373 23.5285-21.76393 2.689-2.43689 5.294-2.77301 7.5628-.84031 2.0167 1.59658 2.689 3.69735 1.6806 6.21827-1.0084 2.43689-3.1931 3.52929-5.3779 2.77301-1.9327-.58821-2.7731.25209-3.8655 1.26046-6.7224 6.55439-13.5289 13.02475-20.1673 19.66317-1.3445 1.42852-2.773 2.60495-4.9578 2.1848z" class="st0"/>
  <path id="path100" fill="#fbfbfb" stroke-width=".8403064" d="M425.99397 454.11744c-.4202.50418-.7563 1.0924-1.2605 1.59658-3.1932 3.10913-6.3863 6.13424-9.5795 9.15934-.8403.8403-1.9327 1.76464-2.689.33612-.8403-1.68061-4.2855-2.68898-2.1848-5.12587 3.1092-3.52928 6.7225-6.63842 10.1677-9.91561.5882-.58822 1.2605-1.0924 2.1008-.25209 1.3445 1.17642 2.857 2.18479 3.4453 4.20153z" class="st0"/>
  <path id="path102" fill="#fafafa" stroke-width=".8403064" d="M400.78477 461.51213c-.7563 1.59659-2.1848 2.77301-3.4453 3.94944-1.0924.92434-1.7646-.50418-2.4369-1.0924-3.2772-3.0251-6.4703-6.13423-9.6635-9.0753-1.3445-1.17643-1.5126-2.26883-.084-3.44526 1.3445-1.17643 2.2688-3.86541 4.5376-1.84867 3.7814 3.36122 7.1426 7.05857 10.7559 10.67189.084.084.1681.42015.3362.8403z" class="st1"/>
  <path id="path104" fill="#f9f9f9" stroke-width=".8403064" d="M410.53227 378.82599c0 2.77301-2.2688 5.12586-5.2099 5.2099-2.9411.084-5.0418-1.84868-5.1259-4.78975-.084-3.0251 2.1848-5.54602 5.1259-5.63005 2.773 0 5.1259 2.35285 5.2099 5.2099z"/>
  <path id="path106" fill="#f8f8f8" stroke-width=".8403064" d="M372.21427 434.28621c2.689 0 5.0419 2.35285 4.9579 5.04183 0 2.60495-2.3529 4.95781-5.0419 5.04184-2.6049.084-4.9578-2.35285-4.9578-5.04184.084-2.77301 2.2688-4.9578 5.0418-5.04183z" class="st10"/>
  <path id="path108" fill="#fafafa" stroke-width=".8403064" d="M437.42207 444.45391c-2.6049 0-4.7057-2.18479-4.6217-4.9578.084-2.77301 2.2689-5.12587 4.9578-5.12587 2.3529-.084 4.8738 2.43689 4.8738 4.87377 0 2.77302-2.4369 5.2099-5.2099 5.2099z" class="st1"/>
  <path id="path110" fill="#f8f8f8" stroke-width=".8403064" d="M377.17217 459.57943c-.084 2.85704-2.3529 5.04184-5.378 4.95781-2.689-.084-4.6217-2.26883-4.4536-5.04184.084-2.77301 2.3528-4.95781 5.1258-4.87378 2.605.084 4.7058 2.26883 4.7058 4.95781z" class="st10"/>
  <path id="path112" fill="#f8f8f8" stroke-width=".8403064" d="M442.88407 459.66346c.084 2.77301-1.8487 4.87378-4.6217 4.87378-2.773.084-4.6217-1.93271-4.6217-4.87378 0-2.77301 2.1008-4.95781 4.6217-5.04184 2.4369 0 4.5377 2.26883 4.6217 5.04184z" class="st10"/>
  <path id="path114" fill="#fcfcfc" stroke-width=".8403064" d="M108.8623 429.58049c9.99965-10.16771 22.18409-13.4449 35.79705-13.10878 2.43689.084 3.52929.67225 3.44526 3.2772-.084 2.52092-1.0924 3.36122-3.52929 3.19316-12.10041-.84031-22.35215 3.19316-31.17537 11.42817-1.17643 1.0924-2.18479 2.60495-4.03347 3.0251-1.0924.25209-.75627 1.26046-.8403 2.01674v9.41143c1.76464-.67225 2.85704-2.01674 4.03347-3.10914 9.57949-8.06694 20.92363-9.83158 32.94001-9.41143 2.85704.084 2.35286 2.1848 2.43689 3.94944.084 1.93271-.84031 2.68898-2.77302 2.60495-9.83158-.67224-19.07495 1.17643-27.22592 7.05858-3.10914 2.26882-5.54602 5.29393-8.99128 7.05857-1.0924.58821-.42015 2.01673-.42015 3.10913.16806 4.03347-.84031 6.05021-3.2772 6.13424-2.52092.16806-3.94944-1.93271-3.86541-5.96618.084-1.84867-.42015-3.0251-2.01673-4.20153-2.68898-1.9327-4.87378-4.45362-7.64679-6.38633-7.81485-5.63005-16.63807-7.39469-26.13353-6.89051-2.1848.084-3.52929-.50418-3.61332-2.85704-.084-2.10077.58822-3.19316 3.10914-3.36123 13.4449-.92433 25.46128 2.1848 35.29287 11.84832.16806.16806.50418.2521.75627.42016.58822-.67225 0-1.34449.16806-2.01674 1.42852-6.72245-1.84867-10.92398-6.97454-14.78939-7.47873-5.79811-15.71373-8.90725-25.12516-9.07531-1.34449 0-2.60495-.084-3.94944 0-2.35286.16806-3.2772-.84031-3.2772-3.19316.084-2.1848.84031-3.02511 3.2772-3.19317 13.36087-.75627 25.12516 2.94107 35.12481 12.01638.16806.16806.50418.2521 1.00836.50419v-9.41143c0-.42016-.16806-1.0924-.50418-1.34449-7.64679-6.72246-15.29358-13.27685-25.96547-14.45327-3.36122-.42016-6.89051-.42016-10.25174-.42016-2.10076 0-2.60495-1.42852-2.68898-2.94107 0-1.42852.16807-3.0251 2.35286-3.19316 12.10041-.84031 23.27649 1.59658 33.02404 9.24337.67225.58821 1.34449 1.26046 2.01674 1.76464.58821.42015.92433 1.42852 1.9327 1.26046v-8.99128c0-.67224 0-1.34449-.58821-1.9327-8.06694-7.31067-16.63807-13.52894-27.9822-14.36924-2.52092-.16806-5.04184-.25209-7.56276-.25209-2.1848 0-3.19317-.92434-3.19317-3.10914 0-2.10076.75628-3.27719 3.19317-3.36122 13.61296-.58822 25.71337 3.0251 36.13317 13.27684v-8.23501c0-1.17642.084-2.43688.25209-3.61331.33613-2.1848 1.76465-3.19317 3.86541-3.02511 2.01674.16807 2.94108 1.59659 2.94108 3.61332v11.5122c6.97454-7.56276 15.20954-11.26011 24.45291-12.94072 4.1175-.75627 8.235-.58821 12.3525-.75627 2.1848-.084 2.94108 1.00836 2.85705 3.19316-.084 2.10077-.84031 3.19316-3.02511 3.19316-4.9578-.084-9.91561 0-14.70536 1.42852-6.55439 1.84868-12.01638 5.63006-16.97419 10.16771-1.26046 1.0924-2.35285 2.60495-4.03347 3.0251-.75627.16807-.8403.75628-.8403 1.42853v10.41979c6.63842-6.80648 14.11714-10.83995 22.85633-12.52056 4.70572-.92434 9.41143-.84031 14.20118-.75628 2.60495 0 2.52092 1.76465 2.52092 3.52929 0 1.84867-.67225 2.77301-2.68898 2.68898-7.64679-.33612-15.12552.33612-22.01603 4.1175-3.2772 1.84868-5.96618 4.53766-9.15934 6.38633-6.05021 3.86541-6.47036 9.3274-5.29393 15.88179z" class="st2"/>
  <path id="path116" fill="#fbfbfb" stroke-width=".8403064" d="M141.38216 462.10035c-5.96618-.084-11.68026.92433-16.97419 3.61331-2.68898 1.3445-4.20153-.084-5.2099-1.84867-1.17643-2.10076.8403-2.94107 2.35286-3.78138 7.73081-4.36959 16.13388-4.62168 24.62097-4.1175 2.26883.16806 1.84868 2.01674 1.84868 3.44526 0 1.42852-.2521 2.68898-2.10077 2.60495-1.51255.084-3.0251.084-4.53765.084z" class="st0"/>
  <path id="path118" fill="#fafafa" stroke-width=".8403064" d="M70.12418 455.96611c6.47035-.25209 12.94071.84031 18.82286 4.28556 2.94107 1.68062 3.10913 3.44526.75627 5.29393-.8403.67225-1.68061.92434-2.77301.42016-6.80648-3.44526-14.03311-4.28557-21.51184-3.86541-2.77301.16806-3.61332-1.0924-3.44526-3.61332.084-1.68061.75628-2.60495 2.60495-2.52092 1.76465.084 3.52929 0 5.54603 0z" class="st1"/>
  <path id="path120" fill="#f5f5f5" stroke-width=".8403064" d="M145.24757 394.87584c-2.60495.084-3.86541-1.0924-3.86541-3.19317 0-1.9327 1.09239-3.36122 3.10913-3.36122 2.1848-.084 3.61332 1.17643 3.61332 3.52928 0 2.01674-1.26046 2.85705-2.85704 3.02511z" class="st5"/>
  <path id="path122" fill="#f2f2f2" stroke-width=".8403064" d="M62.39336 391.43058c.33612-1.9327 1.42852-3.27719 3.61331-3.10913 2.10077.16806 3.44526 1.42852 3.2772 3.61332-.16806 2.18479-1.76464 3.0251-3.78138 3.0251-2.1848-.084-3.0251-1.42852-3.10913-3.52929z" class="st11"/>
  <path id="path124" fill="#f6f6f6" stroke-width=".8403064" d="M65.58652 434.37024c-2.01673-.16806-3.36122-1.00837-3.19316-3.19317.16806-2.18479 1.51255-3.19316 3.52928-3.19316 2.10077 0 3.44526 1.0924 3.36123 3.36122-.16806 2.26883-1.93271 2.77302-3.69735 3.02511z" class="st6"/>
  <path id="path126" fill="#f4f4f4" stroke-width=".8403064" d="M144.07114 408.06865c2.52092 0 3.86541.92433 3.94944 3.19316 0 1.84868-.92434 3.0251-2.94108 3.0251-2.10076.084-3.61331-.67224-3.78137-2.94107-.084-2.01673 1.17642-3.10913 2.77301-3.27719z" class="st3"/>
  <path id="path128" fill="#f3f3f3" stroke-width=".8403064" d="M69.28387 411.34584c-.16806 2.1848-1.76464 3.02511-3.69735 3.10914-2.01673 0-3.10913-1.42852-3.10913-3.36123 0-2.01673 1.34449-3.10913 3.27719-3.19316 2.1848-.084 3.36123 1.17643 3.52929 3.44525z"/>
  <path id="path130" fill="#eee" stroke-width=".8403064" d="M65.58652 453.86535c-1.76464-.16807-3.19316-.75628-3.19316-2.85705 0-2.18479 1.17643-3.27719 3.36122-3.36122 2.01674-.084 3.36123.92433 3.36123 2.94107.084 2.35286-1.51255 3.10913-3.52929 3.2772z"/>
  <path id="path132" fill="#f2f2f2" stroke-width=".8403064" d="M144.82741 427.89988c2.10077.16806 3.19317 1.34449 3.10914 3.36122 0 2.1848-1.42853 3.02511-3.36123 2.94108-1.84867-.084-3.19316-.92434-3.19316-2.94108 0-2.10076 1.34449-3.19316 3.44525-3.36122z" class="st11"/>
  <path id="path134" fill="#f2f2f2" stroke-width=".8403064" d="M144.82741 453.94938c-2.01673 0-3.36122-1.00837-3.36122-3.02511 0-1.76464 1.09239-2.94107 3.10913-2.94107 2.10077 0 3.44526 1.00837 3.44526 3.19316-.084 2.01674-1.42852 2.68899-3.19317 2.77302z" class="st11"/>
</svg>
