<svg xmlns="http://www.w3.org/2000/svg" viewBox="0 0 512 512">
  <path d="M32.091429 309.21168H18.285715A18.280869 18.280869 0 0 0 3e-7 327.4974v126.08a18.339383 18.339383 0 0 0 18.2857147 18.28571h13.805714a18.332526 18.332526 0 0 0 18.285714-18.28571v-126.08a18.287177 18.287177 0 0 0-18.285714-18.28572ZM200.96 317.2574l-56.04571.18285v-71.77143c0-9.23428-4.57143-22.21714-25.9649-32.09097a18.388663 18.388663 0 0 0-25.966533 18.65097 123.11835 123.11835 0 0 1-9.691428 61.16572 67.724983 67.724983 0 0 1-16.274286 23.58857 30.613486 30.613486 0 0 1 1.645715 10.51429l.0011 126.07872c-.148937 8.33316-3.896229 10.59264 6.764525 10.24109h89.965707a59.863863 59.863863 0 0 0 58.97143-51.10857l8.32-58.88A32.130743 32.130743 0 0 0 200.96 317.2574ZM493.71429 309.21168h-13.80572a18.287543 18.287543 0 0 0-18.28571 18.28572v126.08a19.018697 19.018697 0 0 0 1.18857 6.49142 18.32448 18.32448 0 0 0 17.09714 11.79429h13.80572A18.339383 18.339383 0 0 0 512 453.5774v-126.08a18.280869 18.280869 0 0 0-18.28571-18.28572zM444.98377 316.98238c-22.34148-18.6155-29.29234-67.53966-25.96699-84.75282a18.38848 18.38848 0 0 0-25.96535-18.65216c-21.39429 9.87428-25.96572 22.85714-25.96572 32.09142l.18286 71.58858H311.04a32.221806 32.221806 0 0 0-24.32 11.06285 31.899428 31.899428 0 0 0-7.40571 25.50857l8.32 58.88a59.863863 59.863863 0 0 0 58.97142 51.10858l89.9649-.001c10.72932.66624 6.75108-2.67301 6.76672-10.23891.73243-4.94098-1.80215-135.9946 1.64644-136.59501zM356.57143 140.70782a100.57143 100.57143 0 0 0-201.14286.001c5.46377 133.43259 195.69975 133.39355 201.14286-.001zm-56.04572-18.92471-50.74285 50.74286a9.0528914 9.0528914 0 0 1-12.98286 0l-25.32571-25.32572a9.2152685 9.2152685 0 0 1 0-12.98285 9.10464 9.10464 0 0 1 12.89142 0l18.92572 18.92571 44.34286-44.25143a9.1169828 9.1169828 0 0 1 12.89142 12.89143z"/>
</svg>
