<svg xmlns="http://www.w3.org/2000/svg" data-name="Layer 3" viewBox="0 0 64 64">
  <path d="M62.967742 27.870968h-3.096774V1.0322581A1.0322581 1.0322581 0 0 0 58.83871 0H11.354839a1.0322581 1.0322581 0 0 0-1.032258 1.0322581V18.770581a3.0967742 3.0967742 0 0 0-2.0645165 2.906838v1.222194a3.0616774 3.0616774 0 0 0-1.032258-.189936 3.0967742 3.0967742 0 0 0-3.0967742 3.096775v1.222193a3.0616774 3.0616774 0 0 0-1.0322581-.189935A3.0967742 3.0967742 0 0 0 0 29.935484v13.175742a10.875871 10.875871 0 0 0 1.1406452 4.834064 8.7876129 8.7876129 0 0 1 .9094193 3.667613H1.0322581A1.0322581 1.0322581 0 0 0 0 52.645161v10.322581A1.0322581 1.0322581 0 0 0 1.0322581 64H58.83871a1.0322581 1.0322581 0 0 0 1.032258-1.032258V40.258065h3.096774A1.0322581 1.0322581 0 0 0 64 39.225806v-10.32258a1.0322581 1.0322581 0 0 0-1.032258-1.032258ZM2.9935484 47.022452a8.8 8.8 0 0 1-.9290323-3.911226V29.935484a1.0322581 1.0322581 0 0 1 2.0645162 0v10.322581h2.0645161V25.806452a1.0322581 1.0322581 0 0 1 2.0645161 0v14.451613h2.0645165V21.677419a1.0322581 1.0322581 0 0 1 2.064516 0v18.580646h2.064516V25.806452a1.0322581 1.0322581 0 0 1 2.064516 0v16.516129h2.064516v-4.129033a1.0322581 1.0322581 0 0 1 2.064516 0v4.306581a6.0572903 6.0572903 0 0 1-1.762064 4.253936 8.1403871 8.1403871 0 0 0-2.31742 4.858838H4.1145806a10.860387 10.860387 0 0 0-1.1210322-4.590451ZM18.580645 61.935484H2.0645161v-8.258065H18.580645Zm39.225807 0H20.645161v-9.290323a1.0322581 1.0322581 0 0 0-1.032258-1.032258h-.963097a6.0624516 6.0624516 0 0 1 1.692904-3.399226 8.1372903 8.1372903 0 0 0 2.366967-5.713548v-4.306581a3.0967742 3.0967742 0 0 0-3.096774-3.096774 3.0616774 3.0616774 0 0 0-1.032258.189936v-9.480258a3.0967742 3.0967742 0 0 0-3.096774-3.096775 3.0616774 3.0616774 0 0 0-1.032258.189936v-1.222194a3.0967742 3.0967742 0 0 0-2.064516-2.906838V2.0645161h45.419355V27.870968h-2.897549l-8.966193-3.587097 5.524645-9.304774a1.0322581 1.0322581 0 0 0-.309678-1.386323l-3.096774-2.064516a1.0322581 1.0322581 0 0 0-1.459613.331355l-7.059613 11.882322h-2.647742a4.1290323 4.1290323 0 0 0-3.584 2.081033L26.158452 38.336a2.6632258 2.6632258 0 0 0 2.311225 3.986581h.04026l-1.525677 2.56929a1.0074839 1.0074839 0 0 0-.124903.325161l-1.032258 5.161291a1.0322581 1.0322581 0 0 0 1.630968 1.032258l4.129032-3.096775a1.0116129 1.0116129 0 0 0 .267355-.298322l4.603871-7.757419h4.006193a5.0972903 5.0972903 0 0 1 2.836645.858838 7.1618065 7.1618065 0 0 0 3.976258 1.205678 15.088516 15.088516 0 0 0 6.709678-1.584516l.966193-.48h2.853162zM38.348387 33.032258h-1.922064l11.389935-19.183484 1.376.91871zm-4.358193.05987a3.6129032 3.6129032 0 0 0-3.022452 3.553032 3.5654194 3.5654194 0 0 0 .213677 1.177807l-1.446193 2.435097h-1.265549a.59974194.59974194 0 0 1-.516129-.896l7.152517-12.51613a2.0645161 2.0645161 0 0 1 1.78787-1.039483h1.422452zm-1.467871 6.515613a3.5819355 3.5819355 0 0 0 1.564903.600774l-3.902968 6.572387-1.803355 1.353291.467613-2.340129zm2.058322-1.414194a1.5483871 1.5483871 0 0 1 0-3.096774h5.433807a10.875871 10.875871 0 0 0 4.834064-1.135484l-.922839-1.847742a8.8061935 8.8061935 0 0 1-3.150451.879484l4.101161-6.906838 8.801032 3.515871v8.980645l-.606967.303484a13.006452 13.006452 0 0 1-5.793033 1.371871 5.0972903 5.0972903 0 0 1-2.836645-.858839 7.1618065 7.1618065 0 0 0-3.976258-1.205678zm27.354839 0h-6.193549v-8.258064h6.193549z"/>
  <path d="M20.645161 7.2258065h28.903226v2.0645161H20.645161ZM51.612903 7.2258065h4.129032v2.0645161h-4.129032zM51.612903 49.548387h4.129032v2.064516h-4.129032zM16.516129 11.354839h24.774194v2.064516H16.516129ZM16.516129 15.483871h24.774194v2.064516H16.516129ZM30.967742 49.548387h18.580645v2.064516H30.967742Z"/>
</svg>
