<svg xmlns="http://www.w3.org/2000/svg" xml:space="preserve" viewBox="0 0 512 512">
  <path d="M57.99177 512h-36.3894c-4.2669 0-7.72872-3.46182-7.72872-7.72872v-83.96934c0-4.2669 3.46182-7.72872 7.72872-7.72872h36.3894c4.2669 0 7.72872 3.46182 7.72872 7.72872v83.96934c0 4.2669-3.46182 7.72872-7.72872 7.72872zM81.66098 498.0722v-91.53705l6.03806-6.36009 17.71166-68.5119-6.84314-29.30473s1.28812-18.43623 22.22007-7.08467c0 0 23.02515 16.18202 18.99978 42.18594-4.02538 26.00393-5.55502 34.37671-5.55502 34.37671h93.54973s14.16933 1.77117 14.16933 15.13542c0 13.36424-7.08467 16.66505-12.39816 16.66505h-12.39816v3.54233h12.15664s12.63968.48305 12.63968 14.65237c0 0-1.28812 14.89389-11.11004 14.89389h-13.36425v3.54233h12.8812s11.59309.48305 11.59309 13.68628c0 13.12273-8.85583 15.13541-13.36425 15.13541h-11.91511v4.02538h12.63968s12.63968 2.01269 12.63968 11.91511c0 9.90243-5.3135 18.43622-14.16933 18.43622h-91.054l-19.48282-5.07197z"/>
  <path d="M151.38049 353.72222h70.12205s27.05052 1.61015 35.4233 26.40647c0 0 39.44869 3.46182 50.47822-24.5548v-46.85537s-35.82585 33.65214-75.19402 22.30058c-39.28767-11.35156-46.85538-30.51235-46.85538-30.51235s3.46182 41.86391-33.97417 53.21547zM265.21812 395.18359s11.35156 11.67359 11.02953 41.54188c-.32203 29.86829 4.42791 61.0247-27.37256 74.87199h232.82776s-3.4618-12.55917 0-20.12688H347.65782s-40.25376-1.28812-40.25376-47.1774v-66.66023s-17.79216 17.95318-42.18594 17.55064z"/>
  <path d="m426.63565 281.99002-22.9446 23.58871h-41.5419s-12.23712.32203-12.23712 9.09735v97.17257s1.61015 10.38547 11.35152 10.38547h97.8167s13.5252.32203 13.5252-14.49135v-61.0247l25.5209-25.19886v131.79081s-.9661 23.26667-31.1564 23.26667H347.09426s-22.94464-2.1737-22.94464-28.01661V307.02786s2.81776-25.19885 29.54626-25.19885c26.64797.16101 72.93977.16101 72.93977.16101z"/>
  <path d="m395.80131002 354.36628193-19.16078904-18.9192665-13.84729293 12.88120272 32.04199177 35.26229245 78.65584411-79.29990425-15.37693575-12.72018768zM359.65345 177.8133c-6.2796-10.06344-17.30913-4.42792-17.30913-4.42792l3.46182-39.28767H153.87622l3.78386 33.65215-1.28812 4.74994c-21.97856-5.63553-17.30912 21.97855-17.30912 21.97855 1.28812 33.00808 16.34303 37.75803 20.44891 35.58433 4.10588-2.17371 7.88974-.32203 7.88974-.32203 6.27958 48.46552 27.69458 61.02469 39.04614 70.7661 11.35156 9.74141 31.47844 14.49136 31.47844 14.49136 32.36402 4.74994 42.18594-5.39401 62.63485-21.09297 20.44891-15.69897 29.22423-48.1435 30.83438-57.56288 1.61015-9.41938 4.42791-8.21177 4.42791-8.21177l6.92365 2.49574c20.36839 3.2203 23.18619-42.74949 16.90659-52.81293zm-91.85909 94.11328h-35.90635s-8.77532-4.10588-11.35156-8.45329c0 0 1.52964-3.70334 21.415-4.50842 19.80485-.80507 29.86829-.16101 37.75802 4.50842 0-.0805-3.13979 8.45329-11.91511 8.45329z"/>
  <path d="M125.29605 177.24974s-5.95755-27.69458 2.49574-43.07152c0 0-27.37256 2.81777-38.40209 5.63553-11.02953 2.81776-13.52526-6.92365-7.56771-10.7075 5.95756-3.78386 42.50797-9.74141 69.5585-9.09735 27.05053.64406 99.42678 5.31349 151.91768 1.61015 52.49088-3.70335 82.11768-1.85167 110.69788 5.63553 0 0 11.3515 3.13979 9.0973 10.06344-2.2542 6.92364-12.5592 3.78385-19.1608 1.85167-6.6016-1.85167-30.1903-4.99147-30.1903-4.99147s7.8897 28.9022.9661 43.07152c0 0 43.3935-4.10588 62.6348-20.12688 19.2413-16.02099 11.9152-30.83437-8.5338-39.04614-20.4489-8.21177-54.7451-18.597239-90.89294-18.838759l-21.73703-21.73703-20.77094 21.09297-21.73703-21.09297-21.73703 21.09297-22.94464-22.94464-20.77094 22.62261-21.73703-22.62261-24.5548 22.94464s-35.26229 1.610149-56.27475 7.567709c-21.09297 5.95755-50.3172 13.20323-55.06714 31.15641.0805-.0805-10.30496 25.7624 74.71097 39.93172z"/>
  <path d="m165.87184147 56.08593144 11.91511252 13.2032328-21.09296946 17.63114621zM207.49422776 56.08593144l-13.04221775 13.2032328 13.52526285 13.84729291 12.55917266-13.84729292zM252.81995983 56.08593144l-13.04221775 13.2032328 13.52526285 13.84729291 12.55917266-13.84729292zM295.56945136 56.08593144l-13.04221775 13.2032328 13.52526285 13.84729291 12.63968017-13.84729292zM344.84005176 86.92031045l-9.41937949-27.69458584-9.499887 10.38546969z"/>
  <path d="m317.14547 59.225721 13.84729-13.84729s-9.74141-25.76241-15.13541-33.00808c-5.3135-7.2456803-14.49136-18.2752103-33.33012-8.5338003-18.83875 9.7414103-31.1564 16.9870903-49.67313 7.2456803-18.59724-9.7414103-34.61824-16.3430303-44.03762-4.1058903-9.41937 12.2371503-18.83875 37.4360003-18.83875 37.4360003l16.34302 16.021 21.25399-20.12688 22.46159 20.12688 22.78363-19.48282 21.89805 19.48282 20.93195-19.16079z"/>
</svg>
