<svg xmlns="http://www.w3.org/2000/svg" xmlns:xlink="http://www.w3.org/1999/xlink" xml:space="preserve" id="Layer_1" x="0" y="0" version="1.1" viewBox="0 0 512 512">
  <style id="style2" type="text/css">
    .st0{fill:#fefefe}
  </style>
  <g id="g10" transform="translate(0 -568)">
    <defs id="defs5">
      <path id="SVGID_1_" d="M656 236h607.79999v607.79999H656z"/>
    </defs>
    <clipPath id="SVGID_2_">
      <use xlink:href="#SVGID_1_" id="use7" width="100%" height="100%" x="0" y="0" overflow="visible"/>
    </clipPath>
  </g>
  <g id="g36" transform="translate(-667.29192 -264.32566) scale(.96318)">
    <path id="path12" d="M983.3 622.7c0 45.9 0 91.8-.1 137.7 0 2.3.6 3.4 2.9 4.1 11.9 3.5 23.8 7.1 35.7 10.8 2.6.8 4.5 5.4 3.1 7.6-.6.9-1.6.4-2.5.4h-51.9c-6.9 0-13.9-.2-20.8.1-3 .1-3.5-.9-3.5-3.6.1-38 0-76 0-114 0-17.9-.1-35.8 0-53.7 0-2.4-.6-3.1-3-2.9-2.2.2-4.4.1-6.5 0-1.6-.1-2.1.4-2 2 .1 3 0 5.9 0 8.9 0 53.3.1 106.7.2 160 0 2.8-.8 3.3-3.4 3.3-24.2-.1-48.5 0-72.7-.2-1.1 0-3.1 1.4-3.5-1.2-.5-3.9.2-5.8 2.7-6.6 6.6-2.1 13.2-4 19.8-6 5.7-1.7 11.3-3.6 17-5.1 2.2-.6 2.8-1.6 2.8-3.8-.1-49.1-.2-98.1-.1-147.2.1-43 .5-86.1 0-129.1 0-2.7.9-3 3.2-3 26.3.1 52.6.1 78.9 0 2.6 0 3.3.6 3.3 3.3-.1 46.1-.1 92.2-.1 138.3.4-.1.4-.1.5-.1z"/>
    <path id="path14" d="M1053.1 373.7c20 0 40 0 59.9.1 2 0 3-.6 3.6-2.5 1.4-3.9 3-7.7 4.4-11.6 1.1-3 .4-6.1.4-9.1 0-1.5.5-2 2-2 4.4.1 8.9.1 13.4 0 1.4 0 2.3.2 2.1 1.9-1.2 7.8 2.3 14.4 5 21.3.6 1.6 1.5 2 3.1 1.9 5.1-.1 10.3.1 15.4-.1 2.1-.1 2.6.7 2.6 2.7-.1 5.4-.1 10.9 0 16.3.1 2-.3 2.8-2.5 2.7-2.8-.2-5.5.1-8.3 0-2.3-.1-2.9.4-2 2.8 4.4 11.4 8.6 22.9 13 34.3 15.5 40.5 31 80.9 46.4 121.4.9 2.3 1.9 3.3 4.4 3.1 2.1-.2 4.2.1 6.2-.1 2.1-.1 2.7.2 1.7 2.5-5.9 13.7-15.8 23.7-28 31.7-14.8 9.7-31.3 14.8-48.8 17.3-11.2 1.6-22.4 2.1-33.6 0-13-2.5-25.8-5.6-37.8-11.5-14.6-7.2-27.3-16.7-36-30.8-1.4-2.3-2.5-4.9-3.8-7.3-.8-1.4-.4-1.9 1.2-1.9 2.9.1 5.7 0 8.6.1 1.5.1 2.2-.3 2.8-1.8 11.5-30.6 23-61.2 34.6-91.7 8.2-21.6 16.3-43.2 24.4-64.8 1.2-3.2 1.1-3.2-2.3-3.2H993c-2.7 0-3.5-.4-2.9-3.3 1.1-5.2.9-10.4.4-15.7-.2-2.3.5-2.6 2.5-2.6 20.1-.1 40.1-.1 60.1-.1z"/>
    <path id="path16" d="M770.3 352c2.7 6.8 5.2 13.1 7.6 19.5.7 1.8 1.6 2.3 3.5 2.3 35.2-.1 70.4 0 105.6-.1 2.7 0 3.2.7 3.1 3.2-.1 5.6-.5 11.3 1 16.8.3 1.3-.2 1.6-1.3 1.5-1.3-.1-2.6 0-3.9 0h-96.2c-3.7 0-3.7 0-2.2 3.5 7.7 18.6 15.3 37.3 23 55.8 8.7 21.1 17.6 42.1 26.4 63.1.7 1.6 1.5 2.3 3.2 2.2 2.2-.2 4.4.1 6.5-.1 2.1-.1 2.1.6 1.3 2.2-3.3 6.9-8.1 12.6-14 17.4-13.4 10.8-29.1 16-46 18.2-21.9 2.8-43.2 1-63.6-8.1-12.8-5.7-23.5-13.7-30-26.5-.4-.9-.8-1.8-1.5-3.2 3.3 0 6.2-.1 9 0 1.6.1 2.4-.3 3.1-1.9 16.1-39.5 32.2-79 48.3-118.4.3-.6.4-1.3.7-1.9 1.1-2 .1-2.3-1.7-2.2-4 .1-7.9-.1-11.9 0-1.6 0-2-.5-2-2 .1-5.8.1-11.7 0-17.5 0-1.9.8-2 2.3-2 6.1.1 12.3-.1 18.4.1 2.3.1 3.1-.8 3.8-2.7 2.5-6.4 4.9-12.5 7.5-19.2z"/>
    <path id="path18" d="M1004.6 359.3h-15.1c-1 0-1.9 0-2.7-.7-12-10.5-26.6-14.6-42.1-15.3-15.2-.7-29.7 2-43.1 9.6-1.5.9-3.2 1.7-4.4 3-2.9 3.1-6.4 3.6-10.4 3.5-8.6-.2-17.2-.2-25.8 0-2.7.1-2.6-.9-2.2-2.9 2.6-10.8 9.8-17.8 19-23.1 9.6-5.5 20.1-8.7 30.9-10.8 2.4-.5 3.4-1.3 3.3-3.9-.2-5.3-.1-10.7-.1-16 0-5.2 3.3-7.2 7.9-4.9 1.9 1 3.8 2.1 5.7 3.2 10 5.9 20 6 30.1.3 2-1.1 3.9-2.4 5.9-3.4 4.6-2.3 7.6-.5 7.7 4.6.1 5.3.2 10.7 0 16-.1 2.7.7 3.7 3.4 4.2 9.2 1.7 18 4.4 26.5 8.4 11 5.3 19.4 13.1 23 25.3.7 2.3.5 3.1-2.2 3-5.2-.3-10.2-.1-15.3-.1z"/>
    <path id="path20" d="M1019.1 522.9v57c0 6.1-3.9 11.2-9.9 13.5-5.3 2-11.4.6-15.4-3.8-2.5-2.8-3.3-6.2-3.3-9.8 0-34.5-.1-69 0-103.6 0-2.8-.6-3.7-3.5-3.6-2.9.2-5.9.5-8.7-.3.7-2.8 1.3-5.5 2-8.3 2.4-9.6 4.8-19.1 7.2-28.7.3-1.2.5-2.2 2.3-1.7 15.1 4 25.3 13 28.8 28.6.5 2.4.6 4.9.6 7.4.1 17.8 0 35.6 0 53.4l-.1-.1z"/>
    <path id="path22" d="M862 522.5c0-17.4.4-34.8-.1-52.2-.5-18.2 11.4-32.4 28.8-36.7 1.7-.4 2.4-.1 2.9 1.6 3.1 11.8 6.2 23.5 9.4 35.2.5 1.9-.1 2.2-1.8 2.2-2.5-.1-5 .2-7.4 0-2.5-.2-3.3.4-3.3 3.2.1 21.3.1 42.5.1 63.8v40.1c0 7.7-5 13.6-12.1 14.5-7.9 1-16-5.4-16.1-13.4-.3-16.9-.2-33.8-.3-50.8-.2-2.5-.2-5-.1-7.5-.1 0 0 0 0 0z"/>
    <path id="path24" d="M978.5 379.3c1 16.5-12.8 30.1-24.5 35.2-16.1 7-34.7-.7-44.4-13.2-6.2-8-8.1-17-7-26.8.5-5 3.4-8.8 7.4-11.6 6.6-4.7 14.2-6.8 22.2-7.5 11.3-1 22.5-.5 33.1 4.4.5.2 1.1.5 1.6.8 7.5 4.2 12.5 10 11.6 18.7z"/>
    <path id="path26" d="M940.6 431.1c10.2 0 20.4.1 30.5 0 2.3 0 3.2.4 2.5 2.9-3.3 12.2-6.6 24.4-9.7 36.6-.4 1.7-1.2 2-2.7 2-13.8 0-27.7 0-41.5.1-1.6 0-2-.6-2.4-1.9-3.3-12.4-6.6-24.8-10-37.2-.5-1.9-.2-2.5 1.8-2.4 10.5 0 21-.1 31.5-.1z"/>
    <path id="path28" fill="#fefefe" d="M1139.4 407.1c10.7 26.5 20.4 52.5 30.2 78.4 8.6 22.7 17.3 45.3 26 68 1.3 3.3 1.3 3.3-2.4 3.3-17.2 0-34.4-.1-51.6 0-2.1 0-2.7-.6-2.7-2.7-.1-48.4-.1-96.7.2-145.1.1-.3.1-.7.3-1.9z" class="st0"/>
    <path id="path30" fill="#fefefe" d="M1121.5 407.1v146.8c0 2.6-.7 3-3.1 3-18.1-.1-36.1-.1-54.6-.1 19.3-50.1 37.5-100.3 57.7-149.7z" class="st0"/>
    <path id="path32" fill="#fefefe" d="M824.4 519.8h-10.8c-11.3 0-22.6-.1-33.8.1-2.4 0-2.9-.7-2.9-3 .1-34.3-.2-68.6.3-103 0-.6-.3-1.4 1-2.4 16.1 35.8 30.6 72.1 46.2 108.3z" class="st0"/>
    <path id="path34" fill="#fefefe" d="M763.6 411c.9 1.9.7 3.1.7 4.2 0 33.9 0 67.8.1 101.7 0 2.5-.7 2.9-3 2.9-13.4-.1-26.9-.1-40.3 0-3 0-3-.9-2-3.1 7.7-18.4 15.3-36.8 22.9-55.3 6.4-15.5 12.8-31 19.7-46.3.5-1.2 1.1-2.4 1.9-4.1z" class="st0"/>
  </g>
</svg>
