<svg xmlns="http://www.w3.org/2000/svg" xml:space="preserve" viewBox="0 0 512 512">
  <path d="M232.96347 249.61076c4.98643-6.94539 11.13043-11.30852 17.36348-15.67165 11.13043-7.83582 23.06225-14.06886 36.0626-18.25391 3.82887-1.24661 7.65774-1.51374 11.39757.44522 6.05495 3.20556 6.32208 9.88382.44521 13.44556-1.51374.97948-3.2946 1.60279-4.98643 2.31513-9.08243 3.73983-17.09635 9.26053-26.00069 15.13739 4.27408.26713 7.65773.53427 11.13043.71235 2.58226.17809 5.16452.26713 7.56869 1.4247 5.78783 2.93843 6.23305 9.43861.8014 12.9113-2.40418 1.51374-4.98644 2.84939-8.10296 4.54122 2.6713.26713 4.80835.44522 6.85635.80139 3.38365.53426 6.23304 2.048 7.47965 5.43165 1.24661 3.38365.26713 6.32209-2.048 8.99339-1.51374 1.78087-3.4727 2.93844-5.43165 4.096-9.43861 5.5207-18.87722 11.04139-28.31583 16.56209-1.42469.80139-2.84939 1.69182-4.36313 2.13704-7.30156 2.40418-11.66469 7.65774-14.87026 14.42504-16.91826 35.4393-33.83652 70.87861-50.84382 106.22886-9.08244 18.87722-17.98678 37.84348-27.33635 56.7207-6.144 12.37704-15.76069 21.1033-29.2953 24.84313-18.69913 5.25356-38.02156-3.82887-46.30261-21.37044-3.20556-6.85635-4.27408-13.97982-4.80834-21.37043-3.02748-40.15861-5.69879-80.40626-9.34957-120.47582-3.38365-37.22017 20.65809-63.30991 48.43965-74.26225 3.20557-1.24661 6.50017-2.31513 9.70574-3.56174 1.24661-.44522 1.86991-.62331 2.22609.97948 5.60974 22.34991 11.30852 44.69982 17.09634 67.04973.62331 2.22609 0 3.82887-1.33565 5.5207-10.95235 14.15791-21.81565 28.31582-32.58991 42.56277-6.32209 8.37009-12.55513 16.82922-18.78817 25.28835-.62331.80139-1.4247 1.60278-1.4247 2.84939 0 8.72626 0 17.45252.80139 26.44591 1.95896-2.58226 4.00696-5.25356 5.96592-7.83582 25.64452-34.10365 51.19999-68.2073 76.75547-102.31095 7.39061-9.88383 14.69217-19.8567 21.90469-29.82956 3.91792-5.5207 6.94539-11.48661 8.72626-17.98679 1.95896-7.12347 4.80835-13.97982 5.69879-21.28139 1.24661-10.24-.17809-20.03478-5.96592-28.93912-.6233-.97948-1.15756-2.048-1.78087-3.11653-.89043-1.60278-1.33565-3.2946-.089-4.89739 1.15757-1.60278 2.93844-1.69182 4.71931-1.33565 9.26052 1.86991 15.13739 8.01391 19.23339 16.02783 2.13704 4.096 3.02747 8.8153 3.65078 14.60312zM397.24865 442.30084c-7.7468-12.02087-18.521-19.41148-31.6995-23.32939-4.6302-1.4247-9.3495-2.76035-14.3359-2.84939-2.4933 0-2.6714-.89044-2.2261-3.11653 5.1645-24.75408 10.329-49.59721 15.2264-74.44033 4.7193-23.86366 10.6852-47.46018 15.4045-71.41287.2671-1.33565.6233-2.22609 2.3151-1.69183 25.9117 8.10296 46.3917 22.61705 56.6317 48.79583 4.185 10.68521 4.185 21.63756 3.2056 32.94608-2.7604 31.61043-5.1646 63.22086-7.7468 94.8313-.8905 10.8633-1.4247 21.90469-3.1165 32.67895-3.7399 23.32939-27.8706 40.51478-51.111 36.77496-24.8431-4.096-49.6863-8.45913-74.52938-12.91131-38.912-6.85634-77.824-13.89078-116.64695-20.74713-4.98644-.89043-4.98644-.80139-2.76035-5.60974 7.92487-17.0073 15.84974-33.92556 23.68556-50.93286 1.06853-2.22609 2.13705-2.84939 4.63026-2.49322 40.60383 5.43165 81.11861 10.77426 121.72246 16.02783 19.6786 2.58226 39.2681 4.98643 58.9468 7.47965h2.4041z"/>
  <path d="M179.80451 128.95685c-.17808-8.90434 1.06853-17.54156 3.11653-26.08973.44521-1.86992 1.33565-2.58226 3.02747-3.205566 25.91165-9.34956 52.80278-12.37704 80.22817-11.21948 19.14435.80139 37.84348 3.82887 56.09737 9.88383 4.1851 1.42469 6.5892 3.205556 7.6578 8.013906 3.8288 17.00731 2.6713 33.74748-1.2466 50.5767-3.1166 13.35652-7.6578 26.17878-15.31553 37.66539-.089.089-.089.17809-.17808.26713-1.78087 2.31513-3.11652 5.25356-5.34261 6.85635-2.67131 1.95895-5.16452-1.24661-7.83583-1.86992-9.08243-2.22608-17.54156-.6233-26.00069 2.84939-11.39757 4.71931-22.43896 10.15096-32.67896 17.27444-.97947.71235-1.78087 1.42469-2.76034-.26713-7.21252-11.84278-18.52105-16.384-31.69948-17.27444-2.13704-.17808-3.4727-.80139-4.7193-2.49321-15.58261-21.19235-21.63757-45.23409-22.34992-70.96766z"/>
  <path d="M383.35785 91.825734c-22.617-7.83583-45.9464-12.02087-69.63195-14.87026-24.39791-2.93844-48.97391-4.45218-73.54991-3.29461-34.54887 1.60278-68.83061 4.80834-102.22191 14.78121-4.27409 1.24661-8.45913 2.76035-12.64417 4.096-1.4247 1.15757-3.38365 1.15757-4.80835 2.13705 1.86991-1.24661 4.00696-1.24661 6.144-1.51374 16.11687-3.29461 32.41182-5.43165 49.24104-7.03444-12.10991 9.97287-14.24695 23.507476-14.87026 37.665386-.35617 7.47965.17809 14.95931 1.86991 22.26087.17809.97948 1.06853 2.67131-1.33565 2.048-17.71965-4.18504-35.26121-9.08243-50.75478-19.0553-4.27408-2.76035-8.192-5.96592-11.57565-9.88383-5.87687-6.85635-5.96591-14.51408-.089-21.459476 6.23304-7.3906 14.60313-11.84278 23.32939-15.31547 20.74713-8.192 42.2066-13.17844 64.28939-16.56209 31.87756-4.89739 63.84417-6.32209 95.89982-4.36313 33.92556 2.048 67.49488 6.32209 99.55058 18.61009 9.5276 3.65078 18.8772 7.56869 26.8021 14.336 3.3836 2.93843 6.4111 6.233036 7.5687 10.685206 1.5137 5.69879-.7124 10.41809-4.2741 14.69218-5.6988 6.58921-12.9113 11.13043-20.6581 14.87026-13.7127 6.58921-28.1378 10.77426-43.2751 13.97982 2.6713-12.288 3.3836-24.30887 1.4247-36.41878-.8905-5.60974-2.3152-11.04139-5.0755-16.027816-2.048-3.73983-4.6303-6.9454-8.2811-9.43861 15.1374.97948 30.1858 3.11652 45.056 5.78782 2.2261.17809 4.5412.53426 6.6783 1.24661-1.6918-.6233-3.5617-.53426-4.8084-1.95895zM317.37668 231.00068c2.84937 4.89739 5.52067 9.34956 8.01387 13.89078 1.0686 1.95896 2.4042 3.11652 4.5413 3.65078 5.5207 1.51374 10.9523 3.4727 16.473 4.80835 2.5823.62331 2.9384 1.60278 2.4042 4.00696-4.007 17.18539-7.9249 34.37078-11.9318 51.55617-2.7604 11.93182-5.6098 23.77461-8.2811 35.70643-.5343 2.49322-1.3356 3.4727-4.185 3.4727-25.55551-.17809-51.11099-.17809-76.66647-.089-2.58226 0-3.47269-.17809-2.13704-3.02748 3.29461-6.85635 6.23304-13.80174 9.26052-20.74713.53426-1.15757 1.15757-1.86991 2.31513-2.49322 13.53461-6.94539 26.71304-14.69217 39.62435-22.79513 11.66469-7.30156 15.67165-20.39095 10.50713-33.12417-.35618-.89043-.80139-1.69182-.44522-2.76035 1.69183-5.3426.44522-10.32904-2.49322-14.78121-1.42469-2.13705-.97947-2.84939 1.24661-3.82887 5.78783-2.67131 9.26052-7.39061 11.75374-13.44557zM179.09217 39.735294c4.096-8.28104 8.10295-16.29495 11.93182-24.39791.97948-1.95895 2.31513-3.20556 4.36313-4.096 15.7607-7.3906099 32.67896-9.8838199 49.7753-10.86329987 22.61705-1.33565 44.78887.71234997 66.1593 8.63721997 5.43166 1.9589499 9.17153 4.9864299 11.48663 10.4180799 2.8494 6.76731 6.4111 13.17844 9.9729 20.30191-25.02126-9.08243-50.66578-12.10991-76.84457-12.02087-26.00069.17809-51.73425 3.02748-76.84451 12.02087z"/>
  <path fill="#010101" d="M341.77455 60.927644c-57.433-16.47304-114.95508-15.84974-172.12099-.089 1.69182-6.85635 7.47965-9.08244 13.71269-11.04139 20.39096-6.41113 41.40522-8.81531 62.68661-9.6167 25.02121-.89043 49.7753.80139 74.08419 7.21252 2.3151.62331 4.5412 1.33565 6.8563 2.048 6.4112 2.048 13.0004 3.73983 14.7812 11.48661z"/>
  <path d="M172.77008 302.23546c-2.49322-9.97287-4.89739-19.32244-7.30157-28.58296-1.42469-5.60974-2.84939-11.30852-4.54121-16.91826-.53426-1.95895-.0891-2.58226 1.78087-3.11652 5.87687-1.60278 11.57565-3.38365 17.45252-4.98643 2.048-.53426 3.38365-1.51374 4.45217-3.38366 1.60278-2.93843 3.38365-5.78782 5.07548-8.63721.71235-1.24661 1.33565-1.4247 2.13704 0 3.82887 6.41113 5.34261 13.17843 4.00696 20.74713-2.58226 15.04834-9.34957 27.95965-19.14435 39.44626-1.15756 1.60278-2.22608 3.2946-3.91791 5.43165z"/>
  <path fill="#aaa" d="M383.35785 91.825734c2.048.26713 3.8289 1.15756 5.5207 2.22608-2.5822-.35617-5.1645-.44521-7.5687-1.60278.7124-.35617 1.6028.35617 2.048-.6233z"/>
  <path fill="#979797" d="M126.64556 93.161384c-2.13704 1.15756-4.45217 1.24661-7.39061 1.86991 2.31513-1.42469 4.096-2.31513 6.144-2.58226.35618.26713.80139.53426 1.24661.71235z"/>
</svg>
