<svg xmlns="http://www.w3.org/2000/svg" xml:space="preserve" id="Layer_1" x="0" y="0" version="1.1" viewBox="0 0 512 512">
  <style id="style2" type="text/css">
    .st2{fill:#030303}.st5{fill:#161616}.st7{fill:#fefefe}.st11{fill:#30302d}
  </style>
  <path id="path4" stroke-width=".86171383" d="M477.82188 411.14867c-2.9298.43086-5.0841 2.15429-7.0661 4.13623-1.2064 1.2064-2.3266 2.58514-3.6192 3.70537-7.066 6.54902-15.2523 6.29051-21.112-1.37874-6.9798-9.22034-25.3343-11.80548-34.8994-1.03406-3.9639 4.48091-8.5309 7.92777-15.1661 6.54903-3.4469-.77555-6.3767-2.32663-8.3587-5.17029-8.1001-11.37462-26.7993-11.11611-35.3302-.6032-6.8937 8.53097-15.94173 8.53097-22.74927-.0862-6.46286-8.18628-20.07794-9.56502-28.0057-5.77348-2.92983 1.37874-5.17029 3.53303-7.32457 5.85965-7.8416 8.35863-15.59702 8.27246-23.00776-.25851-8.87565-10.08205-24.73119-10.42674-34.0377-.68937-1.8096 1.8096-3.44685 3.79154-5.68731 5.08411-6.29051 3.87771-12.92571 2.67131-18.3545-3.53303-3.79154-4.2224-8.10011-7.23839-13.78742-8.10011-7.92777-1.2064-14.99383.25852-20.68114 6.37669-.94788 1.03405-1.89577 2.06811-2.92982 3.01599-6.37669 5.94583-14.30445 5.68731-20.33645-.77554-8.78948-9.39268-19.81942-11.71931-30.15998-6.29051-2.92983 1.55108-5.08412 4.05006-7.41074 6.29051-6.89371 6.89371-14.4768 6.89371-21.284337-.0862-2.58514-2.67131-4.99794-5.51497-8.53096-6.97988-10.08205-4.30857-19.90559-2.06812-27.66102 6.46285-6.11817 6.72137-13.95976 7.41074-20.33644 1.8096-.86172-.77554-1.72343-1.63726-2.32663-2.49897-6.89371-9.56502-24.73119-10.59908-33.8653504-1.12023-.94789.94789-1.8096 2.15429-3.79155003 2.92983v-18.69919c0-7.15223.0862-14.30445 0-21.3705 0-4.05006.77555-5.25646 4.99794003-5.51497 6.3766904-.34469 12.7533704-.25852 19.2162204-.34469 6.032-.0862 12.15017-.25851 18.18217 0 2.15428.0862 2.67131-.6032 2.92982-2.24045 3.27451-22.83542 6.54903-45.75701 9.90971-68.59242 2.67131-18.35451 5.25646-36.62284 8.01394-54.89118.17234-1.37874-.25851-3.70537 2.75748-3.44685 22.05988 1.8096 32.91747-22.05988 22.92159-40.24204-3.44685-6.29051-6.97988-12.58102-10.59908-18.78536-1.12023-1.8096-1.03405-3.016.77554-4.30857 2.75749-1.89577 5.34263-4.05006 8.61714-6.54903-1.12022 4.2224 1.63726 4.2224 3.79154 4.8256 3.10217.86172 6.37669 1.55109 9.306507 2.84366 3.18834 1.37874 3.79154.17234 4.39474-2.67132 2.75749-12.75336 5.60114-25.42055 8.53097-38.08775.86172-3.87771 1.98194-7.66925 3.016-11.46079.34469-1.37874.68937-1.98194 2.32663-.94789 1.89577 1.29257 3.70537 2.67132 5.25645 4.30857.34469.43086 1.37874.25852 1.29257.86172-.0862 1.55108-1.8096.86171-2.75748 1.72342.68937 1.2064.68937 3.27452 3.10217 2.24046.17234-.0862.34468.17234.6032.34469 1.55108 1.12022-1.98194 3.18834.51703 3.96388 2.32662.68937 1.63725 2.15428 1.12022 3.44685-.6032 1.55109.34469 3.18835-.43085 4.65326-.6032 3.44685-1.12023 6.97988-1.8096 10.34057-.34469 1.63725.0862 2.24045 1.63725 2.67131 3.36069.77554 7.15223 3.53303 9.90971 2.24045 2.84366-1.29257 2.15429-6.11816 3.016-9.39268 1.29257-5.25645 2.4128-10.59908 3.6192-15.9417.51703-2.15429 1.37874-3.70537 4.05005-3.79154 4.48092-.17235 8.53097-2.15429 13.09806-3.18834-2.32663 9.99588-4.65326 19.5609-6.80754 29.21209-4.2224 18.87154-8.35863 37.74307-12.6672 56.61461-.43085 1.80959.34469 2.41279 1.8096 3.10217 12.064 5.60114 24.21416 11.28845 36.19198 16.97576 9.30651 4.39474 18.61302 8.87565 27.91953 13.35656 4.30857 2.06812 5.25646 5.51497 3.016 9.82354-2.24046 4.30857-5.34263 5.25645-9.73737 3.18834-20.1641-9.65119-40.41438-19.21622-60.57848-29.03975-2.84366-1.37875-3.36068-.51703-3.96388 2.06811-1.72343 7.15222.86171 13.78742 2.4128 20.50879 8.18628 36.10581 16.5449 72.21162 24.81735 108.31743 1.29257 5.68731 1.29257 5.77348 6.97989 5.77348h77.46807c.77554 0 1.89577.6032 1.89577-1.03406 0-4.13622.34469-8.27245-2.67131-11.89165-2.4128-2.92982-4.99794-4.39474-8.96183-4.05005-11.28845.94788-18.3545-3.79154-21.9737-14.47679-1.37874-4.13623-2.58514-8.4448-3.87771-12.6672-.51703-1.55108-.68937-2.49897 1.72343-2.4128 4.39474.17235 8.78948-.25851 13.18422-.34468 9.90971-.0862 19.90559 7.32457 20.59496 17.40662.0862.86171 0 2.15428 1.63726 2.58514.68937-1.63726.17234-3.36069.34468-4.99794.34469-5.08411 3.10217-7.92777 7.58308-7.66925 4.56709.17234 6.97988 3.01599 6.97988 8.18628v8.01394c1.8096-.25852 2.67132-1.03406 3.10217-2.84366 2.49897-9.99588 9.90971-15.68319 20.16411-15.76936 4.56708 0 9.04799.17234 13.61508.17234 1.46491 0 1.98194.43086 1.55108 1.8096-1.72343 5.85965-2.24045 12.15016-5.25645 17.57896-4.05006 7.32457-10.59908 10.51291-18.78536 10.2544-4.13623-.0862-8.18629-.6032-11.28846 2.92982-1.03405 1.12023-2.06811 2.24046-2.58514 3.70537-1.55108 4.13623-.6032 5.60114 3.70537 5.60114 14.21828 0 28.43656-.0862 42.74101.0862 2.49897 0 2.67131-.86171 2.58514-2.67131-.0862-19.38856-.0862-38.8633-.0862-58.25186 0-12.58102 8.78948-25.24821 24.12798-25.07587 17.579.17234 35.0718.0862 52.6508.0862 14.9076 0 27.9195-9.90971 30.5908-23.09393.9479-4.8256.6032-9.73737.6032-14.56296.086-16.8896.086-33.69301 0-50.58261 0-8.10011-7.4969-15.25233-15.8555-15.42467-8.3587-.17235-15.3385 6.20434-15.8556 14.39062-.1723 2.15428 0 4.30857 0 6.72137 2.0681-1.12023 3.6192-2.75749 5.7735-3.27452 6.2905-1.46491 12.7534 3.70537 12.6672 10.51291-.086 16.37256-.1723 32.74513-.4309 49.11769-.086 6.20434-7.9277 12.92571-14.9938 13.01188-14.4768.0862-28.9536 0-43.4304 0-3.9638 0-7.8416 0-11.8054-.17234-4.998-.17235-7.92783-2.4128-9.30657-6.80754-1.37875-4.48091-.0862-9.22034 3.36068-11.97783 2.24046-1.72342 4.73943-2.84365 7.66929-2.84365 11.6331-.0862 23.2663-.43086 34.8994-.34469 2.8437 0 3.7054-.43085 3.6192-3.44685-.1723-17.66514-.1723-35.33027-.1723-52.9954 0-14.90765 6.6352-24.64502 19.13-28.35039 13.5289-3.96388 27.3163 1.2064 34.7271 13.18422 5.0841 8.18628 7.8416 17.32045 11.0299 26.28228 5.7735 15.9417 11.8055 31.79724 18.0098 47.5666.2585.77554.6032 1.46491 1.3788 3.10217 1.8096-7.32457 3.4468-13.70125 4.9979-20.1641 3.7916-15.6832 7.5831-31.28022 11.2885-46.96341.6032-2.4128 1.6372-3.36068 4.2224-3.18834 4.6532.25851 9.3926.0862 14.1321.17234 1.5511 0 2.4989.25852 2.0681 2.67132-3.533 19.81941-9.2204 39.03563-13.8736 58.59654-6.032 25.42055-12.064 50.84111-18.096 76.26167-.2585 1.2064-.2585 2.49897-.2585 3.79154-.086 13.8736-.086 27.66102-.1724 41.53461 0 2.67131.5171 3.36068 3.4469 3.36068 12.4948-.25851 25.0759 0 37.5707.0862 2.7575 0 4.1362 1.63726 4.1362 4.39474 0 14.04594-.086 28.09188-.1723 42.13781 0 .86172.8617 2.32663-.7755 2.67132-1.8096.34468-3.3607-.51703-4.9118-1.2064-.8617-.43086-1.6373-1.29257-2.2405-2.15429-2.4128-3.6192-5.8596-6.03199-9.7373-7.84159-5.515-1.03406-10.8576-.51703-16.2864-.17235z"/>
  <path id="path6" stroke-width=".86171383" d="M502.20838 435.10432c1.4649 2.32663 3.6192 3.6192 6.2043 4.05005 2.3266.43086 3.4469 1.37875 3.3607 3.96389-.1723 5.17028-.1723 10.34056-.1723 15.51085 0 3.36068-1.2064 4.56708-4.3086 4.56708-52.1337-.34469-104.3536-.0862-156.4872 0-41.44848.0862-82.81074-.25851-124.25918-.25851-37.65689 0-75.31379.17234-112.97068.17234H7.0675926c-1.03406 0-2.06812.0862-3.10217 0-2.49897-.25852-3.96389003-1.55109-3.96389003-4.30857.0862-5.77348 0-11.54697 0-17.32045 0-1.03406-.0862-2.24046 1.03406003-2.75748 2.75749-1.29257 4.39474-3.79154 6.37668-5.85966 7.0660604-7.58308 18.5268504-7.58308 25.5929004 0 7.2384 7.8416 16.54491 9.90971 25.16205 5.68731 2.24045-1.12022 4.13622-2.67131 5.60114-4.65325 6.20434-8.27245 21.11199-9.22034 28.86741-.17234 6.11817 7.15222 13.873587 8.10011 22.404557 5.51496 2.92983-.86171 5.17029-2.75748 6.89371-5.08411 6.80754-8.78948 22.23222-9.30651 29.47062.17235 6.89371 8.87565 21.11199 8.27245 29.2121-.43086 2.24045-2.4128 4.48091-4.65326 7.84159-5.60114 7.66925-2.06811 14.39062-1.12023 19.90559 5.25645 8.70331 10.16823 25.33439 8.61714 31.53873-.17234 5.08411-7.15222 18.9577-9.99588 28.17804.34469 5.34263 6.03199 11.97782 7.41074 19.5609 6.11816 3.96389-.68937 7.2384-2.67131 9.56503-5.77348 6.72137-8.96182 21.62902-9.39268 28.6089-.43086 7.32457 9.39269 23.69714 8.61714 30.50464-.34468 6.4629-8.4448 19.3886-8.35863 26.7132-.25852 6.3766 7.06606 13.7012 8.78949 22.5769 6.37669 3.1883-.86172 5.4288-2.92983 7.6692-5.25646 8.7033-9.22034 20.2503-9.30651 28.9536-.25851 9.9097 10.16822 22.8354 8.87565 32.3143-3.18834 7.066-6.54903 20.6811-4.73943 25.8514 1.2064.6032 1.03405 1.5511 1.89577 1.8096 3.18834z"/>
  <path id="path8" stroke-width=".86171383" d="M189.06155 143.84504c1.03406.17234 2.49897.25851 3.79154.77554 6.11817 2.32663 11.97782 5.17029 17.23428 8.87565 6.46285 4.48092 9.22034 14.30445 6.032 21.45668-5.4288 12.32251-10.94377 24.55885-16.63108 36.79518-1.2064 2.58514-.77554 3.18834 1.8096 3.96389 11.11611 3.27451 22.23221 6.72136 33.26215 10.25439 1.37874.43086 2.06811.25851 3.18834-.68937 4.13623-3.36068 9.30651-5.08411 13.8736-7.8416.6032-.34468 1.29257-.17234 1.46491.43086.77554 2.58514 2.58514 4.8256.94788 8.10011-3.87771 7.41074-6.97988 15.16616-10.59908 22.66307-.86171 1.8096-1.37874 4.73943-3.96388 4.65326-2.4128-.0862-2.67131-2.92983-3.44685-4.73943-1.46492-3.36068-3.53303-6.54902-3.87772-10.42673-.0862-1.29258-1.03405-1.37875-1.89577-1.63726-11.54696-3.44686-23.09393-6.97988-34.64089-10.51291-2.24046-.68937-3.27452-.0862-3.70537 1.98194-.51703 2.24046-1.63726 2.24046-3.53303 1.37874-10.51291-4.73942-20.85348-9.65119-31.0217-14.90765-1.37874-.68937-2.32663-1.20639-1.72343-3.36068 4.30857-16.37256 8.53097-32.8313 12.58103-49.20386 2.15428-8.70331 6.72136-15.25234 15.9417-17.49279 1.55109-.17234 3.016-.25852 4.91177-.51703z"/>
  <path id="path10" stroke-width=".86171383" d="M86.689953 125.31819c9.39268 0 15.769357 6.72137 15.338497 15.94171-.17234 4.39474-2.671307 7.23839-5.859647 9.73736-10.94377 8.61714-21.88753 17.23428-32.8313 25.85142-1.72343 1.37874-1.89577 2.4128-.94788 4.30857 5.17028 10.08205 9.99588 20.42262 15.51085 30.33233 3.44685 6.29051 1.12022 14.39062-5.4288 17.83747-6.46286 3.44686-14.90765 1.72343-18.61302-4.73942-4.39474-7.58308-8.18628-15.59702-12.15017-23.43862-3.18834-6.29051-6.37668-12.58102-9.22033-19.13005-3.44686-7.84159-1.72343-14.99382 4.73942-20.7673 12.75337-11.37462 26.1961-21.80136 39.55267-32.48661 2.75748-2.24046 6.11817-3.53303 9.90971-3.44686z"/>
  <path id="path12" stroke-width=".86171383" d="M135.46295 71.978111c-2.32663 5.25645-5.94583 9.22033-11.20228 11.46079-1.55108.68937-1.29257 2.32663-1.37874 3.70537-1.2064 15.769359 12.06399 26.282269 27.31633 21.887529 7.75542-2.24046 12.15016-7.66925 14.64913-14.993819.6032-1.72343 1.37874-2.32663 3.10217-2.15428 3.016.25851 6.032.34468 9.048.43085 2.15428 0 2.67131.77554 2.24045 2.92983-3.016 14.218279-16.02787 26.626959-30.33232 28.695069-26.36845 3.79154-47.30809-20.33645-40.6729-46.791059 4.48091-17.92365 18.26834-28.69507 36.36433-28.35039 18.18216.34469 32.14192 12.15017 35.93346 30.07382.68937 3.44685.0862 5.08411-3.53302 5.68731-4.2224.77554-8.27246 2.15428-12.58102 2.75748-11.89166 1.55109-20.76731-2.92983-27.14399-12.92571-.34469-.6032-.77554-1.2064-1.12023-1.72342 0-.25852-.0862-.25852-.68937-.68937z"/>
  <path id="path14" fill="#010101" stroke-width=".86171383" d="M326.59108 111.4446c-1.46491 2.84366-2.67131 5.17028-3.96388 7.49691-.86172 1.63726-.86172 2.32663 1.37874 2.4128 12.32251.77554 24.64504 1.03406 36.96754 1.03406 16.9757 0 33.8653-.17235 51.0996-.94789-1.3787-3.36068-2.7575-6.54903-4.3086-10.34057 8.8757 1.29257 17.2343 2.67132 24.5589 7.32457 4.9979 3.18834 4.8256 6.29051-.1724 9.47885-6.2043 3.87772-13.3565 4.48092-20.3364 5.60114-2.8437.43086-6.1182 0-8.531 1.29257-2.8436 1.46492-1.3787 5.17029-2.1543 7.8416-4.2224 14.47679-18.6991 25.5929-33.8653 25.5929-14.9077 0-28.9536-10.68525-33.17599-25.24821-.34469-1.2064-.77554-2.49897-.68937-3.70537.25851-3.6192-1.12023-4.73943-4.8256-5.08412-8.61714-.68937-17.32045-1.63725-25.42056-5.25645-.94788-.43086-1.89577-.77554-2.75748-1.37874-3.87771-2.58514-4.05006-5.77348-.17234-8.61714 4.39474-3.27451 9.56502-4.56708 14.82147-5.77348 3.53303-.68937 7.15223-1.72343 11.54697-1.72343z"/>
  <path id="path16" stroke-width=".86171383" d="M330.12411 109.97969c.0862-3.10217 1.89577-5.60114 2.84365-8.4448 2.06812-5.514969 4.05002-11.116109 6.54902-16.458729 3.7915-7.92777 12.6672-9.6512 19.4747-4.05006 2.3267 1.89577 4.3948 4.05006 6.4629 6.29051 1.5511 1.72343 2.9298 1.55109 4.3947 0 1.8958-1.98194 3.7054-4.2224 5.7735-6.032 4.8256-4.22239 10.7714-4.48091 15.2524-.94788 1.2064 2.75748 2.3266 5.51497 1.7234 8.61714-.086.68937.8617.68937 1.2064 1.03405.8617 1.12023 1.8958 2.32663 1.6372 3.96389-.2585 1.37874-.3446 2.15428 1.6373 2.06811 1.2926-.0862 1.8958 1.55109 1.6372 2.92983-.3446 2.068109-.2585 4.136229-.1723 6.204339.1723 3.016-2.2405 3.70537-4.3086 4.73942h.086c-17.1481.43086-34.3824.0862-51.5305.17235-4.3947.25851-8.53095.68937-12.66717-.0862z"/>
  <path id="path18" fill="#f4f4f4" stroke-width=".86171383" d="M502.20838 435.10432c-4.5671-5.25646-10.0821-8.01394-17.2343-7.49691-3.7915.34468-7.2384 1.63725-10.6852 3.18834.2585-2.15429-.7756-4.30857.3446-6.6352.6032-1.37874-1.034-2.84365-1.551-4.30857-.6032-1.46491-3.8778-3.96388 1.2064-4.48091 1.4649-.17234 3.8777-1.46491 3.4468-4.2224 5.4288-1.98194 10.8576-2.4128 16.2864.0862-.6894.43086-1.1202 1.29258-.6032 1.72343 1.5511 1.12023 1.8958 2.32663 2.4128 4.13623.6032 2.15428 2.7575 4.65325 5.3426 5.77348.6894.34469 1.5511.25852 2.499.43086.4309 1.2064-2.0681 1.89577-.517 3.53303.8617.86171-.086 1.63725-1.2926 1.46491-.7755-.0862-1.0341.43086-.8617 1.03406.086.43085.6894 1.12022.6894 1.12022 3.1883-1.8096 2.6713 1.89577 4.1362 2.67132 1.034-.43086-.1724-1.12023.3447-1.89577 1.2925.6032 1.9819 1.72342 2.0681 3.01599.086.68938-.1724 2.58515-1.8096 1.12023-1.2926-1.2064-2.6713-1.03405-4.2224-.25851z"/>
  <path id="path20" fill="#030303" stroke-width=".86171383" d="M286.60756 308.6909c-.0862 4.2224-3.27451 7.75542-6.72137 7.8416-3.70537.17234-6.72137-2.67132-6.80754-6.80754-.0862-4.99794 2.32663-9.39269 4.65326-13.61508.86171-1.55109 2.67131-1.55109 3.70536.0862 2.58515 3.96388 4.30857 8.35862 5.17029 12.49485z" class="st2"/>
  <path id="path22" fill="#020202" stroke-width=".86171383" d="M229.13124 308.77707c.43086-4.2224 1.98195-8.27245 4.30857-12.06399 1.03406-1.72343 2.67132-2.75749 3.96389-.43086 2.32662 3.96388 4.48091 8.18628 4.73942 12.92571.25852 4.2224-2.84365 7.41074-6.54902 7.32457-4.05006-.17235-6.6352-3.27452-6.46286-7.75543z"/>
  <path id="path24" fill="#030303" stroke-width=".86171383" d="M250.9326 317.99741c.34469-4.48091 2.06812-8.53097 4.30857-12.32251 1.29257-2.15428 3.27452-1.72343 4.39474.25851 1.89577 3.53303 3.70537 7.2384 4.39475 11.20228.77554 4.2224-2.32663 8.01394-6.37669 8.27246-4.05005.25851-6.80754-2.84366-6.72137-7.41074z" class="st2"/>
  <path id="path26" fill="#030303" stroke-width=".86171383" d="M251.01878 288.5268c.34468-3.87772 2.15428-8.01394 4.22239-12.064 1.12023-2.15428 3.016-1.98194 4.05006 0 2.15428 3.87771 4.2224 7.75543 4.73943 12.23634.43085 3.96388-2.58515 7.49691-6.37669 7.66925-3.96388.17234-6.72137-2.75748-6.63519-7.84159z" class="st2"/>
  <path id="path28" fill="#030303" stroke-width=".86171383" d="M251.01878 257.93595c.25851-3.44685 2.24045-7.66925 4.39474-11.7193.94788-1.8096 2.58514-2.06812 3.53302.25851 1.55109 3.6192 3.27452 7.2384 4.48092 10.94377 1.46491 4.56708-.94789 8.27245-5.4288 9.04799-4.30857.77554-7.15223-2.15428-6.97988-8.53097z" class="st2"/>
  <path id="path30" fill="#030303" stroke-width=".86171383" d="M242.48781 279.99583c.0862 4.05005-3.10217 7.15222-6.97988 7.06605-3.53303-.0862-6.20434-3.18834-5.94583-7.15222.34469-4.91177 3.016-8.96183 5.25646-13.01188.94788-1.72343 2.75748-1.46492 3.44685.25851 1.8096 4.13623 3.87771 8.18628 4.2224 12.83954z" class="st2"/>
  <path id="path32" fill="#040404" stroke-width=".86171383" d="M272.47545 279.99583c.25851-4.65326 1.8096-8.61714 3.6192-12.49485.94788-1.89577 2.4128-2.24046 3.6192-.17235 1.98194 3.36069 3.96388 6.72137 5.25645 10.51291.94789 2.75749.6032 5.25646-1.63725 7.2384-2.15429 1.89577-4.65326 2.49897-7.41074 1.29257-2.75749-1.37874-3.27452-3.96388-3.44686-6.37668z"/>
  <path id="path34" fill="#161616" stroke-width=".86171383" d="M394.06328 110.15203c2.8436-.68937-.517-1.63726.086-2.32663.9479-1.2064 2.4989 1.03406 3.4468-.6032.3447-.51703 0-1.03406 0-1.55108.086-2.15429-.6894-4.30857.1724-6.376689.517-1.2064 0-2.24045-1.0341-2.49897-1.8958-.51702-.1723 1.03406-.6032 1.29257-.2585.17235-.6032.25852-.8617.17235-.7755-.25852-1.0341-.86172-1.0341-1.63726.086-1.72343 1.2926-3.53303-1.1202-4.91177-.7755-.43085-.517-1.03405-1.9819-.86171.086-2.92983 1.9819-6.032-1.0341-8.70331-.7755-.68937.6032-.94789.6894-1.63726 2.0681.6032 2.5851 2.67132 3.2745 4.2224 3.4468 7.58308 6.549 15.25234 9.9097 22.921589 1.1202 2.49897.2585 3.18834-2.0681 2.92983-2.5852-.25852-5.2565.43085-7.8416-.43086z" class="st5"/>
  <path id="path36" fill="#363636" stroke-width=".86171383" d="M127.62135 150.30789c-.25851-2.06811-1.29257-4.05005.0862-6.37668.43085-.68937-2.15429-.86171-3.18835-1.8096.6032-1.03405 1.2064-2.15428 1.8096-3.27451-4.05005.77554-4.13622-2.06811-4.99794-4.48091 3.18834.17234 3.18834.17234 2.84366-1.29257 2.84365-.86172 4.48091 1.63725 6.80754 2.32662.17234.0862.25851.68938.17234.94789-1.55108 4.56708-1.2064 9.56502-3.53303 13.95976z"/>
  <path id="path38" fill="#161616" stroke-width=".86171383" d="M330.12411 109.97969c19.56087 0 39.20797-.0862 58.76887 0 1.7234 0 3.533-1.12023 5.1703.17234-7.4969.94788-14.9938.34468-22.4907.43086-12.7534.17234-25.4206.0862-38.17396.0862-1.03406-.0862-2.4128.77554-3.27451-.68937z" class="st5"/>
  <path id="path40" fill="#fefefe" stroke-width=".86171383" d="M104.09657 373.40561H82.639893c-1.55108 0-2.15428-.25852-1.8096-2.15429 1.89577-12.49485 3.53303-24.9897 5.34263-37.48455 3.18834-21.80136 6.63519-43.68889 9.73736-65.49025.51703-3.53303 1.55109-4.99794 5.342627-4.65325 2.24046.17234 2.92983.94788 3.36068 2.84365 7.8416 34.72707 15.6832 69.45414 23.52479 104.1812.51703 2.06812.0862 2.49897-2.06811 2.49897-7.32457-.17234-14.73531-.0862-22.05988-.0862.0862.17235.0862.25852.0862.34469z" class="st7"/>
  <path id="path42" fill="#fefefe" stroke-width=".86171383" d="M349.59888 315.15375c8.1001 0 16.2864-.0862 24.3865-.17234 1.551 0 1.8957.34469 1.8957 1.98194 0 17.92365 0 35.76113.086 53.68477 0 1.98195-.6894 2.75749-2.499 2.75749-8.0139-.0862-16.0278-.25852-24.0418-.34469-1.3787-1.55108-1.1202-3.44685-1.034-5.25645.086-5.4288 0-10.8576-.086-16.28639.4308-8.01394.3447-15.94171.3447-23.95565 0-4.2224-.8617-8.44479.9479-12.40868z" class="st7"/>
  <path id="path44" fill="#fefefe" stroke-width=".86171383" d="M421.20728 359.61819c-7.4108 0-14.8215-.0862-22.3184.0862-2.1543 0-2.7575-.6032-2.7575-2.75749.086-7.75542.086-15.51085 0-23.35244-.086-2.24046.6894-2.67131 2.7575-2.67131 15.08.0862 30.16.0862 45.24 0 1.8957 0 2.5851.51702 2.5851 2.49897-.086 7.92776-.086 15.76936.086 23.69713.086 2.15428-.6894 2.49897-2.5852 2.49897-7.7554-.0862-15.3385 0-23.0077 0z" class="st7"/>
  <path id="path46" fill="#111110" stroke-width=".86171383" d="M342.53278 354.79259c-1.6373-1.46491-3.4468-.0862-5.4288-.34469 1.0341-1.80959 2.7575-2.24045 4.1362-3.44685-1.551.0862-3.1021.34468-4.73939.34468-1.63726 0-2.24046-.68937-.94789-2.06811.68938-.77554 1.46488-1.46491 2.15428-2.24045.9479-.94789.9479-2.4128-.4308-3.27452-.51708-.34468-1.46496.17235-1.46496-.94788 2.32666.0862-.51703-3.36069 2.06816-3.016.4308.0862.9478.25851 1.2925-.34469-1.4649-1.63725-2.9298-.6032-4.48089 0 .77554-1.46491.68937-3.61919 3.44689-3.10217.4308.0862 2.7574-1.46491 2.1543-3.70537-.4309-1.72342-.7756-3.79154 1.2063-5.17028.2586-.17234.6032-.94788.4309-1.2064-1.8096-2.58514.7755-4.39474 1.1202-6.6352.086-.60319.3447-1.12022-.3447-1.37874-.7755-.34468-.9478.34469-1.1202.94789-.2585.68937-.517 1.46491-1.3787.94788-.7756-.43085-.6032-1.29257 0-1.72342 1.3787-1.2064-.517-2.24046-.2585-3.27452 1.3787-.51703 1.7234.43086 2.1542 1.03406 1.2926 1.63726 1.8096 1.2064 2.6714-.51703.4308-.86171 1.8957-1.29257 3.016-1.8096.086 0 .6032.86172.8617 1.37874.1723 1.12023-1.6373 2.06812 0 3.36069.6032.51703-.4309 1.46491-.3447 2.24045.086 1.29258-.6032 1.89577-1.7234 2.24046.6032.6032 1.4649.68937 1.7234 1.72343.2585.77554-1.0341 1.2064 0 2.4128 1.1202 1.2064-1.2064 1.63725-2.0681 2.32662-1.3788 1.03406-3.016 1.72343-.7756 3.53303-.086 1.55109-.3447 3.016-.1723 4.56708-.2585.25852-.517.43086-.7756.51703-1.4649 2.84366-2.1542 6.032-2.4989 9.13417-.086.94788 1.3787 1.98194 1.8096 3.18834 1.034 2.06811.517 3.36068-1.2926 4.30857z"/>
  <path id="path48" fill="#383837" stroke-width=".86171383" d="M348.90948 351.43191c1.2064 5.25645.3447 10.5129.6032 15.76936.086 1.89577.7755 3.79154.086 5.77348-4.0501 1.03406-6.2906-.77554-6.2906-4.39474 0-2.06811.086-4.39474-2.3266-5.94582 3.3607.43085 4.8256-1.8096 3.7054-5.08412.6894-1.55108 0-3.36068.6894-4.91176.6032-1.37875 1.3787-2.67132 3.1021-2.92983.7756.51703.7756 1.03405.4309 1.72343z"/>
  <path id="path50" fill="#555453" stroke-width=".86171383" d="M348.90948 351.43191c-.2585-.51703-.517-.94789-.7756-1.46492-1.1202.34469-1.551-.77554-2.2404-1.2064-1.1202-.77554-2.6713-1.46491-2.0681-3.10217.517-1.63725 2.2404 0 3.1883-.6032.3447-1.29257-.3447-1.89577-1.034-2.49897-.6894-.68937-1.465-1.63725-.7756-2.32662 1.5511-1.37875-.8617-1.72343-.517-2.67132.1723-.0862.3447-.0862.517-.17234.4309-.6032.3447-1.46491.8617-1.89577 2.0681-1.55109-.6893-1.46491-.6893-2.24046-.3447-1.46491-2.499.43086-2.2405-1.03405.086-.86172.1723-2.24046 1.8958-2.84366.9479-.34468 2.2404-1.03406 3.1883-1.89577-.517-.94788-2.0681-.0862-2.3266-1.55108.3447-.77555 2.499.68937 2.0681-1.12023-.4309-2.15429-1.8958-.17234-2.7575-.17234-.4308-1.2064.3447-1.98195.9479-2.15429 2.1543-.51703.8617-2.92983 2.3266-3.79154 0 0-.1723-.68937-.4308-.86171-1.4649-1.29257-1.4649-1.29257.7755-2.75749.2585 0 .517.0862.7756.0862 0 11.02994-.086 22.14605-.086 33.17598.086 1.12023.2585 2.24046-.6032 3.10217z"/>
  <path id="path52" fill="#30302d" stroke-width=".86171383" d="M344.68708 337.47214c.6032.77554 3.7054.68937 1.034 2.75749-.517.43085-.086.94788.4309 1.37874 1.0341.94788 2.9298 1.63725 1.5511 3.70537-1.2064 1.98194-2.4128-.6032-3.7054.25851.4309 2.32663 3.4469 2.24046 4.0501 4.30857-.8617 1.89577-3.8777 3.18834-1.7235 6.11817.3447.43086-1.6372.43086-1.7234 1.55108-2.7575.6032-1.3787-1.89577-2.1543-2.84365 2.499-2.24046 1.0341-4.48091-.4308-6.20434-1.6373-1.98194-1.1203-3.53303.086-5.25646.6894-1.03405 1.2926-1.80959.3447-3.36068-.6893-1.2064-.4308-3.27451 2.2405-2.4128z" class="st11"/>
  <path id="path54" fill="#fdfdfd" stroke-width=".86171383" d="M205.95114 169.2656c0 3.18834-1.98194 5.85965-3.18834 8.87565-.51703 1.2064-1.2064.6032-1.89577.25851-7.2384-3.61919-14.64913-6.89371-21.62902-10.94376-.68937-.43086-1.46491-.68937-1.12022-1.72343 1.98194-7.32457 6.37668-12.58102 14.90764-8.53097 2.84366 1.29258 5.60114 2.75749 8.27246 4.30857 2.75748 1.63726 4.56708 4.13623 4.65325 7.75543z"/>
  <path id="path56" fill="#fefefe" stroke-width=".86171383" d="M350.46058 135.31407c12.4948.6032 23.5248.6032 34.4685-.0862 3.2745-.17234 3.2745.94789 2.5852 3.44686-2.5852 8.96182-9.2204 14.39062-18.6131 15.16616-9.2203.68937-16.9757-3.87771-20.6811-12.23634-.086-.0862-.086-.25851-.086-.34468-2.2404-5.34263-1.7234-6.11817 2.3267-5.94583z" class="st7"/>
  <path id="path58" fill="#30302d" stroke-width=".86171383" d="M345.37648 333.24974c.6893.34469 1.1202.51703 1.4649-.51702.2585-.94789.9479-.25852 1.2925 0 .4309.25851.5171.94788.1724 1.12022-1.6373.6032-1.2064 3.10217-3.1022 3.44686-1.4649-1.37874-1.1202-2.75749.1724-4.05006z" class="st11"/>
</svg>
