<?xml version="1.0" encoding="UTF-8" standalone="no"?>
<svg
   xmlns:dc="http://purl.org/dc/elements/1.1/"
   xmlns:cc="http://creativecommons.org/ns#"
   xmlns:rdf="http://www.w3.org/1999/02/22-rdf-syntax-ns#"
   xmlns:svg="http://www.w3.org/2000/svg"
   xmlns="http://www.w3.org/2000/svg"
   xmlns:sodipodi="http://sodipodi.sourceforge.net/DTD/sodipodi-0.dtd"
   xmlns:inkscape="http://www.inkscape.org/namespaces/inkscape"
   version="1.1"
   x="0px"
   y="0px"
   viewBox="0 0 90 90"
   id="svg10"
   sodipodi:docname="chart.svg"
   width="90"
   height="90"
   inkscape:version="0.92.4 (5da689c313, 2019-01-14)">
  <metadata
     id="metadata16">
    <rdf:RDF>
      <cc:Work
         rdf:about="">
        <dc:format>image/svg+xml</dc:format>
        <dc:type
           rdf:resource="http://purl.org/dc/dcmitype/StillImage" />
        <dc:title></dc:title>
      </cc:Work>
    </rdf:RDF>
  </metadata>
  <defs
     id="defs14" />
  <sodipodi:namedview
     pagecolor="#ffffff"
     bordercolor="#666666"
     borderopacity="1"
     objecttolerance="10"
     gridtolerance="10"
     guidetolerance="10"
     inkscape:pageopacity="0"
     inkscape:pageshadow="2"
     inkscape:window-width="1920"
     inkscape:window-height="1001"
     id="namedview12"
     showgrid="false"
     fit-margin-top="0"
     fit-margin-left="0"
     fit-margin-right="-1.8"
     fit-margin-bottom="0"
     inkscape:zoom="1.888"
     inkscape:cx="45"
     inkscape:cy="32.50002"
     inkscape:window-x="-9"
     inkscape:window-y="-9"
     inkscape:window-maximized="1"
     inkscape:current-layer="svg10" />
  <g
     transform="translate(-5,-957.3622)"
     id="g4">
    <path
       d="m 7.9999997,957.36219 c -1.6569,0 -2.9999997,1.3431 -2.9999997,3 v 84.00001 c 0,1.6568 1.3431997,3 2.9999997,3 H 92 c 1.6569,0 3,-1.3432 3,-3 0,-1.6569 -1.3431,-3 -3,-3 H 11 v -81 c 0,-1.6569 -1.3432003,-3 -3.0000003,-3 z M 81,974.36219 c -4.3827,0 -8,3.61726 -8,7.99997 0,1.5295 0.4588,2.9345 1.2188,4.1563 l -11.1563,15.90624 c -0.3491,-0.048 -0.7014,-0.062 -1.0625,-0.062 -1.9478,0 -3.7299,0.6964 -5.125,1.875 l -7.0625,-4.125 C 49.9422,999.54566 50,998.96616 50,998.36266 c 0,-4.3827 -3.6173,-8 -8,-8 -4.3827,0 -8,3.6173 -8,8 0,1.5295 0.4588,2.93454 1.2188,4.15634 l -11.1563,15.9062 c -0.3491,-0.048 -0.7014,-0.062 -1.0625,-0.062 -4.3827,0 -8,3.6172 -8,8 0,4.3827 3.6173,8 8,8 4.3827,0 8,-3.6173 8,-8 0,-1.832 -0.6317,-3.5501 -1.6875,-4.9063 l 10.75,-15.375 c 0.6234,0.1586 1.2682,0.2813 1.9375,0.2813 1.6028,0 3.1164,-0.4844 4.375,-1.3125 l 7.6562,4.4687 c -0.03,0.277 -0.031,0.5596 -0.031,0.8438 0,4.3827 3.6173,8 8,8 4.3827,0 8,-3.6173 8,-8 0,-1.832 -0.6317,-3.5501 -1.6875,-4.9063 l 10.75,-15.37494 c 0.6234,0.1585 1.2682,0.2812 1.9375,0.2812 4.3827,0 8,-3.6172 8,-8 -0.033,-5.50367 -4.5178,-7.99574 -8.0002,-7.99997 z m 0,6 c 1.1401,0 2,0.85987 2,1.99997 0,1.1401 -0.8599,2 -2,2 -1.1401,0 -2,-0.8599 -2,-2 0,-1.1401 0.8599,-1.99997 2,-1.99997 z m -39,15.99997 c 1.1401,0 2,0.8599 2,2 0,1.1401 -0.8599,2.00004 -2,2.00004 -1.1401,0 -2,-0.85994 -2,-2.00004 0,-1.1401 0.8599,-2 2,-2 z m 20,12.00004 c 1.1401,0 2,0.8599 2,2 0,1.1401 -0.8599,2 -2,2 -1.1401,0 -2,-0.8599 -2,-2 0,-1.1401 0.8599,-2 2,-2 z m -39,16 c 1.1401,0 2,0.8599 2,2 0,1.1401 -0.8599,2 -2,2 -1.1401,0 -2,-0.8599 -2,-2 0,-1.1401 0.8599,-2 2,-2 z"
       style="text-indent:0;text-transform:none;direction:ltr;baseline-shift:baseline;display:inline;overflow:visible;visibility:visible;fill-opacity:1;stroke:none;enable-background:accumulate"
       marker="none"
       visibility="visible"
       display="inline"
       overflow="visible"
       id="path2"
       inkscape:connector-curvature="0" />
  </g>
</svg>
