<svg height="512pt" viewBox="0 -19 512 511" width="512pt" xmlns="http://www.w3.org/2000/svg"><path d="m512 274.15625c0-40.890625-31.53125-79.601562-86.519531-106.214844-112.835938-60.46875-134.144531-159.367187-134.347657-160.351562l-1.4375-7.089844h-67.417968l-1.410156 7.097656c-.195313.988282-21.125 99.753906-134.179688 160.265625-55.09375 26.621094-86.6875 65.359375-86.6875 106.292969 0 70.449219 90.472656 126.59375 220.019531 136.515625 5.136719.398437 9.769531.699219 14.230469.953125l-41.5 6.914062c-4.800781.800782-8.058594 5.347657-7.253906 10.160157.722656 4.316406 4.457031 7.371093 8.695312 7.371093.476563 0 .96875-.035156 1.464844-.125l33.386719-5.558593-16.367188 16.363281c-3.453125 3.453125-3.453125 9.03125 0 12.484375 1.722657 1.722656 3.980469 2.585937 6.242188 2.585937 2.257812 0 4.519531-.867187 6.242187-2.585937l22.015625-22v28.125c0 4.871094 3.953125 8.828125 8.828125 8.828125 4.871094 0 8.828125-3.957031 8.828125-8.828125v-28.125l22.007813 22.007813c1.71875 1.722656 3.980468 2.585937 6.238281 2.585937 2.261719 0 4.519531-.863281 6.242187-2.585937 3.453126-3.453126 3.453126-9.03125 0-12.480469l-16.46875-16.464844 33.210938 6.640625c.582031.113281 1.164062.175781 1.738281.175781 4.125 0 7.8125-2.902343 8.644531-7.097656.953126-4.785156-2.148437-9.429687-6.921874-10.390625l-38.894532-7.777344c3.539063-.160156 7.203125-.34375 11.175782-.566406 129.652343-7.40625 220.195312-63.785156 220.195312-137.125zm-256.265625-200.792969c3.214844 16.488281 7.726563 36.757813 14.132813 60.894531 4.085937 15.375 8.636718 29.246094 13.515624 41.207032 2.984376 7.308594 4.160157 9.984375 6.214844 14.679687 1.765625 4.035157 4.183594 9.5625 9.03125 20.964844 7.457032 17.53125 11 40.96875 10.230469 67.761719-1.835937 64.027344-27.640625 108.773437-51.898437 115.84375-.828126 0-1.675782-.007813-2.503907-.015625-24.242187-7.125-50.011719-51.851563-51.847656-115.828125-.765625-26.789063 2.765625-50.21875 10.230469-67.757813 4.832031-11.351562 7.25-16.886719 9.015625-20.914062 2.0625-4.722657 3.238281-7.398438 6.230469-14.734375 4.890624-11.996094 9.4375-25.863282 13.515624-41.207032 6.410157-24.136718 10.921876-44.40625 14.132813-60.894531zm70.773437 206.015625c.84375-29.746094-3.066406-55.039062-11.628906-75.183594-4.890625-11.492187-7.335937-17.070312-9.109375-21.132812-1.996093-4.554688-3.132812-7.167969-6.039062-14.265625-4.597657-11.273437-8.898438-24.425781-12.800781-39.078125-6.097657-22.976562-10.371094-42.160156-13.507813-58.042969 11.539063 26.730469 31.375 63.199219 63.109375 94.933594 7.257812 7.257813 10.101562 9.90625 15.121094 14.582031 4.265625 3.972656 10.136718 9.4375 21.824218 20.640625 17.566407 16.84375 25.5625 38.25 23.78125 63.628907-3.742187 53.203124-49.558593 97.394531-100.742187 118.8125 17.351563-24.527344 28.773437-62.335938 29.992187-104.894532zm-101.960937-149.652344c-3.882813 14.625-8.191406 27.769532-12.800781 39.070313-2.910156 7.132813-4.042969 9.738281-6.054688 14.320313-1.773437 4.058593-4.21875 9.636718-9.089844 21.078124-8.574218 20.152344-12.492187 45.445313-11.628906 75.183594 1.210938 42.347656 12.535156 80.003906 29.742188 104.542969-50.875-21.539063-96.246094-65.535156-99.972656-118.464844-1.785157-25.378906 6.222656-46.785156 23.78125-63.628906 11.6875-11.199219 17.558593-16.664063 21.820312-20.636719 5.023438-4.679687 7.867188-7.328125 15.121094-14.585937 30.84375-30.84375 50.476562-66.1875 62.148437-92.6875-3.089843 15.433593-7.265625 33.933593-13.066406 55.808593zm192.761719 53.867188.316406.167969c48.761719 23.558593 76.71875 56.503906 76.71875 90.394531 0 56.558594-70.089844 103.070312-170.785156 116.40625 47.933594-26.296875 87.59375-71 91.3125-123.859375 2.144531-30.417969-7.945313-57.265625-29.175782-77.613281-11.777343-11.296875-17.699218-16.804688-22.007812-20.8125-4.871094-4.539063-7.628906-7.109375-14.671875-14.152344-38.53125-38.53125-58.535156-84.777344-67.035156-108.914062-4.175781-11.875-7.554688-20.691407-10.925781-27.058594h4.542968c7.027344 25.089844 37.683594 109.765625 141.710938 165.441406zm-399.652344 90.5625c0-33.890625 27.957031-66.84375 77.027344-90.5625 104.035156-55.675781 134.691406-140.351562 141.726562-165.4375h4.546875c-3.378906 6.363281-6.75 15.183594-10.9375 27.046875-8.492187 24.136719-28.503906 70.375-67.035156 108.914063-7.042969 7.042968-9.796875 9.605468-14.671875 14.152343-4.296875 4.007813-10.222656 9.523438-22.007812 20.8125-21.230469 20.347657-31.320313 47.195313-29.183594 77.613281 3.636718 51.710938 41.65625 95.671876 88.1875 122.175782-99.011719-15.484375-167.652344-61.140625-167.652344-114.714844zm0 0"/></svg>