<?xml version="1.0" encoding="iso-8859-1"?>
<svg fill="#000000" height="800px" width="800px" version="1.1" id="Layer_1" xmlns="http://www.w3.org/2000/svg"
  xmlns:xlink="http://www.w3.org/1999/xlink" viewBox="0 0 512 512" xml:space="preserve">
  <g>
    <g>
      <path
        d="M454.909,140.208c-16.712-24.232-40.449-38.829-70.553-43.384c-24.197-3.663-47.441,0.168-62.68,4.026
			c-4.28,1.083-8.417,2.295-12.329,3.597c-5.796-2.077-11.485-3.648-16.876-4.831c-0.789-9.833-1.546-21.901-1.546-31.982
			c0-8.728,14.353-13.729,15.245-14.028l32.259-8.819L273.329,0l-6.463,1.264c-37.483,7.331-47.388,43.674-47.388,61.867v36.485
			c-5.369,1.183-11.04,2.754-16.822,4.826c-9.137-3.035-27.566-8.202-49.088-8.996c-41.852-1.541-75.217,13.935-96.478,44.763
			c-27.941,40.515-18.138,116.966-4.993,173.968c14.284,61.942,39.606,128.651,60.211,158.621
			c13.294,19.337,29.91,30.715,49.387,33.818c3.573,0.569,7.08,0.823,10.502,0.823c15.948,0,29.929-5.513,39.027-10.268
			c12.946,9.391,27.666,14.302,44.294,14.814l0.483,0.016l0.483-0.016c16.443-0.507,31.273-5.498,44.247-14.838
			c9.097,4.76,23.097,10.291,39.073,10.291c3.419,0,6.93-0.254,10.502-0.823c19.477-3.103,36.093-14.48,49.388-33.818
			c20.604-29.971,45.927-96.68,60.211-158.621C473.047,257.176,482.851,180.725,454.909,140.208z M250.817,63.131h0.001
			c0-0.069,0.138-7.228,3.205-14.842c3.427-8.506,8.428-12.504,13.084-14.528l5.695,3.918c-7.492,7.215-13.219,17.1-13.219,29.955
			c0,9.014,0.539,19.312,1.193,28.487c-2.12,0-3.748,0.052-4.762,0.1c-1.087-0.053-2.858-0.115-5.196-0.109V63.131z
			 M166.627,475.665c-10.817-1.723-20.136-8.469-28.492-20.623c-15.602-22.695-40.355-82.245-55.498-147.909
			c-16.338-70.851-16.246-125.207,0.254-149.131c14.341-20.794,36.199-31.32,65.015-31.32c1.192,0,2.401,0.019,3.617,0.054
			c4.256,0.126,8.386,0.471,12.307,0.956c-0.23,0.215-0.447,0.442-0.675,0.659c-0.525,0.501-1.047,1.012-1.566,1.529
			c-0.533,0.531-1.058,1.068-1.578,1.611c-0.128,0.133-0.256,0.26-0.383,0.394c-0.162,0.17-0.315,0.348-0.476,0.519
			c-0.586,0.626-1.169,1.255-1.738,1.895c-0.329,0.37-0.647,0.749-0.971,1.123c-0.555,0.644-1.109,1.287-1.649,1.945
			c-0.733,0.893-1.451,1.8-2.153,2.718c-0.134,0.175-0.262,0.354-0.395,0.53c-0.741,0.982-1.464,1.978-2.169,2.987
			c-0.034,0.05-0.069,0.099-0.103,0.149c-15.154,21.76-22.087,49.862-20.698,83.9c0.006,0.147,0.011,0.295,0.018,0.442
			c0.174,4.074,0.467,8.233,0.88,12.476c0.051,0.524,0.103,1.051,0.158,1.579c0.2,1.925,0.416,3.862,0.664,5.821
			c0.014,0.111,0.023,0.218,0.038,0.329c5.678,44.398,11.097,82.199,17.743,115.085c0.085,0.419,0.169,0.832,0.254,1.248
			c0.186,0.913,0.373,1.824,0.561,2.73c4.339,20.975,9.14,39.563,14.75,56.11c0.051,0.151,0.102,0.302,0.154,0.452
			c0.562,1.649,1.131,3.28,1.709,4.889c0.051,0.143,0.102,0.289,0.154,0.431c0.07,0.194,0.138,0.394,0.209,0.587
			c0.356,0.98,0.723,1.932,1.085,2.894c0.239,0.636,0.476,1.285,0.718,1.913c0.171,0.443,0.347,0.872,0.519,1.312
			c5.757,14.724,12.13,27.051,19.276,37.247C181.948,475.395,174.38,476.901,166.627,475.665z M288.488,466.65
			c-9.29,8.919-19.921,13.498-32.484,13.991c-19.316-0.771-34.212-12.083-46.107-31.557
			c-21.716-36.153-33.577-100.134-43.36-171.328c-0.102-0.747-0.206-1.492-0.307-2.243c-0.077-0.566-0.154-1.133-0.231-1.701
			c-1.307-9.635-2.593-19.472-3.874-29.49c-0.024-0.185-0.043-0.366-0.066-0.549c-0.163-1.296-0.312-2.581-0.45-3.857
			c-0.06-0.553-0.114-1.1-0.169-1.65c-0.096-0.954-0.185-1.901-0.267-2.843c-0.049-0.561-0.099-1.123-0.143-1.68
			c-0.09-1.136-0.167-2.26-0.237-3.377c-0.038-0.609-0.071-1.214-0.102-1.819c-0.053-1.009-0.1-2.012-0.136-3.007
			c-0.022-0.612-0.038-1.219-0.053-1.826c-0.02-0.772-0.034-1.539-0.044-2.302c-0.007-0.617-0.017-1.235-0.018-1.846
			c-0.001-0.885,0.008-1.76,0.021-2.634c0.013-0.833,0.031-1.659,0.056-2.481c0.024-0.798,0.051-1.596,0.088-2.384
			c0.028-0.602,0.063-1.197,0.098-1.794c0.042-0.704,0.089-1.404,0.14-2.1c0.042-0.565,0.083-1.13,0.132-1.689
			c0.084-0.967,0.179-1.925,0.283-2.876c0.055-0.51,0.116-1.016,0.177-1.522c0.111-0.912,0.228-1.819,0.357-2.714
			c0.062-0.429,0.128-0.855,0.194-1.28c0.133-0.851,0.273-1.697,0.422-2.533c0.06-0.334,0.117-0.671,0.18-1.003
			c0.457-2.427,0.984-4.792,1.586-7.091c0.031-0.119,0.064-0.237,0.095-0.356c4.537-17.068,13.092-30.594,25.639-40.488
			c0.007-0.005,0.014-0.01,0.021-0.016c0.814-0.641,1.648-1.262,2.495-1.873c0.162-0.116,0.323-0.233,0.485-0.348
			c0.697-0.494,1.409-0.974,2.128-1.447c0.255-0.167,0.508-0.34,0.763-0.504c0.674-0.432,1.364-0.849,2.058-1.264
			c0.653-0.39,1.309-0.766,1.968-1.133c0.457-0.256,0.911-0.514,1.375-0.763c0.585-0.312,1.172-0.61,1.76-0.906
			c0.334-0.169,0.67-0.337,1.008-0.504c19.231-9.374,39.494-10.403,47.413-10.403c2.147,0,3.387,0.075,3.452,0.079l1.17,0.088
			l1.17-0.088c0.222-0.016,22.983-1.408,45.797,8.016l3.898,1.734l2.995,1.497h0.026c0.068,0.036,0.139,0.068,0.207,0.103
			c0.467,0.244,0.919,0.503,1.378,0.753c0.576,0.315,1.156,0.627,1.72,0.953c0.457,0.264,0.897,0.541,1.346,0.813
			c0.547,0.332,1.098,0.66,1.633,1.003c0.442,0.283,0.871,0.58,1.305,0.87c0.521,0.349,1.045,0.696,1.553,1.055
			c0.427,0.302,0.842,0.616,1.261,0.926c0.496,0.367,0.995,0.731,1.478,1.109c0.411,0.321,0.81,0.652,1.212,0.98
			c0.472,0.385,0.946,0.769,1.407,1.165c0.394,0.339,0.777,0.687,1.163,1.033c0.449,0.403,0.898,0.805,1.336,1.219
			c0.377,0.356,0.744,0.722,1.112,1.086c0.426,0.422,0.852,0.844,1.268,1.276c0.358,0.373,0.707,0.755,1.057,1.137
			c0.405,0.441,0.809,0.883,1.202,1.334c0.341,0.391,0.672,0.79,1.004,1.188c0.382,0.46,0.764,0.921,1.135,1.392
			c0.323,0.409,0.636,0.824,0.951,1.24c0.36,0.478,0.719,0.959,1.068,1.447c0.304,0.426,0.602,0.859,0.897,1.292
			c0.339,0.496,0.674,0.996,1.001,1.502c0.286,0.444,0.566,0.893,0.844,1.346c0.317,0.515,0.628,1.033,0.933,1.558
			c0.268,0.461,0.531,0.928,0.79,1.397c0.295,0.534,0.585,1.072,0.868,1.616c0.249,0.478,0.493,0.96,0.733,1.446
			c0.274,0.553,0.54,1.11,0.802,1.673c0.231,0.495,0.458,0.995,0.679,1.498c0.252,0.571,0.496,1.148,0.737,1.729
			c0.212,0.512,0.42,1.027,0.624,1.547c0.23,0.59,0.453,1.187,0.672,1.787c0.193,0.529,0.383,1.059,0.567,1.596
			c0.209,0.609,0.409,1.225,0.607,1.845c0.173,0.545,0.347,1.093,0.512,1.646c0.187,0.628,0.366,1.264,0.541,1.901
			c0.155,0.562,0.309,1.125,0.456,1.694c0.166,0.648,0.323,1.305,0.477,1.963c0.136,0.578,0.272,1.155,0.399,1.74
			c0.145,0.668,0.279,1.344,0.413,2.021c0.117,0.594,0.235,1.188,0.344,1.79c0.123,0.686,0.235,1.383,0.347,2.08
			c0.098,0.61,0.197,1.218,0.287,1.836c0.102,0.707,0.192,1.426,0.282,2.144c0.078,0.625,0.161,1.246,0.231,1.878
			c0.08,0.728,0.148,1.468,0.217,2.206c0.06,0.639,0.123,1.275,0.174,1.921c0.06,0.752,0.104,1.517,0.153,2.278
			c0.041,0.65,0.086,1.295,0.118,1.951c0.038,0.778,0.061,1.57,0.087,2.359c0.022,0.659,0.049,1.313,0.063,1.98
			c0.016,0.804,0.016,1.623,0.02,2.438c0.003,0.669,0.013,1.331,0.008,2.006c-0.006,0.836-0.029,1.687-0.049,2.533
			c-0.015,0.671-0.022,1.336-0.045,2.013c-0.03,0.883-0.077,1.781-0.121,2.675c-0.031,0.659-0.055,1.31-0.094,1.974
			c-0.055,0.949-0.131,1.914-0.202,2.875c-0.046,0.629-0.083,1.249-0.136,1.885c-0.089,1.068-0.197,2.153-0.304,3.236
			c-0.053,0.543-0.096,1.078-0.155,1.626c-0.173,1.638-0.366,3.293-0.58,4.965C337.326,342.484,323.185,433.355,288.488,466.65z
			 M429.364,307.134c-15.143,65.663-39.896,125.214-55.498,147.909c-8.308,12.084-17.566,18.82-28.304,20.592
			c-7.805,1.288-15.443-0.23-21.718-2.449c0.033-0.048,0.066-0.099,0.1-0.147c0.721-1.031,1.432-2.087,2.136-3.162
			c0.165-0.252,0.328-0.507,0.492-0.761c0.622-0.961,1.237-1.938,1.847-2.933c0.107-0.173,0.214-0.343,0.32-0.517
			c0.687-1.133,1.365-2.293,2.038-3.47c0.159-0.277,0.315-0.559,0.473-0.839c0.6-1.066,1.193-2.147,1.781-3.249
			c0.091-0.169,0.182-0.335,0.273-0.506c0.655-1.238,1.301-2.503,1.941-3.787c0.154-0.308,0.306-0.62,0.459-0.93
			c0.577-1.172,1.149-2.362,1.714-3.574c0.076-0.164,0.154-0.323,0.23-0.488c0.624-1.344,1.238-2.719,1.848-4.113
			c0.148-0.338,0.296-0.68,0.443-1.022c0.556-1.287,1.107-2.592,1.652-3.92c0.064-0.155,0.128-0.306,0.192-0.462
			c0.593-1.455,1.178-2.942,1.759-4.446c0.143-0.371,0.285-0.744,0.427-1.118c0.538-1.412,1.071-2.843,1.598-4.299
			c0.05-0.137,0.1-0.271,0.149-0.408c0.564-1.568,1.121-3.169,1.675-4.788c0.139-0.407,0.277-0.818,0.416-1.229
			c0.521-1.546,1.037-3.11,1.548-4.703c0.036-0.112,0.072-0.219,0.108-0.331c0.539-1.687,1.07-3.41,1.597-5.149
			c0.133-0.438,0.265-0.879,0.397-1.319c0.508-1.699,1.012-3.414,1.51-5.163c0.021-0.074,0.043-0.146,0.064-0.221
			c0.514-1.812,1.022-3.659,1.525-5.524c0.126-0.468,0.253-0.938,0.378-1.409c0.502-1.887,1.002-3.79,1.495-5.732
			c10.006-39.47,17.046-86.579,24.539-145.169c4.788-37.442,0.646-68.933-12.314-93.601c-0.669-1.273-1.361-2.527-2.075-3.763
			c-0.234-0.404-0.484-0.795-0.723-1.195c-0.49-0.822-0.976-1.646-1.486-2.451c-0.297-0.467-0.61-0.919-0.913-1.381
			c-0.472-0.72-0.939-1.445-1.428-2.151c-0.332-0.479-0.682-0.942-1.022-1.414c-0.481-0.669-0.955-1.344-1.451-1.998
			c-0.361-0.478-0.742-0.94-1.112-1.411c-0.495-0.631-0.984-1.267-1.494-1.886c-0.388-0.47-0.793-0.925-1.189-1.387
			c-0.513-0.599-1.02-1.203-1.545-1.79c-0.412-0.459-0.841-0.903-1.262-1.353c-0.532-0.571-1.059-1.147-1.605-1.706
			c-0.434-0.444-0.885-0.873-1.327-1.309c-0.553-0.545-1.101-1.096-1.667-1.629c-0.064-0.06-0.123-0.123-0.187-0.182
			c3.902-0.483,8.01-0.826,12.243-0.954c30.64-0.919,53.752,9.592,68.698,31.264C445.61,181.927,445.701,236.283,429.364,307.134z" />
    </g>
  </g>
</svg>