<svg xmlns="http://www.w3.org/2000/svg" width="64" height="64" data-name="Layer 1"><path fill="#18543e" d="M47.88 6.321a1.24 1.146 0 0 0-.148-.652.785.726 0 0 0-.455-.557.865.8 0 0 0-.125-.347.74.684 0 0 0-.342-.263 1.4 1.293 0 0 0-1.023-1.167 1.138 1.052 0 0 0-.5-.41 1.047.967 0 0 0-.843-.736 1.024.946 0 0 0-.284-.379 1.581 1.462 0 0 0-1.138-.326h-.159a1.206 1.115 0 0 0-.466-.252 1.456 1.346 0 0 0-1.24-.862 2.07 1.914 0 0 0-1.138.115 1.354 1.251 0 0 0-1.137-.483h-.091A1.775 1.64 0 0 0 37.403.6a1.285 1.188 0 0 0-.341 0 1.775 1.64 0 0 0-2.173.4 2.73 2.524 0 0 0-2.798 1.051 1.9 1.756 0 0 0-.956.967 1.615 1.493 0 0 0-1.137.295 1.251 1.157 0 0 0-.41.894 1.854 1.714 0 0 0-1.137 1.051.967.894 0 0 0-.387.116 2.093 1.935 0 0 0-.797 1.272 1.604 1.483 0 0 0-.716 1.052 1.49 1.378 0 0 0-.774.452 2.104 1.945 0 0 0-.386 1.44 2.275 2.103 0 0 0-.751 1.872A1.558 1.44 0 0 0 23.775 13a1.877 1.735 0 0 0-.75 1.724 1.536 1.42 0 0 0-.285 1.273 1.99 1.84 0 0 0-.318 2.197 1.138 1.052 0 0 0-.41.547 1.263 1.167 0 0 0 .114.83 2.741 2.534 0 0 0-.808 1.547 2.616 2.419 0 0 0 .444 1.535 1.809 1.672 0 0 0-.546 1.44 1.138 1.052 0 0 0 .41.82.819.757 0 0 0 .625.18 2.4 2.219 0 0 0 .341 1.051c-.33.663-.728 2.86-.443 6.436a.83.768 0 0 0-.728-.305h-.126c-.557 0-1.137.483-1.604.946a4.71 4.353 0 0 1-.682.547.569.526 0 0 1-.592.105 8.668 8.013 0 0 0-1.32-.137.99.915 0 0 0-.864.358c-.614.778.103 2.65.785 4.458l.103.263a36.89 34.102 0 0 1 1.65 5.258l.465 2.492v.242c.41 2.187.785 4.206 1.138 5.384l.25.957a36.754 33.976 0 0 0 2.036 5.973 7.45 6.888 0 0 1 .285 4.585.273.252 0 0 0 .102.284.228.21 0 0 0 .148 0 .262.242 0 0 0 .16 0c2.127-1.483 2.73-6.657 2.343-8.97a62.565 57.835 0 0 0-1.74-8.055c-.376-1.23-.717-2.419-1.036-3.533a76.374 70.601 0 0 0-.853-2.85 12.092 11.178 0 0 1-.398-2.103 19.486 18.013 0 0 1 .933 1.588c.352.736.682.978.91 1.051l.09.295v.052c.285 1.052.877 3.155 1.718 6.31a15.163 14.017 0 0 0 .24 1.977 1.138 1.052 0 0 0 .886.84c1.388 3.155 4.175 9.254 6.894 12.82a1.206 1.115 0 0 0 .978.556h.091a.865.8 0 0 0 .694-.473.83.768 0 0 0-.09-.778 84.348 77.973 0 0 1-7.145-12.913.785.726 0 0 0 .114-.61c-.512-2.513.341-5.436 1.138-8.265l.307-1.052c.546-1.903 1.297-2.387 1.581-2.513a7.257 6.709 0 0 0 .99 1.63 8.65 8.65 0 0 0 1.137 1.052 10.238 9.464 0 0 1 2.582 3.302l.399.946a6.7 6.194 0 0 0 2.513 3.375 7.485 6.92 0 0 0 4.061 1.746h.228a.296.273 0 0 0 .284-.147c.091-.19 0-.295-.41-.579a8.338 7.708 0 0 1-1.307-1.598c-.216-.315-.421-.62-.626-.862a30.896 28.56 0 0 1-2.082-5.889c-.512-1.893-2.411-5.31-3.412-5.857a2.525 2.334 0 0 0-2.15-.084l-.421.105a25.162 23.26 0 0 1-3.299-.116 1.41 1.304 0 0 0-.682 0c-1.218.368-2.56 4.207-3.14 8.35a26.82 26.82 0 0 0-.569-2.43c.08-.105.66-1.104-.978-3.796 0-.462-.728-7.865.068-10.031a1.502 1.388 0 0 0 .5.084 1.297 1.199 0 0 0 .376-.053 1.274 1.178 0 0 0 .762-.725 1.138 1.052 0 0 0 .808-.495 1.354 1.251 0 0 0 0-1.156.853.789 0 0 0 .25-.684 1.604 1.483 0 0 0 .387-1.935 1.138 1.052 0 0 0 .068-.42 1.422 1.314 0 0 0 .649-.431 2.275 2.103 0 0 0 .295-1.672 1.138 1.052 0 0 0 .33-.579 1.035.957 0 0 0-.08-.452 1.342 1.24 0 0 0 .785-.999 1.65 1.525 0 0 0-.34-1.199.967.894 0 0 0 .363-.662 1.41 1.304 0 0 0 .91-.883 2.025 1.872 0 0 0-.16-1.21 1.627 1.504 0 0 0 1.286-.862 1.73 1.598 0 0 0 0-1.167.83.768 0 0 0 .307-.232.762.705 0 0 0 .16-.4c.41 0 1.137-.178 1.262-.693a2.468 2.282 0 0 0 0-1.273 2.127 1.966 0 0 0 1.377-.536 1.138 1.052 0 0 0 .216-.999.728.673 0 0 0 .307-.22.478.442 0 0 0 .102-.148 1.285 1.188 0 0 0 .922-.095 1.138 1.052 0 0 0 .614-.925 1.138 1.052 0 0 0 .319-.284 2.013 1.861 0 0 0 1.683-.4 1.73 1.598 0 0 0 1.058.41 1.513 1.399 0 0 0 .978-.357 1.638 1.514 0 0 0 .967.515 1.058.978 0 0 0 .615-.084 1.274 1.178 0 0 0 .932.831 1.604 1.483 0 0 0 .615 0 1.138 1.052 0 0 0 .625.862 2.707 2.503 0 0 0 .558.263.99.915 0 0 0 .42.515 1.422 1.314 0 0 0 1.252 0 .921.852 0 0 0 .762 0 .819.757 0 0 0 .364-.567.74.684 0 0 0 .08-.842zM35.526 38.92a23.24 21.483 0 0 1 1.797 4.206 9.498 8.78 0 0 0 .717 1.756.273.252 0 0 0 .227.115.193.179 0 0 0 .137 0 .25.231 0 0 0 .125-.147.262.242 0 0 0 0-.189 9.635 8.907 0 0 1-.682-1.693 24.332 22.493 0 0 0-1.843-4.206 18.872 17.445 0 0 0-3.06-3.68l.261-.064a2.036 1.882 0 0 1 1.74 0c.831.452 2.685 3.67 3.197 5.552.228.842 1.4 5.1 2.173 6.057.193.242.41.547.603.842a11.17 10.326 0 0 0 1.137 1.45 7.792 7.203 0 0 1-3.219-1.556 6.211 5.741 0 0 1-2.332-3.154l-.41-.968a10.807 9.99 0 0 0-2.695-3.46 23.32 21.557 0 0 1-1.058-1.05 8.748 8.086 0 0 1-.99-1.83 9.191 8.497 0 0 0-1.137-1.925c.694 0 1.501.084 2.059.063a19.065 17.624 0 0 1 3.253 3.838zM45.661 7.373a.546.505 0 0 1-.227-.368.262.242 0 0 0-.114-.168.205.19 0 0 0-.17-.053 1.581 1.462 0 0 1-.603-.126c-.342-.137-.319-.652-.307-.705a.284.263 0 0 0-.114-.22.25.231 0 0 0-.25 0 1.33 1.23 0 0 1-.649.063.865.8 0 0 1-.603-.768.262.242 0 0 0-.148-.22.239.22 0 0 0-.284 0 .683.63 0 0 1-.569.188 1.388 1.283 0 0 1-.796-.525.239.22 0 0 0-.193-.106.262.242 0 0 0-.217.074 1.138 1.052 0 0 1-.841.39 1.308 1.21 0 0 1-.876-.41.284.263 0 0 0-.205-.085.296.273 0 0 0-.193.074 1.467 1.357 0 0 1-1.547.378.307.284 0 0 0-.228 0 .273.252 0 0 0-.125.168c0 .095-.182.21-.296.263a.262.242 0 0 0-.148.221.648.6 0 0 1-.341.642.933.862 0 0 1-.762 0 .262.242 0 0 0-.285 0 .262.242 0 0 0-.102.241.182.168 0 0 1 0 .148.49.452 0 0 1-.307.105.284.263 0 0 0-.228.157.262.242 0 0 0 0 .253.603.557 0 0 1 0 .704 2.173 2.008 0 0 1-1.376.368.284.263 0 0 0-.25.158.273.252 0 0 0 .08.274 1.604 1.483 0 0 1 0 1.146c-.114.315-.797.378-1.047.378a.262.242 0 0 0-.25.295.375.347 0 0 1 0 .284.42.39 0 0 1-.308.136.273.252 0 0 0-.227.158.273.252 0 0 0 0 .252 1.138 1.052 0 0 1 .148.957c-.239.568-1.08.6-1.263.6a.296.273 0 0 0-.261.147.284.263 0 0 0 .08.284 1.456 1.346 0 0 1 .295 1.104.956.883 0 0 1-.717.589.262.242 0 0 0-.216.273.478.442 0 0 1-.318.505.262.242 0 0 0-.182.179.262.242 0 0 0 .068.231 1.229 1.136 0 0 1 .42 1.052.774.715 0 0 1-.693.683.262.242 0 0 0-.194.41.546.505 0 0 1 .183.379.626.578 0 0 1-.24.347.262.242 0 0 0-.113.252 1.888 1.746 0 0 1-.17 1.41.853.789 0 0 1-.592.315.273.252 0 0 0-.228.137.319.294 0 0 0 0 .262c.068.074 0 .263 0 .337a.284.263 0 0 0 0 .263 1.138 1.052 0 0 1-.318 1.482.262.242 0 0 0-.091.295.364.336 0 0 1-.17.41.25.231 0 0 0-.092.316c.137.273.284.63.137.872a.785.726 0 0 1-.57.274.239.22 0 0 0-.227.168.853.789 0 0 1-.489.557 1.32 1.22 0 0 1-.978-.22.341.315 0 0 0-.17 0 .216.2 0 0 0-.183.084s-.114 0-.33-.053c-.216-.053-.33-.641-.34-1.052a.239.22 0 0 0-.092-.178.239.22 0 0 0-.205-.063h-.113c-.126 0-.296.052-.387 0a.774.715 0 0 1-.205-.484 1.297 1.199 0 0 1 .592-1.167.262.242 0 0 0-.08-.453 1.763 1.63 0 0 1-.41-1.261 2.343 2.166 0 0 1 .797-1.346.25.231 0 0 0 0-.316.819.757 0 0 1-.16-.61.75.694 0 0 1 .353-.389.273.252 0 0 0 .148-.158.216.2 0 0 0 0-.189 1.513 1.399 0 0 1 .205-1.872.284.263 0 0 0 .102-.241c-.193-.779.148-1.052.148-1.052a.25.231 0 0 0 .125-.263 1.297 1.199 0 0 1 .626-1.42.296.273 0 0 0 .136-.283 1.035.957 0 0 1 .694-1.21.262.242 0 0 0 .17-.294 1.797 1.661 0 0 1 .638-1.662.273.252 0 0 0 .102-.22 1.65 1.525 0 0 1 .25-1.189 1.012.936 0 0 1 .649-.336.239.22 0 0 0 .193-.084.273.252 0 0 0 0-.19 1.035.957 0 0 1 .558-.862.262.242 0 0 0 .125-.168c.148-.684.387-.946.557-1.052a.353.326 0 0 1 .273-.052.296.273 0 0 0 .239 0 .262.242 0 0 0 .114-.2c0-.557.944-.862.99-.873a.273.252 0 0 0 .181-.242.865.8 0 0 1 .228-.683 1.285 1.188 0 0 1 .933-.158.239.22 0 0 0 .216 0 .296.273 0 0 0 .102-.168c.057-.557.762-.852.774-.852a.228.21 0 0 0 .182-.368 2.275 2.103 0 0 1 2.434-.883.228.21 0 0 0 .273-.095 1.285 1.188 0 0 1 1.695-.326.25.231 0 0 0 .239 0 .967.894 0 0 1 .364 0 .273.252 0 0 0 .25-.126 1.24 1.146 0 0 1 1.058-.484h.068a.75.694 0 0 1 .797.463.262.242 0 0 0 .216.19.307.284 0 0 0 .273-.116c.057-.095.148-.232.967-.158a.91.841 0 0 1 .83.652.273.252 0 0 0 .125.168.284.263 0 0 0 .194 0 1.138 1.052 0 0 1 .318.2.239.22 0 0 0 .205.073 1.342 1.24 0 0 1 .955.18.42.39 0 0 1 .16.241.273.252 0 0 0 .227.231c.58.074.592.39.58.453a.262.242 0 0 0 .24.262c.215 0 .352.253.375.295a.25.231 0 0 0 .216.147c.637.053.705.81.705.894a.262.242 0 0 0 .216.231.296.273 0 0 1 .193.105.375.347 0 0 1 0 .21.273.252 0 0 0 0 .211.273.252 0 0 0 .194.095.273.252 0 0 1 .262.273.239.22 0 0 0 .09.179 1.422 1.314 0 0 1 0 .452.273.252 0 0 0 .08.19s-.068.178-.136.252a.228.21 0 0 0-.069.157c0 .137 0 .232-.113.263a.535.494 0 0 1-.399 0 .364.336 0 0 0-.193 0 1.012.936 0 0 1-.717.021zM24.594 39.698a.705.652 0 0 0-.705-.274.967.894 0 0 0-.603.863 2.719 2.513 0 0 1-.307-.505 24.594 22.735 0 0 0-1.513-2.471 76.17 76.17 0 0 1-.16-3.081c0-1.283.171-1.515.217-1.557.045-.042.193.084.41.379a.683.63 0 0 1 .136.431c0 .431 0 1.052 1.274 3.028a6.666 6.162 0 0 1 1.251 3.187zm2.207 10.431c0-.315 0-.62.057-.641.057-.021.353.136.42.263a82.346 76.122 0 0 0 7.258 13.196.296.273 0 0 1 0 .284.353.326 0 0 1-.273.19.75.694 0 0 1-.58-.358c-2.741-3.586-5.562-9.884-6.927-12.902zm.637-.967a.785.726 0 0 0-.74-.148c-.33.106-.488.432-.454.947a.694.641 0 0 1-.182-.337c-1.138-5.342 1.376-14.27 2.775-14.721a.933.862 0 0 1 .24 0c.716 0 1.228.978 1.717 1.998-.455.189-1.297.799-1.877 2.839l-.307 1.051c-.865 2.829-1.707 5.752-1.206 8.37zm-2.15-3.407-1.24-4.554-.125-.462v-.18c-.102-.367.068-.62.194-.651a.068.063 0 0 1 .068 0 .967.894 0 0 1 .318.536c.296 1.052.455 1.84.637 2.745l.273 1.314c-.125.42-.148.841-.159 1.252zM22.911 34.67c-.683-4.763-.205-7.56.113-8.318a.785.726 0 0 0 .524 0c-.671 1.883-.376 6.91-.194 9.149a9.225 8.528 0 0 1-.443-.83zm-6.348-.357a.49.452 0 0 1 .41-.148 6.939 6.414 0 0 1 1.24.127h.193a11.307 10.452 0 0 0 .774 5.194 30.43 28.129 0 0 1 1.058 4.396 39.518 36.53 0 0 0 .978 4.206 28.928 26.741 0 0 1 .807 3.586 33.819 31.263 0 0 0 .751 3.533.262.242 0 0 0 .25.179h.069a.239.22 0 0 0 .159-.105.262.242 0 0 0 0-.19 33.887 31.326 0 0 1-.74-3.48 28.256 26.12 0 0 0-.818-3.628 39.814 36.804 0 0 1-.956-4.206 30.486 28.182 0 0 0-1.08-4.448c-1.138-3.155-.82-4.774-.717-5.121l.216-.106a6.416 5.93 0 0 0 .785-.63 5.267 4.869 0 0 1 .83-.663 5.688 5.258 0 0 0-.102 1.42 32.989 30.495 0 0 0 .67 6.309c.24.673.524 1.693.865 2.86.273.957.649 2.261 1.047 3.544a66.193 61.19 0 0 1 1.718 8.002c.375 2.272-.194 6.1-1.49 7.855a7.883 7.287 0 0 0-.535-4.017 36.162 33.429 0 0 1-1.832-5.846l-.261-.957c-.307-1.125-.683-3.155-1.08-5.353l-.501-2.734a37.539 34.701 0 0 0-1.673-5.257l-.102-.274c-.614-1.493-1.365-3.47-.933-4.048zm3.413-.873Z" style="stroke-width:1.0937;fill:#000"/></svg>