<?xml version="1.0" encoding="utf-8"?>
<svg fill="#000000" width="800px" height="800px" viewBox="0 -2.22 104 104" xmlns="http://www.w3.org/2000/svg">
  <path id="_0505-potato" data-name="0505-potato"
    d="M1009.923,990.113c-.468-.477-1.552-.336-2.058-.772-.818-.041-1.133-.584-2.058-.515-.967-.832-2.6-1-3.344-2.057a20.14,20.14,0,0,1-5.146,2.057c-3.339.346-5.763,1.609-9.773,1.287a14.079,14.079,0,0,1-4.888-1.544,25.134,25.134,0,0,1-10.033-2.058,24.474,24.474,0,0,1-5.916-3.087c-.707-.51-1.31-1.175-2.058-1.8a18.78,18.78,0,0,1-2.056-1.8c-.4-.443-.631-1.066-1.031-1.543-.374-.45-.927-.827-1.286-1.286-.2-.257-.315-.507-.514-.772-.13-.175-.421-.369-.514-.514-.06-.094.082-.448,0-.515a11.316,11.316,0,0,1-1.8-3.087,32.067,32.067,0,0,1-1.029-28.039,41.333,41.333,0,0,1,6.687-11.832c.229-.113.46-.226.516-.515a17.222,17.222,0,0,1,3.086-2.315c.388-.47,1.109-.6,1.543-1.029a1.814,1.814,0,0,1,1.544-1.029c.848-4.64,2.856-8.12,4.63-11.832.6-.845.994-1.693,1.544-2.573a11.571,11.571,0,0,0,1.543-2.572c1.224-1.433,2.464-2.852,3.6-4.373a43.582,43.582,0,0,0,3.6-3.087,88.834,88.834,0,0,1,23.923-10.547c1.928-.3,4.071-.387,6.174-.514.415.073.442-.243.77-.256h5.659c.783.5,2.025.548,2.83,1.029.9.3,1.39,1.011,2.573,1.029a5.394,5.394,0,0,0,2.316,1.544,4.236,4.236,0,0,0,2.058,1.543c2.671,2.816,5.3,5.674,7.717,8.747,1.54,1.2,2.3,3.184,3.6,4.63.176,1.2,1,1.742,1.286,2.83.71.663.659,2.086,1.286,2.83a78.378,78.378,0,0,1,.516,8.231c-.073,2.414-.673,4.3-.516,6.945a3.758,3.758,0,0,0-.515,2.316,3.5,3.5,0,0,0-.514,2.058c-.455,1.345-.932,2.669-1.285,4.116a15.3,15.3,0,0,0,3.085,1.285,14.454,14.454,0,0,0,2.831,1.544c1.278,1.293,3.13,2.014,4.115,3.6,1.475,1.1,2.226,2.92,3.344,4.373a30.112,30.112,0,0,1,1.8,8.232c.1,4.469-.806,7.941-1.544,11.575-.737,1.407-1.153,3.135-1.8,4.63-.435.68-.595,1.634-1.03,2.316-.355.673-1.172.885-1.287,1.8-1.05.234-1.358,1.212-2.571,1.286a11.923,11.923,0,0,1-2.315,1.285c-1.948,1.653-4.152,3.052-6.173,4.63-4.9,1.962-9.321,4.4-15.435,5.145q-.326,0-.647,0C1019.607,991.146,1015.065,990.331,1009.923,990.113Zm7.717-5.4a3.221,3.221,0,0,0,1.945.259,8.79,8.79,0,0,1,1.142,0c.688-1.542.543-3.915,2.572-4.116,1.608.32,1.733,2.155,1.286,3.857,3.659-.112,5.751-1.794,8.746-2.57a19.929,19.929,0,0,1,3.6-2.058,19.707,19.707,0,0,1,3.6-2.059c1.711-2.062,3.857-3.688,5.4-5.916a38.922,38.922,0,0,0,2.057-3.6c.551-1.421,1.47-2.475,2.057-3.858a30.762,30.762,0,0,0,1.544-9.775,16.025,16.025,0,0,0-2.573-5.146,26.527,26.527,0,0,0-16.206-6.945,20.117,20.117,0,0,0-3.649.117,21.379,21.379,0,0,1-3.295.141c-6.569,1.49-12.253,3.868-16.721,7.459a43.1,43.1,0,0,0-6.172,5.917,19.155,19.155,0,0,0-2.316,3.6c-.6.429-.661,1.4-1.03,2.058-.167.534-.96,1.76-.257,2.315a12.322,12.322,0,0,1,3.344-3.858c1.207-1.28,2.454-2.519,4.888-2.571.079.606.894.478.771,1.286-.112,1.943-1.872,2.243-2.572,3.6-.884,1.174-1.782,2.333-2.573,3.6a20.175,20.175,0,0,0-2.314,3.859c-.023,1.823-2.129,2.779-1.287,4.63,1.714.256,1.461-1.454,2.316-2.057.321-1.138,1.192-1.725,1.544-2.831,1.46-1.455,2.053-3.777,5.145-3.6.4.37.894.648,1.028,1.286.078,2.821-1.843,3.644-2.572,5.659a23.657,23.657,0,0,0-2.829,5.4c.791.75,1.152,1.934,2.573,2.057a16.087,16.087,0,0,1,1.8-5.144c.863-1.149,1.89-3.37,3.6-2.83,1.713,1.3-.438,3.091-.513,4.887a5.682,5.682,0,0,0-.772,2.571,8.784,8.784,0,0,0-.772,2.831c1.343.371,2.347,1.083,4.117,1.029.148-1.4.921-2.166,1.029-3.6.814-.73.895-2.191,2.058-2.573C1019.822,979.168,1017.907,982.554,1017.64,984.71Zm-22.894-1.543c1.186-.614,3.19-.411,3.858-1.544a28.449,28.449,0,0,1-4.629-11.318v-5.659a28.788,28.788,0,0,1,9.774-16.721,35.439,35.439,0,0,1,17.749-8.746c5.4.174,9.793-.668,14.919-.771.618-.925.624-2.463.771-3.858.635-.824.65-2.267,1.031-3.344.4-1.144.724-2.361,1.028-3.6.2-2.91.589-6.5-.257-9-.774-.856-1.124-2.136-2.057-2.831a16.866,16.866,0,0,0-1.544-3.344c-.224-1.4-1.628-1.63-1.8-3.087-.728-.987-1.343-2.087-2.059-3.087a33.424,33.424,0,0,0-10.031-9.775,2.1,2.1,0,0,1-1.544-.514,30.359,30.359,0,0,0-4.5.11,34.581,34.581,0,0,1-3.734.147c-7.433,4.057-16.656,6.324-23.409,11.062-1.778,1.518-3.814,2.805-5.144,4.372-.508.6-.829,1.417-1.286,2.058-.219.306-.537.423-.771.772-.184.272-.331.733-.516,1.029-1.324,2.127-2.453,4.242-3.6,6.43a30.176,30.176,0,0,1-1.285,3.087c.033,1.156-1.054,2.538-.257,3.6.267-1.706,1.153-2.791,1.543-4.373.941-1.032.712-3.234,2.573-3.344,1.854.061,1.341,2.992.772,4.115-.319,1.741-.967,3.151-1.287,4.888-.361.668-.356,1.7-.772,2.315a10.729,10.729,0,0,1-.77,2.316c-.311,1.747-.574,3.542-2.574,3.6-1.325-.217-2.057-1.028-1.8-2.829-.992.344-1.185-.31-1.543-.516-.293-.168-.546-.059-.772-.257-.172-.151.032-.734-.513-.514-1.22,1.009-2.381,2.077-3.6,3.087-1.518,3.54-3.956,6.161-4.887,10.289.221.486.4.238.627-.008.172-.185.377-.368.658-.25.923-.15,1.246.3,1.8.516.755,2.092-.46,4.072-1.029,5.658-.481,2.008-1.356,3.618-1.8,5.659.3,1.076.139,2.606,1.03,3.087,1.313-2.117,1.455-5.4,4.63-5.659.942.088,1.178.881,1.544,1.544-.967,3.834-2.742,6.861-3.344,11.06a2.555,2.555,0,0,0,.771,1.543c.146.627.22,1.324,1.029,1.287.244-1.9,1.138-3.151,1.544-4.888,1.094-1.134,1.566-2.892,3.6-3.086.908.688.766,1.534.257,2.572-.8.569-.528,2.215-1.029,3.087a69.929,69.929,0,0,0-1.286,6.945c.9.819,1.6,1.83,3.086,2.057.921-2.939.594-7.123,3.86-7.717a2.316,2.316,0,0,1,1.543,1.543c-.667,2.764-1.719,5.142-1.8,8.49,1.8.257,2.959,1.156,4.886,1.287.691-1.883.329-4.818,2.831-4.889,2.415.473.349,4.115,1.03,5.66,2.02.527,4.83-.056,6.686-.516C993.8,982.4,993.823,983.232,994.746,983.167Zm44.244-12.089c-.6-.085-.249-1.123-.77-1.287a18.041,18.041,0,0,1,0-3.087,1.3,1.3,0,0,0,.77-.771h1.543c.008.25.316.2.516.257,1.613,1.438,1.852,5.676-1.029,5.917C1039.937,971.5,1038.8,971.954,1038.99,971.078Zm-11.318-3.6c-.9-.9-1.151-2.451-1.03-4.373a2.644,2.644,0,0,1,2.83-1.029c1.592,1.4,3.757,5.679,1.544,7.718q-.231.02-.442.019A2.783,2.783,0,0,1,1027.672,967.476Zm-44.244-2.058c-.42-.319-.756-.056-1.178.207a1.716,1.716,0,0,1-1.4.309c-.391-.724-1.218-1.011-1.029-2.315.4-2.246,3.48-3.114,5.658-2.059a8.414,8.414,0,0,1,2.573,6.174c-.588.612-.937,1.464-2.057,1.543C984.065,969.067,983.93,967.059,983.428,965.417ZM1037.7,959.5c-1.094-.706-.922-2.678-1.286-4.116-.206-.177-.3-.617-.515-.772-.5-.356-1.444-.041-2.057-.514-.239-.185-.14-.722-.514-.772-.183-1.811.995-2.262,2.315-2.571,1.08-.137,1.438.448,2.315.514,1.721,1.43,3.562,4.978,2.059,7.975a5.406,5.406,0,0,1-1.752.281C1038.089,959.526,1037.9,959.518,1037.7,959.5Zm-20.836,0c-1.327-1.047-2.888-5.073-.77-6.431,2.28.635,2.864,2.966,3.343,5.4a4.477,4.477,0,0,0-.772,1.029Zm-32.412-11.832c-1.529-.357-2.9-.877-2.829-2.831.031-1.426,1.235-1.68,2.315-2.058,2.871.3,4.713,1.633,5.145,4.373a3.021,3.021,0,0,1-1.286,2.058q-.177.014-.339.014C985.94,949.226,985.322,948.324,984.456,947.669Zm-7.2-4.889c-1.657-1.6-.049-4.469.257-6.43.566-2.179,1.418-4.07,2.057-6.174.9-.923,2.393-2.275,3.6-.772-.416,2.844-1.5,5.012-2.057,7.718-.966,2.016-.256,5.7-3.235,5.7A4.408,4.408,0,0,1,977.254,942.781Zm23.923-4.115v-2.058c.3-.041.216-.469.258-.771a23.376,23.376,0,0,0,1.8-2.058c.369-.151.668-.072,1.03-.256.13-.068.411-.479.513-.516a1.3,1.3,0,0,1,.463.018c.238.032.485.065.567-.018.014-.013-.012-.256,0-.256a3.007,3.007,0,0,1,2.831,1.542c-.391,2.1-3.355,1.621-3.86,3.6-.208,1.752,1.442,1.646,1.287,3.344a2.42,2.42,0,0,1-1.689.746C1002.808,941.984,1001.389,940.261,1001.177,938.666Zm24.694-7.974a1.937,1.937,0,0,1-1.543-1.544c-1.29-.34-2.338-.922-2.572-2.316a3.5,3.5,0,0,1,4.63-1.029c.551.32.743,1.046,1.028,1.544a3.947,3.947,0,0,1,.773,1.8c-.429.343-.4,1.144-.773,1.544a7.79,7.79,0,0,0-.981.133A1.74,1.74,0,0,1,1025.871,930.692Zm-16.721-12.605h-2.571c-.754-.035-1.012.3-1.8.516a2.763,2.763,0,0,1-2.571-.772,5.64,5.64,0,0,1,0-2.058c.891-1.253,2.914-1.373,4.373-2.057h4.115c1.211.675,2.508,1.264,2.574,3.087-.1,1.187-.986,1.586-1.8,2.057q-.093.008-.178.008C1010.316,918.867,1010.09,918.122,1009.15,918.086Zm-21.349-4.63c-.09-2.687,5.834-3.321,6.43-.772.222,1.844-1.693,2.854-3.491,2.854C989.284,915.539,987.906,914.876,987.8,913.457Zm29.066-9a6.3,6.3,0,0,1-1.287-1.287c-.161-3.534,2.662-4.5,6.432-4.373.357.757,1.256.974,1.286,2.058-.122,1.591-1.142,2.29-2.572,2.571-1.141.344-1.919,1.051-3.4,1.052C1017.178,904.475,1017.027,904.469,1016.868,904.454Z"
    transform="translate(-953.776 -891.592)" />
</svg>