<svg xmlns="http://www.w3.org/2000/svg" width="1024" height="1024" viewBox="0 0 270.933 270.933"><path d="M79.57 199.635v.386c-3.204 1.624-5.32 6.126-6.84 9.255-6.193 12.74-3.045 28.658 8.383 37.314 8.62 6.53 20.755 7.778 30.85 4.304 3.784-1.302 6.8-3.85 10.413-5.369.817 4.744 3.767 9.141 6.837 12.726 16.263 18.995 48.169 16.108 61.107-5.013 2.593-4.234 4.155-9.29 4.169-14.268 7.718 2.973 15.946 3.612 23.91 1.147 6.28-1.945 11.96-5.712 16.163-10.788 3.699-4.467 6.333-9.714 7.435-15.425.989-5.124.818-10.348-.422-15.426-7.477-30.624-49.615-32.878-64.38-7.327-2.443 4.227-3.902 8.983-3.916 13.883-10.515-2.87-19.998-4.068-30.465.08-3.198 1.266-5.887 3.274-8.87 4.934-1.24-7.207-7.09-10.845-11.183-16.197 11.006-1.955 22.546-11.933 30.851-18.865 26.251-21.911 43.667-49.719 45.855-84.098.726-11.397-2.89-22.756-5.97-33.55-1.36-4.768-2.803-11.72 1.12-15.754 2.256-2.322 6.829-.7 9.513.112 8.943 2.705 15.939 9.66 18.223 18.727 2.327 9.241-2 16.771-4.157 25.451-2.405 9.676-.979 21.18 5.727 28.916 3.186 3.676 6.92 1.21 10.286-.933 7-4.457 13.1-10.895 16.825-18.342 11.3-22.597 1.923-50.71-20.681-61.982-7.259-3.62-15.176-4.347-23.138-4.347 4.311-3.087 8.747-5.966 13.497-8.34 3.288-1.645 7.135-2.533 9.115-5.928 5.621-9.638-4.679-17.81-13.743-13.932-9.692 4.149-18.746 11.657-26.223 18.95-4 3.903-7.793 10.518-13.882 11.052-4.585.402-10.065-1.981-14.269-3.566-6.632-2.502-13.158-4.882-20.053-6.575-19.47-4.781-41.439-1.788-59.387 6.897-37.833 18.305-68.98 58.4-67.085 101.707.583 13.298 5.641 24.486 10.396 36.635 1.19 3.038 2.347 6.725 2.265 10.026-.138 5.593-2.897 10.812 1.995 15.354 5.931 5.506 12.47.974 19.265.974 10.17 0 20.522 5.267 30.465 7.196m-42.034-11.57c3.053-5.237 10.012-8.208 15.425-10.333 11.99-4.708 24.141-7.72 35.478-14.125 36.607-20.68 66.256-54.65 82.688-93.159 2.855-6.69 5.027-13.587 8.407-20.053 1.166-2.23 4.596-5.948 4.46-8.482-.095-1.787-1.818-2.766-3.389-2.083-3.238 1.408-6.162 4.027-9.255 5.774-13.426 7.585-28.837 11.062-42.42 18.407-29.484 15.946-54.262 38.64-70.624 68.138-9.409 16.964-13.857 36.114-25.012 52.06-.835-2.139.475-5.413.646-7.712.205-2.758-.532-5.827-1.216-8.484-1.724-6.696-5.303-12.74-7.5-19.282-3.083-9.183-4.293-18.874-3.87-28.537 1.93-44.069 43.367-85.946 85.596-93.858 14.349-2.688 28.55-1.096 42.42 3.127 8.483 2.584 17.084 7.936 26.222 7.592 7.339-.277 11.34-5.327 16.197-10.183 5.525-5.526 11.202-10.708 17.739-15.038 3.035-2.012 10.394-7.975 14.18-5.115 5.069 3.831-3.586 7.626-6.082 8.874-9.328 4.665-18.268 11.148-25.176 18.991-2.916 3.31-5.885 6.585-6.379 11.184-.963 8.962 3.066 17.312 5.08 25.837 2.513 10.639 2.798 22.049.788 32.779-4.351 23.221-17.686 41.83-34.086 58.23-10.892 10.892-23.934 21.008-38.563 26.34-5.697 2.077-10.396-.604-16.197-.052-3.714.354-7.302 1.093-10.797 2.413-2.011.759-4.024 2.268-6.17 2.494-10.122 1.062-20.76-4.935-30.465-6.899-6.574-1.33-11.727.633-18.125 1.156M228.81 61.579h.386c2.961 7.113 5.016 13.409 5.013 21.21 0 2.591-1.382 6.61 1.55 8.086 3.125 1.572 4.067-2.496 4.343-4.615.747-5.729-.017-11.386-1.356-16.968-3.49-14.543-17.031-29.629-31.917-33.165 6.16-3.274 17.708 1.086 23.138 4.32 17.562 10.458 24.935 33.037 15.715 51.597-2.78 5.599-6.571 10.364-11.473 14.267-1.318 1.05-3.883 3.56-5.748 3.153-1.652-.36-2.566-2.928-3.096-4.308-1.648-4.29-2.24-8.526-1.92-13.112.743-10.592 7.413-19.436 5.365-30.465m-57.459-9.255c-1.35 5.701-4.026 15.104-7.713 19.667l-6.555-8.031-4.628-3.923c6.621-.992 12.802-5.176 18.896-7.713M142.814 64.43c6.974-1.213 17.624 8.614 16.993 15.66-.289 3.23-3.094 6.928-4.731 9.64-4.05 6.71-8.442 13.385-13.419 19.445-2.71 3.3-4.448 5.928-8.87 6.668-16.828 2.817-33.652-12.799-25.485-29.969 1.689-3.55 5.714-5.494 8.904-7.49 7.699-4.821 17.475-12.365 26.608-13.954M99.238 91.273c0 5.971 1.077 10.523 2.7 16.196-5.995-2.024-10.729-2.196-16.968-1.928 3.614-5.135 9.14-10.656 14.268-14.268m-11.955 20.163c12.962-1.593 25.045 7.644 25.066 21.1.004 2.108.285 4.57-.583 6.555-1.44 3.294-5.889 5.77-8.672 7.857-6.908 5.18-14.253 9.96-21.98 13.834-2.8 1.403-6.457 3.832-9.642 4.03-6.676.414-15.104-10.482-13.94-16.851.687-3.757 3.242-7.455 4.971-10.798 5.446-10.524 11.8-24.132 24.78-25.727m28.923 8.76 13.497 2.313c-2.791 3.962-7.222 8.392-11.183 11.183l-.833-8.098zm-62.473 37.02c2.002 4.282 5.058 7.672 8.87 10.413-3.545 2.652-11.438 5.031-15.811 5.784zm150.397 22.478c23.654-3.072 40.51 23.023 27.596 43.08-2.085 3.237-5.09 6.055-8.315 8.15-3.217 2.09-6.975 3.625-10.797 4.128-4.668.614-14.46 1.086-17.796-3.176-2.545-3.25-2.846-8.879-5.226-12.574-1.756-2.726-3.916-5.088-6.286-7.292-1.227-1.14-3.272-2.212-3.734-3.925-3.716-13.781 12.728-26.854 24.558-28.391m-101.036 15.424c10.6-1.254 25.578 7.745 25.571 19.557 0 3.062-4.094 7.407-5.286 10.412-1.542 3.886-.815 9.282-2.556 12.724-2.878 5.687-12.403 8.078-18.114 8.761-16.272 1.946-30.108-13.238-26.262-29.198 3.098-12.859 13.987-20.758 26.647-22.256m50.518 13.497c23.333-2.865 45.679 22.655 29.733 43.852-2.503 3.326-5.373 5.88-8.909 8.073-3.857 2.393-8.25 3.607-12.726 4.157-23.505 2.886-44.531-22.899-29.246-43.852 2.371-3.251 5.395-5.837 8.808-7.933 3.724-2.287 8.004-3.764 12.34-4.297" style="fill:#050505;stroke:none;stroke-width:.385633"/></svg>