<svg xmlns="http://www.w3.org/2000/svg" width="90" height="90" viewBox="0 0 90 90" data-name="Layer 38">
  <path
    d="M15.005 9.95a1.215 1.293 0 0 0-2.09 1.262l1.099 2.069a1.206 1.283 0 0 0 1.06.662 1.176 1.252 0 0 0 .593-.165 1.206 1.283 0 0 0 .466-1.76zM17.776 52.974h1.78a1.215 1.293 0 0 0 0-2.586h-1.78a1.215 1.293 0 0 0 0 2.586z"
    style="stroke-width:1.0029" />
  <path
    d="M82.695 12.054c-.972 0-20.233 1.034-33.69 14.834a39.494 42.02 0 0 0-2.974-5.451C33.245 1.657 8.666.064 7.626.002a1.206 1.283 0 0 0-1.128.672c-.506.931-12.134 24.073-3.024 46.035 5.387 12.993 16.898 22.686 34.244 28.914a107.455 114.332 0 0 0 3.17 13.572 1.147 1.22 0 0 0 .223.342v.062a1.332 1.417 0 0 0 .282.259l.146.072h.116a.972 1.034 0 0 0 .34.062 1.235 1.314 0 0 0 .273 0c22.77-5.524 37.568-16.045 44.053-31.18 9.354-21.858-2.022-45.093-2.508-46.076a1.196 1.272 0 0 0-1.118-.682zM38.32 25.119a1.215 1.293 0 0 0-1.652.507l-7.4 14.4-11.054-21.083a1.223 1.302 0 0 0-2.13 1.283l4.804 9.145-11.668-.786a1.215 1.293 0 1 0-.155 2.576l13.223.9 11.278 21.465-9.625-.196a1.215 1.293 0 1 0 0 2.586l11.035.186 1.507 2.866a70.85 75.383 0 0 0 .739 13.748C21.286 66.778 10.689 57.675 5.71 45.685c-7.778-18.62.681-38.938 2.567-43.024 4.25.434 24.871 3.403 35.75 20.244a36.509 38.845 0 0 1 3.15 5.98 38.803 41.286 0 0 0-3.13 4.138 42.255 44.959 0 0 0-7.302 21.28L30.67 42.715l8.138-15.828a1.206 1.283 0 0 0-.487-1.769Zm45.775 32.638c-5.892 13.749-19.212 23.504-39.571 29.06l4.53-8.411 12.163-2.762a1.218 1.295 0 0 0-.505-2.535l-10.034 2.286 7.875-14.607 21.157-.869a1.215 1.293 0 1 0-.097-2.575l-19.63.796 1.293-2.39 8.507-.351a1.216 1.294 0 0 0-.078-2.586l-7 .258L77.289 26.04a1.225 1.303 0 1 0-2.149-1.252l-8.147 15.156-5.357-11.038a1.215 1.293 0 0 0-2.159 1.19l6.077 12.516-11.512 21.352-7.875-14.483a1.232 1.311 0 1 0-2.14 1.304l8.586 15.766-10.2 18.982c-5.765-21.507-4.569-38.669 3.608-51.02 11.055-16.697 31.725-19.46 35.993-19.811 1.877 4.107 10.044 24.476 2.08 43.055z"
    style="stroke-width:1.0029" />
  <path d="m76.18 49.685-1.944.082a1.216 1.293 0 0 0 .049 2.587l1.944-.083a1.216 1.294 0 0 0-.097-2.586z"
    style="stroke-width:1.0029" />
</svg>