<?xml version="1.0" encoding="UTF-8" standalone="no"?>
<!-- Created with Inkscape (http://www.inkscape.org/) -->

<svg
   xmlns:dc="http://purl.org/dc/elements/1.1/"
   xmlns:cc="http://creativecommons.org/ns#"
   xmlns:rdf="http://www.w3.org/1999/02/22-rdf-syntax-ns#"
   xmlns:svg="http://www.w3.org/2000/svg"
   xmlns="http://www.w3.org/2000/svg"
   xmlns:sodipodi="http://sodipodi.sourceforge.net/DTD/sodipodi-0.dtd"
   xmlns:inkscape="http://www.inkscape.org/namespaces/inkscape"
   width="190mm"
   height="190mm"
   viewBox="0 0 190 190"
   version="1.1"
   id="svg8"
   inkscape:version="0.92.4 (5da689c313, 2019-01-14)"
   sodipodi:docname="crop-analysis.svg">
  <defs
     id="defs2" />
  <sodipodi:namedview
     id="base"
     pagecolor="#ffffff"
     bordercolor="#666666"
     borderopacity="1.0"
     inkscape:pageopacity="0.0"
     inkscape:pageshadow="2"
     inkscape:zoom="0.35"
     inkscape:cx="-497.40599"
     inkscape:cy="294.16239"
     inkscape:document-units="mm"
     inkscape:current-layer="layer1"
     showgrid="false"
     fit-margin-top="0"
     fit-margin-left="0"
     fit-margin-right="0"
     fit-margin-bottom="0"
     inkscape:window-width="1920"
     inkscape:window-height="1001"
     inkscape:window-x="-9"
     inkscape:window-y="-9"
     inkscape:window-maximized="1" />
  <metadata
     id="metadata5">
    <rdf:RDF>
      <cc:Work
         rdf:about="">
        <dc:format>image/svg+xml</dc:format>
        <dc:type
           rdf:resource="http://purl.org/dc/dcmitype/StillImage" />
        <dc:title></dc:title>
      </cc:Work>
    </rdf:RDF>
  </metadata>
  <g
     inkscape:label="Layer 1"
     inkscape:groupmode="layer"
     id="layer1"
     transform="translate(-4.5591915,-10.619714)">
    <g
       id="g930"
       transform="matrix(0.22862619,0,0,0.22862619,6.0710965,84.388298)">
      <path
         id="path815"
         d="m 416.542,368.814 75.993,75.993 c 6.908,6.908 10.787,16.271 10.787,26.034 v 0 c 0.009,20.332 -16.471,36.812 -36.803,36.821 -0.009,0 -0.009,0 -0.017,0 v 0 c -9.763,0 -19.126,-3.879 -26.034,-10.787 l -75.993,-75.993 z"
         style="fill:#235087"
         inkscape:connector-curvature="0" />
      <rect
         id="rect817"
         height="61.353001"
         width="73.632004"
         style="fill:#ef2648"
         transform="matrix(-0.7071,0.7071,-0.7071,-0.7071,893.4613,376.1828)"
         y="342.457"
         x="332.005" />
      <path
         id="path819"
         d="m 403.525,386.169 c 10.9,0.017 21.782,0.755 32.577,2.204 l -19.56,-19.56 -17.469,17.469 c 1.485,-0.026 2.96,-0.113 4.452,-0.113 z"
         style="fill:#163768"
         inkscape:connector-curvature="0" />
      <path
         id="path821"
         d="m 416.542,368.814 -43.39,-43.39 -52.068,52.068 17.356,17.356 c 19.768,-5.354 40.127,-8.244 60.607,-8.591 z"
         style="fill:#b20d24"
         inkscape:connector-curvature="0" />
      <circle
         id="circle823"
         r="173.55901"
         cy="212.61"
         cx="208.271"
         style="fill:#b7e5ff" />
      <g
         id="g835">
	
		<rect
   id="rect825"
   height="73.632004"
   width="17.356001"
   style="fill:#ef2648"
   transform="matrix(-0.7071,0.7071,-0.7071,-0.7071,429.2543,282.1118)"
   y="193.14101"
   x="147.522" />

	
		<rect
   id="rect827"
   height="17.356001"
   width="98.181999"
   style="fill:#ef2648"
   transform="matrix(-0.7071,0.7071,-0.7071,-0.7071,586.0867,199.8138)"
   y="212.612"
   x="202.57001" />

	<rect
   id="rect829"
   height="17.356001"
   width="60.745998"
   style="fill:#ef2648"
   y="39.050999"
   x="451.254" />

	<rect
   id="rect831"
   height="17.356001"
   width="52.068001"
   style="fill:#ef2648"
   y="177.89799"
   x="34.712002" />

	
		<rect
   id="rect833"
   height="17.356001"
   width="49.091"
   style="fill:#ef2648"
   transform="matrix(-0.7071,0.7071,-0.7071,-0.7071,724.9299,-135.3595)"
   y="73.779999"
   x="365.953" />

</g>
      <g
         id="g843">
	<path
   id="path837"
   d="m 112.814,221.288 c -19.17,0 -34.712,-15.542 -34.712,-34.712 0,-19.17 15.542,-34.712 34.712,-34.712 19.17,0 34.712,15.542 34.712,34.712 0,19.17 -15.543,34.712 -34.712,34.712 z m 0,-52.068 c -9.589,0 -17.356,7.767 -17.356,17.356 0,9.589 7.767,17.356 17.356,17.356 9.589,0 17.356,-7.767 17.356,-17.356 -10e-4,-9.589 -7.767,-17.356 -17.356,-17.356 z"
   style="fill:#235087"
   inkscape:connector-curvature="0" />

	<path
   id="path839"
   d="m 199.593,308.068 c -19.17,0 -34.712,-15.542 -34.712,-34.712 0,-19.17 15.542,-34.712 34.712,-34.712 19.17,0 34.712,15.542 34.712,34.712 0,19.17 -15.542,34.712 -34.712,34.712 z m 0,-52.068 c -9.589,0 -17.356,7.767 -17.356,17.356 0,9.589 7.767,17.356 17.356,17.356 9.589,0 17.356,-7.767 17.356,-17.356 0,-9.589 -7.767,-17.356 -17.356,-17.356 z"
   style="fill:#235087"
   inkscape:connector-curvature="0" />

	<path
   id="path841"
   d="m 425.22,82.441 c -19.17,0 -34.712,-15.542 -34.712,-34.712 0,-19.17 15.542,-34.712 34.712,-34.712 19.17,0 34.712,15.542 34.712,34.712 0,19.17 -15.542,34.712 -34.712,34.712 z m 0,-52.068 c -9.589,0 -17.356,7.767 -17.356,17.356 0,9.589 7.767,17.356 17.356,17.356 9.589,0 17.356,-7.767 17.356,-17.356 0,-9.589 -7.767,-17.356 -17.356,-17.356 z"
   style="fill:#235087"
   inkscape:connector-curvature="0" />

</g>
      <path
         id="path845"
         d="m 274.866,52.337 c 74.127,60.772 84.949,170.132 24.168,244.259 C 250.516,355.771 168.96,376.19 98.287,346.85 172.414,407.622 281.765,396.8 342.546,322.682 403.327,248.564 392.496,139.204 318.378,78.423 305.23,67.645 290.564,58.854 274.866,52.337 Z"
         style="fill:#99c8e0"
         inkscape:connector-curvature="0" />
      <rect
         id="rect847"
         height="17.356001"
         width="49.091"
         style="fill:#ef2648"
         transform="matrix(-0.7071,0.7071,-0.7071,-0.7071,672.8756,-9.6242)"
         y="125.867"
         x="313.88599" />
      <path
         id="path849"
         d="m 349.193,111.486 -19.803,19.803 c 2.109,6.326 3.844,12.765 5.207,19.291 l 24.229,-24.229 c -2.96,-5.12 -6.171,-10.075 -9.633,-14.865 z"
         style="fill:#b20d24"
         inkscape:connector-curvature="0" />
      <g
         id="g855">
	<path
   id="path851"
   d="M 208.271,4.339 C 93.245,4.339 0,97.584 0,212.61 0,327.636 93.245,420.881 208.271,420.881 323.297,420.881 416.542,327.636 416.542,212.61 416.542,97.584 323.298,4.339 208.271,4.339 Z m 0,381.83 c -95.857,0 -173.559,-77.703 -173.559,-173.559 0,-95.856 77.702,-173.559 173.559,-173.559 95.857,0 173.559,77.703 173.559,173.559 0,95.856 -77.702,173.559 -173.559,173.559 z"
   style="fill:#235087"
   inkscape:connector-curvature="0" />

	<path
   id="path853"
   d="m 303.729,203.932 c -19.17,0 -34.712,-15.542 -34.712,-34.712 0,-19.17 15.542,-34.712 34.712,-34.712 19.17,0 34.712,15.542 34.712,34.712 0,19.17 -15.543,34.712 -34.712,34.712 z m 0,-52.068 c -9.589,0 -17.356,7.767 -17.356,17.356 0,9.589 7.767,17.356 17.356,17.356 9.589,0 17.356,-7.767 17.356,-17.356 0,-9.589 -7.767,-17.356 -17.356,-17.356 z"
   style="fill:#235087"
   inkscape:connector-curvature="0" />

</g>
      <g
         id="g857">
</g>
      <g
         id="g859">
</g>
      <g
         id="g861">
</g>
      <g
         id="g863">
</g>
      <g
         id="g865">
</g>
      <g
         id="g867">
</g>
      <g
         id="g869">
</g>
      <g
         id="g871">
</g>
      <g
         id="g873">
</g>
      <g
         id="g875">
</g>
      <g
         id="g877">
</g>
      <g
         id="g879">
</g>
      <g
         id="g881">
</g>
      <g
         id="g883">
</g>
      <g
         id="g885">
</g>
    </g>
    <g
       id="g1041"
       transform="matrix(0.32511858,0,0,0.32511858,73.347112,13.032259)">
      <g
         id="g962">
	<path
   id="path932"
   d="m 331.302,169.768 c 0.097,3.395 0.151,6.812 0.151,10.262 -15.08,8.354 -30.321,20.631 -43.116,32.283 v -42.544 h 42.965 z"
   style="fill:#ffd248"
   inkscape:connector-curvature="0" />

	<path
   id="path934"
   d="m 331.302,169.768 h -42.965 v -53.895 h 37.618 c 2.986,16.816 4.84,34.935 5.347,53.895 z"
   style="fill:#ffd248"
   inkscape:connector-curvature="0" />

	<path
   id="path936"
   d="m 310.66,61.666 -0.765,0.313 H 288.337 V 24.684 c 8.418,9.14 15.974,21.73 22.323,36.982 z"
   style="fill:#ffd248"
   inkscape:connector-curvature="0" />

	<path
   id="path938"
   d="M 325.955,115.874 H 288.337 V 61.979 h 21.558 l 0.765,-0.313 c 6.489,15.587 11.717,33.932 15.295,54.208 z"
   style="fill:#ffd248"
   inkscape:connector-curvature="0" />

	<rect
   id="rect940"
   height="53.895"
   width="32.337002"
   style="fill:#ffd248"
   y="115.874"
   x="256" />

	<rect
   id="rect942"
   height="53.895"
   width="32.337002"
   style="fill:#ffd248"
   y="115.874"
   x="223.66299" />

	<path
   id="path944"
   d="m 223.663,169.768 v 42.544 c -12.795,-11.652 -28.036,-23.929 -43.116,-32.283 0,-3.449 0.054,-6.866 0.151,-10.262 h 42.965 z"
   style="fill:#ffd248"
   inkscape:connector-curvature="0" />

	<path
   id="path946"
   d="m 256,169.768 h 32.337 v 42.544 C 269.528,229.441 256,245.221 256,245.221 c 0,0 -13.528,-15.78 -32.337,-32.908 V 169.769 H 256 Z"
   style="fill:#ffd248"
   inkscape:connector-curvature="0" />

	<path
   id="path948"
   d="m 223.663,115.874 v 53.895 h -42.965 c 0.507,-18.96 2.361,-37.08 5.346,-53.895 z"
   style="fill:#ffd248"
   inkscape:connector-curvature="0" />

	<path
   id="path950"
   d="m 223.663,61.979 v 53.895 h -37.619 c 3.579,-20.275 8.806,-38.621 15.295,-54.207 l 0.765,0.313 h 21.559 z"
   style="fill:#ffd248"
   inkscape:connector-curvature="0" />

	<rect
   id="rect952"
   height="53.895"
   width="32.337002"
   style="fill:#ffd248"
   y="61.979"
   x="223.66299" />

	<rect
   id="rect954"
   height="53.895"
   width="32.337002"
   style="fill:#ffd248"
   y="61.979"
   x="256" />

	<path
   id="path956"
   d="m 223.663,24.684 v 37.295 h -21.558 l -0.765,-0.313 c 6.349,-15.252 13.905,-27.842 22.323,-36.982 z"
   style="fill:#ffd248"
   inkscape:connector-curvature="0" />

	<path
   id="path958"
   d="M 288.337,24.684 V 61.979 H 256 V 8.084 c 11.577,0 22.539,5.961 32.337,16.6 z"
   style="fill:#ffd248"
   inkscape:connector-curvature="0" />

	<path
   id="path960"
   d="M 256,8.084 V 61.979 H 223.663 V 24.684 c 9.798,-10.639 20.76,-16.6 32.337,-16.6 z"
   style="fill:#ffd248"
   inkscape:connector-curvature="0" />

</g>
      <path
         id="path964"
         d="m 282.947,450.657 v 53.259 h -53.895 v -53.259 c 7.707,2.997 16.621,4.754 26.947,4.754 10.326,0 19.241,-1.757 26.948,-4.754 z"
         style="fill:#0e7b38"
         inkscape:connector-curvature="0" />
      <path
         id="path966"
         d="m 331.453,180.03 c 11.221,-6.219 22.356,-10.262 32.337,-10.262 l -32.337,204.8 c 0,0 -3.924,58.778 -48.505,76.089 -7.707,2.997 -16.621,4.754 -26.947,4.754 -10.326,0 -19.24,-1.757 -26.947,-4.754 -44.582,-17.311 -48.505,-76.089 -48.505,-76.089 l -32.337,-204.8 c 9.981,0 21.116,4.042 32.337,10.262 15.08,8.354 30.321,20.631 43.116,32.283 18.807,17.128 32.335,32.908 32.335,32.908 0,0 13.528,-15.78 32.337,-32.908 12.794,-11.652 28.036,-23.929 43.116,-32.283 z"
         style="fill:#a7c850"
         inkscape:connector-curvature="0" />
      <path
         id="path968"
         d="m 363.789,161.684 c -7.397,0 -15.6,1.869 -24.489,5.555 -0.591,-18.169 -2.392,-35.917 -5.384,-52.77 C 330.262,93.765 324.948,74.954 318.124,58.561 311.336,42.255 303.315,29.014 294.284,19.208 282.711,6.642 269.473,0 256,0 c -13.473,0 -26.711,6.642 -38.284,19.207 -9.032,9.806 -17.052,23.046 -23.84,39.352 -6.825,16.395 -12.139,35.205 -15.791,55.901 -2.995,16.867 -4.797,34.619 -5.386,52.779 -8.888,-3.686 -17.092,-5.555 -24.489,-5.555 h -9.461 l 33.762,213.825 c 0.215,2.627 1.641,17.092 8.036,33.541 8.607,22.141 22.525,38.215 40.421,46.869 V 512 h 70.063 v -56.082 c 17.898,-8.654 31.815,-24.728 40.421,-46.868 6.394,-16.449 7.82,-30.915 8.036,-33.541 L 373.25,161.684 Z M 247.916,107.789 H 231.748 V 70.063 h 16.168 z m 16.168,-37.726 h 16.168 v 37.726 h -16.168 z m -16.168,53.895 v 37.726 h -16.168 v -37.726 z m 16.168,0 h 16.168 v 37.726 h -16.168 z m 32.337,0 h 22.684 c 1.903,12.183 3.168,24.82 3.793,37.726 h -26.477 z m 0,-16.169 V 70.063 h 8.878 c 4.371,11.429 7.998,24.072 10.85,37.726 z m 0,-53.894 v -3.451 c 0.606,1.126 1.205,2.275 1.797,3.451 z m -16.168,0 H 264.085 V 17.459 c 5.468,1.741 10.876,5.252 16.168,10.495 z m -32.337,0 h -16.168 v -25.94 c 5.292,-5.244 10.7,-8.755 16.168,-10.495 z m -32.337,0 h -1.797 c 0.592,-1.176 1.191,-2.325 1.797,-3.451 z m 0,16.168 v 37.726 h -19.728 c 2.852,-13.653 6.479,-26.296 10.851,-37.726 z m 0,53.895 v 37.726 h -26.477 c 0.625,-12.9 1.891,-25.537 3.793,-37.726 z m 0,53.895 v 16.77 c -7.97,-6.539 -15.624,-12.146 -22.903,-16.77 z m 16.168,0 h 16.168 v 46.716 c -4.565,-4.695 -10.048,-10.128 -16.168,-15.803 z m 32.337,0 h 16.168 v 30.913 c -6.12,5.675 -11.604,11.108 -16.168,15.803 z m 32.337,0 h 22.903 c -7.279,4.625 -14.933,10.232 -22.903,16.77 z m -59.284,317.979 v -34.33 c 5.977,1.319 12.284,1.993 18.863,1.993 6.581,0 12.886,-0.674 18.863,-1.993 v 34.33 z m 86.331,-122.525 -0.08,0.709 c -0.01,0.139 -1.039,14.023 -7.163,29.578 -7.851,19.948 -20.032,33.246 -36.208,39.526 -7.173,2.79 -15.254,4.204 -24.018,4.204 -8.763,0 -16.843,-1.415 -24.021,-4.205 -16.172,-6.28 -28.353,-19.578 -36.204,-39.525 -3.132,-7.96 -4.93,-15.476 -5.941,-20.943 h 103.893 v -16.168 h -106.27 l -29.57,-187.277 c 5.629,1.461 11.898,4.099 18.745,7.893 12.437,6.89 26.43,17.383 41.589,31.189 11.742,10.693 21.451,20.927 26.898,26.885 l -48.994,53.894 11.964,10.876 47.739,-52.512 0.176,0.205 6.135,-7.153 c 0.133,-0.154 13.459,-15.634 31.643,-32.193 15.161,-13.806 29.153,-24.299 41.592,-31.19 6.847,-3.794 13.115,-6.432 18.744,-7.892 z"
         inkscape:connector-curvature="0" />
      <g
         id="g970">
</g>
      <g
         id="g972">
</g>
      <g
         id="g974">
</g>
      <g
         id="g976">
</g>
      <g
         id="g978">
</g>
      <g
         id="g980">
</g>
      <g
         id="g982">
</g>
      <g
         id="g984">
</g>
      <g
         id="g986">
</g>
      <g
         id="g988">
</g>
      <g
         id="g990">
</g>
      <g
         id="g992">
</g>
      <g
         id="g994">
</g>
      <g
         id="g996">
</g>
      <g
         id="g998">
</g>
    </g>
  </g>
</svg>
