<?xml version="1.0" encoding="UTF-8" standalone="no"?>
<svg
   xmlns:dc="http://purl.org/dc/elements/1.1/"
   xmlns:cc="http://creativecommons.org/ns#"
   xmlns:rdf="http://www.w3.org/1999/02/22-rdf-syntax-ns#"
   xmlns:svg="http://www.w3.org/2000/svg"
   xmlns="http://www.w3.org/2000/svg"
   xmlns:sodipodi="http://sodipodi.sourceforge.net/DTD/sodipodi-0.dtd"
   xmlns:inkscape="http://www.inkscape.org/namespaces/inkscape"
   version="1.1"
   x="0px"
   y="0px"
   viewBox="0 0 87.959 86.848999"
   enable-background="new 0 0 100 100"
   xml:space="preserve"
   id="svg32"
   sodipodi:docname="crop.svg"
   width="87.959"
   height="86.848999"
   inkscape:version="0.92.2 (5c3e80d, 2017-08-06)"><metadata
     id="metadata38"><rdf:RDF><cc:Work
         rdf:about=""><dc:format>image/svg+xml</dc:format><dc:type
           rdf:resource="http://purl.org/dc/dcmitype/StillImage" /><dc:title></dc:title></cc:Work></rdf:RDF></metadata><defs
     id="defs36" /><sodipodi:namedview
     pagecolor="#ffffff"
     bordercolor="#666666"
     borderopacity="1"
     objecttolerance="10"
     gridtolerance="10"
     guidetolerance="10"
     inkscape:pageopacity="0"
     inkscape:pageshadow="2"
     inkscape:window-width="1920"
     inkscape:window-height="1001"
     id="namedview34"
     showgrid="false"
     fit-margin-top="0"
     fit-margin-left="0"
     fit-margin-right="0"
     fit-margin-bottom="0"
     inkscape:zoom="1.888"
     inkscape:cx="43.816"
     inkscape:cy="30.833999"
     inkscape:window-x="-9"
     inkscape:window-y="-9"
     inkscape:window-maximized="1"
     inkscape:current-layer="svg32" /><g
     id="g26"
     transform="translate(-6.184,-6.4850001)"><path
       d="M 90.382,86.917 H 77.018 v -0.576 l 0.257,0.021 c 0.271,0.021 0.532,0.031 0.785,0.031 2.165,0 3.902,-0.738 5.162,-2.194 2.89,-3.338 2.066,-9.28 2.03,-9.532 l -0.182,-1.25 -1.216,0.341 c -3.184,0.888 -5.465,2.243 -6.837,4.029 v -5.283 c 0.683,0.162 1.349,0.262 1.977,0.262 7.136,0 7.708,-9.859 7.729,-10.28 l 0.062,-1.262 -1.258,0.099 c -4.046,0.317 -6.897,1.584 -8.51,3.75 V 60.42 c 1.647,-1.115 2.642,-2.562 2.95,-4.313 0.786,-4.45 -3.29,-9.143 -3.464,-9.34 l -0.834,-0.948 -0.835,0.948 c -2.781,3.162 -3.944,6.166 -3.456,8.927 0.498,2.821 2.585,4.462 3.417,5.014 v 3.812 c -1.669,-1.833 -4.376,-2.909 -8.071,-3.198 l -1.259,-0.099 0.063,1.262 c 0.022,0.421 0.593,10.28 7.729,10.28 10e-4,0 10e-4,0 10e-4,0 0.491,0 1.01,-0.069 1.537,-0.169 v 4.672 c -1.4,-1.53 -3.53,-2.713 -6.397,-3.511 L 67.182,73.416 67,74.666 c -0.036,0.253 -0.858,6.192 2.031,9.532 1.259,1.456 2.995,2.194 5.16,2.194 0,0 0,0 0.002,0 0.193,0 0.396,-0.012 0.603,-0.022 v 0.547 h -23.33 v -0.576 l 0.256,0.021 c 0.271,0.021 0.533,0.031 0.786,0.031 2.165,0 3.902,-0.738 5.162,-2.194 2.89,-3.338 2.065,-9.28 2.029,-9.532 l -0.181,-1.25 -1.217,0.341 c -3.183,0.888 -5.464,2.243 -6.836,4.029 v -5.283 c 0.683,0.162 1.349,0.262 1.976,0.262 7.137,0 7.709,-9.859 7.73,-10.28 l 0.062,-1.262 -1.259,0.099 c -4.045,0.317 -6.896,1.584 -8.509,3.75 V 60.42 c 1.647,-1.115 2.641,-2.562 2.95,-4.313 0.785,-4.45 -3.291,-9.143 -3.465,-9.34 l -0.833,-0.948 -0.834,0.948 c -2.782,3.162 -3.945,6.166 -3.458,8.927 0.499,2.821 2.585,4.461 3.418,5.014 v 3.812 c -1.671,-1.833 -4.377,-2.909 -8.071,-3.198 l -1.258,-0.099 0.063,1.262 c 0.021,0.421 0.592,10.28 7.729,10.28 0,0 0,0 10e-4,0 0.491,0 1.009,-0.069 1.536,-0.169 v 4.673 c -1.399,-1.531 -3.53,-2.714 -6.397,-3.512 l -1.217,-0.341 -0.182,1.25 c -0.036,0.253 -0.858,6.192 2.031,9.532 1.26,1.456 2.996,2.194 5.16,2.194 h 0.001 c 0.194,0 0.398,-0.012 0.603,-0.022 v 0.547 h -23.33 v -0.576 l 0.255,0.021 c 0.272,0.021 0.534,0.031 0.787,0.031 2.165,0 3.901,-0.738 5.161,-2.194 2.89,-3.338 2.066,-9.28 2.031,-9.532 l -0.181,-1.25 -1.216,0.341 c -3.184,0.888 -5.465,2.243 -6.836,4.029 v -5.283 c 0.683,0.162 1.349,0.262 1.977,0.262 7.137,0 7.708,-9.859 7.729,-10.28 l 0.063,-1.262 -1.258,0.099 c -4.045,0.317 -6.897,1.584 -8.509,3.75 V 60.42 c 1.647,-1.115 2.64,-2.562 2.95,-4.313 0.787,-4.45 -3.29,-9.143 -3.464,-9.34 l -0.833,-0.948 -0.834,0.948 c -2.782,3.162 -3.945,6.166 -3.458,8.927 0.499,2.821 2.585,4.461 3.418,5.014 v 3.812 c -1.671,-1.833 -4.377,-2.909 -8.071,-3.198 l -1.259,-0.099 0.063,1.262 c 0.021,0.421 0.592,10.28 7.729,10.28 0,0 0,0 0.001,0 0.491,0 1.01,-0.069 1.536,-0.169 v 4.673 c -1.399,-1.531 -3.53,-2.714 -6.397,-3.512 l -1.217,-0.341 -0.181,1.25 c -0.037,0.253 -0.859,6.192 2.031,9.532 1.26,1.456 2.997,2.194 5.16,2.194 h 0.001 c 0.194,0 0.398,-0.012 0.603,-0.022 v 0.547 H 9.437 v 2.222 H 90.382 Z M 78.128,80.219 c 0.711,-1.667 2.398,-2.981 5.024,-3.914 0.061,1.713 -0.089,4.684 -1.614,6.443 -0.821,0.948 -1.946,1.414 -3.436,1.423 -0.284,-0.802 -0.65,-2.362 0.026,-3.952 z m 0.537,-13.657 c 1.018,-1.502 2.927,-2.465 5.685,-2.873 -0.366,2.309 -1.573,6.854 -5.355,6.854 -0.352,0 -0.725,-0.037 -1.112,-0.111 -0.128,-0.841 -0.188,-2.441 0.782,-3.87 z m -4.299,3.872 c -0.388,0.074 -0.757,0.111 -1.106,0.111 -0.001,0 -0.001,0 -0.001,0 -3.771,-0.002 -4.981,-4.545 -5.354,-6.856 2.745,0.408 4.65,1.366 5.67,2.854 0.972,1.416 0.915,3.04 0.791,3.891 z M 74.143,84.171 C 72.659,84.16 71.536,83.694 70.714,82.747 69.189,80.988 69.039,78.016 69.1,76.305 c 2.615,0.929 4.299,2.236 5.016,3.895 0.68,1.576 0.312,3.16 0.027,3.971 z M 52.586,80.199 c 0.716,-1.658 2.399,-2.966 5.017,-3.895 0.06,1.713 -0.089,4.684 -1.615,6.443 -0.821,0.948 -1.943,1.413 -3.43,1.423 -0.285,-0.812 -0.654,-2.395 0.028,-3.971 z m 0.54,-13.657 c 1.021,-1.488 2.926,-2.446 5.672,-2.854 -0.366,2.312 -1.573,6.856 -5.356,6.856 -0.349,0 -0.72,-0.036 -1.107,-0.111 -0.124,-0.852 -0.18,-2.474 0.791,-3.891 z m -4.312,3.892 c -0.387,0.074 -0.758,0.111 -1.107,0.111 v 0 C 43.937,70.543 42.725,66 42.353,63.689 c 2.746,0.408 4.648,1.366 5.669,2.854 0.972,1.416 0.916,3.04 0.792,3.891 z m -0.223,13.737 c -1.485,-0.011 -2.607,-0.477 -3.428,-1.424 -1.526,-1.759 -1.675,-4.731 -1.615,-6.442 2.615,0.929 4.3,2.236 5.016,3.895 0.679,1.576 0.311,3.16 0.027,3.971 z M 27.034,80.199 c 0.715,-1.658 2.4,-2.966 5.016,-3.895 0.061,1.713 -0.09,4.684 -1.615,6.443 -0.821,0.948 -1.943,1.413 -3.429,1.423 -0.285,-0.812 -0.653,-2.395 0.028,-3.971 z m 0.54,-13.657 c 1.021,-1.488 2.926,-2.446 5.672,-2.854 -0.369,2.312 -1.574,6.856 -5.357,6.856 -0.35,0 -0.721,-0.036 -1.107,-0.111 -0.124,-0.852 -0.179,-2.474 0.792,-3.891 z m -4.311,3.892 c -0.387,0.074 -0.758,0.111 -1.108,0.111 v 0 C 18.385,70.543 17.173,66 16.801,63.689 c 2.746,0.408 4.648,1.366 5.669,2.854 0.972,1.416 0.916,3.04 0.793,3.891 z m -0.224,13.737 c -1.485,-0.011 -2.607,-0.477 -3.428,-1.424 -1.526,-1.759 -1.676,-4.731 -1.616,-6.442 2.615,0.929 4.301,2.236 5.017,3.895 0.679,1.576 0.311,3.16 0.027,3.971 z m 1.61,-25.577 H 24.55 c -0.682,-0.531 -1.793,-1.623 -2.087,-3.285 -0.315,-1.785 0.384,-3.811 2.078,-6.028 1.11,1.584 2.526,4.229 2.135,6.443 -0.204,1.15 -0.873,2.093 -2.027,2.87 z m 25.552,0 h -0.1 c -0.682,-0.531 -1.792,-1.623 -2.087,-3.285 -0.316,-1.785 0.383,-3.811 2.077,-6.028 1.109,1.584 2.526,4.229 2.136,6.443 -0.204,1.15 -0.872,2.093 -2.026,2.87 z m 25.55,0 h -0.089 c -0.687,-0.538 -1.814,-1.647 -2.101,-3.308 -0.305,-1.782 0.394,-3.798 2.083,-6.006 1.108,1.585 2.524,4.228 2.135,6.441 -0.203,1.153 -0.874,2.096 -2.028,2.873 z"
       id="path2"
       inkscape:connector-curvature="0" /><rect
       x="6.184"
       y="91.112"
       width="31.791"
       height="2.2219999"
       id="rect4" /><rect
       x="47.812"
       y="91.112"
       width="46.331001"
       height="2.2219999"
       id="rect6" /><path
       d="m 50.063,28.666 c 3.993,0 7.241,-3.249 7.241,-7.241 0,-3.993 -3.248,-7.243 -7.241,-7.243 -3.993,0 -7.241,3.249 -7.241,7.243 0,3.993 3.248,7.241 7.241,7.241 z m 0,-12.262 c 2.768,0 5.02,2.251 5.02,5.021 0,2.767 -2.252,5.019 -5.02,5.019 -2.769,0 -5.02,-2.252 -5.02,-5.019 0.002,-2.77 2.253,-5.021 5.02,-5.021 z"
       id="path8"
       inkscape:connector-curvature="0" /><rect
       x="48.952"
       y="6.4850001"
       width="2.2219999"
       height="6.27"
       id="rect10" /><rect
       x="48.952"
       y="30.25"
       width="2.2219999"
       height="6.27"
       id="rect12" /><rect
       x="58.811001"
       y="20.392"
       width="6.2709999"
       height="2.2219999"
       id="rect14" /><rect
       x="35.044998"
       y="20.392"
       width="6.2709999"
       height="2.2219999"
       id="rect16" /><rect
       x="55.327999"
       y="28.791"
       transform="matrix(0.7071,0.7071,-0.7071,0.7071,38.2639,-32.5807)"
       width="6.2709999"
       height="2.221"
       id="rect18" /><rect
       x="38.525002"
       y="11.989"
       transform="matrix(-0.7072,-0.707,0.707,-0.7072,61.8614,51.8191)"
       width="6.2709999"
       height="2.221"
       id="rect20" /><rect
       x="38.526001"
       y="28.796"
       transform="matrix(0.707,-0.7072,0.7072,0.707,-8.9437,38.227)"
       width="6.27"
       height="2.2219999"
       id="rect22" /><rect
       x="57.354"
       y="9.9639997"
       transform="matrix(-0.7072,-0.707,0.707,-0.7072,90.5514,63.6991)"
       width="2.2219999"
       height="6.2709999"
       id="rect24" /></g></svg>