<?xml version="1.0" encoding="UTF-8" standalone="no"?>
<svg
   xmlns:dc="http://purl.org/dc/elements/1.1/"
   xmlns:cc="http://creativecommons.org/ns#"
   xmlns:rdf="http://www.w3.org/1999/02/22-rdf-syntax-ns#"
   xmlns:svg="http://www.w3.org/2000/svg"
   xmlns="http://www.w3.org/2000/svg"
   xmlns:sodipodi="http://sodipodi.sourceforge.net/DTD/sodipodi-0.dtd"
   xmlns:inkscape="http://www.inkscape.org/namespaces/inkscape"
   version="1.1"
   x="0px"
   y="0px"
   viewBox="0 0 83.846611 85"
   enable-background="new 0 0 100 100"
   xml:space="preserve"
   id="svg38"
   sodipodi:docname="ducks.svg"
   width="83.846611"
   height="85"
   inkscape:version="0.92.2 (5c3e80d, 2017-08-06)"><metadata
     id="metadata44"><rdf:RDF><cc:Work
         rdf:about=""><dc:format>image/svg+xml</dc:format><dc:type
           rdf:resource="http://purl.org/dc/dcmitype/StillImage" /><dc:title></dc:title></cc:Work></rdf:RDF></metadata><defs
     id="defs42" /><sodipodi:namedview
     pagecolor="#ffffff"
     bordercolor="#666666"
     borderopacity="1"
     objecttolerance="10"
     gridtolerance="10"
     guidetolerance="10"
     inkscape:pageopacity="0"
     inkscape:pageshadow="2"
     inkscape:window-width="750"
     inkscape:window-height="480"
     id="namedview40"
     showgrid="false"
     fit-margin-top="0"
     fit-margin-left="0"
     fit-margin-right="0"
     fit-margin-bottom="0"
     inkscape:zoom="1.888"
     inkscape:cx="12.862664"
     inkscape:cy="25.76884"
     inkscape:window-x="0"
     inkscape:window-y="0"
     inkscape:window-maximized="0"
     inkscape:current-layer="svg38" /><g
     id="g32"
     transform="translate(-8.1533877,-7.5)"><g
       id="g10"><g
         id="g4"><path
           d="M 46.1,77.5 C 33,77.5 21.5,68.8 17.9,56.3 12.9,54.9 7.6,52.1 8.2,48.7 8.5,47.1 10,45.8 12.6,45.1 10.5,42.6 9.8,40.2 10.8,38.5 c 0.5,-0.8 1.5,-1.7 3.7,-1.7 2.4,0 5.5,1.1 8.5,2.9 1.4,0.9 2.6,1.8 3.7,2.9 h 28.2 c 4.6,0 8.4,-3.8 8.4,-8.4 V 14.5 c 0,0 0,-0.1 0,-0.1 0,-0.1 0,-0.1 0,-0.2 0,-3.8 4.7,-6.7 10.7,-6.7 4.4,0 8.3,1.6 9.9,4.1 2.2,0 8.1,0.4 8.1,3.1 0,3 -7.2,3.2 -8.6,3.2 -0.1,0 -0.2,0 -0.3,0 -1.7,1.6 -4.4,2.7 -7.5,3 V 48.1 C 75.5,64.3 62.3,77.5 46.1,77.5 Z M 14.5,39.2 c -0.9,0 -1.6,0.2 -1.8,0.6 -0.5,0.8 0.3,2.9 2.9,5.2 0.3,0.3 0.5,0.8 0.3,1.2 -0.1,0.4 -0.5,0.7 -1,0.8 -3,0.4 -4.5,1.3 -4.6,2.1 -0.2,1.2 2.7,3.7 8.7,5.2 0.4,0.1 0.7,0.4 0.8,0.8 3.2,11.9 14,20.1 26.3,20.1 15,0 27.1,-12.2 27.1,-27.1 V 19.8 c 0,-0.6 0.5,-1.1 1.1,-1.1 3.1,-0.1 6,-1.1 7.3,-2.7 0.2,-0.3 0.6,-0.4 0.9,-0.4 0.3,0 0.5,0 0.8,0 3,0 5,-0.5 5.9,-0.9 -0.9,-0.4 -3,-0.9 -5.9,-0.9 h -0.1 c -0.4,0 -0.8,-0.3 -1,-0.7 -0.8,-1.7 -3.9,-3.4 -8.2,-3.4 -5,0 -8.4,2.3 -8.4,4.4 0,0.1 0,0.1 0,0.2 0,0.1 0,0.2 0,0.2 v 19.7 c 0,5.9 -4.8,10.7 -10.7,10.7 H 26.2 c -0.3,0 -0.6,-0.1 -0.8,-0.4 -1,-1 -2.2,-2 -3.6,-2.9 -2.6,-1.4 -5.3,-2.4 -7.3,-2.4 z"
           id="path2"
           inkscape:connector-curvature="0" /></g><g
         id="g8"><path
           d="m 40.6,66.6 c -5.1,0 -9.2,-4.1 -9.2,-9.2 0,-0.6 0.1,-1.2 0.2,-1.7 -1.8,-1 -3,-2.9 -3,-5 0,-1.7 0.7,-3.2 2,-4.3 0.5,-0.4 1.2,-0.4 1.6,0.1 0.4,0.5 0.4,1.2 -0.1,1.6 -0.8,0.6 -1.2,1.6 -1.2,2.6 0,1.5 0.9,2.8 2.4,3.2 0.6,0.2 0.9,0.8 0.8,1.4 -0.2,0.7 -0.3,1.3 -0.3,2 0,3.8 3.1,6.9 6.9,6.9 3.8,0 6.9,-3.1 6.9,-6.9 0,-0.6 0.5,-1.1 1.1,-1.1 0.6,0 1.1,0.5 1.1,1.1 0,5.2 -4.1,9.3 -9.2,9.3 z"
           id="path6"
           inkscape:connector-curvature="0" /></g></g><g
       id="g20"><g
         id="g14"><path
           d="m 42.7,91 c -0.6,0 -1.1,-0.5 -1.1,-1.1 V 77.5 c 0,-0.6 0.5,-1.1 1.1,-1.1 0.6,0 1.1,0.5 1.1,1.1 v 12.4 c 0.1,0.6 -0.4,1.1 -1.1,1.1 z"
           id="path12"
           inkscape:connector-curvature="0" /></g><g
         id="g18"><path
           d="m 49.3,92.5 c -0.1,0 -0.2,0 -0.3,0 L 42.5,91 c -0.6,-0.1 -1,-0.8 -0.9,-1.4 0.1,-0.6 0.8,-1 1.4,-0.9 l 6.5,1.5 c 0.6,0.1 1,0.8 0.9,1.4 -0.1,0.5 -0.6,0.9 -1.1,0.9 z"
           id="path16"
           inkscape:connector-curvature="0" /></g></g><g
       id="g30"><g
         id="g24"><path
           d="m 50.3,90 c -0.6,0 -1.1,-0.5 -1.1,-1.1 V 76.4 c 0,-0.6 0.5,-1.1 1.1,-1.1 0.6,0 1.1,0.5 1.1,1.1 v 12.4 c 0.1,0.7 -0.5,1.2 -1.1,1.2 z"
           id="path22"
           inkscape:connector-curvature="0" /></g><g
         id="g28"><path
           d="m 56.9,91.4 c -0.1,0 -0.2,0 -0.3,0 l -6.5,-1.5 c -0.6,-0.1 -1,-0.8 -0.9,-1.4 0.1,-0.6 0.8,-1 1.4,-0.9 l 6.5,1.5 c 0.6,0.1 1,0.8 0.9,1.4 -0.2,0.6 -0.6,0.9 -1.1,0.9 z"
           id="path26"
           inkscape:connector-curvature="0" /></g></g></g></svg>