<?xml version="1.0" encoding="UTF-8" standalone="no"?>
<svg
   xmlns:dc="http://purl.org/dc/elements/1.1/"
   xmlns:cc="http://creativecommons.org/ns#"
   xmlns:rdf="http://www.w3.org/1999/02/22-rdf-syntax-ns#"
   xmlns:svg="http://www.w3.org/2000/svg"
   xmlns="http://www.w3.org/2000/svg"
   xmlns:sodipodi="http://sodipodi.sourceforge.net/DTD/sodipodi-0.dtd"
   xmlns:inkscape="http://www.inkscape.org/namespaces/inkscape"
   version="1.1"
   x="0px"
   y="0px"
   viewBox="0 0 368.42137 257.59501"
   xml:space="preserve"
   id="svg18"
   sodipodi:docname="family-labour.svg"
   width="368.42139"
   height="257.595"
   inkscape:version="0.92.3 (2405546, 2018-03-11)"><metadata
     id="metadata24"><rdf:RDF><cc:Work
         rdf:about=""><dc:format>image/svg+xml</dc:format><dc:type
           rdf:resource="http://purl.org/dc/dcmitype/StillImage" /><dc:title></dc:title></cc:Work></rdf:RDF></metadata><defs
     id="defs22" /><sodipodi:namedview
     pagecolor="#ffffff"
     bordercolor="#666666"
     borderopacity="1"
     objecttolerance="10"
     gridtolerance="10"
     guidetolerance="10"
     inkscape:pageopacity="0"
     inkscape:pageshadow="2"
     inkscape:window-width="1920"
     inkscape:window-height="1017"
     id="namedview20"
     showgrid="false"
     fit-margin-top="0"
     fit-margin-left="0"
     fit-margin-right="0"
     fit-margin-bottom="0"
     inkscape:zoom="0.73293349"
     inkscape:cx="-53.640189"
     inkscape:cy="331.12353"
     inkscape:window-x="1912"
     inkscape:window-y="-8"
     inkscape:window-maximized="1"
     inkscape:current-layer="g1121" /><g
     id="g12"><path
       d="m 87.571,38.513 c 2.079,-11.416 12.09,-20.101 24.097,-20.101 12.006,0 22.017,8.685 24.096,20.101 20.142,-1.733 34.153,-5.568 34.153,-10.025 0,-5.103 -18.362,-15.919 -43.273,-19.271 C 126.406,4.103 119.8,0 111.667,0 103.534,0 96.928,4.103 96.689,9.217 78.773,11.628 64.246,17.899 57.499,23.13 v 9.407 c 5.554,2.653 16.394,4.799 30.072,5.976 z"
       id="path2"
       inkscape:connector-curvature="0" /><path
       d="m 19.128,101.597 c -3.996,1.885 -5.707,6.653 -3.822,10.649 1.364,2.894 4.24,4.59 7.241,4.59 0.067,0 0.135,-0.009 0.203,-0.011 V 99.898 c -1.204,0.562 -2.411,1.127 -3.622,1.699 z"
       id="path4"
       inkscape:connector-curvature="0" /><path
       d="m 73.076,95.227 c 4.461,-1.858 8.356,-3.451 11.546,-4.741 v 154.746 c 0,6.83 5.537,12.363 12.363,12.363 6.828,0 12.365,-5.533 12.365,-12.363 V 154.96 h 4.635 v 90.271 c 0,6.83 5.537,12.363 12.363,12.363 6.828,0 12.365,-5.533 12.365,-12.363 V 95.482 c 0.593,1.216 1.191,2.611 1.781,4.238 2.819,7.813 5.189,20.63 5.18,40.638 0,5.516 -0.177,11.574 -0.565,18.224 -0.257,4.411 3.109,8.195 7.52,8.452 0.159,0.009 0.318,0.014 0.475,0.014 4.205,0 7.729,-3.283 7.979,-7.535 0.404,-6.933 0.591,-13.299 0.591,-19.156 -0.04,-30.182 -4.861,-46.887 -11.434,-56.932 -3.285,-4.986 -7.128,-8.183 -10.68,-9.955 -2.319,-1.169 -4.445,-1.72 -6.14,-1.964 -0.766,-0.254 -1.583,-0.398 -2.436,-0.398 H 92.351 c -0.681,0 -1.338,0.097 -1.967,0.262 -0.774,0.056 -1.554,0.225 -2.316,0.521 v -0.002 c -0.09,0.036 -25.279,9.792 -55.317,23.409 v 17.597 C 47.813,105.939 62.108,99.798 73.076,95.227 Z"
       id="path6"
       inkscape:connector-curvature="0" /><circle
       cx="111.668"
       cy="42.912998"
       r="22.5"
       id="circle8" /><path
       d="m 24.75,255.5 h 6 V 71.5 H 48.5 c 3.867,-0.002 6.997,-3.133 6.999,-7.001 V 18.834 H 49.5 v 45.665 c -0.002,0.55 -0.45,1 -1,1 H 30.75 V 18.833 h -6 V 65.499 H 6.999 c -0.55,0 -1,-0.45 -1,-1 V 18.834 H 0 v 45.665 c 0.002,3.868 3.132,6.999 6.999,7.001 h 17.75 v 184 z"
       id="path10"
       inkscape:connector-curvature="0" /></g><g
     inkscape:groupmode="layer"
     id="layer4"
     inkscape:label="Woman"
     transform="translate(0,2.4414062e-6)"><g
       id="g1121"
       transform="matrix(3.1497445,0,0,3.1497445,1676.5932,-31.181146)"><ellipse
         id="ellipse2"
         ry="7.5450001"
         rx="7.7940001"
         cy="27.437117"
         cx="-432.45013" /><polygon
         transform="translate(-468.4362,19.892117)"
         id="polygon4"
         points="46.91,13.509 40.252,10.407 43.569,6.925 47.277,13.049 " /><ellipse
         id="ellipse6"
         ry="2.2260077"
         rx="1.9070065"
         cy="-280.21014"
         cx="-314.85156"
         transform="rotate(-46.393822)"
         style="stroke-width:1.00000346" /><polygon
         transform="translate(-468.4362,19.892117)"
         id="polygon8"
         points="25.459,13.572 28.561,6.915 32.043,10.231 25.919,13.939 " /><ellipse
         id="ellipse10"
         ry="2.2260077"
         rx="1.9070065"
         cy="331.73303"
         cx="-297.61899"
         transform="rotate(43.606178)"
         style="stroke-width:1.00000346" /><path
         id="path12-2"
         d="m -419.6522,62.190117 c 0.131,2.752 4.606,13.808 4.312,18.408 -0.031,0.488 -3.67,1.115 -3.979,1.658 -1.237,2.175 -0.715,4.488 -0.899,5.494 -1.338,7.29 -7.14,-5.542 -7.14,-5.542 l -8.521,0.394 c 0,0 -5.295,12.809 -6.658,5.956 -0.203,-1.023 -0.594,-3.331 -1.824,-5.141 -0.242,-0.356 -3.454,0.044 -3.482,-0.332 -0.367,-4.866 5.386,-18.641 5.307,-21.725 -0.331,-12.935 4.305,-21.9 11.083,-21.9 6.776,0 11.138,8.8 11.801,22.73 z"
         inkscape:connector-curvature="0" /><path
         id="path14"
         d="m -454.20144,89.178703 c 0,0.688 -0.557,1.244 -1.244,1.244 v 0 c -0.687,0 -1.243,-0.557 -1.243,-1.244 v -48.755 c 0,-0.687 0.557,-1.244 1.243,-1.244 v 0 c 0.688,0 1.244,0.557 1.244,1.244 z"
         inkscape:connector-curvature="0" /><path
         id="path16-4"
         d="m -448.56244,36.194703 c 0,1.374 -0.541,3.873 -0.541,3.873 l -12.624,0.194 c 0,0 -0.6,-2.618 -0.6,-4.067 0,-5.495 3.081,-9.95 6.882,-9.95 3.801,0 6.883,4.455 6.883,9.95 z"
         inkscape:connector-curvature="0" /></g></g><g
     inkscape:groupmode="layer"
     id="layer5"
     inkscape:label="Child"><g
       id="g1153"
       transform="matrix(2.0159242,0,0,2.0159242,92.527394,52.11214)"><circle
         id="circle1133"
         r="9"
         cy="43"
         cx="50"
         style="fill:#000000" /><path
         id="path1135"
         d="m 54,54 h -8 c -5.5,0 -10,4.5 -10,10 v 8 c 0,3.68 2.02,6.903 5,8.64 V 92 c 0,4.4 3.6,8 8,8 h 2 c 4.4,0 8,-3.6 8,-8 V 80.64 C 61.98,78.904 64,75.68 64,72 V 64 C 64,58.5 59.5,54 54,54 Z"
         inkscape:connector-curvature="0"
         style="fill:#000000" /></g></g></svg>