<?xml version="1.0" encoding="UTF-8" standalone="no"?>
<svg
   width="39.122"
   height="39.122"
   viewBox="0 0 10.351 10.351"
   version="1.1"
   id="svg472"
   sodipodi:docname="family-labour_adultFemale.svg"
   inkscape:version="1.2.1 (9c6d41e410, 2022-07-14)"
   xmlns:inkscape="http://www.inkscape.org/namespaces/inkscape"
   xmlns:sodipodi="http://sodipodi.sourceforge.net/DTD/sodipodi-0.dtd"
   xmlns="http://www.w3.org/2000/svg"
   xmlns:svg="http://www.w3.org/2000/svg">
  <defs
     id="defs476" />
  <sodipodi:namedview
     id="namedview474"
     pagecolor="#ffffff"
     bordercolor="#000000"
     borderopacity="0.25"
     inkscape:showpageshadow="2"
     inkscape:pageopacity="0.0"
     inkscape:pagecheckerboard="0"
     inkscape:deskcolor="#d1d1d1"
     showgrid="false"
     inkscape:zoom="20.551096"
     inkscape:cx="19.561001"
     inkscape:cy="19.58533"
     inkscape:window-width="1920"
     inkscape:window-height="991"
     inkscape:window-x="1911"
     inkscape:window-y="-9"
     inkscape:window-maximized="1"
     inkscape:current-layer="svg472" />
  <path
     class="cls-2"
     d="M66.885 27.089a.865.865 0 1 1 .865.865.868.868 0 0 1-.865-.865m.868 1.299c-1.63 0-2.81 1.09-2.81 2.593a.431.431 0 1 0 .862 0 1.603 1.603 0 0 1 1.082-1.513l-.862 4.106a.198.198 0 0 0 .212.22h.433v2.38a.434.434 0 0 0 .866 0v-2.38h.43v2.38a.434.434 0 0 0 .866 0v-2.38h.431a.198.198 0 0 0 .215-.22l-.86-4.106a1.632 1.632 0 0 1 1.08 1.513.431.431 0 1 0 .862 0c0-1.503-1.18-2.593-2.807-2.593"
     style="fill:#800080;stroke-width:0.264583"
     transform="translate(-62.576 -26.224)"
     id="path470" />
</svg>
