<?xml version="1.0" encoding="UTF-8" standalone="no"?>
<svg
   xmlns:dc="http://purl.org/dc/elements/1.1/"
   xmlns:cc="http://creativecommons.org/ns#"
   xmlns:rdf="http://www.w3.org/1999/02/22-rdf-syntax-ns#"
   xmlns:svg="http://www.w3.org/2000/svg"
   xmlns="http://www.w3.org/2000/svg"
   xmlns:sodipodi="http://sodipodi.sourceforge.net/DTD/sodipodi-0.dtd"
   xmlns:inkscape="http://www.inkscape.org/namespaces/inkscape"
   version="1.1"
   x="0px"
   y="0px"
   viewBox="0 0 84.7584 66.955635"
   enable-background="new 0 0 100 100"
   xml:space="preserve"
   id="svg10"
   sodipodi:docname="goat.svg"
   width="84.7584"
   height="66.955635"
   inkscape:version="0.92.2 (5c3e80d, 2017-08-06)"><metadata
     id="metadata16"><rdf:RDF><cc:Work
         rdf:about=""><dc:format>image/svg+xml</dc:format><dc:type
           rdf:resource="http://purl.org/dc/dcmitype/StillImage" /><dc:title></dc:title></cc:Work></rdf:RDF></metadata><defs
     id="defs14" /><sodipodi:namedview
     pagecolor="#ffffff"
     bordercolor="#666666"
     borderopacity="1"
     objecttolerance="10"
     gridtolerance="10"
     guidetolerance="10"
     inkscape:pageopacity="0"
     inkscape:pageshadow="2"
     inkscape:window-width="2400"
     inkscape:window-height="1271"
     id="namedview12"
     showgrid="false"
     fit-margin-top="0"
     fit-margin-left="0"
     fit-margin-right="0"
     fit-margin-bottom="0"
     inkscape:zoom="1.888"
     inkscape:cx="-17.76303"
     inkscape:cy="21.06"
     inkscape:window-x="-9"
     inkscape:window-y="2"
     inkscape:window-maximized="1"
     inkscape:current-layer="svg10" /><g
     id="g4"
     transform="translate(-7.381674,-16.604365)"><path
       d="m 92.001,35.63 c -0.446,-1.5 -1.659,-2.764 -2.545,-3.687 -0.171,-0.178 -0.328,-0.342 -0.48,-0.51 -1.779,-1.966 -2.799,-3.301 -3.029,-3.969 -0.42,-1.217 -2.024,-5.206 -5.041,-5.421 -0.032,-0.002 -0.061,0.003 -0.093,0.001 -3.527,-6.601 -9.924,-5.351 -9.989,-5.336 -0.525,0.111 -0.869,0.619 -0.777,1.149 0.092,0.529 0.57,0.893 1.119,0.82 3.396,-0.458 5.637,2.569 6.544,4.108 -0.163,0.091 -0.329,0.175 -0.487,0.279 -1.019,-0.907 -2.863,-2.128 -5.031,-1.624 -0.476,0.111 -0.802,0.548 -0.771,1.035 0.02,0.315 0.225,2.834 1.78,4.229 -1.946,1.893 -5.213,4.906 -7.465,6.122 -2.905,1.567 -4.771,1.523 -5.625,1.357 -0.483,-0.094 -1.044,-0.236 -1.619,-0.381 -1.271,-0.321 -2.592,-0.653 -3.527,-0.617 -1.86,0.07 -2.58,0.305 -3.277,0.531 -0.53,0.173 -1.031,0.336 -2.212,0.441 -0.651,0.058 -1.33,0.124 -2.019,0.191 -2.279,0.223 -4.64,0.445 -6.505,0.43 -0.91,-0.011 -2.01,-0.133 -3.282,-0.273 -2.149,-0.237 -4.851,-0.543 -8.327,-0.523 l -1.374,10e-4 c -4.494,-0.015 -5.996,-0.004 -9.197,1.905 -0.775,0.462 -1.446,0.994 -2.047,1.546 -1.401,0.284 -6.787,1.555 -8.416,4.589 -0.791,1.473 -1.391,2.942 -0.439,3.714 0.196,0.159 0.463,0.287 0.812,0.287 0.454,0 1.048,-0.216 1.81,-0.857 0.345,-0.29 0.728,-0.554 1.115,-0.784 -0.151,0.932 0.154,2.109 1.323,3.805 2.24,3.252 3.636,6.137 3.83,7.916 0.199,1.831 0.167,4.06 -1.59,6.715 -1.479,2.236 -1.503,3.027 -1.415,4.602 0.022,0.418 0.051,0.915 0.041,1.56 -0.056,3.693 -0.313,7.374 -0.563,8.039 -0.584,1.559 0.875,4.899 1.678,5.835 0.14,0.163 0.327,0.276 0.537,0.324 0.497,0.113 1.8,0.381 2.986,0.381 0.573,0 1.119,-0.062 1.534,-0.234 0.445,-0.184 0.696,-0.66 0.597,-1.131 -0.041,-0.193 -0.436,-1.919 -1.677,-3.061 -0.757,-0.696 -1.172,-2.488 -1.135,-3.819 0.036,-1.319 0.381,-4.095 1.035,-6.139 0.13,-0.404 0.278,-0.793 0.426,-1.183 0.777,1.829 1.293,4.361 1.552,5.631 L 20.9,74.27 c 0.338,1.566 0.48,2.523 0.51,3.415 0.034,1.062 0.909,3.547 2.018,4.156 0.345,0.19 1.42,0.37 2.491,0.37 1.044,0 2.084,-0.171 2.435,-0.673 0.466,-0.666 0.167,-1.448 -0.122,-2.204 -0.072,-0.188 -0.148,-0.387 -0.218,-0.592 -0.184,-0.551 -0.589,-1.008 -1.059,-1.538 -0.543,-0.612 -1.158,-1.307 -1.601,-2.302 -0.722,-1.623 -1.035,-6.083 -0.699,-9.945 0.213,-2.455 1.552,-5.361 2.25,-6.735 1.616,0.702 3.92,1.593 5.96,1.966 0.581,0.106 1.148,0.229 1.716,0.351 1.635,0.352 3.301,0.71 5.289,0.71 1.44,0 3.051,-0.188 4.938,-0.706 3.006,-0.823 5.209,-1.076 6.773,-1.174 -0.328,1.743 -0.407,3.924 -0.466,5.624 l -0.028,0.796 c -0.077,1.941 -0.157,3.948 -0.589,5.477 -0.438,1.556 -0.891,3.573 -0.988,4.405 -0.055,0.467 0.417,5.054 2.217,5.275 0.02,0.002 1.115,0.131 2.193,0.131 0.794,0 1.579,-0.07 1.915,-0.312 0.828,-0.596 0.424,-1.612 0.13,-2.354 -0.092,-0.23 -0.188,-0.468 -0.248,-0.683 -0.127,-0.458 -0.428,-0.986 -0.776,-1.599 -0.247,-0.434 -0.659,-1.16 -0.699,-1.409 -0.067,-0.599 0.582,-3.963 1.072,-4.945 0.77,-1.542 1.302,-5.866 1.308,-5.91 0.019,-0.157 0.062,-0.345 0.114,-0.542 0.062,0.393 0.114,0.751 0.152,1.021 0.101,0.704 0.32,1.647 0.553,2.646 0.361,1.552 0.771,3.311 0.771,4.337 0,0.079 0.1,8.129 1.101,10.188 0.047,0.096 0.109,0.184 0.184,0.261 0.07,0.072 1.471,1.475 3.787,1.475 0.48,0 1.001,-0.061 1.557,-0.206 0.497,-0.13 0.814,-0.615 0.735,-1.122 -0.039,-0.247 -0.408,-2.445 -1.443,-3.629 -0.996,-1.138 -1.474,-2.325 -1.503,-3.737 -0.038,-1.82 0.214,-3.698 0.381,-4.94 l 0.026,-0.199 c 0.122,-0.914 -0.064,-1.744 -0.28,-2.705 -0.135,-0.602 -0.287,-1.283 -0.384,-2.088 -0.244,-2.033 0.204,-6.74 0.46,-7.442 0.074,-0.09 0.413,-0.27 0.66,-0.401 0.963,-0.512 2.418,-1.285 3.416,-3.402 0.729,-1.545 0.999,-2.667 1.216,-3.567 0.204,-0.845 0.351,-1.455 0.801,-2.147 0.898,-1.381 4.121,-5.533 5.853,-7.764 l 0.81,-1.045 c 1.19,-1.541 2.217,-2.08 3.087,-2.331 0.075,0.027 0.141,0.057 0.219,0.083 0.511,0.172 0.976,0.332 1.412,0.484 -0.194,1.442 -0.308,4.209 1.344,5.689 1.373,1.229 2.516,1.847 3.412,1.847 0.292,0 0.558,-0.065 0.797,-0.197 0.487,-0.268 1.017,-0.887 0.777,-2.311 -0.263,-1.563 -0.317,-2.449 -0.157,-3.081 0.064,0.023 0.126,0.043 0.19,0.066 0.966,0.347 1.96,0.706 2.878,0.429 1.646,-0.5 3.047,-1.904 2.453,-3.905 z m -81.947,7.369 c 0.005,-0.009 0.01,-0.019 0.015,-0.028 0.662,-1.234 2.522,-2.169 4.271,-2.792 -0.246,0.343 -0.475,0.674 -0.676,0.969 -0.116,0.17 -0.225,0.327 -0.328,0.477 -1.056,0.13 -2.285,0.704 -3.282,1.374 z m 15.401,35.534 c 0.27,0.304 0.604,0.682 0.659,0.844 0.077,0.234 0.164,0.461 0.246,0.675 0.018,0.046 0.036,0.096 0.056,0.146 -0.707,0.041 -1.725,0.015 -1.989,-0.083 C 24.086,79.834 23.429,78.322 23.406,77.622 23.374,76.6 23.218,75.542 22.853,73.85 L 22.724,73.227 C 22.319,71.24 21.59,67.71 20.222,65.673 c 0.499,-0.991 1.066,-1.964 1.732,-2.947 l 0.714,-1.058 c 0.505,-0.749 0.949,-1.402 1.383,-2.022 -0.627,1.532 -1.239,3.401 -1.391,5.141 -0.317,3.644 -0.122,8.713 0.863,10.93 0.569,1.278 1.357,2.167 1.932,2.816 z M 54.633,63.627 c -0.195,1.616 -0.685,4.404 -1.11,5.257 -0.583,1.168 -1.434,5.037 -1.259,6.144 0.097,0.615 0.505,1.333 0.937,2.092 0.234,0.413 0.526,0.926 0.587,1.145 0.07,0.253 0.177,0.533 0.284,0.805 -0.578,-0.002 -1.315,-0.035 -1.811,-0.077 -0.356,-0.656 -0.798,-2.599 -0.767,-3.087 0.076,-0.65 0.489,-2.54 0.928,-4.095 0.495,-1.756 0.579,-3.883 0.661,-5.94 l 0.029,-0.807 c 0.059,-1.706 0.145,-4.175 0.524,-5.788 0.833,-0.047 1.596,-0.119 2.141,-0.177 0.068,0.21 0.135,0.42 0.196,0.636 -0.365,0.787 -1.19,2.66 -1.34,3.892 z M 82.979,41.295 c -0.788,-0.705 -0.84,-2.324 -0.733,-3.515 0.957,0.339 1.689,0.592 2.296,0.759 -0.262,1.029 -0.164,2.243 0.117,3.917 0.003,0.016 0.005,0.031 0.008,0.046 -0.351,-0.166 -0.919,-0.519 -1.688,-1.207 z m 5.98,-3.67 C 88.687,37.709 87.844,37.408 87.342,37.228 86.971,37.094 86.593,36.973 86.219,36.876 86.17,36.861 86.124,36.848 86.074,36.841 85.96,36.815 85.843,36.776 85.73,36.759 85.081,36.663 84.135,36.328 82.57,35.774 81.74,35.48 80.744,35.128 79.528,34.717 79.5,34.707 79.476,34.697 79.448,34.688 79.294,34.564 79.11,34.492 78.908,34.476 77.01,33.645 77.094,32.62 77.105,32.532 c 0.108,-0.528 -0.223,-1.049 -0.75,-1.173 -0.535,-0.127 -1.076,0.207 -1.203,0.745 -0.021,0.093 -0.383,1.771 1.334,3.227 -0.886,0.535 -1.694,1.284 -2.484,2.308 l -0.808,1.042 c -1.872,2.412 -5.005,6.448 -5.948,7.899 -0.638,0.98 -0.848,1.849 -1.069,2.769 -0.206,0.854 -0.439,1.823 -1.08,3.184 -0.715,1.516 -1.688,2.033 -2.546,2.489 -0.637,0.338 -1.296,0.688 -1.57,1.42 -0.441,1.177 -0.859,6.244 -0.598,8.428 0.109,0.906 0.273,1.64 0.419,2.288 0.188,0.838 0.324,1.443 0.249,2.002 l -0.026,0.197 c -0.175,1.303 -0.439,3.273 -0.398,5.248 0.04,1.882 0.693,3.522 1.997,5.013 0.312,0.355 0.57,1.017 0.748,1.637 -1.203,0.026 -2.036,-0.53 -2.329,-0.766 -0.519,-1.427 -0.833,-6.628 -0.833,-9.154 0,-1.256 -0.418,-3.053 -0.822,-4.791 -0.223,-0.955 -0.433,-1.858 -0.521,-2.476 -0.34,-2.376 -0.818,-5.085 -1.794,-7.159 -0.738,-1.567 -0.843,-5.265 -0.821,-6.557 0.009,-0.552 -0.431,-1.007 -0.983,-1.017 -0.529,-0.008 -1.007,0.431 -1.017,0.983 -0.008,0.48 -0.047,4.449 0.777,6.85 -0.625,0.059 -1.401,0.12 -2.188,0.147 -1.628,0.057 -4.352,0.152 -8.562,1.305 -4.021,1.1 -6.575,0.551 -9.279,-0.031 -0.587,-0.126 -1.175,-0.253 -1.777,-0.363 -2.225,-0.407 -4.911,-1.543 -6.381,-2.218 2.146,-3.015 2.666,-6.08 2.688,-6.223 0.088,-0.545 -0.283,-1.058 -0.828,-1.146 -0.545,-0.088 -1.06,0.283 -1.146,0.829 -0.006,0.033 -0.566,3.381 -3.023,6.26 -1.282,1.502 -2.222,2.896 -3.521,4.826 L 20.3,61.607 c -0.829,1.223 -1.518,2.436 -2.11,3.681 -0.02,0.036 -0.034,0.073 -0.05,0.111 -0.48,1.024 -0.902,2.069 -1.256,3.172 -0.673,2.101 -1.085,5.018 -1.131,6.695 -0.047,1.743 0.489,4.159 1.781,5.347 0.295,0.271 0.519,0.619 0.685,0.948 -0.583,-0.025 -1.312,-0.12 -1.972,-0.25 -0.598,-0.935 -1.293,-3.048 -1.142,-3.583 0.575,-1.534 0.685,-8.419 0.689,-8.711 0.011,-0.704 -0.02,-1.245 -0.045,-1.701 -0.07,-1.269 -0.089,-1.609 1.087,-3.387 2.12,-3.205 2.135,-5.978 1.91,-8.035 -0.298,-2.729 -2.433,-6.31 -4.172,-8.834 -1.472,-2.137 -1.127,-2.504 -0.282,-3.404 0.316,-0.336 0.629,-0.795 1.025,-1.376 0.969,-1.422 2.296,-3.368 4.477,-4.668 2.728,-1.626 3.768,-1.633 8.173,-1.623 l 1.381,-10e-4 c 3.347,-0.007 6.004,0.279 8.102,0.511 1.325,0.146 2.469,0.272 3.477,0.285 1.978,0.018 4.391,-0.211 6.725,-0.439 0.683,-0.067 1.355,-0.132 2.002,-0.19 1.406,-0.125 2.069,-0.341 2.653,-0.531 0.618,-0.201 1.152,-0.375 2.732,-0.434 0.67,-0.026 1.882,0.284 2.965,0.557 0.613,0.154 1.21,0.304 1.725,0.404 1.931,0.377 4.399,-0.179 6.957,-1.56 2.585,-1.395 6.145,-4.706 8.336,-6.866 0.941,0.374 1.861,0.6 2.59,0.773 0.394,0.093 0.738,0.172 1.006,0.264 0.106,0.036 0.216,0.054 0.322,0.054 0.416,0 0.805,-0.262 0.946,-0.678 0.179,-0.523 -0.102,-1.091 -0.624,-1.269 -0.316,-0.107 -0.724,-0.206 -1.188,-0.316 -0.448,-0.106 -0.95,-0.229 -1.464,-0.385 0,0 -0.873,-0.084 -1.967,-0.881 -0.554,-0.426 -0.889,-1.227 -1.062,-1.928 0.795,0.114 1.517,0.561 2.045,0.984 0,0 0.563,0.663 1.485,1.358 0.559,0.384 1.289,0.745 1.768,0.963 0.504,0.229 1.096,0.007 1.325,-0.496 0.229,-0.502 0.007,-1.095 -0.495,-1.325 -0.282,-0.129 -0.577,-0.277 -0.841,-0.419 0.602,-0.298 1.206,-0.43 1.896,-0.381 1.526,0.109 2.788,2.615 3.293,4.079 0.424,1.228 1.976,3.044 3.454,4.678 0.146,0.163 0.318,0.341 0.504,0.534 0.743,0.775 1.763,1.837 2.069,2.871 0.256,0.858 -0.595,1.258 -1.125,1.42 z"
       id="path2"
       inkscape:connector-curvature="0" /></g></svg>