<?xml version="1.0" encoding="iso-8859-1"?>
<!-- Generator: Adobe Illustrator 18.0.0, SVG Export Plug-In . SVG Version: 6.00 Build 0)  -->
<!DOCTYPE svg PUBLIC "-//W3C//DTD SVG 1.1//EN" "http://www.w3.org/Graphics/SVG/1.1/DTD/svg11.dtd">
<svg version="1.1" id="Capa_1" xmlns="http://www.w3.org/2000/svg" xmlns:xlink="http://www.w3.org/1999/xlink" x="0px" y="0px"
	 viewBox="0 0 297 297" style="enable-background:new 0 0 297 297;" xml:space="preserve">
<g>
	<path d="M280.452,34.823L142.409,0.312c-3.124-0.78-6.434-0.08-8.973,1.903c-2.538,1.981-4.022,5.023-4.022,8.243v150.966
		L11.69,279.147c-4.084,4.084-4.084,10.706,0,14.79c2.043,2.042,4.718,3.063,7.395,3.063s5.352-1.021,7.395-3.063l102.934-102.934
		v26.518c0,5.775,4.682,10.458,10.458,10.458h6.798v58.563c0,5.775,4.683,10.458,10.458,10.458c5.775,0,10.458-4.682,10.458-10.458
		v-58.563h82.616v58.563c0,5.775,4.683,10.458,10.458,10.458c5.775,0,10.458-4.682,10.458-10.458v-58.563h6.798
		c5.775,0,10.458-4.683,10.458-10.458V44.968C288.373,40.169,285.107,35.986,280.452,34.823z M267.457,53.133v153.93H150.33V23.851
		L267.457,53.133z"/>
	<path d="M193.381,193.468h31.025c16.242,0,29.456-13.213,29.456-29.455v-48.281c0-16.242-13.214-29.455-29.456-29.455h-31.025
		c-16.242,0-29.455,13.213-29.455,29.455v48.281C163.925,180.255,177.138,193.468,193.381,193.468z M184.841,115.731
		c0-4.709,3.831-8.54,8.54-8.54h31.025c4.709,0,8.541,3.831,8.541,8.54v48.281c0,4.709-3.832,8.54-8.541,8.54h-31.025
		c-4.709,0-8.54-3.831-8.54-8.54V115.731z"/>
</g>
<g>
</g>
<g>
</g>
<g>
</g>
<g>
</g>
<g>
</g>
<g>
</g>
<g>
</g>
<g>
</g>
<g>
</g>
<g>
</g>
<g>
</g>
<g>
</g>
<g>
</g>
<g>
</g>
<g>
</g>
</svg>
