<?xml version="1.0" encoding="UTF-8" standalone="no"?>
<svg
   xmlns:dc="http://purl.org/dc/elements/1.1/"
   xmlns:cc="http://creativecommons.org/ns#"
   xmlns:rdf="http://www.w3.org/1999/02/22-rdf-syntax-ns#"
   xmlns:svg="http://www.w3.org/2000/svg"
   xmlns="http://www.w3.org/2000/svg"
   xmlns:xlink="http://www.w3.org/1999/xlink"
   xmlns:sodipodi="http://sodipodi.sourceforge.net/DTD/sodipodi-0.dtd"
   xmlns:inkscape="http://www.inkscape.org/namespaces/inkscape"
   version="1.1"
   x="0px"
   y="0px"
   viewBox="0 0 86.078743 89.999535"
   enable-background="new 0 0 100 100"
   xml:space="preserve"
   id="svg409"
   sodipodi:docname="paw-paw.svg"
   width="86.078743"
   height="89.999535"
   inkscape:version="0.92.3 (2405546, 2018-03-11)"><metadata
     id="metadata415"><rdf:RDF><cc:Work
         rdf:about=""><dc:format>image/svg+xml</dc:format><dc:type
           rdf:resource="http://purl.org/dc/dcmitype/StillImage" /><dc:title></dc:title></cc:Work></rdf:RDF></metadata><defs
     id="defs413" /><sodipodi:namedview
     pagecolor="#ffffff"
     bordercolor="#666666"
     borderopacity="1"
     objecttolerance="10"
     gridtolerance="10"
     guidetolerance="10"
     inkscape:pageopacity="0"
     inkscape:pageshadow="2"
     inkscape:window-width="684"
     inkscape:window-height="480"
     id="namedview411"
     showgrid="false"
     fit-margin-top="0"
     fit-margin-left="0"
     fit-margin-right="0"
     fit-margin-bottom="0"
     inkscape:zoom="1.888"
     inkscape:cx="59.458116"
     inkscape:cy="32.5"
     inkscape:window-x="0"
     inkscape:window-y="0"
     inkscape:window-maximized="0"
     inkscape:current-layer="svg409" /><g
     display="none"
     id="g367"
     style="display:none"
     transform="translate(-6.9613756,-5.0004675)"><g
       display="inline"
       id="g16"
       style="display:inline"><defs
         id="defs3"><path
           id="g"
           d="m 68.562,-70.941 0.831,0.852 C 66.464,-73.019 65,-76.856 65,-80.696 c 0,-7.055 -4.879,-12.957 -11.44,-14.558 2.148,2.596 3.44,5.926 3.44,9.558 0,3.84 1.464,7.678 4.393,10.606 l -0.831,-0.852 c 10.251,10.251 10.251,26.873 0,37.124 -7.635,7.635 -18.799,9.579 -28.236,5.843 10.302,9.397 26.274,9.119 36.236,-0.843 10.251,-10.25 10.251,-26.872 0,-37.123 z"
           inkscape:connector-curvature="0" /></defs><clipPath
         id="f"><use
           xlink:href="#g"
           overflow="visible"
           id="use5"
           style="overflow:visible"
           x="0"
           y="0"
           width="100%"
           height="100%" /></clipPath><g
         clip-path="url(#f)"
         id="g14"><line
           stroke-miterlimit="10"
           x1="-5.8610001"
           y1="-62.555"
           x2="56.664001"
           y2="-0.050000001"
           id="line8"
           style="fill:none;stroke:#000000;stroke-linecap:round;stroke-linejoin:round;stroke-miterlimit:10" /><line
           stroke-miterlimit="10"
           x1="-8.4259996"
           y1="-59.991001"
           x2="54.099998"
           y2="2.5150001"
           id="line10"
           style="fill:none;stroke:#000000;stroke-linecap:round;stroke-linejoin:round;stroke-miterlimit:10" /><line
           stroke-miterlimit="10"
           x1="-10.99"
           y1="-57.426998"
           x2="51.535"
           y2="5.0780001"
           id="line12"
           style="fill:none;stroke:#000000;stroke-linecap:round;stroke-linejoin:round;stroke-miterlimit:10" /></g></g><g
       display="inline"
       id="g25"
       style="display:inline"><defs
         id="defs19"><path
           id="e"
           d="m 34.381,79.255 c 0,0 11.387,-1.315 25.183,-11.381 11.621,-8.479 17.813,-12.9 19.541,-17.09 2.073,-5.03 -4.574,-11.677 -4.574,-11.677 z"
           inkscape:connector-curvature="0" /></defs><clipPath
         id="clipPath23"><use
           xlink:href="#e"
           overflow="visible"
           id="use21"
           style="overflow:visible"
           x="0"
           y="0"
           width="100%"
           height="100%" /></clipPath></g><path
       display="inline"
       stroke-miterlimit="10"
       d="m 84.399,28.143 c -8.564,-8.563 -25.125,-10.73 -40.963,5.105 -6.183,6.185 -9.899,18.759 -12.502,25.521 -0.664,1.724 -8.143,12.357 -8.143,12.357 -3.512,7.678 0.963,11.085 4.25,14.373 3.289,3.288 6.697,7.766 14.375,4.252 0,0 10.633,-7.481 12.356,-8.144 6.766,-2.603 19.337,-6.32 25.521,-12.503 C 95.13,53.268 92.964,36.707 84.399,28.143 Z"
       id="path27"
       inkscape:connector-curvature="0"
       style="display:inline;fill:none;stroke:#000000;stroke-width:3;stroke-linecap:round;stroke-linejoin:round;stroke-miterlimit:10" /><path
       display="inline"
       stroke-miterlimit="10"
       d="M 77.637,23.525 C 79.254,15.401 74.036,12.677 70.024,9.867 65.828,6.931 61.278,2.729 53.625,8.007 c 0,0 -9.959,10.425 -11.841,11.19 -9.965,4.054 -19.761,10.551 -25.282,18.437 -14.143,20.202 -8.629,37.745 2.294,45.392 2.73,1.913 5.926,3.297 9.405,3.98"
       id="path29"
       inkscape:connector-curvature="0"
       style="display:inline;fill:none;stroke:#000000;stroke-width:3;stroke-linecap:round;stroke-linejoin:round;stroke-miterlimit:10" /><path
       display="inline"
       stroke-miterlimit="10"
       d="M 24.501,37.634 C 14.068,49.001 12.805,60.557 14.769,68.957"
       id="path31"
       inkscape:connector-curvature="0"
       style="display:inline;fill:none;stroke:#000000;stroke-width:2;stroke-linecap:round;stroke-linejoin:round;stroke-miterlimit:10;stroke-dasharray:5, 5, 10, 6" /><path
       display="inline"
       stroke-miterlimit="10"
       d="m 87.857,32.636 c 0,0 14.595,22.65 -5.522,43.569 -6.062,6.303 -16.727,7.873 -23.492,10.475 -1.722,0.662 -12.355,6.114 -12.355,6.114 -7.677,3.514 -11.086,1.065 -14.374,-2.223 -0.822,-0.822 -1.719,-1.651 -2.545,-2.553 L 27.042,85.5 c 3.289,3.288 6.697,7.766 14.375,4.252 0,0 10.633,-7.481 12.356,-8.144 C 60.539,79.005 73.11,75.288 79.294,69.105 95.131,53.267 92.965,36.707 84.4,28.142 Z"
       id="path33"
       inkscape:connector-curvature="0"
       style="display:inline;fill:none;stroke:#000000;stroke-width:3;stroke-linecap:round;stroke-linejoin:round;stroke-miterlimit:10" /><g
       display="inline"
       id="g303"
       style="display:inline"><defs
         id="defs36"><path
           id="d"
           d="M 77.228,35.314 C 72.436,30.52 61.792,30.672 49.912,42.55 c -4.636,4.638 -7.548,13.942 -9.895,18.62 -0.597,1.192 -5.791,9.585 -5.791,9.585 -3.03,5.362 2.198,10.589 7.561,7.561 0,0 8.393,-5.192 9.584,-5.789 4.679,-2.348 13.983,-5.26 18.62,-9.896 11.879,-11.88 12.03,-22.524 7.237,-27.317 z"
           inkscape:connector-curvature="0" /></defs><clipPath
         id="c"><use
           xlink:href="#d"
           overflow="visible"
           id="use38"
           style="overflow:visible"
           x="0"
           y="0"
           width="100%"
           height="100%" /></clipPath><g
         clip-path="url(#c)"
         id="g301"><g
           id="g65"><path
             d="m 35.465,78.949 c -0.605,-0.604 -1.586,-0.604 -2.188,0 -0.603,0.605 -0.603,1.584 0,2.187 0.601,0.604 1.584,0.604 2.188,0.001 0.603,-0.604 0.602,-1.583 0,-2.188 z"
             id="path41"
             inkscape:connector-curvature="0" /><circle
             cx="38.811001"
             cy="75.602997"
             r="1.546"
             id="circle43" /><circle
             cx="43.25"
             cy="71.163002"
             r="1.5470001"
             id="circle45" /><circle
             cx="47.689999"
             cy="66.723"
             r="1.546"
             id="circle47" /><path
             d="m 53.223,61.188 c -0.605,-0.6 -1.584,-0.601 -2.187,10e-4 -0.603,0.605 -0.603,1.585 -0.001,2.188 0.604,0.605 1.585,0.605 2.188,0 0.604,-0.604 0.608,-1.587 0,-2.189 z"
             id="path49"
             inkscape:connector-curvature="0" /><circle
             cx="56.569"
             cy="57.842999"
             r="1.546"
             id="circle51" /><circle
             cx="61.008999"
             cy="53.403999"
             r="1.546"
             id="circle53" /><circle
             cx="65.448997"
             cy="48.963001"
             r="1.546"
             id="circle55" /><circle
             cx="69.888"
             cy="44.523998"
             r="1.5470001"
             id="circle57" /><circle
             cx="74.328003"
             cy="40.083"
             r="1.546"
             id="circle59" /><circle
             cx="78.767998"
             cy="35.644001"
             r="1.546"
             id="circle61" /><path
             d="m 84.301,30.109 c -0.603,-0.602 -1.581,-0.602 -2.187,10e-4 -0.604,0.604 -0.604,1.582 -0.001,2.187 0.606,0.605 1.586,0.605 2.189,0 0.603,-0.604 0.604,-1.582 -0.001,-2.188 z"
             id="path63"
             inkscape:connector-curvature="0" /></g><g
           id="g91"><path
             d="m 39.837,83.322 c -0.605,-0.602 -1.583,-0.602 -2.187,0 -0.605,0.603 -0.605,1.583 0,2.188 0.603,0.603 1.582,0.603 2.186,0 0.604,-0.605 0.604,-1.585 0.001,-2.188 z"
             id="path67"
             inkscape:connector-curvature="0" /><circle
             cx="43.183998"
             cy="79.975998"
             r="1.546"
             id="circle69" /><path
             d="m 48.716,74.441 c -0.604,-0.602 -1.583,-0.602 -2.186,0 -0.605,0.604 -0.605,1.585 0,2.188 0.603,0.604 1.583,0.604 2.186,0 0.604,-0.602 0.604,-1.582 0,-2.188 z"
             id="path71"
             inkscape:connector-curvature="0" /><path
             d="m 53.156,70.002 c -0.604,-0.601 -1.582,-0.602 -2.186,0 -0.604,0.604 -0.604,1.585 -10e-4,2.188 0.605,0.604 1.584,0.604 2.187,-0.001 0.606,-0.603 0.606,-1.582 0,-2.187 z"
             id="path73"
             inkscape:connector-curvature="0" /><circle
             cx="56.502998"
             cy="66.655998"
             r="1.5470001"
             id="circle75" /><circle
             cx="60.942001"
             cy="62.216999"
             r="1.546"
             id="circle77" /><circle
             cx="65.382004"
             cy="57.777"
             r="1.546"
             id="circle79" /><circle
             cx="69.822998"
             cy="53.337002"
             r="1.546"
             id="circle81" /><circle
             cx="74.263"
             cy="48.896"
             r="1.5470001"
             id="circle83" /><circle
             cx="78.702003"
             cy="44.457001"
             r="1.546"
             id="circle85" /><circle
             cx="83.140999"
             cy="40.018002"
             r="1.546"
             id="circle87" /><path
             d="m 88.675,34.484 c -0.602,-0.603 -1.583,-0.603 -2.188,0 -0.604,0.603 -0.601,1.584 0.002,2.186 0.603,0.605 1.584,0.605 2.188,0 0.601,-0.602 0.601,-1.583 -0.002,-2.186 z"
             id="path89"
             inkscape:connector-curvature="0" /></g><g
           id="g117"><path
             d="m 44.14,87.624 c -0.605,-0.602 -1.583,-0.602 -2.186,0 -0.605,0.604 -0.605,1.585 0,2.19 0.602,0.602 1.582,0.602 2.186,-10e-4 0.604,-0.604 0.604,-1.584 0,-2.189 z"
             id="path93"
             inkscape:connector-curvature="0" /><path
             d="m 48.58,83.186 c -0.604,-0.603 -1.583,-0.604 -2.186,-0.001 -0.605,0.604 -0.605,1.584 0,2.189 0.602,0.601 1.582,0.601 2.186,-10e-4 0.604,-0.604 0.603,-1.584 0,-2.187 z"
             id="path95"
             inkscape:connector-curvature="0" /><circle
             cx="51.925999"
             cy="79.838997"
             r="1.5470001"
             id="circle97" /><path
             d="m 57.46,74.305 c -0.605,-0.602 -1.583,-0.602 -2.187,0 -0.605,0.604 -0.604,1.585 -0.001,2.189 0.604,0.603 1.583,0.603 2.188,-0.001 0.603,-0.603 0.604,-1.584 0,-2.188 z"
             id="path99"
             inkscape:connector-curvature="0" /><circle
             cx="60.806"
             cy="70.959"
             r="1.5470001"
             id="circle101" /><circle
             cx="65.245003"
             cy="66.519997"
             r="1.546"
             id="circle103" /><circle
             cx="69.684998"
             cy="62.080002"
             r="1.546"
             id="circle105" /><circle
             cx="74.125"
             cy="57.639"
             r="1.546"
             id="circle107" /><circle
             cx="78.565002"
             cy="53.199001"
             r="1.5470001"
             id="circle109" /><circle
             cx="83.004997"
             cy="48.759998"
             r="1.545"
             id="circle111" /><circle
             cx="87.444"
             cy="44.32"
             r="1.546"
             id="circle113" /><circle
             cx="91.884003"
             cy="39.880001"
             r="1.546"
             id="circle115" /></g><g
           id="g143"><circle
             cx="34.256001"
             cy="84.529999"
             r="1.546"
             id="circle119" /><circle
             cx="38.695999"
             cy="80.089996"
             r="1.5470001"
             id="circle121" /><path
             d="m 44.23,74.557 c -0.605,-0.602 -1.585,-0.602 -2.188,0 -0.603,0.602 -0.604,1.584 0,2.188 0.604,0.602 1.583,0.602 2.187,-0.001 0.604,-0.604 0.604,-1.585 10e-4,-2.187 z"
             id="path123"
             inkscape:connector-curvature="0" /><circle
             cx="47.576"
             cy="71.209999"
             r="1.546"
             id="circle125" /><path
             d="m 53.108,65.676 c -0.604,-0.602 -1.583,-0.602 -2.185,0 -0.605,0.604 -0.605,1.585 -0.001,2.188 0.603,0.604 1.583,0.603 2.186,-0.001 0.605,-0.602 0.605,-1.583 0,-2.187 z"
             id="path127"
             inkscape:connector-curvature="0" /><circle
             cx="56.455002"
             cy="62.331001"
             r="1.5470001"
             id="circle129" /><circle
             cx="60.895"
             cy="57.890999"
             r="1.5470001"
             id="circle131" /><circle
             cx="65.334999"
             cy="53.451"
             r="1.546"
             id="circle133" /><path
             d="m 70.87,47.917 c -0.606,-0.602 -1.587,-0.602 -2.188,0 -0.604,0.604 -0.604,1.584 0,2.188 0.602,0.604 1.582,0.604 2.188,-10e-4 0.603,-0.603 0.603,-1.583 0,-2.187 z"
             id="path135"
             inkscape:connector-curvature="0" /><path
             d="m 75.31,43.478 c -0.606,-0.603 -1.586,-0.603 -2.188,10e-4 -0.604,0.601 -0.604,1.582 -0.001,2.188 0.603,0.602 1.583,0.602 2.188,0 0.603,-0.606 0.603,-1.587 0.001,-2.189 z"
             id="path137"
             inkscape:connector-curvature="0" /><path
             d="m 79.748,39.038 c -0.604,-0.604 -1.585,-0.604 -2.186,0.001 -0.605,0.602 -0.606,1.583 0,2.186 0.601,0.603 1.581,0.603 2.187,0 0.604,-0.604 0.604,-1.583 -10e-4,-2.187 z"
             id="path139"
             inkscape:connector-curvature="0" /><path
             d="m 84.188,34.598 c -0.604,-0.603 -1.585,-0.603 -2.186,10e-4 -0.604,0.603 -0.604,1.584 0,2.187 0.601,0.602 1.581,0.602 2.187,0 0.604,-0.603 0.604,-1.585 -10e-4,-2.188 z"
             id="path141"
             inkscape:connector-curvature="0" /></g><g
           id="g169"><circle
             cx="38.558998"
             cy="88.833"
             r="1.5470001"
             id="circle145" /><circle
             cx="42.999001"
             cy="84.392998"
             r="1.546"
             id="circle147" /><path
             d="m 48.532,78.858 c -0.605,-0.602 -1.583,-0.602 -2.188,0 -0.604,0.604 -0.604,1.586 0,2.188 0.604,0.604 1.583,0.603 2.187,-0.001 0.604,-0.602 0.605,-1.581 10e-4,-2.187 z"
             id="path149"
             inkscape:connector-curvature="0" /><circle
             cx="51.879002"
             cy="75.513"
             r="1.546"
             id="circle151" /><circle
             cx="56.319"
             cy="71.072998"
             r="1.546"
             id="circle153" /><path
             d="m 61.852,65.539 c -0.604,-0.602 -1.585,-0.602 -2.188,0 -0.604,0.604 -0.604,1.585 0,2.188 0.603,0.603 1.584,0.603 2.188,-0.001 0.604,-0.602 0.604,-1.582 0,-2.187 z"
             id="path155"
             inkscape:connector-curvature="0" /><path
             d="m 66.292,61.1 c -0.604,-0.603 -1.584,-0.602 -2.187,0 -0.605,0.604 -0.605,1.584 0,2.188 0.602,0.602 1.582,0.602 2.186,-10e-4 0.605,-0.603 0.605,-1.584 0.001,-2.187 z"
             id="path157"
             inkscape:connector-curvature="0" /><circle
             cx="69.639"
             cy="57.754002"
             r="1.5470001"
             id="circle159" /><circle
             cx="74.078003"
             cy="53.313"
             r="1.546"
             id="circle161" /><path
             d="m 79.611,47.779 c -0.604,-0.601 -1.585,-0.602 -2.186,0.002 -0.605,0.602 -0.605,1.584 -0.002,2.187 0.603,0.603 1.583,0.602 2.188,0 0.605,-0.603 0.605,-1.584 0,-2.189 z"
             id="path163"
             inkscape:connector-curvature="0" /><circle
             cx="82.958"
             cy="44.435001"
             r="1.5470001"
             id="circle165" /><circle
             cx="87.398003"
             cy="39.993999"
             r="1.546"
             id="circle167" /></g><g
           id="g195"><path
             d="m 26.798,70.283 c -0.604,-0.603 -1.585,-0.602 -2.187,0.001 -0.604,0.604 -0.604,1.582 0,2.186 0.6,0.604 1.583,0.604 2.187,0.001 0.603,-0.605 0.603,-1.583 0,-2.188 z"
             id="path171"
             inkscape:connector-curvature="0" /><circle
             cx="30.145"
             cy="66.936996"
             r="1.545"
             id="circle173" /><path
             d="m 35.678,61.402 c -0.604,-0.602 -1.585,-0.602 -2.188,0 -0.603,0.605 -0.603,1.585 10e-4,2.188 0.602,0.604 1.584,0.604 2.188,0 0.602,-0.603 0.602,-1.582 -0.001,-2.188 z"
             id="path175"
             inkscape:connector-curvature="0" /><circle
             cx="39.023998"
             cy="58.056999"
             r="1.5470001"
             id="circle177" /><circle
             cx="43.464001"
             cy="53.617001"
             r="1.5470001"
             id="circle179" /><circle
             cx="47.903"
             cy="49.176998"
             r="1.546"
             id="circle181" /><circle
             cx="52.341999"
             cy="44.737"
             r="1.546"
             id="circle183" /><circle
             cx="56.783001"
             cy="40.297001"
             r="1.546"
             id="circle185" /><path
             d="m 62.316,34.764 c -0.604,-0.603 -1.583,-0.603 -2.188,10e-4 -0.604,0.604 -0.604,1.583 -10e-4,2.187 0.605,0.604 1.585,0.604 2.189,-10e-4 0.603,-0.603 0.604,-1.582 0,-2.187 z"
             id="path187"
             inkscape:connector-curvature="0" /><circle
             cx="65.662003"
             cy="31.417"
             r="1.546"
             id="circle189" /><circle
             cx="70.101997"
             cy="26.978001"
             r="1.546"
             id="circle191" /><path
             d="m 75.635,21.443 c -0.603,-0.603 -1.581,-0.603 -2.187,0.002 -0.604,0.604 -0.604,1.581 -10e-4,2.186 0.606,0.604 1.586,0.605 2.188,-0.001 0.604,-0.603 0.604,-1.581 0,-2.187 z"
             id="path193"
             inkscape:connector-curvature="0" /></g><g
           id="g221"><path
             d="m 31.171,74.655 c -0.605,-0.602 -1.583,-0.602 -2.187,0 -0.605,0.604 -0.605,1.586 0,2.189 0.604,0.603 1.583,0.603 2.186,0 0.605,-0.603 0.605,-1.584 10e-4,-2.189 z"
             id="path197"
             inkscape:connector-curvature="0" /><path
             d="m 35.61,70.217 c -0.603,-0.602 -1.582,-0.603 -2.186,-0.001 -0.604,0.604 -0.604,1.584 0,2.188 0.603,0.603 1.583,0.603 2.186,0 0.606,-0.605 0.605,-1.584 0,-2.187 z"
             id="path199"
             inkscape:connector-curvature="0" /><circle
             cx="38.958"
             cy="66.871002"
             r="1.546"
             id="circle201" /><path
             d="m 44.491,61.336 c -0.604,-0.602 -1.583,-0.602 -2.186,0 -0.605,0.604 -0.604,1.586 -10e-4,2.188 0.604,0.604 1.583,0.604 2.187,0 0.604,-0.603 0.605,-1.584 0,-2.188 z"
             id="path203"
             inkscape:connector-curvature="0" /><path
             d="m 48.932,56.896 c -0.605,-0.602 -1.584,-0.603 -2.188,0 -0.605,0.604 -0.603,1.584 0,2.188 0.603,0.603 1.583,0.604 2.187,0 0.604,-0.605 0.604,-1.584 0.001,-2.188 z"
             id="path205"
             inkscape:connector-curvature="0" /><circle
             cx="52.276001"
             cy="53.550999"
             r="1.545"
             id="circle207" /><circle
             cx="56.716"
             cy="49.111"
             r="1.546"
             id="circle209" /><circle
             cx="61.155998"
             cy="44.671001"
             r="1.5470001"
             id="circle211" /><circle
             cx="65.596001"
             cy="40.230999"
             r="1.546"
             id="circle213" /><circle
             cx="70.037003"
             cy="35.791"
             r="1.546"
             id="circle215" /><circle
             cx="74.475998"
             cy="31.351"
             r="1.546"
             id="circle217" /><circle
             cx="78.916"
             cy="26.910999"
             r="1.546"
             id="circle219" /></g><g
           id="g247"><circle
             cx="25.59"
             cy="75.863998"
             r="1.546"
             id="circle223" /><circle
             cx="30.030001"
             cy="71.424004"
             r="1.546"
             id="circle225" /><circle
             cx="34.470001"
             cy="66.985001"
             r="1.546"
             id="circle227" /><circle
             cx="38.910999"
             cy="62.543999"
             r="1.546"
             id="circle229" /><circle
             cx="43.349998"
             cy="58.104"
             r="1.5470001"
             id="circle231" /><circle
             cx="47.789001"
             cy="53.665001"
             r="1.546"
             id="circle233" /><circle
             cx="52.229"
             cy="49.223999"
             r="1.5470001"
             id="circle235" /><circle
             cx="56.669998"
             cy="44.785"
             r="1.5470001"
             id="circle237" /><circle
             cx="61.109001"
             cy="40.345001"
             r="1.546"
             id="circle239" /><circle
             cx="65.549004"
             cy="35.904999"
             r="1.546"
             id="circle241" /><path
             d="m 71.083,30.372 c -0.606,-0.603 -1.587,-0.603 -2.188,0 -0.604,0.602 -0.604,1.584 0,2.188 0.601,0.603 1.581,0.603 2.188,0 0.605,-0.605 0.604,-1.585 0,-2.188 z"
             id="path243"
             inkscape:connector-curvature="0" /><path
             d="m 75.522,25.932 c -0.605,-0.602 -1.586,-0.602 -2.187,0.002 -0.604,0.601 -0.604,1.582 -10e-4,2.185 0.602,0.604 1.582,0.604 2.188,0 0.604,-0.603 0.604,-1.584 0,-2.187 z"
             id="path245"
             inkscape:connector-curvature="0" /></g><g
           id="g273"><circle
             cx="21.287001"
             cy="71.561996"
             r="1.546"
             id="circle249" /><circle
             cx="25.726999"
             cy="67.121002"
             r="1.546"
             id="circle251" /><path
             d="m 31.262,61.587 c -0.605,-0.602 -1.585,-0.602 -2.188,0 -0.603,0.603 -0.604,1.585 0,2.188 0.604,0.603 1.583,0.603 2.188,0 0.602,-0.604 0.603,-1.585 0,-2.188 z"
             id="path253"
             inkscape:connector-curvature="0" /><circle
             cx="34.606998"
             cy="58.241001"
             r="1.5470001"
             id="circle255" /><circle
             cx="39.047001"
             cy="53.800999"
             r="1.546"
             id="circle257" /><circle
             cx="43.486"
             cy="49.362"
             r="1.5470001"
             id="circle259" /><path
             d="m 49.021,43.828 c -0.605,-0.603 -1.584,-0.603 -2.187,10e-4 -0.605,0.602 -0.604,1.583 -0.001,2.188 0.603,0.603 1.583,0.602 2.187,-0.001 0.605,-0.604 0.605,-1.585 10e-4,-2.188 z"
             id="path261"
             inkscape:connector-curvature="0" /><path
             d="m 53.459,39.39 c -0.604,-0.604 -1.584,-0.604 -2.186,0 -0.604,0.602 -0.604,1.583 0,2.186 0.603,0.604 1.581,0.604 2.186,-10e-4 0.606,-0.603 0.605,-1.583 0,-2.185 z"
             id="path263"
             inkscape:connector-curvature="0" /><circle
             cx="56.806999"
             cy="36.042"
             r="1.5470001"
             id="circle265" /><path
             d="m 62.34,30.508 c -0.605,-0.602 -1.584,-0.603 -2.187,0.002 -0.604,0.601 -0.604,1.583 -0.002,2.187 0.604,0.603 1.584,0.603 2.188,0 0.604,-0.604 0.604,-1.586 0.001,-2.189 z"
             id="path267"
             inkscape:connector-curvature="0" /><path
             d="m 66.779,26.069 c -0.604,-0.603 -1.585,-0.603 -2.186,0.001 -0.604,0.602 -0.605,1.583 0,2.185 0.601,0.604 1.581,0.604 2.187,0 0.605,-0.603 0.603,-1.582 -0.001,-2.186 z"
             id="path269"
             inkscape:connector-curvature="0" /><path
             d="m 71.221,21.628 c -0.606,-0.602 -1.587,-0.602 -2.188,0.001 -0.604,0.604 -0.605,1.585 0,2.187 0.601,0.603 1.581,0.603 2.188,0 0.602,-0.602 0.602,-1.583 0,-2.188 z"
             id="path271"
             inkscape:connector-curvature="0" /></g><g
           id="g299"><path
             d="m 30.986,79.072 c -0.604,-0.602 -1.583,-0.602 -2.187,0 -0.603,0.604 -0.603,1.585 0,2.188 0.604,0.604 1.583,0.603 2.187,-0.001 0.604,-0.602 0.605,-1.582 0,-2.187 z"
             id="path275"
             inkscape:connector-curvature="0" /><path
             d="m 35.426,74.633 c -0.604,-0.602 -1.583,-0.602 -2.186,0 -0.604,0.604 -0.604,1.584 -0.001,2.188 0.604,0.603 1.583,0.602 2.187,-0.001 0.606,-0.603 0.606,-1.584 0,-2.187 z"
             id="path277"
             inkscape:connector-curvature="0" /><circle
             cx="38.771999"
             cy="71.287003"
             r="1.546"
             id="circle279" /><circle
             cx="43.213001"
             cy="66.847"
             r="1.5470001"
             id="circle281" /><circle
             cx="47.653"
             cy="62.407001"
             r="1.546"
             id="circle283" /><circle
             cx="52.091999"
             cy="57.969002"
             r="1.546"
             id="circle285" /><circle
             cx="56.533001"
             cy="53.528"
             r="1.5470001"
             id="circle287" /><circle
             cx="60.972"
             cy="49.087002"
             r="1.5470001"
             id="circle289" /><path
             d="m 66.505,43.554 c -0.604,-0.602 -1.585,-0.602 -2.186,10e-4 -0.604,0.602 -0.605,1.583 0,2.188 0.602,0.603 1.581,0.603 2.186,-0.001 0.605,-0.604 0.604,-1.585 0,-2.188 z"
             id="path291"
             inkscape:connector-curvature="0" /><path
             d="m 70.946,39.114 c -0.606,-0.603 -1.586,-0.604 -2.187,0.002 -0.604,0.601 -0.605,1.582 -0.002,2.185 0.603,0.604 1.582,0.604 2.188,0 0.605,-0.603 0.605,-1.583 0.001,-2.187 z"
             id="path293"
             inkscape:connector-curvature="0" /><circle
             cx="74.292"
             cy="35.768002"
             r="1.5470001"
             id="circle295" /><path
             d="m 79.825,30.234 c -0.604,-0.602 -1.585,-0.602 -2.186,10e-4 -0.605,0.603 -0.606,1.583 0,2.187 0.601,0.603 1.581,0.603 2.187,0 0.602,-0.604 0.602,-1.584 -10e-4,-2.188 z"
             id="path297"
             inkscape:connector-curvature="0" /></g></g></g><g
       display="inline"
       id="g365"
       style="display:inline"><defs
         id="defs306"><path
           id="b"
           d="m 87.857,32.636 c 0,0 14.595,22.65 -5.522,43.569 -6.062,6.303 -16.727,7.873 -23.492,10.475 -1.722,0.662 -12.355,6.114 -12.355,6.114 -7.677,3.514 -11.086,1.065 -14.374,-2.223 -0.822,-0.822 -1.719,-1.651 -2.545,-2.553 L 27.042,85.5 c 3.289,3.288 6.697,7.766 14.375,4.252 0,0 10.633,-7.481 12.356,-8.144 C 60.539,79.005 73.11,75.288 79.294,69.105 95.131,53.267 92.965,36.707 84.4,28.142 Z"
           inkscape:connector-curvature="0" /></defs><clipPath
         id="a"><use
           xlink:href="#b"
           overflow="visible"
           id="use308"
           style="overflow:visible"
           x="0"
           y="0"
           width="100%"
           height="100%" /></clipPath><g
         clip-path="url(#a)"
         id="g363"><line
           stroke-miterlimit="10"
           x1="74.589996"
           y1="10.271"
           x2="138.004"
           y2="73.664001"
           id="line311"
           style="fill:none;stroke:#000000;stroke-linecap:round;stroke-linejoin:round;stroke-miterlimit:10" /><line
           stroke-miterlimit="10"
           x1="71.988998"
           y1="12.87"
           x2="135.40199"
           y2="76.264"
           id="line313"
           style="fill:none;stroke:#000000;stroke-linecap:round;stroke-linejoin:round;stroke-miterlimit:10" /><line
           stroke-miterlimit="10"
           x1="69.388"
           y1="15.472"
           x2="132.802"
           y2="78.863998"
           id="line315"
           style="fill:none;stroke:#000000;stroke-linecap:round;stroke-linejoin:round;stroke-miterlimit:10" /><line
           stroke-miterlimit="10"
           x1="66.787003"
           y1="18.070999"
           x2="130.2"
           y2="81.464996"
           id="line317"
           style="fill:none;stroke:#000000;stroke-linecap:round;stroke-linejoin:round;stroke-miterlimit:10" /><line
           stroke-miterlimit="10"
           x1="64.185997"
           y1="20.672001"
           x2="127.6"
           y2="84.065002"
           id="line319"
           style="fill:none;stroke:#000000;stroke-linecap:round;stroke-linejoin:round;stroke-miterlimit:10" /><line
           stroke-miterlimit="10"
           x1="61.584999"
           y1="23.271999"
           x2="124.998"
           y2="86.665001"
           id="line321"
           style="fill:none;stroke:#000000;stroke-linecap:round;stroke-linejoin:round;stroke-miterlimit:10" /><line
           stroke-miterlimit="10"
           x1="58.983002"
           y1="25.872999"
           x2="122.397"
           y2="89.265999"
           id="line323"
           style="fill:none;stroke:#000000;stroke-linecap:round;stroke-linejoin:round;stroke-miterlimit:10" /><line
           stroke-miterlimit="10"
           x1="56.382999"
           y1="28.473"
           x2="119.796"
           y2="91.864998"
           id="line325"
           style="fill:none;stroke:#000000;stroke-linecap:round;stroke-linejoin:round;stroke-miterlimit:10" /><line
           stroke-miterlimit="10"
           x1="53.780998"
           y1="31.072001"
           x2="117.194"
           y2="94.466003"
           id="line327"
           style="fill:none;stroke:#000000;stroke-linecap:round;stroke-linejoin:round;stroke-miterlimit:10" /><line
           stroke-miterlimit="10"
           x1="51.18"
           y1="33.673"
           x2="114.594"
           y2="97.066002"
           id="line329"
           style="fill:none;stroke:#000000;stroke-linecap:round;stroke-linejoin:round;stroke-miterlimit:10" /><line
           stroke-miterlimit="10"
           x1="48.578999"
           y1="36.272999"
           x2="111.992"
           y2="99.667"
           id="line331"
           style="fill:none;stroke:#000000;stroke-linecap:round;stroke-linejoin:round;stroke-miterlimit:10" /><line
           stroke-miterlimit="10"
           x1="45.978001"
           y1="38.874001"
           x2="109.391"
           y2="102.268"
           id="line333"
           style="fill:none;stroke:#000000;stroke-linecap:round;stroke-linejoin:round;stroke-miterlimit:10" /><line
           stroke-miterlimit="10"
           x1="43.375999"
           y1="41.473999"
           x2="106.79"
           y2="104.867"
           id="line335"
           style="fill:none;stroke:#000000;stroke-linecap:round;stroke-linejoin:round;stroke-miterlimit:10" /><line
           stroke-miterlimit="10"
           x1="40.776001"
           y1="44.074001"
           x2="104.188"
           y2="107.467"
           id="line337"
           style="fill:none;stroke:#000000;stroke-linecap:round;stroke-linejoin:round;stroke-miterlimit:10" /><line
           stroke-miterlimit="10"
           x1="38.174999"
           y1="46.674999"
           x2="101.588"
           y2="110.068"
           id="line339"
           style="fill:none;stroke:#000000;stroke-linecap:round;stroke-linejoin:round;stroke-miterlimit:10" /><line
           stroke-miterlimit="10"
           x1="35.574001"
           y1="49.275002"
           x2="98.986"
           y2="112.668"
           id="line341"
           style="fill:none;stroke:#000000;stroke-linecap:round;stroke-linejoin:round;stroke-miterlimit:10" /><line
           stroke-miterlimit="10"
           x1="32.973"
           y1="51.875"
           x2="96.386002"
           y2="115.269"
           id="line343"
           style="fill:none;stroke:#000000;stroke-linecap:round;stroke-linejoin:round;stroke-miterlimit:10" /><line
           stroke-miterlimit="10"
           x1="30.371"
           y1="54.476002"
           x2="93.783997"
           y2="117.869"
           id="line345"
           style="fill:none;stroke:#000000;stroke-linecap:round;stroke-linejoin:round;stroke-miterlimit:10" /><line
           stroke-miterlimit="10"
           x1="27.771"
           y1="57.076"
           x2="91.182999"
           y2="120.469"
           id="line347"
           style="fill:none;stroke:#000000;stroke-linecap:round;stroke-linejoin:round;stroke-miterlimit:10" /><line
           stroke-miterlimit="10"
           x1="25.169001"
           y1="59.675999"
           x2="88.582001"
           y2="123.069"
           id="line349"
           style="fill:none;stroke:#000000;stroke-linecap:round;stroke-linejoin:round;stroke-miterlimit:10" /><line
           stroke-miterlimit="10"
           x1="22.568001"
           y1="62.277"
           x2="85.980003"
           y2="125.67"
           id="line351"
           style="fill:none;stroke:#000000;stroke-linecap:round;stroke-linejoin:round;stroke-miterlimit:10" /><line
           stroke-miterlimit="10"
           x1="19.966999"
           y1="64.876999"
           x2="83.378998"
           y2="128.27"
           id="line353"
           style="fill:none;stroke:#000000;stroke-linecap:round;stroke-linejoin:round;stroke-miterlimit:10" /><line
           stroke-miterlimit="10"
           x1="17.365999"
           y1="67.477997"
           x2="80.778"
           y2="130.87"
           id="line355"
           style="fill:none;stroke:#000000;stroke-linecap:round;stroke-linejoin:round;stroke-miterlimit:10" /><line
           stroke-miterlimit="10"
           x1="14.765"
           y1="70.078003"
           x2="78.177002"
           y2="133.47099"
           id="line357"
           style="fill:none;stroke:#000000;stroke-linecap:round;stroke-linejoin:round;stroke-miterlimit:10" /><line
           stroke-miterlimit="10"
           x1="12.164"
           y1="72.678001"
           x2="75.575996"
           y2="136.07001"
           id="line359"
           style="fill:none;stroke:#000000;stroke-linecap:round;stroke-linejoin:round;stroke-miterlimit:10" /><line
           stroke-miterlimit="10"
           x1="9.5629997"
           y1="75.278"
           x2="72.974998"
           y2="138.67101"
           id="line361"
           style="fill:none;stroke:#000000;stroke-linecap:round;stroke-linejoin:round;stroke-miterlimit:10" /></g></g></g><g
     id="g371"
     transform="translate(-6.9613756,-5.0004675)"><path
       d="m 15.285,61.91 c 0,1.15 0.07,2.312 0.209,3.448 0.065,0.536 -0.316,1.024 -0.853,1.089 -0.04,0.006 -0.08,0.008 -0.12,0.008 -0.487,0 -0.909,-0.364 -0.97,-0.859 -0.148,-1.216 -0.224,-2.455 -0.224,-3.686 0,-0.448 0.01,-0.901 0.03,-1.358 0.024,-0.541 0.509,-0.96 1.02,-0.935 0.54,0.024 0.958,0.48 0.935,1.021 -0.019,0.428 -0.027,0.852 -0.027,1.272 z m 3.987,-17.013 c -0.47,-0.269 -1.066,-0.105 -1.334,0.363 -1.718,3.007 -2.974,6.137 -3.733,9.304 -0.125,0.525 0.198,1.054 0.724,1.18 0.077,0.018 0.153,0.026 0.229,0.026 0.441,0 0.842,-0.302 0.95,-0.75 0.716,-2.986 1.903,-5.943 3.529,-8.789 0.267,-0.468 0.104,-1.067 -0.365,-1.334 z m 2.193,-2.259 c 0.299,0 0.594,-0.137 0.786,-0.395 0.924,-1.243 1.951,-2.483 3.054,-3.686 0.365,-0.398 0.338,-1.017 -0.06,-1.383 -0.398,-0.365 -1.018,-0.337 -1.382,0.061 -1.149,1.251 -2.22,2.544 -3.183,3.841 -0.322,0.434 -0.231,1.047 0.202,1.369 0.176,0.13 0.381,0.193 0.583,0.193 z M 82.214,76.643 C 77.586,81.456 70.631,83.534 64.494,85.367 62.39,85.995 60.4,86.589 58.703,87.242 57.382,87.75 49.634,91.684 46.76,93.159 44.035,94.406 41.72,95 39.625,95 35.614,95 33.066,92.788 30.993,90.715 30.742,90.464 30.484,90.213 30.222,89.959 29.658,89.408 29.075,88.84 28.512,88.23 28.457,88.178 28.406,88.126 28.351,88.075 28.19,87.924 28.033,87.773 27.878,87.622 24.333,86.92 21.065,85.534 18.162,83.5 6.812,75.554 1.156,57.63 15.557,37.056 20.676,29.745 29.927,22.983 40.936,18.504 42.014,17.993 47.416,12.712 52.011,7.903 52.08,7.831 52.157,7.765 52.24,7.709 59.98,2.37 65.183,6.11 68.982,8.841 c 0.328,0.235 0.651,0.469 0.974,0.693 0.322,0.226 0.65,0.449 0.982,0.675 3.689,2.517 8.227,5.629 7.243,13.026 2.22,1.111 4.257,2.564 6.032,4.341 0.322,0.321 0.634,0.656 0.938,1 0.075,0.085 0.147,0.173 0.223,0.26 0.238,0.276 0.472,0.56 0.698,0.849 0.058,0.075 0.115,0.149 0.174,0.225 0.657,0.861 1.26,1.774 1.801,2.734 2.077,3.549 12.902,24.516 -5.833,43.999 z M 79.57,65.038 c 0.164,-0.188 0.321,-0.377 0.479,-0.566 0.202,-0.239 0.402,-0.48 0.597,-0.72 0.173,-0.215 0.341,-0.429 0.507,-0.644 0.159,-0.206 0.316,-0.411 0.47,-0.617 0.182,-0.243 0.361,-0.485 0.534,-0.729 0.113,-0.159 0.224,-0.318 0.334,-0.478 0.198,-0.286 0.396,-0.573 0.582,-0.858 0.041,-0.063 0.08,-0.126 0.12,-0.189 6.666,-10.34 5.819,-20.051 2.144,-26.411 l -3.249,-4.223 c -3.902,-3.874 -9.225,-6.011 -15,-6.011 -5.425,0 -13.81,1.918 -22.944,11.051 -4.784,4.786 -8.077,13.927 -10.48,20.601 -0.509,1.411 -0.979,2.716 -1.417,3.854 -0.666,1.73 -6.65,10.294 -8.054,12.291 -2.641,5.892 0.157,8.62 3.119,11.508 0.27,0.263 0.536,0.522 0.795,0.781 v 0 l 2.447,2.44 c 0.204,0.187 0.409,0.367 0.617,0.542 0.083,0.069 0.169,0.136 0.254,0.203 0.162,0.13 0.326,0.252 0.493,0.37 0.094,0.067 0.188,0.136 0.286,0.2 0.239,0.158 0.482,0.306 0.734,0.438 0.094,0.049 0.196,0.089 0.293,0.135 0.178,0.084 0.358,0.164 0.544,0.233 0.123,0.046 0.25,0.085 0.378,0.124 0.188,0.058 0.379,0.105 0.575,0.146 0.117,0.024 0.232,0.052 0.353,0.069 0.322,0.049 0.652,0.082 1,0.082 1.289,0 2.741,-0.357 4.319,-1.064 1.998,-1.405 10.561,-7.392 12.292,-8.057 1.133,-0.436 2.432,-0.904 3.838,-1.41 6.679,-2.405 15.826,-5.7 20.615,-10.487 0.435,-0.435 0.852,-0.869 1.258,-1.305 0.143,-0.152 0.276,-0.305 0.414,-0.457 0.256,-0.28 0.51,-0.561 0.753,-0.842 z m -21.834,15.776 2.718,2.717 c 0.911,-0.291 1.862,-0.577 2.836,-0.869 l -2.836,-2.835 c -0.936,0.345 -1.846,0.674 -2.718,0.987 z m 6.618,1.531 c 0.934,-0.28 1.882,-0.567 2.834,-0.872 l -3.052,-3.051 c -0.901,0.358 -1.797,0.702 -2.675,1.031 z m 3.878,-1.212 c 0.915,-0.305 1.828,-0.628 2.729,-0.976 L 67.723,76.92 c -0.864,0.384 -1.733,0.752 -2.601,1.105 z m 3.717,-1.371 c 0.869,-0.358 1.721,-0.742 2.544,-1.161 l -3.331,-3.33 c -0.815,0.422 -1.646,0.828 -2.488,1.217 z m 3.447,-1.643 c 0.792,-0.439 1.554,-0.913 2.275,-1.43 l -3.257,-3.256 c -0.756,0.473 -1.54,0.926 -2.345,1.361 z m -30.669,10.039 1.817,1.814 c 0.637,-0.325 1.489,-0.759 2.455,-1.248 l -2.075,-2.075 c -0.717,0.489 -1.453,0.995 -2.197,1.509 z m 5.19,0.102 c 0.802,-0.405 1.64,-0.827 2.467,-1.239 l -2.417,-2.415 c -0.687,0.454 -1.433,0.953 -2.219,1.485 z m 3.39,-1.699 c 0.911,-0.451 1.763,-0.868 2.489,-1.216 l -2.717,-2.716 c -0.539,0.313 -1.324,0.808 -2.278,1.429 z M 80.708,68.17 83.339,70.8 c 0.547,-0.728 1.057,-1.454 1.525,-2.181 L 82.44,66.196 c -0.091,0.108 -0.181,0.217 -0.273,0.325 -0.129,0.153 -0.265,0.305 -0.397,0.458 -0.279,0.321 -0.565,0.643 -0.858,0.964 -0.071,0.076 -0.134,0.151 -0.204,0.227 z m 4.688,-0.402 c 0.482,-0.799 0.919,-1.596 1.315,-2.389 l -2.054,-2.055 c -0.169,0.238 -0.343,0.476 -0.519,0.712 -0.143,0.192 -0.29,0.385 -0.437,0.577 -0.173,0.227 -0.342,0.452 -0.521,0.678 -0.038,0.048 -0.079,0.096 -0.118,0.144 z m 1.769,-3.319 C 87.57,63.567 87.93,62.69 88.24,61.82 l -1.585,-1.584 c -0.441,0.756 -0.92,1.513 -1.433,2.271 z m 1.419,-3.668 c 0.313,-0.987 0.571,-1.965 0.776,-2.928 l -0.968,-0.967 c -0.373,0.818 -0.781,1.642 -1.235,2.468 z m 0.997,-4.09 c 0.247,-1.425 0.388,-2.819 0.437,-4.17 -0.326,1.125 -0.721,2.261 -1.199,3.406 z M 19.845,81.096 c 1.134,0.795 2.337,1.472 3.592,2.041 -2.569,-2.843 -4.764,-6.739 -1.858,-13.089 0.037,-0.082 0.082,-0.161 0.134,-0.234 3.545,-5.04 7.43,-10.821 7.796,-11.771 0.431,-1.119 0.894,-2.404 1.394,-3.794 2.498,-6.935 5.919,-16.432 11.167,-21.681 9.845,-9.844 19.04,-11.909 25.019,-11.909 2.883,0 5.669,0.471 8.265,1.374 0.327,-5.021 -2.782,-7.16 -6.068,-9.399 C 68.943,12.4 68.605,12.169 68.274,11.938 67.943,11.707 67.609,11.466 67.27,11.223 63.53,8.535 59.996,5.996 54.029,10.04 50.974,13.234 43.946,20.447 42.044,21.222 31.544,25.493 22.766,31.877 17.962,38.738 4.715,57.66 9.652,73.959 19.845,81.096 Z m 22.035,10.686 -1.15,-1.15 c -0.125,0.049 -0.251,0.1 -0.375,0.145 -0.141,0.051 -0.277,0.091 -0.417,0.137 -0.312,0.104 -0.622,0.2 -0.926,0.28 -0.157,0.041 -0.313,0.075 -0.468,0.11 -0.238,0.053 -0.476,0.101 -0.709,0.139 l 0.49,0.49 c 1.058,0.188 2.23,0.15 3.555,-0.151 z m 3.6,-1.264 c 0.032,-0.018 0.097,-0.05 0.147,-0.075 l -1.718,-1.719 c -0.649,0.451 -1.297,0.904 -1.934,1.353 -0.074,0.052 -0.152,0.097 -0.234,0.135 -0.012,0.006 -0.023,0.01 -0.036,0.015 l 1.266,1.266 c 0.786,-0.247 1.62,-0.568 2.509,-0.975 z M 59.413,83.875 56.72,81.181 c -0.972,0.352 -1.88,0.684 -2.708,0.999 l 2.724,2.722 c 0.395,-0.182 0.713,-0.321 0.915,-0.4 0.563,-0.218 1.157,-0.424 1.762,-0.627 z m 20.686,-9.267 c 0.097,-0.101 0.183,-0.201 0.277,-0.302 l -2.979,-2.977 c -0.676,0.54 -1.393,1.059 -2.146,1.559 l 3.208,3.208 c 0.581,-0.463 1.13,-0.958 1.64,-1.488 z M 82.74,71.584 80.035,68.88 c -0.268,0.279 -0.536,0.559 -0.816,0.838 -0.337,0.338 -0.692,0.666 -1.063,0.988 l 2.883,2.881 C 81.64,72.92 82.211,72.252 82.74,71.584 Z M 59.37,43.712 c -0.592,0.588 -0.591,1.547 0,2.138 0.59,0.59 1.549,0.59 2.141,0 C 62.1,45.259 62.1,44.3 61.51,43.71 60.919,43.121 59.961,43.121 59.37,43.712 Z m -0.209,17.161 c -0.593,0.59 -0.591,1.549 0,2.139 0.59,0.591 1.548,0.591 2.141,10e-4 0.588,-0.59 0.588,-1.55 -0.002,-2.14 -0.59,-0.59 -1.549,-0.59 -2.139,0 z m 0.065,-8.62 c -0.59,0.591 -0.589,1.547 0,2.139 0.591,0.59 1.55,0.59 2.141,0 0.59,-0.592 0.59,-1.549 -10e-4,-2.139 -0.591,-0.592 -1.55,-0.592 -2.14,0 z M 74.358,37.141 c 0.591,-0.59 0.591,-1.548 0,-2.14 -0.592,-0.589 -1.551,-0.589 -2.14,0.001 -0.59,0.59 -0.59,1.55 0,2.139 0.59,0.589 1.549,0.589 2.14,0 z m -8.55,0.134 c 0.59,-0.591 0.59,-1.55 0,-2.14 -0.593,-0.59 -1.552,-0.59 -2.138,0 -0.593,0.59 -0.595,1.549 -0.002,2.14 0.59,0.589 1.547,0.588 2.14,0 z m 8.476,8.478 c 0.591,-0.592 0.591,-1.551 0,-2.141 -0.592,-0.59 -1.552,-0.59 -2.14,10e-4 -0.591,0.588 -0.591,1.548 0,2.14 0.588,0.589 1.548,0.589 2.14,0 z m -4.343,4.341 c 0.591,-0.59 0.591,-1.549 0,-2.139 -0.592,-0.589 -1.551,-0.589 -2.14,0 -0.59,0.59 -0.592,1.549 0,2.14 0.59,0.59 1.549,0.59 2.14,-10e-4 z M 55.093,39.433 c -0.591,0.59 -0.591,1.547 0,2.139 0.59,0.591 1.55,0.592 2.14,0 0.589,-0.591 0.591,-1.549 -10e-4,-2.139 -0.589,-0.591 -1.549,-0.591 -2.139,0 z m 2.028,6.528 c 0.591,-0.591 0.59,-1.549 0,-2.14 -0.591,-0.59 -1.551,-0.59 -2.14,0.001 -0.59,0.589 -0.591,1.549 0,2.139 0.589,0.59 1.548,0.59 2.14,0 z m 8.551,-0.135 c 0.592,-0.59 0.592,-1.549 0,-2.14 -0.591,-0.588 -1.55,-0.588 -2.138,10e-4 -0.591,0.589 -0.593,1.549 0,2.14 0.588,0.59 1.547,0.59 2.138,-10e-4 z M 54.883,56.595 c -0.591,0.592 -0.589,1.549 0,2.139 0.59,0.592 1.549,0.592 2.141,0 0.59,-0.591 0.59,-1.547 -10e-4,-2.139 -0.591,-0.589 -1.55,-0.589 -2.14,0 z m 0.144,-8.541 c -0.591,0.589 -0.59,1.549 0,2.139 0.59,0.591 1.55,0.591 2.14,0 0.591,-0.59 0.591,-1.55 -0.001,-2.14 -0.589,-0.589 -1.548,-0.589 -2.139,0.001 z m 6.437,-6.437 c 0.59,-0.59 0.59,-1.549 0,-2.139 -0.592,-0.589 -1.551,-0.589 -2.14,10e-4 -0.591,0.589 -0.592,1.548 0,2.138 0.59,0.592 1.548,0.591 2.14,0 z m -0.209,17.162 c 0.59,-0.589 0.59,-1.548 0,-2.139 -0.593,-0.589 -1.551,-0.588 -2.14,10e-4 -0.591,0.59 -0.591,1.549 -0.001,2.139 0.59,0.591 1.548,0.59 2.141,-10e-4 z m 0.074,-8.61 c 0.593,-0.59 0.592,-1.548 0,-2.14 -0.59,-0.589 -1.55,-0.589 -2.14,10e-4 -0.591,0.59 -0.591,1.551 0,2.14 0.59,0.59 1.549,0.59 2.14,-0.001 z M 58.98,65.192 c -0.591,0.591 -0.591,1.55 0,2.141 0.589,0.589 1.549,0.589 2.14,-0.001 0.591,-0.59 0.591,-1.549 0,-2.14 -0.591,-0.588 -1.551,-0.588 -2.14,0 z M 72.011,52.165 c -0.591,0.589 -0.591,1.549 0,2.138 0.589,0.591 1.548,0.59 2.14,0 0.591,-0.589 0.591,-1.548 0,-2.138 -0.592,-0.591 -1.551,-0.591 -2.14,0 z M 68.056,35.023 c -0.59,0.592 -0.588,1.55 0.002,2.139 0.591,0.593 1.548,0.592 2.138,10e-4 0.591,-0.589 0.593,-1.547 0,-2.14 -0.591,-0.588 -1.548,-0.588 -2.14,0 z m 1.961,6.46 c 0.59,-0.59 0.59,-1.549 0,-2.139 -0.593,-0.59 -1.552,-0.591 -2.139,10e-4 -0.59,0.588 -0.592,1.548 -0.002,2.138 0.589,0.59 1.548,0.59 2.141,0 z m 7.539,-4.043 c -0.385,-0.651 -0.836,-1.242 -1.348,-1.763 -0.087,0.473 0.023,0.976 0.39,1.342 0.266,0.267 0.61,0.396 0.958,0.421 z M 72.19,47.844 c -0.593,0.591 -0.589,1.551 0,2.139 0.59,0.592 1.549,0.592 2.142,0 0.588,-0.589 0.588,-1.549 -0.002,-2.14 -0.591,-0.588 -1.55,-0.589 -2.14,10e-4 z m -4.277,-4.279 c -0.591,0.592 -0.591,1.548 -0.002,2.141 0.592,0.59 1.551,0.59 2.142,-0.001 0.59,-0.592 0.59,-1.548 0,-2.14 -0.591,-0.588 -1.55,-0.588 -2.14,0 z m -2.315,10.872 c 0.592,-0.589 0.59,-1.548 0,-2.138 -0.591,-0.591 -1.55,-0.591 -2.139,0 -0.592,0.59 -0.592,1.549 0,2.139 0.589,0.589 1.548,0.589 2.139,-0.001 z m 6.657,-15.213 c -0.59,0.59 -0.59,1.547 0,2.138 0.591,0.592 1.55,0.592 2.14,-0.001 0.591,-0.59 0.591,-1.547 -10e-4,-2.139 -0.589,-0.59 -1.548,-0.59 -2.139,0.002 z m -8.75,17.306 c -0.592,0.59 -0.59,1.548 0,2.139 0.591,0.59 1.548,0.59 2.14,0 0.589,-0.591 0.589,-1.549 -0.002,-2.139 -0.59,-0.59 -1.547,-0.59 -2.138,0 z m 0.065,-8.621 c -0.593,0.59 -0.591,1.548 0,2.139 0.59,0.591 1.547,0.592 2.14,0 0.589,-0.591 0.589,-1.549 -0.002,-2.139 -0.591,-0.591 -1.548,-0.591 -2.138,0 z M 63.325,60.85 c -0.592,0.591 -0.592,1.55 0,2.141 0.589,0.589 1.548,0.589 2.139,-10e-4 0.59,-0.59 0.59,-1.549 0,-2.14 -0.591,-0.59 -1.55,-0.589 -2.139,0 z m 4.343,-4.342 c -0.592,0.589 -0.592,1.549 0,2.139 0.589,0.59 1.546,0.59 2.14,-10e-4 0.591,-0.59 0.591,-1.548 0,-2.139 -0.592,-0.59 -1.551,-0.59 -2.14,0.001 z m 0.18,-4.32 c -0.592,0.59 -0.59,1.549 0,2.139 0.591,0.59 1.55,0.591 2.14,0 0.591,-0.59 0.591,-1.549 0,-2.139 -0.591,-0.591 -1.55,-0.591 -2.14,0 z M 63.714,39.367 c -0.591,0.591 -0.589,1.55 0,2.139 0.59,0.591 1.549,0.591 2.14,0 0.59,-0.59 0.59,-1.549 0,-2.139 -0.591,-0.59 -1.548,-0.59 -2.14,0 z M 52.643,58.856 c 0.592,-0.592 0.592,-1.551 0,-2.14 -0.591,-0.59 -1.55,-0.59 -2.139,-10e-4 -0.591,0.59 -0.591,1.549 0,2.142 0.59,0.589 1.548,0.588 2.139,-10e-4 z m 15.071,1.884 c -0.592,0.589 -0.59,1.549 0,2.138 0.136,0.136 0.294,0.231 0.46,0.306 0.319,-0.272 0.622,-0.551 0.908,-0.836 0.376,-0.377 0.739,-0.751 1.092,-1.125 -0.073,-0.175 -0.179,-0.342 -0.322,-0.483 -0.59,-0.591 -1.547,-0.591 -2.138,0 z m 4.343,-4.344 c -0.593,0.589 -0.591,1.547 0,2.138 0.088,0.088 0.187,0.159 0.288,0.222 0.66,-0.804 1.265,-1.598 1.819,-2.383 -0.593,-0.56 -1.526,-0.557 -2.107,0.023 z m 3.947,-2.918 c 0.335,-0.595 0.643,-1.182 0.92,-1.761 -0.191,0.073 -0.371,0.183 -0.524,0.336 -0.388,0.385 -0.516,0.929 -0.396,1.425 z M 46.199,65.281 c -0.591,0.59 -0.59,1.549 0,2.139 0.588,0.59 1.548,0.591 2.138,0 0.59,-0.591 0.59,-1.549 10e-4,-2.14 -0.592,-0.591 -1.551,-0.591 -2.139,0.001 z M 76.355,47.822 c -0.593,0.588 -0.593,1.549 -0.002,2.139 0.318,0.318 0.743,0.45 1.16,0.424 0.368,-0.896 0.665,-1.771 0.896,-2.619 -0.596,-0.517 -1.491,-0.509 -2.054,0.056 z m 2.318,-4.321 c -0.591,-0.59 -1.548,-0.589 -2.14,0 -0.591,0.591 -0.589,1.549 0.002,2.14 0.59,0.591 1.547,0.59 2.138,0 0.106,-0.106 0.172,-0.235 0.239,-0.361 0.052,-0.404 0.089,-0.802 0.109,-1.19 -0.072,-0.215 -0.178,-0.419 -0.348,-0.589 z m -15.302,21.58 c -0.399,0.399 -0.522,0.966 -0.382,1.474 0.876,-0.462 1.726,-0.946 2.532,-1.455 -0.006,-0.006 -0.007,-0.013 -0.012,-0.019 -0.588,-0.59 -1.547,-0.589 -2.138,0 z m -12.895,4.477 c -0.591,0.591 -0.591,1.551 -10e-4,2.141 0.134,0.134 0.291,0.228 0.453,0.301 0.611,-0.305 1.301,-0.62 2.047,-0.945 0.152,-0.514 0.046,-1.089 -0.361,-1.496 -0.59,-0.589 -1.547,-0.59 -2.138,-10e-4 z M 46.134,73.9 c -0.329,0.328 -0.457,0.767 -0.42,1.195 0.769,-0.469 1.551,-0.945 2.275,-1.383 -0.584,-0.361 -1.349,-0.317 -1.855,0.188 z m 8.505,-4.364 c -0.273,0.273 -0.406,0.627 -0.427,0.985 0.788,-0.334 1.617,-0.683 2.474,-1.046 -0.597,-0.509 -1.486,-0.5 -2.047,0.061 z m -12.897,4.477 c -0.589,0.589 -0.59,1.55 0,2.141 0.591,0.589 1.549,0.589 2.14,-10e-4 0.591,-0.591 0.591,-1.55 0.001,-2.14 -0.592,-0.588 -1.55,-0.588 -2.141,0 z M 78.627,41.408 c 0.102,-0.102 0.163,-0.226 0.23,-0.347 -0.121,-0.702 -0.3,-1.366 -0.528,-1.989 -0.584,-0.353 -1.341,-0.305 -1.84,0.198 -0.593,0.589 -0.595,1.549 0,2.138 0.586,0.59 1.545,0.59 2.138,0 z M 37.401,78.355 c -0.027,0.026 -0.036,0.063 -0.06,0.09 0.705,0.14 1.459,0.151 2.246,-0.019 -0.02,-0.021 -0.026,-0.051 -0.047,-0.071 -0.593,-0.589 -1.548,-0.588 -2.139,0 z M 48.3,63.198 c 0.591,-0.59 0.591,-1.549 0,-2.14 -0.591,-0.588 -1.549,-0.588 -2.139,0 -0.591,0.591 -0.591,1.55 0,2.14 0.59,0.591 1.549,0.589 2.139,0 z m -10.643,2.227 c -0.592,0.59 -0.591,1.548 0,2.14 0.589,0.59 1.547,0.59 2.138,0 0.591,-0.591 0.591,-1.549 0,-2.14 -0.591,-0.591 -1.549,-0.59 -2.138,0 z M 42,61.081 c -0.591,0.59 -0.59,1.551 -10e-4,2.141 0.591,0.59 1.549,0.59 2.14,0 0.59,-0.591 0.591,-1.55 0,-2.141 -0.592,-0.589 -1.549,-0.589 -2.139,0 z m -0.146,8.542 c -0.59,0.592 -0.59,1.549 10e-4,2.141 0.589,0.59 1.549,0.591 2.14,0 0.589,-0.592 0.589,-1.549 -10e-4,-2.141 -0.59,-0.589 -1.55,-0.589 -2.14,0 z m 2.104,-2.082 c 0.59,-0.589 0.59,-1.549 -10e-4,-2.14 -0.591,-0.59 -1.549,-0.59 -2.14,0.001 -0.59,0.59 -0.59,1.55 0,2.139 0.592,0.591 1.549,0.591 2.141,0 z m 0.133,-8.552 c 0.592,-0.591 0.592,-1.55 0,-2.14 -0.592,-0.589 -1.549,-0.589 -2.139,0 -0.59,0.59 -0.59,1.549 -10e-4,2.141 0.592,0.59 1.549,0.589 2.14,-0.001 z m -4.477,12.895 c 0.59,-0.591 0.591,-1.549 0,-2.139 -0.592,-0.59 -1.548,-0.59 -2.14,0 -0.59,0.589 -0.59,1.549 0,2.139 0.592,0.591 1.548,0.59 2.14,0 z m -2.101,2.083 c -0.589,0.591 -0.59,1.55 0,2.139 0.588,0.591 1.548,0.591 2.14,0.001 0.589,-0.59 0.588,-1.549 -10e-4,-2.141 -0.592,-0.589 -1.551,-0.589 -2.139,0.001 z M 52.777,50.304 c 0.592,-0.59 0.592,-1.55 0,-2.141 -0.591,-0.589 -1.55,-0.588 -2.14,0.001 -0.59,0.59 -0.59,1.55 -10e-4,2.14 0.592,0.591 1.551,0.591 2.141,0 z m -2.092,2.092 c -0.591,0.59 -0.589,1.549 0,2.138 0.591,0.591 1.549,0.591 2.139,10e-4 0.592,-0.59 0.592,-1.549 -10e-4,-2.139 -0.59,-0.59 -1.548,-0.589 -2.138,0 z m -0.145,8.541 c -0.589,0.593 -0.589,1.551 -10e-4,2.14 0.591,0.593 1.551,0.593 2.141,0 0.591,-0.589 0.595,-1.551 0,-2.141 -0.593,-0.587 -1.55,-0.588 -2.14,10e-4 z m 2.027,6.529 c 0.592,-0.59 0.592,-1.549 0,-2.14 -0.591,-0.589 -1.548,-0.589 -2.137,0 -0.592,0.591 -0.592,1.55 -10e-4,2.141 0.591,0.59 1.549,0.589 2.138,-0.001 z M 46.406,48.119 c -0.591,0.59 -0.589,1.549 10e-4,2.138 0.588,0.592 1.548,0.592 2.14,0 0.59,-0.59 0.59,-1.548 -10e-4,-2.139 -0.591,-0.591 -1.55,-0.591 -2.14,10e-4 z m -0.32,21.551 c -0.591,0.59 -0.591,1.549 0,2.139 0.591,0.591 1.549,0.591 2.14,0 0.59,-0.59 0.59,-1.549 0,-2.139 -0.592,-0.59 -1.55,-0.59 -2.14,0 z M 70.151,32.933 c 0.025,-0.024 0.033,-0.058 0.056,-0.084 -0.735,-0.094 -1.508,-0.127 -2.315,-0.095 0.043,0.059 0.066,0.126 0.118,0.179 0.589,0.589 1.548,0.589 2.141,0 z M 56.986,54.512 c 0.591,-0.59 0.591,-1.549 0.001,-2.138 -0.593,-0.591 -1.55,-0.591 -2.14,10e-4 -0.591,0.588 -0.591,1.547 -0.001,2.138 0.592,0.59 1.549,0.589 2.14,-10e-4 z m -2.167,10.703 c -0.593,0.591 -0.592,1.55 0,2.14 0.589,0.591 1.548,0.592 2.139,0 0.591,-0.59 0.591,-1.549 0,-2.141 -0.591,-0.588 -1.549,-0.589 -2.139,0.001 z m 2.092,-2.091 c 0.592,-0.59 0.592,-1.55 0,-2.14 -0.592,-0.59 -1.551,-0.59 -2.14,-0.001 -0.59,0.591 -0.59,1.551 0,2.141 0.589,0.59 1.548,0.589 2.14,0 z M 50.749,43.775 c -0.589,0.592 -0.588,1.548 0,2.139 0.591,0.591 1.55,0.591 2.14,0 0.591,-0.591 0.591,-1.548 -0.001,-2.14 -0.589,-0.588 -1.548,-0.588 -2.139,10e-4 z m -2.315,10.871 c 0.591,-0.59 0.591,-1.549 0,-2.138 -0.591,-0.592 -1.551,-0.592 -2.14,-0.002 -0.59,0.591 -0.59,1.55 0,2.14 0.589,0.59 1.549,0.59 2.14,0 z m -2.092,2.092 c -0.592,0.591 -0.59,1.55 0,2.141 0.589,0.59 1.548,0.592 2.139,0 0.591,-0.592 0.591,-1.551 10e-4,-2.141 -0.592,-0.589 -1.55,-0.59 -2.14,0 z m -2.723,-4.625 c -0.417,0.92 -0.814,1.834 -1.195,2.727 0.573,0.31 1.295,0.245 1.78,-0.239 0.589,-0.592 0.593,-1.553 0,-2.14 -0.17,-0.168 -0.372,-0.275 -0.585,-0.348 z M 39.75,63.332 c 0.59,-0.59 0.59,-1.549 -10e-4,-2.14 -0.029,-0.029 -0.068,-0.039 -0.1,-0.065 -0.262,0.479 -0.82,1.423 -1.498,2.546 0.538,0.2 1.166,0.091 1.599,-0.341 z m -6.488,10.67 c 0.109,1.002 0.501,1.901 1.09,2.639 0.335,-0.034 0.663,-0.157 0.92,-0.413 0.592,-0.591 0.592,-1.55 0,-2.141 -0.553,-0.55 -1.417,-0.565 -2.01,-0.085 z M 65.796,32.984 c -0.444,0.076 -0.895,0.167 -1.354,0.281 0.459,0.13 0.965,0.037 1.354,-0.281 z M 34.662,69.38 c -0.344,0.559 -0.564,0.915 -0.564,0.915 -0.321,0.567 -0.531,1.132 -0.672,1.688 0.593,0.493 1.469,0.481 2.025,-0.075 0.592,-0.592 0.591,-1.549 0,-2.14 C 35.229,69.546 34.95,69.436 34.662,69.38 Z M 57.255,37.408 c 0.342,-0.341 0.463,-0.804 0.408,-1.25 -0.734,0.438 -1.481,0.925 -2.236,1.458 0.579,0.342 1.329,0.29 1.828,-0.208 z m -8.841,6.445 c -0.607,0.736 -1.181,1.55 -1.727,2.414 0.586,0.381 1.366,0.342 1.88,-0.172 0.592,-0.59 0.592,-1.55 10e-4,-2.14 -0.045,-0.046 -0.105,-0.063 -0.154,-0.102 z M 60.53,34.652 c -0.392,0.178 -0.788,0.37 -1.188,0.576 -0.475,0.594 -0.457,1.45 0.091,2 0.593,0.59 1.551,0.59 2.142,-0.001 0.589,-0.59 0.59,-1.547 -0.001,-2.139 -0.288,-0.288 -0.665,-0.43 -1.044,-0.436 z m -7.668,4.929 c -0.735,0.61 -1.478,1.264 -2.226,1.967 0.048,0.067 0.075,0.144 0.136,0.204 0.59,0.591 1.547,0.591 2.138,-0.001 0.594,-0.59 0.593,-1.548 0,-2.138 -0.014,-0.013 -0.033,-0.017 -0.048,-0.032 z"
       id="path369"
       inkscape:connector-curvature="0" /></g><g
     display="none"
     id="g403"
     style="display:none"
     transform="translate(-6.9613756,-5.0004675)"><g
       display="inline"
       id="g401"
       style="display:inline"><path
         d="m 72.907,35.95 c -2.921,-3.342 -7.95,-5.454 -14.992,-6.314 1.509,-1.375 2.145,-3.134 2.145,-4.761 0,-2.941 -2.097,-4.796 -4.088,-5.894 2.112,-1.255 4.397,-3.449 4.397,-7.064 C 60.369,9.435 56.904,5 50,5 42.276,5 36.451,11.448 36.451,20 c 0,4.457 1.577,7.764 4.553,9.785 -6.475,0.938 -11.144,2.998 -13.911,6.165 -2.358,2.697 -3.274,6.128 -2.725,10.199 1.563,11.572 5.914,29.604 6.185,30.721 C 32.025,85.645 37.902,95 50,95 62.098,95 67.975,85.645 69.447,76.87 69.718,75.754 74.069,57.722 75.632,46.149 76.182,42.078 75.266,38.647 72.907,35.95 Z"
         id="path373"
         inkscape:connector-curvature="0"
         style="fill:#000000" /><path
         d="m 70.722,37.86 c 0.67,0.767 1.181,1.606 1.539,2.522 l -5.315,-5.314 c 1.56,0.784 2.831,1.712 3.776,2.792 z"
         id="path375"
         inkscape:connector-curvature="0"
         style="fill:#000000" /><path
         d="M 39.354,20 C 39.354,13.104 43.93,7.903 50,7.903 c 5.139,0 7.466,3.079 7.466,4.014 0,4.278 -5.43,5.647 -5.658,5.703 -0.656,0.156 -1.119,0.745 -1.116,1.421 0.004,0.676 0.474,1.259 1.133,1.407 0.054,0.012 5.332,1.289 5.332,4.427 0,0.424 -0.082,0.853 -0.251,1.269 L 52.79,22.029 c 0.008,0.279 0.012,0.576 0.012,0.911 0,0.145 -0.007,0.294 -0.021,0.446 l 3.622,3.621 c -0.461,0.584 -1.148,1.101 -2.108,1.487 l -2.543,-2.542 c -0.189,0.245 -0.401,0.485 -0.654,0.713 l 2.166,2.166 c -0.896,0.228 -1.964,0.359 -3.232,0.361 l -1.206,-1.205 c -0.325,0.121 -0.672,0.23 -1.046,0.322 l 0.842,0.842 C 42.391,28.775 39.354,25.774 39.354,20 Z"
         id="path377"
         inkscape:connector-curvature="0"
         style="fill:#000000" /><g
         id="g381"><path
           d="M 41.354,22 C 41.354,15.104 45.93,9.903 52,9.903 c 2.311,0 4.049,0.624 5.267,1.395 C 56.613,10.045 54.289,7.903 50,7.903 c -6.069,0 -10.646,5.2 -10.646,12.097 0,3.496 1.12,5.968 3.381,7.464 C 41.815,26.051 41.354,24.236 41.354,22 Z"
           id="path379"
           inkscape:connector-curvature="0"
           style="fill:#000000" /></g><path
         d="M 33.407,76.342 C 33.402,76.306 33.394,76.27 33.386,76.236 33.341,76.049 28.83,57.496 27.245,45.761 c -0.438,-3.248 0.227,-5.832 2.033,-7.9 3.296,-3.771 10.461,-5.764 20.722,-5.764 6.338,0 11.49,0.763 15.282,2.232 0.368,0.454 0.709,0.926 0.992,1.438 l 6.479,6.477 c 0.17,1.077 0.173,2.245 0.001,3.518 -0.003,0.022 -0.006,0.046 -0.009,0.067 l -5.198,-5.194 c 0.014,0.436 0.008,0.883 -0.022,1.345 l 5.05,5.049 c -0.146,1 -0.31,2.04 -0.488,3.105 l -4.972,-4.971 c -0.06,0.39 -0.122,0.784 -0.186,1.184 l 4.959,4.957 c -0.174,1.001 -0.357,2.021 -0.549,3.047 l -4.93,-4.929 c -0.068,0.385 -0.137,0.771 -0.208,1.16 l 4.921,4.919 c -0.19,1.003 -0.389,2.008 -0.589,3.006 l -4.9,-4.898 c -0.073,0.382 -0.148,0.763 -0.223,1.145 l 4.894,4.892 c -0.205,1.008 -0.412,2.003 -0.617,2.977 l -4.878,-4.876 c -0.079,0.381 -0.156,0.758 -0.234,1.134 l 4.872,4.871 c -0.218,1.02 -0.433,2.008 -0.641,2.954 l -4.86,-4.858 c -0.082,0.38 -0.163,0.755 -0.244,1.124 l 4.857,4.854 c -0.234,1.05 -0.457,2.034 -0.662,2.934 l -4.846,-4.844 c -0.086,0.382 -0.17,0.756 -0.251,1.117 l 4.842,4.84 c -0.274,1.186 -0.507,2.177 -0.681,2.913 L 62.13,69.957 c -0.093,0.397 -0.179,0.767 -0.259,1.109 l 4.826,4.824 c -0.05,0.206 -0.08,0.333 -0.084,0.348 -0.009,0.034 -0.017,0.07 -0.021,0.106 -0.104,0.622 -0.277,1.484 -0.553,2.482 L 61.19,73.979 c -0.068,0.38 -0.138,0.761 -0.224,1.145 l 4.758,4.756 c -0.264,0.816 -0.594,1.692 -1.005,2.589 L 60.167,77.92 c -0.115,0.333 -0.244,0.662 -0.374,0.993 l 4.476,4.475 c -0.39,0.752 -0.837,1.506 -1.355,2.24 l -4.258,-4.257 c -0.158,0.294 -0.322,0.585 -0.496,0.872 l 4.166,4.164 c -0.518,0.65 -1.095,1.274 -1.737,1.858 l -3.906,-3.906 c -0.202,0.254 -0.399,0.512 -0.615,0.755 l 3.78,3.779 c -0.66,0.523 -1.383,1.001 -2.173,1.421 l -3.447,-3.446 c -0.25,0.207 -0.498,0.414 -0.762,0.607 l 3.286,3.285 c -0.83,0.366 -1.729,0.669 -2.702,0.892 l -2.82,-2.817 c -0.305,0.152 -0.614,0.298 -0.934,0.434 l 2.605,2.604 c -0.909,0.142 -1.871,0.226 -2.902,0.226 -0.164,0 -0.319,-0.011 -0.48,-0.014 l -1.934,-1.933 c -0.373,0.087 -0.763,0.151 -1.152,0.216 l 1.628,1.629 C 36.728,90.857 33.989,79.846 33.407,76.342 Z"
         id="path383"
         inkscape:connector-curvature="0"
         style="fill:#000000" /><path
         d="M 38.407,80.342 C 38.402,80.306 38.394,80.27 38.386,80.236 38.341,80.049 33.83,61.496 32.245,49.761 c -0.438,-3.248 0.227,-5.832 2.033,-7.9 3.296,-3.771 10.461,-5.764 20.722,-5.764 5.22,0 9.621,0.525 13.135,1.529 l -1.86,-1.859 c -0.283,-0.512 -0.624,-0.983 -0.992,-1.438 -3.792,-1.47 -8.944,-2.232 -15.282,-2.232 -10.261,0 -17.426,1.993 -20.722,5.764 -1.807,2.068 -2.472,4.652 -2.033,7.9 1.585,11.734 6.096,30.288 6.141,30.475 0.009,0.034 0.017,0.07 0.021,0.106 0.479,2.88 2.417,10.825 9.383,14.199 -2.995,-3.678 -4.049,-8.182 -4.384,-10.199 z"
         id="path385"
         inkscape:connector-curvature="0"
         style="fill:#000000" /><g
         id="g393"><path
           d="m 34.4,54.935 0.224,1.2 c 0.098,0.525 -0.25,1.03 -0.775,1.128 -0.06,0.012 -0.119,0.017 -0.178,0.017 -0.457,0 -0.863,-0.325 -0.95,-0.791 l -0.212,-1.142 c -0.005,-0.02 -0.01,-0.04 -0.014,-0.06 l -0.348,-1.909 c -0.094,-0.526 0.257,-1.029 0.782,-1.124 0.526,-0.095 1.029,0.256 1.123,0.781 l 0.336,1.843 c 0.006,0.018 0.009,0.037 0.012,0.057 z"
           id="path387"
           inkscape:connector-curvature="0"
           style="fill:#000000" /><path
           d="m 42.924,37.575 c 0.115,0.521 -0.214,1.039 -0.735,1.155 -1.425,0.315 -3.072,0.716 -4.49,1.292 -0.119,0.048 -0.242,0.07 -0.364,0.07 -0.382,0 -0.743,-0.228 -0.896,-0.604 -0.201,-0.495 0.038,-1.06 0.533,-1.261 1.551,-0.63 3.296,-1.055 4.798,-1.389 0.524,-0.113 1.038,0.217 1.154,0.737 z"
           id="path389"
           inkscape:connector-curvature="0"
           style="fill:#000000" /><path
           d="m 32.318,49.398 c -0.481,0 -0.898,-0.357 -0.96,-0.848 -0.09,-0.709 -0.135,-1.39 -0.135,-2.022 -10e-4,-1.172 0.156,-2.244 0.468,-3.188 0.005,-0.017 0.012,-0.033 0.017,-0.049 0.237,-0.701 0.566,-1.35 0.977,-1.928 0.309,-0.435 0.913,-0.54 1.35,-0.229 0.436,0.31 0.538,0.913 0.229,1.35 -0.313,0.439 -0.553,0.919 -0.733,1.465 -0.005,0.013 -0.009,0.027 -0.014,0.041 -0.237,0.736 -0.357,1.59 -0.356,2.536 0,0.553 0.04,1.151 0.12,1.782 0.066,0.53 -0.31,1.014 -0.84,1.081 -0.042,0.007 -0.083,0.009 -0.123,0.009 z"
           id="path391"
           inkscape:connector-curvature="0"
           style="fill:#000000" /></g><g
         id="g399"><path
           d="m 49.062,10.405 c -0.039,-0.533 0.362,-0.996 0.895,-1.035 0.13,-0.01 0.29,0.006 0.378,-0.016 0.53,0 0.963,0.428 0.968,0.959 0.004,0.534 -0.425,0.972 -0.959,0.977 -0.081,0.001 -0.163,0.004 -0.246,0.01 -0.023,0.002 -0.048,0.003 -0.071,0.003 -0.505,0 -0.928,-0.389 -0.965,-0.898 z"
           id="path395"
           inkscape:connector-curvature="0"
           style="fill:#000000" /><path
           d="m 42.078,16.063 c 0.398,-1.537 1.468,-3.108 3.013,-4.424 0.406,-0.348 1.018,-0.299 1.363,0.109 0.347,0.406 0.299,1.018 -0.108,1.363 -1.226,1.045 -2.099,2.298 -2.395,3.438 -0.112,0.436 -0.505,0.725 -0.936,0.725 -0.08,0 -0.162,-0.01 -0.243,-0.031 -0.517,-0.134 -0.828,-0.661 -0.694,-1.18 z"
           id="path397"
           inkscape:connector-curvature="0"
           style="fill:#000000" /></g></g></g></svg>