<?xml version="1.0" encoding="UTF-8" standalone="no"?>
<svg
   xmlns:dc="http://purl.org/dc/elements/1.1/"
   xmlns:cc="http://creativecommons.org/ns#"
   xmlns:rdf="http://www.w3.org/1999/02/22-rdf-syntax-ns#"
   xmlns:svg="http://www.w3.org/2000/svg"
   xmlns="http://www.w3.org/2000/svg"
   xmlns:sodipodi="http://sodipodi.sourceforge.net/DTD/sodipodi-0.dtd"
   xmlns:inkscape="http://www.inkscape.org/namespaces/inkscape"
   version="1.1"
   x="0px"
   y="0px"
   viewBox="0 0 74.929886 87.565178"
   enable-background="new 0 0 100 100"
   xml:space="preserve"
   id="svg30"
   sodipodi:docname="pigeon-peas.svg"
   width="74.929886"
   height="87.565178"
   inkscape:version="0.92.2 (5c3e80d, 2017-08-06)"><metadata
     id="metadata36"><rdf:RDF><cc:Work
         rdf:about=""><dc:format>image/svg+xml</dc:format><dc:type
           rdf:resource="http://purl.org/dc/dcmitype/StillImage" /><dc:title></dc:title></cc:Work></rdf:RDF></metadata><defs
     id="defs34" /><sodipodi:namedview
     pagecolor="#ffffff"
     bordercolor="#666666"
     borderopacity="1"
     objecttolerance="10"
     gridtolerance="10"
     guidetolerance="10"
     inkscape:pageopacity="0"
     inkscape:pageshadow="2"
     inkscape:window-width="695"
     inkscape:window-height="480"
     id="namedview32"
     showgrid="false"
     fit-margin-top="0"
     fit-margin-left="0"
     fit-margin-right="0"
     fit-margin-bottom="0"
     inkscape:zoom="1.888"
     inkscape:cx="37.525795"
     inkscape:cy="31.370983"
     inkscape:window-x="0"
     inkscape:window-y="0"
     inkscape:window-maximized="0"
     inkscape:current-layer="svg30" /><path
     d="m 42.995795,5.6531974 c 1.569,1.112 5.21,3.271 7.04,1.687 0.618,-0.535 1.153,-2.159 -0.085,-2.38 -1.589,-0.282 -2.381,-0.55 -3.77,-1.401 0.968,-0.349 2.719,-1.227 3.599,-0.361 0.581,0.572 0.917,1.629 1.636,2.034 1.977,1.11 3.19,-1.556 2.074,-2.993 -1.873,-2.41100004 -3.703,-2.62000004 -6.5,-1.81900004 -1.627,0.468 -7.29,2.90000004 -3.994,5.23300004 z"
     id="path2"
     inkscape:connector-curvature="0" /><path
     d="m 16.343795,62.508197 c 3.125,-1.936 6.458,-3.528 9.491,-5.613 3.333,-2.291 6.237,-5.29 9.059,-8.168 5.816,-5.932 10.682,-12.36 14.427,-19.788 1.725,-3.421 3.232,-6.867 4.487,-10.485 1.298,-3.745 3.286,-6.264 5.891,-9.1669996 1.029,-1.147 1.989,-2.471 2.207,-4.038 0.225,-1.631 -2.409,-1.731 -3.378,-1.403 -1.59,0.54 -2.927,1.87 -4.446,2.611 -1.837,0.897 -3.781,1.548 -5.716,2.194 -15.229,5.0779996 -28.272,13.8759996 -37.158,27.3559996 -3.9819997,6.042 -8.2059997,12.559 -10.0569997,19.628 -1.12900005,4.313 -1.95700005,10.488 0.154,14.72 1,2.006 2.781,1.945 4.426,0.661 3.6,-2.808 6.6979997,-6.083 10.6129997,-8.508 z m -11.6749997,-4.952 c 0.086,-0.559 0.149,-0.97 0.197,-1.277 -0.067,0.432 -0.147,0.954 -0.197,1.276 0.893,-5.785 3.814,-10.572 6.9359997,-15.4 3.309,-5.117 6.531,-10.34 10.765,-14.762 4.21,-4.396 9.297,-7.67 14.69,-10.424 5.735,-2.93 11.722,-4.772 17.603,-7.3039996 -4.205,4.5399996 -5.276,10.6489996 -7.873,16.0859996 -2.922,6.117 -6.576,11.893 -11.358,16.731 -4.661,4.716 -8.99,9.851 -14.51,13.613 -2.981,2.032 -6.22,3.681 -9.254,5.637 -2.7239997,1.756 -4.7299997,4.282 -7.3399997,6.165 -1.239,-3.088 -0.146,-7.182 0.341,-10.341 z"
     id="path4"
     inkscape:connector-curvature="0" /><path
     d="m 21.980795,40.691197 c 0.334,-0.296 0.182,-0.162 0.016,-0.014 4.357,-3.872 -2.726,-0.958 -1.006,0.991 0.237,0.266 0.938,-0.932 0.99,-0.977 z"
     id="path6"
     inkscape:connector-curvature="0" /><path
     d="m 61.412795,12.179197 c 0.104,0.008 0.546,-0.083 0.683,-0.337 -0.938,2.737 1.355,4.81 1.809,7.269 -2.682,0.357 -2.368,-3.104 -3.14,-4.624 -0.672,-1.324 -2.607,-4.276 -3.369,-1.25 -0.253,1.004 0.159,1.609 0.676,2.429 0.787,1.249 0.631,2.486 1.112,3.802 0.633,1.732 2.346,2.715 4.071,3.094 6.441,1.417 1.262,-7.79 1.374,-10.099 0.102,-2.102 -0.898,-4.6939996 -3.642,-3.7979996 -1.458,0.476 -0.98,3.4009996 0.426,3.5139996 z"
     id="path8"
     inkscape:connector-curvature="0" /><path
     d="m 29.549795,32.597197 c 0.451,-0.496 0.763,-0.503 1.294,-0.754 0.287,-0.136 -0.982,-0.158 -0.764,-0.188 -0.851,0.118 -1.833,0.679 -2.129,1.536 -0.151,0.438 -0.005,0.875 0.325,1.176 0.121,0.109 1.192,-1.68 1.274,-1.77 z"
     id="path10"
     inkscape:connector-curvature="0" /><path
     d="m 15.176795,56.928197 c 1.471,-1.67 3.251,-1.851 5.009,-3.117 2.527,-1.729 3.879,-4.611 6.502,-6.336 1.344,-0.978 2.632,-1.956 3.624,-3.312 0.709,-1.185 1.22,-2.393 2.24,-3.353 2.132,-2.006 3.918,-3.586 5.255,-6.248 0.402,-0.8 1.059,-1.448 1.663,-2.095 1.396,-1.417 2.021,-3.017 2.439,-4.917 0.317,-1.442 7.693,-11.222 6.895,-11.894 -0.3,-0.251 -3.072,2.635 -4.095,2.819 0.511,-0.466 5.165,-4.344 4.755,-4.892 -0.569,-0.752 -5.741,3.606 -6.418,4.159 -2.005,1.601 -3.988,3.009 -6.278,4.18 -5.443,2.782 -9.005,6.657 -13.441,10.764 -4.67,4.323 -8.001,9.447 -11.677,14.613 -1.7189997,2.417 -2.9009997,5.055 -3.8419997,7.857 -0.287,0.855 -2.749,7.671 -1.981,8.014 0.32,0.147 1.081,-1.66 1.541,-2.835 -0.087,0.199 -0.056,0.093 0.365,-0.953 0.257,0.639 0.765,1.187 1.465,1.271 -0.119,0.107 -1.581,1.273 -1.396,1.561 0.56,0.936 6.8569997,-4.699 7.3749997,-5.286 z m 25.447,-34.972 c 1.371,-0.859 2.532,-2.079 3.73,-3.156 0.295,1.232 -0.41,2.463 -1.098,3.594 -1.31,2.153 -1.743,1.14 -3.2,-0.045 0.189,-0.132 0.379,-0.262 0.568,-0.393 z m -7.296,4.471 c -0.034,0.031 0.181,-0.121 0.197,-0.139 -0.036,0.024 -0.072,0.044 -0.107,0.068 0.09,-0.06 0.114,-0.075 0.107,-0.068 1.146,-0.761 2.32,-1.432 3.499,-2.14 1.162,-0.647 0.792,-0.291 1.645,0.333 1.913,1.4 1.416,2.349 0.68,4.439 -0.453,0.851 -1.47,2.61 -2.396,2.223 -0.692,-0.289 -1.333,-0.484 -1.965,-0.912 -0.726,-0.491 -1.575,-1.215 -1.895,-2.062 -0.558,-0.937 -0.681,-1.032 0.235,-1.742 z m -5.385,5.178 c -0.064,0.065 -0.057,0.063 0.186,-0.164 1.048,-1.066 1.363,-1.581 2.81,-0.997 0.024,-0.103 1.671,1.068 1.771,1.146 0.851,0.663 1.297,1.897 1.502,2.913 0.279,1.376 -0.099,1.698 -1.114,2.706 -0.754,0.749 -4.77,0.028 -4.596,-0.257 -0.891,-0.604 -1.627,-1.649 -1.964,-2.66 -0.466,-1.407 0.36,-1.766 1.405,-2.687 z m -8.011,7.819 c 0.141,-0.191 0.134,-0.176 0.085,-0.106 0.504,-0.671 1.086,-1.359 1.682,-1.943 0.942,-0.922 0.756,-0.647 1.896,-0.341 0.909,0.121 1.784,0.602 2.551,1.086 1.342,1.058 3.363,3.614 1.926,5.144 -1.788,2.339 -3.571,3.313 -6.094,1.779 -0.497,-0.302 -1.161,-0.98 -1.546,-1.418 -0.936,-1.752 -1.696,-2.402 -0.542,-4.127 -0.055,0.073 -0.076,0.098 0.042,-0.074 z m -5.751,7.879 c 0.639,-0.829 1.279,-1.658 1.918,-2.487 0.4,0.277 0.965,0.246 1.414,0.354 0.635,0.153 1.23,0.451 1.794,0.775 1.409,0.809 2.86,2.328 1.882,3.743 -0.827,1.197 -1.669,2.268 -2.935,3.017 -0.519,0.307 -1.052,0.556 -1.596,0.811 -0.186,0.085 -1.265,-0.214 -1.113,-0.478 -1.117,-0.77 -1.795,-3.258 -3.047,-3.511 0.546,-0.752 1.124,-1.481 1.683,-2.224 z m -3.651,12.177 c -0.011,-0.836 -1.4109997,-1.826 -2.1659997,-1.664 0.56,-1.404 1.078,-2.859 1.7749997,-4.203 0.024,-0.049 0.034,-0.07 0.035,-0.072 0.187,-0.384 0.373,-0.768 0.556,-1.153 0.116,0.683 3.196,2.465 3.787,2.796 -1.295,1.506 -2.44,3.007 -3.987,4.296 z"
     id="path12"
     inkscape:connector-curvature="0" /><path
     d="m 35.910795,26.870197 c 0.053,-0.038 0.043,-0.031 0.009,-0.006 3.401,-2.431 -1.809,-0.792 -0.803,0.618 0.335,-0.091 0.6,-0.294 0.794,-0.612 z"
     id="path14"
     inkscape:connector-curvature="0" /><path
     d="m 15.254795,49.172197 c 0.556,-1.09 1.715,-1.056 2.415,-1.8 0.179,-0.19 -1.7,-0.014 -2.044,0.214 -0.73,0.484 -1.399,1.498 -0.583,2.245 0.144,-0.188 0.214,-0.408 0.212,-0.659 z"
     id="path16"
     inkscape:connector-curvature="0" /><path
     d="m 68.706795,49.376197 c 2.63,-1.137 1.67,-5.079 -1.078,-5.093 -2.865,-0.016 -4.764,2.386 -6.815,4.011 -6.035,4.78 -14.009,5.147 -20.953,8.132 -7.469,3.21 -14.684,6.844 -21.187,11.758 -3.163,2.39 -5.988,4.024 -9.6779997,5.457 -3.46,1.343 -6.173,3.086 -3.875,6.898 3.028,5.025 11.4379997,7.258 16.9169997,7.007 3.578,-0.165 6.937,-1.486 10.158,-2.955 3.459,-1.578 7.001,-3.066 10.243,-5.066 3.103,-1.914 5.959,-4.185 8.842,-6.406 2.73,-2.103 5.338,-3.96 7.256,-6.884 1.776,-2.708 3.024,-5.715 4.351,-8.656 0.658,-1.458 1.333,-2.909 2.108,-4.309 0.976,-1.767 2.11,-2.677 3.711,-3.894 z m -11.981,13.552 c 0.025,-0.044 0.027,-0.047 0,0 z m -0.726,1.296 c -0.002,0.004 -0.004,0.008 -0.007,0.012 -10e-4,10e-4 -10e-4,0.002 -0.002,0.003 0,0 0,-0.001 0.001,-0.001 -0.065,0.117 -0.117,0.208 -0.162,0.289 0.048,-0.086 0.102,-0.181 0.161,-0.287 -1.724,3.071 -4.683,5.46 -7.46,7.534 -0.007,-0.883 -2.015,-5.434 -2.839,-3.221 -0.875,2.35 2.272,3.737 -0.613,5.628 0.118,-0.886 -1.405,-4.798 -2.406,-2.999 -1.183,2.127 1.45,3.668 -1.338,5.299 -0.109,-1.039 -2.268,-2.671 -2.314,-0.913 -0.005,0.386 -0.068,0.763 -0.03,1.148 0.138,1.39 -0.655,1.468 -1.867,2.107 0.977,-2.525 -2.099,-5.244 -2.139,-2.116 -0.018,1.383 0.611,2.921 -0.614,3.511 -2.984,1.436 -6.156,2.814 -9.456,3.3 -0.018,-2.248 -2.603,-2.209 -2.357,0.112 -4.808,-0.421 -11.536,-1.178 -14.5069997,-5.537 2.2209997,-0.941 4.5329997,-1.451 6.6159997,-2.717 2.167,-1.318 4.081,-2.993 6.115,-4.496 4.569,-3.376 9.644,-5.949 14.736,-8.429 4.796,-2.335 9.753,-4.372 14.949,-5.626 2.042,-0.493 4.24,-0.566 6.206,-1.337 1.978,-0.775 3.826,-2.46 5.539,-3.673 -2.278,4.032 -3.949,8.37 -6.212,12.409 z"
     id="path18"
     inkscape:connector-curvature="0" /><path
     d="m 51.046795,58.291197 c 0.041,-0.028 0.05,-0.036 -0.06,0.037 -2.515,1.744 -5.253,3.216 -7.871,4.813 -3.172,1.512 -6.484,2.379 -9.597,4.091 -1.808,0.995 -3.817,1.564 -5.684,2.445 -1.689,0.983 -3.232,2.257 -4.976,3.142 -0.791,0.401 -5.548,2.361 -5.358,3.005 0.374,1.209 17.178,-6.48 18.8,-7.446 2.938,-1.748 6.227,-2.136 9.044,-4.203 0.64,-0.47 7.47,-4.905 6.302,-6.045 -0.224,-0.052 -0.421,0.012 -0.6,0.161 z"
     id="path20"
     inkscape:connector-curvature="0" /><path
     d="m 70.948795,50.712197 c -1.158,-0.971 -4.414,0.177 -2.706,1.609 2.15,1.806 3.731,3.176 2.778,6.193 -0.172,0.544 -1.056,2.253 -1.666,1.135 -0.517,-0.947 -0.187,-1.97 -0.139,-2.977 0.083,-1.747 -1.005,-3.314 -2.931,-2.547 -1.271,0.506 -0.823,4.588 -0.498,5.706 0.711,2.442 3.982,3.608 6.175,2.534 2.296,-1.125 3.203,-4.125 2.917,-6.507 -0.274,-2.306 -2.286,-3.766 -3.93,-5.146 z"
     id="path22"
     inkscape:connector-curvature="0" /><path
     d="m 58.841795,45.031197 c 0.668,-0.239 1.709,1.382 2.857,1.03 1.186,-0.363 1.454,-1.593 0.434,-2.346 -1.215,-0.896 -2.83,-1.899 -4.411,-1.351 -1.382,0.479 -3.058,-0.917 -4.257,0.536 -2.032,2.462 1.534,5.796 3.652,6.418 1.219,0.36 3.446,-0.722 1.911,-2.073 -1.185,-1.042 -1.813,-0.316 -2.333,-2.083 0.718,0.112 1.432,0.076 2.131,-0.127 -0.109,0.031 -0.645,0.191 0.016,-0.004 z"
     id="path24"
     inkscape:connector-curvature="0" /></svg>