<?xml version="1.0" encoding="iso-8859-1"?>
<!-- Generator: Adobe Illustrator 19.0.0, SVG Export Plug-In . SVG Version: 6.00 Build 0)  -->
<svg version="1.1" id="Capa_1" xmlns="http://www.w3.org/2000/svg" xmlns:xlink="http://www.w3.org/1999/xlink" x="0px" y="0px"
	 viewBox="0 0 512.001 512.001" style="enable-background:new 0 0 512.001 512.001;" xml:space="preserve">
<g>
	<g>
		<path d="M511.362,239.944c-0.292-1.113-0.833-2.176-1.622-3.101l-37.21-43.655c-0.001-0.002-0.002-0.003-0.004-0.005l-22.502-26.4
			c-0.002-0.002-0.004-0.004-0.005-0.006L377.59,81.802c-0.001-0.002-0.002-0.003-0.004-0.005l-9.541-11.194l-42.967-50.409
			c-0.04-0.047-0.086-0.087-0.126-0.133c-0.102-0.114-0.208-0.225-0.318-0.334c-0.086-0.085-0.172-0.17-0.261-0.251
			c-0.042-0.038-0.079-0.08-0.121-0.117L304.198,1.93c-3.278-2.85-8.247-2.503-11.099,0.777l-42.14,48.483l-11.175,12.858
			c-2.85,3.279-2.501,8.248,0.777,11.098c3.279,2.85,8.247,2.503,11.099-0.777l6.014-6.92l8.178,7.108l-31.818,36.607l-8.178-7.108
			l7.261-8.355c2.851-3.279,2.502-8.248-0.776-11.098c-3.278-2.85-8.248-2.503-11.098,0.777L208.82,99.672
			c-0.036,0.042-0.067,0.088-0.102,0.13c-0.039,0.043-0.081,0.08-0.119,0.124l-37.947,43.66c-0.037,0.042-0.067,0.087-0.102,0.13
			c-0.039,0.043-0.081,0.08-0.119,0.124l-17.538,20.178h-41.496C50.182,164.018,0.38,213.82,0.38,275.035v229.099
			c0,4.345,3.522,7.867,7.867,7.867c4.345,0,7.867-3.522,7.867-7.867V275.035c0-52.539,42.744-95.283,95.283-95.283h27.821
			l-10.926,12.571l-42.14,48.483c-0.184,0.212-0.354,0.431-0.511,0.656c-0.024,0.034-0.043,0.07-0.066,0.104
			c-0.133,0.196-0.258,0.394-0.371,0.598c-0.027,0.048-0.048,0.098-0.073,0.147c-0.102,0.194-0.198,0.389-0.283,0.588
			c-0.028,0.066-0.051,0.134-0.077,0.202c-0.072,0.184-0.14,0.37-0.198,0.558c-0.008,0.026-0.019,0.051-0.027,0.077
			c-2.756,9.321-5.882,19.885-5.882,31.3c0,4.345,3.522,7.867,7.867,7.867c4.345,0,7.867-3.522,7.867-7.867
			c0-5.027,0.816-10.01,1.97-14.928l10.615,9.226c0.045,0.039,0.093,0.072,0.138,0.11c0.08,0.066,0.161,0.13,0.244,0.194
			c0.133,0.102,0.269,0.199,0.408,0.292c0.051,0.035,0.098,0.074,0.151,0.108l39.037,24.808h0.001l29.279,18.606l94.246,59.892
			c0.001,0,0.001,0.001,0.002,0.001l8.085,5.138l69.611,44.237c1.301,0.827,2.764,1.227,4.215,1.227
			c2.214,0,4.399-0.932,5.942-2.706l59.421-68.366c0.001,0,0.001-0.001,0.001-0.001l24.93-28.683l66.999-77.084
			C511.446,245.087,512.005,242.393,511.362,239.944z M456.16,198.236l-21.205,24.397l-13.084-13.253l22.107-25.435L456.16,198.236z
			 M232.458,206.685l14.196,11.975l-29.101,33.481l-14.947-11.11L232.458,206.685z M189.942,231.617l-24.151-17.952l31.704-36.477
			l22.937,19.35L189.942,231.617z M348.353,235.878l16.604,14.999l-23.57,27.118l-72.384-61.065l25.673-29.537l30.956,27.963
			c3.224,2.913,8.199,2.662,11.111-0.564c2.912-3.224,2.66-8.199-0.564-11.111l-31.18-28.164l28.716-33.038l66.719,67.583
			L375.28,239l-16.381-14.797c-3.221-2.912-8.197-2.66-11.111,0.564C344.876,227.992,345.128,232.966,348.353,235.878z
			 M293.321,164.967l-13.782-12.45l30.006-34.523l13.084,13.254L293.321,164.967z M282.999,176.844l-26.022,29.939l-14.196-11.975
			l26.435-30.414L282.999,176.844z M258.68,228.806l72.384,61.065l-24.629,28.336l-76.218-56.653L258.68,228.806z M343.091,300.018
			l14.194,11.975l-23.239,26.737L319.1,327.62L343.091,300.018z M353.414,288.141l23.221-26.716l13.782,12.449l-22.808,26.242
			L353.414,288.141z M386.957,249.548l24.562-28.259l13.083,13.253l-23.863,27.455L386.957,249.548z M371.539,98.958l62.118,72.878
			l-22.872,26.314l-66.719-67.583L371.539,98.958z M355.486,80.122l5.733,6.727l-28.238,32.488l-13.084-13.254l29.14-33.526
			L355.486,80.122z M338.716,60.448l-29.905,34.406L287.67,73.44l31.363-36.084L338.716,60.448z M299.814,18.965l8.178,7.108
			L276.174,62.68l-8.178-7.108L299.814,18.965z M277.318,85.35l21.141,21.415l-30.598,35.204l-22.27-20.116L277.318,85.35z
			 M235.268,133.729l22.27,20.117l-26.784,30.816l-22.936-19.35L235.268,133.729z M215.313,116.185l8.178,7.108l-27.626,31.785
			l-8.177-7.108L215.313,116.185z M162.416,177.046c0.002-0.002,0.003-0.004,0.004-0.005l14.725-16.942l8.178,7.108l-31.818,36.608
			l-8.178-7.108L162.416,177.046z M103.188,245.19l12.308-14.162l19.51-22.446l8.178,7.108l-31.818,36.608L103.188,245.19z
			 M124.077,261.66l31.362-36.085l24.152,17.952l-29.905,34.407L124.077,261.66z M163.114,286.467l29.141-33.527l14.947,11.11
			l-28.238,32.489L163.114,286.467z M273.212,356.433l-80.821-51.36l27.474-31.609l76.219,56.654L273.212,356.433z M286.64,364.966
			l22.108-25.436l14.946,11.11l-21.205,24.397L286.64,364.966z M350.906,405.807l-34.99-22.236l20.441-23.518l32.998,24.528
			L350.906,405.807z M379.708,372.671l-32.998-24.528l22.602-26.004l31.338,26.437L379.708,372.671z M415.458,331.539l-4.486,5.161
			l-31.338-26.438l22.459-25.84l30.428,27.485L415.458,331.539z M442.843,300.03l-30.427-27.485l23.272-26.774l28.885,29.259
			L442.843,300.03z M474.925,263.121l-28.885-29.259l20.44-23.517l26.893,31.551L474.925,263.121z"/>
	</g>
</g>
<g>
	<g>
		<path d="M86.53,298.115c-4.345,0-7.867,3.522-7.867,7.867v198.152c0,4.345,3.522,7.867,7.867,7.867
			c4.345,0,7.867-3.522,7.867-7.867V305.982C94.397,301.636,90.875,298.115,86.53,298.115z"/>
	</g>
</g>
<g>
	<g>
		<path d="M47.805,262.813c-4.345,0-7.867,3.522-7.867,7.867v84.264c0,4.345,3.522,7.867,7.867,7.867
			c4.345,0,7.867-3.522,7.867-7.867V270.68C55.672,266.335,52.151,262.813,47.805,262.813z"/>
	</g>
</g>
<g>
	<g>
		<path d="M47.805,393.707c-4.345,0-7.867,3.522-7.867,7.867v63.575c0,4.345,3.522,7.867,7.867,7.867
			c4.345,0,7.867-3.522,7.867-7.867v-63.575C55.672,397.228,52.151,393.707,47.805,393.707z"/>
	</g>
</g>
<g>
</g>
<g>
</g>
<g>
</g>
<g>
</g>
<g>
</g>
<g>
</g>
<g>
</g>
<g>
</g>
<g>
</g>
<g>
</g>
<g>
</g>
<g>
</g>
<g>
</g>
<g>
</g>
<g>
</g>
</svg>
