<?xml version="1.0" encoding="UTF-8" standalone="no"?>
<svg
   xmlns:dc="http://purl.org/dc/elements/1.1/"
   xmlns:cc="http://creativecommons.org/ns#"
   xmlns:rdf="http://www.w3.org/1999/02/22-rdf-syntax-ns#"
   xmlns:svg="http://www.w3.org/2000/svg"
   xmlns="http://www.w3.org/2000/svg"
   xmlns:sodipodi="http://sodipodi.sourceforge.net/DTD/sodipodi-0.dtd"
   xmlns:inkscape="http://www.inkscape.org/namespaces/inkscape"
   version="1.1"
   x="0px"
   y="0px"
   viewBox="0 0 82.352127 49.537163"
   enable-background="new 0 0 100 100"
   xml:space="preserve"
   id="svg42"
   sodipodi:docname="sweet-potato.svg"
   width="82.352127"
   height="49.537163"
   inkscape:version="0.92.2 (5c3e80d, 2017-08-06)"><metadata
     id="metadata48"><rdf:RDF><cc:Work
         rdf:about=""><dc:format>image/svg+xml</dc:format><dc:type
           rdf:resource="http://purl.org/dc/dcmitype/StillImage" /><dc:title></dc:title></cc:Work></rdf:RDF></metadata><defs
     id="defs46" /><sodipodi:namedview
     pagecolor="#ffffff"
     bordercolor="#666666"
     borderopacity="1"
     objecttolerance="10"
     gridtolerance="10"
     guidetolerance="10"
     inkscape:pageopacity="0"
     inkscape:pageshadow="2"
     inkscape:window-width="750"
     inkscape:window-height="480"
     id="namedview44"
     showgrid="false"
     fit-margin-top="0"
     fit-margin-left="0"
     fit-margin-right="0"
     fit-margin-bottom="0"
     inkscape:zoom="1.888"
     inkscape:cx="-19.381625"
     inkscape:cy="14.35157"
     inkscape:window-x="0"
     inkscape:window-y="0"
     inkscape:window-maximized="0"
     inkscape:current-layer="svg42" /><g
     id="g36"
     transform="translate(-9.0002686,-27.314406)"><g
       id="g34"><path
         d="m 28.9751,53.71191 c 0.0918,0.02539 0.18457,0.03809 0.27539,0.03809 0.43506,0 0.83545,-0.28613 0.96094,-0.72559 0.29834,-1.04395 -0.10693,-2.94531 -0.23779,-3.50391 -0.12646,-0.53711 -0.66553,-0.86621 -1.20215,-0.74414 -0.5376,0.12695 -0.87109,0.66504 -0.74512,1.20215 0.2124,0.90527 0.36816,2.125 0.26221,2.49707 -0.15186,0.53028 0.15576,1.08399 0.68652,1.23633 z"
         id="path2"
         inkscape:connector-curvature="0"
         style="fill:#000000" /><path
         d="m 38.09375,47.71094 c -0.50439,0.22461 -0.73193,0.81543 -0.50732,1.32031 C 37.78174,49.47168 38,50.13184 38,50.375 c 0,0.55273 0.44775,1 1,1 0.55225,0 1,-0.44727 1,-1 0,-0.79688 -0.48828,-1.93555 -0.58643,-2.15625 -0.22461,-0.50586 -0.81543,-0.73242 -1.31982,-0.50781 z"
         id="path4"
         inkscape:connector-curvature="0"
         style="fill:#000000" /><path
         d="m 40.4834,44.86523 c 0.04834,0.0068 0.0957,0.0098 0.14307,0.0098 0.48926,0 0.91699,-0.35938 0.98828,-0.8584 0.14551,-1.01758 -0.30322,-2.89355 -0.39453,-3.25879 -0.13428,-0.53711 -0.67676,-0.86133 -1.21289,-0.72754 -0.53564,0.13379 -0.86133,0.67676 -0.72754,1.21191 0.18262,0.73047 0.42188,2.02637 0.35547,2.49121 -0.07813,0.54688 0.30175,1.05372 0.84814,1.13184 z"
         id="path6"
         inkscape:connector-curvature="0"
         style="fill:#000000" /><path
         d="m 47.15723,46.84766 c -0.50879,0.21484 -0.74658,0.80176 -0.53125,1.31055 0.31543,0.74512 0.57764,1.65332 0.57324,1.9707 -0.19238,0.45215 -0.02637,0.98828 0.40771,1.24805 0.16064,0.0957 0.3374,0.1416 0.51221,0.1416 0.34033,0 0.67188,-0.17383 0.85938,-0.48633 0.40186,-0.67285 0.23047,-1.90234 -0.51074,-3.65332 -0.21534,-0.50879 -0.80372,-0.7461 -1.31055,-0.53125 z"
         id="path8"
         inkscape:connector-curvature="0"
         style="fill:#000000" /><path
         d="m 90.73047,49.55371 c -0.10742,-0.54102 -0.63086,-0.89648 -1.17676,-0.78418 -0.54102,0.1084 -0.89258,0.63477 -0.78418,1.17676 0.20605,1.02832 0.34082,2.0459 0.43555,3.05078 -1.83105,-0.46582 -3.29395,-2.11621 -3.32227,-2.14941 -0.3584,-0.41699 -0.98926,-0.46582 -1.4082,-0.10645 -0.41992,0.35938 -0.46875,0.99023 -0.1084,1.40918 0.09473,0.11133 2.17773,2.49805 4.95801,2.9082 0.06055,3.1875 -0.44824,6.16113 -1.53027,8.65527 -2.8584,6.58496 -11.97656,11.1377 -18.42188,11.1377 -0.02734,0 -0.05566,0 -0.08398,0 -2.35938,-0.01465 -4.78613,-0.33594 -6.87402,-0.63672 -1.78223,-0.25586 -3.59668,-0.56934 -5.42188,-0.91113 4.04785,-2.0459 8.0957,-6.22168 9.31348,-9.3125 0.69629,-1.76758 4.12305,-10.875 3.18066,-16.53027 -0.09766,-0.58594 -0.21777,-1.10352 -0.35449,-1.57129 2.85352,1.29883 6.94141,3.04004 9.57324,3.64258 0.01562,0.79199 -0.02832,1.55859 -0.11133,1.80664 -0.27832,0.43652 -0.17773,1.02051 0.24414,1.33594 0.17969,0.13477 0.38965,0.2002 0.59863,0.2002 0.30469,0 0.60449,-0.1377 0.80078,-0.40039 0.33398,-0.44531 0.49121,-1.37109 0.47363,-2.74902 0.97461,-0.05664 1.89746,-0.26855 2.79199,-0.48438 1.23145,-0.29785 2.39258,-0.58105 3.61523,-0.41699 0.5498,0.06934 1.0498,-0.31152 1.12305,-0.85938 0.07324,-0.54688 -0.31152,-1.0498 -0.85938,-1.12305 -1.59277,-0.21289 -2.99316,0.12793 -4.34961,0.45508 C 82.06934,47.53027 81.16016,47.75 80.25,47.75 c -0.32031,0 -0.7627,-0.07715 -1.28027,-0.20312 0.44531,-0.64746 0.94336,-1.56445 1.3584,-2.86914 0.98047,-3.08105 -0.36035,-6.08984 -0.41797,-6.2168 -0.1377,-0.30273 -0.41699,-0.51758 -0.74609,-0.57227 -1.14453,-0.19043 -3.85547,-1.71582 -6.72656,-3.33008 -3.95312,-2.22363 -8.87402,-4.99121 -12.91309,-6.14551 -7.4707,-2.13281 -12.33105,-1.31445 -22.59668,3.81738 -8.67334,4.33594 -14.29102,11.43262 -16.0498,13.87305 -0.97607,-0.61133 -2.6665,-1.43652 -4.71143,-1.43652 -0.55225,0 -1,0.44727 -1,1 0,0.55273 0.44775,1 1,1 0.95947,0 1.82715,0.25195 2.53467,0.55371 -3.78857,1.46191 -6.87061,4.00684 -7.4707,5.20703 -0.30322,0.60742 -1.33203,1.67969 -1.90918,2.21289 -0.40527,0.375 -0.43018,1.00684 -0.05566,1.41309 0.19725,0.21289 0.46532,0.32129 0.73485,0.32129 0.24219,0 0.48535,-0.08789 0.67773,-0.26562 0.18018,-0.16602 1.77588,-1.65625 2.34082,-2.78711 0.31836,-0.61621 3.89209,-3.76855 8.34229,-4.85059 0.0332,-0.0078 0.05908,-0.03027 0.09082,-0.04199 0.05322,-0.01758 0.10156,-0.04102 0.15137,-0.06836 0.07324,-0.04102 0.13672,-0.08984 0.19727,-0.14746 0.02539,-0.02344 0.05859,-0.03418 0.08154,-0.06055 0.01514,-0.01758 0.01904,-0.04004 0.0332,-0.05859 0.01416,-0.01855 0.03564,-0.03027 0.04834,-0.05078 0.05859,-0.08984 5.96631,-9.07812 15.8584,-14.02441 1.61279,-0.80664 3.07275,-1.49023 4.43457,-2.0791 0.16211,0.49512 0.32129,0.99414 0.35645,1.13574 0.11426,0.4541 0.52148,0.75684 0.96924,0.75684 0.08057,0 0.1626,-0.0098 0.24414,-0.03027 0.53564,-0.13379 0.86133,-0.67676 0.72705,-1.21289 -0.06055,-0.24219 -0.28125,-0.92383 -0.44238,-1.41406 5.78174,-2.23438 9.65625,-2.32812 14.86426,-0.83887 3.8125,1.08887 8.61914,3.79199 12.48145,5.96484 2.89453,1.62793 5.25391,2.9541 6.79395,3.41895 0.26953,0.80469 0.72656,2.60449 0.1709,4.35156 -0.51367,1.61328 -1.15039,2.47461 -1.49512,2.85645 -0.27539,-0.0957 -0.56055,-0.19727 -0.85254,-0.30566 0.16016,-0.70898 0.07031,-1.75098 -0.27148,-3.11621 -0.13379,-0.53613 -0.67773,-0.85938 -1.21289,-0.72656 -0.53516,0.13379 -0.86133,0.67676 -0.72656,1.21289 0.16699,0.66895 0.27832,1.43457 0.28711,1.88379 -2.50488,-1.01465 -5.23633,-2.26074 -7.2959,-3.26953 -0.06641,-0.03223 -0.13672,-0.03711 -0.20605,-0.05371 -1.09668,-0.52051 -2.46973,-0.61914 -4.11328,-0.67773 h -9.8e-4 c -1.05273,-0.04395 -1.98926,0.15039 -2.83301,0.49219 -0.10938,-0.26855 -0.25684,-0.60449 -0.46387,-1.04395 -0.23438,-0.5 -0.83105,-0.71777 -1.33008,-0.47852 -0.5,0.23438 -0.71387,0.83008 -0.47852,1.33008 0.19043,0.40625 0.41211,0.91504 0.52051,1.20312 -1.86523,1.42676 -3.11816,3.56934 -3.99805,5.09082 -1.35449,2.34473 -4.46875,8.04883 -6.10303,13.52441 -6.52734,-0.04492 -12.2876,-2.42285 -18.40674,-4.97852 -1.86719,-0.78027 -3.79297,-1.57031 -5.72754,-2.29297 0.08594,-0.88574 0.15527,-2.37988 -0.10107,-4.00391 -0.08594,-0.54492 -0.59961,-0.92188 -1.14355,-0.83105 -0.5459,0.08594 -0.91797,0.59766 -0.83203,1.14355 0.22754,1.44238 0.15527,2.78711 0.08057,3.54297 -1.6499,0.31836 -5.82324,0.72266 -8.42188,0.92871 -0.55078,0.04395 -0.96143,0.52539 -0.91797,1.07617 0.04395,0.55078 0.52441,0.95801 1.07617,0.91797 1.24316,-0.09863 7.15576,-0.58594 9.1333,-1.07129 2.0415,0.74805 4.09473,1.60547 6.08301,2.43555 5.88086,2.45605 11.95264,4.98438 18.65088,5.12793 -0.66113,2.90039 -0.77637,5.60742 0.17334,7.55176 0.81494,1.66797 2.28418,2.66016 4.36768,2.94922 0.24512,0.03418 0.49609,0.05078 0.75195,0.05078 0.08789,0 0.18066,-0.0166 0.26953,-0.02051 3.11133,0.6748 6.22168,1.24023 9.24512,1.6748 2.1543,0.30957 4.66113,0.64062 7.14746,0.65625 0.03027,0 0.05957,0 0.09082,0 7.06934,0 17.09473,-5.0459 20.26074,-12.34082 2.31639,-5.33595 1.87791,-11.07813 1.10252,-14.95704 z M 49.29199,70.66309 c -1.97949,-4.05176 2.20605,-13.94824 6.39062,-21.19238 1.70801,-2.95312 3.49805,-5.59961 6.58496,-5.59961 0.06445,0 0.12988,9.8e-4 0.19531,0.0029 3.39844,0.12207 4.4248,0.1582 5.05078,3.91504 0.66406,3.9834 -1.23828,10.82227 -3.06934,15.46973 -1.4707,3.7334 -7.63281,8.96094 -11.49121,9.26172 -0.09766,-0.0088 -0.19531,-0.01562 -0.28809,0.0049 -0.17969,0.0019 -0.36035,0.0068 -0.52734,-0.01562 -1.4033,-0.19533 -2.33446,-0.79884 -2.84569,-1.84669 z"
         id="path10"
         inkscape:connector-curvature="0"
         style="fill:#000000" /><path
         d="m 72.73535,58.48242 c 0.16113,0.09668 0.33887,0.14258 0.51367,0.14258 0.33984,0 0.6709,-0.17285 0.8584,-0.48535 0.89746,-1.49609 0.66602,-3.86035 0.63672,-4.125 -0.06055,-0.54785 -0.54785,-0.94043 -1.10449,-0.88379 -0.54883,0.06152 -0.94434,0.55566 -0.88379,1.10449 0.05566,0.49707 0.10742,2.09082 -0.36328,2.875 -0.28418,0.47363 -0.13086,1.08789 0.34277,1.37207 z"
         id="path12"
         inkscape:connector-curvature="0"
         style="fill:#000000" /><path
         d="m 71.90039,72.6748 c 0.17969,0.13477 0.38965,0.2002 0.59863,0.2002 0.30469,0 0.60449,-0.1377 0.80078,-0.40039 0.83887,-1.11816 1.46973,-3.33301 1.53906,-3.58203 0.14746,-0.53223 -0.16406,-1.08301 -0.69629,-1.23047 -0.52637,-0.15137 -1.08203,0.16309 -1.23145,0.69531 -0.22266,0.80078 -0.74902,2.30176 -1.21094,2.91797 -0.33202,0.44141 -0.24217,1.06836 0.20021,1.39941 z"
         id="path14"
         inkscape:connector-curvature="0"
         style="fill:#000000" /><path
         d="m 66.30176,69.43359 c -0.11914,0.35645 -0.53613,1.49023 -0.88379,2.01172 -0.30664,0.45996 -0.18262,1.08008 0.27734,1.38672 C 65.86621,72.94531 66.05859,73 66.24902,73 c 0.32324,0 0.64062,-0.15625 0.83301,-0.44531 0.55859,-0.83691 1.06152,-2.32227 1.11621,-2.48828 0.1748,-0.52441 -0.1084,-1.09082 -0.63184,-1.26465 -0.52831,-0.17578 -1.08984,0.1084 -1.26464,0.63183 z"
         id="path16"
         inkscape:connector-curvature="0"
         style="fill:#000000" /><path
         d="m 82.10938,63.10449 -0.33301,1.41699 c -0.12598,0.53711 0.20703,1.0752 0.74512,1.20215 0.07714,0.01758 0.15331,0.02637 0.22949,0.02637 0.45312,0 0.86426,-0.31055 0.97266,-0.77148 l 0.33301,-1.41699 c 0.12598,-0.53711 -0.20703,-1.0752 -0.74512,-1.20215 -0.53712,-0.1211 -1.0752,0.20703 -1.20215,0.74511 z"
         id="path18"
         inkscape:connector-curvature="0"
         style="fill:#000000" /><path
         d="m 49.9165,43.41699 c 0.55225,0 1,-0.44727 1,-1 0,-0.85449 -0.40332,-2.41309 -0.44922,-2.58789 -0.14062,-0.53418 -0.68457,-0.85254 -1.22168,-0.71289 -0.53418,0.13965 -0.85303,0.68652 -0.71289,1.2207 0.15967,0.60645 0.38379,1.65234 0.38379,2.08008 0,0.55274 0.44776,1 1,1 z"
         id="path20"
         inkscape:connector-curvature="0"
         style="fill:#000000" /><path
         d="m 58.75,35.58301 c 0.55273,0 1,-0.44727 1,-1 0,-0.13672 0,-0.4209 -0.55664,-1.99902 -0.18457,-0.51953 -0.75391,-0.79004 -1.27637,-0.61035 -0.52051,0.18457 -0.79395,0.75586 -0.61035,1.27637 0.19336,0.54687 0.41992,1.24999 0.44336,1.333 0,0.55273 0.44727,1 1,1 z"
         id="path22"
         inkscape:connector-curvature="0"
         style="fill:#000000" /><path
         d="m 32.75,43.83301 c 0.55225,0 1,-0.44727 1,-1 0,-0.75684 -0.34961,-1.58203 -0.41992,-1.73926 -0.22363,-0.50293 -0.81104,-0.72754 -1.31738,-0.50781 -0.50439,0.22363 -0.73242,0.81348 -0.51074,1.31836 0.10303,0.23438 0.24805,0.67773 0.24805,0.92871 -10e-6,0.55273 0.44774,1 0.99999,1 z"
         id="path24"
         inkscape:connector-curvature="0"
         style="fill:#000000" /><path
         d="m 35.16992,56.73633 c 0.05518,0.0098 0.11035,0.01367 0.16455,0.01367 0.48047,0 0.9043,-0.34668 0.98535,-0.83594 0.10107,-0.60938 -0.08545,-1.72852 -0.17041,-2.18164 -0.10156,-0.54199 -0.62451,-0.90137 -1.16699,-0.79785 -0.54248,0.10156 -0.90039,0.62402 -0.79883,1.16699 0.11279,0.60156 0.18896,1.29688 0.16357,1.48438 -0.09081,0.54492 0.27784,1.06054 0.82276,1.15039 z"
         id="path26"
         inkscape:connector-curvature="0"
         style="fill:#000000" /><path
         d="m 44.99854,60.25 c 0.03711,0 0.07422,-0.002 0.11182,-0.0059 0.54883,-0.06152 0.94434,-0.55566 0.8833,-1.10449 l -0.125,-1.125 c -0.06055,-0.5498 -0.55615,-0.94141 -1.104,-0.88379 -0.54883,0.06152 -0.94434,0.55566 -0.8833,1.10449 l 0.125,1.125 c 0.05663,0.51172 0.48973,0.88965 0.99218,0.88965 z"
         id="path28"
         inkscape:connector-curvature="0"
         style="fill:#000000" /><path
         d="m 54.67188,67.72168 c 0.07617,0 0.14648,-0.0039 0.20996,-0.0098 2.4541,-0.24414 4.29199,-4.4834 4.30957,-4.52637 0.20898,-0.51074 -0.03613,-1.09473 -0.54785,-1.30371 -0.50684,-0.20801 -1.09473,0.03613 -1.30371,0.54785 -0.49707,1.2168 -1.91504,3.21777 -2.65625,3.29199 -0.12109,0.01074 -0.26172,-0.17969 -0.30859,-0.23926 -0.1709,-0.52148 0.33203,-2.30957 1.49707,-5.31641 0.18066,-0.46777 0.32715,-0.84766 0.40527,-1.08496 0.17383,-0.52441 -0.11133,-1.08984 -0.63574,-1.2627 -0.52344,-0.17969 -1.08984,0.11133 -1.2627,0.63574 -0.07227,0.2168 -0.20703,0.5625 -0.37207,0.99023 -1.47461,3.80762 -2.08496,5.9502 -1.32617,7.0918 0.66015,0.99319 1.46581,1.18557 1.99121,1.18557 z"
         id="path30"
         inkscape:connector-curvature="0"
         style="fill:#000000" /><path
         d="m 57.31641,54.96191 c 0.50684,0.21777 1.09473,-0.01953 1.31152,-0.52832 0.51172,-1.20117 1.54883,-2.57617 2.39941,-2.79883 0.19531,-0.05371 0.44727,-0.06836 0.79883,0.20312 0.08496,0.06543 0.7666,0.78516 -1.5957,5.69238 l -0.13867,0.28906 c -0.2373,0.5 -0.02441,1.0957 0.47461,1.33203 0.13867,0.06543 0.28418,0.09668 0.42773,0.09668 0.375,0 0.7334,-0.21094 0.9043,-0.57129 l 0.13379,-0.27832 c 1.5498,-3.21973 2.88281,-6.7041 1.01465,-8.14453 -0.76855,-0.59375 -1.64355,-0.78516 -2.52539,-0.55469 -2.24414,0.58691 -3.58789,3.6084 -3.7334,3.95117 -0.2168,0.50783 0.0205,1.09572 0.52832,1.31154 z"
         id="path32"
         inkscape:connector-curvature="0"
         style="fill:#000000" /></g></g></svg>