<?xml version="1.0" encoding="UTF-8" standalone="no"?>
<svg
   xmlns:dc="http://purl.org/dc/elements/1.1/"
   xmlns:cc="http://creativecommons.org/ns#"
   xmlns:rdf="http://www.w3.org/1999/02/22-rdf-syntax-ns#"
   xmlns:svg="http://www.w3.org/2000/svg"
   xmlns="http://www.w3.org/2000/svg"
   xmlns:sodipodi="http://sodipodi.sourceforge.net/DTD/sodipodi-0.dtd"
   xmlns:inkscape="http://www.inkscape.org/namespaces/inkscape"
   width="128"
   height="128"
   overflow="hidden"
   version="1.1"
   id="svg25"
   sodipodi:docname="line-tool.svg"
   inkscape:version="0.92.4 (5da689c313, 2019-01-14)"
   style="overflow:hidden">
  <metadata
     id="metadata29">
    <rdf:RDF>
      <cc:Work
         rdf:about="">
        <dc:format>image/svg+xml</dc:format>
        <dc:type
           rdf:resource="http://purl.org/dc/dcmitype/StillImage" />
        <dc:title></dc:title>
      </cc:Work>
    </rdf:RDF>
  </metadata>
  <sodipodi:namedview
     pagecolor="#ffffff"
     bordercolor="#666666"
     borderopacity="1"
     objecttolerance="10"
     gridtolerance="10"
     guidetolerance="10"
     inkscape:pageopacity="0"
     inkscape:pageshadow="2"
     inkscape:window-width="1347"
     inkscape:window-height="691"
     id="namedview27"
     showgrid="false"
     inkscape:zoom="1.7226278"
     inkscape:cx="-64.481913"
     inkscape:cy="105.33091"
     inkscape:window-x="0"
     inkscape:window-y="0"
     inkscape:window-maximized="0"
     inkscape:current-layer="g23" />
  <defs
     id="defs5">
    <clipPath
       id="clip0">
      <rect
         x="79"
         y="86"
         width="137"
         height="137"
         id="rect2" />
    </clipPath>
  </defs>
  <g
     clip-path="url(#clip0)"
     transform="translate(-79,-95)"
     id="g23">
    <path
       d="M 79,149.80898 H 207"
       stroke-miterlimit="8"
       id="path11"
       inkscape:connector-curvature="0"
       style="fill:none;fill-rule:evenodd;stroke:#000000;stroke-width:6.38204193;stroke-miterlimit:8" />
    <path
       d="m 104.90466,114.45127 c 0,-4.9714 4.0286,-9 9,-9 4.9714,0 9,4.0286 9,9 0,4.9714 -4.0286,9 -9,9 -4.9714,0 -9,-4.0286 -9,-9 z"
       id="path13"
       inkscape:connector-curvature="0"
       style="fill:#548235;fill-rule:evenodd;stroke-width:1.63636303" />
    <path
       d="m 133.28417,134.16493 c 0,-4.9714 4.0286,-9 9,-9 4.9714,0 9,4.0286 9,9 0,4.9714 -4.0286,9 -9,9 -4.9714,0 -9,-4.0286 -9,-9 z"
       id="path13-9"
       inkscape:connector-curvature="0"
       style="overflow:hidden;fill:#548235;fill-rule:evenodd;stroke-width:1.63636303" />
    <path
       d="m 162.19436,121.97425 c 0,-4.9714 4.0286,-9 9,-9 4.9714,0 9,4.0286 9,9 0,4.9714 -4.0286,9 -9,9 -4.9714,0 -9,-4.0286 -9,-9 z"
       id="path13-0"
       inkscape:connector-curvature="0"
       style="overflow:hidden;fill:#548235;fill-rule:evenodd;stroke-width:1.63636303" />
    <path
       d="m 86.544687,173.02627 c 0,-4.9714 4.028599,-9.00001 8.999999,-9.00001 4.971394,0 9.000004,4.02861 9.000004,9.00001 0,4.9714 -4.02861,9 -9.000004,9 -4.9714,0 -8.999999,-4.0286 -8.999999,-9 z"
       id="path13-1"
       inkscape:connector-curvature="0"
       style="overflow:hidden;fill:#bf7720;fill-opacity:1;fill-rule:evenodd;stroke-width:1.63636363" />
    <path
       d="m 175.58585,186.67676 c 0,-4.9714 4.02859,-9 8.99999,-9 4.9714,0 9,4.0286 9,9 0,4.9714 -4.0286,9 -9,9 -4.9714,0 -8.99999,-4.0286 -8.99999,-9 z"
       id="path13-1-9"
       inkscape:connector-curvature="0"
       style="overflow:hidden;fill:#bf7720;fill-opacity:1;fill-rule:evenodd;stroke-width:1.63636303" />
  </g>
</svg>
