<?xml version="1.0" encoding="UTF-8" standalone="no"?>
<svg
   xmlns:dc="http://purl.org/dc/elements/1.1/"
   xmlns:cc="http://creativecommons.org/ns#"
   xmlns:rdf="http://www.w3.org/1999/02/22-rdf-syntax-ns#"
   xmlns:svg="http://www.w3.org/2000/svg"
   xmlns="http://www.w3.org/2000/svg"
   xmlns:sodipodi="http://sodipodi.sourceforge.net/DTD/sodipodi-0.dtd"
   xmlns:inkscape="http://www.inkscape.org/namespaces/inkscape"
   width="128"
   height="128"
   overflow="hidden"
   version="1.1"
   id="svg27"
   sodipodi:docname="tercile-tool.svg"
   inkscape:version="0.92.4 (5da689c313, 2019-01-14)"
   style="overflow:hidden">
  <metadata
     id="metadata31">
    <rdf:RDF>
      <cc:Work
         rdf:about="">
        <dc:format>image/svg+xml</dc:format>
        <dc:type
           rdf:resource="http://purl.org/dc/dcmitype/StillImage" />
        <dc:title />
      </cc:Work>
    </rdf:RDF>
  </metadata>
  <sodipodi:namedview
     pagecolor="#ffffff"
     bordercolor="#666666"
     borderopacity="1"
     objecttolerance="10"
     gridtolerance="10"
     guidetolerance="10"
     inkscape:pageopacity="0"
     inkscape:pageshadow="2"
     inkscape:window-width="1433"
     inkscape:window-height="713"
     id="namedview29"
     showgrid="false"
     inkscape:zoom="2.4361636"
     inkscape:cx="-38.584465"
     inkscape:cy="85.816687"
     inkscape:window-x="412"
     inkscape:window-y="331"
     inkscape:window-maximized="0"
     inkscape:current-layer="g25" />
  <defs
     id="defs5">
    <clipPath
       id="clip0">
      <rect
         x="308"
         y="87"
         width="137"
         height="137"
         id="rect2" />
    </clipPath>
  </defs>
  <g
     clip-path="url(#clip0)"
     transform="translate(-308,-96)"
     id="g25">
    <path
       d="m 311.23903,185.26203 c 0,-4.97057 4.02943,-9 9,-9 4.97057,0 9,4.02943 9,9 0,4.97057 -4.02943,9 -9,9 -4.97057,0 -9,-4.02943 -9,-9 z"
       id="path13"
       inkscape:connector-curvature="0"
       style="fill-rule:evenodd;stroke-width:2.57142854;fill:#a9a9a9" />
    <path
       d="m 311.21891,140.78138 h 121.5622"
       stroke-miterlimit="8"
       id="path21"
       inkscape:connector-curvature="0"
       style="fill:none;fill-rule:evenodd;stroke:#aa1718;stroke-width:6.43751955;stroke-linecap:square;stroke-miterlimit:8;stroke-dasharray:19.31255905, 6.43751969" />
    <path
       d="M 311.44086,171 H 432.55914"
       stroke-miterlimit="8"
       id="path23"
       inkscape:connector-curvature="0"
       style="fill:none;fill-rule:evenodd;stroke:#aa1718;stroke-width:6.42575455;stroke-linecap:square;stroke-miterlimit:8;stroke-dasharray:19.27726389, 6.42575463" />
    <path
       d="m 328.96516,194.85583 c 0,-4.97057 4.02943,-9 9,-9 4.97057,0 9,4.02943 9,9 0,4.97057 -4.02943,9 -9,9 -4.97057,0 -9,-4.02943 -9,-9 z"
       id="path13-3"
       inkscape:connector-curvature="0"
       style="overflow:hidden;fill-rule:evenodd;stroke-width:2.57142854;fill:#a9a9a9" />
    <path
       d="m 371.65522,155.86007 c 0,-4.97057 4.02943,-9 9,-9 4.97057,0 9,4.02943 9,9 0,4.97057 -4.02943,9 -9,9 -4.97057,0 -9,-4.02943 -9,-9 z"
       id="path13-38"
       inkscape:connector-curvature="0"
       style="overflow:hidden;fill-rule:evenodd;stroke-width:2.57142854;fill:#a9a9a9" />
    <path
       d="m 392.17929,124.25299 c 0,-4.97057 4.02943,-9 9,-9 4.97057,0 9,4.02943 9,9 0,4.97057 -4.02943,9 -9,9 -4.97057,0 -9,-4.02943 -9,-9 z"
       id="path13-5"
       inkscape:connector-curvature="0"
       style="overflow:hidden;fill-rule:evenodd;stroke-width:2.57142854;fill:#a9a9a9" />
    <path
       d="m 415.57674,114.81193 c 0,-4.97057 4.02943,-9 9,-9 4.97057,0 9,4.02943 9,9 0,4.97057 -4.02943,9 -9,9 -4.97057,0 -9,-4.02943 -9,-9 z"
       id="path13-9"
       inkscape:connector-curvature="0"
       style="overflow:hidden;fill-rule:evenodd;stroke-width:2.57142854;fill:#a9a9a9" />
    <path
       d="m 350.72065,156.27055 c 0,-4.97057 4.02943,-9 9,-9 4.97057,0 9,4.02943 9,9 0,4.97057 -4.02943,9 -9,9 -4.97057,0 -9,-4.02943 -9,-9 z"
       id="path13-99"
       inkscape:connector-curvature="0"
       style="overflow:hidden;fill-rule:evenodd;stroke-width:2.57142854;fill:#a9a9a9" />
  </g>
</svg>
