<svg xmlns="http://www.w3.org/2000/svg" xml:space="preserve" width="128" height="128" class="icon"
  viewBox="0 0 128 128">
  <path
    d="M19.178 126.06h-.007c-3.63 0-6.587-3.402-6.59-7.583L12.473 9.601c-.002-1.96.638-3.82 1.803-5.235 1.233-1.5 2.976-2.36 4.78-2.362l66.047-.065h.002c.481 0 .945.183 1.295.513l28.44 26.68a1.897 1.897 0 0 1 .6 1.38l.085 87.864c.004 4.184-2.95 7.592-6.582 7.598z"
    style="display:inline;fill:none;fill-opacity:1;stroke:currentColor;stroke-width:4;stroke-dasharray:none;stroke-opacity:1" />
  <path
    d="M89.665 33.124h-.007c-3.63 0-6.587-3.402-6.592-7.584l-.02-21.01a1.893 1.893 0 0 1 1.136-1.737 1.893 1.893 0 0 1 2.047.348l28.693 26.68a1.893 1.893 0 0 1 .473 2.078 1.892 1.892 0 0 1-1.76 1.202z"
    style="display:inline;fill:none;fill-opacity:1;stroke:currentColor;stroke-width:4;stroke-dasharray:none;stroke-opacity:1" />
  <path
    d="M54.266 109.23a2.203 2.203 0 0 0-2.203 2.203v4.406a2.203 2.203 0 0 0 4.406 0v-4.406a2.204 2.204 0 0 0-2.203-2.203zm-3.918-60.28c.431.43.994.645 1.558.645a2.202 2.202 0 0 0 1.557-3.76l-3.115-3.116a2.202 2.202 0 1 0-3.114 3.115zm17.136-5.807a2.204 2.204 0 0 0 2.203-2.203v-4.405a2.204 2.204 0 0 0-4.406 0v4.405c0 1.216.986 2.203 2.203 2.203zm15.578 6.452c.564 0 1.126-.215 1.557-.646l3.115-3.115a2.202 2.202 0 1 0-3.115-3.115l-3.115 3.115a2.202 2.202 0 0 0 1.558 3.76zm-38.709 53.027a2.203 2.203 0 0 0-2.203 2.203v4.405a2.203 2.203 0 0 0 4.406 0v-4.405a2.204 2.204 0 0 0-2.203-2.203zM93.92 60.767h-4.406a2.203 2.203 0 0 0 0 4.405h4.406a2.204 2.204 0 0 0 0-4.405zM54.266 96.013a2.203 2.203 0 0 0-2.203 2.203v4.406a2.203 2.203 0 0 0 4.406 0v-4.406a2.204 2.204 0 0 0-2.203-2.203zm27.048-26.229a15.369 15.369 0 0 0 1.59-6.815c0-8.503-6.917-15.42-15.42-15.42a15.455 15.455 0 0 0-12.663 6.632c-.185-.006-.367-.023-.554-.023-8.441 0-15.661 5.52-17.966 13.42-.635-.116-1.301-.203-1.86-.203-6.681 0-12.116 5.436-12.116 12.116s5.435 12.116 12.116 12.116h7.71v4.406a2.203 2.203 0 0 0 4.405 0v-4.406h15.42v4.406a2.203 2.203 0 0 0 4.406 0v-4.406h7.712c6.68 0 12.116-5.435 12.116-12.116 0-3.974-1.932-7.496-4.896-9.707zm-13.83-17.829c6.073 0 11.014 4.941 11.014 11.014 0 1.706-.396 3.36-1.14 4.866a12.06 12.06 0 0 0-3.264-.46c-.56 0-1.225.087-1.862.203A18.593 18.593 0 0 0 59.885 55.02a11.022 11.022 0 0 1 7.599-3.065Zm6.61 35.246H34.44c-4.25 0-7.71-3.46-7.71-7.71s3.46-7.71 7.71-7.71c.305 0 .797.075 1.313.179v2.024a2.204 2.204 0 0 0 4.406 0v-3.54c1.18-6.89 7.088-11.88 14.107-11.88 7.017 0 12.924 4.987 14.106 11.874v3.546a2.204 2.204 0 0 0 4.405 0v-2.023c.52-.104 1.014-.18 1.316-.18 4.25 0 7.71 3.46 7.71 7.71s-3.46 7.71-7.71 7.71zm-9.915 15.42a2.203 2.203 0 0 0-2.203 2.204v4.405a2.203 2.203 0 0 0 4.406 0v-4.405a2.204 2.204 0 0 0-2.203-2.203z" />
</svg>